<svg id="Capa_1" enable-background="new 0 0 512 512" height="512" viewBox="0 0 512 512" width="512" xmlns="http://www.w3.org/2000/svg"><path d="m507 157.895h-413.63v196.209h413.63l5-6.341v-183.527z" fill="#f0f9ff"/><path d="m507 157.895h-251v196.209h251l5-6.341v-183.527z" fill="#cee5f5"/><path d="m512 164.236v-91.35c0-24.858-20.225-45.083-45.084-45.083h-421.832c-7.863 0-15.262 2.023-21.704 5.576l-.049 5.409 87.495 125.447h4.208 396.966z" fill="#f40055"/><path d="m22.464 478.101c6.653 3.875 14.382 6.096 22.62 6.096h421.832c24.859 0 45.084-20.225 45.084-45.084v-91.349h-397.495-2.908l-90.138 126.431z" fill="#141a1a"/><path d="m466.916 27.803h-210.916v136.433h256v-91.35c0-24.858-20.225-45.083-45.084-45.083z" fill="#c20044"/><path d="m256 347.763v136.433h210.916c24.859 0 45.084-20.225 45.084-45.084v-91.349z" fill="#040505"/><path d="m23.383 33.384c-13.926 7.681-23.383 22.506-23.383 39.502v366.227c0 16.621 9.047 31.159 22.469 38.977l140.781-199.352c9.633-13.641 9.669-31.861.088-45.539z" fill="#39b44a"/></svg>