<svg id="Capa_1" enable-background="new 0 0 512 512" height="512" viewBox="0 0 512 512" width="512" xmlns="http://www.w3.org/2000/svg"><path d="m256 27.803h-80.11l-4.363 3h-71.773l-3.974-3h-50.696c-24.859 0-45.084 20.225-45.084 45.083v366.227c0 24.859 20.225 45.084 45.084 45.084h50.698l4.625-2.716h70.666l4.818 2.716h80.109l8.107-9.565v-438.627z" fill="#39b44a"/><path d="m466.916 27.803h-210.916v456.394h210.916c24.859 0 45.084-20.225 45.084-45.084v-366.227c0-24.858-20.225-45.083-45.084-45.083z" fill="#2f963e"/><path d="m-92.361 215.945h456.393v80.11h-456.393z" fill="#f40055" transform="matrix(0 1 -1 0 391.835 120.164)"/><path d="m246.169 119.664c0-7.761-5.895-14.145-13.452-14.92-.775-7.557-7.159-13.452-14.92-13.452s-14.145 5.895-14.92 13.452c-7.557.775-13.452 7.159-13.452 14.92s5.895 14.145 13.452 14.92c.775 7.557 7.159 13.452 14.92 13.452s14.145-5.895 14.92-13.452c7.557-.775 13.452-7.159 13.452-14.92z" fill="#f0f9ff"/><path d="m256.643 211.728-.644-1.574c-3.074-3.228-5.678-6.74-7.813-10.447-2.527-4.389-9.32-2.327-9.07 2.732.808 16.32 6.446 32.437 16.887 46.057l.647-.482z" fill="#f0f9ff"/><path d="m334.452 133.639c21.912 21.912 21.388 57.763-1.572 79.008-20.884 19.324-53.629 19.277-74.462-.102-.836-.778-1.643-1.575-2.419-2.391l-.003 38.366c2.225 2.902 4.668 5.69 7.33 8.342 32.215 32.093 85.073 31.894 117.056-.431 31.951-32.293 31.846-84.372-.316-116.535-15.082-15.082-34.544-23.113-54.292-24.096-5.092-.253-7.224 6.5-2.803 9.039 4.107 2.358 7.973 5.292 11.481 8.8z" fill="#cee5f5"/></svg>