<svg id="Capa_1" enable-background="new 0 0 512 512" height="512" viewBox="0 0 512 512" width="512" xmlns="http://www.w3.org/2000/svg"><path d="m0 133.015v122.985l3 2.49h507l2-2.49v-122.985l-3.698-2.408h-505.402z" fill="#406bd4"/><path d="m0 378.986v60.127c0 24.859 20.225 45.084 45.084 45.084h421.832c24.859 0 45.084-20.225 45.084-45.084v-60.127l-4.243-2.269h-503.424z" fill="#39b44a"/><path d="m507.757 376.717h-251.757v107.48h210.916c24.859 0 45.084-20.225 45.084-45.084v-60.127z" fill="#2f963e"/><path d="m512 72.887c0-24.859-20.225-45.084-45.084-45.084h-421.832c-24.859 0-45.084 20.225-45.084 45.084v60.127h512z" fill="#f40055"/><path d="m0 256h512v122.986h-512z" fill="#ffcb24"/><path d="m508.302 130.607h-252.306v127.883h254.004l2-2.49v-122.985z" fill="#3257b0"/><path d="m466.916 27.803h-210.92v105.211h256.004v-60.127c0-24.859-20.225-45.084-45.084-45.084z" fill="#c20044"/><path d="m255.996 256h256.004v122.986h-256.004z" fill="#f49600"/></svg>