<svg id="Capa_1" enable-background="new 0 0 512 512" height="512" viewBox="0 0 512 512" width="512" xmlns="http://www.w3.org/2000/svg"><path d="m4 257.208h503v-4.535l5-7.882v-171.904c0-24.859-20.225-45.084-45.084-45.084h-421.832c-24.859 0-45.084 20.225-45.084 45.084v171.904l4 4.272z" fill="#ffcb24"/><path d="m466.916 27.803h-210.916v229.404h251v-4.535l5-7.882v-171.903c0-24.859-20.225-45.084-45.084-45.084z" fill="#f49600"/><path d="m0 244.791h512v118.994h-512z" fill="#406bd4"/><path d="m0 359.62v79.493c0 24.859 20.225 45.084 45.084 45.084h421.832c24.859 0 45.084-20.225 45.084-45.084v-79.493z" fill="#f40055"/><path d="m256 244.791h256v118.994h-256z" fill="#3257b0"/><path d="m256 359.62v124.577h210.916c24.859 0 45.084-20.225 45.084-45.084v-79.493z" fill="#c20044"/></svg>