<svg id="Capa_1" enable-background="new 0 0 512 512" height="512" viewBox="0 0 512 512" width="512" xmlns="http://www.w3.org/2000/svg"><path d="m466.916 27.803h-240.647l-1.726 1.281h-67.66l-1.278-1.281h-110.521c-24.859 0-45.084 20.225-45.084 45.084v113.062l1.169 1.265v67.077l-1.169 2.321v182.5c0 24.859 20.225 45.084 45.084 45.084h110.522l1.92-1.447h66.833l1.911 1.447h240.647c24.859 0 45.084-20.225 45.084-45.084v-182.5l-1.206-1.788v-67.142l1.206-1.733v-113.062c-.001-24.859-20.226-45.084-45.085-45.084z" fill="#4cc1ff"/><path d="m512 185.949v-113.062c0-24.859-20.225-45.084-45.084-45.084h-210.916v456.394h210.916c24.859 0 45.084-20.225 45.084-45.084v-182.5l-1.206-1.788v-67.142z" fill="#40a0d4"/><path d="m226.269 484.197v-227.585h285.731v-70.663h-285.731v-158.146h-70.664v158.146h-155.605v70.663h155.605v227.585z" fill="#ffcb24"/><path d="m256 185.949h256v70.664h-256z" fill="#f49600"/></svg>