<svg id="Capa_1" enable-background="new 0 0 512 512" height="512" viewBox="0 0 512 512" width="512" xmlns="http://www.w3.org/2000/svg"><path d="m466.916 27.803h-421.832c-24.859 0-45.084 20.225-45.084 45.084v366.226c0 24.859 20.225 45.084 45.084 45.084h421.832c24.859 0 45.084-20.225 45.084-45.084v-366.226c0-24.859-20.225-45.084-45.084-45.084z" fill="#f40055"/><path d="m466.916 27.803h-210.916v456.394h210.916c24.859 0 45.084-20.225 45.084-45.084v-366.226c0-24.859-20.225-45.084-45.084-45.084z" fill="#c20044"/><path d="m0 164.696h512v182.609h-512z" fill="#406bd4"/><path d="m256 164.696h256v182.609h-256z" fill="#3257b0"/><path d="m0 327.312h512v62.289h-512z" fill="#f0f9ff"/><path d="m0 122.399h512v62.289h-512z" fill="#fff"/><g fill="#cee5f5"><path d="m256 327.312h256v62.289h-256z"/><path d="m256 122.399h256v62.289h-256z"/></g></svg>