<svg id="Capa_1" enable-background="new 0 0 512 512" height="512" viewBox="0 0 512 512" width="512" xmlns="http://www.w3.org/2000/svg"><path d="m142.474 31.804h-5.737l-4.396-4h-87.257c-24.859-.001-45.084 20.224-45.084 45.083v366.226c0 24.859 20.225 45.084 45.084 45.084h87.256l6.348-4h3.786z" fill="#39b44a"/><path d="m466.916 27.803h-87.256l-4.522 4h-3.906v448.393h2.905l5.523 4h87.256c24.859 0 45.084-20.225 45.084-45.084v-366.225c0-24.859-20.225-45.084-45.084-45.084z" fill="#c20044"/><path d="m132.34 27.803h247.32v456.394h-247.32z" fill="#f0f9ff"/><path d="m256 27.803h123.66v456.394h-123.66z" fill="#cee5f5"/><path d="m332.495 215.586c-3.896-7.312-12.98-10.079-20.292-6.187-7.312 3.895-10.081 12.979-6.187 20.291 4.393 8.245 6.619 17.185 6.619 26.573 0 31.229-25.406 56.636-56.636 56.636s-56.636-25.407-56.636-56.636c0-9.388 2.227-18.328 6.619-26.573 3.895-7.312 1.125-16.396-6.187-20.291-7.312-3.894-16.396-1.125-20.292 6.187-6.634 12.454-10.141 26.52-10.141 40.677 0 47.771 38.864 86.636 86.636 86.636s86.636-38.865 86.636-86.636c.002-14.157-3.505-28.223-10.139-40.677z" fill="#39b44a"/><path d="m296.249 253.454c-1.256-20.238-17.466-36.447-37.703-37.703-4.367-.271-8.713.187-12.874 1.293v-3.855c0-13.791-11.22-25.011-25.011-25.011-8.284 0-15 6.716-15 15 0 6.535 4.179 12.094 10.011 14.15v38.672c0 22.237 18.091 40.328 40.328 40.328 8.284 0 15-6.716 15-15s-6.716-15-15-15c-5.695 0-10.328-4.633-10.328-10.328 0-2.881 1.157-5.555 3.259-7.53 2.097-1.971 4.841-2.958 7.757-2.777 5.079.315 9.305 4.541 9.62 9.62.513 8.27 7.659 14.567 15.9 14.041 8.269-.512 14.555-7.631 14.041-15.9z" fill="#f49600"/><path d="m332.495 215.586c-3.896-7.312-12.98-10.079-20.292-6.187-7.312 3.895-10.081 12.979-6.187 20.291 4.393 8.245 6.619 17.185 6.619 26.573 0 31.229-25.406 56.636-56.636 56.636v30c47.771 0 86.636-38.865 86.636-86.636.001-14.157-3.506-28.223-10.14-40.677z" fill="#2f963e"/><path d="m256.001 266.328-.001 30c8.284 0 15-6.716 15-15s-6.715-14.999-14.999-15z" fill="#e67200"/><path d="m256.001 266.328v-4.241l-.001 4.241z"/><path d="m296.249 253.454c-1.256-20.238-17.466-36.447-37.703-37.703-.849-.053-1.696-.078-2.542-.076l.004 29.998c.226 0 .453.007.68.021 5.079.315 9.305 4.541 9.62 9.62.513 8.27 7.659 14.567 15.9 14.041 8.269-.513 14.555-7.632 14.041-15.901z" fill="#e67200"/></svg>