<svg id="Capa_1" enable-background="new 0 0 512 512" height="512" viewBox="0 0 512 512" width="512" xmlns="http://www.w3.org/2000/svg"><path d="m466.916 27.803h-87.256l-4.523 4h-238.401l-4.397-4h-87.255c-24.859 0-45.084 20.225-45.084 45.084v366.226c0 24.859 20.225 45.084 45.084 45.084h87.256l6.348-4h235.449l5.523 4h87.256c24.859 0 45.084-20.225 45.084-45.084v-366.226c0-24.859-20.225-45.084-45.084-45.084z" fill="#f40055"/><path d="m466.916 27.803h-87.256l-4.523 4h-119.137v448.393h118.137l5.523 4h87.256c24.859 0 45.084-20.225 45.084-45.084v-366.225c0-24.859-20.225-45.084-45.084-45.084z" fill="#c20044"/><path d="m132.34 27.803h247.32v456.394h-247.32z" fill="#f0f9ff"/><path d="m256 27.803h123.66v456.394h-123.66z" fill="#cee5f5"/><path d="m327.493 211.734-16.241-7.526c-4.58-2.124-9.922-1.799-14.213.863l-3.992 2.476v-8.321c0-4.742-2.242-9.206-6.048-12.036l-22.047-16.398c-5.314-3.952-12.59-3.952-17.904 0l-22.047 16.398c-3.806 2.83-6.048 7.293-6.048 12.036v8.321l-3.992-2.476c-4.291-2.662-9.632-2.986-14.213-.863l-16.241 7.526c-5.377 2.492-8.783 7.915-8.691 13.841l.568 36.939c.082 5.373 3.033 10.292 7.735 12.894l34.114 18.88v6.974c0 8.284 6.716 15 15 15h7.767v12.912c0 8.284 6.716 15 15 15s15-6.716 15-15v-12.912h7.767c8.284 0 15-6.716 15-15v-6.974l34.114-18.88c4.702-2.602 7.653-7.521 7.735-12.894l.568-36.939c.092-5.926-3.314-11.349-8.691-13.841z" fill="#f40055"/><path d="m327.493 211.734-16.241-7.526c-4.58-2.124-9.922-1.799-14.213.863l-3.992 2.476v-8.321c0-4.742-2.242-9.206-6.048-12.036l-22.047-16.398c-2.657-1.976-5.803-2.964-8.95-2.964l-.002 176.345c8.284 0 15-6.716 15-15v-12.912h7.767c8.284 0 15-6.716 15-15v-6.974l34.114-18.88c4.702-2.602 7.653-7.521 7.735-12.894l.568-36.939c.092-5.925-3.314-11.348-8.691-13.84z" fill="#c20044"/></svg>