<svg id="Capa_1" enable-background="new 0 0 512 512" height="512" viewBox="0 0 512 512" width="512" xmlns="http://www.w3.org/2000/svg"><path d="m466.916 27.803h-421.832c-24.859 0-45.084 20.225-45.084 45.084v366.226c0 24.859 20.225 45.084 45.084 45.084h421.832c24.859 0 45.084-20.225 45.084-45.084v-366.226c0-24.859-20.225-45.084-45.084-45.084z" fill="#f0f9ff"/><path d="m466.916 27.803h-210.916v456.394h210.916c24.859 0 45.084-20.225 45.084-45.084v-366.226c0-24.859-20.225-45.084-45.084-45.084z" fill="#cee5f5"/><path d="m241.271 170.947v-143.144h-100.667v143.144h-140.604v100.667h140.604v212.583h100.667v-212.583h270.729v-100.667z" fill="#406bd4"/><path d="m256 170.947h256v100.667h-256z" fill="#3257b0"/></svg>