<svg id="Capa_1" enable-background="new 0 0 512 512" height="512" viewBox="0 0 512 512" width="512" xmlns="http://www.w3.org/2000/svg"><path d="m256 27.803h-210.916c-24.859 0-45.084 20.225-45.084 45.084v366.226c0 24.859 20.225 45.084 45.084 45.084h210.916l5.447-5.526v-444.65z" fill="#f49600"/><path d="m466.916 27.803h-210.916v456.394h210.916c24.859 0 45.084-20.225 45.084-45.084v-366.226c0-24.859-20.225-45.084-45.084-45.084z" fill="#e67200"/><path d="m256 80.804h-188c-8.284 0-15 6.716-15 15v320.394c0 8.284 6.716 15 15 15h188l4.563-5.981v-338.922z" fill="#f40055"/><path d="m444 80.804h-188v350.394h188c8.284 0 15-6.716 15-15v-320.394c0-8.285-6.716-15-15-15z" fill="#c20044"/><path d="m248.952 184.992h14.096c8.284 0 15-6.716 15-15s-6.716-15-15-15h-14.096c-8.284 0-15 6.716-15 15s6.716 15 15 15z" fill="#f49600"/><path d="m263.048 154.992h-7.048v30h7.048c8.284 0 15-6.716 15-15s-6.716-15-15-15z" fill="#e67200"/><path d="m282.172 274.453-4.995 1.231-6.177-11.846v-31.806c0-.558-.036-1.108-.095-1.65l3.643-7.271c1.318-2.633 4.25-4.067 7.147-3.486l1.121.225c8.121 1.629 16.026-3.638 17.654-11.762 1.627-8.122-3.639-16.026-11.762-17.654l-1.116-.224c-11.566-2.319-23.271 1.148-31.683 8.722-8.8-7.972-21.17-11.334-33.263-8.354-8.044 1.983-12.957 10.11-10.975 18.154 1.982 8.043 10.114 12.956 18.154 10.975 2.937-.724 5.974.644 7.375 3.33l3.879 7.438c-.053.512-.081 1.032-.081 1.558v31.934l-5.788 11.552-6.023-1.209c-8.127-1.633-16.028 3.635-17.658 11.756-1.63 8.123 3.634 16.028 11.756 17.658l17.255 3.462c.153.031.306.048.459.074v4.326c-7.095 1.189-12.508 7.343-12.508 14.776s5.413 13.587 12.508 14.776v.87c0 8.284 6.716 15 15 15s15-6.716 15-15v-.87c7.095-1.189 12.508-7.343 12.508-14.776s-5.413-13.587-12.508-14.776v-3.611c.639-.072 1.278-.183 1.916-.341l16.438-4.053c8.043-1.982 12.956-10.111 10.973-18.154-1.982-8.045-10.107-12.962-18.154-10.974z" fill="#f49600"/><path d="m282.172 274.453-4.995 1.231-6.177-11.846v-31.806c0-.558-.036-1.108-.095-1.65l3.643-7.271c1.318-2.633 4.25-4.067 7.147-3.486l1.121.225c8.121 1.629 16.026-3.638 17.654-11.762 1.627-8.122-3.639-16.026-11.762-17.654l-1.116-.224c-11.566-2.319-23.271 1.148-31.683 8.722l.091 158.076c8.284 0 15-6.716 15-15v-.87c7.095-1.189 12.508-7.343 12.508-14.776s-5.413-13.587-12.508-14.776v-3.611c.639-.072 1.278-.183 1.916-.341l16.438-4.053c8.043-1.982 12.956-10.111 10.973-18.154-1.983-8.045-10.108-12.962-18.155-10.974z" fill="#e67200"/><path d="m342.182 174.572c-4.857-6.712-14.235-8.218-20.945-3.357-6.712 4.856-8.215 14.234-3.357 20.945 3.112 4.302 3.887 9.838 2.07 14.812l-9.387 25.704c-.641 1.753-1.955 2.582-2.682 2.92-.729.338-2.211.81-3.962.169-7.778-2.841-16.394 1.162-19.235 8.944-2.842 7.781 1.163 16.394 8.944 19.235 3.937 1.438 8.019 2.153 12.089 2.153 5.055 0 10.093-1.104 14.813-3.299 8.521-3.962 14.989-11.005 18.213-19.832l9.387-25.704c5.238-14.346 3.016-30.305-5.948-42.69z" fill="#e67200"/><path d="m227.316 244.709c-2.842-7.782-11.455-11.785-19.235-8.944-1.75.641-3.234.169-3.962-.169-.727-.338-2.041-1.167-2.682-2.92l-9.387-25.704c-1.816-4.974-1.042-10.51 2.07-14.812 4.857-6.711 3.354-16.089-3.357-20.945-6.711-4.858-16.089-3.355-20.945 3.357-8.964 12.385-11.187 28.344-5.947 42.69l9.387 25.704c3.224 8.827 9.691 15.87 18.213 19.832 4.721 2.195 9.758 3.299 14.813 3.299 4.07 0 8.152-.716 12.089-2.153 7.78-2.842 11.785-11.454 8.943-19.235z" fill="#f49600"/></svg>