<svg id="Capa_1" enable-background="new 0 0 512 512" height="512" viewBox="0 0 512 512" width="512" xmlns="http://www.w3.org/2000/svg"><path d="m466.916 27.803h-421.832c-24.859 0-45.084 20.225-45.084 45.084v366.226c0 24.859 20.225 45.084 45.084 45.084h421.832c24.859 0 45.084-20.225 45.084-45.084v-366.226c0-24.859-20.225-45.084-45.084-45.084z" fill="#f0f9ff"/><path d="m512 256v-183.113c0-24.859-20.225-45.084-45.084-45.084h-210.916v228.197z" fill="#c20044"/><path d="m0 256v183.113c0 24.859 20.225 45.084 45.084 45.084h210.916v-228.197z" fill="#406bd4"/><path d="m256 256v228.197h210.916c24.859 0 45.084-20.225 45.084-45.084v-183.113z" fill="#cee5f5"/><path d="m166.593 160.072 26.86-19.515c5.3-3.851 2.576-12.234-3.975-12.234h-33.201c-2.93 0-5.527-1.887-6.432-4.673l-10.26-31.576c-2.025-6.231-10.84-6.231-12.864 0l-10.26 31.576c-.905 2.787-3.502 4.673-6.432 4.673h-33.2c-6.552 0-9.276 8.384-3.975 12.234l26.86 19.515c2.37 1.722 3.362 4.775 2.457 7.561l-10.26 31.576c-2.025 6.231 5.107 11.412 10.407 7.561l26.86-19.515c2.37-1.722 5.58-1.722 7.95 0l26.86 19.515c5.3 3.851 12.432-1.33 10.407-7.561l-10.26-31.576c-.904-2.786.088-5.839 2.458-7.561z" fill="#406bd4"/><path d="m409.171 370.819 26.86-19.515c5.3-3.851 2.576-12.234-3.975-12.234h-33.201c-2.93 0-5.527-1.887-6.432-4.673l-10.26-31.576c-2.025-6.231-10.84-6.231-12.864 0l-10.26 31.576c-.905 2.787-3.502 4.673-6.432 4.673h-33.201c-6.552 0-9.275 8.384-3.975 12.234l26.86 19.515c2.37 1.722 3.362 4.775 2.457 7.561l-10.26 31.576c-2.025 6.231 5.107 11.412 10.407 7.561l26.86-19.515c2.37-1.722 5.58-1.722 7.95 0l26.86 19.515c5.3 3.851 12.432-1.33 10.407-7.561l-10.26-31.576c-.903-2.786.088-5.839 2.459-7.561z" fill="#c20044"/></svg>