<svg id="Capa_1" enable-background="new 0 0 512 512" height="512" viewBox="0 0 512 512" width="512" xmlns="http://www.w3.org/2000/svg"><path d="m209.416 186.876-199.592-139.537h-1.859c-5.017 7.268-7.965 16.068-7.965 25.548v77.047l2 4.557v204.003l-2 3.245v77.374c0 9.304 2.834 17.958 7.682 25.146l4.32-.612 196.918-136.172h300.491l2.589-4.354v-134.844l-1.398-1.25z" fill="#39b44a"/><path d="m510.602 187.027-254.602-.141v140.589h253.411l2.589-4.354v-134.844z" fill="#2f963e"/><path d="m148.119 242.559-148.119-92.625v36.524l2 5.042v128.214l-2 5.228v36.796l148.119-92.899c4.528-2.833 7.279-7.798 7.279-13.14s-2.751-10.307-7.279-13.14z" fill="#ffcb24"/><path d="m0 324.943 110.675-69.244-110.675-69.241z" fill="#141a1a"/><path d="m31.191 481.997c4.379 1.422 9.045 2.2 13.893 2.2h421.832c24.859 0 45.084-20.225 45.084-45.084v-90.993l-.959-1.31-286.577.142-193.273 133.253z" fill="#406bd4"/><path d="m511.041 346.809-255.041.127v137.261h210.916c24.859 0 45.084-20.225 45.084-45.084v-90.993z" fill="#3257b0"/><path d="m510.835 164.205 1.165-.925v-90.393c0-24.859-20.225-45.084-45.084-45.084h-421.832c-4.673 0-9.182.715-13.424 2.041v1.238l193.331 133.122h285.844z" fill="#f40055"/><path d="m510.835 164.205 1.165-.925v-90.393c0-24.859-20.225-45.084-45.084-45.084h-210.916v136.401h254.835z" fill="#c20044"/><path d="m256 323.121h-46.985l-201.333 141.137c5.581 8.274 13.834 14.596 23.509 17.738l194.807-133.876h30.002l1.495-2.058v-20.882z" fill="#f0f9ff"/><path d="m256 163.279h-30.002l-194.338-133.435c-9.719 3.037-18.028 9.287-23.695 17.495l201.049 140.938h46.986l1.495-3.699v-17.052z" fill="#f0f9ff"/><g fill="#cee5f5"><path d="m256 323.121h256v24.998h-256z"/><path d="m256 163.279h256v24.998h-256z"/></g></svg>