<svg id="Capa_1" enable-background="new 0 0 512 512" height="512" viewBox="0 0 512 512" width="512" xmlns="http://www.w3.org/2000/svg"><path d="m256 27.803h-210.916c-24.859 0-45.084 20.225-45.084 45.084v70.104l4 4.68v216.442l-4 4.897v70.104c0 24.859 20.225 45.084 45.084 45.084h210.916l8.532-10.8v-433.867z" fill="#4cc1ff"/><path d="m466.916 27.803h-210.916v456.394h210.916c24.859 0 45.084-20.225 45.084-45.084v-70.104l-5.706-8.41v-209.896l5.706-7.712v-70.104c0-24.859-20.225-45.084-45.084-45.084z" fill="#40a0d4"/><path d="m256 142.991h-256v226.018h256l8.322-11.011v-205.813z" fill="#f0f9ff"/><path d="m256 142.991h256v226.019h-256z" fill="#cee5f5"/><path d="m199.676 307.335c-.775-7.557-7.159-13.452-14.92-13.452s-14.145 5.895-14.92 13.452c-7.557.775-13.452 7.159-13.452 14.92s5.895 14.145 13.452 14.92c.775 7.557 7.159 13.452 14.92 13.452s14.145-5.895 14.92-13.452c7.556-.775 13.451-7.159 13.451-14.92s-5.894-14.145-13.451-14.92z" fill="#4cc1ff"/><path d="m342.164 307.334c-.775-7.557-7.159-13.452-14.92-13.452s-14.145 5.895-14.92 13.452c-7.556.775-13.451 7.159-13.451 14.92s5.895 14.145 13.451 14.92c.775 7.557 7.159 13.452 14.92 13.452s14.145-5.895 14.92-13.452c7.557-.775 13.452-7.159 13.452-14.92s-5.895-14.144-13.452-14.92z" fill="#40a0d4"/><path d="m270.92 241.079c-.775-7.557-7.159-13.452-14.92-13.452s-14.145 5.895-14.92 13.452c-7.557.775-13.452 7.159-13.452 14.92s5.895 14.145 13.452 14.92c.775 7.557 7.159 13.452 14.92 13.452s14.145-5.895 14.92-13.452c7.557-.775 13.452-7.159 13.452-14.92s-5.895-14.144-13.452-14.92z" fill="#4cc1ff"/><path d="m270.92 241.079c-.775-7.557-7.159-13.452-14.92-13.452v56.744c7.761 0 14.145-5.895 14.92-13.452 7.557-.775 13.452-7.159 13.452-14.92s-5.895-14.144-13.452-14.92z" fill="#40a0d4"/><path d="m199.676 174.825c-.775-7.557-7.159-13.452-14.92-13.452s-14.145 5.895-14.92 13.452c-7.557.775-13.452 7.159-13.452 14.92s5.895 14.145 13.452 14.92c.775 7.557 7.159 13.452 14.92 13.452s14.145-5.895 14.92-13.452c7.556-.775 13.451-7.159 13.451-14.92s-5.894-14.145-13.451-14.92z" fill="#4cc1ff"/><path d="m312.324 204.665c.775 7.557 7.159 13.452 14.92 13.452s14.145-5.895 14.92-13.452c7.557-.775 13.452-7.159 13.452-14.92s-5.895-14.145-13.452-14.92c-.775-7.557-7.159-13.452-14.92-13.452s-14.145 5.895-14.92 13.452c-7.556.775-13.451 7.159-13.451 14.92s5.894 14.145 13.451 14.92z" fill="#40a0d4"/></svg>