<svg id="Capa_1" enable-background="new 0 0 512 512" height="512" viewBox="0 0 512 512" width="512" xmlns="http://www.w3.org/2000/svg"><path d="m512 127.886v-54.999c0-24.859-20.225-45.084-45.084-45.084h-421.832c-24.859 0-45.084 20.225-45.084 45.084v54.999l5.902 5.804h499.018z" fill="#406bd4"/><path d="m0 394.115v44.998c0 24.859 20.225 45.084 45.084 45.084h421.832c24.859 0 45.084-20.225 45.084-45.084v-44.998l-8.139-8.037h-494.51z" fill="#406bd4"/><path d="m466.916 27.803h-210.92v105.887h248.923l7.081-5.804v-54.999c0-24.859-20.225-45.084-45.084-45.084z" fill="#3257b0"/><path d="m503.861 386.077h-247.865v98.119h210.92c24.859 0 45.084-20.225 45.084-45.084v-44.998z" fill="#3257b0"/><path d="m0 127.886h512v266.228h-512z" fill="#f40055"/><path d="m255.996 127.886h256.004v266.228h-256.004z" fill="#c20044"/><path d="m195.994 139.38c-64.305 0-116.62 52.315-116.62 116.62s52.315 116.62 116.62 116.62 116.62-52.315 116.62-116.62-52.315-116.62-116.62-116.62z" fill="#f0f9ff"/><path d="m256.002 355.966c33.895-20.423 56.612-57.591 56.612-99.966 0-42.377-22.719-79.546-56.617-99.969z" fill="#cee5f5"/><path d="m282.268 226.7c-2.008-6.181-7.768-10.365-14.266-10.365h-36.106c-4.788 0-8.999-3.06-10.479-7.612l-11.157-34.339c-2.008-6.181-7.768-10.365-14.266-10.365s-12.258 4.185-14.266 10.365l-11.157 34.338c-1.479 4.554-5.69 7.613-10.479 7.613h-36.106c-6.498 0-12.258 4.185-14.266 10.365-2.009 6.18.191 12.95 5.449 16.771l29.21 21.222c3.873 2.814 5.481 7.766 4.003 12.319l-11.157 34.339c-2.009 6.18.191 12.95 5.449 16.771 5.256 3.818 12.377 3.819 17.633-.001l29.21-21.222c3.875-2.813 9.079-2.815 12.952 0l29.211 21.223c2.628 1.909 5.723 2.864 8.816 2.864s6.188-.955 8.816-2.865c5.258-3.819 7.458-10.59 5.449-16.77l-11.157-34.34c-1.479-4.553.129-9.503 4.002-12.317l29.211-21.223c5.259-3.821 7.459-10.591 5.451-16.771z" fill="#f40055"/><path d="m282.268 226.7c-2.008-6.181-7.768-10.365-14.266-10.365h-11.998l-.008 42.264 20.822-15.128c5.258-3.821 7.458-10.591 5.45-16.771z" fill="#c20044"/></svg>