<svg id="Capa_1" enable-background="new 0 0 512 512" height="512" viewBox="0 0 512 512" width="512" xmlns="http://www.w3.org/2000/svg"><path d="m512 123.255v-50.368c0-24.859-20.225-45.084-45.084-45.084h-210.916l-10.001 10.001v436.392l10.001 10.001h210.916c24.859 0 45.084-20.225 45.084-45.084v-50.368l-5-7.255v-73.061l5-6.486v-91.885l-5-4.832v-75.714z" fill="#3257b0"/><path d="m0 383.849v55.264c0 24.859 20.225 45.084 45.084 45.084h210.916v-100.348z" fill="#406bd4"/><path d="m256 301.942h-256v86.802h256l5.021-9.928v-66.971z" fill="#fff"/><path d="m256 301.942h256v86.802h-256z" fill="#cee5f5"/><path d="m256 123.255h256v86.802h-256z" fill="#cee5f5"/><path d="m256 301.942v-274.138h-211c-24.853 0-45 20.147-45 45v229.139h256z" fill="#f40055"/><path d="m173.182 183.31 36.292-26.368c7.161-5.203 3.481-16.531-5.371-16.531h-44.86c-3.959 0-7.467-2.549-8.691-6.314l-13.862-42.664c-2.735-8.419-14.646-8.419-17.381 0l-13.862 42.664c-1.223 3.765-4.732 6.314-8.691 6.314h-44.86c-8.852 0-12.533 11.327-5.371 16.531l36.292 26.368c3.203 2.327 4.543 6.451 3.32 10.216l-13.862 42.664c-2.735 8.419 6.9 15.42 14.062 10.216l36.292-26.368c3.203-2.327 7.54-2.327 10.742 0l36.292 26.368c7.161 5.203 16.797-1.798 14.062-10.216l-13.862-42.664c-1.224-3.764.116-7.889 3.319-10.216z" fill="#fff"/></svg>