<svg id="Capa_1" enable-background="new 0 0 512 512" height="512" viewBox="0 0 512 512" width="512" xmlns="http://www.w3.org/2000/svg"><path d="m466.916 27.803h-87.256l-4.523 4h-238.401l-4.397-4h-87.255c-24.859 0-45.084 20.225-45.084 45.084v366.226c0 24.859 20.225 45.084 45.084 45.084h87.256l6.348-4h235.449l5.523 4h87.256c24.859 0 45.084-20.225 45.084-45.084v-366.226c0-24.859-20.225-45.084-45.084-45.084z" fill="#4cc1ff"/><path d="m466.916 27.803h-87.256l-4.523 4h-119.137v448.393h118.137l5.523 4h87.256c24.859 0 45.084-20.225 45.084-45.084v-366.225c0-24.859-20.225-45.084-45.084-45.084z" fill="#40a0d4"/><path d="m132.34 27.803h247.32v456.394h-247.32z" fill="#f0f9ff"/><path d="m256 27.803h123.66v456.394h-123.66z" fill="#cee5f5"/><path d="m277.213 221.707 8.388-8.387c5.858-5.857 5.858-15.355 0-21.213-5.857-5.857-15.354-5.858-21.213 0l-8.388 8.388-8.388-8.388c-5.857-5.858-15.355-5.858-21.213 0s-5.858 15.355 0 21.213l8.388 8.387-8.388 8.387c-5.858 5.857-5.858 15.355 0 21.213 2.929 2.929 6.767 4.394 10.606 4.394 3.838 0 7.678-1.465 10.606-4.394l8.389-8.387 8.388 8.388c2.929 2.929 6.768 4.394 10.606 4.394s7.678-1.464 10.606-4.394c5.858-5.858 5.858-15.355 0-21.213z" fill="#cee5f5"/><path d="m277.213 221.707 8.388-8.387c5.858-5.857 5.858-15.355 0-21.213-5.857-5.857-15.354-5.858-21.213 0l-8.388 8.388v42.426l8.388 8.388c2.929 2.929 6.768 4.394 10.606 4.394s7.678-1.464 10.606-4.394c5.858-5.858 5.858-15.355 0-21.213z" fill="#92bad6"/><path d="m345.706 226.951c0-14.658-3.63-29.223-10.499-42.118-3.894-7.311-12.978-10.081-20.291-6.188-7.312 3.895-10.082 12.979-6.188 20.291 4.63 8.692 6.978 18.118 6.978 28.015 0 32.922-26.784 59.706-59.706 59.706s-59.706-26.784-59.706-59.706c0-9.897 2.348-19.322 6.978-28.015 3.895-7.312 1.124-16.396-6.188-20.291-7.313-3.894-16.396-1.124-20.291 6.188-6.869 12.896-10.499 27.46-10.499 42.118 0 39.589 25.781 73.267 61.433 85.137l-2.23 2.667c-5.314 6.355-4.469 15.815 1.887 21.129 2.807 2.347 6.219 3.493 9.613 3.493 4.29 0 8.549-1.831 11.516-5.379l7.486-8.955 7.486 8.955c2.967 3.549 7.226 5.379 11.516 5.379 3.394 0 6.806-1.146 9.613-3.493 6.355-5.313 7.201-14.773 1.887-21.129l-2.23-2.667c35.654-11.871 61.435-45.548 61.435-85.137z" fill="#39b44a"/><path d="m345.706 226.951c0-14.658-3.63-29.223-10.499-42.118-3.894-7.311-12.978-10.081-20.291-6.188-7.312 3.895-10.082 12.979-6.188 20.291 4.63 8.692 6.978 18.118 6.978 28.015 0 32.922-26.784 59.706-59.706 59.706v38.386l7.486 8.955c2.967 3.549 7.226 5.379 11.516 5.379 3.394 0 6.806-1.146 9.613-3.493 6.355-5.313 7.201-14.773 1.887-21.129l-2.23-2.667c35.653-11.871 61.434-45.548 61.434-85.137z" fill="#2f963e"/></svg>