<svg id="Capa_1" enable-background="new 0 0 512 512" height="512" viewBox="0 0 512 512" width="512" xmlns="http://www.w3.org/2000/svg"><path d="m466.916 27.803h-421.832c-24.859 0-45.084 20.225-45.084 45.084v366.226c0 24.859 20.225 45.084 45.084 45.084h421.832c24.859 0 45.084-20.225 45.084-45.084v-366.226c0-24.859-20.225-45.084-45.084-45.084z" fill="#f40055"/><path d="m466.916 27.803h-210.916v456.394h210.916c24.859 0 45.084-20.225 45.084-45.084v-366.226c0-24.859-20.225-45.084-45.084-45.084z" fill="#c20044"/><g fill="#ffcb24"><path d="m188.101 124.589c.89 7.435 7.208 13.202 14.882 13.202s13.992-5.767 14.882-13.202c7.435-.89 13.202-7.208 13.202-14.882s-5.767-13.992-13.202-14.882c-.89-7.435-7.208-13.202-14.882-13.202s-13.992 5.767-14.882 13.202c-7.435.89-13.202 7.208-13.202 14.882s5.767 13.992 13.202 14.882z"/><path d="m217.866 284.004c-.89-7.435-7.208-13.202-14.882-13.202s-13.992 5.767-14.882 13.202c-7.435.89-13.202 7.208-13.202 14.882s5.767 13.992 13.202 14.882c.89 7.435 7.208 13.202 14.882 13.202s13.992-5.767 14.882-13.202c7.435-.89 13.202-7.208 13.202-14.882s-5.768-13.992-13.202-14.882z"/><path d="m227.916 164.201c0 7.674 5.767 13.992 13.202 14.882.89 7.435 7.208 13.202 14.882 13.202s13.992-5.767 14.882-13.202c7.435-.89 13.202-7.208 13.202-14.882s-5.767-13.992-13.202-14.882c-.89-7.435-7.208-13.203-14.882-13.203s-13.993 5.768-14.882 13.203c-7.435.89-13.202 7.208-13.202 14.882z"/></g><path d="m256 192.285c7.674 0 13.992-5.767 14.882-13.202 7.435-.89 13.202-7.208 13.202-14.882s-5.767-13.992-13.202-14.882c-.89-7.435-7.208-13.203-14.882-13.203z" fill="#f49600"/><path d="m160.231 206.776 38.236-27.78c7.545-5.482 3.667-17.416-5.659-17.416h-47.262c-4.171 0-7.867-2.686-9.156-6.652l-14.605-44.949c-2.882-8.87-15.43-8.87-18.312 0l-14.605 44.949c-1.289 3.967-4.985 6.652-9.156 6.652h-47.263c-9.326 0-13.204 11.934-5.659 17.416l38.236 27.78c3.374 2.452 4.786 6.797 3.497 10.764l-14.605 44.949c-2.882 8.87 7.27 16.246 14.815 10.764l38.236-27.78c3.374-2.452 7.943-2.452 11.318 0l38.236 27.78c7.545 5.482 17.697-1.894 14.815-10.764l-14.605-44.949c-1.289-3.967.123-8.312 3.498-10.764z" fill="#ffcb24"/><path d="m227.916 244.393c0 7.674 5.767 13.992 13.202 14.882.89 7.435 7.208 13.202 14.882 13.202s13.992-5.767 14.882-13.202c7.435-.89 13.202-7.208 13.202-14.882s-5.767-13.992-13.202-14.882c-.89-7.435-7.208-13.203-14.882-13.203s-13.993 5.768-14.882 13.203c-7.435.89-13.202 7.208-13.202 14.882z" fill="#ffcb24"/><path d="m256 272.477c7.674 0 13.992-5.767 14.882-13.202 7.435-.89 13.202-7.208 13.202-14.882s-5.767-13.992-13.202-14.882c-.89-7.435-7.208-13.203-14.882-13.203z" fill="#f49600"/></svg>