<svg id="Capa_1" enable-background="new 0 0 512 512" height="512" viewBox="0 0 512 512" width="512" xmlns="http://www.w3.org/2000/svg"><path d="m6.001 158.214h499.999v-8.224l6-7v-70.103c0-24.859-20.225-45.084-45.084-45.084h-421.832c-24.859 0-45.084 20.225-45.084 45.084v70.104l6 7v8.223z" fill="#f40055"/><path d="m506 357.617h-499.999v4.435l-6 6.957v70.104c0 24.859 20.225 45.084 45.084 45.084h421.832c24.859 0 45.084-20.225 45.084-45.084v-70.104l-6-6.957v-4.435z" fill="#141a1a"/><path d="m506 158.214v-8.224l6-7v-70.103c0-24.859-20.225-45.084-45.084-45.084h-210.916v130.411z" fill="#c20044"/><path d="m506 357.617h-250v126.58h210.916c24.859 0 45.084-20.225 45.084-45.084v-70.104l-6-6.957z" fill="#040505"/><path d="m0 142.991v226.018h256l6.776-21.205v-186.979l-6.776-17.834z" fill="#fff"/><path d="m256 142.991h256v226.019h-256z" fill="#cee5f5"/><path d="m305.711 215.258c-7.252-5.642-16.52-7.583-25.424-5.322l-9.287 2.357v-9.572c0-8.284-6.716-15-15-15s-15 6.716-15 15v9.573l-9.288-2.357c-8.904-2.257-18.171-.319-25.423 5.322-7.251 5.641-11.41 14.146-11.41 23.333v25.141c0 8.284 6.716 15 15 15s15-6.716 15-15v-24.579l16.121 4.09v47.823c-6.229-.452-12.329 3.034-14.898 9.107-3.228 7.629.34 16.431 7.97 19.659 6.968 2.948 14.448 4.422 21.928 4.422s14.96-1.474 21.928-4.422c7.63-3.228 11.198-12.029 7.97-19.659-2.569-6.072-8.669-9.559-14.898-9.107v-47.823l16.121-4.09v24.579c0 8.284 6.716 15 15 15s15-6.716 15-15v-25.141c0-9.188-4.159-17.693-11.41-23.334z" fill="#ffcb24"/><path d="m305.711 215.258c-7.252-5.642-16.52-7.583-25.424-5.322l-9.287 2.357v-9.572c0-8.284-6.716-15-15-15v136.534c7.48 0 14.96-1.474 21.928-4.422 7.63-3.228 11.198-12.029 7.97-19.659-2.569-6.072-8.669-9.559-14.898-9.107v-47.823l16.121-4.09v24.579c0 8.284 6.716 15 15 15s15-6.716 15-15v-25.141c0-9.188-4.159-17.693-11.41-23.334z" fill="#f49600"/></svg>