<svg id="Capa_1" enable-background="new 0 0 512 512" height="512" viewBox="0 0 512 512" width="512" xmlns="http://www.w3.org/2000/svg"><path d="m466.916 27.803h-275.607l-1.573 1.828v450.802l1.573 3.764h275.607c24.859 0 45.084-20.225 45.084-45.084v-366.226c0-24.859-20.225-45.084-45.084-45.084z" fill="#f40055"/><path d="m466.916 27.803h-210.916v456.394h210.916c24.859 0 45.084-20.225 45.084-45.084v-366.226c0-24.859-20.225-45.084-45.084-45.084z" fill="#c20044"/><path d="m45.084 27.803c-24.859 0-45.084 20.225-45.084 45.084v366.226c0 24.859 20.225 45.084 45.084 45.084h146.225v-456.394z" fill="#39b44a"/><path d="m191.309 128.347c-67.869 0-123.085 55.216-123.085 123.085s55.216 123.085 123.085 123.085c67.87 0 123.085-55.216 123.085-123.085s-55.215-123.085-123.085-123.085zm75.541 177.413-39.328-39.328h55.659c-2.36 14.499-8.078 27.884-16.331 39.328zm-167.411-39.328h55.658l-39.328 39.328c-8.253-11.444-13.971-24.829-16.33-39.328zm16.33-69.327 39.327 39.327h-55.657c2.359-14.499 8.077-27.884 16.33-39.327zm90.54 18.114v-55.658c14.499 2.359 27.884 8.077 39.328 16.33zm-30 0-39.327-39.327c11.444-8.253 24.828-13.971 39.327-16.331zm0 72.426v55.658c-14.499-2.359-27.884-8.077-39.327-16.331zm30 0 39.328 39.328c-11.444 8.253-24.828 13.971-39.328 16.33zm21.213-51.213 39.328-39.328c8.253 11.444 13.971 24.828 16.33 39.328z" fill="#ffcb24"/><path d="m256 207.954 10.85-10.85c8.253 11.444 13.971 24.828 16.33 39.328h-27.18v30h27.18c-2.359 14.499-8.077 27.884-16.331 39.328l-10.849-10.85v61.201c35.023-21.723 58.395-60.523 58.395-104.679s-23.372-82.957-58.395-104.679z" fill="#f49600"/><path d="m191.309 303.851c-25.832 0-46.773-20.941-46.773-46.773v-35.064c0-8.284 6.716-15 15-15h63.546c8.284 0 15 6.716 15 15v35.064c0 25.832-20.941 46.773-46.773 46.773z" fill="#fff"/><path d="m223.082 207.014h-31.773v96.837c25.832 0 46.773-20.941 46.773-46.773v-35.064c0-8.285-6.715-15-15-15z" fill="#cee5f5"/></svg>