<svg id="Capa_1" enable-background="new 0 0 512 512" height="512" viewBox="0 0 512 512" width="512" xmlns="http://www.w3.org/2000/svg"><path d="m508.899 146.608 3.101-3.617v-70.104c0-24.859-20.225-45.084-45.084-45.084h-421.832c-24.859 0-45.084 20.225-45.084 45.084v70.104l3.101 3.617z" fill="#f49600"/><path d="m3.602 364.833-3.602 4.176v70.104c0 24.859 20.225 45.084 45.084 45.084h421.832c24.859 0 45.084-20.225 45.084-45.084v-70.104l-3.602-4.176z" fill="#39b44a"/><path d="m508.899 146.608 3.101-3.617v-70.104c0-24.859-20.225-45.084-45.084-45.084h-210.916v118.805z" fill="#e67200"/><path d="m256 364.833v119.364h210.916c24.859 0 45.084-20.225 45.084-45.084v-70.104l-3.602-4.176z" fill="#2f963e"/><path d="m0 142.991v226.018h256l4.11-4.176v-218.225l-4.11-3.617z" fill="#fff"/><path d="m256 142.991h256v226.019h-256z" fill="#cee5f5"/><path d="m256 149.216c-58.881 0-106.784 47.903-106.784 106.784s47.903 106.784 106.784 106.784 106.784-47.903 106.784-106.784-47.903-106.784-106.784-106.784z" fill="#406bd4"/><path d="m256 149.216v213.568c58.881 0 106.784-47.903 106.784-106.784s-47.903-106.784-106.784-106.784z" fill="#3257b0"/><path d="m315.807 251.073c-1.268-.547-1.663-1.561-1.771-2.315-.108-.755-.015-1.839 1.048-2.721 5.212-4.327 6.878-11.611 4.064-17.773s-9.412-9.674-16.093-8.568c-1.366.222-2.244-.414-2.743-.99s-1.006-1.539-.589-2.855c2.046-6.458-.491-13.486-6.19-17.148s-13.146-3.05-18.17 1.493c-1.025.926-2.113.863-2.843.65-.731-.215-1.679-.75-2.04-2.083-1.771-6.539-7.704-11.08-14.479-11.08s-12.708 4.541-14.479 11.08c-.361 1.333-1.309 1.869-2.04 2.083-.732.214-1.818.276-2.843-.65-5.024-4.544-12.471-5.157-18.17-1.493-5.699 3.663-8.236 10.69-6.19 17.148.417 1.316-.09 2.28-.589 2.855-.499.576-1.382 1.212-2.743.99-6.678-1.107-13.278 2.406-16.093 8.568-2.814 6.162-1.148 13.446 4.064 17.773 1.063.882 1.156 1.966 1.048 2.721-.108.754-.504 1.768-1.771 2.315-6.221 2.683-9.871 9.202-8.907 15.907.964 6.706 6.303 11.934 13.027 12.756 1.371.167 2.036 1.029 2.353 1.723.316.693.532 1.761-.239 2.906-3.782 5.62-3.328 13.078 1.108 18.198 4.436 5.119 11.753 6.632 17.855 3.686 1.243-.601 2.269-.235 2.909.178.642.412 1.4 1.193 1.371 2.574-.144 6.772 4.271 12.801 10.771 14.71 6.501 1.909 13.473-.777 17.014-6.552.722-1.178 1.782-1.425 2.544-1.425s1.822.247 2.544 1.425c2.779 4.532 7.669 7.161 12.788 7.16 1.404 0 2.826-.197 4.226-.608 6.5-1.909 10.914-7.938 10.771-14.71-.029-1.381.729-2.162 1.371-2.574s1.667-.777 2.909-.178c6.103 2.946 13.419 1.434 17.855-3.686 4.437-5.12 4.891-12.578 1.108-18.198-.771-1.146-.555-2.213-.239-2.906.317-.693.982-1.556 2.353-1.723 6.725-.822 12.063-6.05 13.027-12.756.964-6.705-2.687-13.224-8.907-15.907z" fill="#fff"/><path d="m315.807 251.073c-1.268-.547-1.663-1.561-1.771-2.315-.108-.755-.015-1.839 1.048-2.721 5.212-4.327 6.878-11.611 4.064-17.773s-9.412-9.674-16.093-8.568c-1.366.222-2.244-.414-2.743-.99s-1.006-1.539-.589-2.855c2.046-6.458-.491-13.486-6.19-17.148s-13.146-3.05-18.17 1.493c-1.025.926-2.113.863-2.843.65-.731-.215-1.679-.75-2.04-2.083-1.771-6.539-7.704-11.08-14.479-11.08v128.052c.762 0 1.822.247 2.544 1.425 2.779 4.532 7.669 7.161 12.788 7.16 1.404 0 2.826-.197 4.226-.608 6.5-1.909 10.914-7.938 10.771-14.71-.029-1.381.729-2.162 1.371-2.574s1.667-.777 2.909-.178c6.103 2.946 13.419 1.434 17.855-3.686 4.437-5.12 4.891-12.578 1.108-18.198-.771-1.146-.555-2.213-.239-2.906.317-.693.982-1.556 2.353-1.723 6.725-.822 12.063-6.05 13.027-12.756s-2.687-13.225-8.907-15.908z" fill="#cee5f5"/><path d="m256 228.24c-15.307 0-27.76 12.453-27.76 27.76s12.453 27.76 27.76 27.76 27.76-12.453 27.76-27.76-12.453-27.76-27.76-27.76z" fill="#406bd4"/><path d="m256 228.24v55.521c15.307 0 27.76-12.453 27.76-27.76s-12.453-27.761-27.76-27.761z" fill="#3257b0"/></svg>