<svg id="Capa_1" enable-background="new 0 0 512 512" height="512" viewBox="0 0 512 512" width="512" xmlns="http://www.w3.org/2000/svg"><path d="m466.916 27.803h-421.832c-24.859 0-45.084 20.225-45.084 45.084v366.226c0 24.859 20.225 45.084 45.084 45.084h421.832c24.859 0 45.084-20.225 45.084-45.084v-366.226c0-24.859-20.225-45.084-45.084-45.084z" fill="#f0f9ff"/><path d="m466.916 27.803h-210.916v456.394h210.916c24.859 0 45.084-20.225 45.084-45.084v-366.226c0-24.859-20.225-45.084-45.084-45.084z" fill="#cee5f5"/><path d="m325.803 186.197c-38.489-38.489-101.116-38.489-139.605 0s-38.489 101.116 0 139.605 101.116 38.489 139.605 0 38.489-101.116 0-139.605z" fill="#f40055"/><path d="m325.803 186.197c-19.244-19.244-44.523-28.867-69.802-28.867l-.001 197.339c25.279 0 50.559-9.622 69.803-28.867 38.489-38.488 38.489-101.116 0-139.605z" fill="#c20044"/><g fill="#141a1a"><path d="m401.08 155.817c2.929 2.929 6.768 4.394 10.606 4.394s7.678-1.465 10.606-4.394c5.858-5.857 5.858-15.355 0-21.213l-34.649-34.649c-5.857-5.857-15.355-5.857-21.213 0s-5.858 15.355 0 21.213z"/><path d="m361.694 192.23c2.929 2.929 6.768 4.394 10.606 4.394s7.678-1.465 10.606-4.394c5.858-5.857 5.858-15.355 0-21.213l-32.355-32.355c-5.857-5.857-15.355-5.857-21.213 0s-5.858 15.355 0 21.213z"/><path d="m100.313 160.211c3.839 0 7.678-1.465 10.606-4.394l34.649-34.649c5.858-5.857 5.858-15.355 0-21.213-5.857-5.857-15.355-5.857-21.213 0l-34.649 34.649c-5.858 5.857-5.858 15.355 0 21.213 2.93 2.929 6.769 4.394 10.607 4.394z"/><path d="m161.448 138.662-32.355 32.355c-5.858 5.857-5.858 15.355 0 21.213 2.929 2.929 6.768 4.394 10.606 4.394s7.678-1.465 10.606-4.394l32.355-32.355c5.858-5.857 5.858-15.355 0-21.213-5.856-5.857-15.354-5.857-21.212 0z"/><path d="m401.08 356.183-34.649 34.649c-5.858 5.857-5.858 15.355 0 21.213 2.929 2.929 6.768 4.394 10.606 4.394s7.678-1.465 10.606-4.394l34.649-34.649c5.858-5.857 5.858-15.355 0-21.213-5.856-5.858-15.354-5.858-21.212 0z"/><path d="m382.907 319.77c-5.857-5.857-15.355-5.857-21.213 0l-32.355 32.355c-5.858 5.857-5.858 15.355 0 21.213 2.929 2.929 6.768 4.394 10.606 4.394s7.678-1.465 10.606-4.394l32.355-32.355c5.86-5.858 5.86-15.356.001-21.213z"/><path d="m110.92 356.183c-5.857-5.857-15.355-5.857-21.213 0s-5.858 15.355 0 21.213l34.649 34.649c2.929 2.929 6.768 4.394 10.606 4.394s7.678-1.465 10.606-4.394c5.858-5.857 5.858-15.355 0-21.213z"/><path d="m150.306 319.77c-5.857-5.857-15.355-5.857-21.213 0s-5.858 15.355 0 21.213l32.355 32.355c2.929 2.929 6.768 4.394 10.606 4.394s7.678-1.465 10.606-4.394c5.858-5.857 5.858-15.355 0-21.213z"/></g><path d="m332.009 254.728c-20.638-20.638-54.099-20.638-74.737 0l-2.545 2.545c-20.638 20.638-54.099 20.638-74.737 0-10.584-10.584-15.725-24.54-15.454-38.41-14.419 35.65-7.199 78.081 21.66 106.94 19.244 19.244 44.523 28.867 69.802 28.867s50.559-9.622 69.803-28.867c9.63-9.629 16.849-20.77 21.661-32.665.273-13.87-4.869-27.826-15.453-38.41z" fill="#406bd4"/><path d="m332.009 254.728c-20.638-20.638-54.099-20.638-74.737 0l-1.272 1.272-.001 98.669c25.279 0 50.559-9.622 69.803-28.867 9.63-9.629 16.849-20.77 21.661-32.665.272-13.869-4.87-27.825-15.454-38.409z" fill="#3257b0"/></svg>