<svg id="Capa_1" enable-background="new 0 0 512 512" height="512" viewBox="0 0 512 512" width="512" xmlns="http://www.w3.org/2000/svg"><path d="m466.916 27.803h-421.832c-24.859 0-45.084 20.225-45.084 45.084v301.713l1.136 1.845v25.939l-1.136 2.217v34.512c0 24.859 20.225 45.084 45.084 45.084h421.832c24.859 0 45.084-20.225 45.084-45.084v-34.512l-1.653-2.625v-24.706l1.653-2.67v-301.713c0-24.859-20.225-45.084-45.084-45.084z" fill="#406bd4"/><path d="m512 374.601v-301.714c0-24.859-20.225-45.084-45.084-45.084h-210.916v456.394h210.916c24.859 0 45.084-20.225 45.084-45.084v-34.512l-1.653-2.625v-24.706z" fill="#3257b0"/><path d="m0 374.601h512v30h-512z" fill="#ffcb24"/><path d="m256 374.601h256v30h-256z" fill="#f49600"/><g fill="#ffcb24"><path d="m197.614 229.68 38.236-27.78c7.545-5.482 3.667-17.416-5.659-17.416h-47.262c-4.171 0-7.867-2.686-9.156-6.652l-14.605-44.949c-2.882-8.87-15.43-8.87-18.312 0l-14.605 44.949c-1.289 3.967-4.985 6.652-9.156 6.652h-47.263c-9.326 0-13.204 11.934-5.659 17.416l38.236 27.78c3.374 2.452 4.786 6.797 3.497 10.764l-14.605 44.949c-2.882 8.87 7.27 16.246 14.815 10.764l38.236-27.78c3.374-2.452 7.943-2.452 11.318 0l38.236 27.78c7.545 5.482 17.697-1.894 14.815-10.764l-14.605-44.949c-1.289-3.967.123-8.312 3.498-10.764z"/><path d="m90.227 104.528c-.89-7.435-7.208-13.202-14.882-13.202s-13.992 5.767-14.882 13.202c-7.435.89-13.202 7.208-13.202 14.882s5.767 13.992 13.202 14.882c.89 7.435 7.208 13.202 14.882 13.202s13.992-5.767 14.882-13.202c7.435-.89 13.202-7.208 13.202-14.882s-5.767-13.992-13.202-14.882z"/></g></svg>