<svg id="Capa_1" enable-background="new 0 0 512 512" height="512" viewBox="0 0 512 512" width="512" xmlns="http://www.w3.org/2000/svg"><path d="m6 232.633h500v-56.854l6-7v-95.892c0-24.859-20.225-45.084-45.084-45.084h-421.832c-24.859 0-45.084 20.225-45.084 45.084v95.892l6 7z" fill="#39b44a"/><path d="m506 232.633v-56.854l6-7v-95.892c0-24.859-20.225-45.084-45.084-45.084h-210.916v204.83z" fill="#2f963e"/><path d="m506 253.523h-500v82.097l-6 7.601v95.892c0 24.859 20.225 45.084 45.084 45.084h421.832c24.859 0 45.084-20.225 45.084-45.084v-95.892l-6-7.601z" fill="#f40055"/><path d="m506 253.523h-250v230.674h210.916c24.859 0 45.084-20.225 45.084-45.084v-95.892l-6-7.601z" fill="#c20044"/><path d="m0 168.779v174.442h256l6.776-16.366v-144.312l-6.776-13.764z" fill="#fff"/><path d="m256 168.779h256v174.442h-256z" fill="#cee5f5"/><path d="m302.905 207.807h-5.461c-8.284 0-15 6.716-15 15v27.581c0 8.989-4.54 16.965-11.444 21.749v-69.423c0-8.284-6.716-15-15-15s-15 6.716-15 15v69.453c-1.285-.89-2.505-1.893-3.638-3.019-5.034-5.001-7.807-11.664-7.807-18.76v-27.581c0-8.284-6.716-15-15-15h-5.461c-27.313 0-49.532 22.22-49.532 49.531 0 20.594 8.038 39.974 22.633 54.569 5.856 5.857 15.354 5.858 21.213 0 5.858-5.858 5.858-15.355 0-21.213-8.929-8.929-13.846-20.775-13.846-33.356 0-7.308 4.034-13.691 9.993-17.04v10.089c0 15.147 5.918 29.368 16.662 40.042 4.083 4.056 8.673 7.414 13.624 10.017-1.815 2.481-2.9 5.53-2.9 8.839 0 8.284 6.716 15 15 15h28.117c8.284 0 15-6.716 15-15 0-3.339-1.104-6.413-2.95-8.905 18.001-9.461 30.335-28.348 30.335-49.993v-10.089c5.959 3.348 9.993 9.731 9.993 17.04 0 13.024-5.217 25.162-14.689 34.178-6.001 5.712-6.234 15.207-.523 21.207 2.948 3.097 6.904 4.658 10.867 4.658 3.715 0 7.437-1.372 10.34-4.135 15.256-14.521 24.006-34.899 24.006-55.909.001-27.31-22.219-49.53-49.532-49.53z" fill="#f40055"/><path d="m302.905 207.807h-5.461c-8.284 0-15 6.716-15 15v27.581c0 8.989-4.54 16.965-11.444 21.749v-69.423c0-8.284-6.716-15-15-15v136.573h14.059c8.284 0 15-6.716 15-15 0-3.339-1.104-6.413-2.95-8.905 18.001-9.461 30.335-28.348 30.335-49.993v-10.089c5.959 3.348 9.993 9.731 9.993 17.04 0 13.024-5.217 25.162-14.689 34.178-6.001 5.712-6.234 15.207-.523 21.207 2.948 3.097 6.904 4.658 10.867 4.658 3.715 0 7.437-1.372 10.34-4.135 15.256-14.521 24.006-34.899 24.006-55.909 0-27.312-22.22-49.532-49.533-49.532z" fill="#c20044"/></svg>