<svg id="Capa_1" enable-background="new 0 0 512 512" height="512" viewBox="0 0 512 512" width="512" xmlns="http://www.w3.org/2000/svg"><path d="m466.916 27.803h-421.832c-24.859 0-45.084 20.225-45.084 45.084v366.226c0 24.859 20.225 45.084 45.084 45.084h421.832c24.859 0 45.084-20.225 45.084-45.084v-366.226c0-24.859-20.225-45.084-45.084-45.084z" fill="#406bd4"/><path d="m466.916 27.803h-210.916v456.394h210.916c24.859 0 45.084-20.225 45.084-45.084v-366.226c0-24.859-20.225-45.084-45.084-45.084z" fill="#3257b0"/><path d="m0 256v183.113c0 24.859 20.225 45.084 45.084 45.084h210.916v-228.197z" fill="#f40055"/><path d="m256 256v228.197h210.916c24.859 0 45.084-20.225 45.084-45.084v-183.113z" fill="#c20044"/><path d="m271 255.941c-.017-4.193-1.788-8.189-4.884-11.017l-235.209-214.824c-17.933 5.957-30.907 22.88-30.907 42.787v366.226c0 20.914 14.316 38.544 33.662 43.614l232.54-215.73c3.074-2.852 4.814-6.862 4.798-11.056z" fill="#fff"/><path d="m271 255.941c-.017-4.193-1.788-8.189-4.884-11.017l-10.116-9.239v40.776l10.202-9.464c3.074-2.852 4.814-6.862 4.798-11.056z" fill="#cee5f5"/><path d="m169.085 251.074c-1.269-.547-1.664-1.561-1.772-2.315s-.015-1.839 1.048-2.721c5.213-4.327 6.879-11.611 4.064-17.773-2.813-6.162-9.406-9.674-16.093-8.568-1.368.225-2.245-.415-2.743-.99-.499-.576-1.007-1.539-.59-2.856 2.046-6.458-.491-13.486-6.19-17.148-5.699-3.661-13.146-3.051-18.17 1.494-1.025.927-2.112.863-2.843.65-.731-.215-1.679-.75-2.04-2.083-1.771-6.539-7.704-11.08-14.479-11.08s-12.708 4.541-14.479 11.08c-.361 1.333-1.309 1.869-2.04 2.083s-1.819.275-2.843-.65c-5.026-4.545-12.473-5.155-18.171-1.493-5.698 3.663-8.235 10.691-6.189 17.149.417 1.316-.09 2.279-.589 2.855-.499.575-1.377 1.216-2.743.99-6.686-1.11-13.279 2.407-16.093 8.568-2.814 6.162-1.148 13.446 4.064 17.773 1.062.882 1.155 1.966 1.047 2.72-.108.755-.504 1.77-1.772 2.316-6.22 2.684-9.87 9.203-8.906 15.908.965 6.706 6.304 11.933 13.027 12.754 1.371.167 2.037 1.029 2.354 1.723s.532 1.76-.239 2.905c-3.782 5.62-3.328 13.078 1.108 18.198 4.436 5.121 11.752 6.631 17.854 3.687 1.244-.601 2.27-.235 2.91.177.642.412 1.399 1.193 1.37 2.574-.143 6.773 4.271 12.801 10.771 14.71 6.501 1.909 13.473-.776 17.014-6.552.723-1.177 1.782-1.424 2.545-1.424s1.822.247 2.545 1.424c2.778 4.532 7.67 7.161 12.787 7.161 1.405 0 2.826-.198 4.227-.609 6.499-1.909 10.913-7.937 10.771-14.71-.029-1.381.729-2.162 1.37-2.574s1.665-.777 2.91-.177c6.104 2.944 13.419 1.433 17.854-3.687 4.437-5.12 4.891-12.578 1.108-18.198-.771-1.146-.555-2.213-.238-2.906s.981-1.555 2.353-1.723c6.724-.822 12.063-6.049 13.027-12.754.964-6.706-2.686-13.225-8.906-15.908z" fill="#ffcb24"/><path d="m169.085 251.074c-1.269-.547-1.664-1.561-1.772-2.315s-.015-1.839 1.048-2.721c5.213-4.327 6.879-11.611 4.064-17.773-2.813-6.162-9.406-9.674-16.093-8.568-1.368.225-2.245-.415-2.743-.99-.499-.576-1.007-1.539-.59-2.856 2.046-6.458-.491-13.486-6.19-17.148-5.699-3.661-13.146-3.051-18.17 1.494-1.025.927-2.112.863-2.843.65-.731-.215-1.679-.75-2.04-2.083-1.771-6.539-7.704-11.08-14.479-11.08v128.052c.763 0 1.822.247 2.545 1.424 2.778 4.532 7.67 7.161 12.787 7.161 1.405 0 2.826-.198 4.227-.609 6.499-1.909 10.913-7.937 10.771-14.71-.029-1.381.729-2.162 1.37-2.574s1.665-.777 2.91-.177c6.104 2.944 13.419 1.433 17.854-3.687 4.437-5.12 4.891-12.578 1.108-18.198-.771-1.146-.555-2.213-.238-2.906s.981-1.555 2.353-1.723c6.724-.822 12.063-6.049 13.027-12.754.964-6.707-2.686-13.226-8.906-15.909z" fill="#f49600"/></svg>