<svg id="Capa_1" enable-background="new 0 0 512 512" height="512" viewBox="0 0 512 512" width="512" xmlns="http://www.w3.org/2000/svg"><path d="m256 27.803h-210.916c-24.859 0-45.084 20.225-45.084 45.084v366.226c0 24.859 20.225 45.084 45.084 45.084h210.916l7.187-5.68v-444.769z" fill="#406bd4"/><path d="m512 123.255v-50.368c0-24.859-20.225-45.084-45.084-45.084h-210.916v456.394h210.916c24.859 0 45.084-20.225 45.084-45.084v-50.368l-5-7.255v-73.061l5-6.486v-91.885l-5-4.832v-75.714z" fill="#3257b0"/><path d="m256 301.942h-256v86.802h256l5.021-9.928v-66.971z" fill="#fff"/><path d="m256 123.255h-256v86.803h256l5.021-7.37v-72.976z" fill="#fff"/><path d="m256 301.942h256v86.802h-256z" fill="#cee5f5"/><path d="m256 123.255h256v86.802h-256z" fill="#cee5f5"/><path d="m320.76 256c0-4.734-2.234-9.19-6.028-12.021l-285.688-213.216c-16.961 6.48-29.044 22.913-29.044 42.124v366.226c0 19.196 12.065 35.619 29.006 42.11l285.724-213.201c3.794-2.831 6.03-7.287 6.03-12.022z" fill="#f40055"/><path d="m314.731 243.979-58.733-43.834.001 111.7 58.731-43.823c3.794-2.831 6.029-7.287 6.029-12.021.001-4.734-2.234-9.19-6.028-12.022z" fill="#c20044"/><path d="m157.009 268.325 26.86-19.515c5.3-3.851 2.576-12.234-3.975-12.234h-33.201c-2.93 0-5.527-1.887-6.432-4.673l-10.26-31.576c-2.025-6.231-10.84-6.231-12.864 0l-10.26 31.576c-.905 2.787-3.502 4.673-6.432 4.673h-33.2c-6.552 0-9.276 8.384-3.975 12.234l26.86 19.515c2.37 1.722 3.362 4.775 2.457 7.561l-10.26 31.576c-2.025 6.231 5.107 11.412 10.407 7.561l26.86-19.515c2.37-1.722 5.58-1.722 7.95 0l26.86 19.515c5.3 3.851 12.432-1.33 10.407-7.561l-10.26-31.576c-.904-2.786.088-5.838 2.458-7.561z" fill="#fff"/></svg>