<svg id="Capa_1" enable-background="new 0 0 512 512" height="512" viewBox="0 0 512 512" width="512" xmlns="http://www.w3.org/2000/svg"><path d="m466.916 27.803h-421.832c-24.859 0-45.084 20.225-45.084 45.084v366.226c0 24.859 20.225 45.084 45.084 45.084h421.832c24.859 0 45.084-20.225 45.084-45.084v-366.226c0-24.859-20.225-45.084-45.084-45.084z" fill="#f0f9ff"/><path d="m466.916 27.803h-210.916v456.394h210.916c24.859 0 45.084-20.225 45.084-45.084v-366.226c0-24.859-20.225-45.084-45.084-45.084z" fill="#cee5f5"/><path d="m0 374.095h512v38.73h-512z" fill="#f40055"/><path d="m0 305.365h512v38.729h-512z" fill="#f40055"/><path d="m45.084 484.197h421.832c23.608 0 43.023-18.244 44.919-41.372h-511.67c1.896 23.128 21.311 41.372 44.919 41.372z" fill="#f40055"/><g fill="#c20044"><path d="m243.24 236.636h268.76v38.729h-268.76z"/><path d="m256 374.095h256v38.73h-256z"/><path d="m243.24 69.177h268.595c-1.895-23.129-21.31-41.374-44.919-41.374h-223.676z"/><path d="m243.24 167.906h268.76v38.729h-268.76z"/><path d="m256 305.365h256v38.729h-256z"/><path d="m256 442.825v41.372h210.916c23.608 0 43.023-18.244 44.919-41.372z"/><path d="m243.24 99.177h268.76v38.729h-268.76z"/></g><path d="m256 27.803h-211c-24.813 0-45 20.187-45 45v202.562h256z" fill="#406bd4"/><path d="m217.165 181.293c7.557.775 13.452 7.159 13.452 14.92s-5.895 14.145-13.452 14.92c-.775 7.557-7.159 13.452-14.92 13.452s-14.145-5.895-14.92-13.452c-7.557-.775-13.452-7.159-13.452-14.92s5.895-14.145 13.452-14.92c.775-7.557 7.159-13.452 14.92-13.452s14.145 5.895 14.92 13.452z" fill="#fff"/><path d="m25.383 196.213c0-7.761 5.895-14.145 13.452-14.92.775-7.557 7.159-13.452 14.92-13.452s14.145 5.895 14.92 13.452c7.557.775 13.452 7.159 13.452 14.92s-5.895 14.145-13.452 14.92c-.775 7.557-7.159 13.452-14.92 13.452s-14.145-5.895-14.92-13.452c-7.556-.775-13.452-7.159-13.452-14.92z" fill="#fff"/><path d="m99.628 196.213c0-7.761 5.895-14.145 13.452-14.92.775-7.557 7.159-13.452 14.92-13.452s14.145 5.895 14.92 13.452c7.557.775 13.452 7.159 13.452 14.92s-5.895 14.145-13.452 14.92c-.775 7.557-7.159 13.452-14.92 13.452s-14.145-5.895-14.92-13.452c-7.557-.775-13.452-7.159-13.452-14.92z" fill="#fff"/><path d="m156.372 106.956c0 7.761-5.895 14.145-13.452 14.92-.775 7.556-7.159 13.451-14.92 13.451s-14.145-5.895-14.92-13.451c-7.557-.775-13.452-7.159-13.452-14.92s5.895-14.145 13.452-14.92c.775-7.557 7.159-13.452 14.92-13.452s14.145 5.895 14.92 13.452c7.557.774 13.452 7.158 13.452 14.92z" fill="#fff"/><path d="m82.128 106.956c0 7.761-5.895 14.145-13.452 14.92-.775 7.556-7.159 13.451-14.92 13.451s-14.145-5.895-14.92-13.451c-7.557-.775-13.452-7.159-13.452-14.92s5.895-14.145 13.452-14.92c.775-7.557 7.159-13.452 14.92-13.452s14.145 5.895 14.92 13.452c7.557.774 13.452 7.158 13.452 14.92z" fill="#fff"/><path d="m230.617 106.956c0 7.761-5.895 14.145-13.452 14.92-.775 7.556-7.159 13.451-14.92 13.451s-14.145-5.895-14.92-13.451c-7.557-.775-13.452-7.159-13.452-14.92s5.895-14.145 13.452-14.92c.775-7.557 7.159-13.452 14.92-13.452s14.145 5.895 14.92 13.452c7.556.774 13.452 7.158 13.452 14.92z" fill="#fff"/><path d="m256 27.803h-211c-24.813 0-45 20.187-45 45v202.562h256z" fill="#406bd4"/><path d="m217.165 181.293c7.557.775 13.452 7.159 13.452 14.92s-5.895 14.145-13.452 14.92c-.775 7.557-7.159 13.452-14.92 13.452s-14.145-5.895-14.92-13.452c-7.557-.775-13.452-7.159-13.452-14.92s5.895-14.145 13.452-14.92c.775-7.557 7.159-13.452 14.92-13.452s14.145 5.895 14.92 13.452z" fill="#fff"/><path d="m25.383 196.213c0-7.761 5.895-14.145 13.452-14.92.775-7.557 7.159-13.452 14.92-13.452s14.145 5.895 14.92 13.452c7.557.775 13.452 7.159 13.452 14.92s-5.895 14.145-13.452 14.92c-.775 7.557-7.159 13.452-14.92 13.452s-14.145-5.895-14.92-13.452c-7.556-.775-13.452-7.159-13.452-14.92z" fill="#fff"/><path d="m99.628 196.213c0-7.761 5.895-14.145 13.452-14.92.775-7.557 7.159-13.452 14.92-13.452s14.145 5.895 14.92 13.452c7.557.775 13.452 7.159 13.452 14.92s-5.895 14.145-13.452 14.92c-.775 7.557-7.159 13.452-14.92 13.452s-14.145-5.895-14.92-13.452c-7.557-.775-13.452-7.159-13.452-14.92z" fill="#fff"/><path d="m156.372 106.956c0 7.761-5.895 14.145-13.452 14.92-.775 7.556-7.159 13.451-14.92 13.451s-14.145-5.895-14.92-13.451c-7.557-.775-13.452-7.159-13.452-14.92s5.895-14.145 13.452-14.92c.775-7.557 7.159-13.452 14.92-13.452s14.145 5.895 14.92 13.452c7.557.774 13.452 7.158 13.452 14.92z" fill="#fff"/><path d="m82.128 106.956c0 7.761-5.895 14.145-13.452 14.92-.775 7.556-7.159 13.451-14.92 13.451s-14.145-5.895-14.92-13.451c-7.557-.775-13.452-7.159-13.452-14.92s5.895-14.145 13.452-14.92c.775-7.557 7.159-13.452 14.92-13.452s14.145 5.895 14.92 13.452c7.557.774 13.452 7.158 13.452 14.92z" fill="#fff"/><path d="m230.617 106.956c0 7.761-5.895 14.145-13.452 14.92-.775 7.556-7.159 13.451-14.92 13.451s-14.145-5.895-14.92-13.451c-7.557-.775-13.452-7.159-13.452-14.92s5.895-14.145 13.452-14.92c.775-7.557 7.159-13.452 14.92-13.452s14.145 5.895 14.92 13.452c7.556.774 13.452 7.158 13.452 14.92z" fill="#fff"/></svg>