<svg id="Capa_1" enable-background="new 0 0 512 512" height="512" viewBox="0 0 512 512" width="512" xmlns="http://www.w3.org/2000/svg"><path d="m466.916 27.803h-421.832c-24.859 0-45.084 20.225-45.084 45.084v366.226c0 24.859 20.225 45.084 45.084 45.084h421.832c24.859 0 45.084-20.225 45.084-45.084v-366.226c0-24.859-20.225-45.084-45.084-45.084z" fill="#f0f9ff"/><path d="m466.916 27.803h-210.916v456.394h210.916c24.859 0 45.084-20.225 45.084-45.084v-366.226c0-24.859-20.225-45.084-45.084-45.084z" fill="#cee5f5"/><path d="m0 256v183.113c0 24.859 20.225 45.084 45.084 45.084h210.916v-228.197z" fill="#f40055"/><path d="m256 256v228.197h210.916c24.859 0 45.084-20.225 45.084-45.084v-183.113z" fill="#c20044"/><path d="m271 255.941c-.017-4.193-1.788-8.189-4.884-11.017l-235.209-214.824c-17.933 5.957-30.907 22.88-30.907 42.787v366.226c0 20.914 14.316 38.544 33.662 43.614l232.54-215.73c3.074-2.852 4.814-6.862 4.798-11.056z" fill="#406bd4"/><path d="m271 255.941c-.017-4.193-1.788-8.189-4.884-11.017l-10.116-9.239v40.776l10.202-9.464c3.074-2.852 4.814-6.862 4.798-11.056z" fill="#3257b0"/></svg>