<svg id="Layer_1" enable-background="new 0 0 511.996 511.996" height="512" viewBox="0 0 511.996 511.996" width="512" xmlns="http://www.w3.org/2000/svg"><path d="m240.67 38.606c-10.897 10.589-24.185 13.719-33.983 14.555-5.563.475-10.551-3.44-11.428-8.954-2.097-13.191-6.056-25.734-12.769-36.207l-31.777 10.585c-5.455 1.817-7.81 8.204-4.866 13.143 18.727 31.409 27.344 79.231 16.047 120.312l27.011 7.229s5.07-35.037 7.379-66.369c.362-4.913 4.037-8.926 8.895-9.747 10.467-1.77 28.228-5.489 37.946-11.432 17.344-10.603 1.037-36.508-2.455-33.115z" fill="#69da61"/><path d="m178.522 151.064c11.284-46.568 2.698-100.77-15.984-136.418l-11.825 3.939c-5.455 1.817-7.81 8.204-4.866 13.143 18.727 31.409 27.344 79.232 16.047 120.312l27.011 7.229s.255-1.767.676-4.845z" fill="#5ab161"/><path d="m323.231 335.982 18.106-15.981c6.057-5.346 6.057-15.193 0-20.539l-18.106-15.981c-9.609-8.481-13.053-22.493-8.566-34.854l9.256-25.501c2.926-8.062-2.029-16.902-10.118-18.049l-18.282-2.592c-13.339-1.891-23.734-13.174-25.184-27.333l-2.465-24.077c-.937-9.152-10.128-14.588-17.985-10.639l-13.871 6.973c-13.062 6.566-28.701 2.037-36.787-10.651l-9.814-15.4c-5.009-7.861-15.944-7.861-20.953 0l-9.817 15.404c-8.086 12.688-23.722 17.213-36.784 10.647l-13.871-6.973c-7.857-3.95-17.048 1.487-17.985 10.639l-2.465 24.077c-1.45 14.159-11.845 25.442-25.184 27.333l-18.283 2.592c-8.089 1.147-13.044 9.987-10.118 18.049l9.256 25.501c4.487 12.361 1.043 26.373-8.566 34.854l-18.105 15.981c-6.057 5.346-6.057 15.193 0 20.539l18.106 15.981c9.609 8.481 13.053 22.493 8.566 34.854l-9.256 25.501c-2.926 8.062 2.029 16.902 10.118 18.049l18.283 2.592c13.339 1.891 23.734 13.174 25.184 27.333l2.465 24.077c.937 9.152 10.128 14.588 17.985 10.639l13.871-6.973c13.062-6.566 28.698-2.041 36.784 10.647l9.817 15.404c5.009 7.861 15.944 7.861 20.953 0l9.817-15.404c8.086-12.688 23.722-17.214 36.784-10.647l13.871 6.973c7.857 3.95 17.048-1.487 17.985-10.639l2.465-24.077c1.45-14.159 11.845-25.442 25.184-27.333l18.283-2.592c8.089-1.147 13.044-9.987 10.118-18.049l-9.256-25.501c-4.489-12.361-1.045-26.373 8.564-34.854z" fill="#ffe070"/><path d="m217.717 351.021c-7.059 0-12.682 6.681-11.973 14.421.614 6.707 1.652 13.296 3.088 19.739 1.08 4.845 7.975 11.046 9.494 15.716 1.623 4.992-2.1 8.44-.002 13.207 10.491 23.836 26.747 44.691 47.056 60.9 1.322-1.845 2.231-4.08 2.491-6.615l2.465-24.077c1.45-14.159 11.845-25.441 25.184-27.333l18.283-2.592c8.089-1.147 13.044-9.986 10.118-18.049l-9.256-25.501c-2.359-6.499-2.506-13.447-.737-19.815 0 0-17.175 1.843-25.352 0-4.096-.923-19.15-7.229-23.349-7.205-4.115.023-10.788 6.281-14.798 7.205-7.97 1.836-32.712-.001-32.712-.001z" fill="#ffce66"/><path d="m38.185 320.67 18.106-15.981c9.609-8.481 13.053-22.493 8.566-34.854l-9.256-25.501c-2.926-8.062 2.029-16.902 10.118-18.049l18.282-2.592c13.339-1.891 23.734-13.174 25.184-27.333l2.465-24.077c.937-9.151 10.128-14.588 17.985-10.639l13.871 6.973c13.062 6.567 28.698 2.041 36.784-10.647l9.817-15.404c2.22-3.483 5.606-5.412 9.122-5.808l-9.814-15.4c-5.009-7.861-15.943-7.861-20.953 0l-9.817 15.404c-8.086 12.687-23.722 17.214-36.784 10.647l-13.871-6.973c-7.857-3.95-17.048 1.487-17.985 10.639l-2.465 24.077c-1.45 14.159-11.845 25.442-25.184 27.333l-18.283 2.592c-8.089 1.147-13.044 9.986-10.118 18.049l9.256 25.501c4.486 12.361 1.043 26.373-8.566 34.854l-18.105 15.981c-6.057 5.346-6.057 15.193 0 20.539l18.021 15.906c-1.949-5.167-.752-11.374 3.624-15.237z" fill="#fff2b9"/><path d="m365.356 488.208c-70.531 0-128.441-47.786-134.592-108.745-.583-5.774 4.041-10.759 9.847-10.759h249.489c5.806 0 10.43 4.985 9.847 10.759-6.151 60.959-64.061 108.745-134.591 108.745z" fill="#ffb750"/><path d="m365.356 469.4c65.83 0 120.658-41.63 132.677-96.744 1.418 1.877 2.172 4.265 1.915 6.806-6.151 60.959-64.061 108.745-134.592 108.745s-128.441-47.786-134.592-108.745c-.257-2.541.497-4.929 1.915-6.806 12.018 55.114 66.847 96.744 132.677 96.744z" fill="#ea8e50"/><path d="m366.824 450.593c-39.759 0-73.666-22.16-86.789-53.276-5.728-13.582 4.234-28.613 18.98-28.613h135.618c14.745 0 24.708 15.031 18.98 28.613-13.123 31.116-47.029 53.276-86.789 53.276z" fill="#ffe070"/><path d="m366.824 428.456c38.349 0 71.247-20.62 85.308-50.004 3.342 5.384 4.252 12.293 1.48 18.866-13.123 31.116-47.029 53.276-86.788 53.276s-73.666-22.16-86.789-53.276c-2.772-6.573-1.862-13.481 1.48-18.866 14.062 29.384 46.96 50.004 85.309 50.004z" fill="#ffce66"/><path d="m299.005 368.704h62.421c-20.18 14.068-34.519 40.944-32.983 74.544-22.264-8.98-39.803-25.53-48.407-45.931-5.727-13.578 4.229-28.605 18.969-28.613z" fill="#fff2b9"/><path d="m286.406 373.008c.264 1.52.696 3.044 1.331 4.551 7.778 18.443 22.874 33.718 42.147 43.119-1.273 7.098-1.804 14.644-1.442 22.57-22.264-8.98-39.803-25.53-48.407-45.931-3.842-9.111-.616-18.869 6.371-24.309z" fill="#ffe070"/><path d="m434.644 368.704h-62.421c20.18 14.068 34.518 40.945 32.983 74.544 22.264-8.98 39.803-25.53 48.407-45.931 5.726-13.578-4.23-28.605-18.969-28.613z" fill="#fff2b9"/><path d="m450.961 376.751c-8.727 19.549-25.699 35.414-47.143 44.233 1.233 7.009 1.744 14.451 1.387 22.264 22.264-8.98 39.804-25.53 48.407-45.931 3.075-7.287 1.626-14.99-2.651-20.566z" fill="#ffe070"/><ellipse cx="208.904" cy="401.674" fill="#ffce66" rx="3.765" ry="4.424" transform="matrix(.98 -.198 .198 .98 -75.429 49.342)"/><ellipse cx="291.584" cy="342.057" fill="#ffce66" rx="5.4" ry="4.134"/><g fill="#231f20"><path d="m125.715 198.724 13.836-7.744c13.492 7.206 14.21 8.767 17.735 8.765 8.219 0 11.083-10.968 3.914-14.981l-17.742-9.932c-2.428-1.359-5.387-1.359-7.814 0l-17.743 9.932c-3.855 2.157-5.231 7.032-3.073 10.888 2.157 3.855 7.032 5.23 10.887 3.072z"/><path d="m243.049 195.651c2.158-3.854.782-8.729-3.073-10.888l-17.742-9.932c-2.428-1.359-5.387-1.359-7.814 0l-17.742 9.932c-3.855 2.158-5.231 7.033-3.073 10.888 2.158 3.856 7.034 5.231 10.888 3.073l13.835-7.744 13.835 7.744c3.868 2.167 8.737.766 10.886-3.073z"/><path d="m86.327 255.971 13.835-7.744 13.835 7.744c3.87 2.167 8.739.766 10.888-3.073 2.158-3.854.782-8.729-3.073-10.888l-17.742-9.932c-2.428-1.359-5.387-1.359-7.814 0l-17.742 9.932c-3.855 2.158-5.231 7.033-3.073 10.888 2.157 3.856 7.033 5.231 10.886 3.073z"/><path d="m200.588 242.01-17.742-9.932c-2.428-1.359-5.387-1.359-7.814 0l-17.742 9.932c-3.855 2.158-5.231 7.033-3.073 10.888 2.157 3.856 7.033 5.231 10.888 3.073l13.835-7.744 13.835 7.744c3.87 2.167 8.739.766 10.888-3.073 2.156-3.855.78-8.73-3.075-10.888z"/><path d="m279.363 242.01-17.742-9.932c-2.428-1.359-5.387-1.359-7.814 0l-17.742 9.932c-3.855 2.158-5.231 7.033-3.073 10.888 2.158 3.856 7.033 5.231 10.888 3.073l13.835-7.744c13.492 7.206 14.21 8.767 17.735 8.765 8.218 0 11.082-10.969 3.913-14.982z"/><path d="m86.327 321.678 13.835-7.744c13.492 7.206 14.21 8.767 17.735 8.765 2.802 0 5.521-1.475 6.987-4.094 2.158-3.854.782-8.729-3.073-10.888l-17.742-9.932c-2.428-1.359-5.387-1.359-7.814 0l-17.742 9.932c-3.855 2.158-5.231 7.033-3.073 10.888s7.034 5.23 10.887 3.073z"/><path d="m192.773 297.785-13.835 7.744-13.835-7.744c-3.854-2.158-8.73-.783-10.888 3.073-2.158 3.854-.782 8.729 3.073 10.888l17.742 9.932c2.428 1.359 5.387 1.359 7.814 0l17.742-9.932c3.855-2.158 5.231-7.033 3.073-10.888-2.156-3.856-7.032-5.231-10.886-3.073z"/><path d="m279.363 307.717-17.742-9.932c-2.428-1.359-5.387-1.359-7.814 0l-17.742 9.932c-3.855 2.158-5.231 7.033-3.073 10.888s7.033 5.23 10.888 3.073l13.835-7.744 13.835 7.744c3.87 2.167 8.739.766 10.888-3.073 2.157-3.855.781-8.73-3.075-10.888z"/><path d="m192.773 363.492-13.835 7.744-13.835-7.744c-3.854-2.158-8.73-.783-10.888 3.073-2.158 3.854-.782 8.729 3.073 10.888l17.742 9.932c2.428 1.359 5.387 1.359 7.814 0l17.742-9.932c3.855-2.158 5.231-7.033 3.073-10.888-2.156-3.857-7.032-5.232-10.886-3.073z"/><path d="m124.885 366.565c-2.158-3.856-7.033-5.231-10.888-3.073l-13.835 7.744-13.835-7.744c-3.854-2.158-8.729-.783-10.888 3.073-2.158 3.854-.782 8.729 3.073 10.888l17.742 9.932c2.428 1.359 5.387 1.359 7.814 0l17.742-9.932c3.857-2.159 5.233-7.034 3.075-10.888z"/><path d="m153.386 416.51-13.835 7.744-13.836-7.744c-3.854-2.159-8.729-.783-10.888 3.073-2.158 3.855-.782 8.73 3.073 10.888l17.743 9.932c2.428 1.359 5.387 1.359 7.814 0l17.742-9.932c3.855-2.158 5.231-7.033 3.073-10.888-2.157-3.856-7.032-5.232-10.886-3.073z"/><path d="m490.1 360.704c-19.522 0-152.095 0-169.35 0-.293-7.11 2.486-14.057 7.775-18.725l18.106-15.981c9.652-8.521 9.674-23.995 0-32.534l-18.106-15.981c-7.168-6.326-9.716-16.825-6.34-26.126l9.257-25.502c4.692-12.93-3.482-26.848-16.517-28.698l-18.282-2.593c-9.725-1.378-17.27-9.695-18.349-20.226l-2.465-24.078c-1.494-14.606-16.562-23.493-29.537-16.972l-13.869 6.974c-9.427 4.735-20.545 1.457-26.445-7.799l-4.703-7.381c1.29-11.581 2.296-22.206 2.989-31.595.091-1.231 1.016-2.238 2.25-2.447 12.832-2.169 30.324-6.098 40.785-12.494 8.455-5.169 12.548-13.679 11.523-23.961-.925-9.299-6.777-21.03-14.013-23.674-3.451-1.262-7.173-.512-9.715 1.957-7.366 7.158-17.152 11.304-29.087 12.322-1.37.107-2.63-.866-2.849-2.239-2.458-15.467-7.146-28.679-13.934-39.269-1.975-3.081-5.788-4.429-9.264-3.272l-31.777 10.585c-10.3 3.431-14.771 15.498-9.208 24.829 14.158 23.748 21.451 55.755 19.697 86.007l-6.776 10.632c-5.897 9.256-17.017 12.536-26.443 7.799l-13.871-6.974c-13.039-6.558-28.049 2.448-29.536 16.972l-2.465 24.078c-1.078 10.53-8.623 18.848-18.349 20.226l-18.283 2.593c-13.058 1.854-21.198 15.793-16.514 28.699l9.255 25.501c3.376 9.301.828 19.8-6.34 26.126l-18.105 15.981c-9.652 8.521-9.674 23.995 0 32.534l18.105 15.981c7.168 6.326 9.716 16.826 6.341 26.127l-9.257 25.501c-4.681 12.902 3.453 26.846 16.516 28.698l18.282 2.593c9.726 1.379 17.271 9.696 18.349 20.227l2.465 24.078c1.499 14.634 16.587 23.48 29.537 16.971l13.869-6.974c9.426-4.735 20.547-1.457 26.445 7.801l9.817 15.403c8.139 12.771 26.284 12.806 34.445 0l9.816-15.403c5.9-9.256 17.022-12.537 26.444-7.801l13.87 6.974c12.937 6.508 28.039-2.327 29.537-16.972l.095-.932c48.83 34.843 117.162 37.128 168.566 6.707 3.803-2.25 5.061-7.157 2.811-10.959-2.25-3.803-7.156-5.062-10.959-2.811-79.249 46.902-189.126 2.373-197.618-82.548-.107-1.063.821-1.955 1.888-1.955h32.731c-5.377 10.932-2.814 20.218 2.22 29.883 2.04 3.918 6.869 5.441 10.79 3.401 3.919-2.04 5.441-6.871 3.401-10.79-3.024-5.814-5.188-10.907-1.236-16.862 2.375-3.579 6.201-5.632 10.498-5.632h42.111c-11.866 14.4-19.073 33.172-20.519 53.87-1.911-1.092-3.784-2.21-6.33-3.978-3.632-2.518-8.615-1.619-11.134 2.011-2.52 3.63-1.619 8.614 2.011 11.134 6.286 4.364 12.95 7.929 20.039 10.81.18.081.365.15.552.221 54.146 20.561 115.239-2.922 135.24-50.346 3.251-7.708 2.956-16.334-.678-23.722h29.795c1.08 0 1.995.903 1.888 1.956-1.461 14.489-6.067 28.374-13.69 41.267-2.248 3.803-.988 8.709 2.815 10.958 3.803 2.247 8.709.987 10.958-2.815 8.813-14.904 14.141-30.988 15.837-47.803 1.055-10.475-7.268-19.563-17.808-19.563zm-44.969 21.632c2.076 3.127 2.669 6.851 1.61 10.46-2.937 10-15.288 27.208-33.699 37.716-1.456-20.671-8.655-39.423-20.508-53.808 41.811.7 47.044-2.741 52.597 5.632zm-292.412-354.705c-.167-.28-.195-.574-.084-.873.241-.647-1.751.203 26.179-9.101 3.977 7.78 6.844 17.104 8.545 27.807 1.528 9.611 10.325 16.49 20.008 15.668 12.993-1.108 24.187-5.162 33.374-12.073 1.279 2.565 2.442 6.067 2.202 9.381-.209 2.906-1.44 4.897-3.989 6.456-6.37 3.895-19.166 7.674-35.107 10.369-8.515 1.439-14.905 8.449-15.539 17.047-.385 5.215-.868 10.824-1.445 16.78-3.908-1.672-8.283-2.012-11.988-1.215-.851-28.721-8.748-57.758-22.156-80.246zm87.892 333.073c-5.304 0-10.146 2.41-13.308 5.908-.058.101-5.335 5.368-4.5 13.654 1.268 12.557 4.622 24.736 9.733 36.057-.523.258 1.48-.853-14.211 7.931l-13.835-7.744c-3.854-2.159-8.729-.783-10.888 3.073-2.158 3.854-.782 8.729 3.073 10.888l17.742 9.932c2.428 1.359 5.387 1.359 7.814 0 24.428-13.674 15.999-8.967 17.823-9.982 5.757 9.263 12.793 17.842 21.033 25.654l-1.177 11.499c-.353 3.449-3.506 5.778-6.434 4.306l-13.871-6.974c-16.635-8.363-36.892-2.56-47.123 13.496l-9.816 15.403c-1.862 2.921-5.585 2.942-7.461 0l-9.816-15.402c-10.273-16.122-30.557-21.827-47.125-13.497l-13.87 6.974c-2.73 1.368-6.054-.606-6.434-4.306l-2.465-24.077c-1.828-17.863-14.995-32.025-32.019-34.439l-18.282-2.593c-2.882-.409-4.973-3.95-3.722-7.398l9.257-25.5c5.599-15.428 1.262-32.942-10.793-43.582l-18.105-15.981c-2.449-2.162-2.45-6.379 0-8.542l18.105-15.981c12.055-10.639 16.392-28.152 10.792-43.581l-9.255-25.5c-1.267-3.49.877-6.996 3.721-7.399l18.282-2.593c17.023-2.413 30.19-16.574 32.019-34.438l2.465-24.077c.353-3.446 3.503-5.78 6.434-4.307l13.871 6.974c16.635 8.362 36.893 2.56 47.123-13.495l9.817-15.404c1.879-2.947 5.603-2.914 7.46-.001 13.461 21.12 8.81 13.825 9.817 15.405 10.232 16.056 30.492 21.857 47.124 13.495l13.869-6.974c2.723-1.367 6.054.599 6.435 4.306l2.465 24.079c1.829 17.863 14.996 32.024 32.019 34.438l18.282 2.593c2.882.409 4.974 3.95 3.723 7.398l-9.256 25.501c-5.601 15.427-1.264 32.941 10.791 43.581l18.106 15.981c2.449 2.162 2.451 6.379 0 8.542l-18.106 15.981c-8.763 7.734-13.482 19.096-13.203 30.721-8.995-.003-50.638-.003-64.12-.003zm95.723 76.937c.189-25.411 10.308-47.75 27.695-60.937h5.589c17.373 13.176 27.49 35.485 27.697 60.868-20.149 6.847-41.896 6.519-60.981.069z"/><path d="m469.347 441.21c-3.568-1.49-7.672-.148-9.71 2.939-6.047 9.183 7.68 17.414 13.3 8.88 2.787-4.13 1.11-9.86-3.59-11.819z"/></g></svg>