<svg id="Layer_1" enable-background="new 0 0 509.151 509.151" height="512" viewBox="0 0 509.151 509.151" width="512" xmlns="http://www.w3.org/2000/svg"><circle cx="349.861" cy="389.436" fill="#ff5872" r="111.715"/><path d="m334.068 278.829c54.22 7.672 95.923 54.269 95.923 110.607s-41.703 102.935-95.923 110.607c67.597 9.565 127.507-42.893 127.507-110.607 0-67.724-59.921-120.17-127.507-110.607z" fill="#ff7f90"/><path d="m322.348 367.788c0-30.228-10.479-55.869-28.003-75.319-33.58 19.267-56.199 55.475-56.199 96.966 0 30.348 12.102 57.868 31.741 78.001-.011.689.111 1.391.403 2.109.357-.206.717-.412 1.079-.617.209.207.419.413.63.617 1.316-1.005 2.611-2.036 3.885-3.091 10.677-5.681 22.817-11.159 32.408-17.639 2.616-1.767 5.273-3.572 7.253-6.032 3.016-3.746 4.176-8.685 4.378-13.49.066-1.569-.03-3.491-.302-5.557-1.438-10.927-1.335-21.987.643-32.83 1.369-7.496 2.084-15.223 2.084-23.118z" fill="#db4968"/><path d="m286.73 360.146c0 66.041-53.537 119.577-119.577 119.577s-119.578-53.537-119.578-119.577 53.537-108.649 119.577-108.649 119.578 42.608 119.578 108.649z" fill="#ff5872"/><path d="m70.792 391.06c0-66.041 53.537-108.649 119.577-108.649 33.763 0 64.258 11.137 86.001 30.848-18.661-38.615-60.543-61.762-109.218-61.762-66.041 0-119.577 42.608-119.577 108.649 0 33.901 14.108 64.506 36.772 86.267-8.658-16.551-13.555-35.38-13.555-55.353z" fill="#ff7f90"/><ellipse cx="145.811" cy="316.726" fill="#ff7f90" rx="21.924" ry="12.163" transform="matrix(.961 -.276 .276 .961 -81.695 52.496)"/><ellipse cx="333.457" cy="408.027" fill="#db4968" rx="7.525" ry="11.024" transform="matrix(.997 -.083 .083 .997 -32.58 28.954)"/><path d="m187.524 14.53c-5.347 1.769-8 7.294-6.037 12.573 5.45 14.653 19.02 43.014 45.718 55.832 28.429 13.649 48.892 1.063 56.76-5.403 4.349-3.574 6.926-8.937 6.995-14.57.125-10.183-2.85-34.022-31.279-47.671-26.697-12.818-57.314-5.672-72.157-.761z" fill="#a8ffa9"/><path d="m181.488 27.103c5.45 14.653 19.02 43.014 45.718 55.832 9.101 4.369 17.386 6.05 24.702 6.104 6.68-12.286-3.103-34.549-23.346-51.722-16.122-13.677-34.348-20.282-46.674-18.062-1.195 2.31-1.418 5.112-.4 7.848z" fill="#c9ffd2"/><path d="m418.438 86.92c5.995.643 10.02 5.825 9.158 11.793-2.392 16.566-10.183 49.31-35.224 68.757-26.665 20.708-50.923 12.161-60.617 7.173-5.359-2.757-9.267-7.787-10.613-13.666-2.432-10.627-4.706-36.246 21.959-56.954 25.042-19.446 58.695-18.887 75.337-17.103z" fill="#69da61"/><path d="m427.596 98.713c-2.392 16.566-10.182 49.31-35.224 68.757-8.536 6.629-16.826 10.26-24.47 11.97-9.767-11.347-4.561-36.854 12.742-59.4 13.78-17.956 31.36-28.986 44.76-29.449 1.773 2.148 2.639 5.029 2.192 8.122z" fill="#5ab161"/><path d="m290.701 148.76c2.163-5.146-.235-10.727-5.456-12.7-14.494-5.477-44.514-13.821-71.481-2.235-28.716 12.337-32.649 35.819-32.947 45.907-.165 5.577 2.161 10.995 6.323 14.717 7.523 6.728 27.263 20.038 55.979 7.701 26.967-11.587 41.578-39.107 47.582-53.39z" fill="#a8ffa9"/><path d="m285.244 136.06c-14.494-5.477-44.514-13.821-71.481-2.235-9.193 3.95-15.845 9.041-20.652 14.47 4.823 12.994 27.822 20.193 53.835 16.264 20.718-3.129 37.525-12.436 43.898-23.087-.947-2.398-2.894-4.39-5.6-5.412z" fill="#c9ffd2"/><g fill="#231f20"><path d="m281.445 402.97c3.617 0 6.97-2.423 7.84-6.44.843-4.32-1.945-8.549-6.28-9.4-4.963-1.011-9.56 2.822-9.56 7.84 0 4.332 3.512 8 8 8z"/><path d="m357.554 269.975c-.747-14.013-3.261-45.722-11.536-82.208 36.6 6.477 80.057-22.534 89.496-87.91 1.511-10.458-5.711-19.765-16.224-20.892-18.691-2.004-54.087-2.234-81.097 18.74-7.181 5.576-12.487 11.491-16.397 17.426-7.408-15.713-15.826-29.599-25.146-41.479 1.481-3.36 2.264-6.916 2.309-10.592.534-43.513-46.534-78.43-113.949-56.126-9.655 3.194-14.568 13.422-11.021 22.958 24.175 64.997 78.329 80.243 112.009 56.146 10.323 13.7 19.449 30.256 27.205 49.351-2.536 11.566-1.172 21.641.14 27.371 1.834 8.023 7.094 15.037 14.797 19.019 9.565 38.188 12.501 73.135 13.371 88.231-24.217 1.674-47.185 10.612-66.146 25.714-22.17-32.431-59.702-49.654-98.927-51.954 1.656-8.186 5.31-21.732 13.157-37.5 36.956 23.363 85.73-.275 108.48-54.411 3.921-9.329-.533-19.705-10.003-23.283-65.912-24.907-113.978 7.796-115.252 50.919-.167 5.659 1.436 11.082 4.482 15.695-11.116 21.034-15.481 38.961-17.145 48.474-20.455.91-40.09 5.792-57.163 14.282-3.956 1.967-5.568 6.769-3.601 10.725 1.966 3.956 6.768 5.57 10.725 3.601 68.091-33.856 168.613-.543 168.613 87.873 0 4.418 3.582 8 8 8s8-3.582 8-8c0-17.321-3.421-34.428-11.194-50.45 18.782-15.647 42.168-23.974 66.318-23.974 57.134 0 103.721 46.464 103.721 103.715 0 57.188-46.526 103.715-103.715 103.715-35.525 0-68.543-18.266-87.521-48.04 4.185-4.698 8.453-10.275 11.957-15.684 2.577-3.977 1.175-9.423-3.253-11.555-3.577-1.724-7.961-.564-10.175 2.855-20.648 31.866-55.689 50.996-93.715 50.996-61.524 0-111.578-50.053-111.578-111.577 0-24.861 8.231-47.226 23.804-64.677 2.941-3.296 2.654-8.354-.643-11.295-3.296-2.942-8.354-2.655-11.295.643-18.229 20.429-27.865 46.478-27.865 75.33 0 70.346 57.231 127.577 127.578 127.577 31.227 0 60.704-11.261 83.595-31.153 22.162 32.66 59.264 52.581 99.113 52.581 66.011 0 119.715-53.704 119.715-119.715-.003-63.427-49.586-115.482-112.024-119.462zm-126.886-194.252c-10.257-4.925-29.313-18.152-41.682-51.409-.382-1.026.005-1.843 1.051-2.189 33.687-11.144 55.925-4.546 66.183.378 23.56 11.311 26.867 30.143 26.742 40.359-.04 3.21-1.495 6.369-4.075 8.489-7.896 6.488-24.658 15.683-48.219 4.372zm117.34 34.619c18.913-14.687 45.708-18.028 69.577-15.467 1.486.159 2.308 1.213 2.093 2.695-3.433 23.779-13.308 48.901-32.213 63.581-17.593 13.662-36.154 14.556-52.051 6.378-3.261-1.678-5.654-4.755-6.474-8.337-4.041-17.659 1.746-35.398 19.068-48.85zm-65.592 33.201c.953.361 1.326 1.123.909 2.116-13.606 32.396-33.013 44.692-43.365 49.14-23.759 10.209-39.951.426-47.488-6.315-2.34-2.092-3.756-5.213-3.659-8.516.964-32.627 39.182-56.99 93.603-36.425z"/></g></svg>