<svg id="Layer_1" enable-background="new 0 0 512.005 512.005" height="512" viewBox="0 0 512.005 512.005" width="512" xmlns="http://www.w3.org/2000/svg"><path d="m353.091 149.728c-32.337-22.535-75.228-20.863-107.189 2.202-8.576 6.189-18.336 9.831-26.655 9.831s-18.079-3.642-26.655-9.831c-31.962-23.065-74.852-24.737-107.189-2.202-38.891 27.102-61.395 70.656-61.395 130.131 0 82.942 51.72 171.393 124.668 207.802 9.545 4.764 20.496 5.834 30.758 2.92 25.048-7.114 56.589-7.334 82.019-.677 10.004 2.619 20.654 1.706 29.863-2.999 72.158-36.866 123.171-124.673 123.171-207.046-.001-59.475-22.505-103.029-61.396-130.131z" fill="#ff5872"/><path d="m376.242 169.92c9.089 20.695 13.939 44.875 13.939 72.487 0 82.373-51.013 170.181-123.171 207.046-9.209 4.705-19.859 5.618-29.863 2.999-25.393-6.647-56.933-6.448-82.019.677-10.262 2.915-21.212 1.844-30.758-2.92-27.368-13.66-51.748-34.645-71.53-59.916 22.207 41.78 55.829 77.4 95.835 97.368 9.545 4.764 20.496 5.834 30.758 2.92 25.049-7.114 56.589-7.334 82.019-.677 10.004 2.619 20.654 1.706 29.863-2.999 72.158-36.866 123.171-124.673 123.171-207.046 0-46.436-13.718-83.167-38.244-109.939z" fill="#db4968"/><path d="m54.918 312.159c0-59.475 22.504-103.029 61.395-130.131 32.337-22.535 75.227-20.863 107.189 2.202 8.576 6.189 18.335 9.831 26.655 9.831 8.319 0 18.078-3.642 26.655-9.831 31.962-23.065 74.852-24.737 107.189-2.202 1.443 1.006 2.864 2.034 4.262 3.085-9.439-13.885-21.256-25.688-35.172-35.385-32.337-22.535-75.228-20.863-107.189 2.202-8.577 6.189-18.336 9.831-26.655 9.831s-18.078-3.642-26.655-9.831c-31.962-23.065-74.852-24.737-107.189-2.202-38.891 27.102-61.395 70.656-61.395 130.131 0 66.822 33.57 137.22 84.766 181.099-33.371-42.218-53.856-96.6-53.856-148.799z" fill="#ff7f90"/><path d="m177.924 103.457c16.11-.676 29.849-12.054 33.515-27.756 1.765-7.558 1.545-16.86-3.675-27.274-18.059-36.026-80.643-40.426-80.643-40.426s-7.339 62.308 24.692 86.763c9.259 7.069 18.356 9.018 26.111 8.693z" fill="#69da61"/><path d="m180.122 88.631c0-21.542-21.884-39.004-48.879-39.004-.91 0-1.814.021-2.711.06 2.886 16.696 9.37 34.456 23.281 45.077 8.678 6.626 17.214 8.754 24.636 8.727 2.366-4.581 3.673-9.599 3.673-14.86z" fill="#5ab161"/><path d="m161.829 349.547h311.913c9.219 0 15.997 8.603 13.874 17.575-10.151 42.893-52.167 148.538-218.802 135.825-113.11-8.629-122.557-102.215-121.879-138.832.15-8.099 6.795-14.568 14.894-14.568z" fill="#ff7f90"/><path d="m175.826 349.547c-1.684 31.652 3.832 110.984 100.144 118.332 145.401 11.093 176.831-83.126 183.483-118.332z" fill="#ffe070"/><g fill="#231f20"><path d="m152.041 172.156c-.151-4.416-3.834-7.886-8.271-7.72-14.424.496-28.257 5.084-40.002 13.27-32.003 22.302-48.919 57.916-48.919 102.99 0 4.418 3.582 8 8 8s8-3.582 8-8c0-40.177 14.153-70.411 42.067-89.863 9.209-6.418 20.068-10.016 31.404-10.406 4.416-.153 7.873-3.856 7.721-8.271z"/><path d="m61.057 346.49c-1.934 4.637.902 9.941 5.82 10.9 4.701.998 9.569-2.625 9.569-7.84.001-8.741-12.106-11.091-15.389-3.06z"/><path d="m473.742 341.547c-22.573 0-47.055 0-59.978 0 5.785-20.712 8.722-41.415 8.722-61.688 0-59.875-22.415-107.143-64.82-136.694-34.476-24.024-81.269-23.106-116.445 2.278-4.563 3.293-9.523 5.743-14.208 7.103-.751-9.05-3.898-32.479-16.877-56.865 4.317-5.152 7.498-11.322 9.094-18.161 2.545-10.897 1.093-21.892-4.314-32.678-19.874-39.646-84.493-44.629-87.234-44.822-4.274-.3-8.007 2.802-8.507 7.044-.321 2.729-7.467 67.145 27.782 94.058 16.549 12.635 35.777 13.048 50.532 4.949 9.696 19.467 12.583 38.067 13.422 46.3-4.516-1.389-9.26-3.77-13.638-6.929-35.176-25.385-81.972-26.302-116.444-2.278-116.141 80.933-64.961 287.152 64.274 351.654 7.148 3.568 14.92 5.38 22.725 5.38 12.721 0 15.895-4.124 37.251-6.288 17.729 9.462 38.804 15.156 63.126 17.011 63.791 4.87 127.36-5.87 174.126-49.167 34.661-32.09 48.127-71.912 53.069-92.792 3.313-13.996-7.274-27.415-21.658-27.415zm-317.075-253.142c-21.684-16.556-22.775-54.803-22.135-71.469 23.763 3.553 55.318 13.606 66.08 35.076 14.971 29.86-17.262 56.76-43.945 36.393zm-4.419 392.098c-33.71-16.825-64.39-46.439-86.388-83.386-40.814-68.549-41.786-142.852-18.535-190.984 9.721-20.124 24.071-36.893 42.652-49.841 28.86-20.112 68.215-19.319 97.934 2.126 20.842 15.04 41.914 14.981 62.673 0 29.674-21.414 69.029-22.269 97.934-2.126 41.519 28.932 57.969 73.765 57.969 123.567 0 20.212-3.15 40.938-9.369 61.688-11.789 0-228.523 0-235.287 0-12.396 0-22.665 10.058-22.894 22.419-.818 44.036 12.76 88.859 46.568 116.853-8.672 1.894-19.217 6.692-33.257-.316zm327.583-115.224c-9.604 40.582-46.484 130.727-184.198 130.718-63.08-.004-112.862-17.08-132.911-77.446-9.508-28.745-7.735-57.075-7.787-54.29.068-3.703 3.161-6.715 6.896-6.715h5.781c-.022 16.595 2.421 41.487 14.483 64.051 17.432 32.611 48.812 50.866 93.268 54.258 31.504 2.402 64.439.414 94.288-9.952 4.173-1.449 6.382-6.008 4.933-10.182-1.45-4.173-6.004-6.381-10.183-4.933-24.771 8.603-54.317 11.667-87.821 9.113-38.646-2.949-65.688-18.374-80.374-45.847-10.506-19.655-12.626-41.719-12.597-56.509h265.847c-4.115 15.761-12.83 38.469-31.063 58.396-2.982 3.259-2.758 8.32.502 11.302 3.26 2.983 8.319 2.759 11.303-.501 22.043-24.091 31.631-51.665 35.737-69.197h7.81c4.08.002 7.015 3.808 6.086 7.734z"/><path d="m280.439 371.411c-4.418 0-8 3.582-8 8v6.909c0 4.418 3.582 8 8 8s8-3.582 8-8v-6.909c0-4.418-3.582-8-8-8z"/><path d="m330.089 371.411c-4.418 0-8 3.582-8 8v6.909c0 4.418 3.582 8 8 8s8-3.582 8-8v-6.909c0-4.418-3.582-8-8-8z"/><path d="m398.077 436.541c-4.87-.993-9.56 2.74-9.56 7.84 0 5.105 4.717 8.868 9.56 7.84 8.552-1.669 8.507-14.021 0-15.68z"/></g></svg>