<svg id="Layer_1" enable-background="new 0 0 511.988 511.988" height="512" viewBox="0 0 511.988 511.988" width="512" xmlns="http://www.w3.org/2000/svg"><path d="m206.552 56.043h-23.941c17.944 40.239 0 84.827 0 84.827h23.941s17.945-44.588 0-84.827z" fill="#ffe070"/><ellipse cx="191.626" cy="316.511" fill="#69da61" rx="173.631" ry="187.477"/><path d="m284.931 158.377c-70.04 56.52-94.828 155.642-54.27 240.35 4.555 13.41 39.386 32.363 18.402 73.072-1.509 2.927-.43 7.104 1.996 9.33 2.231 2.048 5.685 1.704 8.676 1.232 6.609-1.043 13.301-2.11 19.439-4.775 3.703-1.608 7.219-3.879 10-6.78.182.139.365.278.548.417 45.614-33.783 75.535-90.474 75.535-154.711 0-66.46-32.027-124.841-80.326-158.135z" fill="#5ab161"/><path d="m237.174 135.552c-14.516-4.249-29.786-6.517-45.548-6.517-95.894 0-173.631 83.936-173.631 187.477 0 102.685 76.458 186.088 171.258 187.459-16.9-4.947-32.776-12.581-47.211-22.451-16.15-16.954-5.793-21.6-10.034-37.644-1.531-5.794-2.605-11.922-6.1-16.79-4.725-6.579-12.856-9.54-19.867-13.596-24.467-14.155-39.83-38.288-43.196-64.329-14.714-113.832 67.764-215.16 174.329-213.609z" fill="#87eda8"/><path d="m276.4 14.888c-3.005-8.22-12.583-9.314-17.141-2.103-13.939 22.052-40.38 26.407-62.981 19.854-29.755-8.628-52.476 9.086-62.928 19.768-3.883 3.969-4.919 10.471-2.558 15.795 3.151 7.106 11.006 9.356 16.711 4.826 11.621-9.228 32.195-19.023 59.049-13.268 23.23 4.978 60.985.349 70.357-36.811.637-2.526.526-5.228-.36-7.653z" fill="#ffb750"/><path d="m492.623 461.34-143.458-299.622c-3.551-7.416-12.674-10.129-19.769-5.973-80.209 46.989-112.313 148.442-71.445 233.799s140.031 123.96 226.928 90.94c7.687-2.92 11.294-11.728 7.744-19.144z" fill="#a8ffa9"/><path d="m487.571 450.79-132.525-276.791c-73.467 37.9-103.944 127.615-68.003 202.681s124.939 107.577 200.528 74.11z" fill="#ffe070"/><path d="m316.618 366.402c-31.295-65.363-12.234-141.832 41.718-185.53l-3.291-6.873c-73.467 37.9-103.944 127.615-68.003 202.681s124.939 107.577 200.529 74.11l-.267-.557c-67.869 14.63-139.391-18.468-170.686-83.831z" fill="#ffce66"/><path d="m388.183 243.209c-28.765 13.211-46.844 44.04-42.438 77.051 5.408 40.513 42.634 68.971 83.147 63.564 8.309-1.109 16.112-3.557 23.219-7.097z" fill="#ffb750"/><path d="m100.581 389.136c1.591.839 3.245 1.638 5.027 1.878s3.737-.16 5.001-1.44c1.956-1.979 1.654-5.203 1.055-7.921-.594-2.698-1.346-5.36-2.25-7.97-.514-1.484-1.096-2.982-2.108-4.182-4.288-5.083-17.102-7.858-20.131-.081-3.324 8.531 7.115 16.396 13.406 19.716z" fill="#87eda8"/><path d="m216.968 428.384c.447-1.207 1.352-2.188 2.367-2.952 4.799-3.607 12.011-2.354 16.26 1.871 6.744 6.706 9.129 24.689-3.331 26.266-11.331 1.435-18.855-15.567-15.296-25.185z" fill="#5ab161"/><g fill="#231f20"><path d="m191.626 165.027c-77.686 0-140.887 67.956-140.887 151.484 0 4.418 3.582 8 8 8s8-3.582 8-8c0-74.706 56.024-135.484 124.887-135.484 4.418 0 8-3.582 8-8s-3.582-8-8-8z"/><path d="m62.215 345.298c-4.417.952-7.113 5.063-6.28 9.41.75 3.806 4.131 6.44 7.841 6.44 4.829 0 8.845-4.374 7.85-9.57-.842-4.304-5.127-7.155-9.411-6.28z"/><path d="m372.375 289.147c1.631 3.994 6.291 6.063 10.45 4.33 3.96-1.649 6.064-6.187 4.33-10.45-2.203-5.282-9.037-6.599-13.051-2.59-2.216 2.223-3.001 5.661-1.729 8.71z"/><path d="m369.545 314.718c-3.81.748-6.44 4.107-6.44 7.84 0 5.112 4.755 8.863 9.57 7.84 4.436-.867 7.154-5.28 6.271-9.4-.874-4.426-5.179-7.141-9.401-6.28z"/><path d="m400.285 335.288c4.403 0 8-3.564 8-8 0-3.724-2.627-7.094-6.431-7.84-4.856-.991-9.569 2.74-9.569 7.84 0 4.4 3.579 8 8 8z"/><path d="m401.335 358.377c0 4.416 3.628 8 8 8 4.27 0 8-3.46 8-8 0-5.055-4.64-8.853-9.56-7.85-3.709.724-6.44 4.031-6.44 7.85z"/><path d="m499.839 457.885c-118.372-247.214-137.524-287.243-137.585-287.353-4.622-7.589-6.028-19.723-19.231-23.767-5.894-1.807-12.335-1.048-17.671 2.078-7.329 4.294-14.354 9.109-21.037 14.363-24.596-20.952-53.789-34.626-84.599-39.818 2.767-13.864 4.658-33.664-.249-54.016 30.387 1.068 57.3-13.147 65.198-44.465 1.726-6.837-.725-12.645-.748-12.756l-.004-.01c-5.293-14.479-23.341-16.405-31.418-3.63-12.656 20.024-36.992 21.374-53.99 16.444-33.54-9.727-58.803 9.52-70.873 21.857-6.206 6.342-7.875 16.241-4.153 24.633 5.315 11.99 19.27 15.575 28.998 7.848 5.184-4.115 13.95-9.62 25.851-12.036 6.463 20.153 4.328 40.768 1.514 54.2-94.679 6.559-169.847 91.53-169.847 195.054 0 107.786 81.479 195.477 181.631 195.477 43.84 0 85.733-16.84 118.728-47.55 49.901 36.026 116.317 46.724 177.368 23.525 12.064-4.584 17.677-18.465 12.117-30.078zm-58.551-85.235c-39.732 14.134-82.095-12.107-87.614-53.448-3.51-26.298 8.734-51.509 30.89-65.022 6.771 14.14 47.722 99.667 56.724 118.47zm-298.76-305.887c-3.592 2.855-7.131-5.01-3.459-8.761 15.149-15.484 34.575-23.597 54.98-17.68 29.399 8.523 57.651-.606 71.971-23.263 2-3.16 3.747 1.497 3.132 3.933-3.91 15.502-21.139 39.462-60.917 30.946-25.289-5.161-48.373 1.06-65.707 14.825zm52.177-.592c2.464.154 5.074.467 7.516.897 6.522 20.15 4.422 40.777 1.563 54.399-2.472-.176-5.316-.31-7.568-.371 2.625-14.352 4.126-34.506-1.511-54.925zm287.333 406.835c-104.442 39.687-219.936-29.533-232.74-141.936-.5-4.39-4.452-7.536-8.854-7.043-4.39.5-7.543 4.464-7.043 8.854 5.278 46.334 27.909 90.186 64.238 121.517-29.734 26.881-67.053 41.59-106.013 41.59-91.329 0-165.631-80.513-165.631-179.477 0-97.243 71.741-176.665 160.884-179.398 38.154-1.154 75.21 11.934 105.131 36.652-33.112 30.966-52.617 71.399-58.161 113.01-.584 4.379 2.493 8.403 6.873 8.986 4.386.587 8.404-2.494 8.986-6.873 6.79-50.967 36.272-98.435 83.731-126.24 3.093-1.808 6.994-.643 8.51 2.525l2.607 5.445c-34.022 19.646-59.485 50.713-72.122 88.232-27.623 82.016 14.29 169.482 92.223 201.15 4.093 1.664 8.761-.307 10.423-4.4 1.664-4.093-.307-8.76-4.399-10.423-33.604-13.655-60.744-39.208-76.422-71.951-32.8-68.507-7.313-150.124 57.229-188.13l26.154 54.624c-27.417 16.14-44.377 47.509-39.827 81.599 6.927 51.895 60.637 84.678 110.406 65.811l28.474 59.471c-22.157 8.345-46.028 11.165-69.536 8.155-4.396-.567-8.391 2.536-8.952 6.919-.561 4.382 2.537 8.39 6.919 8.951 26.488 3.393 53.451.127 78.5-9.552l1.782 3.721c1.514 3.162-.021 6.94-3.37 8.211z"/></g></svg>