<svg id="Layer_1" enable-background="new 0 0 508.033 508.033" height="512" viewBox="0 0 508.033 508.033" width="512" xmlns="http://www.w3.org/2000/svg"><path d="m154.199 35.181c-6.665.121-11.605 5.425-11.24 12.071 1.012 18.447 6.385 55.21 32.058 79.039 27.337 25.374 54.887 18.349 66.051 13.813 6.164-2.504 10.965-7.648 13.025-13.988 3.719-11.447 8.732-39.391-18.605-64.765-25.673-23.83-62.787-26.505-81.289-26.17z" fill="#69da61"/><path d="m142.959 47.251c1.012 18.447 6.385 55.21 32.058 79.039 8.751 8.123 17.524 12.926 25.775 15.552 11.867-11.521 8.631-40.074-8.216-66.554-13.417-21.089-31.697-34.935-46.407-36.754-2.163 2.19-3.399 5.274-3.21 8.717z" fill="#5ab161"/><path d="m303.83 10.398c21.723-10.729 38.439 17.774 16.799 30.772-66.612 40.008-46.213 118.609-46.213 118.609l-36.974-3.124c-.001 0-16.122-105.504 66.388-146.257z" fill="#cd8e50"/><path d="m254.016 148.309c-121.496-48.076-172 40.864-172 129.126s98.008 222.597 172 222.597c77.86 0 172-134.335 172-222.597s-50.504-177.202-172-129.126z" fill="#ff7f90"/><path d="m124.828 259.65c6.804-10.599 3.277-24.701 3.454-37.294.527-37.373 52.102-82.202 89.007-84.96-95.034-18.046-135.272 61.262-135.272 140.04 0 71.799 64.856 174.083 128.882 209.743-45.503-41.581-121.635-172.128-86.071-227.529z" fill="#ff9db7"/><path d="m339.321 137.036c37.879 24.817 54.831 76.17 54.831 127.3 0 40.788-3.505 85.879-49.415 134.076-4.901 5.145-34.349 12.255-38.692 17.765-12.1 15.353.799 28.492-12.947 39.803-23.15 19.049-47.769 30.952-70.947 30.952-4.738 0-9.575-.559-14.478-1.613 15.757 9.319 31.531 14.712 46.342 14.712 77.86 0 172-134.335 172-222.597.001-63.722-26.332-127.787-86.694-140.398z" fill="#ff5872"/><ellipse cx="138.039" cy="287.01" fill="#ff9db7" rx="13.214" ry="9.939" transform="matrix(.163 -.987 .987 .163 -167.66 376.331)"/><circle cx="282.229" cy="444.064" fill="#ff5872" r="7.857"/><g fill="#231f20"><path d="m279.476 131.693c.109-24.669 7.538-61.002 45.272-83.666 6.774-4.069 11.313-9.751 13.126-16.431 5.292-19.509-14.898-39.577-37.587-28.372-27.771 13.717-45.038 34.268-55.682 55.878-22.939-23.888-57.618-32.537-90.55-31.921-11.223.202-19.698 9.35-19.084 20.507.435 7.934 1.443 15.857 2.998 23.551.876 4.331 5.102 7.127 9.427 6.257 4.331-.876 7.132-5.096 6.257-9.427-1.403-6.939-2.313-14.091-2.705-21.258-.116-2.088 1.232-3.594 3.396-3.632 31.066-.562 64.31 7.84 83.365 32.359-7.053 20.301-9.225 40.326-9.508 56.063-13.97-3.428-27.279-5.029-39.802-4.772-7.882-5.45-15.055-12.857-20.908-22.283-2.33-3.753-7.261-4.909-11.017-2.575-3.753 2.33-4.906 7.263-2.575 11.017 3.731 6.01 8.013 11.47 12.746 16.297-64.603 13.77-92.63 81.82-92.63 148.148 0 90.061 99.365 230.598 180 230.598 85.194 0 180-141.454 180-230.598.001-96.917-54.929-170.38-154.539-145.74zm27.897-114.122c7.194-3.555 12.158-.402 14.223 3.377 2.049 3.753 1.789 9.234-5.086 13.363-46.807 28.114-53.804 73.65-52.978 102.015-3.144 1.049-6.315 2.179-9.516 3.4-3.311-1.263-6.59-2.427-9.84-3.505-.242-49.885 18.064-96.359 63.197-118.65zm-53.357 474.462c-68.365 0-164-129.559-164-214.598 0-53.735 18.703-98.529 50.03-119.823 32.479-22.076 73.402-16.615 110.394-2.107 2.976 1.912 19.84 13.483 32.545 37.581 18.485 35.062 19.878 80.9 4.024 132.562-1.296 4.224 1.078 8.698 5.302 9.995 4.253 1.302 8.707-1.105 9.995-5.302 9.574-31.201 13.318-60.467 11.129-86.984-3.26-39.463-19.724-71.401-42.981-92.452 33.377-10.783 68.415-13.085 97.532 6.707 31.327 21.294 50.03 66.088 50.03 119.823 0 84.99-91.676 214.598-164 214.598z"/><path d="m276.566 349.182c-3.643 3.741-2.871 9.61 1.22 12.311 2.995 2.017 7.277 1.823 10.101-1 1.81-1.811 2.718-4.491 2.189-7.22-1.384-6.464-9.123-8.466-13.51-4.091z"/></g></svg>