<svg id="Layer_1" enable-background="new 0 0 512 512" height="512" viewBox="0 0 512 512" width="512" xmlns="http://www.w3.org/2000/svg"><path d="m361.047 243.154c0 106.984-79.032 193.711-176.524 193.711s-176.523-86.727-176.523-193.711 79.032-217.154 176.523-217.154 176.524 110.171 176.524 217.154z" fill="#cd8e50"/><path d="m110.596 244.772v53.896c0 52.062 18.907 99.701 50.215 136.451 127.965 18.856 238.93-116.432 187.242-268.454-8.814-.421-17.798-.638-26.918-.638-116.278 0-210.539 35.256-210.539 78.745z" fill="#ba8050"/><path d="m211.574 44.483c23.586 0 46.086 6.464 66.654 17.755-27.157-22.486-59.276-36.238-93.705-36.238-97.491 0-176.523 110.171-176.523 217.154 0 75.694 39.569 141.238 97.242 173.109-20.601-17.087-37.672-39.019-49.82-64.249-8.503-17.66-9.333-38.054-2.683-56.492 2.146-5.951 4.36-12.082 4.149-18.412-.331-9.956-6.511-18.617-10.104-27.908-3.66-9.463-10.451-29.592-2.341-52.595 23.69-82.386 89.567-152.124 167.131-152.124z" fill="#dda450"/><path d="m321.135 486c-100.993 0-182.865-81.871-182.865-182.865v-46.812h365.73v46.812c0 100.994-81.872 182.865-182.865 182.865z" fill="#cd8e50"/><path d="m476.326 256.323v36.064c0 100.993-81.871 182.864-182.865 182.864-18.128 0-35.635-2.651-52.168-7.563 24.125 11.728 51.214 18.312 79.842 18.312 100.993 0 182.865-81.871 182.865-182.865v-46.812z" fill="#ba8050"/><path d="m504 256.323c0-37.773-81.871-68.394-182.865-68.394s-182.865 30.621-182.865 68.394c0 31.152 55.689 57.435 131.861 65.693 10.915 1.183 20.8 7.002 27.196 15.926l11.552 16.118c6.087 8.493 18.658 8.664 24.973.34l13.645-17.984c5.951-7.843 17.189-9.257 24.897-3.132l21.078 16.75c7.678 6.102 18.867 4.725 24.838-3.055l26.637-34.712c3.771-4.914 8.77-8.731 14.457-11.187 27.782-11.994 44.596-27.64 44.596-44.757z" fill="#e6e9df"/><ellipse cx="321.135" cy="254.524" fill="#fff" rx="124.706" ry="35.567"/><path d="m52.557 212.582c-.277 4.048-.376 8.62 2.434 11.548 2.341 2.439 6.258 2.951 9.409 1.725 6.237-2.426 10.273-11.188 8.033-18.039-1.678-5.133-7.432-8.927-12.839-8.433-6.559.598-6.656 7.629-7.037 13.199z" fill="#dda450"/><g fill="#231f20"><path d="m323.529 440.782c-52.69 0-98.571-28.783-123.032-70.762-2.225-3.818-7.123-5.108-10.94-2.884s-5.109 7.122-2.884 10.94c27.222 46.719 78.266 78.707 136.856 78.707 4.418 0 8-3.582 8-8s-3.581-8.001-8-8.001z"/><path d="m512 256.323c0-21.847-20.867-41.684-58.757-55.855-25.797-9.648-57.701-16.134-92.366-18.948-22.038-83.767-89.869-163.52-176.354-163.52-104.162 0-184.523 116.132-184.523 225.154 0 115.823 88.994 206.889 193.177 201.478 33.877 30.664 78.773 49.368 127.958 49.368 105.243 0 190.865-85.622 190.865-190.865zm-55.768 37.413c-6.943 2.998-13.064 7.707-17.633 13.661l-26.637 34.711c-3.254 4.24-9.34 4.978-13.514 1.663l-21.078-16.75c-11.166-8.871-27.524-6.934-36.247 4.56-2.592 3.416-13.125 17.305-13.559 17.861-3.144 4.036-9.323 3.952-12.328-.242l-11.408-15.917c-7.733-10.79-19.702-17.794-32.836-19.218-29.481-3.196-65-10.331-91.834-23.491-13.643-6.691-32.889-18.994-32.889-34.25 0-14.478 17.627-29.374 48.362-40.869 68.775-25.723 182.596-26.335 253.005 0 60.064 22.463 65.432 53.74 8.596 78.281zm-440.232-50.582c0-98.844 72.857-209.154 168.523-209.154 77.264 0 138.179 72.13 159.476 146.449-48.656-2.228-105.851 2.487-151.619 18.795-27.169 9.678-62.111 28.334-62.111 57.079 1.962 32.409-6.847 71.748 16.22 123.909 7.842 17.734 18.2 33.975 30.895 48.468-89.623-4.139-161.384-85.782-161.384-185.546zm480 59.981c0 96.421-78.444 174.865-174.865 174.865-94.913 0-172.406-76.009-174.807-170.354-.097-3.887-.042-5.42-.057-19.654 28.377 26.076 84.521 37.807 122.999 41.979 8.614.934 16.471 5.538 21.556 12.632l11.408 15.918c9.281 12.948 28.481 13.251 38.143.519l13.496-17.787c3.261-4.298 9.372-5.021 13.546-1.704 32.714 25.994 13.51 10.736 21.078 16.75 10.954 8.704 27.305 7.094 36.162-4.448l18.572-24.203c6.52-7.639 9.265-14.868 19.345-19.221 11.752-5.074 24.034-11.769 33.426-20.385v15.093z"/><path d="m230.761 221.681c-28.089 8.011-42.332 19.062-42.332 32.843s14.242 24.832 42.332 32.843c75.083 21.414 223.08 10.589 223.08-32.843 0-13.781-14.241-24.831-42.328-32.843-4.25-1.209-8.675 1.25-9.888 5.499-1.212 4.249 1.25 8.676 5.499 9.888 22.537 6.428 30.717 13.961 30.717 17.456s-8.181 11.028-30.72 17.457c-47.305 13.492-124.659 13.494-171.972 0-22.539-6.428-30.72-13.961-30.72-17.457s8.181-11.029 30.72-17.457c37.175-10.603 88.75-12.117 128.186-7.979 4.391.466 8.331-2.728 8.791-7.122s-2.728-8.33-7.122-8.791c-41.056-4.305-94.781-2.75-134.243 8.506z"/><path d="m136.41 89.44c3.126 3.147 8.229 3.081 11.31 0 3.12-3.12 3.111-8.221 0-11.31-3.176-3.176-8.266-3.061-11.31 0-3.167 3.146-3.086 8.22 0 11.31z"/><path d="m184.52 80.72c3.682 0 7.001-2.494 7.85-6.43.859-4.463-2.07-8.584-6.28-9.41-4.944-.998-9.57 2.832-9.57 7.84 0 4.422 3.605 8 8 8z"/><path d="m173.22 116.24c4.535-.977 7.086-5.205 6.28-9.41-.734-3.39-3.284-5.692-6.28-6.28-4.92-1.003-9.57 2.806-9.57 7.84 0 4.94 4.502 8.825 9.57 7.85z"/><path d="m191.17 350.09c2.192-3.324 1.611-7.499-.99-10.1-1.86-1.86-4.62-2.71-7.22-2.19-5.725 1.233-8.191 7.587-5.09 12.29 3.103 4.707 10.162 4.759 13.3 0z"/></g></svg>