<svg id="Layer_1" enable-background="new 0 0 512.004 512.004" height="512" viewBox="0 0 512.004 512.004" width="512" xmlns="http://www.w3.org/2000/svg"><circle cx="207.187" cy="285.17" fill="#ffe070" r="181.185"/><path d="m388.371 285.17c0-36.272-10.665-70.049-29.021-98.381-8.162.182-18.261 2.989-22.457 9.958-6.739 11.194 4.07 24.259 8.691 36.481 6.741 17.828-.937 38.787-14.829 51.835-13.893 13.048-32.836 19.369-51.608 22.663-19.77 3.47-40.055 3.988-59.976 1.533-26.836-3.307-53.553-11.979-80.36-8.45-7.407.975-15.075 3.095-20.33 8.407-5.75 5.812-7.597 14.368-8.604 22.482-5.156 41.527 7.95 82.376 25.718 119.952 21.962 9.457 46.162 14.705 71.591 14.705 100.066 0 181.185-81.119 181.185-181.185z" fill="#ffce66"/><path d="m26.002 285.17c0 57.744 27.014 109.175 69.092 142.354.365-1.77-51.39-82.312-27.693-158.942 6.281-20.312 8.995-42.016 20.277-60.037s29.153-32.8 50.123-36.307c18.912-3.164 41.126 2.056 55.327-10.829 3.915-3.552 6.818-8.254 11.291-11.07 7.303-4.597 16.672-3.053 25.302-3.002 8.63.052 18.982-3.083 21.013-11.471.862-3.561-.048-7.304-1.249-10.765-2.29-6.598-5.683-12.718-9.908-18.225-10.51-1.897-21.334-2.891-32.391-2.891-100.065.001-181.184 81.12-181.184 181.185z" fill="#fff2b9"/><path d="m315.003 504.002c94.44 0 170.999-76.559 170.999-170.999h-341.998c0 94.44 76.559 170.999 170.999 170.999z" fill="#ffb750"/><path d="m484.906 352.471c.724-6.389 1.096-12.885 1.096-19.468h-341.998c0 6.583.372 13.079 1.096 19.468z" fill="#ffe070"/><path d="m315.003 458.223c69.157 0 125.22-56.063 125.22-125.22h-250.44c0 69.157 56.063 125.22 125.22 125.22z" fill="#ffe070"/><path d="m438.719 352.471c.99-6.344 1.505-12.846 1.505-19.468h-250.441c0 6.622.515 13.124 1.505 19.468z" fill="#ffe5a5"/><path d="m368.867 123.072c2.336-4.88.277-10.395-4.685-12.551-13.774-5.984-42.443-15.473-69.095-5.524-28.379 10.594-33.291 33.141-34.053 42.893-.422 5.391 1.576 10.746 5.429 14.544 6.966 6.867 25.451 20.681 53.831 10.087 26.651-9.948 42.089-35.903 48.573-49.449z" fill="#69da61"/><path d="m358.595 140.747c-5.591-1.434-11.674-2.222-18.038-2.222-27.421 0-49.651 14.617-49.651 32.647 0 1.493.153 2.963.449 4.403 8.03 1.508 17.71 1.138 28.938-3.054 17.272-6.447 29.834-19.616 38.302-31.774z" fill="#5ab161"/><path d="m264.552 11.73c-4.793-4.971-12.308-4.971-17.1 0-13.304 13.8-37.45 43.848-37.45 80.16 0 38.666 24.771 54.604 36.092 59.87 6.258 2.911 13.553 2.913 19.816 0 11.321-5.265 36.092-21.204 36.092-59.87 0-36.312-24.146-66.359-37.45-80.16z" fill="#a8ffa9"/><path d="m247.452 11.73c-13.304 13.8-37.45 43.848-37.45 80.16 0 12.378 2.539 22.427 6.362 30.542 17.125.864 36.54-21.763 44.779-53.251 6.562-25.078 4.19-48.728-4.804-61.174-3.189-.094-6.404 1.147-8.887 3.723z" fill="#c9ffd2"/><path d="m107.696 240.23c-.409 2.862-.611 5.847.311 8.587 1.875 5.573 8.207 8.78 14.077 8.436 5.869-.344 11.219-3.572 15.584-7.511 11.8-10.645 27.963-43.593 3.469-49.178-19.795-4.512-31.245 24.285-33.441 39.666z" fill="#fff2b9"/><g fill="#231f20"><path d="m164.173 153.893c-2.624-3.556-7.631-4.312-11.187-1.69-3.556 2.623-4.313 7.631-1.69 11.187l.268.363c2.61 3.538 7.614 4.324 11.187 1.69 3.556-2.623 4.313-7.631 1.69-11.187z"/><path d="m122.573 168.871c-37.07 27.014-59.202 70.491-59.202 116.302 0 4.418 3.582 8 8 8s8-3.582 8-8c0-40.715 19.673-79.358 52.625-103.371 3.571-2.602 4.356-7.606 1.754-11.177-2.602-3.572-7.607-4.356-11.177-1.754z"/><path d="m486.002 325.005h-93.859c12.053-56.258-1.661-116.685-41.237-162.855 12.471-11.952 20.621-26.102 25.178-35.622 4.295-8.974.413-19.377-8.714-23.342-12-5.213-34.091-12.68-57.395-9.911.466-32.759-16.976-63.563-39.662-87.095-7.942-8.239-20.674-8.242-28.619 0-14.823 15.375-39.69 46.957-39.69 85.712 0 1.417.033 2.803.092 4.166-101.972 2.708-184.092 86.5-184.092 189.114 0 103.68 83.839 188.133 187.281 189.16 30.325 23.597 68.408 37.671 109.72 37.671 98.7 0 178.999-80.299 178.999-178.999-.002-4.417-3.584-7.999-8.002-7.999zm-125.008-207.144c.793.344 1.039.957.656 1.76-18.174 37.97-58.616 66.502-88.975 37.695 17.95-9.603 31.085-26.062 35.561-47.627 20.82-3.699 41.698 3.368 52.758 8.172zm-107.783-100.576c1.643-1.704 3.928-1.715 5.582 0 13.149 13.64 35.209 41.47 35.209 74.607 0 23.287-10.421 43.025-31.576 52.661-5.217 2.374-10.053 1.445-14.505-.797-18.221-9.152-29.919-26.89-29.919-51.864 0-33.137 22.06-60.967 35.209-74.607zm61.792 478.719c-86.672 0-158.594-68.302-162.793-154.999h29.82c4.152 69.747 62.202 125.221 132.973 125.221 27.989 0 54.775-8.583 77.461-24.823 3.593-2.572 4.42-7.569 1.849-11.162-2.572-3.592-7.57-4.421-11.162-1.849-19.954 14.284-43.519 21.833-68.148 21.833-61.946 0-112.815-48.303-116.942-109.221h19.268c4.418 0 8-3.582 8-8s-3.582-8-8-8h-73.325c-4.418 0-8 3.582-8 8 0 46.446 17.77 90.68 49.936 124.056-85.508-10.507-151.938-83.586-151.938-171.888 0-94.527 76.124-171.608 170.288-173.161.009.038.02.074.029.112 7.83 32.417 35.773 49.914 51.869 49.821.97 1.792 2.159 3.456 3.456 4.914 17.459 19.634 49.838 24.431 78.784 5.311 36.598 42.445 49.926 99.316 37.336 152.836h-119.762c-4.418 0-8 3.582-8 8s3.582 8 8 8h175.945c-1.216 17.827-6.475 35.177-15.401 50.606-2.212 3.824-.906 8.718 2.919 10.931 3.83 2.215 8.721.901 10.931-2.919 10.332-17.86 16.339-37.977 17.578-58.618h29.835c-4.187 86.176-75.611 154.999-162.806 154.999z"/><path d="m413.142 414.064c-2.056-3.118-6.168-4.427-9.71-2.95-5.194 2.123-6.681 8.974-2.6 13.05 2.588 2.592 6.775 3.182 10.1.99 3.586-2.418 4.705-7.264 2.21-11.09z"/><path d="m248.346 356.311c-4.418 0-8 3.582-8 8v11.675c0 4.418 3.582 8 8 8s8-3.582 8-8v-11.675c0-4.418-3.582-8-8-8z"/><path d="m292.784 356.311c-4.418 0-8 3.582-8 8v11.675c0 4.418 3.582 8 8 8s8-3.582 8-8v-11.675c0-4.418-3.581-8-8-8z"/><path d="m337.222 356.311c-4.418 0-8 3.582-8 8v11.675c0 4.418 3.582 8 8 8s8-3.582 8-8v-11.675c0-4.418-3.581-8-8-8z"/><path d="m381.661 356.311c-4.418 0-8 3.582-8 8v11.675c0 4.418 3.582 8 8 8s8-3.582 8-8v-11.675c0-4.418-3.582-8-8-8z"/><path d="m270.565 395.408c-4.418 0-8 3.582-8 8v11.675c0 4.418 3.582 8 8 8s8-3.582 8-8v-11.675c0-4.418-3.582-8-8-8z"/><path d="m315.003 395.408c-4.418 0-8 3.582-8 8v11.675c0 4.418 3.582 8 8 8s8-3.582 8-8v-11.675c0-4.418-3.582-8-8-8z"/><path d="m359.441 395.408c-4.418 0-8 3.582-8 8v11.675c0 4.418 3.582 8 8 8s8-3.582 8-8v-11.675c0-4.418-3.581-8-8-8z"/></g></svg>