<svg id="Layer_1" enable-background="new 0 0 512.106 512.106" height="512" viewBox="0 0 512.106 512.106" width="512" xmlns="http://www.w3.org/2000/svg"><path d="m420.281 178.62c9.569-39.396-16.311-79.112-55.671-86.676-39.39-7.569-77.235 18.905-83.63 58.546-6.468 40.087-25.954 76.778-56.184 103.886-21.403 19.193-36.825 45.41-42.316 75.975-13.03 72.53 35.781 142.516 108.33 155.441 71.957 12.819 141.076-34.54 154.913-106.541 5.756-29.95 1.047-59.485-11.568-84.832-17.842-35.846-23.325-76.89-13.874-115.799z" fill="#69da61"/><path d="m361.824 366.049c0-30.498-10.198-58.614-27.37-81.124-24.286-31.835-37.416-71.106-35.478-111.101.74-15.252-3.451-30.113-11.937-42.769-2.985 6.244-4.987 12.79-6.059 19.435-6.468 40.087-25.954 76.778-56.184 103.886-21.403 19.193-36.825 45.41-42.316 75.975-12.901 71.815 34.824 141.135 106.191 155.041 43.418-22.134 73.153-67.266 73.153-119.343z" fill="#5ab161"/><path d="m269.056 178.004c1.962-40.494-30.948-74.612-71.028-74.612-40.111.001-72.279 33.141-71.079 73.277 1.214 40.587-10.997 80.296-35.569 112.623-17.396 22.887-27.593 51.544-27.217 82.596.893 73.686 62.034 133.203 135.718 132.203 73.083-.991 132.022-60.544 132.022-133.863 0-30.498-10.198-58.614-27.37-81.124-24.285-31.835-37.415-71.106-35.477-111.1z" fill="#a8ffa9"/><path d="m243.326 143.3c6.525 4.057 14.527 8.481 21.534 7.122-9.985-27.246-36.302-47.03-66.833-47.029-40.096.001-72.281 33.127-71.079 73.277 1.214 40.587-10.997 80.296-35.569 112.623-32 42.1-36.161 99.196-10.601 145.365 19.143-18.19 27.52-47.642 19.392-72.949-1.294-4.03-2.971-8.03-3.123-12.26-.342-9.518 6.851-17.37 12.947-24.687 17.119-20.55 28.816-45.576 33.602-71.89 4.471-24.579 3.029-50.163 9.829-74.202s25.404-47.62 50.36-48.78c14.124-.658 27.535 5.945 39.541 13.41z" fill="#c9ffd2"/><circle cx="198.029" cy="373.563" fill="#ffb750" r="91.224"/><circle cx="198.029" cy="373.563" fill="#cd8e50" r="60.661"/><ellipse cx="176.381" cy="340.696" fill="#cd9e6c" rx="16.643" ry="7.902" transform="matrix(.791 -.612 .612 .791 -171.594 179.149)"/><path d="m179.212 161.1c-2.91 3.593-4.568 8.182-4.624 12.805-.027 2.161.335 4.439 1.687 6.125 2.584 3.223 7.922 2.908 11.149.328 3.226-2.58 4.772-6.699 5.818-10.695.655-2.501 1.175-5.086.923-7.659s-1.371-5.16-3.458-6.686c-5.332-3.903-8.646 2.264-11.495 5.782z" fill="#c9ffd2"/><ellipse cx="332.85" cy="216.896" fill="#5ab161" rx="13.337" ry="19.788" transform="matrix(.944 -.33 .33 .944 -52.912 121.918)"/><path d="m287.559 16.19c-3.633 1.683-5.059 5.8-3.245 9.369 5.037 9.908 16.918 28.839 36.814 35.729 21.185 7.337 34.618-3.211 39.651-8.415 2.782-2.877 4.168-6.873 3.76-10.857-.737-7.202-4.769-23.798-25.954-31.135-19.895-6.889-40.94.639-51.026 5.309z" fill="#a8ffa9"/><path d="m284.315 25.56c5.037 9.908 16.918 28.839 36.814 35.729 6.782 2.349 12.769 2.865 17.941 2.31 3.723-9.219-4.991-24.15-20.68-34.639-12.495-8.354-25.903-11.542-34.429-8.975-.656 1.728-.587 3.725.354 5.575z" fill="#c9ffd2"/><g fill="#231f20"><path d="m297.253 373.563c0-54.123-43.216-97.954-96.887-99.197-4.443-.112-8.081 3.396-8.183 7.813s3.396 8.081 7.813 8.183c21.813.505 42.242 9.384 57.523 25.002 50.998 52.12 14.59 141.423-59.49 141.423-45.89 0-83.224-37.334-83.224-83.224 0-27.362 13.466-52.99 36.021-68.553 3.637-2.509 4.55-7.491 2.041-11.128s-7.491-4.551-11.128-2.041c-26.884 18.55-42.934 49.101-42.934 81.722 0 54.712 44.512 99.224 99.224 99.224s99.224-44.512 99.224-99.224z"/><path d="m244.849 412.953c3.721 2.383 8.669 1.296 11.051-2.426 28.843-45.078-3.315-105.625-57.871-105.625-37.86 0-68.661 30.801-68.661 68.661s30.801 68.661 68.661 68.661c11.903 0 23.633-3.096 33.923-8.954 3.84-2.186 5.181-7.07 2.995-10.91-2.187-3.84-7.072-5.181-10.91-2.995-7.883 4.487-16.876 6.859-26.008 6.859-29.038 0-52.661-23.624-52.661-52.661s23.624-52.661 52.661-52.661c41.825 0 66.52 46.423 44.394 81.001-2.382 3.722-1.296 8.669 2.426 11.05z"/><path d="m171.123 294.374c4.504 0 8-3.673 8-8 0-3.819-2.7-7.107-6.44-7.84-4.214-.859-8.535 1.87-9.4 6.28-1.007 4.672 2.606 9.56 7.84 9.56z"/><path d="m441.316 290.855c-17.363-34.885-22.072-74.073-13.261-110.346 10.358-42.698-15.992-84.076-55.915-94.997-.636-6.529-2.089-17.31-5.274-27.464 20.744-22.479-15.872-80.05-82.669-49.116-7.751 3.589-10.886 12.637-7.014 20.254 17.728 34.872 50.073 50.601 75.851 38.789 1.31 5.284 2.159 10.558 2.698 14.841-39.203-2.279-75.954 25.114-82.684 66.588-10.341-30.792-39.685-54.011-75.022-54.011-44.535.001-80.41 36.921-79.074 81.517 1.167 39.019-10.887 77.211-33.941 107.542-71.955 94.67-1.536 229.295 114.979 227.639 26.652-.361 52.125-8.047 74.098-22.051 40.473 11.954 84.436 5.66 120.502-19.116 58.703-40.326 77.989-117.259 46.726-180.069zm-117.57-237.126c-7.198-2.493-20.794-9.794-31.768-30.762 21.591-9.69 36.791-7.02 43.988-4.526 16.344 5.66 19.931 17.71 20.614 24.389.167 1.636-.407 3.298-1.552 4.482-4.667 4.826-14.938 12.079-31.282 6.417zm-123.973 442.364c-103.21 1.429-165.985-117.811-102.024-201.959 25.262-33.236 38.472-75.037 37.196-117.703-1.062-35.686 27.646-65.038 63.081-65.039 35.55-.001 64.795 29.893 63.039 66.225-1.833 37.831 9.022 76.441 32.5 110.028 18.238 26.05 32.735 48.889 30.071 90.738-4.209 65.165-57.814 116.812-123.863 117.71zm185.758-38.358c-27.845 19.128-61.58 26.231-94.805 19.907 56.693-49.012 65.663-133.754 20.168-193.39-19.802-25.958-32.096-57.462-33.811-90.587 7.771-18.912 9.761-31.511 12.13-43.799 6.567-34.173 39.717-56.632 73.887-50.066 35.212 6.766 57.933 41.873 49.408 76.931-9.7 39.934-4.557 82.996 14.484 121.252 27.701 55.655 10.669 123.941-41.461 159.752z"/></g></svg>