<svg id="Layer_1" enable-background="new 0 0 512.059 512.059" height="512" viewBox="0 0 512.059 512.059" width="512" xmlns="http://www.w3.org/2000/svg"><path d="m396.387 92.222c-11.058 3.574-22.781.59-30.969-7.171-51.433-48.751-138.781-59.191-216.421-20.309s-121.6 115.08-113.369 185.466c1.322 11.303-3.43 22.456-12.718 29.032-14.393 10.188-18.834 29.027-11.169 44.332 7.816 15.606 25.929 23.076 42.473 17.516l5.439-1.828c9.89-3.324 20.739-1.336 28.945 5.108 52.267 41.044 133.48 47.883 206.182 11.474s115.87-105.538 114.31-171.976c-.245-10.431 4.661-20.309 13.247-26.238l4.721-3.26c14.362-9.918 19.23-28.896 11.415-44.503-7.746-15.467-25.625-22.962-42.086-17.643z" fill="#ffe070"/><path d="m409.09 183.866c-.001-.052-.001-.105-.002-.157-7.391.81-14.642 3.976-20.506 8.63-9.398 7.457-15.622 18.265-19.849 29.493-3.101 8.238-5.29 16.922-9.874 24.436-13.707 22.465-43.624 27.744-69.898 29.241-34.547 1.968-69.245 1.264-103.683-2.105-20.479-2.003-44.694-3.542-57.84 12.289-6.909 8.32-8.867 19.74-8.615 30.551.459 19.682 6.695 37.885 16.955 53.457 47.716 16.288 105.651 12.859 159.002-13.859 72.7-36.409 115.87-105.538 114.31-171.976z" fill="#ffce66"/><path d="m432.461 108.314c1.689.455 1.649-3 2.09-4.594-8.921-11.207-24.062-16.055-38.163-11.498-11.083 3.578-22.797.575-30.969-7.171-51.434-48.751-138.782-59.191-216.422-20.309s-121.6 115.08-113.369 185.466c.785 6.715-.573 13.378-3.753 19.058 10.639-3.198 19.316-13.162 23.737-23.813 5.576-13.434 15.216-82.642 110.994-141.578 16.088-9.9 88.772-45.501 166.705 4.771 27.829 17.952 62.289-10.27 99.15-.332z" fill="#fff2b9"/><path d="m333.312 471.03c94.285 0 170.718-76.433 170.718-170.718h-341.437c0 94.285 76.433 170.718 170.719 170.718z" fill="#ffb750"/><path d="m502.475 323.447c1.025-7.566 1.555-15.288 1.555-23.135h-341.437c0 7.847.53 15.569 1.555 23.135z" fill="#ffe070"/><path d="m207.048 300.312c2.665 71.417 58.175 128.448 126.264 128.448s123.599-57.031 126.264-128.448z" fill="#ffe070"/><path d="m456.801 323.447c1.536-7.497 2.479-15.228 2.775-23.135h-252.528c.295 7.907 1.238 15.638 2.775 23.135z" fill="#ffe5a5"/><path d="m395.6 411.398-51.204-111.086h-22.17l-51.204 111.086c38.531 23.163 86.05 23.161 124.578 0z" fill="#fff2b9"/><path d="m355.06 323.447-10.664-23.135h-22.169l-10.664 23.135z" fill="#fff2f3"/><path d="m99.453 187.801c-.321 2.621-.146 5.565 1.679 7.473 2.968 3.103 8.288 1.614 11.698-.996 4.596-3.517 7.883-8.706 9.1-14.364.317-1.472.494-3.029.05-4.468-.696-2.256-2.83-3.832-5.094-4.499-10.541-3.104-16.301 7.621-17.433 16.854z" fill="#fff2b9"/><path d="m336.232 245.045c.874-1.536 1.126-3.536.221-5.054-1.073-1.801-3.353-2.418-5.421-2.757-7.379-1.209-24.772 1.746-17.815 13.076 5.373 8.75 19.137 1.552 23.015-5.265z" fill="#ffce66"/><g fill="#231f20"><path d="m170.261 109.256c44.834-24.778 97.265-26.96 136.834-5.694 3.89 2.091 8.742.633 10.834-3.26 2.091-3.892.632-8.742-3.26-10.834-44.306-23.813-102.605-21.597-152.147 5.784-3.867 2.137-5.27 7.004-3.132 10.872 2.136 3.867 7.003 5.269 10.871 3.132z"/><path d="m504.059 292.331h-122.206c23.703-33.284 36.141-71.313 35.265-108.633-.368-15.691 12.9-21.089 14.516-22.727 17.537-12.11 23.565-35.612 14.022-54.668-9.659-19.284-31.55-28.257-51.803-21.64-7.916 2.558-16.69.489-22.902-5.399-51.237-48.566-141.23-63.861-225.506-21.656-84.374 42.254-125.925 123.493-117.733 193.548 1.697 14.522-9.404 21.537-9.484 21.637-17.473 12.369-23.197 35.239-13.611 54.38 9.543 19.057 31.973 28.309 52.175 21.517 2.287-.314 14.537-7.715 26.894 1.989 25.655 20.146 57.798 32.522 93.191 35.934 30.487 55.066 89.19 92.437 156.465 92.437 98.545 0 178.718-80.173 178.718-178.718-.001-4.42-3.582-8.001-8.001-8.001zm-105.044 107.319-11.997-26.027c-1.85-4.012-6.601-5.766-10.614-3.917s-5.766 6.602-3.917 10.614l12.781 27.73c-32.75 16.996-71.23 16.932-103.855 0l45.964-99.72h11.927l14.715 31.923c1.849 4.013 6.602 5.766 10.614 3.917 4.013-1.849 5.766-6.602 3.917-10.614l-11.627-25.226h94.116c-3.824 38.56-23.833 71.273-52.024 91.32zm-230.514-30.181c-28.406-4.287-54.092-15.007-74.934-31.374-10.41-8.176-24.032-10.568-36.435-6.4l-5.438 1.828c-12.689 4.263-26.778-1.546-32.771-13.516-6.021-12.022-2.426-26.387 8.536-34.147.081-.101 18.962-12.458 16.144-36.563-7.404-63.316 30.662-138.149 109.005-177.384 78.468-39.296 161.147-24.817 207.335 18.961 10.473 9.928 25.411 13.395 38.933 8.978 12.794-4.135 26.451 1.59 32.473 13.613 5.994 11.969 2.208 26.731-8.808 34.338-1.301 1.379-22.009 11.169-21.42 36.269.877 37.346-13.069 75.652-39.332 108.258-9.336 0-78.297 0-92.738 0-4.418 0-8 3.582-8 8s3.582 8 8 8h40.708l-42.093 91.32c-28.189-20.046-48.199-52.757-52.024-91.32h9.779c4.418 0 8-3.582 8-8s-3.582-8-8-8h-62.8c-4.418 0-8 3.582-8 8 .002 23.149 4.549 46.841 13.88 69.139zm164.84 93.58c-86.518 0-158.412-68.276-162.512-154.718h28.745c6.55 74.002 66.791 131.132 138.705 128.344 68.145-2.592 122.639-58.416 128.83-128.344h28.757c-4.187 86.02-75.485 154.718-162.525 154.718z"/><path d="m135.449 111.209c-4.537.982-7.104 5.213-6.28 9.41.724 3.69 4.015 6.44 7.84 6.44 4.427 0 8-3.592 8-8 0-5.054-4.598-8.812-9.56-7.85z"/></g></svg>