<svg id="Layer_1" enable-background="new 0 0 508 508" height="512" viewBox="0 0 508 508" width="512" xmlns="http://www.w3.org/2000/svg"><path d="m241.129 112.775c-19.424-8.885-29.322-30.714-22.778-51.055l1.179-3.666-4.859 3.301c-10.381 7.053-24.622 2.542-29.054-9.203l-2.72-7.206c-1.988-5.267-9.435-5.267-11.423 0l-2.721 7.209c-4.432 11.745-18.672 16.253-29.053 9.2l-4.859-3.301 1.179 3.666c6.544 20.341-3.354 42.169-22.778 51.054-61.737 28.242-105.242 94.571-105.242 160.846 0 87.453 75.747 158.348 169.186 158.348s169.186-70.895 169.186-158.348c.001-66.275-43.505-132.604-105.243-160.845z" fill="#ff5872"/><path d="m287.97 144.458c-12.858-12.057-27.414-22.267-43.228-29.971 4.276 6.704 10.478 12.274 18.188 15.802 8.736 3.996 17.106 8.756 25.04 14.169z" fill="#ff7f90"/><path d="m29.801 291.134c0-66.275 43.505-132.604 105.243-160.845 14.277-6.531 23.408-20.054 24.645-34.84.711-8.495 7-15.562 15.409-16.962 6.814-1.135 13.489-3.605 15.457-8.82 3-7.95 2.698-7.214 3.023-7.854-3.498-2.151-6.366-5.434-7.961-9.66l-2.72-7.206c-1.987-5.266-9.436-5.266-11.423 0l-2.721 7.209c-4.431 11.74-18.674 16.251-29.053 9.2l-4.859-3.301 1.097 3.411c6.509 20.232-2.962 42.343-22.312 51.134-61.941 28.142-105.626 94.608-105.626 161.02 0 52.922 27.745 99.773 70.357 128.526-30.025-28.577-48.556-67.766-48.556-111.012z" fill="#ff7f90"/><path d="m207.419 69.667c1.796 4.76 5.204 8.331 9.313 10.426-.82-5.998-.35-12.251 1.62-18.372l1.179-3.666-4.859 3.301c-2.854 1.939-5.999 2.999-9.152 3.28z" fill="#ff7f90"/><path d="m346.373 273.62c0-60.59-36.365-121.219-89.778-152.754-.948.507-1.909.997-2.898 1.45-74.459 34.059-126.927 114.054-126.927 193.984 0 43.385 15.468 83.384 41.51 115.45 97.469 4.727 178.093-67.944 178.093-158.13z" fill="#db4968"/><path d="m394.756 147.803c-19.424-8.885-29.322-30.714-22.778-51.054l1.179-3.666-4.859 3.301c-10.381 7.053-24.622 2.542-29.054-9.203l-2.72-7.206c-1.988-5.267-9.435-5.267-11.423 0l-2.72 7.206c-4.432 11.745-18.673 16.256-29.054 9.203l-4.859-3.301 1.179 3.666c6.544 20.341-3.354 42.169-22.778 51.054-61.738 28.241-105.244 94.57-105.244 160.845 0 87.453 75.747 158.348 169.186 158.348s169.186-70.895 169.186-158.348c.003-66.275-43.502-132.604-105.241-160.845z" fill="#ff7f90"/><path d="m444.627 182.392c24.724 31.174 39.623 69.965 39.623 108.742 0 87.453-75.747 158.348-169.186 158.348-47.565 0-90.537-18.379-121.275-47.953 30.746 39.665 80.663 65.468 137.026 65.468 93.439 0 169.186-70.895 169.186-158.348-.001-46.433-21.357-92.888-55.374-126.257z" fill="#ff5872"/><path d="m315.063 211.466c0-14.041-13.125-24.275-26.783-21.047-51.195 12.097-89.293 58.11-89.293 113.025s38.098 100.928 89.293 113.025c13.658 3.227 26.783-7.007 26.783-21.047z" fill="#ff5872"/><path d="m346.564 395.422c0 14.041 13.125 24.275 26.783 21.047 51.195-12.097 89.293-58.11 89.293-113.025s-38.098-100.928-89.293-113.025c-13.658-3.227-26.783 7.007-26.783 21.047z" fill="#ff5872"/><g fill="#231f20"><path d="m398.085 140.528c-15.797-7.226-23.746-24.993-18.491-41.329l1.18-3.666c2.322-7.218-5.827-13.337-12.11-9.068l-4.86 3.302c-6.107 4.148-14.47 1.488-17.073-5.409l-2.72-7.208c-4.591-12.162-21.808-12.154-26.392.001l-2.72 7.206c-2.605 6.904-10.976 9.556-17.074 5.41l-4.858-3.301c-2.824-1.92-6.556-1.835-9.29.213-5.906 4.421-1.772 11.275-1.643 12.521 3.012 9.362 1.68 19.191-2.973 27.24-10.886-8.356-22.486-15.396-34.603-20.939-15.798-7.226-23.746-24.993-18.489-41.331.13-1.248 4.266-8.095-1.644-12.519-6.247-4.674-11.794 2.029-14.148 3.088-6.119 4.156-14.477 1.475-17.073-5.409l-2.72-7.207c-4.588-12.151-21.8-12.163-26.393 0l-2.72 7.206c-2.611 6.919-10.988 9.547-17.074 5.409l-4.859-3.3c-6.276-4.265-14.435 1.84-12.11 9.067l1.18 3.666c5.255 16.336-2.693 34.104-18.491 41.329-64.718 29.602-109.917 98.736-109.917 168.12 0 91.725 79.485 166.348 177.187 166.348 13.324 0 26.594-1.414 39.51-4.177 30.852 24.446 70.68 39.205 114.117 39.205 97.701 0 177.187-74.623 177.187-166.348-.001-69.383-45.2-138.516-109.916-168.12zm-67.272 318.468c-114.464 0-200.311-110.947-142.881-223.658 2.006-3.937.44-8.754-3.496-10.76s-8.754-.439-10.76 3.496c-35.757 70.167-21.909 144.336 27.741 194.199-97.717 13.768-185.417-56.97-185.417-148.653 0-63.204 41.835-126.704 100.57-153.569 19.007-8.694 30.253-27.839 29.407-47.718 12.542 2.149 25.49-4.71 30.262-17.354l.947-2.509c.53.847 3.498 14.271 18.316 18.962 4.246 1.345 8.653 1.629 12.893.901-.847 19.878 10.398 39.023 29.406 47.718 10.524 4.813 20.643 10.863 30.183 18.037-6.958 4.525-28.422 11.473-55.255 37.294-.796.766-1.399 1.658-1.808 2.614-3.42 7.988 6.646 14.939 12.903 8.916 13.332-12.831 28.928-23.853 46.375-31.832 18.757-8.578 30.263-27.588 29.405-47.718 12.546 2.15 25.493-4.714 30.263-17.355l.946-2.508.947 2.509c4.771 12.639 17.718 19.507 30.262 17.354-.845 19.878 10.4 39.023 29.406 47.718 58.857 26.919 100.572 90.504 100.572 153.568 0 82.903-72.308 150.348-161.187 150.348z"/><path d="m286.44 182.634c-55.316 13.07-95.453 62.779-95.453 120.811 0 57.987 40.089 107.729 95.453 120.811 18.687 4.423 36.623-9.636 36.623-28.832v-183.957c0-19.172-17.906-33.257-36.623-28.833zm20.623 212.789c0 8.843-8.269 15.305-16.943 13.262-46.649-11.024-83.133-53.075-83.133-105.24 0-52.063 36.401-94.197 83.133-105.24 8.677-2.044 16.943 4.418 16.943 13.263z"/><path d="m375.188 182.634c-18.691-4.425-36.623 9.643-36.623 28.833v183.956c0 19.286 18.024 33.234 36.623 28.832 10.966-2.591 21.532-6.678 31.403-12.147 3.865-2.142 5.262-7.011 3.121-10.875-2.142-3.865-7.01-5.263-10.875-3.121-8.592 4.761-17.787 8.318-27.329 10.573-8.687 2.044-16.943-4.428-16.943-13.262v-183.956c0-8.836 8.265-15.31 16.943-13.263 78.833 18.63 109.116 113.845 57.76 174.854-2.846 3.381-2.412 8.427.968 11.272s8.427 2.412 11.272-.968c59.018-70.11 24.018-179.383-66.32-200.728z"/><path d="m282.3 237.366c7.214-7.214-3.414-19.027-11.31-11.32-1.985 1.985-2.71 4.822-2.19 7.22 1.218 6.245 8.98 8.617 13.5 4.1z"/><path d="m288.26 267.065c-2.769-4.195-8.763-4.757-12.31-1.21-3.36 3.272-3.21 9.295 1.22 12.311 3.394 2.214 7.543 1.547 10.09-1 2.711-2.712 3.093-6.923 1-10.101z"/><path d="m375.18 236.935c3.558.77 7.525-1.214 8.94-4.779 1.983-4.783-.996-9.958-5.82-10.9-3.078-.627-6.4.651-8.21 3.4-3.122 4.626-.59 11.17 5.09 12.279z"/><path d="m384.71 258.685c-3.972-3.97-10.818-2.732-13.04 2.601-1.682 4.028.2 8.729 4.33 10.45 3.144 1.306 6.649.387 8.71-1.73 3.146-3.147 3.108-8.212 0-11.321z"/><path d="m376.74 371.605c4.349 0 8-3.5 8-8 0-5.029-4.63-8.837-9.57-7.84-3.095.611-5.635 3.059-6.271 6.28-1.019 4.843 2.758 9.56 7.841 9.56z"/><path d="m407.649 348.315c-3.74.724-6.439 4.058-6.439 7.841 0 4.419 3.579 8 8 8 4.552 0 8-3.732 8-8 0-5.092-4.704-8.83-9.561-7.841z"/><path d="m393.01 278.916c-1.667 3.994.161 8.715 4.32 10.439 3.529 1.444 7.513.296 9.72-2.939 3.11-4.887.551-11.069-5.09-12.29-3.636-.707-7.424 1.126-8.95 4.79z"/><path d="m404.28 324.605c4.279-.836 7.129-5.021 6.279-9.409-.705-3.291-3.103-5.593-6.279-6.28-4.909-.991-9.57 2.821-9.57 7.85 0 4.864 4.428 8.833 9.57 7.839z"/><path d="m400.16 253.836c3.379 2.23 7.559 1.55 10.1-.99 3.124-3.124 3.107-8.22 0-11.319-3.096-3.096-8.2-3.12-11.32 0-3.677 3.776-2.831 9.641 1.22 12.309z"/><path d="m429.149 279.506c4.418 0 8-3.577 8-8 0-3.887-2.792-7.129-6.43-7.84-4.926-1.004-9.57 2.82-9.57 7.84 0 4.331 3.508 8 8 8z"/><path d="m434.26 324.766c4.37 0 7.99-3.577 7.99-8 0-3.776-2.686-7.119-6.431-7.85-3.671-.749-7.506 1.238-8.949 4.79-2.174 5.208 1.64 11.06 7.39 11.06z"/><path d="m365.74 311.656c0 5.608 5.681 9.586 11.06 7.39 3.625-1.511 5.534-5.364 4.78-8.95-.629-3.189-3.15-5.663-6.28-6.28-4.885-.996-9.56 2.776-9.56 7.84z"/><path d="m259.649 255.556c.982-4.978-2.838-9.56-7.85-9.56-3.809 0-7.112 2.713-7.84 6.439-.879 4.465 2.086 8.582 6.28 9.4 4.07.865 8.42-1.663 9.41-6.279z"/><path d="m233.28 291.466c4.227-2.853 4.758-8.762 1.21-12.31-2.964-2.964-7.97-3.252-11.311 0-3.49 3.49-3.06 9.427 1.21 12.31 2.638 1.736 6.065 1.861 8.891 0z"/><path d="m268.7 294.706c-1.528-3.667-5.38-5.508-8.95-4.78-4.942.975-7.748 6.273-5.82 10.9 1.396 3.412 5.062 5.534 8.95 4.79 4.801-.947 7.79-6.064 5.82-10.91z"/><path d="m283.17 314.236c-4.879-.977-9.561 2.769-9.561 7.84 0 3.838 2.765 7.133 6.431 7.85 4.554.882 8.599-2.164 9.41-6.28.839-4.374-1.874-8.464-6.28-9.41z"/><path d="m233.33 316.846c-3.982.86-6.44 4.191-6.44 7.851 0 4.376 3.554 8 8 8 5.094 0 8.866-4.738 7.84-9.57-.844-4.317-5.046-7.128-9.4-6.281z"/><path d="m263.68 347.766c-1.257-1.842-3.088-3.008-5.09-3.399-4.967-1.012-9.57 2.86-9.57 7.84 0 4.359 3.545 8 8 8 6.229-.001 10.26-6.91 6.66-12.441z"/><path d="m283.17 368.676c-7.61-1.552-12.872 7.848-7.22 13.5 4.502 4.505 12.267 2.159 13.5-4.09.878-4.587-2.169-8.599-6.28-9.41z"/><path d="m193.439 210.926c3.176 2.139 7.43 1.681 10.101-.99 3.199-3.199 3.014-8.375 0-11.31-3.635-3.635-9.613-2.887-12.311 1.21-2.503 3.802-1.367 8.729 2.21 11.09z"/></g></svg>