<svg id="Layer_1" enable-background="new 0 0 511.985 511.985" height="512" viewBox="0 0 511.985 511.985" width="512" xmlns="http://www.w3.org/2000/svg"><path d="m389.054 307.462c0 85.548-83.513 132.77-186.531 132.77s-186.531-47.221-186.531-132.77 83.513-189.321 186.531-189.321 186.531 103.773 186.531 189.321z" fill="#69da61"/><path d="m389.054 307.462c0-34.268-13.41-71.455-36.096-103.73-6.202 1.885-12.881 3.891-19.591 3.852-15.338-.088-24.538-11.711-41.15-6.59-11.566 3.566-22.567 8.185-33.077 13.651-17.602 9.155-13.154 20.147-24.063 31.181-10.198 10.316-26.196 17.744-32.67 25.487-11.631 13.911-15.84 35.83-18.11 55.992-.021.186-.043.372-.065.558-.982 8.182-6.349 15.018-13.819 18.517-9.41 4.408-15.453 14.603-13.789 25.638 3.675 24.372 12.094 47.188 24.274 67.495 7.096.473 14.31.72 21.626.72 103.017 0 186.53-47.223 186.53-132.771z" fill="#5ab161"/><path d="m44.91 321.131c0-100.652 115.106-225.667 241.412-179.389-25.197-14.709-53.66-23.6-83.799-23.6-103.018 0-186.531 103.773-186.531 189.321 0 56.621 36.59 96.445 91.199 116.909-38.217-22.46-62.281-57.327-62.281-103.241z" fill="#87eda8"/><path d="m340.718 504c78.593 0 143.68-57.757 155.042-133.098 1.869-12.391-7.803-23.525-20.348-23.525h-269.389c-12.545 0-22.216 11.135-20.348 23.525 11.362 75.341 76.45 133.098 155.043 133.098z" fill="#a8ffa9"/><path d="m475.412 347.377h-4.185c-6.009 36.86-19.052 78.666-51.897 92.863-7.156 3.093-20.461.404-23.731 2.301-13.709 7.951-8.51 19.701-17.506 23.545-52.835 22.576-115.872 14.82-162.203-23.927 28.642 37.579 73.896 61.841 124.828 61.841 78.593 0 143.68-57.757 155.042-133.098 1.868-12.391-7.803-23.525-20.348-23.525z" fill="#85eda2"/><path d="m400.535 280.284-67.168 67.093h111.757c7.586 0 13.476-6.6 12.628-14.13-1.912-16.979-7.228-32.93-15.251-47.154-8.647-15.329-29.511-18.25-41.966-5.809z" fill="#ff5872"/><path d="m457.751 333.247c-1.912-16.979-7.228-32.93-15.251-47.154-8.646-15.329-29.51-18.25-41.966-5.809l-1.966 1.963c6.392 1.85 12.158 6.084 15.778 12.504 8.023 14.224 13.339 30.174 15.251 47.154.216 1.916-.009 3.77-.582 5.472h16.107c7.587 0 13.477-6.6 12.629-14.13z" fill="#ff7f90"/><path d="m394.719 238.366c-8.694-4.893-18.033-8.778-27.857-11.497-16.854-4.664-33.496 8.143-33.496 25.613v94.895l67.168-67.093c12.456-12.441 9.532-33.282-5.815-41.918z" fill="#ff7f90"/><path d="m394.719 238.366c-8.694-4.893-18.033-8.778-27.857-11.497-16.854-4.664-33.496 8.143-33.496 25.613v.638c5.945-3.652 13.344-5.003 20.787-2.943 9.824 2.718 19.163 6.603 27.857 11.496 8.974 5.05 13.692 14.274 13.579 23.552l4.946-4.94c12.455-12.442 9.531-33.283-5.816-41.919z" fill="#ff9db7"/><path d="m333.366 347.377v-94.895c0-17.469-16.642-30.277-33.496-25.613-9.824 2.719-19.163 6.604-27.857 11.497-15.346 8.636-18.27 29.476-5.815 41.918z" fill="#ff5872"/><path d="m280.489 261.068c8.694-4.893 18.033-8.778 27.857-11.496 9.339-2.585 18.607.201 25.02 6.166v-3.256c0-17.469-16.642-30.277-33.496-25.613-9.824 2.719-19.163 6.604-27.857 11.497-15.346 8.636-18.27 29.477-5.815 41.918l.893.894c.946-8.06 5.537-15.686 13.398-20.11z" fill="#ff7f90"/><path d="m333.366 347.377s-40.977-40.931-67.168-67.094c-12.455-12.441-33.319-9.521-41.965 5.808-8.023 14.225-13.34 30.176-15.252 47.156-.848 7.53 5.042 14.13 12.628 14.13z" fill="#ff7f90"/><path d="m231.928 345.954c1.912-16.98 7.229-32.931 15.252-47.156 5.129-9.092 14.556-13.818 23.977-13.563-1.699-1.697-3.357-3.352-4.958-4.952-12.455-12.441-33.318-9.521-41.965 5.808-8.023 14.224-13.34 30.176-15.252 47.156-.848 7.53 5.042 14.13 12.628 14.13h10.238c0-.47.026-.945.08-1.423z" fill="#ff9db7"/><path d="m75.317 134.791c-3.138 5.189-1.439 11.563 3.865 14.505 14.726 8.165 45.698 21.852 76.532 13.643 32.833-8.741 40.768-33.355 42.68-44.148 1.057-5.966-.59-12.154-4.479-16.808-7.03-8.412-26.163-25.819-58.996-17.078-30.833 8.208-50.89 35.482-59.602 49.886z" fill="#69da61"/><path d="m170.644 140.083c-30.834 8.209-61.807-5.478-76.532-13.643-3.93-2.179-5.874-6.243-5.345-10.312-5.878 6.888-10.374 13.577-13.449 18.663-3.138 5.189-1.439 11.563 3.865 14.505 14.725 8.164 45.698 21.851 76.532 13.643 26.243-6.987 36.573-24.109 40.641-36.214-6.16 5.517-14.477 10.368-25.712 13.358z" fill="#5ab161"/><path d="m263.208 32.465c4.799 1.544 7.212 6.465 5.491 11.197-4.776 13.136-16.724 38.579-40.534 50.22-25.353 12.396-43.758 1.286-50.846-4.44-3.915-3.162-6.262-7.936-6.364-12.976-.183-9.101 2.313-30.431 27.666-42.826 23.81-11.64 51.266-5.462 64.587-1.175z" fill="#a8ffa9"/><g fill="#85eda2"><path d="m263.208 32.465c-3.614-1.163-8.273-2.463-13.612-3.511-.042.884-.218 1.785-.543 2.679-4.776 13.135-16.724 38.579-40.534 50.22-13.788 6.741-25.514 6.525-34.49 4.009.92 1.331 2.01 2.546 3.291 3.581 7.088 5.725 25.493 16.835 50.846 4.44 23.809-11.641 35.758-37.084 40.534-50.22 1.72-4.733-.693-9.653-5.492-11.198z"/><ellipse cx="370.348" cy="458.607" rx="6.801" ry="4.959" transform="matrix(.939 -.344 .344 .939 -135.116 155.317)"/><ellipse cx="417.923" cy="430.155" rx="4.472" ry="4.467"/></g><ellipse cx="166.516" cy="330.408" fill="#5ab161" rx="7.25" ry="7.242"/><ellipse cx="223.085" cy="241.016" fill="#5ab161" rx="7.702" ry="4.811" transform="matrix(.889 -.459 .459 .889 -85.684 129.135)"/><path d="m475.413 339.377h-10.133c.533-2.279.689-4.654.422-7.026-1.999-17.749-7.461-34.635-16.233-50.188-6.973-12.362-20.123-18.661-33.292-17.51 1.172-13.401-5.363-26.409-17.534-33.259-8.242-4.638-16.967-8.382-25.983-11.161-33.543-60.822-96.094-108.399-166.406-110.044-.246-1.369-.427-2.025-.601-2.648 25.239-.11 55.153-18.76 70.565-61.145 3.271-8.997-1.434-18.61-10.56-21.546-26.309-8.467-55.901-9.137-78.883 6.42-6.332-17.293-13.371-27.381-13.726-27.886-2.549-3.607-7.542-4.467-11.15-1.918s-4.467 7.541-1.918 11.15c.084.118 7.889 11.302 13.946 30.541-9.341 11.996-10.943 24.977-10.976 32.222-29.015-4.915-67.212 10.184-94.478 55.271-2.653 4.386-3.406 9.461-2.12 14.291 2.153 8.089 7.783 10.919 14.695 14.373-44.716 39.612-73.056 96.494-73.056 148.148 0 99.699 102.488 143.053 202.4 140.671 58.141 74.991 167.144 85.308 238.3 23.615 29.638-25.696 49.163-61.087 54.979-99.653 2.601-17.247-10.848-32.718-28.258-32.718zm-39.88-49.354c7.711 13.673 12.512 28.516 14.269 44.118.314 2.791-1.865 5.236-4.679 5.236h-92.428c10.944-10.932 53.502-53.441 53.502-53.441 8.702-8.681 23.274-6.656 29.336 4.087zm-213.923 49.354c-2.79 0-4.995-2.424-4.679-5.235 1.757-15.603 6.558-30.446 14.271-44.121 6.043-10.712 20.632-12.787 29.343-4.076l6.503 6.495c3.126 3.124 8.191 3.12 11.313-.007 3.122-3.126 3.119-8.191-.007-11.313-6.729-6.722-13.216-11.454-11.754-22.086.799-5.814 4.202-10.807 9.337-13.696 8.222-4.627 16.992-8.246 26.067-10.758 11.728-3.242 23.361 5.681 23.361 17.902v75.596l-3.333-3.33c-3.126-3.121-8.19-3.118-11.314.006-3.122 3.126-3.119 8.191.006 11.314l3.313 3.31h-92.427zm173.28-64.761-.009.008-53.516 53.456c0-2.072.001-80.604.001-75.597 0-12.053 11.324-20.958 22.969-17.997 7.447 1.891 17.447 5.78 26.461 10.853 10.75 6.047 12.78 20.589 4.094 29.277zm-134.134-234.536c.482.155.594.382.425.849-10.738 29.531-27.496 41.35-36.529 45.767-13.948 6.819-25.21 5.384-33.19 2.003-6.038-3.041-12.374-5.955-12.507-12.393-.578-28.727 32.175-52.244 81.801-36.226zm-61.275 392.138c-87.029-.819-175.489-38.585-175.489-124.756 0-52.041 31.951-106.99 73.453-141.125 15.422 5.556 31.796 8.362 47.906 6.62 6.369-.692 12.379-1.034 13.648-7.381 1.071-5.294-3.355-10.218-8.86-9.507-1.268-.052-20.615 5.824-51.206-6.269-5.476-2.151-10.896-4.744-15.87-7.501-1.309-.726-1.708-2.031-.899-3.368 23.097-38.194 59.812-57.237 88.559-44.656 2.593 2.475 7.429 5.86 12.735 8.333 4.57 4.18 8.196 8.362 7.061 14.786-.972 5.484-3.944 16.002-12.938 24.831-3.153 3.095-3.201 8.16-.105 11.313 3.095 3.155 8.16 3.201 11.313.105 7.718-7.576 13.176-17.119 16.11-27.482 61.47 1.02 116.322 41.022 148.264 92.388-7.873 1.572-14.859 5.903-19.794 11.794-8.524-10.176-22.232-14.884-35.63-11.183-12.336 3.417-25.053 9.219-31.398 13.286-11.143 7.138-16.886 19.619-15.79 32.197-13.539-1.174-26.489 5.47-33.283 17.517-7.508 13.311-19.154 44.03-15.734 57.571-14.248 2.375-23.909 14.342-24.082 27.764-.12 9.065 6.165 38.343 22.029 64.723zm288.369-62.509c-10.824 71.766-72.871 126.291-147.132 126.291-73.543 0-136.198-53.798-147.133-126.29-1.167-7.747 4.974-14.333 12.438-14.333h269.39c7.487 0 13.601 6.611 12.437 14.332z" fill="#231f20"/><path d="m300.971 303.93c-2.459-3.726-7.519-4.621-11.09-2.21-4.086 2.697-4.869 8.663-1.22 12.31 6.78 6.779 17.62-2.037 12.31-10.1z" fill="#231f20"/></svg>