<svg id="Layer_1" enable-background="new 0 0 512 512" height="512" viewBox="0 0 512 512" width="512" xmlns="http://www.w3.org/2000/svg"><path d="m408.967 239.938c0 84.514-68.486 264.062-152.967 264.062s-152.967-179.548-152.967-264.062 68.486-129.669 152.967-129.669 152.967 45.156 152.967 129.669z" fill="#ff5872"/><path d="m256 504c49.001 0 92.621-60.406 120.617-127.635-9.358-3.617-20.456-2.926-28.981 2.451-14.633 9.229-19.185 27.967-24.541 44.417-4.204 12.912-9.958 25.901-20.273 34.732s-26.201 12.355-37.698 5.128c-10.366-6.516-16.353-20.669-28.516-22.07-7.328-.844-14.232 3.509-21.562 4.334-9.862 1.111-19.536-4.42-25.947-11.995-12.015-14.197-12.445-37.72-29-47.811-6.694-4.08-15.049-5.982-23.143-5.459 28.04 65.719 70.95 123.908 119.044 123.908z" fill="#ff7f90"/><path d="m310.182 117.111c-3.196.321-6.18.691-8.916 1.08-2.376-1.764-4.939-3.356-7.67-4.748-23.719-4.158-50.719-4.329-75.495.053-2.676 1.372-5.187 2.939-7.515 4.674-2.696-.381-5.629-.744-8.767-1.059-38.31 10.324-69.272 32.218-85.77 64.896 16.745 5.854 35.958 9.595 54.109 6.239 15.628-2.889 31.387 4.849 38.91 18.849 8.12 15.11 19.497 31.053 35.435 46.204 6.302 5.991 16.694 5.991 22.996 0 15.938-15.15 27.315-31.094 35.435-46.204 7.523-13.999 23.282-21.738 38.91-18.848 18.151 3.356 37.364-.385 54.109-6.239-16.5-32.679-47.461-54.573-85.771-64.897z" fill="#db4968"/><path d="m92 128.314s110.881 90.785 140.884-36.187c-1.903-.635-86.307-26.664-140.884 36.187z" fill="#69da61"/><path d="m420 128.314s-110.881 90.785-140.884-36.187c1.904-.635 86.307-26.664 140.884 36.187z" fill="#69da61"/><path d="m197.607 151.729c-6.81-20.582-26.207-35.432-49.072-35.432-17.502 0-32.972 8.701-42.32 22.013 20.845 13.168 60.57 32.542 91.392 13.419z" fill="#5ab161"/><path d="m388.366 102.392c-21.882 2.749-38.808 21.423-38.808 44.05 0 4.489.667 8.821 1.906 12.905 35.112-3.667 68.536-31.033 68.536-31.033-9.8-11.286-20.561-19.706-31.634-25.922z" fill="#5ab161"/><path d="m272.826 8h-36.522c-4.781 0-7.818 5.126-5.507 9.313 14.767 26.762 11.461 72.527 11.461 72.527h24.614s-3.305-45.765 11.461-72.527c2.31-4.187-.726-9.313-5.507-9.313z" fill="#ffe070"/><path d="m266.086 223.542c28.763-31.162 40.595-65.679 45.456-89.4 5.155-25.154-10.684-49.891-35.699-55.641-12.51-2.876-27.74-2.945-40.816.269-24.487 6.019-39.634 30.648-34.572 55.359 4.86 23.721 16.69 58.246 45.459 89.413 5.442 5.895 14.73 5.895 20.172 0z" fill="#a8ffa9"/><path d="m265.125 136.434c10.945-22.77 9.092-47.223-3.245-59.904-8.917-.535-18.21.115-26.853 2.24-24.487 6.019-39.634 30.648-34.572 55.359 2.138 10.437 5.627 22.966 11.313 36.381 18.548 4.871 41.455-9.315 53.357-34.076z" fill="#c9ffd2"/><path d="m150.161 211.893c-.113 1.913-1.163 3.627-2.183 5.249-1.79 2.85-3.58 5.699-5.371 8.549-2.102 3.347-4.296 6.79-7.559 9.02s-7.911 2.935-11.101.601c-7.115-5.206-6.101-24.791.91-29.887 5.998-4.359 25.917-3.882 25.304 6.468z" fill="#db4968"/><path d="m275.584 448.087c4.569 3.161 11.113 2.142 15.554-1.198 2.044-1.537 3.792-3.572 4.58-6.005 1.117-3.449.054-7.503-2.612-9.961-1.405-1.295-3.162-2.137-4.931-2.857-2.432-.989-4.974-1.788-7.594-1.958-4.715-.307-12.478 1.477-12.085 7.251.342 5.044 2.827 11.781 7.088 14.728z" fill="#ff7f90"/><g fill="#231f20"><path d="m142.728 257.722v14.556c0 4.418 3.582 8 8 8s8-3.582 8-8v-14.556c0-4.418-3.582-8-8-8s-8 3.582-8 8z"/><path d="m185.046 205.095c0-4.418-3.582-8-8-8s-8 3.582-8 8v14.556c0 4.418 3.582 8 8 8s8-3.582 8-8z"/><path d="m342.954 205.095c0-4.418-3.582-8-8-8s-8 3.582-8 8v14.556c0 4.418 3.582 8 8 8s8-3.582 8-8z"/><path d="m211.364 257.722c0-4.418-3.582-8-8-8s-8 3.582-8 8v14.556c0 4.418 3.582 8 8 8s8-3.582 8-8z"/><path d="m264 257.722c0-4.418-3.582-8-8-8s-8 3.582-8 8v14.556c0 4.418 3.582 8 8 8s8-3.582 8-8z"/><path d="m316.636 257.722c0-4.418-3.582-8-8-8s-8 3.582-8 8v14.556c0 4.418 3.582 8 8 8s8-3.582 8-8z"/><path d="m353.273 257.722v14.556c0 4.418 3.582 8 8 8s8-3.582 8-8v-14.556c0-4.418-3.582-8-8-8s-8 3.582-8 8z"/><path d="m177.046 320.134c-4.418 0-8 3.582-8 8v14.556c0 4.418 3.582 8 8 8s8-3.582 8-8v-14.556c0-4.418-3.582-8-8-8z"/><path d="m229.682 320.134c-4.418 0-8 3.582-8 8v14.556c0 4.418 3.582 8 8 8s8-3.582 8-8v-14.556c0-4.418-3.581-8-8-8z"/><path d="m274.318 328.134v14.556c0 4.418 3.582 8 8 8s8-3.582 8-8v-14.556c0-4.418-3.582-8-8-8s-8 3.582-8 8z"/><path d="m334.954 320.134c-4.418 0-8 3.582-8 8v14.556c0 4.418 3.582 8 8 8s8-3.582 8-8v-14.556c0-4.418-3.581-8-8-8z"/><path d="m203.364 389.547c-4.418 0-8 3.582-8 8v14.555c0 4.418 3.582 8 8 8s8-3.582 8-8v-14.555c0-4.419-3.582-8-8-8z"/><path d="m256 389.547c-4.418 0-8 3.582-8 8v14.555c0 4.418 3.582 8 8 8s8-3.582 8-8v-14.555c0-4.419-3.581-8-8-8z"/><path d="m308.636 389.547c-4.418 0-8 3.582-8 8v14.555c0 4.418 3.582 8 8 8s8-3.582 8-8v-14.555c0-4.419-3.581-8-8-8z"/><path d="m344.36 95.85c4.025.85 8.408-1.648 9.41-6.28.817-4.179-1.732-8.426-6.28-9.41-5.64-1.083-10.501 3.828-9.41 9.41.61 3.111 3.087 5.654 6.28 6.28z"/><path d="m426.041 123.068c-13.244-15.252-29.256-26.806-47.59-34.339-4.083-1.68-8.761.272-10.44 4.359-1.68 4.086.272 8.761 4.359 10.44 13.365 5.492 25.327 13.443 35.66 23.691-7.489 5.204-20.256 13.553-35.048 18.714-.092.032-.188.047-.28.08-18.519 6.805-38.725 9.105-55.243-1.833 4.493-17.939 4.936-32.922-5.768-49.547 1.934-.134 3.868-.233 5.797-.296 4.416-.146 7.877-3.843 7.732-8.259-.146-4.416-3.822-7.871-8.259-7.732-6.328.209-12.7.785-18.997 1.675-5.997-4.414-12.875-7.604-20.327-9.318-.959-.22-1.93-.421-2.908-.611.571-14.287 2.845-34.842 10.61-48.915 5.245-9.507-1.627-21.177-12.514-21.177h-36.522c-10.899 0-17.751 11.682-12.511 21.178 7.866 14.256 10.101 35.132 10.633 49.524-.436.1-.876.193-1.308.299-7.174 1.763-13.667 4.863-19.276 8.977-14.32-2.006-34.795-3.086-56.749 1.542-28.471 6.001-52.403 19.981-71.132 41.549-2.959 3.408-2.51 8.583.973 11.435.673.551 15.559 12.641 36.142 22.092-18.383 22.626-28.041 51.193-28.041 83.343-.001 88.518 70.575 272.061 160.966 272.061 61.708 0 112.38-83.786 139.225-162.197 1.431-4.18-.797-8.729-4.978-10.16s-8.729.797-10.16 4.978c-18.898 55.201-65.484 151.379-124.087 151.379-77.967 0-144.967-174.564-144.967-256.062 0-30.738 9.345-56.674 27.788-77.171 20.478 6.56 41.799 7.524 60.399-2.727 9.503 27.925 17.725 36.137 29.897 55.923 1.332 2.165 8.036 9.881 10.918 13.004 8.602 9.32 23.328 9.318 31.928 0 18.449-19.987 32.158-43.356 40.823-68.923 18.755 10.327 40.158 9.212 60.392 2.722 18.443 20.498 27.788 46.433 27.788 77.171 0 18.52-3.396 41.84-9.821 67.438-1.076 4.285 1.526 8.631 5.812 9.707 4.285 1.077 8.631-1.526 9.707-5.812 6.74-26.853 10.302-51.52 10.302-71.333 0-32.15-9.658-60.717-28.041-83.343 20.583-9.452 35.469-21.541 36.142-22.092 3.493-2.858 3.925-8.035.974-11.434zm-175.683-54.564c-.716-16.681-3.428-36.83-11.221-52.504h30.855c-7.78 15.652-10.491 35.777-11.215 52.392-2.8-.07-6.149-.007-8.419.112zm-50.212 26.105c-13.083 20.475-7.525 41.242-7.525 41.142.574 2.801 1.536 6.893 1.921 8.429-26.671 17.584-64.418 1.142-90.565-16.972 30.519-30.301 69.006-34.497 96.169-32.599zm51.647 123.506c-3.239-3.509-6.52-7.389-9.358-11.026-14.907-24.866-20.511-27.533-29.666-57.139-1.79-5.792-4.771-16.701-5.198-22.76-1.242-18.519 10.653-36.053 29.366-40.653 11.705-2.877 25.731-2.857 37.114-.241 19.19 4.411 32.609 23.043 30.153 43.105-2.373 19.569-14.691 51.198-32.668 75.104-3.724 4.965-7.644 9.617-11.329 13.61-2.268 2.458-6.128 2.477-8.414 0z"/></g></svg>