<svg id="Layer_1" enable-background="new 0 0 512.019 512.019" height="512" viewBox="0 0 512.019 512.019" width="512" xmlns="http://www.w3.org/2000/svg"><path d="m324.193 341.35c0 83.709-65.408 151.568-146.092 151.568s-146.091-67.859-146.091-151.568c0-62.209 36.124-164.54 87.797-213 17.858-16.748 37.573-4.01 58.295-4.01 21.708 0 42.311-11.733 60.831 6.443 50.314 49.382 85.26 149.381 85.26 210.567z" fill="#69da61"/><path d="m48.632 367.769c0-40.686 17.239-112.66 40.599-147.248 3.557-5.267 17.449-4.757 20.425-14.05 2.741-8.559-.738-17.749 3.886-25.559 6.187-10.45 14.857-18.612 22.887-26.143 17.858-16.748 37.573-4.01 58.295-4.01 21.708 0 42.311-11.733 60.831 6.444 7.97 7.822 15.553 16.918 22.675 26.925-11.501-20.569-24.755-39.073-39.297-53.344-18.52-18.176-39.123-6.443-60.831-6.443-20.722 0-40.437-12.738-58.295 4.01-51.673 48.46-87.797 150.79-87.797 213 0 36.188 12.232 69.409 32.63 95.471-10.233-20.709-16.008-44.182-16.008-69.053z" fill="#87eda8"/><path d="m189.14 355.714c0 9.704-8.649 17.663-6.978 26.885 7.025 38.751 28.155 72.597 57.885 96.046 49.712-24.185 84.145-76.564 84.145-137.295 0-38.049-13.517-91.105-35.836-137.667-54.804 18.143-96.364 65.311-106.408 123.269-1.532 8.844 7.192 19.481 7.192 28.762z" fill="#5ab161"/><ellipse cx="344.213" cy="361.174" fill="#ffe070" rx="135.797" ry="142.826"/><ellipse cx="344.213" cy="361.174" fill="#ff7f90" rx="108.421" ry="114.033"/><ellipse cx="344.213" cy="361.174" fill="#ff5872" rx="58.93" ry="77.847"/><ellipse cx="100.989" cy="232.857" fill="#87eda8" rx="8.476" ry="8.466"/><path d="m132.309 177.33c1.448 1.843-.37 5.681-4.06 8.573s-7.854 3.743-9.302 1.9.37-5.681 4.06-8.573 7.855-3.743 9.302-1.9z" fill="#87eda8"/><ellipse cx="169.112" cy="354.944" fill="#5ab161" rx="9.849" ry="8.651" transform="matrix(.108 -.994 .994 .108 -202.05 484.649)"/><path d="m95.449 24.716c-4.896 2.898-6.322 8.918-3.243 13.697 8.545 13.268 28.066 38.293 57.191 45.164 31.013 7.316 48.495-9.51 54.865-17.582 3.519-4.459 4.908-10.301 3.758-15.873-2.076-10.065-10.161-32.921-41.174-40.237-29.125-6.87-57.805 6.785-71.397 14.831z" fill="#69da61"/><path d="m173.755 64.736c-29.125-6.87-48.646-31.896-57.191-45.164-.897-1.392-1.4-2.89-1.558-4.384-7.984 3.103-14.727 6.668-19.557 9.528-4.896 2.898-6.322 8.918-3.243 13.697 8.545 13.268 28.066 38.293 57.191 45.164 31.013 7.316 48.495-9.51 54.865-17.582.596-.756 1.107-1.561 1.579-2.386-8.432 3.007-19.061 4.2-32.086 1.127z" fill="#5ab161"/><g fill="#231f20"><path d="m302.987 216.675c-16.079-37.899-36.681-70.234-58.451-91.601-19.59-19.227-41.348-10.925-59.872-9.088.491-9.5 1.638-18.727 3.44-27.551 11.348-5.048 18.725-12.781 22.438-17.485 4.983-6.316 6.942-14.549 5.313-22.444-.707-3.429-2.072-8.345-4.654-13.75 5.788-7.707 12.514-14.573 20.058-20.441 3.487-2.713 4.115-7.739 1.402-11.227-2.712-3.487-7.738-4.114-11.227-1.402-7.208 5.607-13.755 12.011-19.579 19.091-7.111-7.843-17.627-15.01-33.173-18.678-31.563-7.443-61.984 6.66-77.309 15.733-8.797 5.207-11.438 16.305-5.894 24.913 25.15 39.05 58.704 53.221 85.534 50.283-1.177 7.303-1.96 14.814-2.344 22.479-16.959-2.621-36.366-9.844-54.336 7.009-52.016 48.78-90.323 152.378-90.323 218.834 0 87.986 69.125 159.568 154.092 159.568 27.172 0 53.676-7.375 77.04-21.365 93.21 77.307 232.868 8.091 232.868-118.379 0-100.534-92.736-173.519-185.023-144.499zm-204.056-182.594c-.636-.988-.375-1.909.593-2.481 30.875-18.276 54.281-16.569 65.485-13.929 20.405 4.814 31.86 17.985 35.176 34.067.658 3.192-.104 6.638-2.203 9.3-20.051 25.405-66.178 24.082-99.051-26.957zm245.282 461.919c-41.971 0-79.288-21.35-102.632-54.478-2.835-4.022-7.866-4.226-11.203-1.892-3.785 2.647-4.271 7.713-1.877 11.109 4.297 6.099 9.574 12.436 14.366 17.43-19.866 10.985-42.059 16.749-64.766 16.749-76.144 0-138.092-64.404-138.092-143.568 0-60.162 35.019-160.038 85.27-207.164 8.957-8.398 17.745-7.205 32.512-4.373 16.686 3.201 21.932 3.355 39.949.516 15.659-2.463 25.755-3.485 35.589 6.166 20.191 19.816 39.451 50.095 54.674 85.822-71.966 32.071-106.166 118.898-77.447 194.6 2.138 5.637 8.573 6.422 12.442 3.487 2.925-2.219 3.686-6.084 2.518-9.162-33.273-87.703 27.782-184.893 118.696-184.893 70.467 0 127.797 60.482 127.797 134.826s-57.329 134.825-127.796 134.825z"/><path d="m296.164 421.049c26.192 34.601 69.808 34.729 96.097 0 40.651-53.7 11.543-145.722-48.048-145.722-59.438 0-88.808 91.878-48.049 145.722zm48.049-129.722c28.083 0 50.93 31.333 50.93 69.847s-22.847 69.848-50.93 69.848-50.93-31.334-50.93-69.848 22.847-69.847 50.93-69.847z"/><path d="m309.065 244.802c-4.194 1.39-6.467 5.917-5.077 10.11 1.391 4.195 5.918 6.469 10.111 5.077 64.689-21.444 130.534 29.846 130.534 101.185 0 58.467-45.049 106.033-100.421 106.033s-100.421-47.566-100.421-106.033c0-24.568 8.141-48.517 22.923-67.433 2.72-3.481 2.104-8.509-1.378-11.229-3.481-2.721-8.509-2.105-11.229 1.378-16.97 21.715-26.316 49.162-26.316 77.284 0 67.289 52.226 122.033 116.421 122.033s116.421-54.744 116.421-122.033c.001-82.258-76.563-141.234-151.568-116.372z"/><path d="m327.76 322.84c3.777-.738 6.44-4.086 6.44-7.84 0-4.374-3.58-8-8-8-4.357 0-8 3.524-8 8 0 5.079 4.7 8.871 9.56 7.84z"/><path d="m365.959 322.01c4.26-1.777 5.956-6.538 4.33-10.44-1.648-4.027-6.276-6.034-10.45-4.329-5.289 2.195-6.602 9.029-2.59 13.039 2.251 2.25 5.657 3.003 8.71 1.73z"/><path d="m367.45 339.6c-.976 5.074 2.915 9.57 7.85 9.57 2.1 0 4.16-.86 5.66-2.351 4.526-4.524 2.126-12.273-4.1-13.5-4.088-.833-8.419 1.683-9.41 6.281z"/><path d="m379.749 358.42c-2.948-.601-6.261.461-8.22 3.399-2.987 4.481-.799 10.041 3.6 11.83 4.661 1.944 9.939-.922 10.9-5.819.879-4.591-2.191-8.612-6.28-9.41z"/><path d="m375.76 385.41c-4.049-4.049-10.875-2.63-13.05 2.59-1.287 3.16-.44 6.535 1.73 8.72 2.695 2.695 6.959 3.108 10.1.99 4.281-2.823 4.704-8.912 1.22-12.3z"/><path d="m360.169 418.06c1.813-1.813 2.722-4.51 2.19-7.22-.998-4.633-5.354-7.107-9.41-6.28-3.754.74-6.44 4.041-6.44 7.84.001 7.158 8.678 10.643 13.66 5.66z"/><path d="m312.57 346.16c4.397 0 8-3.565 8-8 0-3.736-2.65-7.108-6.44-7.841-3.019-.615-6.326.609-8.21 3.4-3.572 5.423.359 12.441 6.65 12.441z"/><path d="m310.68 370.26c2.11 0 4.17-.85 5.65-2.34 5.641-5.641.428-15.031-7.22-13.5-2.972.581-5.544 2.859-6.28 6.28-.964 5.003 2.841 9.56 7.85 9.56z"/><path d="m322.57 386.81c0-3.614-2.444-6.994-6.43-7.85-2.954-.591-6.267.546-8.22 3.41-3.564 5.473.405 12.439 6.65 12.439 4.431.001 8-3.605 8-7.999z"/><path d="m326.64 401.479c-5.523 1.089-8.277 7.46-5.09 12.29 2.134 3.174 6.142 4.398 9.71 2.94 4.086-1.704 6.012-6.33 4.33-10.45-1.477-3.551-5.271-5.53-8.95-4.78z"/><path d="m277.129 272.859c3.116 3.116 8.203 3.117 11.32 0 2.27-2.328 2.985-5.7 1.73-8.72-1.978-4.737-7.751-6.34-11.83-3.59-4.104 2.707-4.855 8.68-1.22 12.31z"/></g></svg>