<svg id="Layer_1" enable-background="new 0 0 511.998 511.998" height="512" viewBox="0 0 511.998 511.998" width="512" xmlns="http://www.w3.org/2000/svg"><path d="m111.332 83.215c3.647 46.309-49.402 84.806-6.719 110.816 9.673 5.895 22.07 4.908 30.701-2.445 38.079-32.441-20.335-62.063-23.982-108.371z" fill="#a8ffa9"/><path d="m62.411 197.86c16.283 43.472-24.059 95.261 24.126 108.339 10.92 2.964 22.558-1.444 28.82-10.916 27.631-41.793-36.663-53.951-52.946-97.423z" fill="#69da61"/><path d="m63.709 320.443c35.105 30.197 24.582 95.125 73.069 83.23 10.989-2.696 19.073-12.198 20.019-23.532 4.177-50.011-57.983-29.501-93.088-59.698z" fill="#a8ffa9"/><path d="m323.873 83.215c-3.647 46.309 49.402 84.806 6.719 110.816-9.673 5.895-22.07 4.908-30.701-2.445-38.079-32.441 20.334-62.063 23.982-108.371z" fill="#a8ffa9"/><path d="m372.794 197.86c-16.283 43.472 24.059 95.261-24.126 108.339-10.92 2.964-22.558-1.444-28.82-10.916-27.632-41.793 36.662-53.951 52.946-97.423z" fill="#69da61"/><path d="m141.595 38.422c-2.244 15.47-4.846 48.758 9.429 71.152 25.691 40.301 80.527 7.622 57.705-34.389-12.681-23.344-42.969-37.031-57.542-42.479-4.458-1.667-8.905.984-9.592 5.716z" fill="#69da61"/><path d="m293.609 38.422c2.244 15.47 4.846 48.758-9.429 71.152-25.691 40.301-80.527 7.622-57.705-34.389 12.681-23.344 42.969-37.031 57.542-42.479 4.458-1.667 8.906.984 9.592 5.716z" fill="#69da61"/><path d="m344.129 265.937c0 96.23-56.648 147.338-126.527 147.338s-126.526-51.108-126.526-147.338 56.648-174.24 126.527-174.24 126.526 78.01 126.526 174.24z" fill="#ff5872"/><path d="m344.129 265.937c0-16.912-1.756-33.258-5.02-48.72-56.542 1.473-105.113 50.91-127.636 111.987-3.377 9.159 2.804 23.897 1.271 33.574-4.087 25.795-14.671 29.334-14.671 39.443 0 3.291.095 6.524.264 9.712 6.282.893 12.715 1.342 19.265 1.342 69.879 0 126.527-51.108 126.527-147.338z" fill="#db4968"/><path d="m118.327 283.245c0-96.23 56.648-174.24 126.527-174.24 13.591 0 26.678 2.963 38.948 8.425-19.259-16.316-41.929-25.733-66.2-25.733-69.879 0-126.527 78.01-126.527 174.24 0 70.455 30.368 116.717 74.059 136.448-28.555-24.452-46.807-64.525-46.807-119.14z" fill="#ff7f90"/><path d="m217.602 200.507c0 42.023-50.573 72.93-13.93 99.451 8.305 6.011 19.554 6.011 27.859 0 36.645-26.522-13.929-57.429-13.929-99.451z" fill="#a8ffa9"/><path d="m146.126 157.042c6.453 36.427-32.64 71.07 3.196 88.37 8.122 3.921 17.873 2.174 24.149-4.326 27.692-28.678-20.892-47.617-27.345-84.044z" fill="#a8ffa9"/><path d="m289.078 157.042c-6.453 36.427 32.64 71.07-3.196 88.37-8.122 3.921-17.873 2.174-24.149-4.326-27.692-28.678 20.893-47.617 27.345-84.044z" fill="#a8ffa9"/><path d="m145.042 281.599c9.882 34.118-23.909 71.236 12.078 84.055 8.156 2.905 17.289.23 22.618-6.625 23.514-30.245-24.814-43.313-34.696-77.43z" fill="#a8ffa9"/><path d="m210.169 11.717c-13.031 16.209-38.516 52.607-37.28 88.048 2.223 63.781 87.203 63.781 89.426 0 1.235-35.441-24.25-71.839-37.28-88.048-3.986-4.959-10.879-4.959-14.866 0z" fill="#a8ffa9"/><path d="m210.391 11.47c-.072.085-.151.159-.221.247-13.031 16.209-38.516 52.607-37.28 88.048.731 20.983 10.421 35.06 23.172 42.237 25.949-24.685 33.307-88.291 14.329-130.532z" fill="#c9ffd2"/><path d="m449.91 396.926c0 68.065-48.446 107.071-108.208 107.071s-108.208-39.006-108.208-107.071 48.446-139.415 108.208-139.415 108.208 71.35 108.208 139.415z" fill="#ff7f90"/><path d="m417.115 396.035c0 47.437-33.764 70.611-75.413 70.611s-75.413-23.174-75.413-70.611 33.764-101.173 75.413-101.173 75.413 53.737 75.413 101.173z" fill="#e6e9df"/><path d="m398.416 392.246c0 35.675-25.392 53.103-56.714 53.103s-56.714-17.428-56.714-53.103 25.392-76.086 56.714-76.086 56.714 40.412 56.714 76.086z" fill="#fff"/><path d="m205.014 369.03c-.228 1.758-.53 3.666-1.826 4.875-1.647 1.536-4.456 1.284-6.186-.171-1.726-1.452-2.491-3.79-2.58-6.044-.162-4.099 2.529-7.619 6.831-7.889 5.912-.371 4.296 5.096 3.761 9.229z" fill="#db4968"/><g fill="#231f20"><path d="m252.634 273.841c-2.568-23.243-27.032-46.285-27.032-73.334 0-4.418-3.582-8-8-8s-8 3.582-8 8c0 27.021-24.468 50.133-27.032 73.334-1.426 12.909 3.942 23.572 16.412 32.597 11.135 8.06 26.101 8.063 37.24 0 12.47-9.025 17.839-19.688 16.412-32.597zm-25.793 19.635c-5.527 4.001-12.952 4-18.478 0-14.979-10.841-11.871-20.065.83-43.662 2.826-5.249 5.789-10.756 8.409-16.556 2.62 5.8 5.583 11.307 8.409 16.556 12.701 23.597 15.809 32.822.83 43.662z"/><path d="m179.227 246.643c9.545-9.885 12.723-20.56 9.445-31.728-5.896-20.096-30.559-36.073-34.668-59.269-.771-4.351-4.916-7.254-9.273-6.481-4.337.768-7.255 4.908-6.482 9.272 4.095 23.121-13.542 46.889-12.184 67.66 1.591 24.359 34.302 40.078 53.162 20.546zm-27.667-58.964c16.414 23.18 30.963 32.518 16.157 47.85-3.892 4.031-9.886 5.107-14.917 2.679-18.823-9.088-9.062-21.656-1.24-50.529z"/><path d="m309.14 226.098c.617-9.442-2.625-19.285-6.057-29.705-9.935-30.165-6.003-34.458-6.003-39.359 0-3.807-2.727-7.182-6.606-7.868-4.351-.772-8.502 2.132-9.273 6.481-4.095 23.114-28.809 39.302-34.668 59.269-3.277 11.168-.099 21.843 9.446 31.729 18.701 19.365 51.553 4.056 53.161-20.547zm-25.496-38.419c7.4 27.306 17.937 41.27-1.24 50.528-5.03 2.426-11.024 1.352-14.917-2.678-14.825-15.353-.231-24.706 16.157-47.85z"/><path d="m152.726 279.373c-1.23-4.244-5.667-6.686-9.91-5.459-4.215 1.221-6.695 5.637-5.458 9.91 8.765 30.262-26.129 73.975 17.078 89.365 11.36 4.047 24.095.427 31.619-9.25 18.406-23.675 1.516-40.86-12.057-54.669-8.792-8.944-17.882-18.193-21.272-29.897zm20.696 74.746c-3.223 4.145-8.695 5.751-13.618 3.998-18.454-6.573-10.772-19.503-6.235-47.117 18.219 20.438 32.015 27.477 19.853 43.119z"/><path d="m380.198 258.601c-2.306-19.197-6.745-39.697.087-57.937 1.55-4.138-.548-8.748-4.686-10.298-4.136-1.546-8.748.548-10.298 4.687-.806 1.426-2.842 10.568-17.47 25.12-1.587-8.331-3.601-16.452-6.012-24.316 36.729-30.489-13.19-71.086-9.971-112.012.347-4.404-2.942-8.259-7.347-8.606-4.402-.35-8.256 2.941-8.603 7.348-1.117 14.184-8.19 26.906-15.905 39.12-2.813-2.95-5.729-5.741-8.726-8.393 15.007-24.108 12.886-57.934 10.26-76.041-1.419-9.785-11.087-15.514-20.311-12.061-7.467 2.791-17.821 7.245-28.256 13.587-7.2-13.033-15.331-24.186-21.689-32.096-7.192-8.945-20.153-8.932-27.335 0-6.359 7.91-14.489 19.062-21.689 32.096-10.435-6.342-20.79-10.796-28.256-13.587-9.224-3.451-18.892 2.274-20.311 12.061-2.626 18.103-4.746 51.917 10.249 76.023-2.99 2.644-5.898 5.448-8.719 8.405-7.713-12.212-14.784-24.933-15.901-39.115-.347-4.404-4.199-7.681-8.603-7.348-4.405.348-7.694 4.199-7.347 8.604v.011c3.21 40.887-46.649 81.527-9.992 111.988-2.426 7.903-4.435 16.021-6.011 24.313-14.401-14.331-17.507-25.2-17.451-25.1-1.55-4.139-6.162-6.234-10.298-4.687-4.137 1.55-6.235 6.16-4.686 10.298 14.954 39.928-26.282 98.107 29.522 113.255.127 0 1.363.434 3.989.818.937 3.997 1.994 7.907 3.174 11.725-8.227-2.725-16.095-6.423-22.677-12.085-3.349-2.88-8.4-2.502-11.282.849-2.881 3.35-2.501 8.401.848 11.282 30.278 26.166 24.416 86.635 67.244 86.635 8.975 0 18.866-2.269 26.401-8.439 23.224 13.045 49.546 17.974 75.392 16.223 10.135 57.658 57.315 91.071 114.171 91.071 65.49 0 116.208-43.81 116.208-115.071-.001-56.046-31.69-115.989-77.713-138.327zm-29.487-19.21c3.436-3.076 6.849-6.258 10.112-9.617.397 7.566 1.395 15.016 2.422 22.537-3.77-.985-7.689-1.737-11.621-2.203-.246-3.876-.652-8.279-.913-10.717zm-29.52-122.159c9.144 26.479 24.936 47.541 14.728 61.755-6.218-15.575-14.72-31.1-25.057-44.566 3.499-5.44 7.105-11.145 10.329-17.189zm-35.357-76.661c1.811 13.101 4.201 42.78-7.258 62.811-2.687-1.845-5.424-3.589-8.223-5.198.175-15.378-4.139-30.99-10.262-44.992 9.312-5.805 18.749-9.954 25.743-12.621zm-69.43-23.842c.759-.944 1.639-.942 2.396 0 49.024 60.981 43.313 113.75 6.802 121.977v-55.491c0-4.418-3.582-8-8-8s-8 3.582-8 8v55.491c-18.303-4.124-28.043-19.875-28.718-39.22-.996-28.536 17.784-60.694 35.52-82.757zm-67.032 23.842c6.984 2.663 16.424 6.812 25.741 12.62-6.116 13.987-10.436 29.602-10.262 44.994-2.794 1.606-5.537 3.339-8.229 5.186-11.444-20.017-9.066-49.663-7.25-62.8zm-50.083 138.42c-10.204-14.206 5.598-35.329 14.725-61.759 3.224 6.043 6.829 11.747 10.329 17.186-10.48 13.664-18.88 29.104-25.054 44.573zm-14.095 118.419c-24.625-8.742-12.593-33.757-10.813-67.638 3.264 3.361 6.678 6.543 10.114 9.619-2.032 18.913-1.925 39.246.699 58.019zm52.293 97.64c-.843.348-1.716.634-2.615.854-29.328 7.195-29.8-20.909-45.397-53.32 3.045.927 6.105 1.746 9.149 2.497 9.049 19.998 21.888 36.821 38.863 49.969zm204.215 100.948c-56.955 0-99.476-36.802-100.198-97.469-.052-4.327-3.527-7.852-7.828-7.896-4.788-.049-8.222 3.767-8.171 8.087.025 2.122.096 4.223.21 6.303-153.525 9.552-160.895-221.275-58.609-289.406 13.968 53.45 87.093 53.154 100.99.008 33.319 22.231 62.968 69.454 67.462 134.115-6.497.489-13.529 1.83-20.611 4.159-35.332 11.777-61.629 43.821-75.96 77.884-1.713 4.072.199 8.763 4.271 10.477 4.073 1.715 8.763-.2 10.477-4.271 32.66-77.629 107.342-99.76 158.06-31.522 19.138 25.749 30.114 58.72 30.114 90.46.001 62.187-43.33 99.071-100.207 99.071z"/><path d="m401.566 323.052c-33.977-48.21-85.693-48.293-119.729 0-14.746 20.922-23.549 48.205-23.549 72.983 0 47.755 32.742 78.611 83.413 78.611s83.413-30.856 83.413-78.611c.001-24.778-8.803-52.062-23.548-72.983zm-11.752 120.009c-31.699 27.229-115.525 23.853-115.525-47.026 0-42.201 30.07-93.172 67.413-93.172 51.873 0 93.201 101.465 48.112 140.198z"/><path d="m329.499 342.778c7.716-7.716-4.066-18.595-11.31-11.311-3.158 3.158-3.081 8.23 0 11.311 3.065 3.062 8.132 3.17 11.31 0z"/><path d="m367.64 340.538c2.659-2.642 3.133-6.914.99-10.09-2.798-4.249-8.794-4.735-12.31-1.221-3.284 3.378-2.944 8.366 0 11.311 3.066 3.066 8.125 3.195 11.32 0z"/><path d="m329.12 364.338c1.393 6.462 9.083 8.507 13.5 4.09 6.71-6.533-2.013-17.746-10.09-12.3-2.66 1.753-4.039 5.009-3.41 8.21z"/><path d="m376.709 383.678c4.368 0 8-3.556 8-8 0-5.137-4.718-8.819-9.56-7.85-9.536 2.046-7.928 15.85 1.56 15.85z"/><path d="m340.62 391.357c-4.391-.849-8.562 2.003-9.4 6.29-1.035 4.789 2.729 9.561 7.84 9.561 4.325 0 8-3.511 8-8 0-3.647-2.453-6.988-6.44-7.851z"/><path d="m300.359 379.658c3.723-.734 6.43-4.04 6.43-7.841 0-5.135-4.718-8.817-9.56-7.85-3.454.748-5.706 3.344-6.28 6.28-1.074 5.578 3.719 10.501 9.41 9.411z"/><path d="m299.649 397.267c-3.733.737-6.43 4.029-6.43 7.84 0 5.159 4.776 8.847 9.56 7.841 4.169-.822 7.153-4.871 6.28-9.4-.85-4.334-5.12-7.155-9.41-6.281z"/><path d="m332.499 427.158c-3.115-2.1-7.383-1.717-10.1 1-3.141 3.141-3.091 8.217 0 11.31 3.173 3.173 8.337 3.058 11.31 0 3.694-3.694 2.83-9.647-1.21-12.31z"/><path d="m370.859 424.928c-6.518-6.519-17.888 1.733-12.31 10.101 4.57 6.856 14.65 3.134 14.65-4.45.001-2.197-.893-4.205-2.34-5.651z"/><path d="m388.779 397.458c-3.644-3.649-9.627-2.871-12.31 1.21-2.79 4.227-1.071 9.886 3.59 11.83 3.587 1.466 7.638.196 9.71-2.95 2.209-3.272 1.576-7.599-.99-10.09z"/><path d="m241.189 359.147c-3.906-2.536-8.708-1.319-11.09 2.21-2.8 4.253-1.058 9.901 3.59 11.83 5.876 2.451 12.219-2.74 10.9-8.949-.197-1.011-1.71-3.977-3.4-5.091z"/></g></svg>