<svg id="Layer_1" enable-background="new 0 0 511.965 511.965" height="512" viewBox="0 0 511.965 511.965" width="512" xmlns="http://www.w3.org/2000/svg"><path d="m181.218 490.057c12.466-7.324 27.92-7.324 40.386 0 12.942 7.604 29.11 7.258 41.638-1.009 164.421-108.499 153.619-368.524-52.014-362.848-6.539.181-13.095.181-19.634 0-205.633-5.677-216.436 254.348-52.014 362.848 12.528 8.267 28.696 8.613 41.638 1.009z" fill="#69da61"/><path d="m211.228 126.2c-6.539.181-13.095.181-19.634 0-205.633-5.676-216.436 254.349-52.014 362.848 5.677 3.746 12.102 5.848 18.635 6.339-27.053-20.583-48.678-45.46-64.771-72.369-10.702-17.896-15.049-39.46-10.684-60.81.752-3.679 1.674-7.413 1.243-11.143-.716-6.192-4.976-11.282-8.58-16.368-8.138-11.484-17.253-21.634-16.523-43.122 2.806-82.532 58.203-151.915 165.539-148.952 6.539.18 13.095.18 19.634 0 26.16-.722 49.159 2.864 69.053 9.883-25.927-17.505-59.833-27.467-101.898-26.306z" fill="#87eda8"/><path d="m365.913 220.751c-16.939 2.119-35.795-.677-50.394-9.486-15.721-9.486-35.292-10.132-51.604-1.703-61.455 31.754-83.405 103.705-67.781 175.41 2.404 11.03 1.468 20.748-2.127 30.084-2.322 6.031-5.821 12.046-5.125 18.472.68 6.287 4.847 12.555 10.747 14.828 46.368 17.865 48.523 25.945 53.65 45.404 3.477-1.076 6.834-2.647 9.964-4.712 98.447-64.964 134.068-184.248 102.67-268.297z" fill="#5ab161"/><path d="m324.372 153.347c-27.076-29.148-64.705-46.373-113.155-44.653-6.535.232-13.077.232-19.612 0-48.45-1.72-86.078 15.505-113.155 44.653-.22.836-.436 1.671-.637 2.503 21.905 23.077 46.67 12.302 58.791 4.487 4.278-2.758 9.994-1.196 12.29 3.347.529 1.047 1.081 2.131 1.655 3.235 7.718 14.833 28.467 16.111 37.911 2.312 1.966-2.873 3.729-5.834 5.309-8.852 3.21-6.131 12.074-6.131 15.284 0 1.58 3.018 3.343 5.98 5.309 8.852 9.444 13.798 30.193 12.521 37.911-2.312.574-1.104 1.126-2.189 1.655-3.235 2.296-4.543 8.012-6.105 12.29-3.347 12.121 7.815 36.886 18.59 58.791-4.487-.201-.832-.417-1.667-.637-2.503z" fill="#a8ffa9"/><path d="m173.054 31.967c-22.168-4.489-32.662-9.947-39-17.368-5.226-6.119-13.704-8.323-21.127-5.216-10.585 4.432-14.639 17.501-8.149 26.965 7.363 10.735 20.528 21.449 44.037 24.26 45.008 5.381 36.202 48.045 36.202 48.045h39.91c.002 0 11.971-63.758-51.873-76.686z" fill="#69da61"/><path d="m427.969 241.612c-13.063-6.75-28.734-6.232-41.324 1.364-17.982 10.85-45.27 10.854-63.258 0-12.589-7.596-28.261-8.113-41.324-1.364-86.919 44.911-75.198 190.249 26.777 257.541 9.356 6.174 21.43 6.432 31.095.754 9.309-5.47 20.851-5.47 30.16 0 9.665 5.679 21.739 5.42 31.095-.754 101.977-67.292 113.698-212.63 26.779-257.541z" fill="#93e39c"/><path d="m416.193 262.408c-10.954-5.66-24.096-5.226-34.653 1.144-15.079 9.099-37.962 9.102-53.047 0-10.557-6.37-23.699-6.804-34.653-1.144-72.888 37.661-63.059 159.538 22.455 215.968 7.846 5.177 17.971 5.394 26.076.632 7.807-4.587 17.485-4.587 25.292 0 8.105 4.762 18.23 4.545 26.076-.632 85.513-56.43 95.342-178.307 22.454-215.968z" fill="#a8ffa9"/><path d="m426.483 371.124c0 37.634-31.997 68.142-71.466 68.142s-71.466-30.508-71.466-68.142 31.997-80.33 71.466-80.33 71.466 42.696 71.466 80.33z" fill="#e6e9df"/><path d="m405.581 369.341c0 26.627-22.639 48.213-50.565 48.213s-50.565-21.586-50.565-48.213 22.639-56.837 50.565-56.837 50.565 30.21 50.565 56.837z" fill="#fff"/><path d="m184.886 400.43c-2.055 5.429-8.422 8.827-14.077 7.511-12.07-2.809-12.411-25.282-1.43-29.319 12.181-4.48 18.995 12.594 15.507 21.808z" fill="#5ab161"/><path d="m67.997 289.234c1.043 6.717 6.268 12.063 12.225 16.047 11.473 7.675 16.018-14.838 15.475-19.792-.775-7.074-8.595-14.085-16.348-14.009-8.973.088-12.424 10.847-11.352 17.754z" fill="#87eda8"/><g fill="#231f20"><path d="m493.919 338.229c-2.488-46.738-25.189-84.536-62.283-103.702-15.431-7.974-34.256-7.351-49.129 1.622-.977.59-1.995 1.142-3.047 1.662-7.871-32.326-23.846-59.743-46.682-80.1.544-2.304-.008-3.848-.676-6.379-.335-1.272-.979-2.442-1.875-3.407-25.34-27.278-58.391-43.144-96.526-46.596.336-6.989.033-17.336-3.079-28.299-5.158-18.171-19.059-41.402-55.986-48.88-23.365-4.731-30.555-10.098-34.505-14.723-7.557-8.849-19.733-11.822-30.299-7.4-15.319 6.412-20.982 25.27-11.656 38.868 7.409 10.803 22.043 24.374 49.685 27.679 11.229 1.343 19.377 5.402 24.219 12.064 4.784 6.583 5.679 14.66 5.621 20.124-41.765 1.714-77.893 17.855-105.117 47.162-1.634 1.76-1.931 3.494-2.552 6.072-.301 1.246-.283 2.521.005 3.73-35.638 31.837-54.519 81.324-51.998 137.148 3.429 75.962 45.45 153.574 117.13 200.874 14.933 9.854 34.597 10.336 50.097 1.229 9.956-5.85 22.325-5.85 32.28 0 7.401 4.349 15.749 6.511 24.08 6.51 16.135-.001 25.618-6.914 38.501-16.515 7.586 6.887 15.709 13.21 24.302 18.881 11.793 7.781 27.318 8.164 39.554.974 6.803-3.996 15.254-3.996 22.055 0 12.099 7.11 27.628 6.896 39.554-.974 57.073-37.662 91.743-103.458 88.327-167.624zm-247.137-178.13c-.515 1.019-1.052 2.074-1.611 3.15-4.925 9.465-18.177 10.305-24.212 1.486-1.726-2.521-3.349-5.228-4.823-8.044-6.197-11.838-23.259-11.842-29.459 0-3.978 7.597-7.499 13.611-15.466 14.153-.612.042-1.231.044-1.856.006-8.385-.505-11.231-6.606-13.325-10.752-3.537-6.999-11.531-10.606-19.178-8.503-6.377 1.752-26.936 20.142-48.529 3.067 45.53-45.197 98.774-37.086 123.173-37.951 40.047-1.415 75.227 10.388 102.994 37.95-13.731 10.871-29.397 8.35-43.942-1.026-8.057-5.195-19.24-2.494-23.766 6.464zm-97.021-107.412c-17.417-2.083-30.333-9.095-38.389-20.842-3.617-5.273-1.281-12.582 4.64-15.061 4.125-1.726 8.93-.509 11.954 3.033 8.22 9.624 20.822 15.421 43.496 20.013 23.112 4.68 37.79 17.153 43.627 37.072 2.678 9.14 2.903 17.949 2.625 23.703-1.345.001 6.596.009-24.017.033.125-25.173-14.27-44.404-43.936-47.951zm247.019 439.811c-6.737 4.446-15.623 4.655-22.636.533-11.801-6.933-26.463-6.934-38.266 0-7.014 4.122-15.9 3.912-22.636-.533-52.051-34.347-81.518-91.829-81.364-146.155.013-4.418-3.559-8.01-7.978-8.022-4.467-.013-8.01 3.559-8.022 7.978-.126 44.219 17.593 91.754 52.701 129.323-3.207 2.342-6.466 4.605-9.748 6.771-9.877 6.519-22.901 6.829-33.179.789-14.956-8.787-33.537-8.787-48.491 0-10.277 6.039-23.302 5.729-33.179-.789-66.257-43.722-106.697-115.991-109.96-188.241-2.311-51.184 14.789-96.296 47.097-124.893 16.205 11.263 34.485 10.836 51.994 2.265 12.113-5.989 5.971-6.711 12.386 2.504 11.876 17.059 37.549 17.291 49.558-.256 9.165-13.395 3.602-13.289 12.698 0 12.809 18.713 41.064 17.131 51.609-3.137 2.995-5.755.254-4.009 10.496.967 18.476 9.077 36.623 8.229 51.836-2.345 20.825 18.4 35.362 43.479 42.437 73.207-12.083 1.785-26.041.065-36.617-6.315-33.648-20.302-71.794 6.475-91.261 36.652-2.411 3.736-1.303 8.68 2.386 11.06 3.712 2.396 8.664 1.328 11.059-2.386 8.787-13.622 20.743-24.834 36.031-32.732 10.528-5.44 23.372-5.017 33.518 1.106 19.539 11.79 49.983 12.999 71.524 0 10.147-6.122 22.992-6.545 33.519-1.106 31.917 16.492 51.472 49.418 53.65 90.338 3.12 58.603-28.738 118.823-81.162 153.417z"/><path d="m417 333.376c-4.079 1.698-6.009 6.381-4.312 10.46 3.787 9.099 5.789 18.543 5.789 27.31 0 33.163-28.471 60.143-63.466 60.143s-63.466-26.98-63.466-60.143c0-32.761 28.31-72.33 63.466-72.33 17.25 0 30.556 9.287 38.681 17.077 3.189 3.058 8.253 2.951 11.311-.238s2.951-8.253-.238-11.311c-14.479-13.882-32.149-21.528-49.754-21.528-44.753 0-79.466 47.482-79.466 88.33 0 41.985 35.648 76.143 79.466 76.143s79.466-34.157 79.466-76.143c0-10.858-2.427-22.428-7.018-33.458-1.696-4.08-6.379-6.012-10.459-4.312z"/><path d="m228.048 302.187c-4.418 0-8 3.582-8 8v.556c0 4.418 3.582 8 8 8s8-3.582 8-8v-.556c0-4.419-3.582-8-8-8z"/></g></svg>