<svg id="Layer_1" enable-background="new 0 0 512.029 512.029" height="512" viewBox="0 0 512.029 512.029" width="512" xmlns="http://www.w3.org/2000/svg"><path d="m448.67 88.684c-11.783 1.65-22.904-3.522-29.63-12.616-42.753-57.806-128.037-83.598-212.279-58.344s-141.432 93.755-145.554 165.613c-.662 11.54-7.354 21.862-17.77 26.807-16.14 7.664-23.868 25.729-18.905 42.385 5.061 16.985 21.817 27.641 39.29 24.985l5.744-.873c10.446-1.587 20.917 2.308 27.972 10.196 44.936 50.243 124.733 71.355 203.616 47.708 78.884-23.647 134.047-85.216 144.129-151.953 1.583-10.478 8.206-19.497 17.807-23.92l5.28-2.432c16.061-7.398 24.24-25.528 19.18-42.513-5.014-16.832-21.532-27.472-38.88-25.043z" fill="#ffe070"/><path d="m419.04 76.068c-42.754-57.805-128.037-83.598-212.279-58.344-84.379 25.294-141.617 93.977-145.573 165.962-.604 10.999-7 21.368-17.85 26.506-15.832 7.518-23.821 25.504-18.805 42.338 3.369 11.306 11.921 19.801 22.416 23.439-3.171-15.859 4.776-32.082 19.603-39.123 10.655-5.068 17.244-15.295 17.843-26.373.604-11.181 2.496-22.282 5.574-33.155 3.005-10.611 10.98-19.042 21.214-23.08 13.934-5.499 24.201-18.361 26.838-32.582.369-1.989.706-4.689 1.006-7.601 1.313-12.719 7.617-24.457 17.706-32.273 20.891-16.183 45.61-29.122 73.242-37.406 72.486-21.729 145.742-5.664 192.013 36.069l.069-.867c-1.076-1.089-2.089-2.256-3.017-3.51z" fill="#fff2b9"/><path d="m260.6 174.908c-73.29 13.903-132.938 55.637-165.916 109.118 1.002.872 1.956 1.809 2.854 2.813 44.936 50.243 124.733 71.355 203.616 47.708 69.729-20.903 120.916-71.438 138.823-128.979-48.795-30.5-113.032-43.246-179.377-30.66z" fill="#ffce66"/><path d="m183.792 95.137c-4.66-6.43-14.074-6.804-19.702-1.208-5.325 5.295-9.758 12.263-2.768 16.821 12.587 8.207 24.037-3.879 24.301-10.638.066-1.689-.678-3.384-1.831-4.975z" fill="#fff2b9"/><path d="m101.651 193.048c1.659 3.213 5.672 4.578 9.268 4.296 3.968-.311 7.776-2.313 10.289-5.409s3.694-7.243 3.193-11.204c-2.164-17.086-30.207-2.124-22.75 12.317z" fill="#fff2b9"/><ellipse cx="297.238" cy="356.971" fill="#ffb750" rx="147.04" ry="147.04" transform="matrix(.226 -.974 .974 .226 -117.67 565.849)"/><ellipse cx="297.238" cy="356.971" fill="#ffce66" rx="116.52" ry="116.52" transform="matrix(.226 -.974 .974 .226 -117.67 565.849)"/><ellipse cx="297.238" cy="356.971" fill="#ffe070" rx="84.883" ry="84.883" transform="matrix(.226 -.974 .974 .226 -117.67 565.849)"/><path d="m316.935 283.338c0 12.611-8.819 39.22-19.697 39.22s-19.697-26.609-19.697-39.22 8.819-22.835 19.697-22.835c10.879.001 19.697 10.224 19.697 22.835z" fill="#ffb750"/><path d="m243.483 302.057c10.922 6.306 29.556 27.247 24.117 36.668s-32.893 3.754-43.814-2.552c-10.922-6.306-15.366-19.055-9.927-28.476 5.439-9.42 18.702-11.946 29.624-5.64z" fill="#ffb750"/><path d="m222.967 375.028c10.922-6.306 38.375-11.973 43.814-2.552s-13.195 30.363-24.117 36.668c-10.922 6.306-24.185 3.78-29.624-5.641-5.439-9.42-.994-22.169 9.927-28.475z" fill="#ffb750"/><path d="m275.905 429.28c0-12.611 8.819-39.22 19.697-39.22s19.697 26.609 19.697 39.22-8.819 22.835-19.697 22.835-19.697-10.223-19.697-22.835z" fill="#ffb750"/><path d="m349.357 410.562c-10.922-6.306-29.556-27.247-24.117-36.668s32.892-3.754 43.814 2.552 15.366 19.055 9.927 28.476c-5.439 9.42-18.702 11.945-29.624 5.64z" fill="#ffb750"/><path d="m369.872 337.591c-10.922 6.306-38.375 11.973-43.814 2.552s13.195-30.363 24.117-36.668c10.922-6.306 24.185-3.78 29.624 5.641 5.44 9.42.995 22.169-9.927 28.475z" fill="#ffb750"/><g fill="#231f20"><path d="m191.569 422.844c23.7 38.017 64.292 58.693 105.907 58.693 97.452 0 156.981-107.75 105.432-190.439-36.404-58.399-113.134-76.207-171.542-39.796-58.402 36.406-76.208 113.135-39.797 171.542zm197.761-123.282c45.227 72.551-7.64 165.946-92.084 165.941-36.285-.002-71.538-18.14-92.099-51.124-31.729-50.894-16.221-117.768 34.682-149.5 50.908-31.734 117.76-16.232 149.501 34.683z"/><path d="m210.962 239.663c2.445 2.514 6.661 3.234 10.09 1 2.797-1.906 4.009-5.108 3.41-8.22-1.091-5.068-6.273-7.709-10.91-5.82-5.336 2.226-6.569 9.067-2.59 13.04z"/><path d="m279.009 27.274c-63.471 4.573-101.338 30.74-102.918 31.852-3.614 2.542-4.484 7.531-1.942 11.146 2.546 3.621 7.538 4.48 11.146 1.942.351-.247 35.773-24.724 94.866-28.981 4.406-.318 7.722-4.147 7.404-8.554-.32-4.408-4.144-7.719-8.556-7.405z"/><path d="m297.238 330.559c18.273 0 27.697-33.099 27.697-47.22 0-17.002-12.425-30.835-27.697-30.835s-27.697 13.833-27.697 30.835c0 14.121 9.424 47.22 27.697 47.22zm0-62.056c6.45 0 11.697 6.655 11.697 14.835 0 9.644-6.419 27.997-11.697 31.12-5.505-3.254-11.697-21.872-11.697-31.12 0-8.18 5.247-14.835 11.697-14.835z"/><path d="m206.931 303.698c-7.895 13.675-1.472 31.133 12.855 39.404 14.633 8.449 46.211 14.401 54.742-.376 2.905-5.031 4.148-14.02-6.426-28.27-5.854-7.889-13.948-15.476-20.619-19.327-14.279-8.244-32.634-5.146-40.552 8.569zm13.856 8c2.841-4.921 10.89-7.219 18.696-2.712 8.387 4.842 21.042 19.596 21.101 25.69-5.572 3.14-24.789-.805-32.798-5.43-7.847-4.531-9.818-12.665-6.999-17.548z"/><path d="m273.71 368.477c-2.904-5.031-10.072-10.603-27.696-8.57-17.771 2.05-35.849 8.776-41.7 25.557-5.481 15.721 3.57 31.491 19.986 34.616 17.453 3.323 32.319-8.965 42.983-23.334 10.574-14.25 9.331-23.238 6.427-28.269zm-35.045 33.739c-7.874 4.547-15.888 2.145-18.694-2.71-2.82-4.88-.853-13.018 6.997-17.55 8.369-4.832 27.48-8.429 32.798-5.43-.063 6.383-13.076 21.058-21.101 25.69z"/><path d="m295.602 382.06c-18.273 0-27.697 33.099-27.697 47.22 0 17.002 12.425 30.834 27.697 30.834s27.697-13.833 27.697-30.834c0-14.121-9.424-47.22-27.697-47.22zm0 62.055c-6.45 0-11.697-6.655-11.697-14.834 0-9.644 6.418-27.997 11.697-31.12 5.505 3.254 11.697 21.872 11.697 31.12 0 8.179-5.247 14.834-11.697 14.834z"/><path d="m373.054 369.517c-13.48-7.783-45.959-14.844-54.741.376-8.79 15.222 13.836 39.971 27.045 47.597 14.284 8.247 32.638 5.139 40.553-8.57 7.634-13.226 1.866-30.902-12.857-39.403zm-1 31.404c-2.826 4.894-10.864 7.235-18.696 2.713-8.369-4.832-21.042-19.584-21.102-25.69 5.458-3.082 24.61.703 32.798 5.43 7.084 4.089 10.223 11.961 7 17.547z"/><path d="m319.13 344.142c8.748 15.148 41.386 8.087 54.742.377 14.279-8.243 20.773-25.689 12.855-39.403-7.902-13.689-26.242-16.832-40.553-8.57-12.229 7.061-36.181 31.772-27.044 47.596zm35.045-33.74c7.844-4.53 15.876-2.172 18.696 2.713 2.825 4.893.835 13.025-6.999 17.547-8.369 4.832-27.479 8.429-32.798 5.43.062-6.296 12.954-20.986 21.101-25.69z"/><path d="m495.219 111.445c-6.023-20.216-25.488-33.699-47.768-30.668-8.373 1.174-16.794-2.455-21.979-9.465-43.13-58.315-130.631-88.341-221.008-61.251-90.893 27.247-147.112 100.787-151.244 172.818-.5 8.728-5.564 16.406-13.205 20.034-19.943 9.484-29.261 31.393-23.15 51.901 6.164 20.686 26.867 33.848 48.16 30.611 2.332.088 15.892-5.171 26.551 6.747 14.44 16.146 32.159 29.389 52.718 39.448-15.605 93.775 56.892 180.412 152.956 180.408 128.087-.006 201.466-147.616 122.639-249.919 17.689-23.997 29.171-50.947 33.306-78.32 2.392-15.832 16.633-18.929 18.524-20.28 19.556-9.008 29.659-31.39 23.5-52.064zm-30.194 37.532c-1.561 1.167-23.854 7.293-27.651 32.423-3.578 23.685-13.279 47.097-28.206 68.234-43.254-45.288-110.716-60.441-170.018-36.423-4.056 1.643-6.081 6.296-4.412 10.418 1.658 4.096 6.322 6.069 10.418 4.412 55.356-22.42 119.52-6.927 158.439 39.368.045.053.097.099.143.152 28.461 33 38.978 77.569 28.941 120.832-14.785 63.734-71.466 107.062-134.188 107.629-124.763 1.126-186.084-149.41-100.513-236.445 3.098-3.151 3.055-8.216-.096-11.313-3.151-3.099-8.217-3.055-11.313.096-18.249 18.562-31.686 41.753-38.727 67.152-17.219-8.911-32.104-20.321-44.342-34.004-8.929-9.984-22.066-14.759-35.137-12.772l-5.744.873c-13.442 2.045-26.524-6.28-30.422-19.361-3.918-13.152 2.209-26.958 14.56-32.822 13.358-6.352 21.617-19.363 22.435-33.628 3.741-65.219 55.431-133.098 139.864-158.409 84.495-25.33 164.752 2.982 203.55 55.439 14.711 19.891 37.071 15.767 37.171 15.781 13.533-1.897 26.19 6.267 30.105 19.406 3.904 13.092-2.485 27.263-14.857 32.962z"/></g></svg>