<svg id="Layer_1" enable-background="new 0 0 511.992 511.992" height="512" viewBox="0 0 511.992 511.992" width="512" xmlns="http://www.w3.org/2000/svg"><path d="m336.174 433.265c21.689-2.95 43.554-2.95 65.243 0 17.558 2.388 37.612 2.389 47.593-7.162 74.363-71.154 61.065-212.707 31.236-255.145-32.686-46.502-70.833-40.671-92.956-31.361-11.971 5.038-25.019 5.038-36.99 0-22.123-9.31-60.27-15.142-92.956 31.361-29.829 42.438-43.126 183.992 31.236 255.145 9.982 9.551 30.036 9.55 47.594 7.162z" fill="#ff5872"/><path d="m480.247 170.958c-32.686-46.502-70.833-40.671-92.956-31.361-11.971 5.038-25.019 5.038-36.99 0-22.123-9.31-60.27-15.142-92.956 31.361-.974 1.387-1.931 2.885-2.867 4.477 27.141-21.817 54.993-16.605 72.645-9.176 11.971 5.038 25.019 5.038 36.99 0 22.123-9.31 68.626-10.646 92.956 31.361 17.359 29.971 14.686 68.247 11.083 76.447-4.103 9.337-10.184 18.772-8.618 28.85.818 5.266 3.67 9.95 5.999 14.743 6.437 13.245 9.471 26.088 7.627 42.944-.657 6.01-13.069 47.345-26.694 67.551.9-.635 1.763-1.304 2.545-2.052 74.362-71.153 61.065-212.707 31.236-255.145z" fill="#ff7f90"/><path d="m356.447 422.075c-6.537-3.498-13.977-4.832-21.001-7.202-7.024-2.371-14.106-6.212-17.498-12.804-2.421-4.704-2.592-9.618-1.965-14.54.564-2.583 12.422-62.469 4.97-102.665-5.296-28.569-9.468-61.729-26.986-85.748-10.898-14.943-22.294-25.287-33.653-32.217-.497.654-2.477 3.36-2.97 4.06-29.829 42.438-43.126 183.991 31.236 255.145 9.981 9.55 30.035 9.55 47.593 7.162 9.626-1.309 19.287-2.034 28.952-2.181-1.378-3.832-4.947-7.013-8.678-9.01z" fill="#db4968"/><path d="m334.347 402.593c3.725 1.653 8.506-.257 10.427-3.851 3.321-6.214-3.731-18.432-11.4-15.554-7.229 2.713-5.177 16.676.973 19.405z" fill="#db4968"/><path d="m451.863 260.867c-14.526 3.038-18.488-21.131-3.935-24.005 14.751-2.912 15.242 21.64 3.935 24.005z" fill="#ff7f90"/><path d="m449.557 24.577c4.273.458 7.141 4.152 6.527 8.405-1.705 11.806-7.257 35.142-25.104 49.001-19.004 14.758-36.292 8.667-43.201 5.112-3.819-1.965-6.605-5.549-7.563-9.739-1.733-7.574-3.354-25.832 15.65-40.59 17.847-13.859 41.831-13.46 53.691-12.189z" fill="#69da61"/><path d="m456.084 32.982c-1.705 11.806-7.257 35.142-25.104 49.001-6.084 4.724-11.991 7.312-17.439 8.531-6.961-8.087-3.25-26.265 9.081-42.333 9.821-12.797 22.35-20.658 31.9-20.988 1.263 1.531 1.88 3.585 1.562 5.789z" fill="#5ab161"/><path d="m116.897 486.639c23.026-3.018 46.238-3.018 69.264 0 18.641 2.444 39.93 2.444 50.527-7.328 78.945-72.803 64.829-217.64 33.161-261.062-34.701-47.581-75.199-41.614-98.685-32.088-12.708 5.155-26.561 5.155-39.27 0-23.486-9.526-63.984-15.493-98.685 32.088-31.667 43.422-45.784 188.258 33.161 261.062 10.597 9.772 31.886 9.771 50.527 7.328z" fill="#ffce66"/><path d="m123.172 458.945c18.854-2.472 37.861-2.472 56.714 0 15.263 2.001 32.695 2.001 41.372-6 64.642-59.613 53.083-178.207 27.153-213.761-28.414-38.96-61.574-34.074-80.804-26.274-10.406 4.221-21.749 4.221-32.155 0-19.231-7.8-52.391-12.686-80.804 26.274-25.931 35.554-37.49 154.148 27.152 213.761 8.676 8.001 26.108 8 41.372 6z" fill="#ffe070"/><path d="m179.889 429.686c-14.096 16.853-42.625 16.853-56.721 0-44.112-52.741-44.112-124.738 0-177.478 14.096-16.853 42.625-16.853 56.721 0 44.112 52.74 44.112 124.737 0 177.478z" fill="#ffce66"/><path d="m169.673 405.205c-9.018 12.204-27.27 12.204-36.288 0-28.222-38.191-28.222-90.326 0-128.517 9.018-12.204 27.27-12.204 36.289 0 28.221 38.191 28.221 90.326-.001 128.517z" fill="#cd8e50"/><ellipse cx="144.3" cy="313.391" fill="#cd9e6c" rx="15.386" ry="11.337" transform="matrix(.113 -.994 .994 .113 -183.413 421.28)"/><path d="m77.805 79.871c-3.985.398-6.684 3.819-6.141 7.786 1.508 11.011 6.524 32.792 23.063 45.826 17.611 13.88 33.765 8.323 40.229 5.058 3.572-1.804 6.193-5.124 7.116-9.023 1.667-7.045 3.302-24.045-14.309-37.925-16.539-13.034-38.895-12.826-49.958-11.722z" fill="#a8ffa9"/><path d="m71.664 87.657c1.508 11.011 6.524 32.792 23.063 45.826 5.638 4.443 11.126 6.895 16.195 8.067 6.543-7.487 3.209-24.45-8.175-39.504-9.066-11.99-20.689-19.399-29.588-19.772-1.187 1.418-1.776 3.327-1.495 5.383z" fill="#c9ffd2"/><g fill="#231f20"><path d="m126.951 271.952c-2.626 3.554-1.874 8.563 1.68 11.188 3.55 2.624 8.562 1.875 11.188-1.68 5.826-7.883 17.594-7.884 23.421 0 25.892 35.039 26.406 83.273 0 119.009-5.826 7.883-17.594 7.884-23.421 0-18.373-24.864-24.214-56.226-16.025-86.044 1.17-4.26-1.336-8.663-5.597-9.833-4.257-1.168-8.663 1.334-9.833 5.596-9.495 34.582-2.721 70.954 18.588 99.79 12.211 16.527 36.928 16.547 49.155 0 30.029-40.636 30.628-96.58 0-138.026-12.225-16.544-36.929-16.548-49.156 0z"/><path d="m284.336 241.075c-4.352 0-8 3.535-8 8 0 3.611 2.427 6.987 6.43 7.85 5.12.985 9.57-2.948 9.57-7.85 0-4.461-3.645-8-8-8z"/><path d="m486.791 166.377c-36.488-51.914-79.945-43.668-102.604-34.134-2.235.94-4.522 1.657-6.836 2.174.952-9.723 3.537-25.551 10.57-38.451 15.243 6.172 32.331 4.496 47.966-7.646 19.887-15.444 26.15-40.573 28.114-54.176 1.263-8.745-4.804-16.56-13.592-17.503-54.985-5.892-85.74 28.661-77.991 62.519.556 2.432 1.494 4.717 2.796 6.821-9.842 16.664-12.971 37.198-13.96 48.656-2.661-.521-5.29-1.316-7.851-2.394-22.66-9.537-66.116-17.778-102.605 34.133-3.051 4.34-5.906 9.553-8.543 15.531-37.205-21.047-70.227-3.762-79.657-1.309 7.485-32.522 28.342-43.466 40.864-47.128 4.241-1.24 6.674-5.683 5.434-9.924-1.241-4.241-5.685-6.672-9.924-5.433-26.414 7.723-40.073 26.675-47.137 44.025-2.138-6.411-4.795-13.273-8.068-20.156 3.2-3.081 5.164-6.695 6.089-10.603 1.951-8.246 4.187-29.241-17.142-46.05-18.579-14.642-42.876-14.68-55.704-13.4-8.5.847-14.432 8.365-13.272 16.833 1.75 12.771 7.459 36.382 26.036 51.023 11.583 9.128 25.198 13.013 39.656 9.321 5.361 11.318 8.899 22.606 11.156 31.528-11-2.827-66.446-32.065-113.842 32.921-18.135 24.868-28.756 74.941-26.425 124.601 2.883 61.433 24.414 113.658 60.628 147.055 10.616 9.789 29.787 12.943 56.99 9.379 22.289-2.922 44.895-2.922 67.184 0 18.34 2.405 43.398 3.155 56.991-9.379 16.032-14.785 29.279-33.391 39.272-54.943.554.548 1.107 1.1 1.666 1.635 10.129 9.691 28.362 12.822 54.202 9.309 20.932-2.847 42.157-2.847 63.087 0 17.731 2.411 41.326 3.013 54.202-9.309 34.14-32.667 54.437-83.721 57.151-143.76 2.195-48.522-7.813-97.456-24.901-121.766zm-86.017-123.274c12.976-10.077 31.081-12.259 47.3-10.619-6.683 44.426-38.068 58.741-57.021 47.289-.579-.613-.993-.911-1.489-1.232-.76-.847-1.285-1.802-1.548-2.951-1.639-7.16-2.16-20.902 12.758-32.487zm-301.095 84.116c-5.982-4.715-16.434-16.071-19.924-39.477 23.585-2.073 37.072 5.438 43.056 10.154 13.586 10.708 13.021 23.266 11.476 29.8-.379 1.598-1.468 2.982-2.937 3.723-5.997 3.028-18.084 6.509-31.671-4.2zm396.03 160.201c-1.465 32.379-10.196 92.704-52.229 132.922-6.248 5.979-20.802 7.76-40.984 5.015-22.361-3.041-45.038-3.041-67.399 0-20.179 2.745-34.735.964-40.984-5.015-2.056-1.966-4.079-4.032-6.048-6.172 15.043-41.344 18.324-89.681 11.833-132.666-.659-4.369-4.746-7.374-9.104-6.715-4.369.66-7.376 4.736-6.716 9.105 9.871 65.346-3.59 144.163-52.813 189.555-6.767 6.24-22.415 8.115-44.063 5.276-23.671-3.103-47.675-3.102-71.344 0-21.646 2.837-37.295.964-44.063-5.276-44.662-41.188-53.938-102.914-55.493-136.043-2.495-53.177 10.366-96.591 23.372-114.424 30.504-41.825 65.351-39.067 89.214-29.388 14.559 5.905 30.718 5.908 45.283 0 32.697-13.263 64.026-5.146 89.214 29.388 2.604 3.569 7.608 4.354 11.178 1.75 3.124-2.278 4.114-6.394 2.569-9.779-.973-2.13-10.668-14.793-21.453-23.741 2.547-6.219 5.346-11.556 8.212-15.634 15.751-22.408 42.988-45.556 83.308-28.587 13.577 5.713 28.947 5.997 43.197 0 40.322-16.969 67.558 6.18 83.307 28.587 12.245 17.423 24.357 59.855 22.006 111.842z"/></g></svg>