<svg id="Layer_1" enable-background="new 0 0 511.998 511.998" height="512" viewBox="0 0 511.998 511.998" width="512" xmlns="http://www.w3.org/2000/svg"><path d="m205.663 37.137c0-15.43-11.999-28.572-27.419-29.12-16.189-.575-29.494 12.378-29.494 28.438v.682c0 13.689-7.941 26.258-20.474 31.764-63.427 27.864-109.277 108.436-109.277 203.487 0 118.142 70.832 177.761 158.207 177.761s158.207-59.619 158.207-177.761c0-95.052-45.85-175.623-109.277-203.487-12.531-5.506-20.473-18.075-20.473-31.764z" fill="#cd8e50"/><path d="m33.356 297.632c0-95.052 45.85-175.623 109.277-203.487 12.533-5.506 20.474-18.075 20.474-31.764v-.682c0-16.061 13.305-29.014 29.494-28.438 4.765.169 9.203 1.542 13.062 3.812-.033-15.402-12.02-28.509-27.419-29.056-16.189-.575-29.494 12.378-29.494 28.438v.682c0 13.689-7.942 26.258-20.474 31.764-63.427 27.864-109.277 108.436-109.277 203.487 0 48.507 11.941 87.148 32.064 115.848-11.314-24.899-17.707-55.111-17.707-90.604z" fill="#dda450"/><path d="m310.452 157.011c-82.508 11.599-148.317 75.229-163.181 156.643-2.938 16.092-2.66 32.564.052 48.695 8.95 53.235-31.935 68.415-37.491 71.153-.989.487-1.954 1.082-2.864 1.763 21.163 9.914 45.011 14.884 70.239 14.884 87.375 0 158.207-59.619 158.207-177.761 0-42.491-9.163-82.088-24.962-115.377z" fill="#ba8050"/><circle cx="337.637" cy="348.637" fill="#69da61" r="155.362"/><circle cx="337.637" cy="348.637" fill="#a8ffa9" r="119.563"/><circle cx="337.637" cy="348.637" fill="#c9ffd2" r="60.279"/><path d="m131.187 389.414c.113-2.502-.214-5.282-2.043-6.964-1.617-1.487-4.026-1.723-6.179-1.368-4.052.667-7.684 3.152-10.266 6.392-4.631 5.81-10.814 24.217 1.436 25.517 10.237 1.087 16.689-15.557 17.052-23.577z" fill="#ba8050"/><g fill="#231f20"><path d="m330.206 185.446c-18.715-58.874-55.221-103.823-100.851-123.869-9.533-4.188-15.692-13.781-15.692-24.44 0-19.777-15.761-36.427-35.135-37.115-20.784-.707-37.778 15.841-37.778 36.434v.682c0 10.659-6.159 20.252-15.692 24.44-9.34 4.103-18.461 9.358-27.11 15.62-3.579 2.591-4.379 7.592-1.789 11.171 2.59 3.578 7.591 4.38 11.171 1.789 7.731-5.597 15.861-10.284 24.163-13.932 15.343-6.74 25.256-22.083 25.256-39.088v-.682c0-11.599 9.604-20.87 21.21-20.443 10.864.386 19.703 9.862 19.703 21.125 0 17.005 9.914 32.348 25.256 39.088 35.385 15.545 71.304 52.067 90.949 110.768-9.906 1.444-19.646 3.794-29.133 7.04-4.18 1.43-6.409 5.979-4.979 10.159 1.431 4.181 5.979 6.408 10.159 4.98 95.518-32.677 195.084 38.691 195.084 139.465 0 81.255-66.106 147.362-147.362 147.362-81.255 0-147.361-66.106-147.361-147.362 0-40.76 16.271-78.685 45.814-106.789 3.201-3.045 3.328-8.109.283-11.31-3.045-3.202-8.109-3.329-11.31-.283-59.313 56.422-66.525 145.47-22.568 210.06-8.212 1.21-16.671 1.834-25.287 1.834-86.556 0-150.208-59.841-150.208-169.761 0-58.166 18.146-113.927 49.786-152.984 2.781-3.433 2.252-8.471-1.181-11.252-3.434-2.781-8.471-2.252-11.252 1.181-33.907 41.855-53.353 101.286-53.353 163.055 0 120.11 72.013 185.761 166.208 185.761 12.436 0 24.608-1.172 36.26-3.483 29.986 35.065 74.524 57.333 124.17 57.333 90.078 0 163.362-73.284 163.362-163.362 0-92.62-77.432-167.367-170.793-163.192z"/><path d="m210.075 348.637c0 103.999 117.752 163.149 201.105 104.241 3.608-2.55 4.466-7.542 1.916-11.15-2.549-3.607-7.542-4.465-11.15-1.916-72.851 51.485-175.871-.187-175.871-91.175 0-61.516 50.046-111.563 111.562-111.563 88.642 0 141.192 98.569 93.804 171.98-2.396 3.712-1.329 8.664 2.383 11.06 3.713 2.397 8.665 1.329 11.061-2.383 54.02-83.689-5.635-196.657-107.247-196.657-70.339 0-127.563 57.224-127.563 127.563z"/><path d="m345.637 279.711c0-4.418-3.582-8-8-8s-8 3.582-8 8v8.646c0 4.418 3.582 8 8 8s8-3.582 8-8z"/><path d="m314.426 292.433-4.323-7.488c-2.208-3.826-7.099-5.138-10.928-2.928-3.826 2.209-5.138 7.102-2.928 10.928l4.323 7.488c2.215 3.839 7.111 5.131 10.928 2.928 3.826-2.209 5.138-7.101 2.928-10.928z"/><path d="m289.435 311.569-7.488-4.323c-3.826-2.21-8.719-.898-10.929 2.928-2.209 3.827-.897 8.719 2.929 10.928l7.488 4.323c3.809 2.2 8.709.915 10.929-2.928 2.208-3.827.897-8.719-2.929-10.928z"/><path d="m285.359 348.637c0-4.418-3.582-8-8-8h-8.646c-4.418 0-8 3.582-8 8s3.582 8 8 8h8.646c4.418 0 8-3.582 8-8z"/><path d="m281.946 390.027 7.488-4.323c3.826-2.209 5.138-7.102 2.929-10.928-2.209-3.825-7.101-5.139-10.929-2.928l-7.488 4.323c-3.826 2.209-5.138 7.102-2.929 10.928 2.222 3.845 7.121 5.128 10.929 2.928z"/><path d="m311.498 393.911c-3.826-2.209-8.72-.898-10.928 2.928l-4.323 7.488c-2.21 3.826-.898 8.719 2.928 10.928 3.809 2.2 8.709.915 10.928-2.928l4.323-7.488c2.21-3.825.898-8.718-2.928-10.928z"/><path d="m337.637 400.915c-4.418 0-8 3.582-8 8v8.646c0 4.418 3.582 8 8 8s8-3.582 8-8v-8.646c0-4.418-3.582-8-8-8z"/><path d="m374.704 396.84c-2.208-3.826-7.1-5.138-10.928-2.928-3.826 2.209-5.138 7.102-2.928 10.928l4.323 7.488c2.215 3.839 7.111 5.131 10.928 2.928 3.826-2.209 5.138-7.102 2.928-10.928z"/><path d="m385.84 385.704 7.488 4.323c3.809 2.2 8.709.915 10.929-2.928 2.209-3.827.897-8.719-2.929-10.928l-7.488-4.323c-3.826-2.21-8.719-.898-10.929 2.928-2.209 3.826-.897 8.719 2.929 10.928z"/><path d="m414.563 348.637c0-4.418-3.582-8-8-8h-8.646c-4.418 0-8 3.582-8 8s3.582 8 8 8h8.646c4.418 0 8-3.582 8-8z"/><path d="m393.84 325.425 7.488-4.323c3.826-2.209 5.138-7.102 2.929-10.928-2.21-3.825-7.1-5.14-10.929-2.928l-7.488 4.323c-3.826 2.209-5.138 7.102-2.929 10.928 2.221 3.845 7.121 5.127 10.929 2.928z"/><path d="m376.1 282.017c-3.826-2.21-8.72-.899-10.928 2.928l-4.323 7.488c-2.21 3.826-.898 8.719 2.928 10.928 3.809 2.2 8.709.915 10.928-2.928l4.323-7.488c2.209-3.825.898-8.718-2.928-10.928z"/><path d="m258.209 223.088c4.417 0 8-3.605 8-8 0-3.76-2.669-7.104-6.44-7.84-4.099-.836-8.413 1.657-9.41 6.28-.968 4.937 2.798 9.56 7.85 9.56z"/></g></svg>