<svg id="Layer_1" enable-background="new 0 0 512.004 512.004" height="512" viewBox="0 0 512.004 512.004" width="512" xmlns="http://www.w3.org/2000/svg"><path d="m218.117 97.434c-92.233 2.218-139.758 111.996-78.84 181.052 23.297 26.41 44.353 63.683 44.802 111.764.19 20.344-2.16 39.804-6.415 57.715-6.63 27.907 14.052 56.038 44.013 56.038 79.952 0 144.765-182.651 144.765-262.334 0-80.992-66.887-146.194-148.325-144.235z" fill="#ffe070"/><path d="m221.677 97.391c-3.293 0-4.96.084-6.817.181 39.872 8.847 73.725 33.22 94.595 66.286 6.574 10.416 8.784 22.968 6.356 35.033-2.965 14.739-5.007 36.485 4.329 48.35 6.83 8.681 10.11 19.61 8.359 30.503-12.63 78.546-59.95 195.484-119.607 224.468 3.42.997 7.022 1.608 10.774 1.752 80.738 3.089 146.775-181.644 146.775-262.295.001-79.682-64.813-144.278-144.764-144.278z" fill="#ffce66"/><path d="m218.117 97.434c-92.233 2.218-139.758 111.996-78.84 181.052 23.297 26.41 44.353 63.683 44.802 111.764.191 20.436-2.181 39.979-6.473 57.956-7.013 29.377 16.676 59.635 50.684 55.374-17.159-9.51-27.104-29.92-22.216-50.495 4.255-17.911 6.605-37.371 6.415-57.715-.449-48.08-21.505-85.354-44.802-111.764-5.316-6.026-9.804-12.363-13.509-18.911-10.404-18.392-8.839-41.337 3.921-58.192 1.346-1.778 2.413-3.403 3.001-4.707 3.396-7.533-.4-16.103-2.327-24.135-3.511-14.634.836-29.374 10.444-40.002 18.578-20.551 45.237-34.334 77.31-35.105 5.02-.121 10.009.012 15.141.417-14.385-4.112-29.062-5.888-43.551-5.537z" fill="#fff2b9"/><path d="m262.083 48.993c-14.447 19.928-39.791 74.264 57.178 129.73 5.64 3.226 12.86.97 15.567-4.922 13.518-29.421 41.476-111.575-56.509-131.148-6.179-1.235-12.545 1.249-16.236 6.34z" fill="#69da61"/><path d="m349.106 115.5c-.098-30.384-15.098-61.723-70.787-72.847-6.18-1.234-12.545 1.249-16.236 6.34-5.143 7.095-11.663 18.552-13.558 32.867 16.77 21.73 47.146 42.586 100.581 33.64z" fill="#5ab161"/><path d="m262.945 54.808c8.058 20.764 37.347 66.333 131.25 16.28 5.461-2.911 7.459-9.652 4.262-14.561-15.965-24.514-65.649-85.268-132.011-17.476-4.184 4.276-5.559 10.452-3.501 15.757z" fill="#a8ffa9"/><path d="m296.327 16.03c1.555 20.705 22.93 37.112 49.081 37.112 15.758 0 29.774-5.963 38.774-15.227-18.598-20.597-49.331-41.919-87.855-21.885z" fill="#c9ffd2"/><path d="m159.875 248.312c2.324 3.837 6.899 6.199 11.384 5.877s8.674-3.312 10.423-7.44c4.303-10.157-.96-24.509-13.662-22.945-11.197 1.379-13.114 16.305-8.145 24.508z" fill="#fff2b9"/><path d="m181.989 158.703c-1.748 3.804-5.608 5.773-8.622 4.398-3.014-1.376-4.039-5.575-2.291-9.379s5.608-5.773 8.622-4.398c3.014 1.376 4.039 5.575 2.291 9.379z" fill="#fff2b9"/><g fill="#231f20"><path d="m405.161 52.161c-27.104-41.616-56.488-50.34-71.591-51.836-24.445-2.425-48.95 8.726-72.84 33.131-2.203 2.25-3.877 4.864-5.01 7.655-34.927 10.541-51.41 39.223-56.611 50.293-87.487 16.221-126.319 123.807-65.833 192.374 37.795 42.845 52.695 94.61 36.604 162.338-14.394 60.582 82.435 127.665 161.398-39.989 25.414-53.96 43.164-121.587 43.164-164.457 0-29.814-8.613-58.521-24.911-83.313 5.911-17.706 10.373-40.46 5.465-62.108 13.344-3.929 27.682-9.957 42.962-18.101 9.632-5.133 12.942-17.176 7.203-25.987zm-159.856 10.839c-3.096 7.811-5.374 17.114-5.307 27.502-7.159-.853-14.382-1.214-21.537-1.072 5.156-8.136 13.782-18.79 26.844-26.43zm96.823 114.073c10.711 19.765 16.314 41.822 16.314 64.596 0 40.763-17.123 105.586-41.638 157.64-68.63 145.714-141.972 95.188-131.357 50.506 17.178-72.3 1.522-129.358-40.171-176.621-41.767-47.346-28.769-116.862 17.762-149.782 23.395-16.552 50.791-20.714 79.027-16.507 8.625 34.856 42.051 60.934 73.225 78.763 10.106 5.783 22.641 1.049 26.838-8.595zm48.304-113.045c-22.635 12.066-52.639 24.421-78.336 21.178-4.38-.555-8.385 2.553-8.938 6.937s2.552 8.386 6.936 8.938c9.532 1.201 19.76.598 29.336-1.098 5.042 22.962-1.976 48.945-11.872 70.478-.735 1.602-2.745 2.221-4.326 1.317-18.617-10.649-37.981-24.276-51.27-40.902-15.113-18.984-20.678-40.275-11.483-62.724 3.818 6.642 8.782 12.845 14.699 17.909 3.35 2.868 8.402 2.489 11.28-.877 2.873-3.356 2.48-8.407-.876-11.279-9.48-8.113-15.252-20.699-15.537-23.565-.194-2.097.627-4.17 2.118-5.692 20.327-20.766 40.461-30.313 59.829-28.401 9.862.977 35.427 7.282 59.761 44.646.665 1.021-.153 2.513-1.321 3.135z"/><path d="m320.706 303.898c-4.374-.677-8.455 2.312-9.134 6.677-12.134 78.083-53.789 121.721-54.269 122.215-3.083 3.158-3.026 8.217.129 11.305 3.156 3.09 8.221 3.038 11.313-.121 1.858-1.898 45.664-47.459 58.637-130.941.679-4.367-2.31-8.456-6.676-9.135z"/><path d="m323.968 274.892c-3.777 0-7.104 2.681-7.84 6.44-.976 4.617 2.514 9.56 7.84 9.56 4.362 0 8-3.528 8-8 0-4.425-3.611-8-8-8z"/></g></svg>