<svg id="Layer_1" enable-background="new 0 0 511.932 511.932" height="512" viewBox="0 0 511.932 511.932" width="512" xmlns="http://www.w3.org/2000/svg"><path d="m347.788 156.698c-4.125-5.384-4.354-13.308-.632-19.05 10.902-16.817 5.625-40.879-11.366-49.947-5.26-2.807-8.265-9.125-7.762-15.632 1.555-20.102-13.235-37.764-31.81-36.362-5.67.428-10.888-3.221-13.382-8.946-4.855-11.147-15.061-18.826-26.871-18.826s-22.016 7.679-26.871 18.826c-2.494 5.725-7.712 9.374-13.382 8.946-16.753-1.265-30.247 12.948-31.769 30.012-.193 2.16-.201 4.282-.041 6.35.503 6.506-2.502 12.825-7.762 15.632-16.992 9.069-22.268 33.13-11.366 49.947 3.722 5.741 3.494 13.666-.632 19.05-12.161 15.871-8.505 40.301 7.713 50.842 5.194 3.376 7.743 10.302 6.322 16.842-4.434 20.416 8.776 39.828 26.707 41.361 3.565.305 7.01-.092 10.237-1.08 5.877-1.799 12.123 1.092 15.288 6.928 5.243 9.668 14.724 16.127 25.555 16.127s20.312-6.458 25.555-16.126c3.165-5.836 9.411-8.727 15.288-6.928 3.227.988 6.672 1.385 10.237 1.08 17.929-1.532 31.142-20.94 26.707-41.361-1.421-6.54 1.128-13.466 6.322-16.842 16.244-10.558 19.86-34.994 7.715-50.843z" fill="#c991ff"/><path d="m300.682 37.455c2.494 5.726 7.712 9.374 13.382 8.946 2.206-.166 4.277-.058 6.325.274-4.947-6.112-11.862-10.19-19.565-10.92-.327-.031-.649-.032-.974-.051.29.575.573 1.155.832 1.751z" fill="#d3b3ff"/><path d="m174.78 189.219c0-8.338 2.716-15.964 7.209-21.828 4.125-5.384 4.354-13.308.632-19.05-10.903-16.817-5.625-40.879 11.366-49.947 5.26-2.807 8.265-9.125 7.762-15.632-1.555-20.102 13.235-37.763 31.81-36.362 5.67.428 10.888-3.221 13.382-8.946 5.531-12.698 17.874-20.637 31.19-18.477-5.468-6.778-13.37-11.041-22.165-11.041-11.81 0-22.016 7.679-26.871 18.826-2.494 5.725-7.712 9.374-13.382 8.946-16.753-1.264-30.247 12.948-31.769 30.012-.193 2.16-.201 4.282-.041 6.35.503 6.507-2.502 12.824-7.762 15.632-16.992 9.069-22.268 33.131-11.366 49.947 3.722 5.741 3.494 13.666-.632 19.05-12.153 15.859-8.517 40.293 7.713 50.842 5.196 3.374 2.924-5.928 2.924-18.322z" fill="#d3b3ff"/><path d="m347.788 156.698c-4.125-5.384-4.354-13.308-.632-19.05 10.902-16.817 5.625-40.879-11.366-49.947-5.26-2.807-.636 8.436-.636 21.795 0 7.353-2.113 14.15-5.694 19.674-3.722 5.741-3.494 13.666.632 19.05 12.153 15.859 8.517 40.293-7.713 50.842-5.194 3.376-7.743 10.302-6.322 16.842.762 3.51 1.031 7.237.718 11.084-1.667 20.478-19.648 34.71-37.662 29.196-5.877-1.799-12.123 1.092-15.288 6.928-5.567 10.266-15.992 17.017-27.811 16.025 13.825 13.921 35.695 10.548 45.507-7.546 3.165-5.836 9.411-8.727 15.288-6.928 18.108 5.545 36.005-8.837 37.662-29.196.313-3.847.044-7.574-.718-11.084-1.421-6.54 1.128-13.466 6.322-16.842 16.242-10.558 19.858-34.994 7.713-50.843z" fill="#b173ff"/><path d="m61.566 456.394c6.047 1.355 10.854 6.959 11.806 13.583.511 3.555 1.56 7.142 3.197 10.638 8.707 18.601 30.526 25.697 45.492 14.248 4.88-3.733 11.743-3.198 16.747 1.169 8.29 7.236 19.431 9.987 29.582 6.215s16.782-13.126 18.32-24.014c.928-6.572 5.773-11.457 11.909-11.817 18.907-1.11 30.66-20.818 25.103-40.479-1.05-3.715-2.603-7.114-4.543-10.138-3.615-5.635-3.645-13.014.044-17.986 11.573-15.599 6.345-39.742-10.523-50.337-5.746-3.609-8.727-10.957-7.243-17.634 4.331-19.492-8.925-40.262-28.092-42.854-5.91-.799-10.932-5.674-12.732-11.947-5.613-19.563-25.723-30.723-42.51-23.001-5.165 2.376-11.329.773-15.666-3.724-8.442-8.756-20.688-12.399-31.757-8.286s-17.953 14.864-18.611 27.002c-.338 6.234-3.955 11.471-9.418 13.045-17.794 5.124-25.657 26.721-17.117 45.157 2.744 5.923 2.133 12.891-1.816 17.353-12.801 14.465-9.256 38.84 6.788 50.77 5.493 4.085 8.046 11.591 6.06 18.074-5.847 19.075 6.063 40.724 24.98 44.963z" fill="#cd8e50"/><path d="m219.18 415.799c-3.615-5.635-3.645-13.014.044-17.986 11.573-15.599 6.345-39.742-10.523-50.337-5.746-3.609-8.727-10.957-7.243-17.634 4.331-19.492-8.925-40.262-28.092-42.854-5.91-.799-10.932-5.674-12.732-11.947-5.571-19.416-25.615-30.769-42.51-23.001-5.165 2.376-11.329.773-15.666-3.724-14.533-15.074-37.253-12.743-46.632 5.023 9.517-1.439 19.305 2.287 26.404 9.65 4.336 4.498 10.501 6.1 15.666 3.724 16.878-7.76 36.922 3.528 42.51 23.002 1.8 6.273 6.823 11.148 12.732 11.947 19.167 2.592 32.424 23.363 28.092 42.854-1.484 6.677 1.497 14.025 7.243 17.634 16.844 10.58 22.112 34.716 10.523 50.336-3.689 4.973-3.659 12.352-.045 17.987 6.877 10.719 7.984 24.564 2.104 35.688 21.457-3.228 31.222-29.946 18.125-50.362z" fill="#dda450"/><path d="m30.431 287.599c-1.383 1.478-2.613 3.106-3.673 4.859 1.551-1.28 2.797-2.942 3.673-4.859z" fill="#dda450"/><path d="m95.781 464.206c-.952-6.625-5.759-12.228-11.806-13.584-18.935-4.243-30.822-25.905-24.981-44.964 1.987-6.483-.566-13.989-6.059-18.074-16.001-11.9-19.622-36.268-6.788-50.77 3.949-4.463 4.56-11.431 1.816-17.353-.872-1.883-1.605-3.875-2.179-5.966-4.224-15.399 6.964-58.603 6.306-46.465-.338 6.234-3.955 11.471-9.418 13.045-17.831 5.138-25.643 26.751-17.117 45.157 2.744 5.923 2.133 12.891-1.816 17.353-12.802 14.466-9.256 38.839 6.788 50.77 5.493 4.085 8.046 11.592 6.06 18.074-5.846 19.076 6.064 40.726 24.981 44.964 6.047 1.355 10.854 6.959 11.806 13.583.511 3.555 1.56 7.142 3.197 10.638 8.707 18.6 30.527 25.697 45.492 14.248.331-.253.672-.482 1.019-.696-13.695-2.497-25.092-14.59-27.301-29.96z" fill="#ba8050"/><path d="m475.348 411.429c-1.987-6.482.566-13.989 6.059-18.074 16.002-11.899 19.621-36.269 6.788-50.77-3.949-4.463-4.56-11.431-1.816-17.354 8.476-18.298.776-40.004-17.117-45.157-5.464-1.573-9.08-6.81-9.418-13.045-.658-12.138-7.542-22.889-18.611-27.002s-23.315-.47-31.757 8.286c-4.336 4.498-10.501 6.1-15.666 3.724-17.124-7.877-37.005 3.816-42.51 23.001-1.8 6.273-6.823 11.148-12.732 11.947-19.168 2.592-32.423 23.363-28.092 42.854 1.484 6.677-1.497 14.025-7.243 17.634-16.845 10.58-22.112 34.717-10.523 50.337 3.689 4.973 3.659 12.352.044 17.987-11.304 17.621-5.651 40.399 10.589 48.065 3.234 1.527 6.602 2.355 9.972 2.552 6.136.36 10.981 5.245 11.909 11.817 1.538 10.887 8.169 20.242 18.32 24.014s21.292 1.021 29.582-6.215c5.004-4.368 11.867-4.902 16.747-1.169 2.68 2.05 5.77 3.622 9.217 4.578 17.339 4.808 36.499-8.781 39.472-29.464.952-6.624 5.759-12.228 11.806-13.583 18.934-4.242 30.821-25.903 24.98-44.963z" fill="#ffb750"/><path d="m475.097 284.249c.338 6.234 3.955 11.471 9.418 13.045 1.185.341 2.355.791 3.514 1.307-2.35-6.875-6.886-12.692-13.089-16.156.065.598.125 1.198.157 1.804z" fill="#ffe070"/><path d="m304.107 382.642c2.911-7.815 8.119-14.016 14.379-17.948 5.746-3.609 8.727-10.957 7.243-17.634-4.331-19.492 8.925-40.261 28.092-42.854 5.91-.8 10.932-5.674 12.732-11.948 5.571-19.415 25.623-30.77 42.51-23.001 5.165 2.376 11.329.773 15.666-3.724 8.732-9.057 21.734-12.807 33.356-7.618-2.784-8.174-8.67-14.847-16.853-17.887-11.069-4.113-23.315-.47-31.757 8.286-4.336 4.497-10.501 6.1-15.666 3.724-17.044-7.836-36.978 3.722-42.51 23.001-1.8 6.273-6.823 11.148-12.732 11.947-19.168 2.592-32.423 23.363-28.092 42.854 1.484 6.677-1.497 14.025-7.243 17.634-16.845 10.58-22.112 34.717-10.523 50.337 3.689 4.974 7.071-3.553 11.398-15.169z" fill="#ffe070"/><path d="m340.477 495.452c-.928-6.572-5.773-11.457-11.909-11.817-.727-.043-1.455-.121-2.181-.223 2.472 8.051 7.903 14.756 15.553 18.171-.67-1.967-1.165-4.018-1.463-6.131z" fill="#ffe070"/><path d="m488.195 342.586c-3.949-4.463-7.329 2.453-11.994 14.974-2.567 6.891-6.921 12.525-12.206 16.456-5.493 4.085-8.046 11.591-6.059 18.073 5.846 19.076-6.064 40.726-24.982 44.965-6.047 1.355-10.853 6.959-11.806 13.583-2.972 20.678-22.129 34.273-39.472 29.464-3.447-.956-6.537-2.528-9.217-4.578-4.88-3.733-11.743-3.199-16.747 1.169-8.258 7.208-19.346 9.961-29.465 6.253 6.152 21.141 30.02 27.801 46.877 13.087 5.004-4.367 11.867-4.902 16.747-1.169 15.035 11.503 36.829 4.259 45.492-14.248 1.637-3.497 2.686-7.083 3.197-10.638.952-6.625 5.759-12.228 11.806-13.583 18.935-4.243 30.823-25.905 24.981-44.964-1.987-6.482.566-13.989 6.059-18.074 16.003-11.9 19.623-36.269 6.789-50.77z" fill="#ea8e50"/><g fill="#231f20"><path d="m223.379 275.403c-1.363-2.515-3.737-3.753-5.914-3.092-27.734 8.498-53.762-18.969-47.103-49.627.714-3.285-.518-6.912-2.863-8.437-20.088-13.056-24.708-42.834-9.704-62.416 2.052-2.677 2.167-6.904.269-9.832-13.282-20.49-7.15-49.902 14.312-61.356 3.896-2.083 8.744-.607 10.824 3.291 2.081 3.897.607 8.744-3.291 10.824-12.823 6.843-16.789 25.626-8.419 38.538 5.576 8.603 5.167 20.226-.995 28.268-9.309 12.148-6.591 31.266 5.723 39.268 8 5.2 11.931 15.347 9.779 25.248-4.095 18.875 10.858 35.809 26.784 30.933 9.51-2.907 19.649 1.517 24.663 10.764 8.64 15.934 28.421 15.903 37.045 0 5.015-9.247 15.158-13.674 24.662-10.764 15.988 4.89 30.867-12.13 26.785-30.933-2.151-9.901 1.779-20.048 9.78-25.248 12.311-8 15.04-27.109 5.723-39.268-6.162-8.042-6.571-19.665-.995-28.268 8.349-12.88 4.439-31.676-8.419-38.538-8.035-4.287-12.734-13.436-11.971-23.306 1.229-15.877-10.239-28.737-23.234-27.768-9.007.679-17.387-4.708-21.316-13.729-3.767-8.647-11.252-14.02-19.536-14.02s-15.77 5.372-19.536 14.02c-3.929 9.021-12.303 14.404-21.318 13.729-6.841-.512-13.024 2.665-17.356 8.019-2.78 3.435-7.817 3.964-11.251 1.186-3.435-2.779-3.965-7.817-1.186-11.252 7.876-9.732 19.204-14.794 30.995-13.907 2.132.164 4.275-1.472 5.448-4.163 13.677-31.402 54.715-31.444 68.41 0 1.172 2.69 3.321 4.335 5.445 4.163 23.534-1.755 42.339 19.779 40.388 44.957-.265 3.426 1.196 6.698 3.552 7.956 21.473 11.46 27.588 40.877 14.313 61.356-1.898 2.928-1.783 7.155.269 9.832 5.713 7.456 8.859 16.937 8.859 26.694 0 14.592-7.113 28.279-18.563 35.722-2.346 1.524-3.578 5.151-2.864 8.436 6.651 30.61-19.317 58.131-47.104 49.628-2.172-.662-4.549.577-5.912 3.092-14.649 27.01-50.513 27.047-65.178 0z"/><path d="m133.548 502.06c-2.158-1.886-4.822-2.224-6.626-.843-23.095 17.672-57.018.854-61.468-30.102-.479-3.33-2.902-6.303-5.636-6.916-13.326-2.988-24.77-13.335-29.864-27.009-3.407-9.146-3.769-19.128-1.017-28.105.988-3.224-.381-7.227-3.185-9.311-19.652-14.613-24.082-44.323-8.005-62.49 1.767-1.997 1.993-5.57.548-8.689-10.794-23.302-.13-49.793 22.163-56.207 2.054-.592 3.484-2.865 3.643-5.791 1.856-34.24 40.336-48.501 64.115-23.834 2.04 2.115 4.616 2.903 6.563 2.009 21.196-9.749 46.51 3.535 53.542 28.064.949 3.306 3.463 5.866 6.115 6.225 24.163 3.269 40.113 28.74 34.83 52.517-.756 3.405.829 7.328 3.688 9.123 7.957 4.998 14.214 12.786 17.621 21.931 5.096 13.678 3.208 28.985-4.927 39.948-1.665 2.244-1.551 6.07.264 8.9 16.959 26.429 2.125 61.223-26.824 62.924-2.267.133-4.058 2.122-4.458 4.95-4.289 30.382-37.861 42.971-61.082 22.706zm10.522-12.053c13.645 11.909 32.188 5.033 34.719-12.892 1.472-10.418 9.434-18.102 19.362-18.685 16.722-.986 24.668-22.152 14.295-38.312-5.473-8.532-5.332-19.412.353-27.073 8.697-11.722 4.689-30.604-8.354-38.796-8.58-5.388-13.021-16.139-10.798-26.143 3.357-15.106-7.055-31.257-21.354-33.191-9.024-1.22-16.62-8.155-19.35-17.668-4.15-14.47-18.983-23.673-31.479-17.94-8.213 3.779-17.935 1.645-24.766-5.439-14.14-14.668-35.518-6.754-36.621 13.596-.533 9.827-6.497 17.795-15.193 20.299-13.004 3.745-18.513 20.197-12.071 34.107 4.162 8.984 2.951 19.196-3.084 26.018-9.615 10.864-6.797 29.853 5.57 39.048 8.228 6.119 11.902 17.155 8.935 26.838-4.46 14.555 4.661 31.583 19.082 34.813 9.311 2.087 16.534 10.226 17.975 20.253 2.746 19.094 22.672 29.801 35.909 19.67 7.908-6.049 18.957-5.41 26.87 1.497z"/><path d="m317.301 479.353c-.399-2.828-2.19-4.817-4.457-4.95-29.007-1.704-43.751-36.537-26.825-62.925 1.815-2.829 1.929-6.655.264-8.899-14.18-19.11-8.315-48.683 12.692-61.878 2.86-1.796 4.446-5.719 3.689-9.124-5.287-23.802 10.692-49.251 34.83-52.517 2.652-.358 5.167-2.919 6.116-6.227 1.218-4.246 5.649-6.705 9.896-5.482 4.247 1.219 6.702 5.649 5.483 9.896-2.73 9.513-10.326 16.448-19.351 17.668-14.292 1.933-24.713 18.076-21.354 33.19 2.223 10.005-2.217 20.756-10.798 26.145-13.041 8.19-17.049 27.073-8.353 38.795 5.685 7.661 5.826 18.541.353 27.072-10.427 16.252-2.344 37.331 14.296 38.313 9.927.583 17.889 8.267 19.361 18.685 2.535 17.951 21.091 24.786 34.72 12.891 7.926-6.919 18.974-7.534 26.868-1.497 13.314 10.189 33.181-.685 35.911-19.67 1.441-10.026 8.664-18.165 17.974-20.252 14.373-3.219 23.558-20.208 19.083-34.813-2.967-9.683.707-20.719 8.935-26.838 12.357-9.186 15.192-28.176 5.571-39.048-6.036-6.821-7.247-17.033-3.084-26.018 6.393-13.816.989-30.344-12.071-34.107-8.697-2.504-14.661-10.472-15.194-20.299-1.103-20.344-22.477-28.268-36.62-13.596-6.831 7.084-16.553 9.219-24.769 5.438-2.693-1.236-5.715-1.874-8.884-1.703-4.414.236-8.171-3.172-8.395-7.585s3.172-8.171 7.584-8.395c5.675-.292 11.268.795 16.378 3.146 1.95.896 4.525.108 6.566-2.008 10.868-11.274 26.689-15.292 40.303-10.232 13.617 5.06 22.964 18.432 23.812 34.066.159 2.926 1.589 5.199 3.644 5.791 22.387 6.442 32.909 32.998 22.163 56.207-1.445 3.119-1.219 6.692.548 8.689 16.085 18.176 11.632 47.89-8.005 62.491-2.803 2.084-4.172 6.087-3.184 9.311 7.2 23.494-7.423 49.858-30.881 55.114-2.734.612-5.158 3.586-5.636 6.915-4.457 31.004-38.416 47.747-61.47 30.101-1.803-1.377-4.466-1.039-6.624.844-23.157 20.213-56.783 7.756-61.085-22.705z"/><path d="m215.654 127.062c-2.841-3.384-2.4-8.431.984-11.271 5.368-4.507 6.427-10.7 1.131-16.965-10.646-12.591-4.91-27.826-.39-34.122 2.576-3.59 7.573-4.411 11.164-1.834 3.573 2.565 4.402 7.53 1.868 11.116-.61.886-5.542 8.457-.424 14.51 11.295 13.357 8.75 29.635-3.062 39.549-3.369 2.829-8.418 2.416-11.271-.983z"/><path d="m281.694 166.525c-2.84-3.384-2.399-8.43.985-11.271 2.666-2.237 4.337-5.184 4.585-8.086.247-2.887-.916-5.874-3.455-8.878-10.646-12.591-4.91-27.826-.39-34.122 2.576-3.59 7.573-4.411 11.164-1.834 3.573 2.565 4.402 7.53 1.868 11.116-.61.887-5.542 8.457-.424 14.51 6.709 7.935 7.607 15.566 7.179 20.572-.608 7.108-4.341 14.025-10.241 18.978-3.406 2.859-8.449 2.378-11.271-.985z"/><path d="m72.808 367.361c-3.763-2.315-4.937-7.243-2.621-11.006 3.671-5.966 2.715-12.177-4.29-16.454-14.077-8.593-13.444-24.856-11.143-32.256 1.313-4.219 5.796-6.574 10.015-5.263 4.2 1.306 6.554 5.755 5.28 9.958-.299 1.034-2.587 9.771 4.184 13.904 8.874 5.416 12.135 12.379 13.309 17.266 1.665 6.936.306 14.673-3.728 21.229-2.321 3.775-7.254 4.931-11.006 2.622z"/><path d="m158.878 392.625c-3.763-2.315-4.937-7.243-2.621-11.006 3.67-5.965 2.715-12.178-4.291-16.455-14.076-8.592-13.443-24.855-11.143-32.255 1.312-4.22 5.796-6.57 10.015-5.265 4.2 1.307 6.554 5.755 5.281 9.958-.298 1.03-2.588 9.771 4.183 13.905 14.857 9.068 17.71 25.284 9.581 38.496-2.321 3.775-7.253 4.93-11.005 2.622z"/><path d="m128.178 456.051c-6.189 0-10.103-6.836-6.806-12.193 3.67-5.966 2.715-12.177-4.291-16.454-14.076-8.593-13.443-24.856-11.143-32.256 1.312-4.219 5.796-6.574 10.015-5.263 4.2 1.306 6.554 5.755 5.281 9.957-.3 1.035-2.587 9.772 4.184 13.905 14.856 9.068 17.709 25.284 9.581 38.495-1.51 2.456-4.134 3.809-6.821 3.809z"/><path d="m426.653 369.559c-4.033-6.557-5.392-14.295-3.727-21.23 1.173-4.887 4.434-11.849 13.308-17.266 6.792-4.146 4.468-12.926 4.181-13.914-1.312-4.219 1.055-8.669 5.274-9.981 4.218-1.308 8.713 1.078 10.025 5.297 2.301 7.399 2.933 23.663-11.143 32.255-6.986 4.267-7.971 10.472-4.29 16.455 2.315 3.764 1.141 8.691-2.622 11.006-3.778 2.326-8.702 1.124-11.006-2.622z"/><path d="m347.441 384.061c-4.034-6.557-5.393-14.294-3.728-21.229 1.173-4.887 4.434-11.849 13.309-17.266 1.842-1.125 4.334-3.193 4.704-8.148.227-3.048-.495-5.675-.503-5.699-1.312-4.219 1.044-8.703 5.263-10.015 4.22-1.313 8.703 1.044 10.015 5.263 2.301 7.399 2.934 23.663-11.143 32.256-6.987 4.264-7.971 10.472-4.29 16.454 2.315 3.763 1.142 8.69-2.621 11.006-3.787 2.33-8.706 1.116-11.006-2.622z"/><path d="m382.289 460.87c-2.687 0-5.311-1.353-6.822-3.809-4.033-6.557-5.392-14.295-3.727-21.23 1.173-4.887 4.435-11.849 13.309-17.265 1.842-1.125 4.334-3.193 4.704-8.148.227-3.048-.495-5.675-.503-5.699-1.312-4.219 1.044-8.703 5.263-10.015 4.219-1.313 8.703 1.044 10.015 5.263 2.301 7.399 2.934 23.663-11.143 32.256-3.362 2.052-5.41 4.522-6.087 7.344-.679 2.83-.024 6.15 1.797 9.11 3.296 5.358-.619 12.193-6.806 12.193z"/><path d="m234.238 228.043c-2.84-3.385-2.399-8.431.985-11.271 5.367-4.504 6.427-10.699 1.13-16.964-10.646-12.591-4.91-27.826-.39-34.122 2.576-3.59 7.573-4.411 11.164-1.834 3.573 2.565 4.402 7.53 1.868 11.116-.61.887-5.542 8.457-.424 14.51 6.709 7.935 7.607 15.566 7.179 20.572-.608 7.109-4.341 14.026-10.242 18.978-3.398 2.853-8.442 2.384-11.27-.985z"/></g></svg>