<svg id="Layer_1" enable-background="new 0 0 511.996 511.996" height="512" viewBox="0 0 511.996 511.996" width="512" xmlns="http://www.w3.org/2000/svg"><path d="m204.39 188.072c-22.434-13.958-51.082-13.958-73.516 0-31.954 19.882-56.726 58.038-45.933 125.109 6.932 43.077 36.411 74.431 48.106 114.435 4.476 15.311 18.654 25.723 34.586 25.723s30.11-10.412 34.586-25.722c11.694-40.004 41.174-71.359 48.106-114.435 10.792-67.072-13.981-105.228-45.935-125.11z" fill="#ff5872"/><path d="m161.501 429.011c-4.78-15.01-12.445-28.733-20.4-42.372-2.36-4.046-8.334-4.027-10.676-8.09-2.592-4.495-1.544-13.077-3.941-17.673-3.178-6.094-9.508-8.232-11.968-14.678-2.602-6.821-1.278-17.976-2.583-25.419-11.121-63.435 14.404-99.522 47.329-118.326 16.314-9.317 35.815-12.049 54.006-8.215-2.879-2.226-5.846-4.279-8.879-6.166-22.434-13.958-51.082-13.958-73.516 0-31.953 19.882-56.725 58.038-45.932 125.109 6.932 43.077 36.411 74.431 48.106 114.435 6.042 20.669 29.099 31.301 48.926 22.768-9.697-3.95-17.361-11.604-20.472-21.373z" fill="#ff7f90"/><path d="m214.411 195.15c-8.217 20.373-11.418 44.526-6.413 72.636.888 4.988 7.929 8.904 9.351 14.142s-2.774 11.798-.781 17.288c3.023 8.329 6.722 16.949 11.159 25.863 3.747 7.528 8.037 14.518 12.715 21.118 4.422-10.411 7.993-21.277 9.883-33.017 9.631-59.855-9.07-96.668-35.914-118.03z" fill="#db4968"/><path d="m328.8 153.767c-25.569-6.628-52.915 1.922-70.175 21.941-24.584 28.515-36.873 72.331-6.608 133.132 19.438 39.05 56.911 60.181 79.98 94.877 8.829 13.279 25.463 18.986 40.67 14.231 15.208-4.755 25.643-18.925 25.358-34.876-.744-41.676 18.063-80.404 11.858-123.592-9.66-67.243-44.664-96.272-81.083-105.713z" fill="#ff5872"/><path d="m347.382 403.719c-23.07-34.696-60.542-55.827-79.98-94.877-1.385-2.783-2.681-5.53-3.89-8.242-6.071-13.616-8.085-28.771-5.115-43.381.623-3.062 1.382-5.846 2.271-8.006 1.847-4.489 1.412-9.767-.026-14.403-1.505-4.852-6.247-8.852-5.907-13.972 1.261-18.953 10.877-35.39 19.274-45.129 11.668-13.533 27.947-21.816 45.169-23.721-22.608-2.54-45.445 6.195-60.554 23.719-24.584 28.515-36.873 72.331-6.608 133.132 19.438 39.05 56.911 60.181 79.98 94.877 8.223 12.367 23.215 18.162 37.52 15.059-8.846-1.925-16.874-7.146-22.134-15.056z" fill="#ff7f90"/><path d="m409.884 259.48c-9.661-67.244-44.664-96.272-81.083-105.713-8.772-2.274-17.75-2.746-26.46-1.595 2.761.365 5.517.883 8.253 1.592 36.419 9.441 71.423 38.47 81.083 105.713 4.031 28.056-2.494 54.23-7.357 80.553-.962 5.206 1.814 17.125 1.077 22.359-1.273 9.038-5.744 11.433-5.578 20.68.297 16.634-11.041 31.212-27.074 35.362 23.142 6.01 45.703-11.75 45.282-35.358-.746-41.677 18.061-80.405 11.857-123.593z" fill="#db4968"/><ellipse cx="270.029" cy="277.859" fill="#ff7f90" rx="5.781" ry="9.399" transform="matrix(.994 -.111 .111 .994 -29.253 31.787)"/><circle cx="268.666" cy="216.489" fill="#ff7f90" r="5.822"/><ellipse cx="377.005" cy="361.928" fill="#db4968" rx="5.433" ry="3.536" transform="matrix(.261 -.965 .965 .261 -70.793 631.377)"/><ellipse cx="122.847" cy="340.273" fill="#ff7f90" rx="4.964" ry="5.925" transform="matrix(.942 -.337 .337 .942 -107.483 61.301)"/><ellipse cx="207.043" cy="285.58" fill="#db4968" rx="4.767" ry="6.447"/><path d="m181.591 99.876c-73.566 17.598-107.594-52.443-107.594-52.443 46.654-37.988 91.354-34.222 129.247-2.205l7.683 6.623c10.937 9.428 10.164 26.601-1.476 35.041-8.37 6.068-17.804 10.579-27.86 12.984z" fill="#69da61"/><path d="m73.997 47.433s1.483 3.045 4.485 7.698c9.167 5.97 20.723 9.541 33.293 9.541 28.257 0 51.418-17.997 53.696-40.891-28.539-8.783-59.549-2.343-91.474 23.652z" fill="#5ab161"/><path d="m225.787 86.308c82.395 13.646 101.206-65.67 101.206-65.67-48.452-24.226-87.006-12.133-114.041 23.455l-5.456 7.331c-7.777 10.449-3.707 25.386 8.159 30.509z" fill="#a8ffa9"/><path d="m256.127 11.568c-.077.922-.129 1.849-.129 2.788 0 21.108 19.749 38.22 44.11 38.22 4.49 0 8.822-.585 12.904-1.666 10.501-15.623 13.982-30.272 13.982-30.272-26.728-13.363-50.436-15.656-70.867-9.07z" fill="#c9ffd2"/><g fill="#231f20"><path d="m440.166 426.308c-28.49-8.025-35.211-23.073-36.684-28.05 1.736-4.838 2.637-10.016 2.542-15.329-.857-47.981 22.555-81.626 8.449-142.484-.997-4.305-5.294-6.989-9.6-5.988-4.304.998-6.985 5.296-5.987 9.6 13.147 56.728-9.759 88.817-8.859 139.158.218 12.251-7.902 23.395-19.747 27.098-11.841 3.705-24.844-.832-31.622-11.025-29.805-44.826-74.601-60.445-92.298-127.31-1.131-4.271-5.508-6.817-9.781-5.687-4.271 1.13-6.817 5.509-5.687 9.78 2.846 10.753 7.042 21.922 12.452 33.215-.444.794-.766 1.673-.919 2.624-6.643 41.278-35.904 72.471-47.886 113.462-3.437 11.756-14.501 19.967-26.907 19.967s-23.471-8.211-26.907-19.967c-12.008-41.079-41.227-72.08-47.886-113.461-6.056-37.633-3.64-88.486 42.261-117.046 19.764-12.298 45.303-12.296 65.064 0 11.334 7.051 20.665 15.947 27.785 26.465-1.309 7.24-1.918 14.722-1.766 22.45.086 4.364 3.65 7.843 7.996 7.843 4.484 0 8.09-3.679 8.001-8.157-.149-7.539.395-14.84 2.01-21.802.026-.113.054-.225.078-.337 8.666-40.168 42.744-70.131 82.524-59.816 20.555 5.329 37.407 16.45 50.089 33.055 2.682 3.513 7.702 4.184 11.214 1.502 3.511-2.682 4.184-7.702 1.502-11.213-21.81-28.555-58.417-46.01-91.754-40.036-40.093-6.657-58.14-30.199-66.248-49.641 34.54 3.776 62.373-7.949 81.856-31.486 12.44-15.029 20.576-35.198 21.47-42.018.443-3.383-1.314-6.67-4.351-8.191-49.156-24.578-92.283-15.107-123.208 24.782-45.061-37.381-93.91-33.276-138.417 2.965-2.879 2.344-3.767 6.36-2.145 9.699.377.775 9.441 19.176 28.172 35.376 20.016 17.311 44.399 26.234 71.534 24.064-9.977 22.713-9.343 47.039-8.013 59.836-32.538 3.8-60.892 29.373-73.959 59.547-10.219 23.598-12.74 52.095-7.494 84.7 7.21 44.805 36.943 76.472 48.325 115.408 1.974 6.754 5.543 12.761 10.217 17.675-1.182 12.555-4.276 32.792-12.345 49.278-1.942 3.968-.3 8.76 3.669 10.702 3.96 1.937 8.755.31 10.702-3.669 7.388-15.093 11.059-32.571 12.885-45.994 3.239 1.37 6.658 2.362 10.193 2.929-1.502 12.776-.514 30.782 11.258 47.771 1.554 2.242 4.047 3.444 6.583 3.444 6.356 0 10.275-7.208 6.568-12.558-9.66-13.94-9.755-29.046-8.206-39.094 4.658-1.006 9.082-2.756 13.118-5.131 1.69 12.329 6.354 27.737 18.177 40.587 2.987 3.246 8.048 3.466 11.304.471 3.251-2.992 3.462-8.053.471-11.305-13.751-14.945-15.069-34.946-14.794-44.534 7.769-12.534.555-10.428 26.278-58.269 8.915-16.58 18.061-33.618 23.473-52.857 21.145 30.443 51.294 50.08 70.416 78.84 4.943 7.434 11.978 12.946 19.943 16.169.314 8.312-.534 25.816-11.75 37.253-3.093 3.154-3.044 8.22.11 11.313 3.149 3.089 8.216 3.048 11.313-.11 13.744-14.015 16.259-33.443 16.358-45.208 3.423.047 6.605-.248 10.07-1.01 2.501 10.961 9.339 28.261 28.067 42.08 3.54 2.611 8.552 1.884 11.187-1.688 2.624-3.556 1.868-8.563-1.687-11.188-16.807-12.402-21.34-28.091-22.562-35.604 2.626-1.759 5.038-3.79 7.211-6.039 6.222 9.43 18.419 20.885 42.232 27.592 4.27 1.202 8.676-1.295 9.869-5.531 1.203-4.25-1.274-8.668-5.527-9.867zm-168.271-271.903c-18.493 10.857-31.695 30.123-38.556 47.768-14.747-16.866-34.945-30.085-58.757-32.193-1.411-12.251-2.668-40.844 11.97-63.149 9.665-2.711 18.866-7.175 27.391-13.322 6.085 18.301 21.221 46.912 57.952 60.896zm38.423-132.325c-9.731 5.637-24.221 12.295-38.416 12.295-4.418 0-8 3.582-8 8s3.582 8 8 8c13.959 0 27.671-4.879 38.466-10.189-11.285 20.033-35.253 45.784-82.324 38.384-6.648-3.35-11.489-3.623-14.652-8.626-5.159-8.16 1.528-14.923 1.67-15.286 6.832-7.059 33.534-55.476 95.256-32.578zm-215.248 41.768c13.221 2.623 27.075 2.742 40.547 1.493 4.399-.407 7.636-4.305 7.228-8.704s-4.315-7.634-8.704-7.228c-21.423 1.987-35.938-.692-44.697-3.521 17.593-11.97 35.151-17.974 52.389-17.81 31.762.285 53.206 21.39 56.375 23.371-4.653 9.921-3.178 22.024 4.28 30.549-12.553 8.437-22.214 9.739-23.671 10.303-33.571 7.713-61.963-3.526-83.747-28.453z"/><path d="m389.857 213.144c-1.228 6.388 5.115 11.363 10.9 8.95 3.973-1.623 6.053-6.231 4.33-10.45-1.49-3.569-5.305-5.523-8.95-4.779-3.192.624-5.665 3.15-6.28 6.279z"/><path d="m125.803 219.076c-16.694 19.919-21.188 43.008-21.371 43.98-.927 4.927 2.861 9.472 7.869 9.472 3.76 0 7.114-2.668 7.852-6.495.038-.199 3.993-20.071 17.913-36.68 2.838-3.387 2.394-8.432-.993-11.271-3.387-2.838-8.433-2.393-11.27.994z"/></g></svg>