<svg id="Layer_1" enable-background="new 0 0 511.982 511.982" height="512" viewBox="0 0 511.982 511.982" width="512" xmlns="http://www.w3.org/2000/svg"><path d="m202.906 106.667c-11.951.507-23.912.507-35.863 0-47.882-2.033-174.026 6.301-157.595 153.015 16.447 146.859 140.289 117.706 175.527 119.621 35.237-1.915 159.08 27.238 175.526-119.621 16.431-146.714-109.713-155.048-157.595-153.015z" fill="#ffb750"/><path d="m32.971 272.22c-1.148-10.249-6.878-16.253-6.709-25.196.119-6.29 5.822-15.836 6.528-21.516 12.663-101.839 115.592-108.095 157.776-106.303 11.951.507 23.912.507 35.863 0 20.575-.874 55.599.179 87.553 13.291-36.704-24.993-85.261-26.925-111.077-25.829-11.951.507-23.912.507-35.863 0-47.882-2.033-174.026 6.301-157.595 153.015 7.61 67.955 38.216 98.221 72.398 111.32-23.916-17.093-43.074-46.992-48.874-98.782z" fill="#ffe070"/><path d="m325.692 141.675c-50.627 9.005-90.038 42.361-118.945 82.772-4.77 6.668-12.045 5.488-13.669 12.111-1.743 7.109 1.574 12.545.258 16.115-6.173 16.746-10.21 34.694-10.572 53.421-.154 7.942 8.616 9.862 7.896 18.976-.675 8.552-5.686 13.39-5.428 18.015 2.201 12.61 5.758 24.753 10.512 36.275 44.719 1.709 149.707 14.715 164.757-119.678 6.591-58.854-9.77-95.426-34.809-118.007z" fill="#ea8e50"/><path d="m184.974 96.731c-48.505-28.18-103.331-16.074-113.056 23.279 31.178 18.571 72.413 12.867 72.413 12.867 4.052 40.964 40.643 55.847 40.643 55.847s36.591-14.883 40.643-55.847c0 0 41.235 5.704 72.413-12.867-9.724-39.353-64.551-51.459-113.056-23.279z" fill="#69da61"/><path d="m205.582 108.071c34.494-12.009 68.555-5.162 84.537 16.061 2.686-1.22 5.334-2.586 7.912-4.122-9.724-39.354-64.551-51.459-113.056-23.279-48.506-28.18-103.332-16.074-113.057 23.279 2.578 1.536 5.225 2.902 7.912 4.122 15.982-21.224 50.043-28.07 84.537-16.061 13.319 4.637 27.896 4.637 41.215 0z" fill="#87eda8"/><ellipse cx="356.24" cy="312.949" fill="#ffe070" rx="147.742" ry="148.043"/><ellipse cx="356.24" cy="312.949" fill="#fff2b9" rx="114.979" ry="115.213"/><ellipse cx="356.24" cy="312.949" fill="#ffce66" rx="56.842" ry="56.957"/><ellipse cx="178.152" cy="325.501" fill="#ea8e50" rx="4.612" ry="5.966"/><ellipse cx="199.351" cy="218.951" fill="#ea8e50" rx="5.891" ry="3.459" transform="matrix(.65 -.76 .76 .65 -96.612 228.242)"/><ellipse cx="37.076" cy="247.716" fill="#ffe070" rx="4.128" ry="6.269"/><g fill="#231f20"><path d="m349.375 157.077c-10.587-16.127-25.196-29.126-43.543-38.766-.016-.073-.018-.146-.036-.22-4.282-17.329-16.377-31.002-34.056-38.5-23.94-10.154-55.19-7.688-83.277 6.199.955-9.414 3.393-20.487 8.891-31.125 2.028-3.925.49-8.751-3.435-10.78-3.928-2.026-8.752-.49-10.78 3.435-6.122 11.847-9.055 24.004-10.338 34.581-56.623-22.834-101.328 2.554-108.687 36.415-53.756 28.241-69.429 81.415-62.616 142.257 6.47 57.771 30.125 96.425 70.31 114.886 23.344 10.724 48.62 13.014 70.107 13.014 24.988-.003 30.462-2.267 61.387-.762 5.055.245 10.653.515 16.637.658 26.581 48.033 77.71 80.623 136.302 80.623 85.877 0 155.742-70.001 155.742-156.043-.001-88.435-73.789-159.801-162.608-155.872zm-244.919-62.756c19.064-8.086 44.203-6.214 67.497 4.634.166 7.988 1.066 13.224 1.163 13.76.785 4.36 4.95 7.235 9.29 6.457 4.349-.783 7.239-4.942 6.456-9.291-.014-.077-.384-2.238-.654-5.845.266-.118.53-.241.785-.389 40.294-23.407 86.972-17.154 99.361 12.478-22.621 10.884-42.467 9.443-62.451 8.754-4.213-.156-7.83 3.008-8.247 7.209-2.126 21.488-15.167 38.484-32.68 47.766-8.14-4.315-29.783-18.438-32.684-47.766-.404-4.087-3.866-7.259-8.076-7.205-.525.008-33.772 5.14-62.623-8.757 5.017-11.994 14.913-18.434 22.863-21.805zm251.784 358.671c-117.1 0-181.328-135.935-109.721-226.779 2.741-3.477 2.127-8.509-1.331-11.235-3.471-2.735-8.499-2.139-11.235 1.331-36.633 46.474-41.988 106.834-21.886 155.79-17.223-.719-23.787-1.456-46.192-.369-22.996 1.119-57.752 2.805-87.389-10.81-35.222-16.182-55.204-49.588-61.088-102.128-7.056-63.01 12.323-106.078 57.609-128.075 18.823 8.97 41.87 11.911 62.529 10.779 7.9 39.344 42.847 53.998 44.423 54.639 1.952.793 4.146.766 6.029 0 1.576-.641 36.521-15.295 44.423-54.639 20.692 1.135 43.748-1.829 62.528-10.779 14.731 7.16 26.811 16.622 36.065 28.235-16.137 2.616-31.598 7.742-46.161 15.291-4.789 2.476-8.889 4.187-8.809 9.642.089 6.068 6.677 9.8 11.922 6.848 92.144-51.833 208.026 14.835 208.026 122.216 0 77.219-62.688 140.043-139.742 140.043z"/><path d="m356.24 189.737c-67.812 0-122.979 55.272-122.979 123.212s55.168 123.213 122.979 123.213c42.094 0 80.813-21.217 103.572-56.755 2.384-3.721 1.299-8.668-2.422-11.051-3.721-2.387-8.67-1.299-11.051 2.422-19.805 30.923-53.487 49.384-90.1 49.384-58.988 0-106.979-48.096-106.979-107.213s47.991-107.212 106.979-107.212c69.503 0 120.92 65.845 103.682 133.736-1.087 4.282 1.503 8.636 5.785 9.723 4.282 1.085 8.636-1.503 9.723-5.785 19.851-78.191-39.461-153.674-119.189-153.674z"/><path d="m364.24 244.503c0-4.418-3.582-8-8-8s-8 3.582-8 8v27.868c0 4.418 3.582 8 8 8s8-3.582 8-8z"/><path d="m356.24 345.526c-4.418 0-8 3.582-8 8v27.869c0 4.418 3.582 8 8 8s8-3.582 8-8v-27.869c0-4.418-3.582-8-8-8z"/><path d="m390.536 289.908 19.667-19.706c3.12-3.128 3.115-8.193-.012-11.314-3.129-3.121-8.194-3.116-11.313.012l-19.667 19.706c-3.12 3.128-3.115 8.193.012 11.314 3.155 3.147 8.221 3.088 11.313-.012z"/><path d="m313.601 366.998 19.667-19.706c3.121-3.127 3.116-8.192-.011-11.313-3.128-3.122-8.193-3.117-11.313.011l-19.667 19.706c-3.121 3.127-3.116 8.192.011 11.313 3.118 3.112 8.182 3.126 11.313-.011z"/><path d="m432.547 312.949c0-4.418-3.582-8-8-8h-27.812c-4.418 0-8 3.582-8 8s3.582 8 8 8h27.812c4.418 0 8-3.582 8-8z"/><path d="m323.745 312.949c0-4.418-3.582-8-8-8h-27.812c-4.418 0-8 3.582-8 8s3.582 8 8 8h27.812c4.418 0 8-3.582 8-8z"/><path d="m379.211 347.292 19.667 19.706c3.112 3.118 8.176 3.141 11.313.012 3.127-3.121 3.132-8.187.012-11.314l-19.667-19.706c-3.122-3.127-8.188-3.131-11.313-.012-3.127 3.121-3.132 8.186-.012 11.314z"/><path d="m333.268 278.605-19.667-19.706c-3.122-3.127-8.188-3.132-11.313-.011-3.127 3.121-3.132 8.187-.011 11.313l19.667 19.706c3.112 3.118 8.176 3.142 11.313.011 3.128-3.121 3.133-8.186.011-11.313z"/><path d="m260.612 208.112c3.816 0 7.113-2.721 7.84-6.44.986-5.048-2.879-9.56-7.84-9.56-4.496 0-8 3.665-8 8 0 4.462 3.641 8 8 8z"/></g></svg>