<svg id="Layer_1" enable-background="new 0 0 512 512" height="512" viewBox="0 0 512 512" width="512" xmlns="http://www.w3.org/2000/svg"><path d="m493.214 389.828c-3.961 11.548-12.301 20.891-17.926 31.003-5.945 10.688-9.612 22.669-17.04 31.501-7.896 9.388-19.128 14.907-28.251 21.896-9.754 7.472-18.208 16.77-28.816 21.13-11.273 4.633-23.686 3.725-35.263 4.401-11.788.689-24.076 2.927-35.468-.965-11.393-3.892-19.729-13.175-28.622-20.927-8.733-7.614-19.1-14.487-25.162-25.042-5.705-9.932-6.675-22.45-9.794-34.319-2.917-11.101-8.403-22.33-8.878-34.577-.446-11.522 4.014-23.231 5.88-35.313 1.765-11.431.913-23.914 4.875-35.463 3.961-11.548 12.301-20.891 17.926-31.003 5.945-10.688 9.612-22.669 17.04-31.501 7.896-9.388 19.128-14.907 28.251-21.896 9.754-7.472 18.208-16.77 28.816-21.13 11.273-4.633 23.686-3.725 35.263-4.401 11.788-.689 24.076-2.927 35.468.965 11.393 3.892 19.729 13.175 28.622 20.927 8.733 7.614 19.1 14.487 25.162 25.042 5.705 9.932 6.675 22.45 9.794 34.319 2.917 11.101 8.403 22.33 8.878 34.577.446 11.522-4.014 23.231-5.88 35.313-1.765 11.431-.913 23.915-4.875 35.463z" fill="#ffb750"/><path d="m498.089 354.365c1.866-12.082 6.326-23.791 5.88-35.313-.474-12.247-5.961-23.476-8.878-34.577-3.119-11.869-4.09-24.386-9.794-34.319-6.062-10.555-16.429-17.428-25.162-25.042-7.957-6.938-15.476-15.089-25.132-19.517 3.717 3.222 7.279 6.662 10.932 9.847 8.733 7.614 19.1 14.487 25.163 25.042 5.705 9.933 6.675 22.45 9.794 34.319 2.917 11.101 8.403 22.33 8.878 34.577.446 11.522-4.014 23.231-5.88 35.313-1.765 11.431-.913 23.914-4.875 35.462-3.961 11.548-12.301 20.891-17.926 31.003-5.946 10.689-9.612 22.67-17.04 31.502-7.897 9.388-19.128 14.907-28.251 21.896-9.754 7.472-18.208 16.77-28.816 21.13-11.273 4.633-23.686 3.725-35.263 4.401-13.644.797-26.411 3.379-38.958-2.375 5.329 4.62 10.977 8.787 17.689 11.08 11.393 3.892 23.68 1.654 35.468.965 11.577-.676 23.991.233 35.263-4.401 10.608-4.36 19.062-13.658 28.816-21.13 9.123-6.988 20.355-12.507 28.251-21.896 7.429-8.832 11.095-20.813 17.04-31.501 5.625-10.112 13.964-19.455 17.926-31.003 3.962-11.549 3.11-24.032 4.875-35.463z" fill="#ea8e50"/><path d="m280.652 433.712c-2.917-11.101-8.403-22.33-8.878-34.577-.446-11.521 4.014-23.231 5.88-35.313 1.765-11.431.913-23.914 4.875-35.462 3.961-11.548 12.301-20.891 17.926-31.003 5.945-10.688 9.612-22.669 17.04-31.501 7.896-9.388 19.128-14.907 28.251-21.896 9.754-7.472 18.208-16.77 28.816-21.13 11.272-4.633 23.686-3.725 35.263-4.401 11.788-.688 24.075-2.927 35.468.965s19.729 13.175 28.622 20.927c3.513 3.063 7.288 6.009 10.943 9.12-6.113-10.147-16.193-16.887-24.724-24.325-8.892-7.753-17.228-17.036-28.622-20.927-11.393-3.892-23.681-1.653-35.468-.965-11.577.676-23.991-.232-35.263 4.401-10.608 4.36-19.062 13.658-28.816 21.13-9.123 6.988-20.355 12.507-28.251 21.896-7.429 8.832-11.095 20.813-17.04 31.501-5.625 10.112-13.964 19.455-17.926 31.003s-3.11 24.032-4.875 35.463c-1.866 12.082-6.326 23.791-5.88 35.313.474 12.247 5.961 23.476 8.878 34.577 3.119 11.869 4.09 24.386 9.794 34.319 3.624 6.309 8.788 11.299 14.219 15.922-6.154-10.225-6.989-22.697-10.232-35.037z" fill="#ffe070"/><path d="m460.145 382.048c-2.52 7.345-7.824 13.288-11.401 19.72-3.781 6.799-6.113 14.419-10.838 20.037-5.022 5.972-12.166 9.482-17.968 13.927-6.204 4.753-11.581 10.667-18.327 13.441-7.169 2.947-15.064 2.37-22.427 2.8-7.497.438-15.312 1.862-22.557-.613-7.246-2.475-12.547-8.379-18.202-13.31-5.554-4.843-12.147-9.214-16.002-15.927-3.628-6.317-4.245-14.279-6.228-21.828-1.855-7.06-5.344-14.202-5.645-21.992-.284-7.328 2.554-14.776 3.74-22.461 1.123-7.271.581-15.211 3.101-22.556s7.824-13.288 11.401-19.72c3.781-6.799 6.113-14.419 10.838-20.037 5.022-5.972 12.166-9.482 17.968-13.927 6.204-4.753 11.581-10.667 18.327-13.441 7.169-2.947 15.064-2.37 22.427-2.8 7.497-.438 15.312-1.862 22.557.613 7.246 2.475 12.547 8.379 18.202 13.31 5.554 4.843 12.147 9.214 16.002 15.927 3.628 6.317 4.245 14.279 6.228 21.828 1.855 7.06 5.344 14.202 5.645 21.992.284 7.328-2.554 14.776-3.74 22.461-1.122 7.271-.581 15.21-3.101 22.556z" fill="#ea8e50"/><path d="m429.052 371.427c-1.422 4.145-4.415 7.499-6.435 11.129-2.134 3.837-3.45 8.138-6.117 11.308-2.835 3.37-6.866 5.352-10.141 7.86-3.501 2.682-6.536 6.02-10.344 7.586-4.046 1.663-8.502 1.337-12.657 1.58-4.231.247-8.642 1.051-12.731-.346s-7.081-4.729-10.273-7.512c-3.135-2.733-6.856-5.2-9.031-8.989-2.048-3.565-2.396-8.059-3.515-12.319-1.047-3.985-3.016-8.016-3.186-12.412-.16-4.136 1.441-8.339 2.111-12.676.634-4.103.328-8.585 1.75-12.73s4.415-7.499 6.435-11.129c2.134-3.837 3.45-8.138 6.117-11.308 2.834-3.37 6.866-5.352 10.141-7.86 3.501-2.682 6.536-6.02 10.344-7.586 4.046-1.663 8.502-1.337 12.657-1.58 4.231-.247 8.642-1.051 12.731.346s7.081 4.729 10.273 7.512c3.135 2.733 6.856 5.2 9.031 8.989 2.048 3.565 2.396 8.059 3.515 12.319 1.047 3.985 3.016 8.016 3.186 12.412.16 4.136-1.441 8.339-2.111 12.676-.634 4.103-.328 8.584-1.75 12.73z" fill="#d27a50"/><path d="m320.041 214.38c0 15.942-6.389 31.007-9.072 45.877-2.836 15.717-2.284 32.07-7.757 46.119-5.818 14.934-17.439 26.495-25.808 38.982-8.948 13.35-15.499 28.409-26.837 38.274-12.049 10.484-27.883 14.601-42.001 20.323-14.374 5.826-28.709 13.779-44.546 13.779-15.838 0-30.174-7.952-44.548-13.779-14.117-5.723-29.951-9.84-42-20.323-11.338-9.866-17.889-24.924-26.837-38.274-8.368-12.486-19.988-24.046-25.807-38.98-5.474-14.049-4.921-30.401-7.757-46.118-2.682-14.871-9.071-29.937-9.071-45.88 0-15.942 6.389-31.008 9.071-45.877 2.836-15.717 2.284-32.07 7.757-46.119 5.818-14.934 17.439-26.495 25.808-38.982 8.948-13.35 15.499-28.409 26.837-38.274 12.049-10.484 27.883-14.601 42.001-20.323 14.374-5.826 28.709-13.779 44.546-13.779 15.838 0 30.174 7.952 44.548 13.779 14.117 5.723 29.951 9.84 42 20.323 11.338 9.866 17.889 24.924 26.837 38.274 8.368 12.486 19.988 24.046 25.806 38.98 5.474 14.049 4.921 30.401 7.757 46.118 2.684 14.871 9.073 29.937 9.073 45.88z" fill="#ffb750"/><path d="m310.969 168.5c-2.836-15.717-2.284-32.069-7.757-46.118-5.818-14.934-17.438-26.494-25.806-38.98-8.948-13.35-15.498-28.408-26.837-38.274-12.049-10.484-27.883-14.601-42-20.323-12.863-5.214-25.698-12.113-39.604-13.509 6 2.413 11.901 5.16 17.807 7.554 14.117 5.723 29.951 9.84 42 20.323 11.338 9.866 17.889 24.924 26.837 38.274 8.368 12.486 19.988 24.046 25.806 38.98 5.474 14.049 4.921 30.401 7.757 46.118 2.683 14.87 9.072 29.937 9.072 45.879s-6.389 31.008-9.071 45.877c-2.836 15.718-2.284 32.071-7.757 46.12-5.818 14.934-17.439 26.495-25.807 38.982-8.948 13.351-15.499 28.409-26.837 38.274-12.049 10.484-27.883 14.601-42.001 20.323-16.694 6.767-31.44 15.322-49.491 13.509 8.603 3.46 17.41 6.225 26.741 6.225 15.838 0 30.172-7.952 44.546-13.779 14.117-5.723 29.952-9.839 42.001-20.323 11.339-9.865 17.889-24.924 26.837-38.274 8.369-12.486 19.989-24.047 25.808-38.982 5.474-14.049 4.921-30.402 7.757-46.119 2.683-14.87 9.072-29.935 9.072-45.877-.001-15.943-6.39-31.009-9.073-45.88z" fill="#ea8e50"/><path d="m74.274 358.331c-8.368-12.486-19.988-24.046-25.807-38.98-5.473-14.049-4.921-30.401-7.757-46.118-2.683-14.87-9.072-29.937-9.072-45.879s6.389-31.008 9.071-45.878c2.836-15.717 2.284-32.07 7.757-46.119 5.818-14.934 17.439-26.495 25.808-38.982 8.948-13.351 15.499-28.409 26.837-38.274 12.049-10.484 27.883-14.601 42.001-20.323 14.374-5.826 28.709-13.779 44.546-13.779 15.838 0 30.174 7.952 44.548 13.779 5.679 2.302 11.634 4.349 17.51 6.65-11.938-9.958-27.358-14.033-41.148-19.623-14.375-5.827-28.71-13.779-44.548-13.779s-30.172 7.953-44.546 13.779c-14.117 5.723-29.952 9.84-42.001 20.323-11.338 9.865-17.889 24.924-26.837 38.274-8.369 12.486-19.989 24.047-25.808 38.982-5.474 14.049-4.921 30.402-7.757 46.119-2.682 14.87-9.071 29.935-9.071 45.877s6.389 31.009 9.072 45.879c2.836 15.717 2.284 32.069 7.757 46.118 5.818 14.934 17.438 26.494 25.807 38.98 8.948 13.35 15.498 28.408 26.837 38.274 7.202 6.266 15.758 10.254 24.49 13.674-12.011-10.026-18.428-25.156-27.689-38.974z" fill="#ffe070"/><path d="m269.217 214.38c0 10.749-4.308 20.907-6.116 30.933-1.912 10.598-1.54 21.623-5.23 31.096-3.923 10.07-11.758 17.864-17.401 26.283-6.033 9.002-10.45 19.155-18.095 25.806-8.124 7.069-18.8 9.844-28.319 13.703-9.692 3.928-19.357 9.29-30.035 9.29-10.679 0-20.345-5.362-30.036-9.291-9.518-3.858-20.195-6.634-28.318-13.703-7.645-6.652-12.062-16.805-18.095-25.806-5.642-8.419-13.477-16.213-17.4-26.282-3.691-9.473-3.318-20.498-5.23-31.095-1.809-10.026-6.117-20.185-6.117-30.934s4.308-20.907 6.116-30.933c1.912-10.597 1.54-21.623 5.23-31.096 3.923-10.07 11.758-17.864 17.401-26.283 6.033-9.002 10.45-19.155 18.095-25.806 8.124-7.069 18.8-9.844 28.319-13.703 9.692-3.928 19.357-9.29 30.035-9.29 10.679 0 20.345 5.362 30.036 9.291 9.518 3.858 20.195 6.634 28.318 13.703 7.645 6.652 12.062 16.805 18.095 25.806 5.642 8.419 13.477 16.213 17.4 26.282 3.691 9.473 3.318 20.498 5.23 31.095 1.809 10.026 6.117 20.185 6.117 30.934z" fill="#ea8e50"/><path d="m225.662 214.38c0 6.298-2.524 12.251-3.584 18.125-1.12 6.21-.902 12.67-3.065 18.221-2.299 5.9-6.89 10.468-10.196 15.401-3.535 5.275-6.123 11.224-10.603 15.122-4.76 4.142-11.016 5.769-16.594 8.029-5.679 2.302-11.342 5.444-17.6 5.444-6.257 0-11.921-3.142-17.6-5.444-5.577-2.261-11.833-3.887-16.594-8.029-4.48-3.898-7.068-9.847-10.603-15.122-3.306-4.933-7.897-9.5-10.196-15.4-2.163-5.551-1.944-12.011-3.065-18.221-1.06-5.875-3.584-11.828-3.584-18.126s2.524-12.251 3.584-18.125c1.12-6.21.902-12.67 3.065-18.221 2.299-5.9 6.89-10.468 10.196-15.401 3.535-5.275 6.123-11.224 10.603-15.122 4.76-4.142 11.016-5.769 16.594-8.029 5.679-2.302 11.342-5.444 17.6-5.444 6.257 0 11.921 3.142 17.6 5.444 5.577 2.261 11.833 3.887 16.594 8.029 4.48 3.898 7.068 9.847 10.603 15.122 3.306 4.933 7.897 9.5 10.196 15.4 2.163 5.551 1.944 12.011 3.065 18.221 1.06 5.875 3.584 11.827 3.584 18.126z" fill="#d27a50"/><ellipse cx="114.542" cy="66.703" fill="#ffe070" rx="10.237" ry="8.509" transform="matrix(.815 -.58 .58 .815 -17.456 78.773)"/><ellipse cx="59.397" cy="317.569" fill="#ffe070" rx="5.151" ry="7.412" transform="matrix(.902 -.432 .432 .902 -131.474 56.904)"/><ellipse cx="269.217" cy="303.987" fill="#ea8e50" rx="7.319" ry="4.941" transform="matrix(.42 -.908 .908 .42 -119.692 420.762)"/><ellipse cx="379.981" cy="232.256" fill="#ffe070" rx="7.061" ry="3.657" transform="matrix(.98 -.201 .201 .98 -38.85 80.9)"/><ellipse cx="205.437" cy="180.264" fill="#ea8e50" rx="6.205" ry="8.485" transform="matrix(.815 -.58 .58 .815 -66.463 152.515)"/><ellipse cx="359.439" cy="372.374" fill="#ea8e50" rx="5.032" ry="8.754" transform="matrix(.979 -.206 .206 .979 -68.887 81.864)"/><g fill="#231f20"><path d="m471.056 319.33c-4.561-13.574-3.862-21.147-9.005-30.104-4.964-8.641-11.772-12.509-20.889-20.867-13.75-12.618-20.347-14.882-38.968-13.312-12.329 1.034-20.053-.091-29.313 3.714-9.482 3.899-13.813 10.442-25.597 18.278-22.177 14.754-16.813 20.03-29.409 38.834-8.134 12.147-9.757 16.859-10.788 31.45-1.113 15.7-4.952 20.467-4.533 31.287.355 9.172 4.163 17.084 5.9 23.712 1.121 4.272 5.493 6.831 9.768 5.709 4.274-1.121 6.83-5.494 5.709-9.768-1.886-7.2-5.143-13.924-5.389-20.272-.296-7.636 3.333-12.984 4.505-29.539.834-11.78 1.555-13.87 8.122-23.676 8.964-13.382 9.74-20.341 14.581-26.1 4.854-5.77 10.579-7.284 22.515-17.514 9.693-8.309 11.601-9.243 25.294-9.618 12.454-.341 18.805-2.037 24.764-.002 5.971 2.04 9.871 7.206 19.563 15.142 14.348 11.748 11.07 12.688 15.718 30.386 4.425 16.866 7.557 15.226 3.528 32.493-3.924 16.809-1.89 22.121-4.555 29.888-2.61 7.608-7.624 10.919-14.755 26.401-8.407 18.247-9.738 12.189-28.554 28.315-13.773 11.807-13.49 8.342-35.268 10.173-17.221 1.447-17.074-.769-30.319-12.321-3.33-2.903-8.384-2.559-11.287.771-2.904 3.33-2.559 8.384.771 11.287 10.777 9.398 16.895 16.697 33.223 16.697 6.133 0 8.587-.735 18.025-.995 27.681-.758 26.902-8.898 45.835-21.488 13.088-8.707 16.085-12.676 22.105-25.745 6.383-13.86 11.832-17.627 15.357-27.904 2.93-8.544 2.392-17.153 3.439-23.931 2.667-17.215 7.259-19.471-.093-41.381z"/><path d="m393.47 298.804c-3.838.223-9.272-.122-14.673 2.098-5.746 2.362-8.348 6.148-14.447 10.2-12.792 8.508-10.556 12.514-16.888 21.969-1.666 2.487-3.554 5.306-4.769 8.848-1.434 4.18.792 8.729 4.972 10.163 4.171 1.431 8.727-.785 10.163-4.972 1.222-3.561 3.794-5.15 7.82-13.896 2.348-5.093 2.595-5.485 7.563-8.789 6.868-4.569 9.042-7.643 11.669-8.724 2.239-.921 5.814-.707 9.525-.924 4.41-.258 7.776-4.043 7.519-8.454-.259-4.412-4.037-7.8-8.454-7.519z"/><path d="m392.654 399.633c-2.462 1.013-5.835.591-12.16 1.122-7.963.665-6.967.058-13.628-5.753-3.33-2.904-8.384-2.559-11.287.771-2.904 3.33-2.559 8.384.771 11.287 8.939 7.796 11.914 10.781 25.48 9.638 6.577-.549 11.22.071 16.907-2.267 4.086-1.681 6.037-6.354 4.357-10.441-1.68-4.086-6.356-6.038-10.44-4.357z"/><path d="m427.275 378.821c7.658 0 8.694-7.737 9.232-15.317.551-7.835 2.699-10.862 2.452-17.277-.17-4.415-3.922-7.837-8.302-7.687-4.415.17-7.856 3.888-7.687 8.302.126 3.261-1.786 6.515-2.425 15.533-.155 2.203-.303 4.283-.84 5.848-1.782 5.202 2.101 10.598 7.57 10.598z"/><path d="m273.399 236.617c5.102-19.055 5.11-25.391 0-44.477-5.47-20.427-2.964-29.576-8.075-42.694-1.604-4.117-6.244-6.156-10.358-4.55-4.117 1.604-6.154 6.241-4.55 10.358 3.976 10.207 1.817 19.688 7.527 41.024 4.359 16.277 4.372 19.875 0 36.199-9.185 34.311 1.197 32.583-17.905 57.324-12.533 16.235-15.206 25.951-22.915 32.66-7.409 6.445-16.627 8.156-32.063 14.87-7.28 3.167-14.156 6.158-21.04 6.158-9.648 0-17.687-5.335-33.788-11.283-29.119-10.769-20.367-14.082-42.232-42.406-10.885-14.1-11.937-17.262-13.644-33.93-3.481-34.017-12.086-30.361-4.26-59.592 8.99-33.567-1.127-32.672 17.905-57.323 12.54-16.238 15.204-25.95 22.916-32.66 7.404-6.444 16.709-8.194 32.058-14.868 18.894-8.22 23.199-8.219 42.093.002 11.869 5.165 16.134 6.08 22.632 9.057 4.016 1.841 8.765.078 10.605-3.94 1.84-4.017.076-8.765-3.94-10.604-7.573-3.47-11.131-4.055-22.913-9.184-8.069-3.511-17.216-7.49-27.433-7.49-10.216 0-19.36 3.979-27.428 7.488-27.591 12.005-34.444 9.4-50.74 36.879-10.357 17.464-18.065 22.793-23.137 35.812-4.182 10.734-3.801 22.34-5.649 32.579-1.749 9.696-6.244 20.253-6.244 32.354 0 7.979 1.941 15.229 3.818 22.238 8.219 30.682-1.205 34.6 20.695 62.961 20.578 26.655 14.673 34.812 49.347 47.636 16.489 6.095 25.825 12.276 39.337 12.276 12.546 0 23.431-5.984 33.041-9.876 9.371-3.799 21.183-6.92 30.564-15.082 10.37-9.022 12.668-18.88 25.078-34.952 22.022-28.522 12.454-32.178 20.698-62.964z"/><path d="m161.819 285.98c-3.025 0-6.462-1.496-10.102-3.079-15.372-6.698-15.464-3.964-22.118-15.188-6.271-10.568-9.832-12.763-11.803-17.821-1.604-4.116-6.241-6.156-10.358-4.55-4.117 1.604-6.154 6.241-4.55 10.358 3.001 7.703 7.327 10.693 12.949 20.174 2.261 3.814 4.825 8.137 8.723 11.528 5.726 4.982 12.518 6.76 17.778 8.895 5.731 2.323 11.771 5.683 19.481 5.683 4.418 0 8-3.582 8-8s-3.581-8-8-8z"/><path d="m212.91 241.163c-1.307 12.763-2.801 10.402-10.301 21.597-3.592 5.36.339 12.454 6.639 12.454 5.008 0 6.518-3.537 9.577-7.501 2.601-3.369 5.549-7.188 7.428-12.013 3.043-7.812 1.652-12.963 4.553-23.795 1.04-3.881 2.217-8.279 2.217-13.132 0-4.418-3.582-8-8-8s-8 3.582-8 8c0 5.706-2.809 9.641-4.113 22.39z"/><path d="m162.089 126.78c-8.307 0-13.701 3.586-22.827 6.957-18.351 6.787-18.326 12.282-25.751 23.355-3.589 5.355.33 12.455 6.638 12.455 5.21 0 7.006-3.923 9.72-8.5 6.654-11.224 6.723-8.488 22.123-15.19 3.638-1.582 7.074-3.077 10.098-3.077 4.418 0 8-3.582 8-8s-3.582-8-8.001-8z"/><path d="m230.95 125.545c3.163 3.163 8.232 3.099 11.31 0 3.977-3.862 2.728-10.864-2.6-13.04-8.137-3.377-14.856 7.073-8.71 13.04z"/><path d="m511.963 318.743c-.604-15.588-6.881-24.312-11.465-46.728-1.791-8.749-3.643-17.796-8.264-25.843-7.347-12.789-18.151-19.035-31.971-31.716-7.598-6.972-15.455-14.181-26.166-17.84-14.29-4.882-25.973-1.645-46.154-1.096-36.424.997-38.535 9.536-60.31 26.463 2.216-21.553-5.638-37.425-8.791-54.905-2.806-15.541-2.192-32.245-8.176-47.602-7.302-18.741-18.533-26.397-34.036-52.542-16.059-27.083-23.333-34.007-55.607-45.942-24.173-8.941-37.707-17.968-57.002-17.968-19.279 0-32.878 9.045-57 17.967-11.968 4.426-24.343 9.003-34.798 18.1-8.883 7.729-14.946 17.954-20.81 27.842-15.557 26.229-26.743 33.82-34.038 52.545-5.965 15.311-5.406 32.258-8.176 47.604-2.619 14.515-9.199 30.01-9.199 47.298 0 11.327 2.812 21.827 5.531 31.982 8.21 30.66 4.478 44.014 11.844 62.92 4.371 11.219 11.388 20.308 18.175 29.098 18.358 23.78 21.926 38.457 36.671 51.287 13.356 11.621 29.927 15.896 44.246 21.702 14.944 6.059 29.83 14.365 47.553 14.365 14.346 0 26.949-5.483 39.137-10.786 21.781-9.476 34.426-11.875 47.94-21.565 1.151 5.913 3.015 11.48 4.842 16.923 7.083 21.103 6.289 33.445 13.79 46.504 7.334 12.772 18.083 18.979 31.975 31.719 21.333 19.575 30.478 22.029 57.779 19.739 18.854-1.578 31.096.099 44.74-5.511 14.157-5.819 20.321-15.593 39.448-28.311 19.648-13.07 23.918-18.568 33.136-38.58 10.272-22.297 18.653-27.929 23.975-43.442 4.401-12.83 3.504-25.771 5.214-36.837 1.816-11.758 6.465-23.969 5.967-36.844zm-266.647 58.855c-11.633 10.121-25.058 12.468-48.543 22.679-11.178 4.864-21.737 9.458-32.753 9.458-15.326 0-26.652-7.806-51.453-16.975-28.757-10.635-33.217-15.19-47.394-39.097-15.817-26.67-26.722-34.357-32.89-50.189-4.965-12.745-4.455-28.65-7.338-44.634-2.767-15.333-8.945-29.811-8.945-44.46 0-14.545 6.209-29.301 8.945-44.457 2.884-15.99 2.372-31.889 7.338-44.636 6.361-16.325 16.139-21.943 32.892-50.192 20.648-34.822 25.006-28.742 66.096-46.613 11.177-4.863 21.735-9.456 32.75-9.456 15.346 0 27.301 8.045 51.452 16.975 28.736 10.627 33.204 15.165 47.395 39.097 16.83 28.373 26.518 33.835 32.891 50.189 4.964 12.741 4.457 28.667 7.338 44.635 2.764 15.319 8.945 29.806 8.945 44.459 0 14.642-6.18 29.126-8.944 44.456-2.886 15.993-2.372 31.885-7.339 44.636-3.758 9.646-10.423 17.99-16.879 26.361-17.5 22.693-21.511 37.277-33.564 47.764zm247.618-37.799c-6.083 26.097-2.82 34.415-7.287 47.434-4.366 12.726-12.604 18.556-23.371 41.939-8.023 17.412-10.429 20.622-27.466 31.952-20.19 13.427-25.544 22.261-36.67 26.834-10.497 4.316-20.443 2.725-39.994 4.365-23.45 1.966-28.281.329-45.625-15.584-14.344-13.16-23.278-18.078-28.917-27.898-3.339-5.812-4.857-13.23-6.465-21.085-5.418-26.467-12.489-34.029-10.962-49.565 9.607-13.061 10.101-18.755 27.587-41.461 17.612-22.868 20.246-31.857 23.002-58.787 1.651-16.151 2.274-18.576 6.196-33.266 10.799-7.382 11.387-7.157 22.802-16.943 22.991-19.708 24.028-14.217 58.048-17.074 23.461-1.964 28.293-.327 45.636 15.587 25.164 23.086 29.32 19.387 35.377 48.978 4.892 23.902 10.654 31.286 11.151 44.139.245 6.348-1.352 13.191-3.042 20.435z"/></g></svg>