<svg id="Layer_1" enable-background="new 0 0 512 512" height="512" viewBox="0 0 512 512" width="512" xmlns="http://www.w3.org/2000/svg"><circle cx="189.5" cy="279.9" fill="#69da61" r="181.5"/><path d="m203.4 99c12.9 84.8 14.1 261.7 2.5 361.8-10.6.9-21.5 1-32.6 0-11.8-101-10.3-277.7 2.5-361.8 8.9-.7 18.2-.8 27.6 0zm105.7 62.6-7.5-21.5-4.3-6.2c-11.4-8.4-23.7-15.5-36.9-21.1l.7 3c26.5 108.8 26.3 222.4-.5 331.2 14.9-6.3 28.7-14.6 41.3-24.5l7.1-20.5c27.2-77.8 27.2-162.6.1-240.4zm-232-24.2-7.1 20.5c-27.2 77.8-27.2 162.6 0 240.4l7.5 21.5 4.3 6.2c11.4 8.4 23.7 15.5 36.9 21.1l-.7-3c-26.5-108.8-26.3-222.4.5-331.2-15 6.3-28.8 14.6-41.4 24.5z" fill="#a8ffa9"/><path d="m316.9 501.6c103.3 0 187.1-83.8 187.1-187.1h-374.2c0 103.3 83.8 187.1 187.1 187.1z" fill="#ff7f90"/><path d="m153.2 314.5c10.7 86.8 79.9 153.8 163.7 153.8s152.9-67 163.7-153.8z" fill="#ff5872"/><path d="m474.4 314.5c-14.8 50.3-49.8 90.9-94.8 110.7-2.6.5-5.2.7-7.9.6-6.5-.3-17.7-9.7-24.1-10.5-16.1-2-26.6 13.4-42.6 16.3-16.6 3-36.1.7-55.1-8.3-43-20.5-76.3-60.1-90.6-108.8h-6.2c10.7 86.8 79.9 153.8 163.7 153.8s152.9-67 163.7-153.8z" fill="#db4968"/><path d="m292.1 422.1c2.4 0 4.7-1 6.7-2.3 1.7-1.1 3.2-2.6 4-4.5s.6-4.3-.8-5.7c-1.2-1.2-2.9-1.7-4.6-1.9-4.1-.5-6.9.1-10.4 2.7-2.6 1.9-5.5 5.6-3.3 8.9 1.5 2.4 5.8 2.8 8.4 2.8z" fill="#db4968"/><g fill="#231f20"><path d="m504 305.9c-15.7 0-113.3 0-126.8 0 15.6-111.9-69-211.3-179.7-215.9v-36.2c0-19.2 15.6-34.8 34.8-34.8 13.3 0 24.1 10.8 24.1 24.1v9.1c0 7.9-6.4 14.3-14.3 14.3s-14.3-6.4-14.3-14.3v-6.3c0-4.4-3.6-8-8-8s-8 3.6-8 8v6.3c0 16.7 13.6 30.3 30.3 30.3s30.3-13.6 30.3-30.3v-9.1c0-22.1-18-40.1-40.1-40.1-28 0-50.8 22.8-50.8 50.8v36.2c-21.6.9-44.8 5.8-66.3 14.9-34.7 14.8-69.3 46.1-79.6 63.9-19.7 34-18.6 31.9-18.9 32.6-11.1 24.6-16.7 50.8-16.7 78 0 106.7 89 194.2 198.3 189.3 32.9 25.3 74 40.3 118.6 40.3 107.6 0 195.1-87.5 195.1-195.1 0-4.4-3.6-8-8-8zm-143 0h-24.4c3.2-48.6-2.9-96.5-18.4-142.8 36.3 40.2 50.5 92.7 42.8 142.8zm-139.2 0c.5-59.7-1.5-140.7-9.1-198.5 14.3 1.9 28 5.6 40.9 10.7 14.9 61.5 21.2 124.6 18.8 187.8zm-47.4-89.8c.2-4.4-3.3-8.1-7.7-8.3s-8.1 3.3-8.3 7.7c-1 28.2-1.4 58.7-1.2 90.4-7.1 0-20.5 0-27.4 0-4.4 0-8 3.6-8 8 0 42.5 13.6 84.4 40.7 119.3.5 6.2 1.1 12.1 1.7 17.8-13.5-2-26.5-5.5-38.7-10.4-25.5-105.5-25.6-216.9-.2-322.4 13.2-5.2 27-8.9 41.1-10.8-1.6 12.2-3 26.3-4.3 41.9-.3 4.4 2.9 8.3 7.3 8.6 4.4.4 8.3-2.9 8.6-7.3 1.3-16.9 2.9-31.8 4.6-44.6 5-.2 8.5-.2 13.7 0 7.9 57.6 9.9 141.1 9.4 199.9h-32.5c-.2-29.6.2-60.1 1.2-89.8zm-87 203.5-2.8-4c-1.8-9.5-55-118.5-7.1-255.6l6.4-18.2c7.5-5.8 14.9-10.6 22.9-14.9-22.2 100.1-22.1 205 .2 305.1-6.8-3.7-13.3-7.8-19.6-12.4zm184.6-292.8c6.8 3.7 13.3 7.8 19.6 12.4l2.7 4c2 6.1 6.3 21.3 10.6 36.6 9.7 34.6 15.2 70.3 15.9 106.2.1 7.3.1 14.2-.3 20h-32.2c2.3-60.3-3.2-120.4-16.3-179.2zm-240.9 81.6 18.1-31.2c3.1-4.2 6.3-8.3 9.8-12.2-23.6 74.8-23 156.1 1.8 230.6-47.3-52.3-57.1-126-29.7-187.2zm285.8 284.6c-96.2 0-174.7-76.2-178.9-171.1h8.3c17.3 107.8 118.8 177.4 218.6 146.6 4.2-1.3 6.6-5.8 5.3-10s-5.8-6.6-10-5.3c-89.1 27.4-180.6-33.8-197.6-131.3h308.8c-8.8 49.8-37.4 91.2-75.8 115.2-3.7 2.3-4.9 7.3-2.6 11s7.3 4.9 11 2.6c44-27.5 74.8-74.5 83.6-128.7h8.3c-4.3 95-82.9 171-179 171z"/><path d="m207.5 333.7c-4.4 0-8 3.6-8 8v6.2c0 4.4 3.6 8 8 8s8-3.6 8-8v-6.2c0-4.5-3.6-8-8-8z"/><path d="m251.2 333.7c-4.4 0-8 3.6-8 8v6.2c0 4.4 3.6 8 8 8s8-3.6 8-8v-6.2c0-4.5-3.5-8-8-8z"/><path d="m295 333.7c-4.4 0-8 3.6-8 8v6.2c0 4.4 3.6 8 8 8s8-3.6 8-8v-6.2c0-4.5-3.6-8-8-8z"/><path d="m338.8 333.7c-4.4 0-8 3.6-8 8v6.2c0 4.4 3.6 8 8 8s8-3.6 8-8v-6.2c0-4.5-3.6-8-8-8z"/><path d="m382.6 333.7c-4.4 0-8 3.6-8 8v6.2c0 4.4 3.6 8 8 8s8-3.6 8-8v-6.2c0-4.5-3.6-8-8-8z"/><path d="m426.4 355.8c4.4 0 8-3.6 8-8v-6.2c0-4.4-3.6-8-8-8s-8 3.6-8 8v6.2c0 4.5 3.6 8 8 8z"/><path d="m229.4 382.1c-4.4 0-8 3.6-8 8v6.2c0 4.4 3.6 8 8 8s8-3.6 8-8v-6.2c0-4.4-3.6-8-8-8z"/><path d="m273.1 382.1c-4.4 0-8 3.6-8 8v6.2c0 4.4 3.6 8 8 8s8-3.6 8-8v-6.2c0-4.4-3.6-8-8-8z"/><path d="m316.9 382.1c-4.4 0-8 3.6-8 8v6.2c0 4.4 3.6 8 8 8s8-3.6 8-8v-6.2c0-4.4-3.6-8-8-8z"/><path d="m360.7 382.1c-4.4 0-8 3.6-8 8v6.2c0 4.4 3.6 8 8 8s8-3.6 8-8v-6.2c0-4.4-3.6-8-8-8z"/><path d="m404.5 404.3c4.4 0 8-3.6 8-8v-6.2c0-4.4-3.6-8-8-8s-8 3.6-8 8v6.2c0 4.4 3.6 8 8 8z"/><path d="m169.4 174.7c-4.2-.9-8.5 1.9-9.4 6.3-.8 3.9 1.6 8.4 6.3 9.4 4.3.9 8.6-2 9.4-6.3.9-4.1-1.8-8.5-6.3-9.4z"/></g></svg>