<svg id="Layer_1" enable-background="new 0 0 512 512" height="512" viewBox="0 0 512 512" width="512" xmlns="http://www.w3.org/2000/svg"><circle cx="258.148" cy="439.915" fill="#c991ff" r="64.085"/><path d="m245.167 422.006c7.98-4.685 17.983-4.685 25.963 0 15.36 9.017 33.566 11.033 50.057 6.316-5.456-29.859-31.604-52.491-63.038-52.491-31.435 0-57.582 22.633-63.039 52.491 16.45 4.706 34.659 2.723 50.057-6.316z" fill="#b173ff"/><circle cx="212.77" cy="338.701" fill="#c991ff" r="64.085"/><path d="m154.911 318.786c14.38 3.585 30.226 2.186 44.312-4.9 10.415-5.239 22.821-5.239 33.236 0 14.064 7.075 29.909 8.491 44.312 4.9-8.376-25.643-32.489-44.169-60.93-44.169s-52.554 18.526-60.93 44.169z" fill="#b173ff"/><circle cx="303.526" cy="338.701" fill="#c991ff" r="64.085"/><path d="m286.908 313.886c10.415-5.239 22.821-5.239 33.236 0 14.064 7.075 29.909 8.491 44.312 4.9-8.376-25.643-32.489-44.169-60.93-44.169s-52.553 18.527-60.93 44.169c14.382 3.585 30.227 2.185 44.312-4.9z" fill="#b173ff"/><circle cx="167.391" cy="232.601" fill="#c991ff" r="64.085"/><path d="m167.391 196.572c30.574 0 56.148 21.411 62.545 50.057 8.955-40.105-21.566-78.113-62.545-78.113-41.003 0-71.497 38.024-62.545 78.113 6.398-28.646 31.971-50.057 62.545-50.057z" fill="#d3b3ff"/><circle cx="348.905" cy="232.601" fill="#c991ff" r="64.085"/><path d="m348.904 198.128c30.297 0 55.683 21.024 62.366 49.279 9.525-40.275-21.034-78.891-62.366-78.891-35.393 0-64.085 28.692-64.085 64.085 0 5.096.595 10.053 1.719 14.806 6.683-28.255 32.07-49.279 62.366-49.279z" fill="#d3b3ff"/><circle cx="258.148" cy="232.601" fill="#c991ff" r="64.085"/><path d="m258.148 202.521c29.506 0 54.355 19.942 61.805 47.083 1.486-5.415 2.28-11.116 2.28-17.002 0-35.393-28.692-64.085-64.085-64.085s-64.085 28.692-64.085 64.085c0 5.887.794 11.588 2.28 17.002 7.45-27.141 32.298-47.083 61.805-47.083z" fill="#d3b3ff"/><path d="m433.619 27.977c-1.259-2.129-3.548-3.434-6.021-3.434h-343.196c-2.473 0-4.762 1.306-6.02 3.434-7.175 12.135-7.175 27.213 0 39.348 1.258 2.129 3.547 3.434 6.02 3.434h343.197c2.473 0 4.762-1.306 6.021-3.434 7.174-12.135 7.174-27.214-.001-39.348z" fill="#cd8e50"/><path d="m73.061 49.814c.34 6.075 2.113 12.087 5.32 17.511 1.259 2.129 3.548 3.434 6.02 3.434h343.197c2.473 0 4.762-1.306 6.021-3.434 3.207-5.424 4.98-11.437 5.32-17.511z" fill="#ac6849"/><path d="m121.235 58.816c-5.465 1.361-8.527 6.671-6.967 12.083 4.331 15.022 15.725 44.324 41.382 59.118 27.32 15.752 48.673 4.743 57.006-1.111 4.606-3.236 7.58-8.39 8.073-14.001.892-10.144-.278-34.14-27.599-49.892-25.656-14.795-56.724-9.975-71.895-6.197z" fill="#a8ffa9"/><path d="m114.269 70.898c4.331 15.022 15.725 44.324 41.382 59.118 8.746 5.043 16.88 7.343 24.172 7.948 7.587-11.748-.491-34.684-19.383-53.334-15.046-14.853-32.723-22.812-45.181-21.527-1.366 2.214-1.799 4.991-.99 7.795z" fill="#c9ffd2"/><path d="m312.119 320.058c1.622.486 3.288 1.26 4.148 2.719 1.059 1.796.535 4.247-.905 5.754s-3.607 2.158-5.691 2.143c-3.821-.026-12.246-1.991-11.064-7.295 1.237-5.554 9.62-4.488 13.512-3.321z" fill="#b173ff"/><g fill="#231f20"><path d="m241.27 336.663c-4.173-.812-8.424 1.722-9.41 6.28-.867 4.528 2.12 8.593 6.28 9.41 5.308 1.12 10.53-3.566 9.41-9.41-.572-2.929-2.846-5.542-6.28-6.28z"/><path d="m440.505 23.905c-2.686-4.542-7.632-7.363-12.908-7.363h-90.362c-4.83-6.595-8.936-11.565-11.41-14.114-3.077-3.169-8.142-3.246-11.313-.168-3.17 3.078-3.245 8.143-.168 11.313.736.758 1.629 1.76 2.647 2.97h-40.789c-4.262-5.431-8.452-10.135-12.315-14.114-3.077-3.169-8.142-3.246-11.313-.168-3.17 3.078-3.245 8.143-.168 11.313.917.944 1.854 1.936 2.807 2.97h-30.232c-4.141-5.872-8.056-10.621-11.448-14.114-3.077-3.169-8.142-3.246-11.313-.168-3.17 3.078-3.245 8.143-.168 11.313.869.895 1.776 1.886 2.716 2.97h-120.367c-5.275 0-10.221 2.821-12.907 7.363-8.66 14.647-8.66 32.845 0 47.492 2.686 4.542 7.632 7.363 12.907 7.363h23.939c15.773 47.275 48.405 67.4 75.489 67.399 16.251 0 31.545-7.74 37.792-14.533 16.567 8.007 26.067 19.225 29.273 23.507-.046 1.916-.116 3.84-.22 5.772-14.263 1.476-27.298 7.135-37.871 15.716-12.805-10.428-28.667-16.103-45.411-16.103-39.748 0-72.085 32.337-72.085 72.085 0 33.883 23.505 62.364 55.061 70.036-23.536 40.72-2.266 92.853 43.069 105.494-4.842 9.824-7.374 20.622-7.374 31.784 0 39.748 32.338 72.085 72.086 72.085 18.509 0 36.103-7.004 49.541-19.722 3.209-3.037 3.349-8.101.312-11.31s-8.1-3.348-11.31-.312c-10.455 9.89-24.143 15.339-38.543 15.339-43.865 0-70.521-48.267-47.914-85.258 17.104.608 34.15-4.828 47.913-16.02 13.557 11.025 30.509 16.634 47.913 16.02 7.473 12.225 9.627 26.315 7.261 39.303-.792 4.347 2.089 8.513 6.436 9.305 4.354.796 8.514-2.09 9.305-6.436 2.678-14.684.845-30.485-6.202-44.782 30.386-8.473 52.752-36.38 52.752-69.43 0-12.752-3.388-25.174-9.683-36.064 31.556-7.672 55.061-36.153 55.061-70.036 0-39.748-32.337-72.085-72.085-72.085-16.744 0-32.606 5.675-45.411 16.103-10.309-8.366-22.963-13.938-36.809-15.58 1.588-32.016-4.467-60.727-11.399-82.28h35.965c.851 2.694 1.655 5.451 2.392 8.286 1.109 4.268 5.47 6.843 9.755 5.729 4.276-1.112 6.842-5.479 5.729-9.756-.374-1.438-.767-2.854-1.168-4.26h46.284c4.021 10.264 6.516 20.176 6.155 28.436-.765 17.433-26.64 21.852-29.461 1.007-.594-4.378-4.624-7.45-9.001-6.854-4.379.593-7.447 4.623-6.854 9.001 3.096 22.872 24.979 33.568 43.327 24.766 10.573-5.073 17.46-15.502 17.974-27.218.392-8.938-1.636-18.936-5.098-29.137h56.316c5.276 0 10.223-2.821 12.908-7.363 8.656-14.648 8.656-32.846-.005-47.492zm-355.523 8.637h131.458c5.292 8.356 10.794 18.559 15.812 30.217h-27.953c-24.136-17.799-56.223-18.871-84.996-11.707-6.12 1.524-10.792 5.972-12.625 11.707h-21.696c-5.31-9.371-5.309-20.846 0-30.217zm123.075 89.817c-8.362 5.875-25.771 13.782-48.41.727-9.857-5.684-27.861-20.309-37.69-54.402-.688-2.382 2.306-2.513 8.393-3.683 40.143-7.715 85.976 8.642 82.412 49.201-.285 3.204-2.105 6.331-4.705 8.157zm106.071 106.943c1.82 31.67-22.595 57.574-52.769 59.286-33.651 1.883-60.922-25.863-59.213-58.974 1.559-29.541 26.08-53.096 56.001-53.097h.012c29.525 0 54.238 23.107 55.969 52.785zm-202.821 3.3c0-30.925 25.159-56.085 56.085-56.085 12.485 0 24.343 4.049 34.078 11.529-20.374 25.813-20.706 62.864-.01 89.099-36.179 27.795-90.153 2.436-90.153-44.543zm143.496 133.898c-2.193-3.834-7.082-5.166-10.916-2.972-3.836 2.194-5.166 7.081-2.973 10.917 1.772 3.099 3.766 6.029 5.94 8.788-36.589 28.119-90.17 1.848-90.17-44.532 0-12.335 4.059-24.281 11.493-34.02 16.839-.179 32.411-6.152 44.592-16.06 8.344 6.786 17.99 11.536 28.325 14.031-2.493 4.309-4.541 8.865-6.104 13.648-1.372 4.2.92 8.717 5.12 10.089 4.196 1.37 8.717-.919 10.089-5.12 1.964-6.011 4.895-11.576 8.73-16.588 15.898-.168 31.657-5.539 44.596-16.061 12.156 9.885 27.727 15.881 44.592 16.06 7.435 9.738 11.493 21.685 11.493 34.02.001 56.725-76.084 78.02-104.807 27.8zm94.101-189.983c30.926 0 56.085 25.16 56.085 56.085 0 46.709-53.788 72.471-90.154 44.544 20.523-26.016 20.547-63.054-.009-89.1 9.736-7.48 21.593-11.529 34.078-11.529zm-98.874-45.364c-5.578-4.742-12.717-9.732-21.519-13.969 1.665-11.363-1.011-26.368-8.874-38.424h18.827c5.48 15.777 9.766 33.486 11.566 52.393zm-.491-68.394c-4.505-11.334-9.472-21.465-14.449-30.217h33.106c6.031 8.458 12.008 18.513 17.084 30.217zm53.038 0c-4.422-11.361-9.662-21.421-15.153-30.217h41.486c5.914 8.661 12.468 19.257 18.063 30.217zm124.442 0h-62.184c-4.919-10.667-10.854-21.067-16.68-30.217h78.863c5.31 9.372 5.31 20.846.001 30.217z"/></g></svg>