<svg id="Layer_1" enable-background="new 0 0 512.002 512.002" height="512" viewBox="0 0 512.002 512.002" width="512" xmlns="http://www.w3.org/2000/svg"><path d="m346.981 21.76c-.499-8.482-7.496-14.496-15.922-13.685-23.39 2.252-69.829 11.013-98.78 44.952-30.828 36.14-20.471 70.86-14.127 84.841 3.474 7.658 10.226 13.549 18.451 15.858 14.739 4.139 50.511 9.065 81.339-27.074 28.95-33.938 30.424-81.346 29.039-104.892z" fill="#69da61"/><path d="m331.059 8.075c-21.372 2.057-61.979 9.562-90.913 36.73 23.534-12.075 48.454-16.294 63.649-17.756 8.426-.811 15.424 5.203 15.922 13.685 1.385 23.545-.089 70.953-29.04 104.893-1.588 1.862-3.189 3.608-4.8 5.257 10.581-4.442 21.607-11.972 32.064-24.231 28.951-33.939 30.425-81.347 29.04-104.893-.499-8.481-7.496-14.496-15.922-13.685z" fill="#5ab161"/><path d="m105.518 66.041c-6.64 2.935-9.364 10.37-6.198 16.918 8.787 18.178 29.666 52.987 65.475 66.183 38.13 14.052 62.826-4.662 72.122-13.95 5.139-5.134 7.785-12.35 7.183-19.605-1.089-13.114-7.828-43.414-45.958-57.466-35.809-13.196-74.192-.228-92.624 7.92z" fill="#a8ffa9"/><path d="m121.021 84.411c-3.165-6.548-.441-13.983 6.198-16.918 12.056-5.329 32.651-12.719 55.477-13.501-30.927-5.443-61.381 5.066-77.178 12.049-6.64 2.935-9.363 10.37-6.198 16.918 8.787 18.178 29.666 52.987 65.475 66.183 12.414 4.575 23.403 5.675 32.902 4.76-35.116-7.772-61.088-37.244-76.676-69.491z" fill="#85eda2"/><ellipse cx="328.54" cy="229.58" fill="#ff5872" rx="49.256" ry="49.427"/><path d="m298.482 218.854c1.68-3.151.547-8.471 2.842-11.167 1.41-1.657 6.072-.845 7.686-2.301 16.564-14.951 40.821-16.743 59.273-4.995-8.963-12.267-23.422-20.237-39.743-20.237-27.203 0-49.256 22.129-49.256 49.426 0 17.571 9.145 32.99 22.912 41.754-11.333-15.512-12.513-35.981-3.714-52.48z" fill="#ff7f90"/><ellipse cx="205.041" cy="346.763" fill="#ff5872" rx="49.256" ry="49.427"/><path d="m176.606 335.764c2.447-3.466 9.766-6.274 13.001-9.001 3.057-2.577 1.992-5.116 5.615-6.893 18.129-8.894 40.406-5.881 55.612 8.691-7.225-18.287-24.998-31.225-45.793-31.225-27.203 0-49.256 22.129-49.256 49.427 0 14.06 5.86 26.738 15.251 35.738-6.086-15.404-4.115-33.015 5.57-46.737z" fill="#ff7f90"/><ellipse cx="173.409" cy="229.58" fill="#ff5872" rx="49.256" ry="49.427"/><path d="m147.842 223.527c2.164-4.887 9.149-4.655 12.694-8.552 2.315-2.545.837-9.548 3.632-11.563 13.712-9.885 31.368-11.919 46.79-5.805-9.035-10.673-22.499-17.453-37.548-17.453-27.203 0-49.256 22.129-49.256 49.426 0 20.889 12.921 38.738 31.174 45.974-12.556-14.832-14.959-35.154-7.486-52.027z" fill="#ff7f90"/><ellipse cx="361.61" cy="335.771" fill="#ff5872" rx="35.94" ry="36.064"/><path d="m379.332 304.401c3.853 8.31 4.306 17.6 1.729 25.916-.927 2.991.443 8.005-1.183 10.606-2.064 3.301-7.322 4.054-10.308 6.522-11.638 9.618-27.802 10.788-40.555 3.518 5.714 12.324 18.157 20.872 32.596 20.872 19.849 0 35.94-16.146 35.94-36.064 0-13.449-7.343-25.17-18.219-31.37z" fill="#db4968"/><ellipse cx="375.196" cy="435.131" fill="#ff5872" rx="38.807" ry="38.941"/><path d="m391.153 399.636c6.358 10.391 7.214 22.682 3.55 33.198-1.111 3.189-5.466 4.411-7.319 7.161-1.457 2.162-.283 5.946-2.133 7.769-11.505 11.339-28.664 14.278-43.148 7.71 6.825 11.156 19.091 18.598 33.093 18.598 21.433 0 38.807-17.435 38.807-38.941 0-15.797-9.379-29.387-22.85-35.495z" fill="#db4968"/><ellipse cx="264.735" cy="454.575" fill="#ff5872" rx="49.256" ry="49.427"/><path d="m292.623 413.839c10.429 16.742 9.922 38.225-1.409 54.467-2.59 3.712-2.714 10.253-6.198 13.122-4.042 3.328-11.582 2.82-16.548 4.731-14.717 5.664-31.837 4.026-45.524-5.428 8.703 13.971 24.16 23.271 41.789 23.271 27.204 0 49.256-22.129 49.256-49.427.002-16.906-8.463-31.824-21.366-40.736z" fill="#db4968"/><g fill="#ff7f90"><ellipse cx="153.647" cy="228.596" rx="3.964" ry="3.132" transform="matrix(.369 -.929 .929 .369 -115.527 286.982)"/><circle cx="169.982" cy="207.911" r="2.577"/><circle cx="305.786" cy="212.736" r="2.504"/><ellipse cx="182.811" cy="336.236" rx="4.05" ry="1.922" transform="matrix(.866 -.5 .5 .866 -143.626 136.453)"/></g><ellipse cx="278.826" cy="477.009" fill="#db4968" rx="4.273" ry="2.885" transform="matrix(.985 -.173 .173 .985 -78.268 55.386)"/><ellipse cx="381.611" cy="446.346" fill="#db4968" rx="2.174" ry="1.664" transform="matrix(.808 -.589 .589 .808 -189.692 310.46)"/><circle cx="373.302" cy="337.169" fill="#db4968" r="2.397"/><path d="m340.107 404.113c-17.162-23.848-31.539-48.371-43.581-72.788 5.991 2.278 13.09 4.355 21.176 5.678.654 23.728 20.092 42.833 43.909 42.833 24.229 0 43.94-19.768 43.94-44.064s-19.711-44.064-43.94-44.064c-19.133 0-35.44 12.332-41.457 29.483-18.311-3.035-30.619-10.638-34.523-13.333-12.656-29.005-23.137-59.679-31.314-91.599 5.229 3.361 11.154 7.013 17.045 10.324-1.705 33.1 24.709 60.423 57.178 60.423 31.571 0 57.256-25.761 57.256-57.426s-25.685-57.427-57.256-57.427c-24.734 0-45.85 15.813-53.839 37.887-10.789-6.362-21.212-13.469-25.803-16.663-2.276-10.454-4.191-20.49-5.804-30.021 13.935 2.348 28.453 1.347 42.184-3.645 4.152-1.51 6.295-6.1 4.785-10.252-1.51-4.153-6.101-6.298-10.252-4.785-14.42 5.242-31.533 4.809-42.458.899 4.334-3.625 5.118-4.721 5.218-4.721 6.978-6.96 10.506-16.506 9.356-27.459-1.727-16.509-8.852-32.4-21.387-44.609 21.098-33.283 61.611-48.928 101.286-52.747 3.931-.371 6.938 2.255 7.169 6.191 1.226 20.828.118 60.385-21.063 91.289-2.498 3.645-1.568 8.623 2.076 11.121 3.645 2.499 8.625 1.568 11.122-2.076 23.876-34.835 25.184-78.403 23.838-101.273-.756-12.863-11.597-22.443-24.675-21.178-44.001 4.234-88.179 21.842-112.398 58.772-34.515-21.654-78.457-16.585-115.61-.162-10.794 4.771-15.3 17.098-10.167 27.718 25.714 53.198 65.724 75.78 99.405 75.78 7.2 0 13.736-1.059 19.589-2.744-2.243 7.112-4.841 14.181-7.774 21.171-8.715-5.382-18.965-8.494-29.929-8.494-31.571 0-57.256 25.762-57.256 57.427s25.685 57.426 57.256 57.426c49.186 0 75.522-58.717 42.725-95.601 4.137-9.369 7.695-18.897 10.664-28.497 3.712 22.567 9.09 48.047 16.87 75.182-2.956 17.673-14.738 39.261-23.414 53.321-36.49-10.1-72.469 17.581-72.469 55.352 0 31.665 25.685 57.427 57.256 57.427s57.256-25.762 57.256-57.427c0-20.635-10.913-38.756-27.249-48.881 5.513-9.09 11.975-20.781 16.988-32.874 6.433 19.174 14.095 38.924 23.227 58.852 4.967 31.087-1.897 58.806-6.836 73.421-33.367-2.146-60.949 24.547-60.949 57.294 0 31.665 25.685 57.427 57.256 57.427s57.256-25.762 57.256-57.427c0-24.81-15.77-45.992-37.783-54.002 3.505-10.674 7.127-25.207 8.372-42.129 11.127 20.409 23.92 40.757 38.635 60.62-11.124 30.533 11.559 63.008 43.982 63.008 25.81 0 46.807-21.058 46.807-46.941 0-42.915-53.333-63.476-81.896-31.017zm-11.567-215.96c22.749 0 41.256 18.584 41.256 41.427 0 22.842-18.507 41.426-41.256 41.426s-41.256-18.584-41.256-41.426c0-22.843 18.507-41.427 41.256-41.427zm-82.243 158.61c0 22.843-18.507 41.427-41.256 41.427s-41.256-18.584-41.256-41.427c0-22.842 18.507-41.426 41.256-41.426s41.256 18.584 41.256 41.426zm59.694 107.812c0 22.843-18.507 41.427-41.256 41.427s-41.256-18.584-41.256-41.427 18.507-41.427 41.256-41.427 41.256 18.584 41.256 41.427zm55.619-146.868c15.406 0 27.94 12.59 27.94 28.064s-12.534 28.064-27.94 28.064-27.94-12.59-27.94-28.064 12.534-28.064 27.94-28.064zm-194.049-166.072c-32.811-12.092-52.326-44.134-61.038-62.157-1.201-2.485-.264-5.018 2.23-6.12 34.409-15.21 77.257-20.275 106.554 3.314 14.831 11.956 28.451 40.38 15.955 52.861-15.534 15.529-37.77 21.659-63.701 12.102zm5.848 129.371c-22.749 0-41.256-18.584-41.256-41.426 0-22.843 18.507-41.427 41.256-41.427s41.256 18.584 41.256 41.427c.001 22.842-18.507 41.426-41.256 41.426zm201.787 195.066c-16.987 0-30.807-13.88-30.807-30.941s13.82-30.941 30.807-30.941 30.807 13.88 30.807 30.941-13.82 30.941-30.807 30.941z" fill="#231f20"/><path d="m222.231 114.652c-.12-.469-3.055-11.6-12.668-22.359-8.814-9.864-25.136-21.481-52.853-20.736-4.417.117-7.902 3.792-7.785 8.209.117 4.416 3.76 7.869 8.209 7.785 40.398-1.052 49.228 29.712 49.609 31.118 1.11 4.239 5.443 6.819 9.726 5.721 4.281-1.098 6.86-5.457 5.762-9.738z" fill="#231f20"/><path d="m311.806 45.595c-1.475-4.166-6.047-6.346-10.211-4.871-24.305 8.605-39.351 25.693-46.157 35.114-2.587 3.581-1.782 8.582 1.8 11.169 3.56 2.572 8.565 1.806 11.17-1.8 5.714-7.908 18.317-22.245 38.527-29.401 4.165-1.475 6.346-6.046 4.871-10.211z" fill="#231f20"/><path d="m306.043 146.492c4.471 0 8-3.656 8-8 0-3.826-2.746-7.112-6.44-7.841-4.269-.87-8.556 1.931-9.41 6.28-.974 4.961 2.815 9.561 7.85 9.561z" fill="#231f20"/></svg>