<svg id="Layer_1" enable-background="new 0 0 511.985 511.985" height="512" viewBox="0 0 511.985 511.985" width="512" xmlns="http://www.w3.org/2000/svg"><path d="m127.214 58.832c6.16 20.795 22.225 64.229 53.274 84.004 55.876 35.589 106.132-37.862 52.885-77.294-29.588-21.911-75.796-21.29-97.368-19.559-6.6.53-10.676 6.487-8.791 12.849z" fill="#69da61"/><path d="m384.77 58.832c-6.16 20.795-22.225 64.229-53.274 84.004-55.876 35.589-106.132-37.862-52.885-77.294 29.588-21.911 75.796-21.29 97.368-19.559 6.599.53 10.676 6.487 8.791 12.849z" fill="#69da61"/><path d="m233.373 65.542c-9.436-6.988-20.564-11.677-32.043-14.776-8.457 19.897-14.223 41.611-13.47 63.094.5 14.263 3.762 26.404 8.944 36.457 48.486 13.896 84.549-49.243 36.569-84.775z" fill="#5ab161"/><path d="m315.18 150.319c5.182-10.053 8.444-22.194 8.944-36.457.753-21.484-5.013-43.198-13.47-63.094-11.479 3.099-22.607 7.788-32.043 14.776-47.981 35.53-11.917 98.669 36.569 84.775z" fill="#5ab161"/><path d="m248.22 11.864c-13.625 16.854-40.271 54.7-38.98 91.552 2.324 66.319 91.178 66.319 93.502 0 1.292-36.851-25.355-74.698-38.98-91.552-4.167-5.156-11.374-5.156-15.542 0z" fill="#a8ffa9"/><path d="m364.701 286.994c14.195-5.229 24.291-18.562 24.291-34.195 0-13.71-7.762-25.653-19.247-31.909-6.787-3.698-10.246-11.352-8.731-18.772.491-2.407.739-4.899.717-7.451-.197-22.932-21.517-39.745-44.441-35.649.344-18.906-15.309-34.181-34.518-34.181-10.805 0-20.448 4.828-26.781 12.382-6.332-7.555-15.975-12.382-26.781-12.382-19.212 0-34.862 15.279-34.518 34.181-22.969-4.104-44.244 12.772-44.441 35.649-.022 2.552.226 5.044.717 7.451 1.514 7.419-1.944 15.074-8.731 18.772-11.484 6.257-19.247 18.199-19.247 31.909 0 15.633 10.096 28.966 24.291 34.195 1.64.604 2.018 2.604.722 3.739-7.641 6.693-12.448 16.383-12.448 27.169 0 15.574 10.019 28.865 24.13 34.135 1.647.616 2.261 2.572 1.04 3.826-16.929 17.38-12.397 45.666 9.241 57.212 3.796 2.026 5.673 6.181 4.295 10.251-7.392 21.837 7.627 44.561 30.631 47.65 7.606 1.016 13.956 5.886 17.345 12.583 6.128 12.106 18.937 20.438 33.753 20.438s27.626-8.331 33.753-20.438c3.39-6.697 9.74-11.567 17.345-12.583 23.002-3.089 38.024-25.808 30.631-47.65-1.311-3.874.305-8.122 4.295-10.251 21.665-11.56 26.152-39.852 9.241-57.212-.508-.521-.742-1.238-.606-1.944l.03-.157c.148-.769.709-1.39 1.462-1.668 14.191-5.232 24.283-18.562 24.283-34.193 0-10.786-4.807-20.477-12.448-27.169-1.296-1.137-.911-3.135.725-3.738z" fill="#ff5872"/><path d="m364.701 286.994c14.195-5.229 24.291-18.562 24.291-34.195 0-13.71-7.762-25.653-19.247-31.909-6.787-3.698-10.246-11.353-8.731-18.772 3.81-18.667-7.639-36.944-26.261-42.229 2.966 6.607 3.681 13.889 2.293 20.688-1.435 7.031 1.842 14.285 8.274 17.789 10.883 5.929 18.238 17.246 18.238 30.238 0 14.814-9.567 27.449-23.018 32.404-1.554.572-1.912 2.468-.684 3.543 7.24 6.342 11.796 15.525 11.796 25.746 0 14.812-9.563 27.444-23.011 32.402-.713.263-1.245.852-1.385 1.581l-.029.149c-.129.669.093 1.348.574 1.842 16.042 16.468 11.748 43.273-8.757 54.215-3.727 1.988-5.333 5.983-4.07 9.714 6.995 20.666-7.195 42.228-29.027 45.154-7.207.963-13.225 5.578-16.437 11.924-5.807 11.472-17.945 19.367-31.985 19.367s-26.179-7.895-31.985-19.367c-3.212-6.346-9.229-10.961-16.437-11.924-5.955-.798-11.482-3.023-16.235-6.429-3.401 20.56 11.472 39.287 32.025 42.053 7.606 1.016 13.956 5.886 17.345 12.583 6.128 12.106 18.937 20.438 33.753 20.438s27.626-8.331 33.753-20.438c3.39-6.697 9.74-11.567 17.345-12.583 23.053-3.102 38.009-25.855 30.631-47.65-1.346-3.977.401-8.174 4.295-10.251 21.665-11.56 26.151-39.852 9.241-57.212-.508-.521-.742-1.238-.606-1.944l.03-.157c.148-.769.709-1.39 1.462-1.668 14.191-5.232 24.283-18.562 24.283-34.193 0-10.786-4.807-20.477-12.448-27.169-1.296-1.138-.912-3.137.724-3.74z" fill="#db4968"/><path d="m151.73 248.336c6.787-3.698 10.246-11.352 8.731-18.772-.491-2.407-.739-4.899-.717-7.451.197-22.932 21.516-39.745 44.441-35.649-.342-18.945 15.347-34.181 34.518-34.181 10.805 0 20.448 4.828 26.781 12.382 12.058-14.385 33.73-16.506 48.459-4.944 0 0 5.56-1.099 3.348-.704.347-18.903-15.309-34.181-34.518-34.181-10.805 0-20.448 4.828-26.781 12.382-6.332-7.554-15.975-12.382-26.781-12.382-19.21 0-34.865 15.279-34.518 34.181-22.97-4.103-44.244 12.772-44.441 35.649-.022 2.552.226 5.044.717 7.451 1.514 7.419-1.944 15.074-8.731 18.772-21.231 11.567-25.582 39.064-9.614 56.331 1.048-12.426 8.476-23.093 19.106-28.884z" fill="#ff7f90"/><g fill="#231f20"><path d="m373.572 213.863c-3.655-1.991-5.552-6.068-4.72-10.145 5.02-24.555-11.674-47.738-35.852-52.445 30.437-17.659 49.355-56.116 59.441-90.171 3.322-11.215-4.143-22.159-15.822-23.095-18.201-1.46-51.557-2.015-80.305 9.028-6.06-12.13-14.529-25.605-26.329-40.201-7.371-9.119-20.624-9.108-27.986 0-11.8 14.596-20.27 28.071-26.33 40.201-28.748-11.042-62.105-10.487-80.305-9.028-11.635.933-19.156 11.838-15.822 23.095 10.099 34.096 29.019 72.514 59.444 90.172-24.163 4.706-40.877 27.872-35.855 52.441.832 4.078-1.064 8.155-4.72 10.146-30.357 16.538-31.497 59.093-1.496 77.007-16.891 21.644-9.968 52.09 13.143 65.441-13.286 19.453-10.156 48.436 16.417 64.007.285.239.247.33.209.444-8.809 26.027 8.383 54.253 37.15 58.145 4.756.635 8.968 3.725 11.266 8.267 16.75 33.09 65.04 33.075 81.783-.001 2.297-4.541 6.509-7.631 11.275-8.267 28.749-3.906 45.958-32.099 37.141-58.143-.294-.879 4.088-1.6 10.889-8.241 15.802-15.43 17.451-39.054 5.74-56.207 4.276-2.462 8.143-5.603 11.406-9.289 2.928-3.309 2.619-8.364-.689-11.293-3.309-2.927-8.365-2.619-11.292.689-3.224 3.643-7.365 6.467-11.976 8.167-6.959 2.564-9.065 11.502-3.851 16.856 13.148 13.499 9.754 35.485-7.277 44.572-7.215 3.85-10.754 12.048-8.105 19.875 5.879 17.363-6.561 34.806-24.112 37.154-9.987 1.334-18.744 7.651-23.424 16.899-10.853 21.442-42.424 21.353-53.231.001-4.724-9.334-12.667-15.131-24.345-17.038-16.95-2.782-28.922-19.821-23.231-36.894 6.849 1.619 15.342 2.493 18.783 2.493 4.242 0 7.779-3.334 7.984-7.616.212-4.413-3.193-8.162-7.606-8.375-9.48-.456-18.883-2.047-27.229-6.5-16.878-9.004-20.525-30.969-7.276-44.572 5.205-5.344 3.158-14.235-3.972-16.901-20.207-7.549-25.713-33.336-9.21-47.792 2.732-2.393 4.005-6.073 3.325-9.6-.67-3.485-3.181-6.422-6.553-7.664-23.234-8.56-25.909-39.627-3.983-51.573 9.869-5.376 14.99-16.386 12.743-27.398-3.553-17.401 9.786-34.104 29.06-34.104 5.348 0 8.243 1.917 12.02-1.309 3.262-2.784 2.769-6.579 2.79-6.691 0-23.995 31.486-34.78 47.184-16.053 3.194 3.809 9.063 3.814 12.262 0 12.39-14.781 36.638-11.902 44.851 5.57 2.085 4.463 2.105 7.167 2.318 10.936-.097 5.046 4.456 8.92 9.406 8.028 20.888-3.73 38.524 13.811 34.478 33.625-2.247 11.011 2.874 22.021 12.743 27.396 21.988 11.979 19.198 43.127-4.048 51.603-.03.011-.061.019-.091.03-.094.037-9.619 3.679-25.955 5.048-4.403.368-7.673 4.237-7.304 8.64.37 4.415 4.26 7.68 8.64 7.304 9.272-.777 16.665-2.216 21.853-3.503 3.363 3.031 5.981 6.797 7.573 10.929 1.587 4.123 6.219 6.176 10.34 4.591 4.124-1.588 6.178-6.218 4.59-10.341-1.563-4.061-3.747-7.892-6.447-11.345 30.015-17.923 28.846-60.474-1.498-77.005zm1.768-159.905c1.59.128 2.184 1.171 1.76 2.601-9.025 30.469-27.46 69.371-56.365 83.121-3.235-6.196-7.968-11.488-13.678-15.39 6.975-20.175 3.388-42.461-4.279-62.588 13.609-5.071 37.3-10.574 72.562-7.744zm-120.898-37.064c.935-1.158 2.103-1.232 3.1 0 21.523 26.623 45.042 68.52 34.763 100.994-9.276-2.057-19.262-1.141-28.313 3.216v-40.923c0-4.418-3.582-8-8-8s-8 3.582-8 8v40.922c-8.786-4.229-18.737-5.339-28.313-3.216-10.375-32.776 13.205-74.327 34.763-100.993zm-119.558 39.665c-.424-1.43.17-2.472 1.76-2.601 23.867-1.915 50.324-.543 72.562 7.744-7.616 19.991-11.323 42.214-4.279 62.588-5.762 3.937-10.499 9.271-13.678 15.39-28.87-13.733-47.326-52.604-56.365-83.121z"/><path d="m226.272 235.891c3.121-3.128 3.114-8.193-.014-11.314-3.127-3.12-8.193-3.112-11.313.014-7.941 7.961-20.789 7.965-28.734.001-3.121-3.129-8.186-3.136-11.314-.015-3.128 3.12-3.134 8.186-.014 11.313 14.183 14.219 37.187 14.236 51.389.001z"/><path d="m259.819 265.77c14.197 14.234 37.189 14.237 51.389 0 3.12-3.128 3.114-8.193-.014-11.313-3.128-3.121-8.193-3.114-11.314.015-7.942 7.961-20.79 7.962-28.733 0-3.121-3.129-8.186-3.136-11.314-.015-3.127 3.119-3.134 8.185-.014 11.313z"/><path d="m230.997 307.75c3.121-3.128 3.114-8.193-.014-11.314-3.128-3.119-8.193-3.115-11.313.014-7.942 7.961-20.791 7.962-28.734 0-3.121-3.128-8.187-3.134-11.313-.014-3.128 3.121-3.134 8.187-.014 11.314 14.199 14.232 37.188 14.234 51.388 0z"/><path d="m313.955 206.417c3.12-3.128 3.114-8.193-.014-11.313s-8.193-3.115-11.314.015c-7.942 7.961-20.79 7.963-28.734-.001-3.12-3.128-8.185-3.134-11.313-.014-3.128 3.121-3.134 8.187-.014 11.314 14.197 14.232 37.188 14.236 51.389-.001z"/><path d="m313.954 341.57c3.121-3.128 3.114-8.193-.014-11.314-3.127-3.12-8.193-3.114-11.313.014-7.942 7.961-20.79 7.962-28.734 0-3.121-3.128-8.186-3.135-11.314-.013-3.128 3.12-3.134 8.186-.013 11.313 14.198 14.231 37.188 14.233 51.388 0z"/><path d="m234.877 365.147c-3.128-3.122-8.193-3.115-11.314.013-7.943 7.961-20.791 7.963-28.734 0-3.12-3.128-8.186-3.134-11.313-.014-3.128 3.121-3.134 8.187-.014 11.314 14.184 14.217 37.188 14.233 51.389 0 3.119-3.128 3.114-8.193-.014-11.313z"/><path d="m315.785 414.283c3.121-3.128 3.114-8.193-.014-11.314-3.127-3.119-8.193-3.115-11.313.014-7.942 7.961-20.791 7.962-28.734 0-3.121-3.128-8.187-3.134-11.313-.014-3.128 3.121-3.134 8.187-.014 11.314 14.199 14.232 37.188 14.234 51.388 0z"/><path d="m230.792 414.827c-4.857-.99-9.57 2.763-9.57 7.84 0 4.351 3.535 8 8 8 4.417 0 8-3.577 8-8 0-3.899-2.789-7.129-6.43-7.84z"/></g></svg>