<svg id="Layer_1" enable-background="new 0 0 512 512" height="512" viewBox="0 0 512 512" width="512" xmlns="http://www.w3.org/2000/svg"><path d="m238.665 56.555-50.312-37.232s-16.098 32.084 1.369 68.265c14.045 29.092 37.486 22.218 51.451 8.311 16.897-16.828-2.508-39.344-2.508-39.344z" fill="#a8ffa9"/><path d="m273.25 56.555 50.312-37.232s16.098 32.084-1.369 68.265c-14.045 29.092-37.486 22.218-51.451 8.311-16.898-16.828 2.508-39.344 2.508-39.344z" fill="#a8ffa9"/><path d="m255.957 8.282s-55.743 38.581-37.428 108.311l37.428 49.759 37.428-49.759c18.315-69.73-37.428-108.311-37.428-108.311z" fill="#69da61"/><path d="m269.895 49.197c10.107 11.115 22.604 29.323 26.182 53.975 8.486-61.24-40.119-94.891-40.119-94.891s-48.605 33.651-40.119 94.891c3.578-24.652 16.075-42.86 26.182-53.976 7.465-8.21 20.407-8.21 27.874.001z" fill="#87eda8"/><path d="m255.957 159.857s-6.35-68.205-94.875-71.1c0 0 16.873 99.607 37.146 117.559s57.729-46.459 57.729-46.459z" fill="#a8ffa9"/><path d="m255.957 159.857s6.35-68.205 94.875-71.1c0 0-16.873 99.607-37.146 117.559s-57.729-46.459-57.729-46.459z" fill="#a8ffa9"/><path d="m250.708 168.242c3.275-4.998 5.249-8.384 5.249-8.384s-6.35-68.205-94.875-71.1c0 0 1.934 11.413 5.277 27.202 54.383 3.504 75.937 32.489 84.349 52.282z" fill="#d3ffd2"/><path d="m345.556 115.959c3.343-15.789 5.277-27.202 5.277-27.202-88.526 2.896-94.875 71.1-94.875 71.1s1.974 3.387 5.249 8.384c8.412-19.792 29.966-48.777 84.349-52.282z" fill="#d3ffd2"/><path d="m392.957 342.726c0 107.494-61.337 161.555-137 161.555s-137-54.061-137-161.555 61.337-183.591 137-183.591 137 76.097 137 183.591z" fill="#ffb750"/><path d="m392.957 342.726c0 107.494-61.337 161.555-137 161.555s-137-54.061-137-161.555 61.337-183.591 137-183.591 137 76.097 137 183.591z" fill="#ffe070"/><path d="m255.957 159.136c-75.663 0-137 76.097-137 183.591 0 53.419 15.152 93.637 39.679 120.587-9.895-17.844-24.008-72.783-11.699-113.39 2.883-9.51 6.177-19.02 7.007-28.923.355-4.238.089-11.33-.324-18.445-1.021-17.605 3.275-35.115 12.243-50.299 25.073-42.454 64.122-68.041 107.992-68.041 34.722 0 66.42 16.034 90.565 43.765-25.054-42.932-64.316-68.845-108.463-68.845z" fill="#fff2b9"/><path d="m326.892 184.781c27.998 32.693 45.62 81.275 45.62 138.884 0 24.987 4.46 51.501-11.467 67.403-5.326 5.317-11.124 12.438-17.362 17.337-6.527 5.126-13.573 10.054-17.583 17.553-3.167 5.922-4.066 12.799-6.78 18.942-4.396 9.95-16.804 39.722-83.808 40.321-30.199.27-58.112-8.622-80.758-25.807 25.053 30.256 61.116 45.434 101.203 45.434 75.663 0 137-54.061 137-161.555 0-70.606-26.462-127.664-66.065-158.512z" fill="#ffce66"/><path d="m276.967 451.02c4.736-4.311 10.565-7.307 16.88-8.368 5.864-.985 11.507-.232 8.892 7.467-4.922 14.492-34.999 22.694-35.545 15.312-.316-4.268 5.126-10.182 9.773-14.411z" fill="#ffce66"/><path d="m353.866 389.043c-1.778 2.385-4.694 4.358-7.583 3.648-.811-.199-1.558-.597-2.286-1.007-.877-.494-1.757-1.023-2.424-1.777-5.376-6.065 1.434-16.036 8.554-16.039 8.86-.002 7.628 9.96 3.739 15.175z" fill="#ffce66"/><path d="m179.84 257.414c-2.791-.35-5.676.086-8.24 1.244l-.115.508c-3.212 2.569-5.453 6.324-6.189 10.371-.116.635-.195 1.29-.076 1.925.233 1.239 1.203 2.234 2.308 2.841 3.121 1.716 7.176.692 9.959-1.531s4.575-5.425 6.297-8.542c.515-.932 1.046-1.927.994-2.991-.11-2.266-2.689-3.543-4.938-3.825z" fill="#fff2b9"/><g fill="#231f20"><path d="m397.432 298.32c-.718-4.358-4.826-7.308-9.193-6.594-4.359.718-7.312 4.833-6.594 9.193 16.411 99.688-24.251 195.081-125.688 195.081-41.809 0-77.377-17.457-100.153-49.156-2.578-3.587-7.575-4.405-11.165-1.829-3.588 2.578-4.407 7.577-1.829 11.165 25.864 35.995 66.047 55.82 113.147 55.82 112.06 0 159.458-104.425 141.475-213.68z"/><path d="m165.442 215.194c58.331-76.376 157.629-59.503 199.754 31.249 1.861 4.009 6.62 5.748 10.625 3.889 4.008-1.86 5.748-6.617 3.889-10.625-11.122-23.961-26.042-43.75-43.544-58.532 13.065-35.861 22.155-89.003 22.554-91.364.84-4.952-3.06-9.498-8.149-9.332-6.198.203-12.011.719-17.486 1.489 12.784-35.5-1.698-65.17-2.372-66.514-2.222-4.429-7.914-5.8-11.909-2.843l-29.047 21.495c-1.292-2.155-2.665-4.282-4.118-6.377-11.745-16.94-24.586-25.933-25.127-26.307-2.738-1.896-6.368-1.896-9.108 0-8.487 5.867-20.65 18.357-29.244 32.684l-29.048-21.496c-3.984-2.948-9.679-1.6-11.909 2.843-.674 1.344-15.156 31.014-2.372 66.514-5.476-.77-11.289-1.286-17.487-1.489-5.021-.177-8.997 4.324-8.149 9.333.4 2.358 9.486 55.479 22.546 91.339-65.881 55.751-77.656 166.857-52.941 236.319 1.491 4.192 6.085 6.327 10.219 4.855 4.163-1.481 6.336-6.057 4.855-10.219-19.799-55.642-14.232-142.183 27.568-196.911zm157.293-44.047c-18.311-11.923-37.619-18.255-56.748-19.866 10.408-33.731 39.679-50.72 75.136-54.17-3.088 16.206-9.846 48.96-18.388 74.036zm-3.055-139.281c5.089 18.779 2.684 38.588-5.856 54.228-3.06.91-5.979 1.914-8.763 2.999.065-14.02-2.603-27.579-7.977-40.504zm-63.723-13.601c9.591 8.413 18.122 19.246 24.098 31.477 7.075 14.536 10.163 30.433 8.597 47.523-14.453 8.992-25.57 21.513-32.694 35.955-7.263-14.724-18.507-27.127-32.694-35.954-2.908-31.633 10.779-59.776 32.693-79.001zm-63.753 13.578 22.627 16.745c-5.375 12.926-8.042 26.483-7.977 40.504-2.784-1.085-5.703-2.089-8.764-2.999-8.475-15.529-11.066-35.337-5.886-54.25zm-21.411 65.268c35.717 3.476 64.786 20.63 75.134 54.168-20.577 1.764-39.622 8.599-56.761 19.83-8.53-25.064-15.287-57.798-18.373-73.998z"/><path d="m231.424 232.093-13.289 6.095-13.289-6.095c-4.017-1.843-8.765-.08-10.607 3.937-1.842 4.016-.08 8.765 3.936 10.606l16.624 7.625c2.078.952 4.51.99 6.671 0l16.624-7.625c4.016-1.842 5.778-6.591 3.936-10.606-1.841-4.017-6.59-5.781-10.606-3.937z"/><path d="m307.069 232.093-13.289 6.095-13.289-6.095c-4.014-1.843-8.764-.08-10.606 3.937-1.842 4.016-.08 8.765 3.937 10.606l16.624 7.625c2.077.952 4.51.99 6.67 0l16.624-7.625c4.017-1.842 5.778-6.591 3.937-10.606s-6.595-5.779-10.608-3.937z"/><path d="m167.027 288.493c-4.015-1.843-8.765-.08-10.607 3.937-1.842 4.016-.079 8.765 3.937 10.606l16.624 7.624c2.077.952 4.51.99 6.67 0l16.624-7.624c4.016-1.842 5.779-6.591 3.937-10.606-1.842-4.017-6.591-5.78-10.607-3.937l-13.289 6.095z"/><path d="m242.672 288.493c-4.015-1.843-8.765-.08-10.607 3.937-1.842 4.016-.079 8.765 3.937 10.606l16.624 7.624c2.081.954 4.515.988 6.67 0l16.623-7.624c4.016-1.842 5.778-6.591 3.937-10.606-1.841-4.017-6.593-5.779-10.606-3.937l-13.289 6.095z"/><path d="m307.709 292.429c-1.842 4.016-.09 8.789 3.937 10.606 16.266 7.339 18.627 9.764 23.294 7.624l16.624-7.624c4.016-1.842 5.778-6.591 3.937-10.606-1.841-4.017-6.592-5.779-10.606-3.937l-13.289 6.095-13.289-6.095c-4.017-1.843-8.766-.079-10.608 3.937z"/><path d="m160.36 363.434 16.624 7.625c2.078.952 4.51.99 6.671 0l16.624-7.625c4.016-1.842 5.778-6.591 3.936-10.606-1.841-4.017-6.591-5.779-10.607-3.937l-13.289 6.095-13.289-6.095c-4.017-1.844-8.765-.081-10.607 3.937-1.842 4.015-.079 8.764 3.937 10.606z"/><path d="m259.299 371.059 16.624-7.625c4.017-1.842 5.778-6.591 3.937-10.606-1.843-4.017-6.593-5.778-10.606-3.937l-13.29 6.095-13.289-6.095c-4.016-1.844-8.765-.081-10.607 3.937-1.842 4.016-.08 8.765 3.936 10.606l16.624 7.625c2.108.966 4.541.977 6.671 0z"/><path d="m334.944 371.059 16.624-7.625c4.017-1.842 5.778-6.591 3.937-10.606-1.842-4.017-6.593-5.778-10.606-3.937l-13.289 6.095-13.289-6.095c-4.013-1.843-8.764-.08-10.606 3.937-1.842 4.016-.119 8.851 3.937 10.606 14.611 6.326 17.827 10.13 23.292 7.625z"/><path d="m198.176 423.833 16.624 7.624c2.077.952 4.51.99 6.67 0l16.624-7.624c4.016-1.842 5.779-6.591 3.937-10.606s-6.591-5.78-10.607-3.937l-13.289 6.095-13.289-6.095c-4.014-1.844-8.765-.08-10.607 3.937-1.842 4.016-.079 8.765 3.937 10.606z"/><path d="m273.821 423.833 16.624 7.624c2.081.954 4.514.988 6.67 0l16.624-7.624c4.016-1.842 5.778-6.591 3.937-10.606-1.841-4.017-6.593-5.778-10.606-3.937l-13.289 6.095-13.289-6.095c-4.017-1.843-8.766-.08-10.606 3.937-1.844 4.016-.081 8.765 3.935 10.606z"/><path d="m375.408 267.902c-2.427 5.931 2.693 12.133 8.949 10.91 2.806-.606 4.874-2.442 5.83-4.79 1.922-4.612-.867-9.932-5.83-10.9-3.6-.735-7.447 1.155-8.949 4.78z"/></g></svg>