<svg id="Layer_1" enable-background="new 0 0 512.031 512.031" height="512" viewBox="0 0 512.031 512.031" width="512" xmlns="http://www.w3.org/2000/svg"><path d="m330.355 213.967c5.658-43.181-26.687-78.908-67.682-82.416-48.99-4.192-87.996 35.33-81.248 83.153 4.988 35.35-4.488 71.299-26.484 99.423-17.105 21.872-27.249 49.447-27.1 79.396.356 71.572 60.883 112.846 132.438 110.408 68.637-2.339 123.56-41.875 123.56-111.059 0-29.667-10.1-56.977-27.05-78.679-22.159-28.374-31.11-64.533-26.434-100.226z" fill="#ffe070"/><path d="m357.606 315.249c-21.899-28.647-32.521-64.645-27.381-100.336 5.625-39.059-20.104-73.216-56.854-81.683 20.312 15.795 31.178 40.774 27.304 67.661-5.147 35.727 5.551 71.725 27.448 100.42 16.418 21.515 26.168 48.387 26.168 77.536 0 6.63-.504 12.987-1.477 19.066-2.914 18.213-14.419 34.519-32.233 42.253-4.375 1.9-9.383 3.647-11.564 7.89-1.507 2.931-1.283 6.406-1.758 9.668-1.121 7.706-6.219 13.923-12.97 17.23-34.093 16.698-80.63 19.986-118.6 7.48 23.136 15.022 52.773 22.582 84.591 21.497 68.637-2.339 123.56-41.875 123.56-111.059.001-29.188-9.776-56.094-26.234-77.623z" fill="#ffce66"/><path d="m145.237 407.438c-.149-29.949 9.995-57.524 27.1-79.396 21.995-28.124 31.472-64.074 26.484-99.423-6.76-47.911 32.355-87.336 81.248-83.153 11.52.986 22.341 4.514 31.825 10.023-12.393-13.402-29.814-22.278-49.219-23.939-48.991-4.192-87.996 35.33-81.248 83.153 4.988 35.35-4.488 71.299-26.484 99.423-17.105 21.871-27.249 49.447-27.1 79.396.198 39.774 18.978 70.191 47.907 88.95-18.844-18.557-30.359-43.935-30.513-75.034z" fill="#fff2b9"/><path d="m159.535 8.56c-4.472.446-7.5 4.286-6.891 8.737 1.692 12.356 7.321 36.797 25.88 51.424 19.762 15.575 37.89 9.339 45.143 5.676 4.008-2.025 6.95-5.75 7.985-10.125 1.871-7.905 3.706-26.982-16.056-42.557-18.559-14.626-43.647-14.393-56.061-13.155z" fill="#a8ffa9"/><path d="m152.645 17.298c1.692 12.356 7.321 36.797 25.88 51.424 6.326 4.986 12.485 7.737 18.174 9.052 7.342-8.402 3.601-27.436-9.173-44.329-10.173-13.454-23.217-21.769-33.202-22.187-1.334 1.59-1.995 3.733-1.679 6.04z" fill="#c9ffd2"/><ellipse cx="325.06" cy="414.093" fill="#ffce66" rx="11.543" ry="8.405" transform="matrix(.866 -.5 .5 .866 -163.497 218.008)"/><path d="m292.193 467.995c1.258-.759 2.518-1.752 2.903-3.171.327-1.205-.043-2.477-.411-3.67-.356-1.154-.675-1.697-2.316-1.975-3.285-.557-6.767.132-9.592 1.9-1.727 1.08-3.268 2.651-3.753 4.63-2.126 8.679 9.863 4.281 13.169 2.286z" fill="#ffce66"/><path d="m213.436 198.038c.39 2.329 2.141 4.5 4.463 4.93 2.538.471 4.994-1.116 6.872-2.888 3.422-3.229 6.084-7.708 5.69-12.396-.437-5.204-8.397-4.73-11.42-2.024-2.924 2.619-6.259 8.472-5.605 12.378z" fill="#fff2b9"/><g fill="#231f20"><path d="m129.025 373.621c4.32.932 8.575-1.818 9.506-6.135 3.772-17.508 11.627-34.255 22.713-48.431 23.144-29.591 33.387-68.034 28.104-105.47-6.065-42.899 28.951-77.792 72.644-74.064 23.286 1.993 44.105 15.88 54.332 36.242 1.984 3.949 6.792 5.542 10.74 3.559s5.541-6.791 3.559-10.739c-12.057-24.005-35.888-40.75-62.89-44.502 6.853-12.998 22.586-34.808 52.184-38.365 4.387-.527 7.516-4.511 6.988-8.897-.526-4.386-4.52-7.516-8.896-6.988-29.938 3.598-48.303 21.89-58.628 37.166-3.473-11.003-9.665-24.637-20.645-38.496.274-.779.509-1.574.701-2.387 8.253-34.894-23.193-71.245-80.696-65.514-8.987.897-15.249 8.833-14.022 17.783 6.32 46.151 35.209 68.413 60.627 68.413 8.583 0 17.132-2.54 22.848-5.754 12.716 17.093 17.214 33.478 18.792 42.655-46.902 4.682-80.103 45.211-73.481 92.124 4.679 33.156-4.384 67.191-24.864 93.378-12.566 16.068-21.471 35.059-25.75 54.917-.931 4.319 1.816 8.575 6.134 9.505zm54.451-311.183c-6.911-5.447-19.044-18.641-22.864-45.945 27.432-2.67 43.115 6.055 50.031 11.506 15.671 12.351 15.012 26.874 13.224 34.431-.491 2.076-1.9 3.863-3.807 4.827-6.934 3.502-20.908 7.535-36.584-4.819z"/><path d="m363.096 309.269c-20.52-26.273-29.33-59.75-24.808-94.263.573-4.381-2.513-8.398-6.894-8.972-4.376-.577-8.397 2.512-8.972 6.893-5.083 38.798 4.883 76.511 28.063 106.19 50.502 64.66 28.812 172.754-90.479 176.817-49.021 1.671-98.03-18.673-116.646-63.544-1.694-4.081-6.374-6.017-10.456-4.323-4.08 1.693-6.016 6.374-4.323 10.455 21.278 51.28 76.247 75.308 131.971 73.403 73.292-2.497 131.288-45.708 131.288-119.054.001-30.615-9.939-59.524-28.744-83.602z"/><path d="m136.03 400.483c-.964-4.934-6.252-7.76-10.899-5.82-2.877 1.175-4.94 4.021-4.94 7.38 0 4.506 3.664 8 8 8 4.976 0 8.814-4.522 7.839-9.56z"/><path d="m179.35 431.241c-2.296-3.775-7.218-4.974-10.992-2.679-3.775 2.295-4.975 7.217-2.68 10.992 7.126 11.719 20.944 27.33 46.309 35.146 4.197 1.295 8.693-1.043 10.002-5.289 1.301-4.222-1.067-8.7-5.289-10.001-20.567-6.339-31.663-18.817-37.35-28.169z"/></g></svg>