<svg id="Layer_1" enable-background="new 0 0 512.003 512.003" height="512" viewBox="0 0 512.003 512.003" width="512" xmlns="http://www.w3.org/2000/svg"><path d="m324.542 301.255c0 81.848-66.383 161.166-148.271 161.166s-148.27-79.318-148.27-161.166 66.383-148.198 148.271-148.198 148.27 66.35 148.27 148.198z" fill="#ff5872"/><path d="m241.261 236.429c-3.179 5.566-14.922 9.065-17.44 15.019-2.26 5.344 4.641 13.108 2.931 18.715-8.525 27.952-9.906 58.471-4.183 87.081-12.227 7.719-18.771 22.337-15.632 37.019 4.266 19.952 12.203 39.104 23.144 56.322 55.284-25.079 94.461-86.454 94.461-149.33 0-42.545-17.943-80.897-46.67-107.925-14.507 11.539-27.002 26.273-36.611 43.099z" fill="#db4968"/><path d="m54.972 318.734c0-2.221-4.085-7.591-3.988-9.788.239-5.424.769-10.772 1.576-16.029.99-6.447-4.511-18.941-2.718-25.086 2.657-9.107 13.069-11.667 17.336-19.957 24.603-47.802 74.447-80.499 131.931-80.499 24.08 0 46.816 5.743 66.921 15.925-24.917-18.971-56.018-30.243-89.758-30.243-81.888 0-148.271 66.351-148.271 148.198 0 60.841 36.686 120.274 89.149 146.779-35.74-27.147-60.589-70.442-65.443-116.166-.574-5.406 3.265-7.683 3.265-13.134z" fill="#ff7f90"/><path d="m468.818 371.836h-5.761c5.154-15.42 7.986-32.211 7.986-49.779 0-75.245-51.919-136.243-115.964-136.243s-115.964 60.998-115.964 136.243c0 17.568 2.832 34.359 7.986 49.779h-5.761c-9.616 0-16.855 8.846-14.845 18.245 13.098 61.254 65.69 113.921 128.584 113.921s115.486-52.667 128.584-113.921c2.01-9.399-5.228-18.245-14.845-18.245z" fill="#db4968"/><ellipse cx="355.079" cy="322.057" fill="#fff2b9" rx="115.964" ry="136.243"/><path d="m338.348 187.231c37.063 6.293 68.455 33.176 85.5 70.46 3.68 8.049 16.251 19.721 18.506 28.638 3.115 12.316-4.773 22.223-4.773 35.728 0 68.569-43.117 125.297-99.233 134.825 5.464.928 11.048 1.417 16.731 1.417 64.045 0 115.964-60.999 115.964-136.243 0-81.921-61.727-146.874-132.695-134.825z" fill="#f4dca7"/><path d="m241.34 371.836c-9.616 0-16.855 8.846-14.845 18.245 13.098 61.254 65.69 113.921 128.584 113.921s115.487-52.667 128.584-113.921c2.01-9.399-5.229-18.245-14.845-18.245z" fill="#ff5872"/><path d="m468.818 371.836h-5.938c1.047 2.64 1.373 5.61.725 8.645-2.915 13.632-7.786 26.84-14.292 39.135-3.862 7.299-4.071 19.843-9.017 26.398-3.321 4.401-11.099 3.045-14.858 7.034-34.429 36.537-83.364 51.569-130.382 34.073 18 10.657 38.404 16.881 60.024 16.881 62.894 0 115.486-52.667 128.584-113.921 2.009-9.399-5.229-18.245-14.846-18.245z" fill="#db4968"/><path d="m271.669 85.332c3.894 3.363 4.199 8.952.695 12.717-9.728 10.451-31.104 29.621-58.123 31.088-28.771 1.562-41.638-16.214-46.016-24.421-2.419-4.535-2.719-9.96-.806-14.736 3.458-8.632 14.31-27.697 43.081-29.259 27.02-1.467 50.36 15.275 61.169 24.611z" fill="#69da61"/><path d="m187.264 81.002c4.378 8.206 17.245 25.983 46.016 24.421 16.153-.877 30.286-8.082 41.122-15.968.906 2.89.254 6.131-2.038 8.593-9.727 10.451-31.104 29.621-58.123 31.088-28.771 1.562-41.637-16.214-46.016-24.421-2.42-4.536-2.719-9.96-.806-14.736 2.212-5.522 7.46-15.307 18.478-22.055-1.303 4.534-.694 9.213 1.367 13.078z" fill="#5ab161"/><path d="m87.26 73.337c-3.682 3.18-3.971 8.464-.657 12.024 9.198 9.882 29.41 28.008 54.957 29.395 27.204 1.477 39.37-15.331 43.51-23.091 2.288-4.288 2.571-9.417.762-13.934-3.269-8.162-13.531-26.188-40.734-27.665-25.548-1.387-47.617 14.443-57.838 23.271z" fill="#a8ffa9"/><path d="m167.068 69.243c-4.14 7.759-16.306 24.568-43.51 23.091-15.273-.829-28.636-7.641-38.882-15.098-.857 2.733-.241 5.797 1.927 8.125 9.198 9.882 29.41 28.008 54.957 29.395 27.204 1.477 39.37-15.331 43.51-23.091 2.288-4.289 2.571-9.417.762-13.934-2.091-5.221-7.054-14.474-17.472-20.854 1.233 4.287.658 8.711-1.292 12.366z" fill="#85eda2"/><circle cx="232.372" cy="229.168" fill="#db4968" r="5.131"/><ellipse cx="62.896" cy="272.839" fill="#ff7f90" rx="5.701" ry="7.345"/><circle cx="60.894" cy="334.762" fill="#ff7f90" r="3.699"/><ellipse cx="434.579" cy="439.5" fill="#db4968" rx="4.332" ry="3.183" transform="matrix(.612 -.791 .791 .612 -178.958 514.277)"/><ellipse cx="426.886" cy="288.805" fill="#f4dca7" rx="6.981" ry="9.369" transform="matrix(.976 -.22 .22 .976 -53.077 100.988)"/><g fill="#231f20"><path d="m94.788 236.692c0-4.418-3.582-8-8-8s-8 3.582-8 8v7.917c0 4.418 3.582 8 8 8s8-3.582 8-8z"/><path d="m146.443 252.609c4.418 0 8-3.582 8-8v-7.917c0-4.418-3.582-8-8-8s-8 3.582-8 8v7.917c0 4.418 3.582 8 8 8z"/><path d="m206.099 252.609c4.418 0 8-3.582 8-8v-7.917c0-4.418-3.582-8-8-8s-8 3.582-8 8v7.917c0 4.418 3.582 8 8 8z"/><path d="m116.616 212.623c4.418 0 8-3.582 8-8v-7.917c0-4.418-3.582-8-8-8s-8 3.582-8 8v7.917c0 4.418 3.581 8 8 8z"/><path d="m176.271 212.623c4.418 0 8-3.582 8-8v-7.917c0-4.418-3.582-8-8-8s-8 3.582-8 8v7.917c0 4.418 3.582 8 8 8z"/><path d="m235.927 188.706c-4.418 0-8 3.582-8 8v7.917c0 4.418 3.582 8 8 8s8-3.582 8-8v-7.917c0-4.418-3.581-8-8-8z"/><path d="m108.616 405.066c0 4.418 3.582 8 8 8s8-3.582 8-8v-7.917c0-4.418-3.582-8-8-8s-8 3.582-8 8z"/><path d="m168.271 405.066c0 4.418 3.582 8 8 8s8-3.582 8-8v-7.917c0-4.418-3.582-8-8-8s-8 3.582-8 8z"/><path d="m94.788 292.917c0-4.418-3.582-8-8-8s-8 3.582-8 8v7.917c0 4.418 3.582 8 8 8s8-3.582 8-8z"/><path d="m138.443 300.834c0 4.418 3.582 8 8 8s8-3.582 8-8v-7.917c0-4.418-3.582-8-8-8s-8 3.582-8 8z"/><path d="m198.099 300.834c0 4.418 3.582 8 8 8s8-3.582 8-8v-7.917c0-4.418-3.582-8-8-8s-8 3.582-8 8z"/><path d="m86.788 341.141c-4.418 0-8 3.582-8 8v7.918c0 4.418 3.582 8 8 8s8-3.582 8-8v-7.918c0-4.418-3.582-8-8-8z"/><path d="m138.443 357.059c0 4.418 3.582 8 8 8s8-3.582 8-8v-7.918c0-4.418-3.582-8-8-8s-8 3.582-8 8z"/><path d="m198.099 357.059c0 4.418 3.582 8 8 8s8-3.582 8-8v-7.918c0-4.418-3.582-8-8-8s-8 3.582-8 8z"/><path d="m302.08 438.014c-4.418 0-8 3.582-8 8v7.033c0 4.418 3.582 8 8 8s8-3.582 8-8v-7.033c0-4.418-3.582-8-8-8z"/><path d="m355.08 438.014c-4.418 0-8 3.582-8 8v7.033c0 4.418 3.582 8 8 8s8-3.582 8-8v-7.033c0-4.418-3.582-8-8-8z"/><path d="m408.079 438.014c-4.418 0-8 3.582-8 8v7.033c0 4.418 3.582 8 8 8s8-3.582 8-8v-7.033c0-4.418-3.582-8-8-8z"/><path d="m275.581 395.363c-4.418 0-8 3.582-8 8v7.034c0 4.418 3.582 8 8 8s8-3.582 8-8v-7.034c0-4.418-3.582-8-8-8z"/><path d="m328.58 395.363c-4.418 0-8 3.582-8 8v7.034c0 4.418 3.582 8 8 8s8-3.582 8-8v-7.034c0-4.418-3.582-8-8-8z"/><path d="m381.579 395.363c-4.418 0-8 3.582-8 8v7.034c0 4.418 3.582 8 8 8s8-3.582 8-8v-7.034c0-4.418-3.582-8-8-8z"/><path d="m434.579 395.363c-4.418 0-8 3.582-8 8v7.034c0 4.418 3.582 8 8 8s8-3.582 8-8v-7.034c0-4.418-3.582-8-8-8z"/><path d="m473.632 364.343c24.391-92.69-35.491-186.529-118.552-186.529-22.117 0-43.524 6.854-62.214 19.468-26.907-30.165-63.993-48.548-104.095-51.723.642-3.543 1.287-7.421 1.895-11.567 23.541 8.248 57.449 1.856 87.556-30.492 6.596-7.089 6.01-17.888-1.322-24.221-12.276-10.603-37.277-28.148-66.832-26.545-7.08.384-13.626 1.741-19.591 4.043-5.977-28.258-19.7-47.123-40.904-56.136-4.064-1.73-8.763.167-10.492 4.232-1.729 4.066.167 8.764 4.233 10.492 13.503 5.74 23.12 17.264 28.735 34.352-21.402-12.769-56.321-11.536-90.017 17.565-7.117 6.147-7.694 16.644-1.285 23.529 30.21 32.46 64.517 37.47 87.084 27.431 2.124 2.497 4.712 5.085 7.813 7.52-.92 7.198-2.016 13.776-3.069 19.342-20.963.48-41.222 5.045-60.271 13.599-4.031 1.81-5.831 6.544-4.021 10.574 1.81 4.032 6.542 5.83 10.575 4.021 15.914-7.145 32.776-11.189 50.22-12.06-.316 1.266-.505 1.966-.515 2-1.164 4.261 1.345 8.659 5.606 9.825 4.263 1.167 8.663-1.347 9.827-5.605.069-.253.658-2.425 1.514-6.09 36.378 2.367 70.136 18.649 94.673 45.72-6.706 5.92-13.248 12.99-19.03 20.791-6.183 8.342 6.449 18.181 12.855 9.525 19.195-25.899 48.09-43.592 81.071-43.592 74.902 0 125.939 87.984 102.097 170.022-213.871 0-204.178.047-204.217-.084-11.032-38.051-3.128-67.856-3.185-70.992-.069-3.721-2.74-7.005-6.541-7.71-4.339-.797-8.519 2.063-9.325 6.407-4.624 24.93-3.332 50.282 2.612 72.88-12.226 2.558-20.566 14.711-17.849 27.418 3.492 16.333 9.629 32.089 17.986 46.55-95.672 53.239-200.657-34.119-200.657-137.05 0-39.536 16.833-77.437 46.183-103.982 3.277-2.964 3.531-8.023.567-11.3-2.963-3.277-8.023-3.529-11.299-.567-32.697 29.574-51.45 71.8-51.45 115.85 0 115.627 118.751 210.782 225.344 150.499 28.127 39.159 69.219 60.25 109.735 60.25 65.814 0 122.309-54.315 136.407-120.248 2.703-12.643-5.519-24.815-17.855-27.412zm-331.638-257.575c-9.652-.524-28.922-4.711-49.535-26.857-.22-.235-.214-.309.029-.52 14.57-12.582 33.338-22.367 52.175-21.337 12.977.705 23.827 5.864 30.698 16.729 2.685 4.239 5.023 8.672 2.65 13.115-6.456 12.104-18.705 19.817-36.017 18.87zm50.655-33.464c5.286-2.681 11.409-4.221 18.285-4.594 10.282-.555 31.156 1.646 55.505 22.676.454.395.487.762.068 1.213-21.911 23.541-42.423 27.992-52.7 28.551-16 .878-26.16-5.049-32.484-11.788 10.965-10.092 17.323-22.285 11.326-36.058zm283.191 315.105c-13.115 61.339-65.031 107.594-120.761 107.594-58.134 0-108.241-49.039-120.761-107.595-.948-4.434 2.507-8.571 7.022-8.571 22.398 0 199.371-.001 221.729-.001 3.879.379 8.18-1.243 11.348 2.675.793.98 2.033 3.049 1.423 5.898z"/><path d="m251.03 269.852c4.428 0 8-3.599 8-8 0-3.749-2.636-7.099-6.431-7.84-4.914-.992-9.57 2.769-9.57 7.84.001 4.458 3.64 8 8.001 8z"/></g></svg>