<svg id="Layer_1" enable-background="new 0 0 511.922 511.922" height="512" viewBox="0 0 511.922 511.922" width="512" xmlns="http://www.w3.org/2000/svg"><path d="m236.065 12.609c-38.903 25.524-50.428 78.23-50.428 78.23l23.117 12.609c6.439-32.533 38.015-51.295 59.621-60.515 9.71-4.144 12.556-16.538 5.561-24.446l-.734-.83c-9.418-10.649-25.251-12.847-37.137-5.048z" fill="#69da61"/><path d="m303.259 266.373c-20.775-33.061-30.705-71.474-29.395-110.499 1.302-38.767-30.227-70.471-69.113-70.471-38.95 0-70.412 31.769-69.112 70.471 1.31 39.025-8.619 77.438-29.395 110.499-10.958 17.438-17.284 38.002-17.284 60.025 0 63.047 51.841 160.84 115.791 160.84s115.791-97.793 115.791-160.84c.001-22.023-6.325-42.587-17.283-60.025z" fill="#a8ffa9"/><path d="m108.752 348.493c0-22.022 6.326-42.587 17.284-60.024 20.775-33.061 30.705-71.474 29.395-110.499-1.3-38.535 29.999-70.471 69.112-70.471 15.23 0 29.301 4.865 40.726 13.09-11.791-20.978-34.467-35.186-60.517-35.186-39.17 0-70.411 31.991-69.112 70.471 1.31 39.025-8.619 77.438-29.395 110.499-10.958 17.438-17.284 38.002-17.284 60.025 0 43.47 24.646 103.452 60.911 136.515-25.145-33.739-41.12-79.427-41.12-114.42z" fill="#d3ffd2"/><path d="m247.432 188.935c1.441 42.91-9.478 85.149-32.322 121.502-12.049 19.174-19.005 41.786-19.005 66.001 0 32.084 12.215 72.345 32.303 106.349 52.603-19.793 92.134-101.335 92.134-156.389 0-22.022-6.326-42.587-17.284-60.025-20.775-33.061-30.705-71.474-29.395-110.499.265-7.94-.851-15.774-3.321-23.3-15.118 14.438-23.838 34.609-23.11 56.361z" fill="#85eda2"/><path d="m408.201 315.335c-17.742-28.233-26.222-61.038-25.103-94.364 1.112-33.107-25.813-60.181-59.021-60.181-33.263 0-60.13 27.13-59.021 60.181 1.119 33.326-7.361 66.13-25.103 94.364-9.358 14.892-14.76 32.453-14.76 51.26 0 53.841 44.272 137.354 98.883 137.354 54.612 0 98.884-83.513 98.884-137.354.001-18.807-5.401-36.368-14.759-51.26z" fill="#ffe070"/><path d="m408.201 315.335c-17.742-28.234-26.222-61.038-25.103-94.364 1.232-36.799-31.979-65.498-68.917-59.351 28.575 4.756 50.129 29.716 49.125 59.351-1.119 33.326 7.361 66.13 25.103 94.364 9.358 14.891 14.76 32.453 14.76 51.26 0 50.548-39.023 127.246-88.988 136.439 59.048 10.861 108.779-79.213 108.779-136.439.001-18.806-5.401-36.368-14.759-51.26z" fill="#ffce66"/><path d="m379.447 362.517c0 68.173-24.79 95.513-55.369 95.513s-55.369-27.341-55.369-95.513 24.79-123.438 55.369-123.438 55.369 55.265 55.369 123.438z" fill="#ffce66"/><path d="m364.269 354.098c0 51.21-17.994 71.748-40.191 71.748s-40.191-20.538-40.191-71.748 17.994-92.725 40.191-92.725 40.191 41.514 40.191 92.725z" fill="#ffb750"/><path d="m324.078 261.373c-3.392 0-6.684.98-9.831 2.806 17.444 10.12 30.361 46.534 30.361 89.919 0 43.384-12.917 64.748-30.361 70.267 3.147.995 6.439 1.481 9.831 1.481 22.197 0 40.191-20.538 40.191-71.748s-17.994-92.725-40.191-92.725z" fill="#ea8e50"/><g fill="#231f20"><path d="m414.975 311.079c-16.704-26.581-24.962-57.646-23.88-89.844 1.206-37.932-29.645-68.444-67.018-68.444-16.006 0-30.715 5.575-42.256 14.852-.199-7.655.082-10.91.082-14.064 0-33.993-22.672-62.849-53.867-72.622 11.738-14.843 29.533-24.715 43.48-30.667 14.572-6.219 19.134-24.982 8.413-37.104l-.734-.83c-12.002-13.569-32.431-16.337-47.52-6.436-25.536 16.754-42.91 46.37-51.781 75.563-31.118 10.489-53.397 40.092-52.25 74.659.44 13.116-.449 26.246-2.645 39.023-.748 4.354 2.176 8.491 6.53 9.239 4.352.737 8.49-2.177 9.239-6.53 3.65-21.247 2.832-35.166 2.832-44.297 0-36.485 32.907-64.68 69.756-59.567 30.384 4.231 53.586 30.489 52.511 61.595-.322 9.596.021 19.276 1.019 28.82-3.657 5.883-6.047 11.705-7.752 18.071-5.391 20.743 5.451 58.606-25.955 108.581-2.526 4.021-1.036 9.455 3.426 11.515 3.662 1.699 8.006.364 10.121-3.001 32.94-52.419 23.982-94.919 27.374-110.85 4.832-22.783 25.403-39.952 49.976-39.952 28.322 0 51.936 23.002 51.026 51.912-1.189 35.397 7.914 69.593 26.324 98.89 8.854 14.09 13.533 30.343 13.533 47.003 0 49.9-41.593 129.354-90.884 129.354-49.152 0-89.987-78.429-90.868-127.708-.079-4.418-3.75-7.936-8.142-7.856-4.418.079-7.935 3.725-7.856 8.142.543 30.511 13.581 65.955 30.854 92.239.213.324.652.972.652.972-14.44 11.617-29.204 17.5-43.965 17.5-58.461 0-107.791-93.879-107.791-152.84 0-19.767 5.553-39.051 16.058-55.769 7.224-11.495 13.29-23.799 18.031-36.569 1.537-4.142-.573-8.746-4.716-10.284-4.144-1.539-8.746.573-10.284 4.716-4.359 11.743-9.938 23.057-16.578 33.625-12.11 19.271-18.511 41.498-18.511 64.281 0 67.06 54.597 168.84 123.791 168.84 18.038 0 36.366-7.107 53.435-20.616 45.567 55.993 102.31 47.238 142.525-14.808 18.658-28.787 30.249-64.507 30.249-93.219.002-19.675-5.526-38.872-15.984-55.515zm-216.945-233.384c8.311-22.626 22.187-45.12 42.423-58.397 3.409-2.236 7.306-3.32 11.188-3.32 10.762 0 15.878 7.493 16.305 7.81 3.37 3.811 2.002 9.778-2.709 11.788-17.669 7.54-40.876 20.815-54.463 42.062-4.241-.325-8.692-.295-12.744.057z"/><path d="m324.077 433.846c14.49 0 48.191-7.771 48.191-79.748 0-57.423-20.718-100.725-48.191-100.725s-48.191 43.302-48.191 100.725c0 71.978 33.701 79.748 48.191 79.748zm-21.079-142.133c6.063-13.988 13.943-22.34 21.079-22.34s15.017 8.352 21.079 22.34c16.107 37.157 19.214 126.133-21.079 126.133-20.458 0-32.191-23.235-32.191-63.748 0-23.697 3.946-45.852 11.112-62.385z"/><path d="m306.721 332.829c3.051 2.06 7.34 1.767 10.1-1 6.169-6.169-.699-16.382-8.72-13.04-5.937 2.479-6.667 10.559-1.38 14.04z"/><path d="m339.761 370.249c-5.66-1.131-10.565 3.983-9.4 9.41 1.686 8.545 13.995 8.544 15.681 0 .87-4.057-1.66-8.409-6.281-9.41z"/><path d="m312.551 364.519c3.676-1.527 5.525-5.413 4.78-8.949-.862-4.377-5.146-7.141-9.41-6.28-4.934.964-7.745 6.28-5.82 10.9 1.624 3.971 6.259 6.075 10.45 4.329z"/><path d="m309.261 396.259c2.205 2.205 5.586 3.023 8.72 1.74 2.926-1.219 4.931-4.084 4.931-7.39 0-5.706-5.808-9.575-11.051-7.391-5.314 2.175-6.587 9.17-2.6 13.041z"/><path d="m335.771 353.78c4.487 0 8-3.693 8-8 0-5.09-4.693-8.835-9.569-7.851-9.524 2.058-7.942 15.851 1.569 15.851z"/><path d="m343.491 320.87c2.848-4.233.989-9.96-3.591-11.83-8.267-3.283-14.773 6.983-8.71 13.05 3.414 3.505 9.496 3.03 12.301-1.22z"/><path d="m314.541 300.509c6.585 6.782 17.593-1.815 12.31-10.1-6.83-10.033-20.259 2.152-12.31 10.1z"/><path d="m228.94 347.94c4.499 0 8-3.675 8-8 0-3.699-2.599-7.083-6.439-7.841-5.508-1.121-10.516 3.74-9.41 9.4.836 3.865 4.058 6.441 7.849 6.441z"/></g></svg>