<svg id="Layer_1" enable-background="new 0 0 512.005 512.005" height="512" viewBox="0 0 512.005 512.005" width="512" xmlns="http://www.w3.org/2000/svg"><path d="m349.757 242.419c0 89.736-72.475 162.481-161.877 162.481s-161.877-72.745-161.877-162.481 72.475-133.176 161.877-133.176 161.877 43.441 161.877 133.176z" fill="#ff5872"/><path d="m157.428 402.018c9.864 1.885 20.041 2.883 30.452 2.883 89.402 0 161.877-72.745 161.877-162.481 0-19.554-3.444-36.909-9.752-52.096-58.88-1.91-118.523 20.231-154.903 66.746-9.239 11.812 4.036 21.977-7.56 34.037-5.434 5.651-17.311 9.332-19.685 16.926-9.397 30.053-9.463 62.999-.429 93.985z" fill="#db4968"/><ellipse cx="163.295" cy="282.007" fill="#db4968" rx="8.594" ry="6.91" transform="matrix(.5 -.866 .866 .5 -162.578 282.422)"/><path d="m47.089 242.419c0-9.29.777-18.084 2.269-26.385.776-4.32 11.283-9.353 12.439-13.406 2.321-8.145-2.444-13.968 1.301-21.042 3.147-5.944 5.068-12.447 9.128-17.639 26.945-34.457 73.086-52.411 126.199-54.492-93.061-3.652-172.421 39.053-172.421 132.964 0 93.439 78.519 168.194 172.421 162.129-84.489-5.453-151.336-75.949-151.336-162.129z" fill="#ff7f90"/><ellipse cx="78.963" cy="185.029" fill="#ff7f90" rx="6.359" ry="6.359" transform="matrix(.178 -.984 .984 .178 -117.166 229.799)"/><path d="m486.003 356.203c0 79.882-68.493 147.802-152.984 147.802s-152.984-67.921-152.984-147.802 68.493-138.579 152.984-138.579 152.984 58.697 152.984 138.579z" fill="#ff7f90"/><path d="m486.003 356.203c0 79.882-68.493 147.802-152.984 147.802s-152.984-67.921-152.984-147.802 68.493-138.579 152.984-138.579 152.984 58.697 152.984 138.579z" fill="#ff9db7"/><path d="m467.634 356.756c0 11.52-15.27 9.648-18.515 23.763-2.552 11.101 8.021 26.79 3.817 34.713-19.214 36.212-55.552 63.184-98.714 69.936-6.907 1.081-13.989-8.596-21.203-8.596-8.078 0-15.99 9.534-23.677 8.186-63.055-11.058-110.939-65.349-110.939-128.002 0-70.291 60.269-121.94 134.615-121.94s134.616 51.65 134.616 121.94z" fill="#ff7f90"/><ellipse cx="462.441" cy="383.33" fill="#ff7f90" rx="6.326" ry="5.193" transform="matrix(.288 -.958 .958 .288 -37.914 715.654)"/><path d="m287.683 356.319c0-25.561 6.476-48.081 19.489-65.148 10.334-13.554-3.39-32.466-19.396-26.706-29.722 10.697-57.012 35.78-57.012 91.854 0 59.616 27.953 88.325 58.09 101.853 16.036 7.198 31.119-11.375 21.04-25.817-14.831-21.253-22.211-48.75-22.211-76.036z" fill="#ff5872"/><path d="m376.355 356.319c0-25.561-6.476-48.081-19.489-65.148-10.334-13.554 3.39-32.466 19.396-26.706 29.722 10.697 57.012 35.78 57.012 91.854 0 59.616-27.953 88.325-58.09 101.853-16.036 7.198-31.119-11.375-21.04-25.817 14.831-21.253 22.211-48.75 22.211-76.036z" fill="#ff5872"/><path d="m163.336 93.121s-37.949-27.752-103.547 21.222c0 0 29.291 37.137 78.572 34.393 27.617-1.538 42.022-33.752 24.975-55.615z" fill="#69da61"/><path d="m163.336 93.121s-14.214-10.389-40.276-7.232c-9.14 14.361-13.002 32.189-9.033 50.48.787 3.627 1.732 7.314 2.833 11.042 6.661 1.212 13.839 1.752 21.501 1.325 27.617-1.538 42.022-33.752 24.975-55.615z" fill="#5ab161"/><path d="m212.424 93.121s37.949-27.752 103.547 21.222c0 0-29.291 37.137-78.572 34.393-27.617-1.538-42.022-33.752-24.975-55.615z" fill="#69da61"/><path d="m212.424 93.121c-17.047 21.863-2.642 54.077 24.975 55.615 7.662.427 14.84-.113 21.501-1.325 1.101-3.728 2.046-7.415 2.833-11.042 3.969-18.291.108-36.119-9.033-50.48-26.062-3.157-40.276 7.232-40.276 7.232z" fill="#5ab161"/><path d="m192.85 81.424h-9.941c-30.533 0-53.715 28.201-47.218 58.146 5.123 23.61 19.111 50.661 52.188 73.567 33.077-22.906 47.065-49.957 52.188-73.567 6.499-29.944-16.683-58.146-47.217-58.146z" fill="#a8ffa9"/><path d="m229.791 12.834c-8.138-6.126-19.289-6.48-27.698-.736-34.561 23.605-24.598 64.582-23.397 69.023.064.237.276.394.521.394h16.025c.304 0 .549-.246.541-.551-.118-4.465.295-34.945 32.41-50.978 6.726-3.359 7.608-12.628 1.598-17.152z" fill="#69da61"/><path d="m190.409 147.58c3.374 9.025.348 18.511-6.758 21.187s-15.602-2.47-18.976-11.495-.348-18.511 6.758-21.187c7.107-2.677 15.602 2.47 18.976 11.495z" fill="#c9ffd2"/><g fill="#231f20"><path d="m132.081 343.972c-34.805-20.066-56.425-57.534-56.425-97.782 0-4.418-3.582-8-8-8s-8 3.582-8 8c0 45.949 24.689 88.729 64.433 111.644 3.853 2.22 8.734.868 10.927-2.935 2.206-3.829.892-8.72-2.935-10.927z"/><path d="m354.624 210.876c-6.506-31.215-23.213-57.219-48.789-76.047 10.203-7.806 15.878-14.849 16.417-15.531 2.783-3.53 2.114-8.671-1.495-11.365-47.538-35.492-82.045-33.177-100.287-27.274-5.058-2.852-10.54-4.897-16.272-6.069 1.32-9.428 6.642-26.999 27.569-37.446 12.061-6.021 13.58-22.615 2.836-30.7-10.93-8.226-25.807-8.609-37.022-.951-30.837 21.062-30.44 54.073-28.216 69.591-4.937 1.218-9.666 3.09-14.073 5.576-18.242-5.901-52.751-8.215-100.288 27.274-3.603 2.69-4.283 7.828-1.495 11.365.538.682 6.213 7.725 16.415 15.53-34.018 24.95-51.92 61.894-51.92 107.591 0 92.441 73.694 167.93 165.22 170.415 23.03 56.099 80.483 99.171 149.796 99.171 89.263 0 160.983-71.72 160.983-155.803 0-77.857-61.201-136.252-139.379-145.327zm-166.744-7.59c-28.962-21.674-44.38-52.386-45.238-72.174-.582-13.823 6.138-27.072 18.005-34.966 12.613-8.408 23.362-6.508 34.721-6.639 21.8 1.346 38.807 20.089 37.74 41.833-.94 19.627-16.006 50.111-45.228 71.946zm115.913-87.762c-9.188 8.6-28.696 23.363-55.785 25.169 3.381-16.392-.73-33.816-11.965-47.126 25.4-2.878 52.019 11.407 67.75 21.957zm-97.188-96.82c5.544-3.788 12.93-3.578 18.375.521 1.273.959 1.048 2.899-.36 3.602-27.967 13.962-34.76 38.057-36.363 50.597h-2.992c-1.848-11.77-2.79-38.239 21.34-54.72zm-66.887 74.863c-11.165 13.227-15.368 30.626-11.965 47.126-27.093-1.809-46.607-16.577-55.787-25.168 15.731-10.551 42.338-24.838 67.752-21.958zm193.301 402.438c-63.955 0-116.768-40.713-136.435-92.917-.076-.327-.17-.651-.288-.971-11.849-32.081-11.495-68.829 4.508-101.006 1.887-3.794.593-8.825-3.781-10.802-3.616-1.635-8.381-.674-10.545 3.676-16.149 32.472-18.191 69.472-8.87 102.573-136.986-9.111-192.796-186.335-93.227-252.32 15.059 8.231 31.386 12.525 48.022 12.639 7.824 21.37 21.798 40.129 41.725 56 13.892 11.095 13.743 10.989 27.502 0 19.927-15.871 33.901-34.63 41.725-56 17.111-.118 33.432-4.664 48.032-12.646 24.193 15.996 39.824 37.967 46.579 65.459-40.527-1.018-78.336 11.028-107.188 32.189-3.563 2.613-4.333 7.62-1.719 11.183 2.626 3.579 7.636 4.318 11.183 1.72 89.771-65.842 237.76-15.577 237.76 101.42.001 75.608-64.9 139.803-144.983 139.803z"/><path d="m313.533 296.022c15.191-19.924-4.972-47.541-28.466-39.084-51.494 18.533-62.303 64.273-62.303 99.382 0 36.931 10.897 85.846 62.813 109.151 10.557 4.737 22.211 2.115 29.652-6.868 7.381-8.912 7.873-21.3 1.226-30.826-25.394-36.387-28.96-97.602-2.922-131.755zm-21.403 154.851c-35.411-15.896-53.366-47.708-53.366-94.554 0-43.604 17.401-71.976 51.721-84.327 8.548-3.075 15.809 7.137 10.324 14.328-30.571 40.099-26.563 108.929 2.525 150.612 5.454 7.817-2.58 17.814-11.204 13.941z"/><path d="m378.971 256.938c-23.483-8.445-43.664 19.151-28.468 39.084 26.041 34.154 22.471 95.37-2.921 131.755-14.543 20.839 7.192 48.324 30.877 37.694 30.448-13.668 50.099-37.422 58.405-70.601 1.073-4.285-1.532-8.63-5.818-9.703-4.284-1.068-8.629 1.532-9.703 5.818-7.055 28.181-23.688 48.33-49.437 59.888-8.57 3.856-16.684-6.087-11.203-13.94 29.088-41.68 33.096-110.513 2.524-150.612-5.51-7.227 1.811-17.391 10.325-14.328 34.319 12.352 51.721 40.724 51.721 84.327 0 4.418 3.582 8 8 8s8-3.582 8-8c.001-35.109-10.808-80.849-62.302-99.382z"/><path d="m206.032 264.715c-3.114 3.115-3.117 8.204 0 11.319 3.123 3.123 8.2 3.11 11.31 0 3.115-3.114 3.116-8.202 0-11.319-3.114-3.114-8.193-3.117-11.31 0z"/><path d="m271.962 308.135c3.909 0 7.133-2.815 7.84-6.44.727-3.721-1.226-7.476-4.78-8.949-4.043-1.654-8.718.18-10.45 4.329-2.171 5.234 1.657 11.06 7.39 11.06z"/><path d="m263.572 340.095c3.822 0 7.109-2.722 7.841-6.43.874-4.16-1.856-8.546-6.28-9.41-4.283-.873-8.55 1.931-9.4 6.279-.974 4.594 2.494 9.561 7.839 9.561z"/><path d="m255.692 354.005c-4.2-.857-8.538 1.867-9.4 6.279-1.012 4.771 2.671 9.561 7.84 9.561 4.466 0 8-3.638 8-8 0-3.875-2.782-7.125-6.44-7.84z"/><path d="m276.012 387.305c0-4.37-3.565-8-8-8-3.672 0-7.006 2.503-7.85 6.44-.97 5.013 2.86 9.569 7.85 9.569 4.244.001 8-3.432 8-8.009z"/><path d="m273.522 410.935c-4.831-.966-9.56 2.702-9.56 7.85 0 4.377 3.563 8 7.99 8 4.512 0 8.01-3.703 8.01-8 0-3.77-2.69-7.119-6.44-7.85z"/><path d="m388.302 289.705c-4.907-.991-9.57 2.769-9.57 7.84 0 4.414 3.584 8 8 8 4.398 0 8-3.557 8-8 0-3.793-2.703-7.111-6.43-7.84z"/><path d="m399.182 330.505c3.1 3.1 8.17 3.15 11.32 0 1.49-1.49 2.34-3.55 2.34-5.66 0-7.076-8.608-10.7-13.66-5.65-3.095 3.094-3.139 8.171 0 11.31z"/><path d="m393.672 349.635c-3.227 3.227-2.999 8.398 0 11.31 3.145 3.145 8.213 3.107 11.32 0 2.695-2.695 3.108-6.951.989-10.09-2.749-4.166-8.736-4.793-12.309-1.22z"/><path d="m410.022 389.034c5.217-1.117 7.675-6.48 5.83-10.899-1.455-3.563-5.286-5.537-8.95-4.79-4.7 1.017-7.117 5.457-6.279 9.41.847 4.335 5.081 7.131 9.399 6.279z"/><path d="m400.382 406.465c.843-3.975-1.612-8.4-6.28-9.41-3.66-.736-7.5 1.24-8.95 4.79-1.827 4.396.568 9.761 5.83 10.9 4.378.854 8.563-1.995 9.4-6.28z"/><path d="m384.732 423.205c-3.503-1.463-7.571-.229-9.71 2.939-2.11 3.204-1.685 7.416 1 10.101 3.108 3.106 8.162 3.14 11.311 0 4.036-4.036 2.64-10.91-2.601-13.04z"/></g></svg>