<svg id="Layer_1" enable-background="new 0 0 512.02 512.02" height="512" viewBox="0 0 512.02 512.02" width="512" xmlns="http://www.w3.org/2000/svg"><path d="m453.904 119.949c3.438-9.491-1.4-19.352-11.007-22.438-26.67-8.568-81.636-20.895-129.279 2.495-50.732 24.907-55.7 67.676-55.321 85.923.209 10.084 4.9 19.659 12.755 26.002 14.196 11.464 51.052 33.7 101.784 8.794 47.642-23.392 71.525-74.43 81.068-100.776z" fill="#69da61"/><path d="m442.897 97.51c-24.369-7.828-72.359-18.779-116.803-2.77 31.443-2.083 60.712 5.059 78.037 10.624 9.608 3.086 14.445 12.948 11.007 22.438-9.543 26.346-33.426 77.385-81.069 100.775-2.613 1.283-5.187 2.434-7.725 3.475 13.673.14 29.283-2.88 46.492-11.329 47.643-23.39 71.525-74.428 81.069-100.775 3.436-9.49-1.401-19.351-11.008-22.438z" fill="#5ab161"/><path d="m136.953 8.01c-11.135.094-19.472 8.887-18.97 20.008 1.394 30.871 9.78 92.447 52.283 132.718 45.258 42.882 91.393 31.575 110.115 24.168 10.347-4.094 18.443-12.625 21.982-23.186 6.396-19.086 15.219-65.745-30.039-108.627-42.503-40.27-104.46-45.342-135.371-45.081z" fill="#a8ffa9"/><path d="m199.982 175.946c-42.503-40.271-50.888-101.846-52.282-132.718-.502-11.121 7.834-19.914 18.97-20.008 20.22-.171 53.724 1.945 86.377 14.697-40.31-26.415-89.6-30.131-116.093-29.907-11.135.094-19.472 8.887-18.97 20.008 1.395 30.871 9.78 92.447 52.283 132.718 14.735 13.961 29.562 22.175 43.507 26.653-4.588-3.298-9.194-7.087-13.792-11.443z" fill="#85eda2"/><circle cx="245.53" cy="267.331" fill="#c991ff" r="113.132"/><path d="m132.479 271.393c2.14 60.598 51.931 109.069 113.051 109.069 61.158 0 110.973-48.531 113.055-109.182-.154-4.368-.553-8.673-1.188-12.902-30.533-7.944-64.406-3.056-92.322 16.027-9.405 6.429-21.777 6.429-31.182 0-30.384-20.77-67.916-24.774-100.579-13.534-.441 3.461-.713 6.972-.835 10.522z" fill="#b173ff"/><circle cx="170.14" cy="390.869" fill="#c991ff" r="113.132"/><path d="m230.644 295.266c21.971 20.637 35.698 49.949 35.698 82.471 0 62.481-50.651 113.132-113.131 113.132-22.255 0-43.006-6.43-60.505-17.528 20.24 19.011 47.474 30.661 77.433 30.661 62.481 0 113.132-50.651 113.132-113.132 0-40.227-20.997-75.545-52.627-95.604z" fill="#b173ff"/><path d="m67.423 413.757c0-62.481 50.651-113.132 113.132-113.132 41.29 0 77.408 22.124 97.162 55.16-14.766-45.305-57.344-78.048-107.577-78.048-62.481 0-113.132 50.651-113.132 113.132 0 21.191 5.832 41.017 15.97 57.971-3.6-11.045-5.555-22.835-5.555-35.083z" fill="#d3b3ff"/><circle cx="328.829" cy="390.869" fill="#c991ff" r="113.132"/><path d="m325.915 300.626c63.503 0 114.687 52.285 113.095 116.014 1.929-8.278 2.951-16.905 2.951-25.77 0-62.481-50.651-113.132-113.132-113.132-61.517 0-111.566 49.101-113.095 110.25 11.663-50.065 56.565-87.362 110.181-87.362z" fill="#d3b3ff"/><g fill="#231f20"><path d="m139.402 340.517h-8.756v-8.756c0-4.418-3.582-8-8-8s-8 3.582-8 8v8.756h-8.755c-4.418 0-8 3.582-8 8s3.582 8 8 8h8.755v8.755c0 4.418 3.582 8 8 8s8-3.582 8-8v-8.755h8.756c4.418 0 8-3.582 8-8s-3.582-8-8-8z"/><path d="m353.705 348.517c0 4.418 3.582 8 8 8h8.755v8.755c0 4.418 3.582 8 8 8s8-3.582 8-8v-8.755h8.756c4.418 0 8-3.582 8-8s-3.582-8-8-8h-8.756v-8.756c0-4.418-3.582-8-8-8s-8 3.582-8 8v8.756h-8.755c-4.418 0-8 3.581-8 8z"/><path d="m215.698 182.458c-4.418 0-8 3.582-8 8v8.756h-8.756c-4.418 0-8 3.582-8 8s3.582 8 8 8h8.756v8.755c0 4.418 3.582 8 8 8s8-3.582 8-8v-8.755h8.755c4.418 0 8-3.582 8-8s-3.582-8-8-8h-8.755v-8.756c0-4.418-3.582-8-8-8z"/><path d="m221.076 412.241c-4.887-.996-9.561 2.759-9.561 7.84 0 3.791 2.675 7.104 6.431 7.84 4.858 1.027 9.569-2.769 9.569-7.84 0-3.82-2.734-7.113-6.439-7.84z"/><path d="m461.425 122.673c4.981-13.75-2.142-28.301-16.083-32.78-44.192-14.197-94.838-17.305-136.189 3.403-5.527-14.986-15.222-30.751-31.329-46.011-44.113-41.798-107.251-47.573-140.939-47.274-15.667.132-27.601 12.698-26.896 28.369 2.287 50.632 18.115 103.432 54.773 138.164 1.991 1.886 4.029 3.689 6.089 5.434-5.615 4.394-10.876 9.297-15.693 14.69-2.943 3.295-2.658 8.352.638 11.295 3.294 2.944 8.354 2.658 11.296-.637 17.1-19.145 40.443-31.152 65.209-34.282 64.524-8.211 120.927 43.733 118.27 108.647-36.161-6.586-73.363 3.519-101.147 27.603-29.827-25.896-70.514-35.541-108.853-25.918-.867-15.176 1.492-30.297 7.083-44.511 1.618-4.111-.404-8.756-4.516-10.373-4.111-1.619-8.757.404-10.373 4.517-6.737 17.125-9.633 35.918-7.834 55.487-44.465 17.952-75.925 61.555-75.925 112.374 0 103.779 122.728 159.026 200.427 91.556 21.698 18.893 49.625 29.575 79.394 29.575 66.792 0 121.132-54.339 121.132-121.132 0-53.695-35.122-99.333-83.596-115.17 1.007-14.688-.639-28.714-4.387-41.761 48.965-17.099 81.829-62.612 99.449-111.265zm-27.464 268.196c0 57.97-47.162 105.132-105.132 105.132-37.527 0-70.508-19.435-89.32-49.655-2.498-4.01-7.925-5.008-11.692-2.097-3.225 2.493-4.085 7.078-1.865 10.594 3.457 5.547 7.676 11.24 12.107 16.272-67.568 57.356-173.051 9.424-173.051-80.245 0-89.038 104.572-138.334 173.013-80.277-18.968 21.442-28.931 47.897-30.186 74.462-.209 4.413 3.2 8.16 7.613 8.369 4.429.21 8.16-3.201 8.369-7.613 1.221-25.845 11.944-50.844 31.28-69.873 65.876-64.826 178.864-18.422 178.864 74.931zm-249.323-228.263c-39.994-31.493-56.385-84.494-58.664-134.948-.299-6.582 4.436-11.591 11.046-11.648 47.191-.394 96.532 11.37 129.801 42.89 29.733 28.172 39.2 63.664 28.665 98.058-13.924-6.297-29.628-10.181-46.145-10.692-2.344-11.215-9.394-33.76-30.36-59.423-2.793-3.421-7.832-3.93-11.257-1.134-3.422 2.795-3.929 7.835-1.134 11.257 17.292 21.168 23.936 39.811 26.446 49.882-16.694 1.72-33.245 6.928-48.398 15.758zm171.942 56.274c-4.782-10.959-11.139-21.074-18.81-30.077 3.462-7.939 12.743-25.676 30.92-38.44 3.615-2.539 4.488-7.528 1.949-11.144-2.538-3.617-7.528-4.49-11.145-1.95-17.692 12.424-28.187 28.659-33.665 39.382-4.979-4.406-10.323-8.432-16.015-11.999 5.765-16.662 7.536-36.732 3.774-55.645 38.093-20.358 85.538-17.153 126.86-3.88 5.284 1.697 7.828 6.863 5.933 12.097-15.997 44.166-45.404 86.215-89.801 101.656z"/></g></svg>