<svg height="513" viewBox="0 0 258 513" width="258" xmlns="http://www.w3.org/2000/svg"><g fill="none" fill-rule="evenodd" transform="translate(3 1)"><ellipse cx="126" cy="492.7" fill="#221c58" fill-rule="nonzero" opacity=".55" rx="118" ry="19"/><path d="m148 265h-44c-39.8 0-72-32.4-72-72.2v-107.8h188v107.8c0 39.8-32.2 72.2-72 72.2z" fill="#5ea652" fill-rule="nonzero"/><path d="m76.5 195.4v-110.4h-44.5v107.8c0 39.8 32.2 72.2 72 72.2h26.2c-30.9-8.1-53.7-36.2-53.7-69.6z" fill="#4b9b56" fill-rule="nonzero"/><path d="m148 265h-44c-39.8 0-72-32.4-72-72.2v-107.8h188v107.8c0 39.8-32.2 72.2-72 72.2z" stroke="#041d31" stroke-linecap="round" stroke-linejoin="round" stroke-width="6"/><path d="m207.4 17.8c-53.6-11.8-109.2-11.8-162.9 0-7.3 1.6-12.6 8.1-12.6 15.6v51.4c61.7 15.8 126.3 15.8 188 0v-51.4c.1-7.4-5.1-13.9-12.5-15.6z" fill="#5ea652" fill-rule="nonzero"/><path d="m207.4 17.8c-1.8-.4-3.6-.8-5.4-1.2v72.4c6-1.2 12-2.6 18-4.2v-51.4c0-7.4-5.2-13.9-12.6-15.6z" fill="#70ba61" fill-rule="nonzero"/><path d="m76.5 38.6c0-10.1 3-19.5 8.2-27.4-13.5 1.5-26.9 3.7-40.1 6.6-7.3 1.6-12.6 8.1-12.6 15.6v51.4c14.7 3.8 29.6 6.6 44.5 8.6z" fill="#4b9b56" fill-rule="nonzero"/><path d="m228 182h-8v-54h8c6.6 0 12 5.7 12 12.3v30c0 6.6-5.4 11.7-12 11.7z" fill="#4b9b56" fill-rule="nonzero"/><path d="m228 182h-8v-54h8c6.6 0 12 5.7 12 12.3v30c0 6.6-5.4 11.7-12 11.7z" stroke="#041d31" stroke-linecap="round" stroke-linejoin="round" stroke-width="6"/><path d="m24 182h8v-54h-8c-6.6 0-12 5.7-12 12.3v30c0 6.6 5.4 11.7 12 11.7z" fill="#44934c" fill-rule="nonzero"/><path d="m24 182h8v-54h-8c-6.6 0-12 5.7-12 12.3v30c0 6.6 5.4 11.7 12 11.7z" stroke="#041d31" stroke-linecap="round" stroke-linejoin="round" stroke-width="6"/><path d="m119.7 235.3c1.4-11.3 11.7-19.4 23-18 2.8.3 5.5 1.3 7.8 2.6" stroke="#041d31" stroke-linecap="round" stroke-linejoin="round" stroke-width="6"/><path d="m69 387.3v90h54v-47.3c0-2.8 2.3-5 5-5 2.8 0 5 2.2 5 5v47.3h54v-90z" fill="#2b323a" fill-rule="nonzero"/><path d="m142.5 477.3h-9.5v-52.3h1.4c4.5 0 8.1 3.6 8.1 8.1z" fill="#252c33" fill-rule="nonzero" opacity=".8"/><path d="m69 387.3h12.2v90h-12.2z" fill="#252c33" fill-rule="nonzero" opacity=".8"/><path d="m69 387.3v90h54v-47.3c0-2.8 2.3-5 5-5 2.8 0 5 2.2 5 5v47.3h54v-90z" stroke="#041d31" stroke-linecap="round" stroke-linejoin="round" stroke-width="6"/><circle cx="204.8" cy="406.9" fill="#5ea652" fill-rule="nonzero" r="18.5"/><path d="m203.3 408.5c-.7-7.7 3.5-14.7 9.9-18-3-1.6-6.5-2.3-10.1-2-10.2.9-17.7 9.9-16.8 20.1s9.9 17.7 20.1 16.8c2.5-.2 4.8-.9 6.9-2-5.5-2.9-9.4-8.3-10-14.9z" fill="#4b9b56" fill-rule="nonzero"/><circle cx="204.8" cy="406.9" r="18.5" stroke="#041d31" stroke-linecap="round" stroke-linejoin="round" stroke-width="6"/><circle cx="89.4" cy="158" fill="#fff" fill-rule="nonzero" r="32"/><circle cx="89.4" cy="158" r="32" stroke="#041d31" stroke-linecap="round" stroke-linejoin="round" stroke-width="6"/><g fill-rule="nonzero"><circle cx="105.7" cy="159" fill="#041d31" r="14"/><circle cx="110.7" cy="159" fill="#fff" r="5"/><path d="m123 477.3h-54v8c0 3.3 2.7 6 6 6h42c3.3 0 6-2.7 6-6z" fill="#534741"/><path d="m81.2 485.3v-8h-12.2v8c0 3.3 2.7 6 6 6h12.2c-3.3 0-6-2.7-6-6z" fill="#4c3e38"/><path d="m139 491.3h42c3.3 0 6-2.7 6-6v-8h-54v8c0 3.3 2.7 6 6 6z" fill="#534741"/><path d="m142.5 485.3v-8h-9.5v8c0 3.3 2.7 6 6 6h9.5c-3.3 0-6-2.7-6-6z" fill="#4c3e38"/></g><path d="m123 477.3h-54v8c0 3.3 2.7 6 6 6h42c3.3 0 6-2.7 6-6z" stroke="#041d31" stroke-linecap="round" stroke-linejoin="round" stroke-width="6"/><path d="m139 491.3h42c3.3 0 6-2.7 6-6v-8h-54v8c0 3.3 2.7 6 6 6z" stroke="#041d31" stroke-linecap="round" stroke-linejoin="round" stroke-width="6"/><circle cx="51.4" cy="408.5" fill="#5ea652" fill-rule="nonzero" r="18.7"/><path d="m47.2 406.9c.6-7.2 5.2-13 11.4-15.6-1.7-.7-3.6-1.2-5.6-1.4-10.3-.9-19.4 6.7-20.3 17s6.7 19.4 17 20.3c3.1.3 6.2-.3 8.9-1.4-7.3-3.1-12.1-10.6-11.4-18.9z" fill="#4b9b56" fill-rule="nonzero"/><circle cx="51.4" cy="408.5" r="18.7" stroke="#041d31" stroke-linecap="round" stroke-linejoin="round" stroke-width="6"/><path d="m223.4 406.5-7.6-86.9c-1.4-15.6-13.8-27.6-28.8-29.5 0 0 0 0 0-.1-39.2-4.9-78.8-4.9-118 0v.1c-15.1 1.8-27.4 14-28.8 29.7l-7.6 86.9 35.9 3.1 1-11.7c38.8 4.9 78.1 4.9 116.9 0l1 11.6z" fill="#ffad57" fill-rule="nonzero"/><path d="m215.8 318.7c-1.4-15.7-13.8-27.7-28.8-29.6 0 0 0 0 0-.1-39.2-4.9-78.8-4.9-118 0v.1c-15.1 1.8-27.4 14-28.8 29.7l-7.6 86.9 1 .1 6.6-76c1.4-15.7 13.7-27.9 28.8-29.7 0 0 0 0 0-.1 11.2-1.4 22.4-2.4 33.7-3 2 7.1 8.5 12.3 16.2 12.3h18.2c7.7 0 14.2-5.2 16.2-12.3 11.2.6 22.5 1.6 33.7 3v.1c15 1.9 27.4 13.9 28.8 29.6l6.6 76 1-.1z" fill="#e89567" fill-rule="nonzero" opacity=".83"/><g stroke="#041d31" stroke-linecap="round" stroke-linejoin="round" stroke-width="6" transform="translate(32 286)"><path d="m191.4 120.5-7.6-86.9c-1.4-15.6-13.8-27.6-28.8-29.5 0 0 0 0 0-.1-39.2-4.9-78.8-4.9-118 0v.1c-15.1 1.8-27.4 14-28.8 29.7l-7.6 86.9 35.9 3.1 1-11.7c36.7 5.9 78 6.2 116.9 0l1 11.6z"/><path d="m36.5 123.8 6.8-77.8"/><path d="m154.5 112.1-5.8-66.1"/></g><path d="m209.2 10c-27.3-6-55.2-9.1-83.2-9.1-27.9 0-55.9 3-83.2 9.1-10.9 2.4-18.8 12.3-18.8 23.4v18.5l6 1c7.4 1.2 14.9 2.2 22.3 3.2l5.9-19.3h7.8l1.1 20.9c6.8.7 13.7 1.2 20.6 1.6l2.3-22.5 3.1 22.9c8.7.5 17.4.8 26.1.8l3.8-21.7 3 21.8 14.5-3.5 6.2-29.8 17.6 32c7.3-.5 14.6-1 21.9-1.8v-23.3l5.2-1 8.6 22.7c4.4-.5 8.9-1.1 13.3-1.8-.5-10.5-1.3-30.1.3-27s7 17.7 9.8 25.4l4.5-.7v-18.5c.1-11-7.8-20.9-18.7-23.3z" fill="#041d31" fill-rule="nonzero"/><path d="m209.2 10c-27.3-6-55.2-9.1-83.2-9.1-27.9 0-55.9 3-83.2 9.1-10.9 2.4-18.8 12.3-18.8 23.4v18.5l6 1c7.4 1.2 14.9 2.2 22.3 3.2l5.9-19.3h7.8l1.1 20.9c6.8.7 13.7 1.2 20.6 1.6l2.3-22.5 3.1 22.9c8.7.5 17.4.8 26.1.8l3.8-21.7 3 21.8 14.5-3.5 6.2-29.8 17.6 32c7.3-.5 14.6-1 21.9-1.8v-23.3l5.2-1 8.6 22.7c4.4-.5 8.9-1.1 13.3-1.8-.5-10.5-1.3-30.1.3-27s7 17.7 9.8 25.4l4.5-.7v-18.5c.1-11-7.8-20.9-18.7-23.3z" stroke="#041d31" stroke-linecap="round" stroke-linejoin="round" stroke-width="2"/><path d="m207.4 19.6c-53.6-11.6-109.2-11.6-162.9 0-7.3 1.6-12.6 7.9-12.6 15.3v50.2c61.7 15.5 126.3 15.5 188 0v-50.2c.1-7.3-5.1-13.7-12.5-15.3z" stroke="#041d31" stroke-linecap="round" stroke-linejoin="round" stroke-width="6"/><path d="m62.5 107h-.6c-4.2 0-7.7-3.4-7.7-7.7v-16.6c0-4.2 3.4-7.7 7.7-7.7h.6c4.2 0 7.7 3.4 7.7 7.7v16.6c0 4.3-3.5 7.7-7.7 7.7z" fill="#bbbe93" fill-rule="nonzero"/><path d="m62.5 107h-.6c-4.2 0-7.7-3.4-7.7-7.7v-16.6c0-4.2 3.4-7.7 7.7-7.7h.6c4.2 0 7.7 3.4 7.7 7.7v16.6c0 4.3-3.5 7.7-7.7 7.7z" stroke="#041d31" stroke-linecap="round" stroke-linejoin="round" stroke-width="6"/><path d="m102 110.2h-.6c-4.2 0-7.7-3.4-7.7-7.7v-16.6c0-4.2 3.4-7.7 7.7-7.7h.6c4.2 0 7.7 3.4 7.7 7.7v16.6c0 4.3-3.5 7.7-7.7 7.7z" fill="#bbbe93" fill-rule="nonzero"/><path d="m102 110.2h-.6c-4.2 0-7.7-3.4-7.7-7.7v-16.6c0-4.2 3.4-7.7 7.7-7.7h.6c4.2 0 7.7 3.4 7.7 7.7v16.6c0 4.3-3.5 7.7-7.7 7.7z" stroke="#041d31" stroke-linecap="round" stroke-linejoin="round" stroke-width="6"/><path d="m142.9 108.5h-.6c-4.2 0-7.7-3.4-7.7-7.7v-16.6c0-4.2 3.4-7.7 7.7-7.7h.6c4.2 0 7.7 3.4 7.7 7.7v16.6c0 4.3-3.5 7.7-7.7 7.7z" fill="#bbbe93" fill-rule="nonzero"/><path d="m142.9 108.5h-.6c-4.2 0-7.7-3.4-7.7-7.7v-16.6c0-4.2 3.4-7.7 7.7-7.7h.6c4.2 0 7.7 3.4 7.7 7.7v16.6c0 4.3-3.5 7.7-7.7 7.7z" stroke="#041d31" stroke-linecap="round" stroke-linejoin="round" stroke-width="6"/><path d="m185.4 108.5h-.6c-4.2 0-7.7-3.4-7.7-7.7v-16.6c0-4.2 3.4-7.7 7.7-7.7h.6c4.2 0 7.7 3.4 7.7 7.7v16.6c0 4.3-3.5 7.7-7.7 7.7z" fill="#bbbe93" fill-rule="nonzero"/><path d="m185.4 108.5h-.6c-4.2 0-7.7-3.4-7.7-7.7v-16.6c0-4.2 3.4-7.7 7.7-7.7h.6c4.2 0 7.7 3.4 7.7 7.7v16.6c0 4.3-3.5 7.7-7.7 7.7z" stroke="#041d31" stroke-linecap="round" stroke-linejoin="round" stroke-width="6"/><path d="m220 79h16v12h-16z" fill="#8a8d91" fill-rule="nonzero"/><path d="m220 79h16v12h-16z" stroke="#041d31" stroke-linecap="round" stroke-linejoin="round" stroke-width="6"/><path d="m245.6 101h-3.2c-3.5 0-6.4-2.9-6.4-6.4v-19.2c0-3.5 2.9-6.4 6.4-6.4h3.2c3.5 0 6.4 2.9 6.4 6.4v19.2c0 3.5-2.9 6.4-6.4 6.4z" fill="#9da0a5" fill-rule="nonzero"/><path d="m245.6 101h-3.2c-3.5 0-6.4-2.9-6.4-6.4v-19.2c0-3.5 2.9-6.4 6.4-6.4h3.2c3.5 0 6.4 2.9 6.4 6.4v19.2c0 3.5-2.9 6.4-6.4 6.4z" fill="#9da0a5" fill-rule="nonzero"/><path d="m248.4 78.2h-8.8c-2 0-3.6-1.6-3.6-3.6v-2c0-2 1.6-3.6 3.6-3.6h8.8c2 0 3.6 1.6 3.6 3.6v2c0 2-1.6 3.6-3.6 3.6z" fill="#adb3bc" fill-rule="nonzero"/><path d="m245.6 101h-3.2c-3.5 0-6.4-2.9-6.4-6.4v-19.2c0-3.5 2.9-6.4 6.4-6.4h3.2c3.5 0 6.4 2.9 6.4 6.4v19.2c0 3.5-2.9 6.4-6.4 6.4z" stroke="#041d31" stroke-linecap="round" stroke-linejoin="round" stroke-width="6"/><path d="m16 79h16v12h-16z" fill="#686f77" fill-rule="nonzero" transform="matrix(-1 0 0 -1 48 170)"/><path d="m16 79h16v12h-16z" stroke="#041d31" stroke-linecap="round" stroke-linejoin="round" stroke-width="6" transform="matrix(-1 0 0 -1 48 170)"/><path d="m6.4 101h3.2c3.5 0 6.4-2.9 6.4-6.4v-19.2c0-3.5-2.9-6.4-6.4-6.4h-3.2c-3.5 0-6.4 2.9-6.4 6.4v19.2c0 3.5 2.9 6.4 6.4 6.4z" fill="#727984" fill-rule="nonzero"/><path d="m6.4 101h3.2c3.5 0 6.4-2.9 6.4-6.4v-19.2c0-3.5-2.9-6.4-6.4-6.4h-3.2c-3.5 0-6.4 2.9-6.4 6.4v19.2c0 3.5 2.9 6.4 6.4 6.4z" fill="#727984" fill-rule="nonzero"/><path d="m4 78.2h8c2.2 0 4-1.8 4-4v-1.2c0-2.2-1.8-4-4-4h-8c-2.2 0-4 1.8-4 4v1.2c0 2.3 1.8 4 4 4z" fill="#adb3bc" fill-rule="nonzero"/><path d="m6.4 101h3.2c3.5 0 6.4-2.9 6.4-6.4v-19.2c0-3.5-2.9-6.4-6.4-6.4h-3.2c-3.5 0-6.4 2.9-6.4 6.4v19.2c0 3.5 2.9 6.4 6.4 6.4z" stroke="#041d31" stroke-linecap="round" stroke-linejoin="round" stroke-width="6"/><path d="m133.2 301h-10.5c-8.1 0-14.8-6.6-14.8-14.8v-21.2h40v21.2c.1 8.2-6.5 14.8-14.7 14.8z" fill="#4b9b56" fill-rule="nonzero"/><path d="m120.5 286.2v-21.2h-12.5v21.2c0 8.1 6.6 14.8 14.8 14.8h10.5c.3 0 .7 0 1-.1-7.7-.5-13.8-6.8-13.8-14.7z" fill="#44934c" fill-rule="nonzero"/><path d="m133.2 301h-10.5c-8.1 0-14.8-6.6-14.8-14.8v-21.2h40v21.2c.1 8.2-6.5 14.8-14.7 14.8z" stroke="#041d31" stroke-linecap="round" stroke-linejoin="round" stroke-width="6"/><path d="m157 363.2-11 23" opacity=".65" stroke="#d8865d" stroke-linecap="round" stroke-linejoin="round" stroke-width="3"/><path d="m160 372.5-6 17.2" opacity=".65" stroke="#d8865d" stroke-linecap="round" stroke-linejoin="round" stroke-width="3"/><path d="m124 363.2c-1.7 0-3-1.3-3-3v-20.8c0-1.7 1.3-3 3-3h13.5c1.7 0 3 1.3 3 3s-1.3 3-3 3h-10.5v17.8c0 1.7-1.3 3-3 3z" fill="#041d31" fill-rule="nonzero"/><path d="m132 353.1c-3 0-5.3-.4-7-1.1-.7-.4-1.2-1.3-1.2-2.1 0-.7.5-1.7 1.2-2.1 1.7-.7 4-1.1 7-1.1 2 .1 4 1.7 4 3.2s-2 3.1-4 3.2z" fill="#041d31" fill-rule="nonzero"/><circle cx="160.4" cy="155" fill="#fff" fill-rule="nonzero" r="27"/><circle cx="160.4" cy="155" r="27" stroke="#041d31" stroke-linecap="round" stroke-linejoin="round" stroke-width="6"/><circle cx="146.5" cy="159" fill="#041d31" fill-rule="nonzero" r="11"/><circle cx="143" cy="158.5" fill="#fff" fill-rule="nonzero" r="3.5"/></g></svg>