<svg version="1.1" id="Layer_1" xmlns="http://www.w3.org/2000/svg" x="0px" y="0px"
	 viewBox="0 0 1000 1000" style="enable-background:new 0 0 1000 1000;" xml:space="preserve">
<style type="text/css">
	.st0{fill:#593F7C;}
	.st1{fill:#EEF2F4;}
	.st2{opacity:0.55;fill:#221C58;}
	.st3{fill:#5EA652;}
	.st4{fill:#4B9B56;}
	.st5{fill:none;stroke:#041D31;stroke-width:6;stroke-linecap:round;stroke-linejoin:round;stroke-miterlimit:10;}
	.st6{fill:#70BA61;}
	.st7{fill:#44934C;}
	.st8{fill:#2B323A;}
	.st9{opacity:0.8;fill:#252C33;}
	.st10{fill:#252C33;}
	.st11{opacity:0.8;}
	.st12{fill:#FFFFFF;}
	.st13{fill:#041D31;}
	.st14{fill:#534741;}
	.st15{fill:#4C3E38;}
	.st16{fill:#FFAD57;}
	.st17{opacity:0.83;fill:#E89567;}
	.st18{fill:none;stroke:#041D31;stroke-width:2;stroke-linecap:round;stroke-linejoin:round;stroke-miterlimit:10;}
	.st19{fill:#BBBE93;}
	.st20{fill:#8A8D91;}
	.st21{fill:#9DA0A5;}
	.st22{fill:#ADB3BC;}
	.st23{fill:#686F77;}
	.st24{fill:#727984;}
	.st25{opacity:0.65;fill:none;stroke:#D8865D;stroke-width:3;stroke-linecap:round;stroke-linejoin:round;stroke-miterlimit:10;}
</style>
<ellipse id="XMLID_118_" class="st2" cx="500" cy="766.7" rx="118" ry="19"/>
<path id="XMLID_80_" class="st3" d="M522,539h-44c-39.8,0-72-32.4-72-72.2V359h188v107.8C594,506.6,561.8,539,522,539z"/>
<path id="XMLID_112_" class="st4" d="M450.5,469.4V359H406v107.8c0,39.8,32.2,72.2,72,72.2h26.2
	C473.3,530.9,450.5,502.8,450.5,469.4z"/>
<path id="XMLID_1_" class="st5" d="M522,539h-44c-39.8,0-72-32.4-72-72.2V359h188v107.8C594,506.6,561.8,539,522,539z"/>
<path id="XMLID_83_" class="st3" d="M581.4,291.8c-53.6-11.8-109.2-11.8-162.9,0c-7.3,1.6-12.6,8.1-12.6,15.6v51.4
	c61.7,15.8,126.3,15.8,188,0v-51.4C594,300,588.8,293.5,581.4,291.8z"/>
<path id="XMLID_22_" class="st6" d="M581.4,291.8c-1.8-0.4-3.6-0.8-5.4-1.2V363c6-1.2,12-2.6,18-4.2v-51.4
	C594,300,588.8,293.5,581.4,291.8z"/>
<path id="XMLID_120_" class="st4" d="M450.5,312.6c0-10.1,3-19.5,8.2-27.4c-13.5,1.5-26.9,3.7-40.1,6.6c-7.3,1.6-12.6,8.1-12.6,15.6
	v51.4c14.7,3.8,29.6,6.6,44.5,8.6V312.6z"/>
<path id="XMLID_115_" class="st4" d="M602,456h-8v-54h8c6.6,0,12,5.7,12,12.3v30C614,450.9,608.6,456,602,456z"/>
<path id="XMLID_4_" class="st5" d="M602,456h-8v-54h8c6.6,0,12,5.7,12,12.3v30C614,450.9,608.6,456,602,456z"/>
<path id="XMLID_116_" class="st7" d="M398,456h8v-54h-8c-6.6,0-12,5.7-12,12.3v30C386,450.9,391.4,456,398,456z"/>
<path id="XMLID_11_" class="st5" d="M398,456h8v-54h-8c-6.6,0-12,5.7-12,12.3v30C386,450.9,391.4,456,398,456z"/>
<path id="XMLID_26_" class="st5" d="M493.7,509.3c1.4-11.3,11.7-19.4,23-18c2.8,0.3,5.5,1.3,7.8,2.6"/>
<path id="XMLID_93_" class="st8" d="M443,661.3v90h54V704c0-2.8,2.3-5,5-5c0,0,0,0,0,0h0c0,0,0,0,0,0c2.8,0,5,2.2,5,5v47.3h54v-90
	H443z"/>
<path id="XMLID_253_" class="st9" d="M516.5,751.3H507V699h1.4c4.5,0,8.1,3.6,8.1,8.1V751.3z"/>
<g id="XMLID_284_">
	<g id="XMLID_345_">
		<g id="XMLID_348_">
			<path id="XMLID_349_" class="st10" d="M514.3,699C514.3,699,514.3,699,514.3,699C514.3,699,514.3,699,514.3,699L514.3,699z"/>
		</g>
		<g id="XMLID_346_" class="st11">
			<rect id="XMLID_347_" x="443" y="661.3" class="st10" width="12.2" height="90"/>
		</g>
	</g>
</g>
<path id="XMLID_75_" class="st5" d="M443,661.3v90h54V704c0-2.8,2.3-5,5-5c0,0,0,0,0,0h0c0,0,0,0,0,0c2.8,0,5,2.2,5,5v47.3h54v-90
	H443z"/>
<circle id="XMLID_111_" class="st3" cx="578.8" cy="680.9" r="18.5"/>
<path id="XMLID_272_" class="st4" d="M577.3,682.5c-0.7-7.7,3.5-14.7,9.9-18c-3-1.6-6.5-2.3-10.1-2c-10.2,0.9-17.7,9.9-16.8,20.1
	c0.9,10.2,9.9,17.7,20.1,16.8c2.5-0.2,4.8-0.9,6.9-2C581.8,694.5,577.9,689.1,577.3,682.5z"/>
<circle id="XMLID_123_" class="st5" cx="578.8" cy="680.9" r="18.5"/>
<g>
	<circle id="XMLID_82_" class="st12" cx="463.4" cy="432" r="32"/>
	<circle id="XMLID_9_" class="st5" cx="463.4" cy="432" r="32"/>
	<circle id="XMLID_16_" class="st13" cx="479.7" cy="433" r="14"/>
	<circle id="XMLID_49_" class="st12" cx="484.7" cy="433" r="5"/>
</g>
<path id="XMLID_114_" class="st14" d="M497,751.3h-54v8c0,3.3,2.7,6,6,6h42c3.3,0,6-2.7,6-6V751.3z"/>
<path id="XMLID_319_" class="st15" d="M455.2,759.3v-8H443v8c0,3.3,2.7,6,6,6h12.2C457.9,765.3,455.2,762.6,455.2,759.3z"/>
<path id="XMLID_110_" class="st14" d="M513,765.3h42c3.3,0,6-2.7,6-6v-8h-54v8C507,762.6,509.7,765.3,513,765.3z"/>
<path id="XMLID_323_" class="st15" d="M516.5,759.3v-8H507v8c0,3.3,2.7,6,6,6h9.5C519.2,765.3,516.5,762.6,516.5,759.3z"/>
<path id="XMLID_76_" class="st5" d="M497,751.3h-54v8c0,3.3,2.7,6,6,6h42c3.3,0,6-2.7,6-6V751.3z"/>
<path id="XMLID_77_" class="st5" d="M513,765.3h42c3.3,0,6-2.7,6-6v-8h-54v8C507,762.6,509.7,765.3,513,765.3z"/>
<circle id="XMLID_113_" class="st3" cx="425.4" cy="682.5" r="18.7"/>
<path id="XMLID_305_" class="st4" d="M421.2,680.9c0.6-7.2,5.2-13,11.4-15.6c-1.7-0.7-3.6-1.2-5.6-1.4c-10.3-0.9-19.4,6.7-20.3,17
	s6.7,19.4,17,20.3c3.1,0.3,6.2-0.3,8.9-1.4C425.3,696.7,420.5,689.2,421.2,680.9z"/>
<circle id="XMLID_30_" class="st5" cx="425.4" cy="682.5" r="18.7"/>
<path id="XMLID_19_" class="st16" d="M597.4,680.5l-7.6-86.9C588.4,578,576,566,561,564.1c0,0,0,0,0-0.1c-39.2-4.9-78.8-4.9-118,0
	c0,0,0,0,0,0.1c-15.1,1.8-27.4,14-28.8,29.7l-7.6,86.9l35.9,3.1l1-11.7c38.8,4.9,78.1,4.9,116.9,0l1,11.6L597.4,680.5z"/>
<path id="XMLID_103_" class="st17" d="M589.8,592.7C588.4,577,576,565,561,563.1c0,0,0,0,0-0.1c-39.2-4.9-78.8-4.9-118,0
	c0,0,0,0,0,0.1c-15.1,1.8-27.4,14-28.8,29.7l-7.6,86.9l1,0.1l6.6-76c1.4-15.7,13.7-27.9,28.8-29.7c0,0,0,0,0-0.1
	c11.2-1.4,22.4-2.4,33.7-3c2,7.1,8.5,12.3,16.2,12.3h18.2c7.7,0,14.2-5.2,16.2-12.3c11.2,0.6,22.5,1.6,33.7,3c0,0,0,0,0,0.1
	c15,1.9,27.4,13.9,28.8,29.6l6.6,76l1-0.1L589.8,592.7z"/>
<path id="XMLID_109_" class="st5" d="M597.4,680.5l-7.6-86.9C588.4,578,576,566,561,564.1c0,0,0,0,0-0.1c-39.2-4.9-78.8-4.9-118,0
	c0,0,0,0,0,0.1c-15.1,1.8-27.4,14-28.8,29.7l-7.6,86.9l35.9,3.1l1-11.7c36.7,5.9,78,6.2,116.9,0l1,11.6L597.4,680.5z"/>
<line id="XMLID_108_" class="st5" x1="442.5" y1="683.8" x2="449.3" y2="606"/>
<path id="XMLID_98_" class="st5" d="M551,564.1"/>
<path id="XMLID_92_" class="st5" d="M554.7,606"/>
<line id="XMLID_25_" class="st5" x1="560.5" y1="672.1" x2="554.7" y2="606"/>
<path id="XMLID_91_" class="st13" d="M583.2,284c-27.3-6-55.2-9.1-83.2-9.1c-27.9,0-55.9,3-83.2,9.1c-10.9,2.4-18.8,12.3-18.8,23.4
	v18.5l6,1c7.4,1.2,14.9,2.2,22.3,3.2l5.9-19.3h7.8l1.1,20.9c6.8,0.7,13.7,1.2,20.6,1.6l2.3-22.5l3.1,22.9c8.7,0.5,17.4,0.8,26.1,0.8
	l3.8-21.7l3,21.8l14.5-3.5l6.2-29.8l17.6,32c7.3-0.5,14.6-1,21.9-1.8v-23.3l5.2-1l8.6,22.7c4.4-0.5,8.9-1.1,13.3-1.8
	c-0.5-10.5-1.3-30.1,0.3-27c1.6,3.1,7,17.7,9.8,25.4l4.5-0.7v-18.5C602,296.3,594.1,286.4,583.2,284z"/>
<path id="XMLID_15_" class="st18" d="M583.2,284c-27.3-6-55.2-9.1-83.2-9.1c-27.9,0-55.9,3-83.2,9.1c-10.9,2.4-18.8,12.3-18.8,23.4
	v18.5l6,1c7.4,1.2,14.9,2.2,22.3,3.2l5.9-19.3h7.8l1.1,20.9c6.8,0.7,13.7,1.2,20.6,1.6l2.3-22.5l3.1,22.9c8.7,0.5,17.4,0.8,26.1,0.8
	l3.8-21.7l3,21.8l14.5-3.5l6.2-29.8l17.6,32c7.3-0.5,14.6-1,21.9-1.8v-23.3l5.2-1l8.6,22.7c4.4-0.5,8.9-1.1,13.3-1.8
	c-0.5-10.5-1.3-30.1,0.3-27c1.6,3.1,7,17.7,9.8,25.4l4.5-0.7v-18.5C602,296.3,594.1,286.4,583.2,284z"/>
<path id="XMLID_7_" class="st5" d="M581.4,293.6c-53.6-11.6-109.2-11.6-162.9,0c-7.3,1.6-12.6,7.9-12.6,15.3v50.2
	c61.7,15.5,126.3,15.5,188,0v-50.2C594,301.6,588.8,295.2,581.4,293.6z"/>
<path id="XMLID_85_" class="st19" d="M436.5,381h-0.6c-4.2,0-7.7-3.4-7.7-7.7v-16.6c0-4.2,3.4-7.7,7.7-7.7h0.6
	c4.2,0,7.7,3.4,7.7,7.7v16.6C444.2,377.6,440.7,381,436.5,381z"/>
<path id="XMLID_84_" class="st5" d="M436.5,381h-0.6c-4.2,0-7.7-3.4-7.7-7.7v-16.6c0-4.2,3.4-7.7,7.7-7.7h0.6c4.2,0,7.7,3.4,7.7,7.7
	v16.6C444.2,377.6,440.7,381,436.5,381z"/>
<path id="XMLID_191_" class="st19" d="M476,384.2h-0.6c-4.2,0-7.7-3.4-7.7-7.7v-16.6c0-4.2,3.4-7.7,7.7-7.7h0.6
	c4.2,0,7.7,3.4,7.7,7.7v16.6C483.7,380.8,480.2,384.2,476,384.2z"/>
<path id="XMLID_188_" class="st5" d="M476,384.2h-0.6c-4.2,0-7.7-3.4-7.7-7.7v-16.6c0-4.2,3.4-7.7,7.7-7.7h0.6
	c4.2,0,7.7,3.4,7.7,7.7v16.6C483.7,380.8,480.2,384.2,476,384.2z"/>
<path id="XMLID_210_" class="st19" d="M516.9,382.5h-0.6c-4.2,0-7.7-3.4-7.7-7.7v-16.6c0-4.2,3.4-7.7,7.7-7.7h0.6
	c4.2,0,7.7,3.4,7.7,7.7v16.6C524.6,379.1,521.1,382.5,516.9,382.5z"/>
<path id="XMLID_195_" class="st5" d="M516.9,382.5h-0.6c-4.2,0-7.7-3.4-7.7-7.7v-16.6c0-4.2,3.4-7.7,7.7-7.7h0.6
	c4.2,0,7.7,3.4,7.7,7.7v16.6C524.6,379.1,521.1,382.5,516.9,382.5z"/>
<path id="XMLID_217_" class="st19" d="M559.4,382.5h-0.6c-4.2,0-7.7-3.4-7.7-7.7v-16.6c0-4.2,3.4-7.7,7.7-7.7h0.6
	c4.2,0,7.7,3.4,7.7,7.7v16.6C567.1,379.1,563.6,382.5,559.4,382.5z"/>
<path id="XMLID_214_" class="st5" d="M559.4,382.5h-0.6c-4.2,0-7.7-3.4-7.7-7.7v-16.6c0-4.2,3.4-7.7,7.7-7.7h0.6
	c4.2,0,7.7,3.4,7.7,7.7v16.6C567.1,379.1,563.6,382.5,559.4,382.5z"/>
<rect id="XMLID_14_" x="594" y="353" class="st20" width="16" height="12"/>
<rect id="XMLID_12_" x="594" y="353" class="st5" width="16" height="12"/>
<path id="XMLID_18_" class="st21" d="M619.6,375h-3.2c-3.5,0-6.4-2.9-6.4-6.4v-19.2c0-3.5,2.9-6.4,6.4-6.4h3.2
	c3.5,0,6.4,2.9,6.4,6.4v19.2C626,372.1,623.1,375,619.6,375z"/>
<path id="XMLID_275_" class="st21" d="M619.6,375h-3.2c-3.5,0-6.4-2.9-6.4-6.4v-19.2c0-3.5,2.9-6.4,6.4-6.4h3.2
	c3.5,0,6.4,2.9,6.4,6.4v19.2C626,372.1,623.1,375,619.6,375z"/>
<path id="XMLID_278_" class="st22" d="M622.4,352.2h-8.8c-2,0-3.6-1.6-3.6-3.6v-2c0-2,1.6-3.6,3.6-3.6h8.8c2,0,3.6,1.6,3.6,3.6v2
	C626,350.6,624.4,352.2,622.4,352.2z"/>
<path id="XMLID_17_" class="st5" d="M619.6,375h-3.2c-3.5,0-6.4-2.9-6.4-6.4v-19.2c0-3.5,2.9-6.4,6.4-6.4h3.2c3.5,0,6.4,2.9,6.4,6.4
	v19.2C626,372.1,623.1,375,619.6,375z"/>
<rect id="XMLID_212_" x="390" y="353" transform="matrix(-1 -4.496327e-11 4.496327e-11 -1 796 718)" class="st23" width="16" height="12"/>
<rect id="XMLID_119_" x="390" y="353" transform="matrix(-1 -4.496327e-11 4.496327e-11 -1 796 718)" class="st5" width="16" height="12"/>
<path id="XMLID_107_" class="st24" d="M380.4,375h3.2c3.5,0,6.4-2.9,6.4-6.4v-19.2c0-3.5-2.9-6.4-6.4-6.4h-3.2
	c-3.5,0-6.4,2.9-6.4,6.4v19.2C374,372.1,376.9,375,380.4,375z"/>
<path id="XMLID_233_" class="st24" d="M380.4,375h3.2c3.5,0,6.4-2.9,6.4-6.4v-19.2c0-3.5-2.9-6.4-6.4-6.4h-3.2
	c-3.5,0-6.4,2.9-6.4,6.4v19.2C374,372.1,376.9,375,380.4,375z"/>
<path id="XMLID_274_" class="st22" d="M378,352.2h8c2.2,0,4-1.8,4-4V347c0-2.2-1.8-4-4-4h-8c-2.2,0-4,1.8-4,4v1.2
	C374,350.5,375.8,352.2,378,352.2z"/>
<path id="XMLID_106_" class="st5" d="M380.4,375h3.2c3.5,0,6.4-2.9,6.4-6.4v-19.2c0-3.5-2.9-6.4-6.4-6.4h-3.2
	c-3.5,0-6.4,2.9-6.4,6.4v19.2C374,372.1,376.9,375,380.4,375z"/>
<path id="XMLID_87_" class="st4" d="M507.2,575h-10.5c-8.1,0-14.8-6.6-14.8-14.8V539h40v21.2C522,568.4,515.4,575,507.2,575z"/>
<path id="XMLID_271_" class="st7" d="M494.5,560.2V539H482v21.2c0,8.1,6.6,14.8,14.8,14.8h10.5c0.3,0,0.7,0,1-0.1
	C500.6,574.4,494.5,568.1,494.5,560.2z"/>
<path id="XMLID_23_" class="st5" d="M507.2,575h-10.5c-8.1,0-14.8-6.6-14.8-14.8V539h40v21.2C522,568.4,515.4,575,507.2,575z"/>
<line id="XMLID_122_" class="st25" x1="531" y1="637.2" x2="520" y2="660.2"/>
<line id="XMLID_124_" class="st25" x1="534" y1="646.5" x2="528" y2="663.7"/>
<g id="XMLID_199_">
	<path id="XMLID_235_" class="st13" d="M498,637.2c-1.7,0-3-1.3-3-3v-20.8c0-1.7,1.3-3,3-3h13.5c1.7,0,3,1.3,3,3s-1.3,3-3,3H501
		v17.8C501,635.9,499.7,637.2,498,637.2z"/>
</g>
<g id="XMLID_232_">
	<path id="XMLID_238_" class="st13" d="M506,627.1c-3,0-5.3-0.4-7-1.1c-0.7-0.4-1.2-1.3-1.2-2.1c0-0.7,0.5-1.7,1.2-2.1
		c1.7-0.7,4-1.1,7-1.1c2,0.1,4,1.7,4,3.2C510,625.4,508,627,506,627.1z"/>
</g>
<g>
	<circle id="XMLID_102_" class="st12" cx="534.4" cy="429" r="27"/>
	<circle id="XMLID_282_" class="st5" cx="534.4" cy="429" r="27"/>
	<circle id="XMLID_52_" class="st13" cx="520.5" cy="433" r="11"/>
	<circle id="XMLID_51_" class="st12" cx="517" cy="432.5" r="3.5"/>
</g>
</svg>
