<svg version="1.1" id="Layer_1" xmlns="http://www.w3.org/2000/svg" x="0px" y="0px"
	 viewBox="0 0 1000 1000" style="enable-background:new 0 0 1000 1000;" xml:space="preserve">
<style type="text/css">
	.st0{fill:#602A77;}
	.st1{fill:#EEF2F4;}
	.st2{opacity:0.2;fill:#241228;stroke:#241228;stroke-width:6;stroke-linecap:round;stroke-linejoin:round;stroke-miterlimit:10;}
	.st3{fill:#EB6331;}
	.st4{fill:#DD562C;}
	.st5{fill:none;stroke:#511C64;stroke-width:6;stroke-linecap:round;stroke-linejoin:round;stroke-miterlimit:10;}
	.st6{fill:#FDA22F;}
	.st7{fill:#FC9435;}
	.st8{fill:#FFB331;}
	.st9{fill:#A5F3FF;}
	.st10{fill:#511C64;}
	.st11{opacity:0.2;fill:#511C64;}
	.st12{opacity:0.2;}
	.st13{opacity:0.43;fill:#D2FCFB;}
	.st14{fill:#FC9435;stroke:#FC9435;stroke-width:6;stroke-miterlimit:10;}
	.st15{fill:#FF82A0;}
	.st16{fill:#B078FD;}
	.st17{fill:#A270F2;}
	.st18{fill:none;stroke:#FFFFFF;stroke-width:3;stroke-linecap:round;stroke-linejoin:round;stroke-miterlimit:10;}
	.st19{fill:#F27095;}
</style>
<path id="XMLID_2_" class="st2" d="M622.6,681.4h-252c-17.7,0-32-14.3-32-32V348.3c0-17.7,14.3-32,32-32h252c17.7,0,32,14.3,32,32
	v301.1C654.6,667.1,640.3,681.4,622.6,681.4z"/>
<path id="XMLID_17_" class="st3" d="M635.6,664h-252c-17.7,0-32-14.3-32-32V361.3c0-17.7,14.3-32,32-32h252c17.7,0,32,14.3,32,32
	V632C667.6,649.7,653.3,664,635.6,664z"/>
<path id="XMLID_27_" class="st4" d="M635.6,649h-252c-17.7,0-32-14.3-32-32v15c0,17.7,14.3,32,32,32h252c17.7,0,32-14.3,32-32v-15
	C667.6,634.7,653.3,649,635.6,649z"/>
<path id="XMLID_16_" class="st5" d="M635.6,664h-252c-17.7,0-32-14.3-32-32V361.3c0-17.7,14.3-32,32-32h252c17.7,0,32,14.3,32,32
	V632C667.6,649.7,653.3,664,635.6,664z"/>
<path id="XMLID_9_" class="st6" d="M635.6,641h-252c-17.7,0-32-14.3-32-32V338.3c0-17.7,14.3-32,32-32h252c17.7,0,32,14.3,32,32V609
	C667.6,626.7,653.3,641,635.6,641z"/>
<path id="XMLID_15_" class="st6" d="M635.6,641h-252c-17.7,0-32-14.3-32-32V338.3c0-17.7,14.3-32,32-32h252c17.7,0,32,14.3,32,32
	V609C667.6,626.7,653.3,641,635.6,641z"/>
<path id="XMLID_25_" class="st7" d="M370.3,609V338.3c0-17.7,14.3-32,32-32h-18.7c-17.7,0-32,14.3-32,32V609c0,17.7,14.3,32,32,32
	h18.7C384.6,641,370.3,626.7,370.3,609z"/>
<path id="XMLID_24_" class="st8" d="M635.6,306.3h-18.7c17.7,0,32,14.3,32,32V609c0,17.7-14.3,32-32,32h18.7c17.7,0,32-14.3,32-32
	V338.3C667.6,320.6,653.3,306.3,635.6,306.3z"/>
<path id="XMLID_1_" class="st5" d="M635.6,641h-252c-17.7,0-32-14.3-32-32V338.3c0-17.7,14.3-32,32-32h252c17.7,0,32,14.3,32,32V609
	C667.6,626.7,653.3,641,635.6,641z"/>
<path id="XMLID_11_" class="st9" d="M621.6,412h-224c-4.4,0-8-3.6-8-8v-52c0-4.4,3.6-8,8-8h224c4.4,0,8,3.6,8,8v52
	C629.6,408.4,626,412,621.6,412z"/>
<g id="XMLID_47_">
	<polygon id="XMLID_73_" class="st10" points="592.9,360.5 591,358.5 592.9,356.6 607.6,356.6 609.5,358.2 607.5,360.5 	"/>
	<polygon id="XMLID_72_" class="st11" points="588.5,375.7 588.5,361 590.4,359.1 592.3,361 592.3,375.7 590.4,377.6 	"/>
	<polygon id="XMLID_71_" class="st10" points="608.1,375.7 608.1,361 610,358.7 611.9,361 611.9,375.7 610,377.6 	"/>
	<polygon id="XMLID_70_" class="st11" points="592.9,380 591,378.1 592.9,376.2 607.5,376.2 609.5,378.1 607.5,380 	"/>
	<polygon id="XMLID_69_" class="st11" points="588.5,395.6 588.5,380.9 590.4,379 592.3,380.9 592.3,395.6 590.4,397.5 	"/>
	<polygon id="XMLID_68_" class="st10" points="608.1,395.6 608.1,380.9 610,378.7 611.9,380.9 611.9,395.6 610,397.5 	"/>
	<polygon id="XMLID_67_" class="st11" points="592.9,400 591,398 592.9,396.1 607.5,396.1 609.5,398 607.5,400 	"/>
</g>
<g id="XMLID_54_">
	<polygon id="XMLID_74_" class="st10" points="558.3,360.5 556.3,358.5 558.3,356.6 572.9,356.6 574.8,358.2 572.9,360.5 	"/>
	<polygon id="XMLID_65_" class="st11" points="553.9,375.7 553.9,361 555.8,359.1 557.7,361 557.7,375.7 555.8,377.6 	"/>
	<polygon id="XMLID_64_" class="st10" points="573.5,375.7 573.5,361 575.4,358.7 577.3,361 577.3,375.7 575.4,377.6 	"/>
	<polygon id="XMLID_63_" class="st10" points="558.3,380 556.3,378.1 558.3,376.2 572.9,376.2 574.8,378.1 572.9,380 	"/>
	<polygon id="XMLID_62_" class="st11" points="553.9,395.6 553.9,380.9 555.8,379 557.7,380.9 557.7,395.6 555.8,397.5 	"/>
	<polygon id="XMLID_57_" class="st10" points="573.5,395.6 573.5,380.9 575.4,378.7 577.3,380.9 577.3,395.6 575.4,397.5 	"/>
	<polygon id="XMLID_55_" class="st10" points="558.3,400 556.3,398 558.3,396.1 572.9,396.1 574.8,398 572.9,400 	"/>
</g>
<g id="XMLID_83_" class="st12">
	<polygon id="XMLID_90_" class="st10" points="488.8,360.5 486.9,358.5 488.8,356.6 503.5,356.6 505.4,358.2 503.5,360.5 	"/>
	<polygon id="XMLID_89_" class="st10" points="484.4,375.7 484.4,361 486.4,359.1 488.3,361 488.3,375.7 486.4,377.6 	"/>
	<polygon id="XMLID_88_" class="st10" points="504,375.7 504,361 505.9,358.7 507.9,361 507.9,375.7 505.9,377.6 	"/>
	<polygon id="XMLID_87_" class="st10" points="488.8,380 486.9,378.1 488.8,376.2 503.5,376.2 505.4,378.1 503.5,380 	"/>
	<polygon id="XMLID_86_" class="st10" points="484.4,395.6 484.4,380.9 486.4,379 488.3,380.9 488.3,395.6 486.4,397.5 	"/>
	<polygon id="XMLID_85_" class="st10" points="504,395.6 504,380.9 505.9,378.7 507.9,380.9 507.9,395.6 505.9,397.5 	"/>
	<polygon id="XMLID_84_" class="st10" points="488.8,400 486.9,398 488.8,396.1 503.5,396.1 505.4,398 503.5,400 	"/>
</g>
<g id="XMLID_76_" class="st12">
	<polygon id="XMLID_107_" class="st10" points="523.5,360.5 521.6,358.5 523.5,356.6 538.2,356.6 540.1,358.2 538.1,360.5 	"/>
	<polygon id="XMLID_82_" class="st10" points="519.1,375.7 519.1,361 521,359.1 523,361 523,375.7 521,377.6 	"/>
	<polygon id="XMLID_81_" class="st10" points="538.7,375.7 538.7,361 540.6,358.7 542.6,361 542.6,375.7 540.6,377.6 	"/>
	<polygon id="XMLID_80_" class="st10" points="523.5,380 521.6,378.1 523.5,376.2 538.2,376.2 540.1,378.1 538.2,380 	"/>
	<polygon id="XMLID_79_" class="st10" points="519.1,395.6 519.1,380.9 521,379 523,380.9 523,395.6 521,397.5 	"/>
	<polygon id="XMLID_78_" class="st10" points="538.7,395.6 538.7,380.9 540.6,378.7 542.6,380.9 542.6,395.6 540.6,397.5 	"/>
	<polygon id="XMLID_77_" class="st10" points="523.5,400 521.6,398 523.5,396.1 538.2,396.1 540.1,398 538.2,400 	"/>
</g>
<g id="XMLID_91_" class="st12">
	<polygon id="XMLID_98_" class="st10" points="419.5,360.5 417.5,358.5 419.5,356.6 434.1,356.6 436,358.2 434.1,360.5 	"/>
	<polygon id="XMLID_97_" class="st10" points="415.1,375.7 415.1,361 417,359.1 418.9,361 418.9,375.7 417,377.6 	"/>
	<polygon id="XMLID_96_" class="st10" points="434.7,375.7 434.7,361 436.6,358.7 438.5,361 438.5,375.7 436.6,377.6 	"/>
	<polygon id="XMLID_95_" class="st10" points="419.5,380 417.5,378.1 419.5,376.2 434.1,376.2 436,378.1 434.1,380 	"/>
	<polygon id="XMLID_94_" class="st10" points="415.1,395.6 415.1,380.9 417,379 418.9,380.9 418.9,395.6 417,397.5 	"/>
	<polygon id="XMLID_93_" class="st10" points="434.7,395.6 434.7,380.9 436.6,378.7 438.5,380.9 438.5,395.6 436.6,397.5 	"/>
	<polygon id="XMLID_92_" class="st10" points="419.5,400 417.5,398 419.5,396.1 434.1,396.1 436,398 434.1,400 	"/>
</g>
<g id="XMLID_99_" class="st12">
	<polygon id="XMLID_106_" class="st10" points="454.1,360.5 452.2,358.5 454.1,356.6 468.8,356.6 470.7,358.2 468.8,360.5 	"/>
	<polygon id="XMLID_105_" class="st10" points="449.8,375.7 449.8,361 451.7,359.1 453.6,361 453.6,375.7 451.7,377.6 	"/>
	<polygon id="XMLID_104_" class="st10" points="469.3,375.7 469.3,361 471.3,358.7 473.2,361 473.2,375.7 471.3,377.6 	"/>
	<polygon id="XMLID_103_" class="st10" points="454.1,380 452.2,378.1 454.1,376.2 468.8,376.2 470.7,378.1 468.8,380 	"/>
	<polygon id="XMLID_102_" class="st10" points="449.8,395.6 449.8,380.9 451.7,379 453.6,380.9 453.6,395.6 451.7,397.5 	"/>
	<polygon id="XMLID_101_" class="st10" points="469.3,395.6 469.3,380.9 471.3,378.7 473.2,380.9 473.2,395.6 471.3,397.5 	"/>
	<polygon id="XMLID_100_" class="st10" points="454.1,400 452.2,398 454.1,396.1 468.8,396.1 470.7,398 468.8,400 	"/>
</g>
<path id="XMLID_42_" class="st13" d="M621.6,366h-224c-4.4,0-8-3.6-8-8v-6c0-4.4,3.6-8,8-8h224c4.4,0,8,3.6,8,8v6
	C629.6,362.4,626,366,621.6,366z"/>
<path id="XMLID_3_" class="st5" d="M621.6,412h-224c-4.4,0-8-3.6-8-8v-52c0-4.4,3.6-8,8-8h224c4.4,0,8,3.6,8,8v52
	C629.6,408.4,626,412,621.6,412z"/>
<path id="XMLID_41_" class="st14" d="M438.6,512.8h-48c-4.4,0-8-3.6-8-8v-48c0-4.4,3.6-8,8-8h48c4.4,0,8,3.6,8,8v48
	C446.6,509.3,443,512.8,438.6,512.8z"/>
<path id="XMLID_43_" class="st14" d="M527.2,512.8h-48c-4.4,0-8-3.6-8-8v-48c0-4.4,3.6-8,8-8h48c4.4,0,8,3.6,8,8v48
	C535.2,509.3,531.6,512.8,527.2,512.8z"/>
<path id="XMLID_45_" class="st14" d="M438.6,601.3h-48c-4.4,0-8-3.6-8-8v-48c0-4.4,3.6-8,8-8h48c4.4,0,8,3.6,8,8v48
	C446.6,597.8,443,601.3,438.6,601.3z"/>
<path id="XMLID_44_" class="st14" d="M527.2,601.3h-48c-4.4,0-8-3.6-8-8v-48c0-4.4,3.6-8,8-8h48c4.4,0,8,3.6,8,8v48
	C535.2,597.8,531.6,601.3,527.2,601.3z"/>
<path id="XMLID_46_" class="st14" d="M615.2,601.3h-48c-4.4,0-8-3.6-8-8V456.8c0-4.4,3.6-8,8-8h48c4.4,0,8,3.6,8,8v136.5
	C623.2,597.8,619.6,601.3,615.2,601.3z"/>
<path id="XMLID_19_" class="st15" d="M533.6,506.8h-48c-4.4,0-8-3.6-8-8v-48c0-4.4,3.6-8,8-8h48c4.4,0,8,3.6,8,8v48
	C541.6,503.3,538,506.8,533.6,506.8z"/>
<g>
	<path id="XMLID_14_" class="st16" d="M621.6,594.8h-48c-4.4,0-8-3.6-8-8v-136c0-4.4,3.6-8,8-8h48c4.4,0,8,3.6,8,8v136
		C629.6,591.3,626,594.8,621.6,594.8z"/>
	<path id="XMLID_56_" class="st17" d="M577.5,587.8c-2.1,0-3.9-1.7-3.9-3.9V442.8c-4.4,0-8,3.6-8,8v136c0,4.4,3.6,8,8,8h48
		c4.1,0,7.4-3.1,7.9-7H577.5z"/>
	<path id="XMLID_8_" class="st5" d="M621.6,594.8h-48c-4.4,0-8-3.6-8-8v-136c0-4.4,3.6-8,8-8h48c4.4,0,8,3.6,8,8v136
		C629.6,591.3,626,594.8,621.6,594.8z"/>
	<g id="XMLID_29_">
		<rect id="XMLID_38_" x="583.2" y="506" class="st10" width="28.8" height="7.2"/>
		<rect id="XMLID_39_" x="583.2" y="516.8" class="st10" width="28.8" height="7.2"/>
	</g>
	<path id="XMLID_50_" class="st18" d="M609,451.5h4.8c3.7,0,6.7,3,6.7,6.7v19.7"/>
</g>
<g>
	<path id="XMLID_59_" class="st19" d="M489.5,499.8c-2.1,0-3.9-1.7-3.9-3.9v-53.1c-4.4,0-8,3.6-8,8v48c0,4.4,3.6,8,8,8h48
		c4.1,0,7.4-3.1,7.9-7H489.5z"/>
	<path id="XMLID_7_" class="st5" d="M533.6,506.8h-48c-4.4,0-8-3.6-8-8v-48c0-4.4,3.6-8,8-8h48c4.4,0,8,3.6,8,8v48
		C541.6,503.3,538,506.8,533.6,506.8z"/>
	<rect id="XMLID_30_" x="497" y="471.7" class="st10" width="25.1" height="6.3"/>
	<path id="XMLID_49_" class="st18" d="M525.8,451.5h2.2c2.5,0,4.6,2.1,4.6,4.6v6.9"/>
</g>
<g>
	<path id="XMLID_10_" class="st15" d="M445.6,506.8h-48c-4.4,0-8-3.6-8-8v-48c0-4.4,3.6-8,8-8h48c4.4,0,8,3.6,8,8v48
		C453.6,503.3,450,506.8,445.6,506.8z"/>
	<path id="XMLID_60_" class="st19" d="M401.5,499.8c-2.1,0-3.9-1.7-3.9-3.9v-53.1c-4.4,0-8,3.6-8,8v48c0,4.4,3.6,8,8,8h48
		c4.1,0,7.4-3.1,7.9-7H401.5z"/>
	<path id="XMLID_5_" class="st5" d="M445.6,506.8h-48c-4.4,0-8-3.6-8-8v-48c0-4.4,3.6-8,8-8h48c4.4,0,8,3.6,8,8v48
		C453.6,503.3,450,506.8,445.6,506.8z"/>
	<g id="XMLID_37_">
		<rect id="XMLID_21_" x="407.6" y="471.7" class="st10" width="25.1" height="6.3"/>
		
			<rect id="XMLID_22_" x="407.6" y="471.7" transform="matrix(4.485460e-11 1 -1 4.485460e-11 894.9758 54.7098)" class="st10" width="25.1" height="6.3"/>
	</g>
	<path id="XMLID_48_" class="st18" d="M437.3,451.5h2.2c2.5,0,4.6,2.1,4.6,4.6v6.9"/>
</g>
<g>
	<path id="XMLID_18_" class="st15" d="M445.6,594.8h-48c-4.4,0-8-3.6-8-8v-48c0-4.4,3.6-8,8-8h48c4.4,0,8,3.6,8,8v48
		C453.6,591.3,450,594.8,445.6,594.8z"/>
	<path id="XMLID_61_" class="st19" d="M401.5,587.8c-2.1,0-3.9-1.7-3.9-3.9v-53.1c-4.4,0-8,3.6-8,8v48c0,4.4,3.6,8,8,8h48
		c4.1,0,7.4-3.1,7.9-7H401.5z"/>
	<path id="XMLID_13_" class="st5" d="M445.6,594.8h-48c-4.4,0-8-3.6-8-8v-48c0-4.4,3.6-8,8-8h48c4.4,0,8,3.6,8,8v48
		C453.6,591.3,450,594.8,445.6,594.8z"/>
	<g id="XMLID_36_">
		
			<rect id="XMLID_32_" x="409" y="559.7" transform="matrix(0.7071 0.7071 -0.7071 0.7071 521.4716 -133.2583)" class="st10" width="25.1" height="6.3"/>
		
			<rect id="XMLID_31_" x="409" y="559.7" transform="matrix(-0.7071 0.7071 -0.7071 -0.7071 1117.6938 662.7217)" class="st10" width="25.1" height="6.3"/>
	</g>
	<path id="XMLID_40_" class="st18" d="M437.3,540.2h2.2c2.5,0,4.6,2.1,4.6,4.6v6.9"/>
</g>
<g>
	<path id="XMLID_20_" class="st15" d="M533.6,594.8h-48c-4.4,0-8-3.6-8-8v-48c0-4.4,3.6-8,8-8h48c4.4,0,8,3.6,8,8v48
		C541.6,591.3,538,594.8,533.6,594.8z"/>
	<path id="XMLID_58_" class="st19" d="M489.5,587.8c-2.1,0-3.9-1.7-3.9-3.9v-53.1c-4.4,0-8,3.6-8,8v48c0,4.4,3.6,8,8,8h48
		c4.1,0,7.4-3.1,7.9-7H489.5z"/>
	<path id="XMLID_12_" class="st5" d="M533.6,594.8h-48c-4.4,0-8-3.6-8-8v-48c0-4.4,3.6-8,8-8h48c4.4,0,8,3.6,8,8v48
		C541.6,591.3,538,594.8,533.6,594.8z"/>
	<g id="XMLID_35_">
		<rect id="XMLID_34_" x="497" y="559.7" class="st10" width="25.1" height="6.3"/>
		
			<rect id="XMLID_33_" x="506.4" y="569.1" transform="matrix(1.794181e-10 1 -1 1.794181e-10 1081.8641 62.6786)" class="st10" width="6.3" height="6.3"/>
		
			<rect id="XMLID_23_" x="506.4" y="550.3" transform="matrix(1.794181e-10 1 -1 1.794181e-10 1063.0071 43.8215)" class="st10" width="6.3" height="6.3"/>
	</g>
	<path id="XMLID_4_" class="st18" d="M525.8,540.2h2.2c2.5,0,4.6,2.1,4.6,4.6v6.9"/>
</g>
</svg>
