<svg height="382" viewBox="0 0 336 382" width="336" xmlns="http://www.w3.org/2000/svg"><g fill="none" fill-rule="evenodd" transform="translate(3 3)"><path d="m284.6 375.4h-252c-17.7 0-32-14.3-32-32v-301.1c0-17.7 14.3-32 32-32h252c17.7 0 32 14.3 32 32v301.1c0 17.7-14.3 32-32 32z" style="stroke:#241228;stroke-width:6;fill:#241228;fill-rule:nonzero;opacity:.2;stroke-linecap:round;stroke-linejoin:round"/><path d="m297.6 358h-252c-17.7 0-32-14.3-32-32v-270.7c0-17.7 14.3-32 32-32h252c17.7 0 32 14.3 32 32v270.7c0 17.7-14.3 32-32 32z" fill="#eb6331" fill-rule="nonzero"/><path d="m297.6 343h-252c-17.7 0-32-14.3-32-32v15c0 17.7 14.3 32 32 32h252c17.7 0 32-14.3 32-32v-15c0 17.7-14.3 32-32 32z" fill="#dd562c" fill-rule="nonzero"/><path d="m297.6 358h-252c-17.7 0-32-14.3-32-32v-270.7c0-17.7 14.3-32 32-32h252c17.7 0 32 14.3 32 32v270.7c0 17.7-14.3 32-32 32z" stroke="#511c64" stroke-linecap="round" stroke-linejoin="round" stroke-width="6"/><path d="m297.6 335h-252c-17.7 0-32-14.3-32-32v-270.7c0-17.7 14.3-32 32-32h252c17.7 0 32 14.3 32 32v270.7c0 17.7-14.3 32-32 32z" fill="#fda22f" fill-rule="nonzero"/><path d="m297.6 335h-252c-17.7 0-32-14.3-32-32v-270.7c0-17.7 14.3-32 32-32h252c17.7 0 32 14.3 32 32v270.7c0 17.7-14.3 32-32 32z" fill="#fda22f" fill-rule="nonzero"/><path d="m32.3 303v-270.7c0-17.7 14.3-32 32-32h-18.7c-17.7 0-32 14.3-32 32v270.7c0 17.7 14.3 32 32 32h18.7c-17.7 0-32-14.3-32-32z" fill="#fc9435" fill-rule="nonzero"/><path d="m297.6.3h-18.7c17.7 0 32 14.3 32 32v270.7c0 17.7-14.3 32-32 32h18.7c17.7 0 32-14.3 32-32v-270.7c0-17.7-14.3-32-32-32z" fill="#ffb331" fill-rule="nonzero"/><path d="m297.6 335h-252c-17.7 0-32-14.3-32-32v-270.7c0-17.7 14.3-32 32-32h252c17.7 0 32 14.3 32 32v270.7c0 17.7-14.3 32-32 32z" stroke="#511c64" stroke-linecap="round" stroke-linejoin="round" stroke-width="6"/><g fill-rule="nonzero"><path d="m283.6 106h-224c-4.4 0-8-3.6-8-8v-52c0-4.4 3.6-8 8-8h224c4.4 0 8 3.6 8 8v52c0 4.4-3.6 8-8 8z" fill="#a5f3ff"/><g fill="#511c64" transform="translate(250 50)"><path d="m4.9 4.5-1.9-2 1.9-1.9h14.7l1.9 1.6-2 2.3z"/><path d="m.5 19.7v-14.7l1.9-1.9 1.9 1.9v14.7l-1.9 1.9z" opacity=".2"/><path d="m20.1 19.7v-14.7l1.9-2.3 1.9 2.3v14.7l-1.9 1.9z"/><path d="m4.9 24-1.9-1.9 1.9-1.9h14.6l2 1.9-2 1.9z" opacity=".2"/><path d="m.5 39.6v-14.7l1.9-1.9 1.9 1.9v14.7l-1.9 1.9z" opacity=".2"/><path d="m20.1 39.6v-14.7l1.9-2.2 1.9 2.2v14.7l-1.9 1.9z"/><path d="m4.9 44-1.9-2 1.9-1.9h14.6l2 1.9-2 2z" opacity=".2"/></g><g fill="#511c64" transform="translate(215 50)"><path d="m5.3 4.5-2-2 2-1.9h14.6l1.9 1.6-1.9 2.3z"/><path d="m.9 19.7v-14.7l1.9-1.9 1.9 1.9v14.7l-1.9 1.9z" opacity=".2"/><path d="m20.5 19.7v-14.7l1.9-2.3 1.9 2.3v14.7l-1.9 1.9z"/><path d="m5.3 24-2-1.9 2-1.9h14.6l1.9 1.9-1.9 1.9z"/><path d="m.9 39.6v-14.7l1.9-1.9 1.9 1.9v14.7l-1.9 1.9z" opacity=".2"/><path d="m20.5 39.6v-14.7l1.9-2.2 1.9 2.2v14.7l-1.9 1.9z"/><path d="m5.3 44-2-2 2-1.9h14.6l1.9 1.9-1.9 2z"/></g><g fill="#511c64" opacity=".2" transform="translate(146 50)"><path d="m4.8 4.5-1.9-2 1.9-1.9h14.7l1.9 1.6-1.9 2.3z"/><path d="m.4 19.7v-14.7l2-1.9 1.9 1.9v14.7l-1.9 1.9z"/><path d="m20 19.7v-14.7l1.9-2.3 2 2.3v14.7l-2 1.9z"/><path d="m4.8 24-1.9-1.9 1.9-1.9h14.7l1.9 1.9-1.9 1.9z"/><path d="m.4 39.6v-14.7l2-1.9 1.9 1.9v14.7l-1.9 1.9z"/><path d="m20 39.6v-14.7l1.9-2.2 2 2.2v14.7l-2 1.9z"/><path d="m4.8 44-1.9-2 1.9-1.9h14.7l1.9 1.9-1.9 2z"/></g><g fill="#511c64" opacity=".2" transform="translate(181 50)"><path d="m4.5 4.5-1.9-2 1.9-1.9h14.7l1.9 1.6-2 2.3z"/><path d="m.1 19.7v-14.7l1.9-1.9 2 1.9v14.7l-2 1.9z"/><path d="m19.7 19.7v-14.7l1.9-2.3 2 2.3v14.7l-2 1.9z"/><path d="m4.5 24-1.9-1.9 1.9-1.9h14.7l1.9 1.9-1.9 1.9z"/><path d="m.1 39.6v-14.7l1.9-1.9 2 1.9v14.7l-2 1.9z"/><path d="m19.7 39.6v-14.7l1.9-2.2 2 2.2v14.7l-2 1.9z"/><path d="m4.5 44-1.9-2 1.9-1.9h14.7l1.9 1.9-1.9 2z"/></g><g fill="#511c64" opacity=".2" transform="translate(77 50)"><path d="m4.5 4.5-2-2 2-1.9h14.6l1.9 1.6-1.9 2.3z"/><path d="m.1 19.7v-14.7l1.9-1.9 1.9 1.9v14.7l-1.9 1.9z"/><path d="m19.7 19.7v-14.7l1.9-2.3 1.9 2.3v14.7l-1.9 1.9z"/><path d="m4.5 24-2-1.9 2-1.9h14.6l1.9 1.9-1.9 1.9z"/><path d="m.1 39.6v-14.7l1.9-1.9 1.9 1.9v14.7l-1.9 1.9z"/><path d="m19.7 39.6v-14.7l1.9-2.2 1.9 2.2v14.7l-1.9 1.9z"/><path d="m4.5 44-2-2 2-1.9h14.6l1.9 1.9-1.9 2z"/></g><g fill="#511c64" opacity=".2" transform="translate(111 50)"><path d="m5.1 4.5-1.9-2 1.9-1.9h14.7l1.9 1.6-1.9 2.3z"/><path d="m.8 19.7v-14.7l1.9-1.9 1.9 1.9v14.7l-1.9 1.9z"/><path d="m20.3 19.7v-14.7l2-2.3 1.9 2.3v14.7l-1.9 1.9z"/><path d="m5.1 24-1.9-1.9 1.9-1.9h14.7l1.9 1.9-1.9 1.9z"/><path d="m.8 39.6v-14.7l1.9-1.9 1.9 1.9v14.7l-1.9 1.9z"/><path d="m20.3 39.6v-14.7l2-2.2 1.9 2.2v14.7l-1.9 1.9z"/><path d="m5.1 44-1.9-2 1.9-1.9h14.7l1.9 1.9-1.9 2z"/></g><path d="m283.6 60h-224c-4.4 0-8-3.6-8-8v-6c0-4.4 3.6-8 8-8h224c4.4 0 8 3.6 8 8v6c0 4.4-3.6 8-8 8z" fill="#d2fcfb" opacity=".43"/></g><path d="m283.6 106h-224c-4.4 0-8-3.6-8-8v-52c0-4.4 3.6-8 8-8h224c4.4 0 8 3.6 8 8v52c0 4.4-3.6 8-8 8z" stroke="#511c64" stroke-linecap="round" stroke-linejoin="round" stroke-width="6"/><path d="m100.6 206.8h-48c-4.4 0-8-3.6-8-8v-48c0-4.4 3.6-8 8-8h48c4.4 0 8 3.6 8 8v48c0 4.5-3.6 8-8 8z" fill="#fc9435" fill-rule="nonzero" stroke="#fc9435" stroke-width="6"/><path d="m189.2 206.8h-48c-4.4 0-8-3.6-8-8v-48c0-4.4 3.6-8 8-8h48c4.4 0 8 3.6 8 8v48c0 4.5-3.6 8-8 8z" fill="#fc9435" fill-rule="nonzero" stroke="#fc9435" stroke-width="6"/><path d="m100.6 295.3h-48c-4.4 0-8-3.6-8-8v-48c0-4.4 3.6-8 8-8h48c4.4 0 8 3.6 8 8v48c0 4.5-3.6 8-8 8z" fill="#fc9435" fill-rule="nonzero" stroke="#fc9435" stroke-width="6"/><path d="m189.2 295.3h-48c-4.4 0-8-3.6-8-8v-48c0-4.4 3.6-8 8-8h48c4.4 0 8 3.6 8 8v48c0 4.5-3.6 8-8 8z" fill="#fc9435" fill-rule="nonzero" stroke="#fc9435" stroke-width="6"/><path d="m277.2 295.3h-48c-4.4 0-8-3.6-8-8v-136.5c0-4.4 3.6-8 8-8h48c4.4 0 8 3.6 8 8v136.5c0 4.5-3.6 8-8 8z" fill="#fc9435" fill-rule="nonzero" stroke="#fc9435" stroke-width="6"/><path d="m195.6 200.8h-48c-4.4 0-8-3.6-8-8v-48c0-4.4 3.6-8 8-8h48c4.4 0 8 3.6 8 8v48c0 4.5-3.6 8-8 8z" fill="#ff82a0" fill-rule="nonzero"/><g transform="translate(227 136)"><path d="m56.6 152.8h-48c-4.4 0-8-3.6-8-8v-136c0-4.4 3.6-8 8-8h48c4.4 0 8 3.6 8 8v136c0 4.5-3.6 8-8 8z" fill="#b078fd" fill-rule="nonzero"/><path d="m12.5 145.8c-2.1 0-3.9-1.7-3.9-3.9v-141.1c-4.4 0-8 3.6-8 8v136c0 4.4 3.6 8 8 8h48c4.1 0 7.4-3.1 7.9-7z" fill="#a270f2" fill-rule="nonzero"/><path d="m56.6 152.8h-48c-4.4 0-8-3.6-8-8v-136c0-4.4 3.6-8 8-8h48c4.4 0 8 3.6 8 8v136c0 4.5-3.6 8-8 8z" stroke="#511c64" stroke-linecap="round" stroke-linejoin="round" stroke-width="6"/><g fill="#511c64" fill-rule="nonzero"><path d="m18.2 64h28.8v7.2h-28.8z"/><path d="m18.2 74.8h28.8v7.2h-28.8z"/></g><path d="m44 9.5h4.8c3.7 0 6.7 3 6.7 6.7v19.7" stroke="#fff" stroke-linecap="round" stroke-linejoin="round" stroke-width="3"/></g><g transform="translate(139 136)"><path d="m12.5 57.8c-2.1 0-3.9-1.7-3.9-3.9v-53.1c-4.4 0-8 3.6-8 8v48c0 4.4 3.6 8 8 8h48c4.1 0 7.4-3.1 7.9-7z" fill="#f27095" fill-rule="nonzero"/><path d="m56.6 64.8h-48c-4.4 0-8-3.6-8-8v-48c0-4.4 3.6-8 8-8h48c4.4 0 8 3.6 8 8v48c0 4.5-3.6 8-8 8z" stroke="#511c64" stroke-linecap="round" stroke-linejoin="round" stroke-width="6"/><path d="m20 29.7h25.1v6.3h-25.1z" fill="#511c64" fill-rule="nonzero"/><path d="m48.8 9.5h2.2c2.5 0 4.6 2.1 4.6 4.6v6.9" stroke="#fff" stroke-linecap="round" stroke-linejoin="round" stroke-width="3"/></g><g transform="translate(51 136)"><path d="m56.6 64.8h-48c-4.4 0-8-3.6-8-8v-48c0-4.4 3.6-8 8-8h48c4.4 0 8 3.6 8 8v48c0 4.5-3.6 8-8 8z" fill="#ff82a0" fill-rule="nonzero"/><path d="m12.5 57.8c-2.1 0-3.9-1.7-3.9-3.9v-53.1c-4.4 0-8 3.6-8 8v48c0 4.4 3.6 8 8 8h48c4.1 0 7.4-3.1 7.9-7z" fill="#f27095" fill-rule="nonzero"/><path d="m56.6 64.8h-48c-4.4 0-8-3.6-8-8v-48c0-4.4 3.6-8 8-8h48c4.4 0 8 3.6 8 8v48c0 4.5-3.6 8-8 8z" stroke="#511c64" stroke-linecap="round" stroke-linejoin="round" stroke-width="6"/><g fill="#511c64" fill-rule="nonzero" transform="translate(18 20)"><path d="m.6 9.7h25.1v6.3h-25.1z"/><path d="m.5758 9.7098h25.1v6.3h-25.1z" transform="matrix(0 1 -1 0 25.9856 -.266)"/></g><path d="m48.3 9.5h2.2c2.5 0 4.6 2.1 4.6 4.6v6.9" stroke="#fff" stroke-linecap="round" stroke-linejoin="round" stroke-width="3"/></g><g transform="translate(51 224)"><path d="m56.6 64.8h-48c-4.4 0-8-3.6-8-8v-48c0-4.4 3.6-8 8-8h48c4.4 0 8 3.6 8 8v48c0 4.5-3.6 8-8 8z" fill="#ff82a0" fill-rule="nonzero"/><path d="m12.5 57.8c-2.1 0-3.9-1.7-3.9-3.9v-53.1c-4.4 0-8 3.6-8 8v48c0 4.4 3.6 8 8 8h48c4.1 0 7.4-3.1 7.9-7z" fill="#f27095" fill-rule="nonzero"/><path d="m56.6 64.8h-48c-4.4 0-8-3.6-8-8v-48c0-4.4 3.6-8 8-8h48c4.4 0 8 3.6 8 8v48c0 4.5-3.6 8-8 8z" stroke="#511c64" stroke-linecap="round" stroke-linejoin="round" stroke-width="6"/><g fill="#511c64" fill-rule="nonzero" transform="translate(21 21)"><path d="m-.99151 8.66097h25.099759v6.29994h-25.099759z" transform="matrix(.70710678 .70710678 -.70710678 .70710678 11.736964 -4.713658)"/><path d="m-.92532 8.6585h25.099759v6.29994h-25.099759z" transform="matrix(-.70710678 .70710678 -.70710678 -.70710678 28.194214 11.938514)"/></g><path d="m48.3 10.2h2.2c2.5 0 4.6 2.1 4.6 4.6v6.9" stroke="#fff" stroke-linecap="round" stroke-linejoin="round" stroke-width="3"/></g><g transform="translate(139 224)"><path d="m56.6 64.8h-48c-4.4 0-8-3.6-8-8v-48c0-4.4 3.6-8 8-8h48c4.4 0 8 3.6 8 8v48c0 4.5-3.6 8-8 8z" fill="#ff82a0" fill-rule="nonzero"/><path d="m12.5 57.8c-2.1 0-3.9-1.7-3.9-3.9v-53.1c-4.4 0-8 3.6-8 8v48c0 4.4 3.6 8 8 8h48c4.1 0 7.4-3.1 7.9-7z" fill="#f27095" fill-rule="nonzero"/><path d="m56.6 64.8h-48c-4.4 0-8-3.6-8-8v-48c0-4.4 3.6-8 8-8h48c4.4 0 8 3.6 8 8v48c0 4.5-3.6 8-8 8z" stroke="#511c64" stroke-linecap="round" stroke-linejoin="round" stroke-width="6"/><g fill="#511c64" fill-rule="nonzero" transform="translate(20 20)"><path d="m0 9.7h25.1v6.3h-25.1z"/><path d="m9.4641 19.0786h6.3v6.3h-6.3z" transform="matrix(0 1 -1 0 34.8427 9.6145)"/><path d="m9.4071.2215h6.3v6.3h-6.3z" transform="matrix(0 1 -1 0 15.9286 -9.1856)"/></g><path d="m48.8 10.2h2.2c2.5 0 4.6 2.1 4.6 4.6v6.9" stroke="#fff" stroke-linecap="round" stroke-linejoin="round" stroke-width="3"/></g></g></svg>