<svg height="157" viewBox="0 0 360 157" width="360" xmlns="http://www.w3.org/2000/svg"><g fill="none" fill-rule="evenodd" transform="translate(3 3)"><g fill-rule="nonzero"><path d="m354 41.6v-28.6c0-3.3-2.7-6-6-6h-342c-3.3 0-6 2.7-6 6v28.6c13.3 0 24 10.7 24 24s-10.7 24-24 24v59.4c0 1.1.9 2 2 2h204.4v-23h16.5v23h129.1c1.1 0 2-.9 2-2v-59.4c-13.3 0-24-10.7-24-24s10.7-24 24-24zm-334.8 86.4c-5 0-9-4-9-9s4-9 9-9 9 4 9 9-4 9-9 9zm316-18c5 0 9 4 9 9s-4 9-9 9-9-4-9-9 4-9 9-9z" style="stroke:#353535;stroke-width:6;fill:#353535;opacity:.31;stroke-linecap:round;stroke-linejoin:round"/><path d="m354 34.6v-28.6c0-3.3-2.7-6-6-6h-342c-3.3 0-6 2.7-6 6v28.6c13.3 0 24 10.7 24 24s-10.7 24-24 24v59.4c0 1.1.9 2 2 2h204.4v-23h16.5v23h129.1c1.1 0 2-.9 2-2v-59.4c-13.3 0-24-10.7-24-24s10.7-24 24-24zm-334.8 86.4c-5 0-9-4-9-9s4-9 9-9 9 4 9 9-4 9-9 9zm316-18c5 0 9 4 9 9s-4 9-9 9-9-4-9-9 4-9 9-9z" fill="#14b0bf"/><path d="m354 9v-5.4c0-2-2.7-3.6-6-3.6h-342c-3.3 0-6 1.6-6 3.6v5.4z" fill="#24c1c9"/><path d="m223 118h131v26h-131z" fill="#353535"/></g><path d="m38.8 105.1h276.4" stroke="#353535" stroke-linecap="round" stroke-linejoin="round" stroke-width="7"/><circle cx="335.2" cy="112" r="9" stroke="#194254" stroke-linecap="round" stroke-linejoin="round" stroke-width="6"/><path d="m0 118h206.4v26h-206.4z" fill="#353535" fill-rule="nonzero"/><g fill="#fce18d" fill-rule="nonzero"><path d="m8.8 22h-7.2c-.5 0-.9-.4-.9-.9v-18.1c0-1.7 1.3-3 3-3h3c1.7 0 3 1.3 3 3v18.1c.1.5-.3.9-.9.9z" transform="translate(188 122)"/><path d="m8.8 22h-7.2c-.5 0-.9-.4-.9-.9v-18.1c0-1.7 1.3-3 3-3h3c1.7 0 3 1.3 3 3v18.1c.1.5-.3.9-.9.9z" transform="translate(174 122)"/><path d="m8.8 22h-7.2c-.5 0-.9-.4-.9-.9v-18.1c0-1.7 1.3-3 3-3h3c1.7 0 3 1.3 3 3v18.1c.1.5-.3.9-.9.9z" transform="translate(160 122)"/><path d="m8.8 22h-7.2c-.5 0-.9-.4-.9-.9v-18.1c0-1.7 1.3-3 3-3h3c1.7 0 3 1.3 3 3v18.1c.1.5-.3.9-.9.9z" transform="translate(146 122)"/><path d="m8.8 22h-7.2c-.5 0-.9-.4-.9-.9v-18.1c0-1.7 1.3-3 3-3h3c1.7 0 3 1.3 3 3v18.1c.1.5-.3.9-.9.9z" transform="translate(132 122)"/><path d="m8.8 22h-7.2c-.5 0-.9-.4-.9-.9v-18.1c0-1.7 1.3-3 3-3h3c1.7 0 3 1.3 3 3v18.1c.1.5-.3.9-.9.9z" transform="translate(118 122)"/><path d="m8.8 22h-7.2c-.5 0-.9-.4-.9-.9v-18.1c0-1.7 1.3-3 3-3h3c1.7 0 3 1.3 3 3v18.1c.1.5-.3.9-.9.9z" transform="translate(104 122)"/><path d="m8.8 22h-7.2c-.5 0-.9-.4-.9-.9v-18.1c0-1.7 1.3-3 3-3h3c1.7 0 3 1.3 3 3v18.1c.1.5-.3.9-.9.9z" transform="translate(90 122)"/><path d="m8.8 22h-7.2c-.5 0-.9-.4-.9-.9v-18.1c0-1.7 1.3-3 3-3h3c1.7 0 3 1.3 3 3v18.1c.1.5-.3.9-.9.9z" transform="translate(76 122)"/><path d="m8.8 22h-7.2c-.5 0-.9-.4-.9-.9v-18.1c0-1.7 1.3-3 3-3h3c1.7 0 3 1.3 3 3v18.1c.1.5-.3.9-.9.9z" transform="translate(62 122)"/><path d="m8.8 22h-7.2c-.5 0-.9-.4-.9-.9v-18.1c0-1.7 1.3-3 3-3h3c1.7 0 3 1.3 3 3v18.1c.1.5-.3.9-.9.9z" transform="translate(48 122)"/><path d="m8.8 22h-7.2c-.5 0-.9-.4-.9-.9v-18.1c0-1.7 1.3-3 3-3h3c1.7 0 3 1.3 3 3v18.1c.1.5-.3.9-.9.9z" transform="translate(34 122)"/></g><g fill="#fce18d" fill-rule="nonzero"><path d="m9.6 22h-9v-19c0-1.7 1.3-3 3-3h3c1.7 0 3 1.3 3 3z" transform="translate(315 122)"/><path d="m9.6 22h-9v-19c0-1.7 1.3-3 3-3h3c1.7 0 3 1.3 3 3z" transform="translate(301 122)"/><path d="m9.6 22h-9v-19c0-1.7 1.3-3 3-3h3c1.7 0 3 1.3 3 3z" transform="translate(287 122)"/><path d="m9.6 22h-9v-19c0-1.7 1.3-3 3-3h3c1.7 0 3 1.3 3 3z" transform="translate(273 122)"/><path d="m9.6 22h-9v-19c0-1.7 1.3-3 3-3h3c1.7 0 3 1.3 3 3z" transform="translate(259 122)"/><path d="m9.6 22h-9v-19c0-1.7 1.3-3 3-3h3c1.7 0 3 1.3 3 3z" transform="translate(245 122)"/><path d="m9.6 22h-9v-19c0-1.7 1.3-3 3-3h3c1.7 0 3 1.3 3 3z" transform="translate(231 122)"/></g><path d="m330 58.6c0-12 8.8-22 20.3-23.7 2.1-.3 3.7-2 3.7-4.1v-20.5c0-5.6-4.6-10.2-10.2-10.2h-333.6c-5.6 0-10.2 4.6-10.2 10.2v20.5c0 2.1 1.6 3.8 3.7 4.1 11.5 1.8 20.3 11.7 20.3 23.7s-8.8 22-20.3 23.7c-2.1.3-3.7 2-3.7 4.1v51.4c0 3.4 2.8 6.2 6.2 6.2h196c2.3 0 4.2-1.9 4.2-4.2v-18.8h16.5v18.8c0 2.3 1.9 4.2 4.2 4.2h120.7c3.4 0 6.2-2.8 6.2-6.2v-51.4c0-2.1-1.6-3.8-3.7-4.1-11.5-1.8-20.3-11.7-20.3-23.7z" stroke="#194254" stroke-linecap="round" stroke-linejoin="round" stroke-width="6"/><circle cx="19.2" cy="112" r="9" stroke="#194254" stroke-linecap="round" stroke-linejoin="round" stroke-width="6"/><g transform="translate(38 29)"><path d="m44.8 62.6h-34c-2.2 0-4-1.8-4-4v-50c0-2.2 1.8-4 4-4h34c2.2 0 4 1.8 4 4v50c0 2.2-1.8 4-4 4z" fill="#2c5871" fill-rule="nonzero" opacity=".2"/><g stroke="#eae9da" stroke-linecap="round" stroke-linejoin="round" stroke-width="4"><path d="m.8.6h6" transform="translate(0 53)"/><path d="m.8.6h6" transform="translate(0 45)"/><path d="m.8.6h6" transform="translate(0 37)"/><path d="m.8.6h6" transform="translate(0 29)"/><path d="m.8.6h6" transform="translate(0 21)"/><path d="m.8.6h6" transform="translate(0 13)"/><path d="m.8.6h6" transform="translate(0 5)"/></g><g stroke="#eae9da" stroke-linecap="round" stroke-linejoin="round" stroke-width="4"><path d="m.8.6h6" transform="translate(48 53)"/><path d="m.8.6h6" transform="translate(48 45)"/><path d="m.8.6h6" transform="translate(48 37)"/><path d="m.8.6h6" transform="translate(48 29)"/><path d="m.8.6h6" transform="translate(48 21)"/><path d="m.8.6h6" transform="translate(48 13)"/><path d="m.8.6h6" transform="translate(48 5)"/></g><path d="m44.8 58.6h-34c-2.2 0-4-1.8-4-4v-50c0-2.2 1.8-4 4-4h34c2.2 0 4 1.8 4 4v50c0 2.2-1.8 4-4 4z" fill="#2c5871" fill-rule="nonzero"/><path d="m10.8 52.9v-46.6c0-1 .8-1.7 1.7-1.7h30.6c1 0 1.7.8 1.7 1.7v46.6c0 1-.8 1.7-1.7 1.7h-30.6c-.9 0-1.7-.8-1.7-1.7z" fill="#3d6d82" fill-rule="nonzero"/><g stroke="#eae9da" stroke-linecap="round" stroke-linejoin="round"><path d="m17.5 15.7v13.9 13.4" stroke-width="2"/><path d="m21.9 21.6v15.5"/><path d="m39.3 17.3v24"/></g></g><g transform="translate(112 29)"><path d="m44.9 62.6h-34c-2.2 0-4-1.8-4-4v-50c0-2.2 1.8-4 4-4h34c2.2 0 4 1.8 4 4v50c0 2.2-1.7 4-4 4z" fill="#2c5871" fill-rule="nonzero" opacity=".2"/><g stroke="#eae9da" stroke-linecap="round" stroke-linejoin="round" stroke-width="4"><path d="m.9.6h6" transform="translate(0 53)"/><path d="m.9.6h6" transform="translate(0 45)"/><path d="m.9.6h6" transform="translate(0 37)"/><path d="m.9.6h6" transform="translate(0 29)"/><path d="m.9.6h6" transform="translate(0 21)"/><path d="m.9.6h6" transform="translate(0 13)"/><path d="m.9.6h6" transform="translate(0 5)"/></g><g stroke="#eae9da" stroke-linecap="round" stroke-linejoin="round" stroke-width="4"><path d="m.9.6h6" transform="translate(48 53)"/><path d="m.9.6h6" transform="translate(48 45)"/><path d="m.9.6h6" transform="translate(48 37)"/><path d="m.9.6h6" transform="translate(48 29)"/><path d="m.9.6h6" transform="translate(48 21)"/><path d="m.9.6h6" transform="translate(48 13)"/><path d="m.9.6h6" transform="translate(48 5)"/></g><path d="m44.9 58.6h-34c-2.2 0-4-1.8-4-4v-50c0-2.2 1.8-4 4-4h34c2.2 0 4 1.8 4 4v50c0 2.2-1.7 4-4 4z" fill="#2c5871" fill-rule="nonzero"/><path d="m10.9 52.9v-46.6c0-1 .8-1.7 1.7-1.7h30.6c1 0 1.7.8 1.7 1.7v46.6c0 1-.8 1.7-1.7 1.7h-30.6c-.9 0-1.7-.8-1.7-1.7z" fill="#3d6d82" fill-rule="nonzero"/><g stroke="#eae9da" stroke-linecap="round" stroke-linejoin="round"><path d="m17.6 15.7v13.9 13.4" stroke-width="2"/><path d="m22.1 21.6v15.5"/><path d="m39.4 17.3v24"/></g></g><g transform="translate(187 29)"><path d="m44.1 62.6h-34c-2.2 0-4-1.8-4-4v-50c0-2.2 1.8-4 4-4h34c2.2 0 4 1.8 4 4v50c0 2.2-1.8 4-4 4z" fill="#2c5871" fill-rule="nonzero" opacity=".2"/><g stroke="#eae9da" stroke-linecap="round" stroke-linejoin="round" stroke-width="4"><path d="m.1.6h6" transform="translate(0 53)"/><path d="m.1.6h6" transform="translate(0 45)"/><path d="m.1.6h6" transform="translate(0 37)"/><path d="m.1.6h6" transform="translate(0 29)"/><path d="m.1.6h6" transform="translate(0 21)"/><path d="m.1.6h6" transform="translate(0 13)"/><path d="m.1.6h6" transform="translate(0 5)"/></g><g stroke="#eae9da" stroke-linecap="round" stroke-linejoin="round" stroke-width="4"><path d="m.1.6h6" transform="translate(48 53)"/><path d="m.1.6h6" transform="translate(48 45)"/><path d="m.1.6h6" transform="translate(48 37)"/><path d="m.1.6h6" transform="translate(48 29)"/><path d="m.1.6h6" transform="translate(48 21)"/><path d="m.1.6h6" transform="translate(48 13)"/><path d="m.1.6h6" transform="translate(48 5)"/></g><path d="m44.1 58.6h-34c-2.2 0-4-1.8-4-4v-50c0-2.2 1.8-4 4-4h34c2.2 0 4 1.8 4 4v50c0 2.2-1.8 4-4 4z" fill="#2c5871" fill-rule="nonzero"/><path d="m10.1 52.9v-46.6c0-1 .8-1.7 1.7-1.7h30.6c1 0 1.7.8 1.7 1.7v46.6c0 1-.8 1.7-1.7 1.7h-30.6c-1 0-1.7-.8-1.7-1.7z" fill="#3d6d82" fill-rule="nonzero"/><g stroke="#eae9da" stroke-linecap="round" stroke-linejoin="round"><path d="m16.8 15.7v13.9 13.4" stroke-width="2"/><path d="m21.2 21.6v15.5"/><path d="m38.6 17.3v24"/></g></g><g transform="translate(261 29)"><path d="m44.2 62.6h-34c-2.2 0-4-1.8-4-4v-50c0-2.2 1.8-4 4-4h34c2.2 0 4 1.8 4 4v50c0 2.2-1.8 4-4 4z" fill="#2c5871" fill-rule="nonzero" opacity=".2"/><g stroke="#eae9da" stroke-linecap="round" stroke-linejoin="round" stroke-width="4"><path d="m.2.6h6" transform="translate(0 53)"/><path d="m.2.6h6" transform="translate(0 45)"/><path d="m.2.6h6" transform="translate(0 37)"/><path d="m.2.6h6" transform="translate(0 29)"/><path d="m.2.6h6" transform="translate(0 21)"/><path d="m.2.6h6" transform="translate(0 13)"/><path d="m.2.6h6" transform="translate(0 5)"/></g><g stroke="#eae9da" stroke-linecap="round" stroke-linejoin="round" stroke-width="4"><path d="m.2.6h6" transform="translate(48 53)"/><path d="m.2.6h6" transform="translate(48 45)"/><path d="m.2.6h6" transform="translate(48 37)"/><path d="m.2.6h6" transform="translate(48 29)"/><path d="m.2.6h6" transform="translate(48 21)"/><path d="m.2.6h6" transform="translate(48 13)"/><path d="m.2.6h6" transform="translate(48 5)"/></g><path d="m44.2 58.6h-34c-2.2 0-4-1.8-4-4v-50c0-2.2 1.8-4 4-4h34c2.2 0 4 1.8 4 4v50c0 2.2-1.8 4-4 4z" fill="#2c5871" fill-rule="nonzero"/><path d="m10.2 52.9v-46.6c0-1 .8-1.7 1.7-1.7h30.6c1 0 1.7.8 1.7 1.7v46.6c0 1-.8 1.7-1.7 1.7h-30.6c-1 0-1.7-.8-1.7-1.7z" fill="#3d6d82" fill-rule="nonzero"/><g stroke="#eae9da" stroke-linecap="round" stroke-linejoin="round"><path d="m16.9 15.7v13.9 13.4" stroke-width="2"/><path d="m21.3 21.6v15.5"/><path d="m38.7 17.3v24"/></g></g></g></svg>