<svg height="446" viewBox="0 0 474 446" width="474" xmlns="http://www.w3.org/2000/svg"><g fill="none" fill-rule="evenodd" transform="translate(4 8)"><ellipse cx="233.8" cy="206.5" fill="#8fe3f9" fill-rule="nonzero" rx="228" ry="205.8"/><ellipse cx="233.8" cy="206.5" fill="#8fe3f9" fill-rule="nonzero" rx="228" ry="205.8"/><path d="m239.8 408.3c52.1 0 100.1-15.3 138.5-41l-10.5-24.7c-22-51.9-74.2-85.8-132.1-85.8-57.9 0-110.1 33.9-132.1 85.8l-8.6 20.4c39.3 28.3 89.8 45.3 144.8 45.3z" fill="#b2ebf9" fill-rule="nonzero"/><path d="m233.7 189.3-43.6 64 32.9 43.8c5.4 7.2 16.3 7.2 21.7 0l32.6-43.8z" fill="#a4e0ea" fill-rule="nonzero"/><path d="m233.8 388.3c-121.5 0-220.7-85.7-227.6-193.8-.3 4-.4 8-.4 12 0 113.6 102.1 205.8 228 205.8s228-92.1 228-205.8c0-4-.1-8-.4-12-6.9 108.1-106.2 193.8-227.6 193.8z" fill="#7ad1e5" fill-rule="nonzero"/><path d="m370.6 347.1c-38.1 25.8-85.5 41.2-136.8 41.2-50 0-96.2-14.5-133.7-39.1l-5 12.3c39.4 29.2 89.8 46.8 144.8 46.8 49.7 0 95.7-14.4 133.2-38.8 1.8-1.2 3.5-2.5 5.3-3.8z" fill="#a4e0ea" fill-rule="nonzero"/><path d="m.2 207.2c6.4 13.1 15 25.3 25.8 36.2 52.3 52.3 137.2 52.3 189.5 0 43.8-43.8 50.9-110.3 21.5-161.5" fill="#7ad1e5" fill-rule="nonzero"/><path d="m461 222.8c-24 36.1-65 59.8-111.6 59.8-74 0-134-60-134-134 0-33 11.9-63.2 31.7-86.6" fill="#7ad1e5" fill-rule="nonzero"/><ellipse cx="233.8" cy="206.5" rx="228" ry="205.8" stroke="#413d51" stroke-linecap="round" stroke-linejoin="round" stroke-width="16"/><path d="m233.7 161.3-43.6 64 43.8 58.3 43.5-58.3z" fill="#413d51" fill-rule="nonzero"/><path d="m233.7 161.3-43.6 64 43.8 58.3 43.5-58.3z" stroke="#413d51" stroke-linecap="round" stroke-linejoin="round" stroke-width="16"/><path d="m332.7 22.9c-30-14-64.1-21.9-100-21.9s-70 7.9-100 21.9v140.1h200z" fill="#413d51" fill-rule="nonzero"/><g transform="translate(203 29)"><path d="m142.5 7.9 108.7-3.3c-15.7 39.3-17.8 98.4-4.1 163-17.4 36.8-54.4 62.9-97.9 64.2-61.8 1.9-113.5-46.7-115.3-108.6-1.9-61.8 46.7-113.4 108.6-115.3z" fill="#413d51" fill-rule="nonzero"/><path d="m142.5 7.9 108.7-3.3c-15.7 39.3-17.8 98.4-4.1 163-17.4 36.8-54.4 62.9-97.9 64.2-61.8 1.9-113.5-46.7-115.3-108.6-1.9-61.8 46.7-113.4 108.6-115.3z" stroke="#413d51" stroke-linecap="round" stroke-linejoin="round" stroke-width="16"/><g fill-rule="nonzero"><circle cx="146.4" cy="119.7" fill="#f7e8ad" r="112"/><circle cx="146.4" cy="119.7" fill="#f7e8ad" r="112"/><path d="m225.6 40.5c-21.5-21.5-49.7-32.4-77.9-32.8 21.2 4.1 41.5 14.3 57.9 30.8 43.7 43.7 43.7 114.6 0 158.4-22.2 22.2-51.4 33.1-80.4 32.8 35.3 6.8 73.1-3.5 100.4-30.8 43.7-43.8 43.7-114.7 0-158.4z" fill="#f7d6a1"/><ellipse cx="119.70024" cy="119.701" fill="#fff" opacity=".7" rx="83.999194" ry="84.599189" transform="matrix(.70710678 -.70710678 .70710678 .70710678 -49.582 119.700463)"/><path d="m240.4 66.6c-3.1-4-9.1-15-12.8-18.7-44-43.4-114.9-43-158.3 1.1-8.6 8.7-15.5 18.5-20.6 29 61.7-21.7 129.3-16.5 191.7-11.4z" fill="#efca92"/></g><circle cx="146.4" cy="119.7" r="112" stroke="#413d51" stroke-linecap="round" stroke-linejoin="round" stroke-width="16"/><circle cx="146.4" cy="119.7" r="112" stroke="#413d51" stroke-linecap="round" stroke-linejoin="round" stroke-width="16"/><path d="m235.7 52.1c-3.1-4-6.4-7.9-10.1-11.6-43.7-43.7-114.6-43.7-158.4 0-8.7 8.7-15.6 18.4-20.8 28.8 62-21.2 126.9-22.8 189.3-17.2z" fill="#413d51" fill-rule="nonzero"/><circle cx="91.9" cy="128.1" fill="#413d51" fill-rule="nonzero" r="42"/><circle cx="68.1" cy="128.4" fill="#fff" fill-rule="nonzero" r="14"/></g><g transform="translate(4 29)"><path d="m116.8 7.9-108.8-3.3c15.7 39.3 17.8 98.4 4.1 163 17.4 36.8 54.4 62.9 97.9 64.2 61.8 1.9 113.5-46.7 115.3-108.6 1.9-61.8-46.7-113.4-108.5-115.3z" fill="#413d51" fill-rule="nonzero"/><path d="m116.8 7.9-108.8-3.3c15.7 39.3 17.8 98.4 4.1 163 17.4 36.8 54.4 62.9 97.9 64.2 61.8 1.9 113.5-46.7 115.3-108.6 1.9-61.8-46.7-113.4-108.5-115.3z" stroke="#413d51" stroke-linecap="round" stroke-linejoin="round" stroke-width="16"/><g fill-rule="nonzero"><circle cx="112.8" cy="119.7" fill="#f7e8ad" r="112"/><circle cx="112.8" cy="119.7" fill="#f7e8ad" r="112"/><path d="m33.6 40.5c21.5-21.5 49.7-32.4 77.9-32.8-21.2 4.1-41.5 14.3-57.9 30.8-43.7 43.7-43.7 114.6 0 158.4 22.2 22.2 51.4 33.1 80.4 32.8-35.3 6.8-73.1-3.5-100.4-30.8-43.7-43.8-43.7-114.7 0-158.4z" fill="#f7d6a1"/><ellipse cx="139.51042" cy="119.72132" fill="#fff" opacity=".7" rx="84.599189" ry="83.999194" transform="matrix(.70710678 -.70710678 .70710678 .70710678 -43.794101 133.714327)"/><path d="m18.9 66.6c3.1-4 9.1-15 12.8-18.7 44-43.4 114.9-43 158.3 1.1 8.6 8.7 15.5 18.5 20.6 29-61.8-21.7-129.4-16.5-191.7-11.4z" fill="#efca92" opacity=".89"/></g><circle cx="112.8" cy="119.7" r="112" stroke="#413d51" stroke-linecap="round" stroke-linejoin="round" stroke-width="16"/><circle cx="112.8" cy="119.7" r="112" stroke="#413d51" stroke-linecap="round" stroke-linejoin="round" stroke-width="16"/><path d="m23.6 52.1c3.1-4 6.4-7.9 10.1-11.6 43.7-43.7 114.6-43.7 158.4 0 8.7 8.7 15.6 18.4 20.8 28.8-62-21.2-127-22.8-189.3-17.2z" fill="#413d51" fill-rule="nonzero"/><circle cx="167.4" cy="128.1" fill="#413d51" fill-rule="nonzero" r="42"/><circle cx="191.2" cy="128.4" fill="#fff" fill-rule="nonzero" r="14"/></g><path d="m179.9 437.3c-8.8 0-16-7.2-16-16v-18c0-8.8 7.2-16 16-16 8.8 0 16 7.2 16 16v18c0 8.8-7.1 16-16 16z" fill="#413d51" fill-rule="nonzero"/><path d="m147.9 437.3c-8.8 0-16-7.2-16-16v-18c0-8.8 7.2-16 16-16 8.8 0 16 7.2 16 16v18c0 8.8-7.1 16-16 16z" fill="#413d51" fill-rule="nonzero"/><path d="m211.7 437.3c-8.8 0-16-7.2-16-16v-18c0-8.8 7.2-16 16-16 8.8 0 16 7.2 16 16v18c0 8.8-7.2 16-16 16z" fill="#413d51" fill-rule="nonzero"/><path d="m253.9 437.3c-8.8 0-16-7.2-16-16v-18c0-8.8 7.2-16 16-16 8.8 0 16 7.2 16 16v18c0 8.8-7.2 16-16 16z" fill="#413d51" fill-rule="nonzero"/><path d="m285.7 437.3c-8.8 0-16-7.2-16-16v-18c0-8.8 7.2-16 16-16 8.8 0 16 7.2 16 16v18c0 8.8-7.2 16-16 16z" fill="#413d51" fill-rule="nonzero"/><path d="m317.7 437.3c-8.8 0-16-7.2-16-16v-18c0-8.8 7.2-16 16-16 8.8 0 16 7.2 16 16v18c0 8.8-7.2 16-16 16z" fill="#413d51" fill-rule="nonzero"/><g stroke-linecap="round" stroke-linejoin="round" stroke-width="8"><path d="m223.9 306.6c0 8.4-6.8 15.2-15.2 15.2s-15.2-6.8-15.2-15.2" stroke="#413d51"/><path d="m270.4 306.6c0 8.4-6.8 15.2-15.2 15.2s-15.2-6.8-15.2-15.2" stroke="#413d51"/><path d="m55 267.8c-2.2 4.7-7.7 6.8-12.5 4.6s-6.8-7.7-4.6-12.5" opacity=".31" stroke="#72c8d6"/><path d="m84.8 283.3c-2.2 4.7-7.7 6.8-12.5 4.6-4.7-2.2-6.8-7.7-4.6-12.5" opacity=".31" stroke="#72c8d6"/><path d="m67.5 295.2c-2.2 4.7-7.7 6.8-12.5 4.6-4.7-2.2-6.8-7.7-4.6-12.5" opacity=".31" stroke="#72c8d6"/><path d="m93.7 315.1c-2.2 4.7-7.7 6.8-12.5 4.6-4.7-2.2-6.8-7.7-4.6-12.5" opacity=".31" stroke="#72c8d6"/><path d="m113.7 297.1c-2.2 4.7-7.7 6.8-12.5 4.6-4.7-2.2-6.8-7.7-4.6-12.5" opacity=".31" stroke="#72c8d6"/><path d="m415.7 269.8c2.2 4.7 7.7 6.8 12.5 4.6s6.8-7.7 4.6-12.5" opacity=".31" stroke="#72c8d6"/><path d="m386 285.3c2.2 4.7 7.7 6.8 12.5 4.6 4.7-2.2 6.8-7.7 4.6-12.5" opacity=".31" stroke="#72c8d6"/><path d="m403.2 297.2c2.2 4.7 7.7 6.8 12.5 4.6 4.7-2.2 6.8-7.7 4.6-12.5" opacity=".31" stroke="#72c8d6"/><path d="m377.1 317.1c2.2 4.7 7.7 6.8 12.5 4.6 4.7-2.2 6.8-7.7 4.6-12.5" opacity=".31" stroke="#72c8d6"/><path d="m357.1 299.1c2.2 4.7 7.7 6.8 12.5 4.6 4.7-2.2 6.8-7.7 4.6-12.5" opacity=".31" stroke="#72c8d6"/><path d="m200.7 343.1c0 8.4-6.8 15.2-15.2 15.2s-15.2-6.8-15.2-15.2" stroke="#413d51"/><path d="m247.2 343.1c0 8.4-6.8 15.2-15.2 15.2s-15.2-6.8-15.2-15.2" stroke="#413d51"/><path d="m293.7 343.1c0 8.4-6.8 15.2-15.2 15.2s-15.2-6.8-15.2-15.2" stroke="#413d51"/></g></g></svg>