<svg height="708" viewBox="0 0 1000 708" width="1000" xmlns="http://www.w3.org/2000/svg"><g fill="none" fill-rule="evenodd" transform="translate(0 3)"><path d="m490.1 360.5c-9.4 1.2-16.9 14.4-18.3 25.3-.4 3.2-.6 6.3-.6 9.5 0 10.4 2.2 20.3 6.2 30.4 4 9.9 10 20 17.2 25.8 7.3-5.8 13.2-15.9 17.2-25.8 4-10.1 6.2-20 6.2-30.4 0-3.2-.2-6.3-.6-9.5-1.4-11-8.9-24.1-18.3-25.3-2.9-.3-6-.3-9 0z" stroke="#601b23" stroke-linecap="round" stroke-linejoin="round" stroke-width="6"/><path d="m490.1 360.5c-9.4 1.2-16.9 14.4-18.3 25.3-.4 3.2-.6 6.3-.6 9.5 0 10.4 2.2 20.3 6.2 30.4 4 9.9 10 20 17.2 25.8 7.3-5.8 13.2-15.9 17.2-25.8 4-10.1 6.2-20 6.2-30.4 0-3.2-.2-6.3-.6-9.5-1.4-11-8.9-24.1-18.3-25.3-2.9-.3-6-.3-9 0z" fill="#e36535" fill-rule="nonzero"/><path d="m536.6 423.2c0 18.6-3.9 36.4-11.1 54.5-.2.6-.5 1.2-.8 1.9-7.2 17.2-17.5 34.4-30 44.5-12.9-10.4-23.4-28.3-30.7-46-.1-.1-.1-.2-.2-.4-7.2-18.1-11.1-35.9-11.1-54.5 0-5.7.4-11.3 1.1-17.1 2.4-19.4 15.6-42.8 32.1-45.3.2 0 .4-.1.6-.1 5.2-.6 10.5-.6 15.7-.1.2 0 .5 0 .7.1 16.8 2.1 30.3 25.8 32.7 45.4.6 5.8 1 11.4 1 17.1z" fill="#f4a045" fill-rule="nonzero"/><path d="m536.6 423.2c0 18.6-3.9 36.4-11.1 54.5-.2.6-.5 1.2-.8 1.9-7.2 17.2-17.5 34.4-30 44.5-12.9-10.4-23.4-28.3-30.7-46-.1-.1-.1-.2-.2-.4-7.2-18.1-11.1-35.9-11.1-54.5 0-5.7.4-11.3 1.1-17.1 2.4-19.4 15.6-42.8 32.1-45.3.2 0 .4-.1.6-.1 5.2-.6 10.5-.6 15.7-.1.2 0 .5 0 .7.1 16.8 2.1 30.3 25.8 32.7 45.4.6 5.8 1 11.4 1 17.1z" stroke="#601b23" stroke-linecap="round" stroke-linejoin="round" stroke-width="6"/><path d="m1000 526.2c-15.2 4.5-27.6 15.6-33.8 30-12-4.3-25-6.7-38.5-6.7-40 0-75.2 20.6-95.6 51.7-10.6-5-22.4-7.7-34.9-7.7-5.5 0-10.8.5-15.9 1.6 0-.5 0-1 0-1.6 0-25.5-18-46.8-41.9-51.9-9.2-31.5-38.2-54.6-72.7-54.6-28.7 0-53.7 16-66.5 39.5-8.9-8.3-20.8-13.5-33.9-13.5-7.5 0-14.6 1.7-21 4.6-7.8-12.1-14.7-24.8-20.6-38.2-14.6-33-22.7-69.8-22.7-108.4 0-3.5.1-6.9.2-10.4 1.7-44.7 14.2-86.6 35.1-123.2h-86.5c20.9 36.6 33.4 78.6 35.1 123.3.1 3.4.2 6.8.2 10.2 0 38-7.9 74.3-22.1 107.1-9.3 21.4-21.2 41.4-35.5 59.5-12.1-15-30.6-24.5-51.3-24.5-20.8 0-39.3 9.6-51.4 24.6-9.7-5.7-20.9-9-33-9-19.4 0-36.9 8.6-48.8 22.1-17.6-26.1-47.4-43.3-81.2-43.3-54 0-97.8 43.8-97.8 97.8v.9c-36.6 18.6-62.3 55.6-64.8 98.9h236 483.9 279.9z" fill="#fff" fill-rule="nonzero"/><path d="m374 207.8-32.6 12.7v-61.9l100.1-78.1v117.1l-24.2 12.7c-12.9-6.8-28.6-8.2-43.3-2.5z" fill="#c11a4d" fill-rule="nonzero"/><path d="m330.8 236.7c-10.2-14.8-16.1-32.3-16.1-51 0-23.7 9.3-45.4 24.8-62.1 15.5 16.7 24.9 38.4 25 62.1 0 18.8-5.9 36.2-16 51z" fill="#cf264d" fill-rule="nonzero"/><path d="m341.4 220.5 32.4-12.6c.4-8.6-.2-17.4-1.8-26.2-2.4-13.2-6.9-25.6-13.1-36.8l-17.5 13.7z" fill="#a5143a" fill-rule="nonzero" opacity=".72"/><path d="m345.6 175.9 96-74.8v-20.6l-100.2 78v62l4.2-1.6z" fill="#f4a15d" fill-rule="nonzero" opacity=".23"/><path d="m401.7 205c5.5.9 10.7 2.7 15.6 5.3l24.2-12.7v-117.1l-42.2 32.9c-2.1 12.7-3.1 26-3.1 39.7.1 18.1 2 35.6 5.5 51.9z" fill="#a5143a" fill-rule="nonzero" opacity=".72"/><path d="m374 207.8-32.6 12.7v-61.9l100.1-78.1v117.1l-24.2 12.7c-12.9-6.8-28.6-8.2-43.3-2.5z" stroke="#601b23" stroke-linecap="round" stroke-linejoin="round" stroke-width="6"/><path d="m330.8 236.7c-10.2-14.8-16.1-32.3-16.1-51 0-23.7 9.3-45.4 24.8-62.1 15.5 16.7 24.9 38.4 25 62.1 0 18.8-5.9 36.2-16 51z" fill="#cf264d" fill-rule="nonzero"/><path d="m338 123.6c1.2 1.3 2.4 2.7 3.5 4.1-10.4 16-16.4 34.8-16.5 54.8 0 19.8 3 38.3 13.2 54.3h-9.2c-10.1-14.8-16-32.3-16-51 .1-23.8 9.5-45.5 25-62.2z" fill="#f4a15d" fill-rule="nonzero" opacity=".23"/><path d="m338 123.6c.4.4.8.9 1.2 1.4-11.7 17.3-18.4 37.6-18.5 59.4 0 18.9 5.1 36.7 14 52.4h-5.7c-10.1-14.8-16-32.3-16-51 .1-23.8 9.5-45.5 25-62.2z" fill="#f4a15d" fill-rule="nonzero" opacity=".32"/><path d="m364.5 185.7c0-23.7-9.4-45.3-25-62.1-1.2 1.3-2.4 2.7-3.5 4.1 10.4 16 16.4 34.8 16.5 54.8 0 19.8-5.8 38.3-16 54.3h12c10.1-14.9 16-32.4 16-51.1z" fill="#a5143a" fill-rule="nonzero" opacity=".37"/><path d="m364.5 185.7c0-23.7-9.4-45.3-25-62.1-.4.4-.8.9-1.2 1.4 11.7 17.3 18.4 37.6 18.5 59.4 0 18.9-5.1 36.7-14 52.4h5.7c10.1-14.9 16-32.4 16-51.1z" fill="#a5143a" fill-rule="nonzero" opacity=".72"/><path d="m339.5 123.6c-1.2 1.3-2.4 2.7-3.5 4.1 10.4 16 16.4 34.8 16.5 54.8 0 19.8-5.8 38.3-16 54.3h12c10.1-14.8 16-32.3 16-51-.1-23.8-9.5-45.5-25-62.2z" fill="#a5143a" fill-rule="nonzero" opacity=".37"/><path d="m339.5 123.6c-.4.4-.8.9-1.2 1.4 11.7 17.3 18.4 37.6 18.5 59.4 0 18.9-5.1 36.7-14 52.4h5.7c10.1-14.8 16-32.3 16-51-.1-23.8-9.5-45.5-25-62.2z" fill="#a5143a" fill-rule="nonzero" opacity=".72"/><path d="m350.9 141.6c-3.7-6.5-8.1-12.5-13.2-18.1-5.1 5.5-9.5 11.6-13.2 18.1z" fill="#601b23" fill-rule="nonzero"/><path d="m330.8 236.7c-10.2-14.8-16.1-32.3-16.1-51 0-23.7 9.3-45.4 24.8-62.1 15.5 16.7 24.9 38.4 25 62.1 0 18.8-5.9 36.2-16 51z" stroke="#601b23" stroke-linecap="round" stroke-linejoin="round" stroke-width="6"/><path d="m460.7 313.9s-12.1 2.6-29.5 20c-6.3 6.3-16.2 19.1-23.5 28.8-3 4-9.4 2-9.5-3l-2.4-106.5c-.5-3 .3-6.1 2.2-8.4l26.2-32.6z" fill="#cf264d" fill-rule="nonzero"/><path d="m398 361.8c5.7-.8 10-5.7 10.1-11.5l1.1-99c-.5-3 .3-6.1 2.2-8.4l16.4-20.5-3.7-10.2-26.1 32.5c-1.9 2.4-2.7 5.4-2.2 8.4z" fill="#f4a15d" fill-rule="nonzero" opacity=".32"/><path d="m460.7 313.9-36.5-101.7-14.5 18.1c7.8 30 20.1 60.5 36.7 90.9 8.8-6.1 14.3-7.3 14.3-7.3z" fill="#a5143a" fill-rule="nonzero" opacity=".72"/><path d="m460.7 313.9s-12.1 2.6-29.5 20c-6.3 6.3-16.2 19.1-23.5 28.8-3 4-9.4 2-9.5-3l-2.4-106.5c-.5-3 .3-6.1 2.2-8.4l26.2-32.6z" stroke="#601b23" stroke-linecap="round" stroke-linejoin="round" stroke-width="6"/><path d="m321.3 223.5h32.9" stroke="#601b23" stroke-linecap="round" stroke-linejoin="round" stroke-width="4"/><g fill-rule="nonzero"><path d="m330.8 236.7c-10.2-14.8-16.1-32.3-16.1-51 0-23.7 9.3-45.4 24.8-62.1 15.5 16.7 24.9 38.4 25 62.1 0 18.8-5.9 36.2-16 51z" fill="#cf264d"/><path d="m330.8 236.7c-10.2-14.8-16.1-32.3-16.1-51 0-23.7 9.3-45.4 24.8-62.1 15.5 16.7 24.9 38.4 25 62.1 0 18.8-5.9 36.2-16 51z" fill="#cf264d"/><path d="m338 123.6c1.2 1.3 2.4 2.7 3.5 4.1-10.4 16-16.4 34.8-16.5 54.8 0 19.8 3 38.3 13.2 54.3h-9.2c-10.1-14.8-16-32.3-16-51 .1-23.8 9.5-45.5 25-62.2z" fill="#f4a15d" opacity=".23"/><path d="m338 123.6c.4.4.8.9 1.2 1.4-11.7 17.3-18.4 37.6-18.5 59.4 0 18.9 5.1 36.7 14 52.4h-5.7c-10.1-14.8-16-32.3-16-51 .1-23.8 9.5-45.5 25-62.2z" fill="#f4a15d" opacity=".32"/><path d="m364.5 185.7c0-23.7-9.4-45.3-25-62.1-1.2 1.3-2.4 2.7-3.5 4.1 10.4 16 16.4 34.8 16.5 54.8 0 19.8-5.8 38.3-16 54.3h12c10.1-14.9 16-32.4 16-51.1z" fill="#a5143a" opacity=".37"/><path d="m364.5 185.7c0-23.7-9.4-45.3-25-62.1-.4.4-.8.9-1.2 1.4 11.7 17.3 18.4 37.6 18.5 59.4 0 18.9-5.1 36.7-14 52.4h5.7c10.1-14.9 16-32.4 16-51.1z" fill="#a5143a" opacity=".72"/><path d="m339.5 123.6c-1.2 1.3-2.4 2.7-3.5 4.1 10.4 16 16.4 34.8 16.5 54.8 0 19.8-5.8 38.3-16 54.3h12c10.1-14.8 16-32.3 16-51-.1-23.8-9.5-45.5-25-62.2z" fill="#a5143a" opacity=".37"/><path d="m339.5 123.6c-.4.4-.8.9-1.2 1.4 11.7 17.3 18.4 37.6 18.5 59.4 0 18.9-5.1 36.7-14 52.4h5.7c10.1-14.8 16-32.3 16-51-.1-23.8-9.5-45.5-25-62.2z" fill="#a5143a" opacity=".72"/><path d="m352.7 141.6c-3.7-6.5-8.1-12.5-13.2-18.1-5.1 5.5-9.5 11.6-13.2 18.1z" fill="#601b23"/></g><path d="m330.8 236.7c-10.2-14.8-16.1-32.3-16.1-51 0-23.7 9.3-45.4 24.8-62.1 15.5 16.7 24.9 38.4 25 62.1 0 18.8-5.9 36.2-16 51z" stroke="#601b23" stroke-linecap="round" stroke-linejoin="round" stroke-width="6"/><path d="m321.3 223.5h32.9" stroke="#601b23" stroke-linecap="round" stroke-linejoin="round" stroke-width="4"/><path d="m609.5 207.8 32.6 12.7v-61.9l-100.1-78.1v117.1l24.2 12.7c12.9-6.8 28.6-8.2 43.3-2.5z" fill="#c11a4d" fill-rule="nonzero"/><path d="m642.1 220.5-32.4-12.6c-.4-8.6.2-17.4 1.8-26.2 2.4-13.2 6.9-25.6 13.1-36.8l17.5 13.7z" fill="#a5143a" fill-rule="nonzero" opacity=".72"/><path d="m638 175.9-96-74.8v-20.6l100.1 78v62l-4.1-1.6z" fill="#f4a15d" fill-rule="nonzero" opacity=".23"/><path d="m581.8 205c-5.5.9-10.7 2.7-15.6 5.3l-24.2-12.7v-117.1l42.2 32.9c2.1 12.7 3.1 26 3.1 39.7 0 18.1-1.9 35.6-5.5 51.9z" fill="#a5143a" fill-rule="nonzero" opacity=".72"/><path d="m609.5 207.8 32.6 12.7v-61.9l-100.1-78.1v117.1l24.2 12.7c12.9-6.8 28.6-8.2 43.3-2.5z" stroke="#601b23" stroke-linecap="round" stroke-linejoin="round" stroke-width="6"/><path d="m522.9 313.9s12.1 2.6 29.5 20c6.3 6.3 16.2 19.1 23.5 28.8 3 4 9.4 2 9.5-3l2.4-106.5c.5-3-.3-6.1-2.2-8.4l-26.2-32.6z" fill="#cf264d" fill-rule="nonzero"/><path d="m585.5 361.8c-5.7-.8-10-5.7-10.1-11.5l-1.1-99c.5-3-.3-6.1-2.2-8.4l-16.4-20.5 3.7-10.2 26.2 32.6c1.9 2.4 2.7 5.4 2.2 8.4z" fill="#a5143a" fill-rule="nonzero" opacity=".72"/><path d="m522.9 313.9 36.5-101.7 14.5 18.1c-7.8 30-20.1 60.5-36.7 90.9-8.8-6.1-14.3-7.3-14.3-7.3z" fill="#a5143a" fill-rule="nonzero" opacity=".72"/><path d="m522.9 313.9s12.1 2.6 29.5 20c6.3 6.3 16.2 19.1 23.5 28.8 3 4 9.4 2 9.5-3l2.4-106.5c.5-3-.3-6.1-2.2-8.4l-26.2-32.6z" stroke="#601b23" stroke-linecap="round" stroke-linejoin="round" stroke-width="6"/><path d="m522.4 371.1c1.1-11.9-.5-23.1-20.5-52.6-3.3-4.7-11.2-4.7-14.5 0-20 29.6-21.6 40.8-20.5 52.6.2 1.5 2.9 3.2 4.6 2.6 11.5-5.9 34.8-5.9 46.3 0 1.7.6 4.4-1 4.6-2.6z" fill="#4e8280" fill-rule="nonzero"/><g fill="#f4a15d" fill-rule="nonzero" opacity=".32"><path d="m11 57.1c-1.1-11.9.5-23.1 20.5-52.6.6-.9 1.4-1.6 2.2-2.1-3.8-2.5-9.6-1.8-12.3 2.1-20 29.6-21.6 40.8-20.5 52.6.2 1.5 2.9 3.2 4.6 2.6 1.7-.8 3.6-1.6 5.6-2.2 0-.1-.1-.2-.1-.4z" transform="translate(466 314)"/><path d="m.7.5c6.9.5 13.4 1.9 18.1 4.2 1.5.6 3.9-.8 4.5-2.2-6.6-1.9-14.8-2.6-22.6-2z" transform="translate(499 369)"/></g><path d="m.9 4.5c-.3-.4-.6-.7-.9-1 3.7-3.7 10.6-3.3 13.6 1 20 29.6 21.6 40.8 20.5 52.6-.2 1.5-2.9 3.2-4.6 2.6-2.3-1.2-5.1-2.1-8.1-2.8 1.1-11.8-.6-23-20.5-52.4z" fill="#37605d" fill-rule="nonzero" transform="translate(490 314)"/><path d="m522.4 371.1c1.1-11.9-.5-23.1-20.5-52.6-3.3-4.7-11.2-4.7-14.5 0-20 29.6-21.6 40.8-20.5 52.6.2 1.5 2.9 3.2 4.6 2.6 11.5-5.9 34.8-5.9 46.3 0 1.7.6 4.4-1 4.6-2.6z" stroke="#601b23" stroke-linecap="round" stroke-linejoin="round" stroke-width="6"/><path d="m517.2 335.2c47.1-77.1 64.2-152.8 53.6-215.9-9.2-54.8-38.8-94.3-76.2-119-37.4 24.7-67 64.2-76.2 119-10.6 63.1 6.6 138.8 53.6 215.9z" fill="#cf264d" fill-rule="nonzero"/><path d="m454.2 120.4c6-49.6 21.6-89 42.6-118.5-.7-.5-1.5-1-2.2-1.5-37.4 24.7-67 64.2-76.2 119-10.6 63.1 6.6 138.8 53.6 215.9h9.5c-26.1-77.1-34.9-151.2-27.3-214.9z" fill="#f4a15d" fill-rule="nonzero" opacity=".23"/><path d="m570.8 119.3c-9.1-54.4-38.3-93.7-75.4-118.4 6.9 11.1 15.7 27.1 23.1 47.4 13.5 36.9 15 67.3 15.8 86.4 3.6 85.9-29.3 180.9-36.2 200.6h19.1c47.1-77.2 64.2-152.9 53.6-216z" fill="#a5143a" fill-rule="nonzero" opacity=".37"/><path d="m570.8 119.3c-9.2-54.8-38.8-94.3-76.2-119-1 .6-1.9 1.3-2.9 1.9 14.2 11.1 25 23 33.2 34.4 73.6 102.4 3 255.7-6.7 276-.4-13.8-2.2-30.9-7.3-50-3.3-12.2-7.3-22.9-11.3-32-1.5 33.9-3 67.8-4.5 101.7h12.4c-.3 1-.6 1.9-1 2.9h10.5c47.3-77.1 64.4-152.8 53.8-215.9z" fill="#a5143a" fill-rule="nonzero" opacity=".72"/><path d="m431 136.7c1.4-16 6.6-68 38.7-110.7 5.1-6.7 12.7-15.8 12.1-16.3-.9-.8-18.5 15.1-31 32-15.7 21.1-27.2 47-32.3 77.6-10.6 63.1 6.6 138.8 53.6 215.9h4.1c-12.9-25.7-21.4-48.9-27.2-67.2-3.8-12.3-10.5-34.1-14.7-63.3-2.7-19.6-5.7-40.6-3.3-68z" fill="#f4a15d" fill-rule="nonzero" opacity=".32"/><circle cx="500" cy="130.1" r="27.2" style="stroke:#a5143a;stroke-width:6;fill:#a5143a;fill-rule:nonzero;opacity:.72;stroke-linecap:round;stroke-linejoin:round"/><path d="m517.2 335.2c47.1-77.1 64.2-152.8 53.6-215.9-9.2-54.8-38.8-94.3-76.2-119-37.4 24.7-67 64.2-76.2 119-10.6 63.1 6.6 138.8 53.6 215.9z" stroke="#601b23" stroke-linecap="round" stroke-linejoin="round" stroke-width="6"/><circle cx="494.6" cy="125.9" fill="#abcfd8" fill-rule="nonzero" r="27.2"/><circle cx="490.9" cy="124.4" fill="#e2f0f2" fill-rule="nonzero" opacity=".93" r="16.4"/><circle cx="494.6" cy="125.9" r="27.2" stroke="#601b23" stroke-linecap="round" stroke-linejoin="round" stroke-width="6"/><path d="m456.2 34.8c24.9-8.6 52.2-8.6 77.1.1-11.3-13.7-24.4-25.2-38.6-34.6-14.2 9.4-27.3 20.9-38.5 34.5z" fill="#601b23" fill-rule="nonzero"/><path d="m456.2 34.8c24.9-8.6 52.2-8.6 77.1.1-11.3-13.7-24.4-25.2-38.6-34.6-14.2 9.4-27.3 20.9-38.5 34.5z" stroke="#601b23" stroke-linecap="round" stroke-linejoin="round" stroke-width="6"/><path d="m494.6 382c1.1 0 2-1.2 2.1-2.8l7.5-122.4c.8-12.6-3.2-24.3-9.1-27.1-.4-.2-.8-.2-1.1 0-5.9 2.7-9.9 14.4-9.1 27.1l7.5 122.4c.2 1.6 1.2 2.8 2.2 2.8z" fill="#bc1d4e" fill-rule="nonzero"/><path d="m494.6 382c1.1 0 2-1.2 2.1-2.8l7.5-122.4c.8-12.6-3.2-24.3-9.1-27.1-.4-.2-.8-.2-1.1 0-5.9 2.7-9.9 14.4-9.1 27.1l7.5 122.4c.2 1.6 1.2 2.8 2.2 2.8z" fill="#a5143a" fill-rule="nonzero" opacity=".74"/><g fill="#f4a15d" fill-rule="nonzero" opacity=".53"><path d="m10.1.7c-5.9 2.7-9.9 14.4-9.1 27.1l7.5 122.4c.1 1.3.7 2.4 1.5 2.7v-152.2z" transform="translate(484 229)"/><path d="m.1.7h1.1c-.4-.2-.8-.2-1.1 0z" transform="translate(494 229)"/></g><path d="m494.6 382c1.1 0 2-1.2 2.1-2.8l7.5-122.4c.8-12.6-3.2-24.3-9.1-27.1-.4-.2-.8-.2-1.1 0-5.9 2.7-9.9 14.4-9.1 27.1l7.5 122.4c.2 1.6 1.2 2.8 2.2 2.8z" stroke="#601b23" stroke-linecap="round" stroke-linejoin="round" stroke-width="6"/><path d="m641.4 236.7c-10.2-14.8-16.1-32.3-16.1-51 0-23.7 9.3-45.4 24.8-62.1 15.5 16.7 24.9 38.4 25 62.1 0 18.8-5.9 36.2-16 51z" fill="#cf264d" fill-rule="nonzero"/><path d="m641.4 236.7c-10.2-14.8-16.1-32.3-16.1-51 0-23.7 9.3-45.4 24.8-62.1 15.5 16.7 24.9 38.4 25 62.1 0 18.8-5.9 36.2-16 51z" fill="#cf264d" fill-rule="nonzero"/><path d="m648.7 123.6c1.2 1.3 2.4 2.7 3.5 4.1-10.4 16-16.4 34.8-16.5 54.8 0 19.8 3 38.3 13.2 54.3h-9.2c-10.1-14.8-16-32.3-16-51 0-23.8 9.4-45.5 25-62.2z" fill="#f4a15d" fill-rule="nonzero" opacity=".23"/><path d="m648.7 123.6c.4.4.8.9 1.2 1.4-11.7 17.3-18.4 37.6-18.5 59.4 0 18.9 5.1 36.7 14 52.4h-5.7c-10.1-14.8-16-32.3-16-51 0-23.8 9.4-45.5 25-62.2z" fill="#f4a15d" fill-rule="nonzero" opacity=".32"/><path d="m675.1 185.7c0-23.7-9.4-45.3-25-62.1-1.2 1.3-2.4 2.7-3.5 4.1 10.4 16 16.4 34.8 16.5 54.8 0 19.8-5.8 38.3-16 54.3h12c10.1-14.9 16-32.4 16-51.1z" fill="#a5143a" fill-rule="nonzero" opacity=".37"/><path d="m675.1 185.7c0-23.7-9.4-45.3-25-62.1-.4.4-.8.9-1.2 1.4 11.7 17.3 18.4 37.6 18.5 59.4 0 18.9-5.1 36.7-14 52.4h5.7c10.1-14.9 16-32.4 16-51.1z" fill="#a5143a" fill-rule="nonzero" opacity=".72"/><path d="m650.1 123.6c-1.2 1.3-2.4 2.7-3.5 4.1 10.4 16 16.4 34.8 16.5 54.8 0 19.8-5.8 38.3-16 54.3h12c10.1-14.8 16-32.3 16-51 0-23.8-9.4-45.5-25-62.2z" fill="#a5143a" fill-rule="nonzero" opacity=".37"/><path d="m650.1 123.6c-.4.4-.8.9-1.2 1.4 11.7 17.3 18.4 37.6 18.5 59.4 0 18.9-5.1 36.7-14 52.4h5.7c10.1-14.8 16-32.3 16-51 0-23.8-9.4-45.5-25-62.2z" fill="#a5143a" fill-rule="nonzero" opacity=".72"/><path d="m663.4 141.6c-3.7-6.5-8.1-12.5-13.2-18.1-5.1 5.5-9.5 11.6-13.2 18.1z" fill="#601b23" fill-rule="nonzero"/><path d="m641.4 236.7c-10.2-14.8-16.1-32.3-16.1-51 0-23.7 9.3-45.4 24.8-62.1 15.5 16.7 24.9 38.4 25 62.1 0 18.8-5.9 36.2-16 51z" stroke="#601b23" stroke-linecap="round" stroke-linejoin="round" stroke-width="6"/><path d="m633.8 223.5h32.9" stroke="#601b23" stroke-linecap="round" stroke-linejoin="round" stroke-width="4"/><path d="m463.8 31.4s6.8-10.7 29.9-28.7c-10.7 14.5-12.8 23.6-13.5 24.3-6.8 1.3-16.4 4.4-16.4 4.4z" fill="#fff" fill-rule="nonzero" opacity=".41"/></g></svg>