
<svg version="1.1" id="Layer_1" xmlns="http://www.w3.org/2000/svg" x="0px" y="0px"
	 viewBox="0 0 1000 1000" style="enable-background:new 0 0 1000 1000;" xml:space="preserve">
<style type="text/css">
	.st0{fill:#7330C1;}
	.st1{opacity:0.34;fill:#6027A6;}
	.st2{opacity:0.51;fill:#6027A6;}
	.st3{fill:#6027A6;}
	.st4{fill:#FDB130;}
	.st5{opacity:0.32;fill:#FFFFFF;}
	.st6{opacity:0.16;fill:#FFFFFF;}
	.st7{opacity:0.44;fill:#FFFFFF;}
	.st8{opacity:0.39;}
	.st9{fill:#FFFFFF;}
	.st10{opacity:0.11;}
	.st11{fill:#414042;}
	.st12{fill:none;stroke:#2A2A2A;stroke-width:6;stroke-linecap:round;stroke-linejoin:round;stroke-miterlimit:10;}
	.st13{fill:#2A2A2A;}
	.st14{opacity:0.41;fill:#2A2A2A;}
	.st15{fill:#AAD543;}
	.st16{opacity:0.49;}
	.st17{fill:#8EC42B;}
	.st18{fill:#C6E65B;}
	.st19{fill:#E9342B;}
	.st20{fill:#EE368C;}
	.st21{fill:#E41B64;}
	.st22{opacity:0.39;fill:#FFFFFB;}
	.st23{opacity:0.49;fill:#AAD543;}
	.st24{opacity:0.29;fill:#E41B64;}
	.st25{fill:none;stroke:#F4CD39;stroke-width:2;stroke-linecap:round;stroke-linejoin:round;stroke-miterlimit:10;}
	.st26{opacity:0.46;fill:none;stroke:#F4CD39;stroke-width:2;stroke-linecap:round;stroke-linejoin:round;stroke-miterlimit:10;}
	.st27{fill:none;stroke:#FDB130;stroke-width:2;stroke-linecap:round;stroke-linejoin:round;stroke-miterlimit:10;}
	.st28{fill:none;stroke:#E03F8D;stroke-width:2;stroke-linecap:round;stroke-linejoin:round;stroke-miterlimit:10;}
	.st29{fill:none;stroke:#1DB7C2;stroke-width:2;stroke-linecap:round;stroke-linejoin:round;stroke-miterlimit:10;}
	.st30{fill:none;stroke:#9E3FB7;stroke-width:2;stroke-linecap:round;stroke-linejoin:round;stroke-miterlimit:10;}
	.st31{opacity:0.6;}
	.st32{fill:none;stroke:#FFFFFF;stroke-width:2;stroke-linecap:round;stroke-linejoin:round;stroke-miterlimit:10;}
	.st33{opacity:0.4;}
	.st34{opacity:0.53;}
	.st35{fill:#EEF2F4;}
</style>
<g id="XMLID_5_">
	<g id="XMLID_67_">
		<path class="st15" d="M440.7,555.6c-5.1-0.4-10.2-0.8-15.3-1.2c2.6-19.6,1.4-39.3-3.2-58.1c3.6-1,7.2-2.1,10.8-3.2
			C439.4,512.9,442.1,534.1,440.7,555.6z"/>
	</g>
	<g id="XMLID_65_" class="st16">
		<path class="st15" d="M440.7,555.6c-5.1-0.4-10.2-0.8-15.3-1.2c2.6-19.6,1.4-39.3-3.2-58.1c3.6-1,7.2-2.1,10.8-3.2
			C439.4,512.9,442.1,534.1,440.7,555.6z"/>
	</g>
	<g id="XMLID_63_">
		<path class="st12" d="M440.7,555.6c-5.1-0.4-10.2-0.8-15.3-1.2c2.6-19.6,1.4-39.3-3.2-58.1c3.6-1,7.2-2.1,10.8-3.2
			C439.4,512.9,442.1,534.1,440.7,555.6z"/>
	</g>
	<path id="XMLID_62_" class="st9" d="M676.2,649.7l-143.6-15.2c-22.5-2.2-39.6-21.1-39.6-43.7l-2.3-18.4c-3.2-27.1-23.4-36-43.7-36
		c-29,0-33.5,19.7-34.1,56.9c2.1,0.9,4.3,1,7.8,1.2c0.9,11.3-3.8,21.5-7.7,28.1c2.5,37.9,26,65.7,59.8,65.7h216.8
		c5.4,0,14.2-0.8,21.7-1.6c7.5-0.8,11.3-9.5,6.7-15.5C710.2,661.1,702.2,654.3,676.2,649.7z"/>
	<path id="XMLID_61_" class="st15" d="M676.2,649.7l-143.6-15.2c-22.5-2.2-39.6-21.1-39.6-43.7l-2.3-18.4c-3.2-27.1-23.4-36-43.7-36
		c-29,0-33.5,19.7-34.1,56.9c2.1,0.9,4.3,1,7.8,1.2c0.9,11.3-3.8,21.5-7.7,28.1c2.5,37.9,26,65.7,59.8,65.7h216.8
		c5.4,0,14.2-0.8,21.7-1.6c7.5-0.8,11.3-9.5,6.7-15.5C710.2,661.1,702.2,654.3,676.2,649.7z"/>
	<path id="XMLID_60_" class="st17" d="M716.5,669.3c0,9.3-19,10.4-24.1,10.4l-214.6-3.6c-21.3,0-36-5.6-49.9-22.6
		c-3.8-4.7-11.6-19.6-13.9-28.1c3.8,42.3,32.2,63.1,58.7,63.1h216.8c5.4,0,12-0.8,19.5-1.6C715.7,686.1,722.9,677.7,716.5,669.3z"/>
	<path id="XMLID_59_" class="st18" d="M718.8,668.4c-7.7-10.1-16.5-14.1-42.3-18.6c-0.1,0-0.2,0-0.4-0.1l-143.4-15.2
		c-22.4-2.1-39.5-20.9-39.6-43.4c0-0.2,0-0.3,0-0.5l-2.3-18.2c-3.2-27.1-23.4-36-43.7-36c-3.3,0-6.3,0.3-9,0.8
		c-5.7,1.1-5.4,1.7-11.1,4.5c-6.7,3.4-12.3,25.6-12.3,25.7c0.8,18.4,0.8-17.3,19.7-22.3c21.8-5.8,41.9,1.8,45.6,27.8
		c0,0,2.5,24.3,3.4,30.4c3.3,22.2,21.5,37.9,43.9,40.1L668.4,660c0.1,0-3.8-4-3.7-4c25.8,4.6,52.5,7.5,54.1,20.1
		c0,0.2-2.8,4.4-2.7,4.6c1.2,1.2,1.1,1.5,2.7-1.6C720.5,675.9,721.2,671.6,718.8,668.4z"/>
	<path id="XMLID_58_" class="st12" d="M676.2,649.7l-143.6-15.2c-22.5-2.2-39.6-21.1-39.6-43.7l-2.3-18.4c-3.2-27.1-23.4-36-43.7-36
		c-29,0-33.5,19.7-34.1,56.9c2.1,0.9,4.3,1,7.8,1.2c0.9,11.3-3.8,21.5-7.7,28.1c2.5,37.9,26,65.7,59.8,65.7h216.8
		c5.4,0,17.5-1.1,23.7-5.3c7.6-5.2,7.8-12.8,2.5-18.1C708.3,657.4,702.2,654.3,676.2,649.7z"/>
	<path id="XMLID_57_" class="st13" d="M412.9,593.4c0,0,6.9,3.9,30.2-2.4c0.2,8.6-12.8,29.6-30,31.7c1-1.8,7.1-13.5,7.6-21.7
		c0-1.5,0.6-5.4,0.1-6.4C415.6,594.6,412.9,593.4,412.9,593.4z"/>
	<path id="XMLID_56_" class="st12" d="M412.9,593.4c0,0,6.9,3.9,30.2-2.4c0.2,8.6-12.8,29.6-30,31.7c1-1.8,7.1-13.5,7.6-21.7
		c0-1.5,0.6-5.4,0.1-6.4C415.6,594.6,412.9,593.4,412.9,593.4z"/>
	<path id="XMLID_55_" class="st12" d="M440.3,585.8c0.3,0.3,5.1,4.9,6.4,9.7"/>
	<path id="XMLID_54_" class="st15" d="M472.2,556.2c-5.4-0.4-10.7-0.9-16.1-1.3c3.4-27.4,1.5-54.9-5.2-81c3.8-1.1,7.6-2.2,11.4-3.3
		C470.7,497.7,474.3,526.7,472.2,556.2z"/>
	<path id="XMLID_53_" class="st17" d="M462.3,470.6c-2.5,0.7-4.9,1.4-7.4,2.2c3.4,9.1,2.4,32.5,4.1,32.3c1.7-0.2,5.2-1.3,5.6,0.3
		c3.1,14.5,4.8,30.1,4.8,48.4c2.4,0.2,0.4,2.3,2.8,2.5C474.3,526.7,470.7,497.7,462.3,470.6z"/>
	<path id="XMLID_52_" class="st12" d="M457,546.2c2-24.5-0.1-48.9-6.1-72.2c3.8-1.1,7.6-2.2,11.4-3.3c8.5,27.1,12,56.1,9.9,85.6"/>
	<g id="XMLID_44_">
		<g id="XMLID_49_">
			<circle id="XMLID_51_" class="st15" cx="422.5" cy="480.5" r="24.3"/>
			<circle id="XMLID_50_" class="st12" cx="422.5" cy="480.5" r="24.3"/>
		</g>
		<g id="XMLID_45_">
			<circle id="XMLID_48_" class="st9" cx="419.9" cy="484.4" r="19.9"/>
			<circle id="XMLID_47_" class="st13" cx="414.6" cy="487.3" r="7.4"/>
			<circle id="XMLID_46_" class="st12" cx="419.9" cy="484.4" r="19.9"/>
		</g>
	</g>
	<g id="XMLID_36_">
		<g id="XMLID_41_">
			<circle id="XMLID_43_" class="st15" cx="461.5" cy="463.6" r="32.8"/>
			<circle id="XMLID_42_" class="st12" cx="461.5" cy="463.6" r="32.8"/>
		</g>
		<g id="XMLID_37_">
			<circle id="XMLID_40_" class="st9" cx="457.9" cy="468.8" r="26.9"/>
			<circle id="XMLID_39_" class="st13" cx="450.7" cy="472.7" r="9.9"/>
			<circle id="XMLID_38_" class="st12" cx="457.9" cy="468.8" r="26.9"/>
		</g>
	</g>
	<path id="XMLID_35_" class="st19" d="M612.2,624.5"/>
	<path id="XMLID_34_" class="st20" d="M543.8,653.4c-15.9-2.2-31.4-28.1-31.4-62.5c0-54.8,42.7-95.3,95.3-95.3S703,538.3,703,591
		s-42.7,95.3-95.3,95.3c-26.3,0-63.8-12.1-70-51.4c-6.2-39.3,18.3-76.6,61.3-79.1c27.9-1.6,53.2,21.2,53.2,49.1
		s-23.3,48.7-44.5,48.7c-21,0-32.2-13-32.2-28.6s10.6-26.2,26.2-26.2c10.4,0,15.8,9.9,15.4,17.5"/>
	<path id="XMLID_33_" class="st21" d="M586.7,648.3c0,0,41.6,12,65.2-37.7c-6.4,19-8.6,29.1-26.5,38.5
		C604.5,653.5,606.3,655.7,586.7,648.3z"/>
	<path id="XMLID_25_" class="st21" d="M679.2,528.7c11.7,15.8,19.5,31.3,20.9,47.8c5.2,63.3-56.4,106.8-106.9,101.5
		c-21.5-2.2-34-10.5-49.3-24.6l-16.6-11.3c-5-0.7-1.8-5.5-6.3-10.3c6,12.4,14.4,20.4,22.9,21.5l0,0c13.1,24.7,42.3,32.9,63.9,32.9
		c52.6,0,95.3-42.7,95.3-95.3C703,568.8,695.8,545.3,679.2,528.7z"/>
	<path id="XMLID_24_" class="st22" d="M517.8,599.6c0-54.8,42.7-95.3,95.3-95.3c32.1,0,60.6,15.9,77.8,40.3
		c-16.3-29.2-47.5-48.9-83.3-48.9c-52.6,0-95.3,40.5-95.3,95.3c0,21.8,6.2,40.1,14.8,51.2C521.5,631.2,517.8,616.4,517.8,599.6z"/>
	<path id="XMLID_23_" class="st22" d="M545.2,656c-0.5-0.8-1-1.7-1.5-2.6l0.5-0.2c-0.9-2.9-1.6-5.9-2.1-9.1
		c-6.2-39.3,18.3-76.6,61.3-79.1c18.9-1.1,36.6,9,46,24.3c-7.2-20.3-28-34.8-50.5-33.5c-43,2.4-67.5,39.8-61.3,79.1
		c1.1,7,3.2,13.2,6.1,18.6"/>
	<path id="XMLID_229_" class="st22" d="M577.6,636.3c-1.5-3.5-2.2-7.3-2.2-11.3c0-15.6,10.6-26.2,26.2-26.2c7.3,0,12.1,2.9,14.2,8.4
		c-2.4-2-7-3.6-10.8-3.6c-20,0-26.4,14.6-26.4,30.3c0,1,0.2,1.5,0.3,2.4H577.6z"/>
	<path id="XMLID_228_" class="st12" d="M543.8,653.4c-15.9-2.2-31.4-28.1-31.4-62.5c0-54.8,42.7-95.3,95.3-95.3S703,538.3,703,591
		s-42.7,95.3-95.3,95.3c-26.3,0-63.8-12.1-70-51.4c-6.2-39.3,18.3-76.6,61.3-79.1c27.9-1.6,53.2,21.2,53.2,49.1
		s-23.3,48.7-44.5,48.7c-21,0-32.2-13-32.2-28.6s10.6-27.3,26.2-26.2c14.2,1,18.9,13.6,15.4,19.1"/>
	<g id="XMLID_18_">
		
			<ellipse id="XMLID_21_" transform="matrix(0.9519 -0.3063 0.3063 0.9519 -150.2173 168.3692)" class="st23" cx="461.4" cy="562.9" rx="2.9" ry="4.8"/>
		
			<ellipse id="XMLID_20_" transform="matrix(0.9519 -0.3063 0.3063 0.9519 -155.5348 171.0497)" class="st23" cx="467.3" cy="581.1" rx="2.9" ry="4.8"/>
		<g id="XMLID_223_">
			
				<ellipse id="XMLID_19_" transform="matrix(0.9519 -0.3063 0.3063 0.9519 -153.3765 168.7166)" class="st23" cx="460.9" cy="573.1" rx="2.9" ry="4.8"/>
			
				<ellipse id="XMLID_224_" transform="matrix(0.9519 -0.3063 0.3063 0.9519 -152.3756 170.7023)" class="st23" cx="467.8" cy="570.9" rx="2.9" ry="4.8"/>
		</g>
	</g>
	<line id="XMLID_17_" class="st12" x1="790.6" y1="689.5" x2="792.1" y2="689.5"/>
	<line id="XMLID_16_" class="st12" x1="754.2" y1="689.5" x2="780" y2="689.5"/>
	<line id="XMLID_15_" class="st12" x1="738.4" y1="689.5" x2="745.1" y2="689.5"/>
	<line id="XMLID_14_" class="st12" x1="422.1" y1="689.5" x2="729.4" y2="689.5"/>
	<line id="XMLID_13_" class="st12" x1="400.7" y1="689.5" x2="408.6" y2="689.5"/>
	<line id="XMLID_12_" class="st12" x1="365" y1="689.5" x2="386.9" y2="689.5"/>
	<g>
		<circle id="XMLID_32_" class="st24" cx="642.2" cy="589.5" r="7.7"/>
		<circle id="XMLID_31_" class="st24" cx="672.9" cy="532.8" r="8.5"/>
		<circle id="XMLID_30_" class="st24" cx="546.8" cy="648.3" r="4.4"/>
		<circle id="XMLID_29_" class="st24" cx="567.4" cy="627.7" r="3.2"/>
		<circle id="XMLID_28_" class="st24" cx="525.5" cy="595.1" r="2.2"/>
		<circle id="XMLID_27_" class="st24" cx="537.7" cy="572.1" r="1"/>
		<circle id="XMLID_26_" class="st24" cx="583.4" cy="577.9" r="3.2"/>
		<circle id="XMLID_11_" class="st24" cx="556.7" cy="536.9" r="4.1"/>
		<circle id="XMLID_10_" class="st24" cx="632.4" cy="554.1" r="4.1"/>
		<circle id="XMLID_9_" class="st24" cx="607.7" cy="513.4" r="5.9"/>
		<circle id="XMLID_8_" class="st24" cx="664.4" cy="604.7" r="5.9"/>
		<circle id="XMLID_7_" class="st24" cx="686" cy="570.9" r="4.8"/>
		<circle id="XMLID_6_" class="st24" cx="602.2" cy="666.3" r="3.6"/>
		<circle id="XMLID_202_" class="st24" cx="647.7" cy="653.7" r="1.8"/>
	</g>
</g>
<g>
	<circle id="XMLID_200_" class="st25" cx="745.1" cy="545.8" r="3.3"/>
	<circle id="XMLID_199_" class="st26" cx="947.3" cy="494.6" r="3.3"/>
	<circle id="XMLID_198_" class="st26" cx="349.2" cy="159.4" r="3.3"/>
	<circle id="XMLID_197_" class="st27" cx="665.3" cy="357.8" r="5"/>
	<circle id="XMLID_196_" class="st28" cx="115.7" cy="594.6" r="3.1"/>
	<circle id="XMLID_195_" class="st29" cx="556.7" cy="462.7" r="4"/>
	<circle id="XMLID_194_" class="st27" cx="440.8" cy="376.7" r="3.3"/>
	<circle id="XMLID_193_" class="st29" cx="911.1" cy="604.7" r="4"/>
	<circle id="XMLID_192_" class="st27" cx="218" cy="407.5" r="2.1"/>
	<circle id="XMLID_191_" class="st30" cx="70.6" cy="468.8" r="2.1"/>
	<g id="XMLID_188_">
		<line id="XMLID_190_" class="st30" x1="835.2" y1="521.7" x2="842.5" y2="521.7"/>
		<line id="XMLID_189_" class="st30" x1="838.8" y1="518.1" x2="838.8" y2="525.4"/>
	</g>
	<g id="XMLID_185_" class="st31">
		<line id="XMLID_187_" class="st30" x1="763.4" y1="195.5" x2="770.8" y2="195.5"/>
		<line id="XMLID_186_" class="st30" x1="767.1" y1="191.8" x2="767.1" y2="199.2"/>
	</g>
	<g id="XMLID_182_">
		<line id="XMLID_184_" class="st28" x1="697.3" y1="439.1" x2="703" y2="439.1"/>
		<line id="XMLID_183_" class="st28" x1="700.2" y1="436.2" x2="700.2" y2="441.9"/>
	</g>
	<g id="XMLID_179_">
		<line id="XMLID_181_" class="st28" x1="481.9" y1="259.5" x2="487.6" y2="259.5"/>
		<line id="XMLID_180_" class="st28" x1="484.8" y1="256.7" x2="484.8" y2="262.3"/>
	</g>
	<g id="XMLID_170_">
		<line id="XMLID_4_" class="st28" x1="270.7" y1="445.8" x2="278.5" y2="445.8"/>
		<line id="XMLID_3_" class="st28" x1="274.6" y1="441.9" x2="274.6" y2="449.6"/>
	</g>
	<g id="XMLID_167_">
		<line id="XMLID_169_" class="st29" x1="232.9" y1="557.7" x2="243.2" y2="557.7"/>
		<line id="XMLID_168_" class="st29" x1="238" y1="552.5" x2="238" y2="562.9"/>
	</g>
	<g id="XMLID_165_">
		<path class="st32" d="M319.1,501.8c1.1-1.5,2.7-0.4,3.8-1.9c1.1-1.5-0.5-2.7,0.6-4.2c1.1-1.5,2.7-0.4,3.8-1.9
			c1.1-1.5-0.5-2.7,0.6-4.3c1.1-1.5,2.7-0.4,3.8-1.9"/>
	</g>
	<g id="XMLID_163_" class="st33">
		<path class="st32" d="M103.3,546.2c-0.6-1.8,1.2-2.5,0.6-4.2c-0.6-1.8-2.5-1.1-3.2-2.9c-0.6-1.8,1.2-2.5,0.6-4.2
			c-0.6-1.8-2.5-1.1-3.2-2.9c-0.6-1.8,1.2-2.5,0.6-4.2"/>
	</g>
	<g id="XMLID_161_">
		<path class="st32" d="M799.3,447.1c-1.7-0.9-0.8-2.6-2.5-3.5c-1.7-0.9-2.6,0.9-4.3,0.1c-1.7-0.9-0.8-2.6-2.5-3.5
			c-1.7-0.9-2.6,0.9-4.3,0.1c-1.7-0.9-0.8-2.6-2.5-3.5"/>
	</g>
	<g id="XMLID_159_" class="st34">
		<path class="st29" d="M349.7,594.7c-1.2,0.7-2.2-1-3.4-0.3c-1.2,0.7-0.2,2.4-1.3,3.1c-1.2,0.7-2.2-1-3.4-0.3
			c-1.2,0.7-0.2,2.4-1.3,3.1s-2.2-1-3.4-0.3"/>
	</g>
	<g id="XMLID_155_">
		<path class="st30" d="M886.6,408.6c1.8-0.6,2.4,1.4,4.2,0.8c1.8-0.6,1.2-2.5,3-3c1.8-0.6,2.4,1.4,4.2,0.8c1.8-0.6,1.2-2.5,3-3
			s2.4,1.4,4.2,0.8"/>
	</g>
	<g id="XMLID_2_">
		<path class="st30" d="M554.9,362.4c1.8-0.6,2.4,1.4,4.2,0.8c1.8-0.6,1.2-2.5,3-3c1.8-0.6,2.4,1.4,4.2,0.8c1.8-0.6,1.2-2.5,3-3
			s2.4,1.4,4.2,0.8"/>
	</g>
</g>
</svg>
