<svg height="266" viewBox="0 0 434 266" width="434" xmlns="http://www.w3.org/2000/svg"><g fill="none" fill-rule="evenodd" transform="translate(3 3)"><path d="m75.7 125.6c-5.1-.4-10.2-.8-15.3-1.2 2.6-19.6 1.4-39.3-3.2-58.1 3.6-1 7.2-2.1 10.8-3.2 6.4 19.8 9.1 41 7.7 62.5z" fill="#aad543" fill-rule="nonzero"/><path d="m75.7 125.6c-5.1-.4-10.2-.8-15.3-1.2 2.6-19.6 1.4-39.3-3.2-58.1 3.6-1 7.2-2.1 10.8-3.2 6.4 19.8 9.1 41 7.7 62.5z" fill="#aad543" fill-rule="nonzero" opacity=".49"/><path d="m75.7 125.6c-5.1-.4-10.2-.8-15.3-1.2 2.6-19.6 1.4-39.3-3.2-58.1 3.6-1 7.2-2.1 10.8-3.2 6.4 19.8 9.1 41 7.7 62.5z" stroke="#2a2a2a" stroke-linecap="round" stroke-linejoin="round" stroke-width="6"/><path d="m311.2 219.7-143.6-15.2c-22.5-2.2-39.6-21.1-39.6-43.7l-2.3-18.4c-3.2-27.1-23.4-36-43.7-36-29 0-33.5 19.7-34.1 56.9 2.1.9 4.3 1 7.8 1.2.9 11.3-3.8 21.5-7.7 28.1 2.5 37.9 26 65.7 59.8 65.7h216.8c5.4 0 14.2-.8 21.7-1.6s11.3-9.5 6.7-15.5c-7.8-10.1-15.8-16.9-41.8-21.5z" fill="#fff" fill-rule="nonzero"/><path d="m311.2 219.7-143.6-15.2c-22.5-2.2-39.6-21.1-39.6-43.7l-2.3-18.4c-3.2-27.1-23.4-36-43.7-36-29 0-33.5 19.7-34.1 56.9 2.1.9 4.3 1 7.8 1.2.9 11.3-3.8 21.5-7.7 28.1 2.5 37.9 26 65.7 59.8 65.7h216.8c5.4 0 14.2-.8 21.7-1.6s11.3-9.5 6.7-15.5c-7.8-10.1-15.8-16.9-41.8-21.5z" fill="#aad543" fill-rule="nonzero"/><path d="m351.5 239.3c0 9.3-19 10.4-24.1 10.4l-214.6-3.6c-21.3 0-36-5.6-49.9-22.6-3.8-4.7-11.6-19.6-13.9-28.1 3.8 42.3 32.2 63.1 58.7 63.1h216.8c5.4 0 12-.8 19.5-1.6 6.7-.8 13.9-9.2 7.5-17.6z" fill="#8ec42b" fill-rule="nonzero"/><path d="m353.8 238.4c-7.7-10.1-16.5-14.1-42.3-18.6-.1 0-.2 0-.4-.1l-143.4-15.2c-22.4-2.1-39.5-20.9-39.6-43.4 0-.2 0-.3 0-.5l-2.3-18.2c-3.2-27.1-23.4-36-43.7-36-3.3 0-6.3.3-9 .8-5.7 1.1-5.4 1.7-11.1 4.5-6.7 3.4-12.3 25.6-12.3 25.7.8 18.4.8-17.3 19.7-22.3 21.8-5.8 41.9 1.8 45.6 27.8 0 0 2.5 24.3 3.4 30.4 3.3 22.2 21.5 37.9 43.9 40.1l141.1 16.6c.1 0-3.8-4-3.7-4 25.8 4.6 52.5 7.5 54.1 20.1 0 .2-2.8 4.4-2.7 4.6 1.2 1.2 1.1 1.5 2.7-1.6 1.7-3.2 2.4-7.5 0-10.7z" fill="#c6e65b" fill-rule="nonzero"/><path d="m311.2 219.7-143.6-15.2c-22.5-2.2-39.6-21.1-39.6-43.7l-2.3-18.4c-3.2-27.1-23.4-36-43.7-36-29 0-33.5 19.7-34.1 56.9 2.1.9 4.3 1 7.8 1.2.9 11.3-3.8 21.5-7.7 28.1 2.5 37.9 26 65.7 59.8 65.7h216.8c5.4 0 17.5-1.1 23.7-5.3 7.6-5.2 7.8-12.8 2.5-18.1-7.5-7.5-13.6-10.6-39.6-15.2z" stroke="#2a2a2a" stroke-linecap="round" stroke-linejoin="round" stroke-width="6"/><path d="m47.9 163.4s6.9 3.9 30.2-2.4c.2 8.6-12.8 29.6-30 31.7 1-1.8 7.1-13.5 7.6-21.7 0-1.5.6-5.4.1-6.4-5.2 0-7.9-1.2-7.9-1.2z" fill="#2a2a2a" fill-rule="nonzero"/><path d="m47.9 163.4s6.9 3.9 30.2-2.4c.2 8.6-12.8 29.6-30 31.7 1-1.8 7.1-13.5 7.6-21.7 0-1.5.6-5.4.1-6.4-5.2 0-7.9-1.2-7.9-1.2z" stroke="#2a2a2a" stroke-linecap="round" stroke-linejoin="round" stroke-width="6"/><path d="m75.3 155.8c.3.3 5.1 4.9 6.4 9.7" stroke="#2a2a2a" stroke-linecap="round" stroke-linejoin="round" stroke-width="6"/><path d="m107.2 126.2c-5.4-.4-10.7-.9-16.1-1.3 3.4-27.4 1.5-54.9-5.2-81l11.4-3.3c8.4 27.1 12 56.1 9.9 85.6z" fill="#aad543" fill-rule="nonzero"/><path d="m97.3 40.6c-2.5.7-4.9 1.4-7.4 2.2 3.4 9.1 2.4 32.5 4.1 32.3s5.2-1.3 5.6.3c3.1 14.5 4.8 30.1 4.8 48.4 2.4.2.4 2.3 2.8 2.5 2.1-29.6-1.5-58.6-9.9-85.7z" fill="#8ec42b" fill-rule="nonzero"/><path d="m92 116.2c2-24.5-.1-48.9-6.1-72.2 3.8-1.1 7.6-2.2 11.4-3.3 8.5 27.1 12 56.1 9.9 85.6" stroke="#2a2a2a" stroke-linecap="round" stroke-linejoin="round" stroke-width="6"/><circle cx="57.5" cy="50.5" fill="#aad543" fill-rule="nonzero" r="24.3"/><circle cx="57.5" cy="50.5" r="24.3" stroke="#2a2a2a" stroke-linecap="round" stroke-linejoin="round" stroke-width="6"/><circle cx="54.9" cy="54.4" fill="#fff" fill-rule="nonzero" r="19.9"/><circle cx="49.6" cy="57.3" fill="#2a2a2a" fill-rule="nonzero" r="7.4"/><circle cx="54.9" cy="54.4" r="19.9" stroke="#2a2a2a" stroke-linecap="round" stroke-linejoin="round" stroke-width="6"/><circle cx="96.5" cy="33.6" fill="#aad543" fill-rule="nonzero" r="32.8"/><circle cx="96.5" cy="33.6" r="32.8" stroke="#2a2a2a" stroke-linecap="round" stroke-linejoin="round" stroke-width="6"/><circle cx="92.9" cy="38.8" fill="#fff" fill-rule="nonzero" r="26.9"/><circle cx="85.7" cy="42.7" fill="#2a2a2a" fill-rule="nonzero" r="9.9"/><circle cx="92.9" cy="38.8" r="26.9" stroke="#2a2a2a" stroke-linecap="round" stroke-linejoin="round" stroke-width="6"/><g fill-rule="nonzero" transform="translate(147 65)"><path d="m31.8 158.4c-15.9-2.2-31.4-28.1-31.4-62.5 0-54.8 42.7-95.3 95.3-95.3s95.3 42.7 95.3 95.4-42.7 95.3-95.3 95.3c-26.3 0-63.8-12.1-70-51.4s18.3-76.6 61.3-79.1c27.9-1.6 53.2 21.2 53.2 49.1s-23.3 48.7-44.5 48.7c-21 0-32.2-13-32.2-28.6s10.6-26.2 26.2-26.2c10.4 0 15.8 9.9 15.4 17.5" fill="#ee368c"/><path d="m74.7 153.3s41.6 12 65.2-37.7c-6.4 19-8.6 29.1-26.5 38.5-20.9 4.4-19.1 6.6-38.7-.8z" fill="#e41b64"/><path d="m167.2 33.7c11.7 15.8 19.5 31.3 20.9 47.8 5.2 63.3-56.4 106.8-106.9 101.5-21.5-2.2-34-10.5-49.3-24.6l-16.6-11.3c-5-.7-1.8-5.5-6.3-10.3 6 12.4 14.4 20.4 22.9 21.5 13.1 24.7 42.3 32.9 63.9 32.9 52.6 0 95.3-42.7 95.3-95.3-.1-22.1-7.3-45.6-23.9-62.2z" fill="#e41b64"/><g fill="#fffffb"><path d="m5.8 104.6c0-54.8 42.7-95.3 95.3-95.3 32.1 0 60.6 15.9 77.8 40.3-16.3-29.2-47.5-48.9-83.3-48.9-52.6 0-95.3 40.5-95.3 95.3 0 21.8 6.2 40.1 14.8 51.2-5.6-11-9.3-25.8-9.3-42.6z" opacity=".39"/><path d="m33.2 161c-.5-.8-1-1.7-1.5-2.6l.5-.2c-.9-2.9-1.6-5.9-2.1-9.1-6.2-39.3 18.3-76.6 61.3-79.1 18.9-1.1 36.6 9 46 24.3-7.2-20.3-28-34.8-50.5-33.5-43 2.4-67.5 39.8-61.3 79.1 1.1 7 3.2 13.2 6.1 18.6" opacity=".39"/><path d="m65.6 141.3c-1.5-3.5-2.2-7.3-2.2-11.3 0-15.6 10.6-26.2 26.2-26.2 7.3 0 12.1 2.9 14.2 8.4-2.4-2-7-3.6-10.8-3.6-20 0-26.4 14.6-26.4 30.3 0 1 .2 1.5.3 2.4z" opacity=".39"/></g></g><path d="m178.8 223.4c-15.9-2.2-31.4-28.1-31.4-62.5 0-54.8 42.7-95.3 95.3-95.3s95.3 42.7 95.3 95.4-42.7 95.3-95.3 95.3c-26.3 0-63.8-12.1-70-51.4s18.3-76.6 61.3-79.1c27.9-1.6 53.2 21.2 53.2 49.1s-23.3 48.7-44.5 48.7c-21 0-32.2-13-32.2-28.6s10.6-27.3 26.2-26.2c14.2 1 18.9 13.6 15.4 19.1" stroke="#2a2a2a" stroke-linecap="round" stroke-linejoin="round" stroke-width="6"/><g fill="#aad543" fill-rule="nonzero" opacity=".49" transform="translate(91 127)"><ellipse cx="5.40563" cy="5.86689" rx="2.899903" ry="4.79984" transform="matrix(.95193175 -.30631022 .30631022 .95193175 -1.537249 1.937811)"/><ellipse cx="11.279" cy="24.0648" rx="2.899903" ry="4.79984" transform="matrix(.95193175 -.30631022 .30631022 .95193175 -6.829132 4.611626)"/><ellipse cx="4.89474" cy="16.07682" rx="2.899903" ry="4.79984" transform="matrix(.95193175 -.30631022 .30631022 .95193175 -4.689213 2.272094)"/><ellipse cx="11.78989" cy="13.85487" rx="2.899903" ry="4.79984" transform="matrix(.95193175 -.30631022 .30631022 .95193175 -3.677169 4.277343)"/></g><g stroke="#2a2a2a" stroke-linecap="round" stroke-linejoin="round" stroke-width="6"><path d="m425.6 259.5h1.5"/><path d="m389.2 259.5h25.8"/><path d="m373.4 259.5h6.7"/><path d="m57.1 259.5h307.3"/><path d="m35.7 259.5h7.9"/><path d="m0 259.5h21.9"/></g><g fill="#e41b64" fill-rule="nonzero" opacity=".29"><circle cx="277.2" cy="159.5" r="7.7"/><circle cx="307.9" cy="102.8" r="8.5"/><circle cx="181.8" cy="218.3" r="4.4"/><circle cx="202.4" cy="197.7" r="3.2"/><circle cx="160.5" cy="165.1" r="2.2"/><circle cx="172.7" cy="142.1" r="1"/><circle cx="218.4" cy="147.9" r="3.2"/><circle cx="191.7" cy="106.9" r="4.1"/><circle cx="267.4" cy="124.1" r="4.1"/><circle cx="242.7" cy="83.4" r="5.9"/><circle cx="299.4" cy="174.7" r="5.9"/><circle cx="321" cy="140.9" r="4.8"/><circle cx="237.2" cy="236.3" r="3.6"/><circle cx="282.7" cy="223.7" r="1.8"/></g></g></svg>