<svg height="520" viewBox="0 0 619 520" width="619" xmlns="http://www.w3.org/2000/svg"><g fill="none" fill-rule="evenodd" transform="translate(4 3)"><g opacity=".2" stroke="#153144" stroke-linecap="round" stroke-linejoin="round" stroke-width="6" transform="translate(22)"><path d="m61.7 132.4h112v380.9h-112z"/><g transform="translate(81 429)"><path d="m.1 1.3h73"/><path d="m.1 13.3h73"/></g><g transform="translate(81 395)"><path d="m.1 1.3h73"/><path d="m.1 13.3h73"/></g><g transform="translate(81 361)"><path d="m.1 1.3h73"/><path d="m.1 13.3h73"/></g><g transform="translate(81 327)"><path d="m.1 1.3h73"/><path d="m.1 13.3h73"/></g><g transform="translate(81 293)"><path d="m.1 1.3h73"/><path d="m.1 13.3h73"/></g><g transform="translate(81 259)"><path d="m.1 1.3h73"/><path d="m.1 13.3h73"/></g><g transform="translate(81 225)"><path d="m.1 1.3h73"/><path d="m.1 13.3h73"/></g><g transform="translate(81 191)"><path d="m.1 1.3h73"/><path d="m.1 13.3h73"/></g><g transform="translate(81 157)"><path d="m.1 1.3h73"/><path d="m.1 13.3h73"/></g><path d="m154.7 132.4h-74v-43c0-20.4 16.6-37 37-37 20.4 0 37 16.6 37 37z"/><path d="m173.7 205.3h145.8v20h-145.8z"/><path d="m1.1.3v15" transform="translate(296 457)"/><path d="m1.1.3v15" transform="translate(276 457)"/><path d="m1.1.3v15" transform="translate(256 457)"/><path d="m1.1.3v15" transform="translate(236 457)"/><path d="m1.1.3v15" transform="translate(216 457)"/><path d="m1.1.3v15" transform="translate(196 457)"/><path d="m1.1.3v15" transform="translate(296 417)"/><path d="m1.1.3v15" transform="translate(276 417)"/><path d="m1.1.3v15" transform="translate(256 417)"/><path d="m1.1.3v15" transform="translate(236 417)"/><path d="m1.1.3v15" transform="translate(216 417)"/><path d="m1.1.3v15" transform="translate(196 417)"/><path d="m1.1.3v15" transform="translate(296 377)"/><path d="m1.1.3v15" transform="translate(276 377)"/><path d="m1.1.3v15" transform="translate(256 377)"/><path d="m1.1.3v15" transform="translate(236 377)"/><path d="m1.1.3v15" transform="translate(216 377)"/><path d="m1.1.3v15" transform="translate(196 377)"/><path d="m1.1.3v15" transform="translate(296 337)"/><path d="m1.1.3v15" transform="translate(276 337)"/><path d="m1.1.3v15" transform="translate(256 337)"/><path d="m1.1.3v15" transform="translate(236 337)"/><path d="m1.1.3v15" transform="translate(216 337)"/><path d="m1.1.3v15" transform="translate(196 337)"/><path d="m1.1.3v15" transform="translate(296 297)"/><path d="m1.1.3v15" transform="translate(276 297)"/><path d="m1.1.3v15" transform="translate(256 297)"/><path d="m1.1.3v15" transform="translate(236 297)"/><path d="m1.1.3v15" transform="translate(216 297)"/><path d="m1.1.3v15" transform="translate(196 297)"/><path d="m1.1.3v15" transform="translate(296 257)"/><path d="m1.1.3v15" transform="translate(276 257)"/><path d="m1.1.3v15" transform="translate(256 257)"/><path d="m1.1.3v15" transform="translate(236 257)"/><path d="m1.1.3v15" transform="translate(216 257)"/><path d="m1.1.3v15" transform="translate(196 257)"/><path d="m0 225.3h60.6v288h-60.6z"/><g transform="translate(16 417)"><path d="m1.1.3v15"/><path d="m1.1 20.3v6" opacity=".36"/></g><g transform="translate(29 417)"><path d="m1.1.3v15"/><path d="m1.1 20.3v6" opacity=".36"/></g><g transform="translate(42 417)"><path d="m1.1.3v15"/><path d="m1.1 20.3v6" opacity=".36"/></g><g transform="translate(16 373)"><path d="m1.1.3v15"/><path d="m1.1 20.3v6" opacity=".36"/></g><g transform="translate(29 373)"><path d="m1.1.3v15"/><path d="m1.1 20.3v6" opacity=".36"/></g><g transform="translate(42 373)"><path d="m1.1.3v15"/><path d="m1.1 20.3v6" opacity=".36"/></g><g transform="translate(16 329)"><path d="m1.1.3v15"/><path d="m1.1 20.3v6" opacity=".36"/></g><g transform="translate(29 329)"><path d="m1.1.3v15"/><path d="m1.1 20.3v6" opacity=".36"/></g><g transform="translate(42 329)"><path d="m1.1.3v15"/><path d="m1.1 20.3v6" opacity=".36"/></g><g transform="translate(16 285)"><path d="m1.1.3v15"/><path d="m1.1 20.3v6" opacity=".36"/></g><g transform="translate(29 285)"><path d="m1.1.3v15"/><path d="m1.1 20.3v6" opacity=".36"/></g><g transform="translate(42 285)"><path d="m1.1.3v15"/><path d="m1.1 20.3v6" opacity=".36"/></g><g transform="translate(16 241)"><path d="m1.1.3v15"/><path d="m1.1 20.3v6" opacity=".36"/></g><g transform="translate(29 241)"><path d="m1.1.3v15"/><path d="m1.1 20.3v6" opacity=".36"/></g><g transform="translate(42 241)"><path d="m1.1.3v15"/><path d="m1.1 20.3v6" opacity=".36"/></g><ellipse cx="379.8" cy="372.2" rx="41" ry="56.9"/><path d="m381.4 405.6 11.7-11.8"/><path d="m379.8 387.7-12.5-11.7"/><path d="m381.4 359.2v121.2"/><path d="m117.6 0v52.4"/></g><path d="m510 512.7c-4.1-46-38.4-82-80.1-82s-76.1 36-80.1 82z" fill="#ef2c54" fill-rule="nonzero"/><path d="m454 462c0-10.7-3.1-20.8-8.4-29.6-5.1-1.1-10.3-1.7-15.7-1.7-41.7 0-76.1 36-80.1 82h74.8c17.7-11.3 29.4-29.8 29.4-50.7z" fill="#7eb25b" fill-rule="nonzero" opacity=".3"/><path d="m552.5 512.7c-2.2-24.4-20.4-43.5-42.5-43.5s-40.3 19.1-42.5 43.5z" fill="#ef2c54" fill-rule="nonzero"/><path d="m522.8 485.8c0-5.7-1.6-11-4.5-15.7-2.7-.6-5.5-.9-8.3-.9-22.1 0-40.3 19.1-42.5 43.5h39.7c9.4-6 15.6-15.8 15.6-26.9z" fill="#7eb25b" fill-rule="nonzero" opacity=".3"/><path d="m433.7 461.1v51.6" stroke="#153144" stroke-linecap="round" stroke-linejoin="round" stroke-width="8"/><path d="m406.7 469.2 27 16.7" stroke="#153144" stroke-linecap="round" stroke-linejoin="round" stroke-width="8"/><path d="m434.2 504.3 21.2-17.4" stroke="#153144" stroke-linecap="round" stroke-linejoin="round" stroke-width="8"/><ellipse cx="475.7" cy="232.7" fill="#ef2c54" fill-rule="nonzero" rx="75" ry="107"/><path d="m400.7 232.7c0 23 5.1 44.3 13.8 61.8 7.8 4.4 16.2 6.8 25 6.8 37.7 0 68.3-43.6 68.3-97.5 0-31.8-10.7-60-27.2-77.8-1.6-.2-3.3-.2-4.9-.2-41.4-.1-75 47.8-75 106.9z" fill="#7eb25b" fill-rule="nonzero" opacity=".3"/><g stroke="#153144" stroke-linecap="round" stroke-linejoin="round"><path d="m610.6 512.7h-29.3" stroke-width="8"/><ellipse cx="472.1" cy="163.7" rx="7.6" ry="17.4" stroke-width="6"/><ellipse cx="442.02609" cy="221.29274" rx="7.600268" ry="17.400614" stroke-width="6.000212" transform="matrix(.71777469 -.69627544 .69627544 .71777469 -29.329751 370.226325)"/><ellipse cx="380.16338" cy="320.96091" rx="17.399327" ry="7.599706" stroke-width="5.999768" transform="matrix(.51191981 -.85903324 .85903324 .51191981 -90.165875 483.227643)"/><ellipse cx="533.500898" cy="420.800563" rx="7.600008" ry="17.400017" stroke-width="6.000006" transform="matrix(.999999 -.00141328 .00141328 .999999 -.594176 .754406)"/><ellipse cx="509.66778" cy="206.95772" rx="17.399394" ry="7.599735" stroke-width="5.999791" transform="matrix(.56741977 -.82342869 .82342869 .56741977 50.05728 509.200888)"/><ellipse cx="506.30404" cy="285.8069" rx="13.49953" ry="5.899794" stroke-width="5.999791" transform="matrix(.56741977 -.82342869 .82342869 .56741977 -16.324484 540.539684)"/><path d="m475.7 273.7 22.5-20" stroke-width="8"/><path d="m475.7 307.7-28-21.9" stroke-width="8"/><path d="m475.7 232.7v280" stroke-width="8"/></g><g transform="translate(0 238)"><path d="m157.7 76s-12.1 16.8-13.6 18.3-40.8 7.3-40.8 7.3l-4.4 14.7s48.8-3.5 53.3-8 17-20.7 17-20.7z" fill="#fff" fill-rule="nonzero"/><path d="m157.7 76s-12.1 16.8-13.6 18.3-45.3 7.3-45.3 7.3l-4.4 14.7s53.2-3.5 57.7-8 17-20.7 17-20.7z" stroke="#153144" stroke-linecap="round" stroke-linejoin="round" stroke-width="8"/><circle cx="251.1" cy="215" fill="#fff" fill-rule="nonzero" r="59.7"/><circle cx="69" cy="215" fill="#fff" fill-rule="nonzero" r="59.7"/><circle cx="69" cy="215" r="59.7" stroke="#153144" stroke-linecap="round" stroke-linejoin="round" stroke-width="8"/><path d="m69 254.7c-21.9 0-39.7-17.8-39.7-39.7s17.8-39.7 39.7-39.7 39.7 17.8 39.7 39.7-17.8 39.7-39.7 39.7z" fill="#90caf8" fill-rule="nonzero"/><path d="m34.1 233.8c-3-5.6-4.7-12-4.7-18.8 0-13.3 6.5-25 16.6-32.2" stroke="#153144" stroke-linecap="round" stroke-linejoin="round" stroke-width="6"/><path d="m92.1 196.4c4.1 5.1 6.5 11.5 6.5 18.6 0 3.7-.7 7.2-1.9 10.4" stroke="#153144" stroke-linecap="round" stroke-linejoin="round" stroke-width="6"/><path d="m69 215 29.8-98.7" stroke="#153144" stroke-linecap="round" stroke-linejoin="round" stroke-width="8"/><path d="m69 222c-3.8 0-7-3.2-7-7s3.2-7 7-7 7 3.2 7 7-3.2 7-7 7z" fill="#ef2c54" fill-rule="nonzero"/><path d="m69 222c-3.8 0-7-3.2-7-7s3.2-7 7-7 7 3.2 7 7-3.2 7-7 7z" stroke="#153144" stroke-linecap="round" stroke-linejoin="round" stroke-width="8"/><circle cx="251.1" cy="215" r="59.7" stroke="#153144" stroke-linecap="round" stroke-linejoin="round" stroke-width="8"/><path d="m251.1 254.7c-21.9 0-39.7-17.8-39.7-39.7s17.8-39.7 39.7-39.7 39.7 17.8 39.7 39.7-17.8 39.7-39.7 39.7z" fill="#90caf8" fill-rule="nonzero"/><path d="m258.5 176c18.4 3.5 32.3 19.6 32.3 39" stroke="#153144" stroke-linecap="round" stroke-linejoin="round" stroke-width="6"/><path d="m245.6 244.2c-7.5-1.4-14-5.7-18.4-11.6" stroke="#153144" stroke-linecap="round" stroke-linejoin="round" stroke-width="6"/><path d="m97.7 134.8 54.9 82.2 98.9-.1-54.9-82.2z" stroke="#153144" stroke-linecap="round" stroke-linejoin="round" stroke-width="8"/><circle cx="156.6" cy="37.1" fill="#fff" fill-rule="nonzero" r="26.2"/><path d="m169.3 26.4-19.4 36.9" stroke="#153144" stroke-linecap="round" stroke-linejoin="round" stroke-width="8"/><circle cx="156.6" cy="37.1" r="26.2" stroke="#153144" stroke-linecap="round" stroke-linejoin="round" stroke-width="8"/><path d="m190.1 33.1c2.1-9.6.8-18.4-4.3-24.5-10.9-13-36.1-9.4-57.3 8.4-5.8 4.9-10.7 10.3-14.7 16h76.3z" fill="#ce2951" fill-rule="nonzero"/><path d="m185.8 8.6c-6.7-8-18.7-9.7-31.9-5.7 7.1.4 13.1 2.9 17.1 7.7 4.7 5.7 6.2 13.6 4.7 22.5h14.4c2-9.7.8-18.4-4.3-24.5z" fill="#ad254c" fill-rule="nonzero"/><path d="m190.1 33.1c2.1-9.6.8-18.4-4.3-24.5-10.9-13-36.1-9.4-57.3 8.4-5.8 4.9-10.7 10.3-14.7 16h76.3z" stroke="#153144" stroke-linecap="round" stroke-linejoin="round" stroke-width="8"/><path d="m167.1 148.7s-7.6 6.2-10.4 9-1.5 55.3-1.5 55.3h14.2s4.8-41.8 6.7-43.7c1.8-1.8 12.1-8.7 12.1-8.7z" fill="#fff" fill-rule="nonzero"/><path d="m167.1 148.7s-7.6 6.2-10.4 9-1.5 55.3-1.5 55.3h14.2s4.8-41.8 6.7-43.7c1.8-1.8 12.1-8.7 12.1-8.7z" stroke="#153144" stroke-linecap="round" stroke-linejoin="round" stroke-width="8"/><path d="m155.2 75.7 13.2 17 6.2-7.3 21.7 36.7 49.3 3s-31.9-51.7-47.2-63-23.4-6.1-26.9-2.7c-3.4 3.4-16.3 16.3-16.3 16.3z" fill="#90caf8" fill-rule="nonzero"/><path d="m214.2 123.1c-2.8-30-20-54.7-42.9-63.6-3.7 3.7-16.1 16.1-16.1 16.1l13.2 17 6.2-7.3 21.7 36.7z" fill="#74bae8" fill-rule="nonzero"/><path d="m155.2 75.7 13.2 17 6.2-7.3 21.7 39.7h49.3s-31.9-51.7-47.2-63-23.4-6.1-26.9-2.7c-3.4 3.4-16.3 16.3-16.3 16.3z" stroke="#153144" stroke-linecap="round" stroke-linejoin="round" stroke-width="8"/><path d="m175.5 229.2h-33.6v-5.5c0-4.9 3.8-8.9 8.6-9.2l24.9-1.4v16.1z" fill="#153144" fill-rule="nonzero"/><path d="m175.5 229.2h-33.6v-5.5c0-4.9 3.8-8.9 8.6-9.2l24.9-1.4v16.1z" stroke="#153144" stroke-linecap="round" stroke-linejoin="round" stroke-width="8"/><path d="m164.9 147 23.2 17.7s49.9-17 57.5-39.7c-38 0-49.3 0-49.3 0z" fill="#ce2951" fill-rule="nonzero"/><path d="m213.3 125c-12.6 0-17 0-17 0l-31.4 22 5.6 4.3c1.2-.2 2.4-.4 3.7-.6 19.6-4 34.9-14.5 39.1-25.7z" fill="#ad254c" fill-rule="nonzero" opacity=".63"/><path d="m164.9 147 23.2 17.7s49.9-17 57.5-39.7c-38 0-49.3 0-49.3 0z" stroke="#153144" stroke-linecap="round" stroke-linejoin="round" stroke-width="8"/><path d="m251.5 224c-3.8 0-7-3.2-7-7s3.2-7 7-7 7 3.2 7 7-3.2 7-7 7z" fill="#ef2c54" fill-rule="nonzero"/><g stroke="#153144"><path d="m251.5 224c-3.8 0-7-3.2-7-7s3.2-7 7-7 7 3.2 7 7-3.2 7-7 7z" stroke-linecap="round" stroke-linejoin="round" stroke-width="8"/><path d="m237.8 10.2h7.8" stroke-linecap="round" stroke-linejoin="round" stroke-width="8"/><path d="m175.5 10.2h49.2" stroke-linecap="round" stroke-linejoin="round" stroke-width="8"/><path d="m276.7 231.2h73" stroke-linecap="round" stroke-linejoin="round" stroke-width="8"/><path d="m363.3 192.7h7" stroke-linecap="round" stroke-linejoin="round" stroke-width="8"/><path d="m322.2 192.7h27.5" stroke-linecap="round" stroke-linejoin="round" stroke-width="8"/><path d="m239.3 66h38.3" stroke-linecap="round" stroke-linejoin="round" stroke-width="8"/><path d="m34.1 151.3h-33.5" stroke-linecap="round" stroke-linejoin="round" stroke-width="8"/><path d="m62.7 134.7h-16.8" stroke-linecap="round" stroke-linejoin="round" stroke-width="8"/></g></g></g></svg>