<?xml version="1.0" encoding="utf-8"?>
<!-- Generator: Adobe Illustrator 23.1.1, SVG Export Plug-In . SVG Version: 6.00 Build 0)  -->
<svg version="1.1" id="Layer_1" xmlns="http://www.w3.org/2000/svg" xmlns:xlink="http://www.w3.org/1999/xlink" x="0px" y="0px"
	 viewBox="0 0 1000 1000" style="enable-background:new 0 0 1000 1000;" xml:space="preserve">
<style type="text/css">
	.st0{fill:#FFFFFF;}
	.st1{opacity:0.2;}
	.st2{fill:none;stroke:#153144;stroke-width:6;stroke-linecap:round;stroke-linejoin:round;stroke-miterlimit:10;}
	.st3{opacity:0.36;fill:none;stroke:#153144;stroke-width:6;stroke-linecap:round;stroke-linejoin:round;stroke-miterlimit:10;}
	.st4{fill:#153144;}
	.st5{fill:none;stroke:#153144;stroke-width:8;stroke-linecap:round;stroke-linejoin:round;stroke-miterlimit:10;}
	.st6{fill:#EF2C54;}
	.st7{opacity:0.3;fill:#7EB25B;}
	.st8{fill:none;stroke:#EF2C54;stroke-width:5;stroke-linecap:round;stroke-linejoin:round;stroke-miterlimit:10;}
	.st9{fill:#90CAF8;}
	.st10{fill:#CE2951;}
	.st11{fill:#AD254C;}
	.st12{fill:#74BAE8;}
	.st13{opacity:0.63;fill:#AD254C;}
</style>
<g id="XMLID_126_" class="st1">
	<rect id="XMLID_124_" x="395.7" y="319.4" class="st2" width="112" height="380.9"/>
	<g id="XMLID_121_">
		<g>
			<g>
				<line id="XMLID_256_" class="st2" x1="415.1" y1="617.3" x2="488.1" y2="617.3"/>
				<line id="XMLID_255_" class="st2" x1="415.1" y1="629.3" x2="488.1" y2="629.3"/>
			</g>
		</g>
		<g>
			<g>
				<line id="XMLID_250_" class="st2" x1="415.1" y1="583.3" x2="488.1" y2="583.3"/>
				<line id="XMLID_249_" class="st2" x1="415.1" y1="595.3" x2="488.1" y2="595.3"/>
			</g>
		</g>
		<g>
			<g>
				<line id="XMLID_244_" class="st2" x1="415.1" y1="549.3" x2="488.1" y2="549.3"/>
				<line id="XMLID_243_" class="st2" x1="415.1" y1="561.3" x2="488.1" y2="561.3"/>
			</g>
		</g>
		<g>
			<g>
				<line id="XMLID_221_" class="st2" x1="415.1" y1="515.3" x2="488.1" y2="515.3"/>
				<line id="XMLID_220_" class="st2" x1="415.1" y1="527.3" x2="488.1" y2="527.3"/>
			</g>
		</g>
		<g>
			<g>
				<line id="XMLID_215_" class="st2" x1="415.1" y1="481.3" x2="488.1" y2="481.3"/>
				<line id="XMLID_214_" class="st2" x1="415.1" y1="493.3" x2="488.1" y2="493.3"/>
			</g>
		</g>
		<g>
			<g>
				<line id="XMLID_209_" class="st2" x1="415.1" y1="447.3" x2="488.1" y2="447.3"/>
				<line id="XMLID_208_" class="st2" x1="415.1" y1="459.3" x2="488.1" y2="459.3"/>
			</g>
		</g>
		<g>
			<g>
				<line id="XMLID_200_" class="st2" x1="415.1" y1="413.3" x2="488.1" y2="413.3"/>
				<line id="XMLID_198_" class="st2" x1="415.1" y1="425.3" x2="488.1" y2="425.3"/>
			</g>
		</g>
		<g>
			<g>
				<line id="XMLID_193_" class="st2" x1="415.1" y1="379.3" x2="488.1" y2="379.3"/>
				<line id="XMLID_192_" class="st2" x1="415.1" y1="391.3" x2="488.1" y2="391.3"/>
			</g>
		</g>
		<g>
			<g>
				<line id="XMLID_187_" class="st2" x1="415.1" y1="345.3" x2="488.1" y2="345.3"/>
				<line id="XMLID_186_" class="st2" x1="415.1" y1="357.3" x2="488.1" y2="357.3"/>
			</g>
		</g>
	</g>
	<path id="XMLID_120_" class="st2" d="M488.7,319.4h-74v-43c0-20.4,16.6-37,37-37h0c20.4,0,37,16.6,37,37V319.4z"/>
	<rect id="XMLID_119_" x="507.7" y="392.3" class="st2" width="145.8" height="20"/>
	<g id="XMLID_106_">
		<g>
			<g>
				<g id="XMLID_675_">
					<line id="XMLID_676_" class="st2" x1="631.1" y1="644.3" x2="631.1" y2="659.3"/>
				</g>
				<g id="XMLID_673_">
					<line id="XMLID_674_" class="st2" x1="611.1" y1="644.3" x2="611.1" y2="659.3"/>
				</g>
				<g id="XMLID_671_">
					<line id="XMLID_672_" class="st2" x1="591.1" y1="644.3" x2="591.1" y2="659.3"/>
				</g>
				<g id="XMLID_669_">
					<line id="XMLID_670_" class="st2" x1="571.1" y1="644.3" x2="571.1" y2="659.3"/>
				</g>
				<g id="XMLID_667_">
					<line id="XMLID_668_" class="st2" x1="551.1" y1="644.3" x2="551.1" y2="659.3"/>
				</g>
				<g id="XMLID_665_">
					<line id="XMLID_666_" class="st2" x1="531.1" y1="644.3" x2="531.1" y2="659.3"/>
				</g>
			</g>
		</g>
		<g>
			<g>
				<g id="XMLID_639_">
					<line id="XMLID_640_" class="st2" x1="631.1" y1="604.3" x2="631.1" y2="619.3"/>
				</g>
				<g id="XMLID_637_">
					<line id="XMLID_638_" class="st2" x1="611.1" y1="604.3" x2="611.1" y2="619.3"/>
				</g>
				<g id="XMLID_635_">
					<line id="XMLID_636_" class="st2" x1="591.1" y1="604.3" x2="591.1" y2="619.3"/>
				</g>
				<g id="XMLID_633_">
					<line id="XMLID_634_" class="st2" x1="571.1" y1="604.3" x2="571.1" y2="619.3"/>
				</g>
				<g id="XMLID_631_">
					<line id="XMLID_632_" class="st2" x1="551.1" y1="604.3" x2="551.1" y2="619.3"/>
				</g>
				<g id="XMLID_629_">
					<line id="XMLID_630_" class="st2" x1="531.1" y1="604.3" x2="531.1" y2="619.3"/>
				</g>
			</g>
		</g>
		<g>
			<g>
				<g id="XMLID_603_">
					<line id="XMLID_604_" class="st2" x1="631.1" y1="564.3" x2="631.1" y2="579.3"/>
				</g>
				<g id="XMLID_601_">
					<line id="XMLID_602_" class="st2" x1="611.1" y1="564.3" x2="611.1" y2="579.3"/>
				</g>
				<g id="XMLID_599_">
					<line id="XMLID_600_" class="st2" x1="591.1" y1="564.3" x2="591.1" y2="579.3"/>
				</g>
				<g id="XMLID_597_">
					<line id="XMLID_598_" class="st2" x1="571.1" y1="564.3" x2="571.1" y2="579.3"/>
				</g>
				<g id="XMLID_595_">
					<line id="XMLID_596_" class="st2" x1="551.1" y1="564.3" x2="551.1" y2="579.3"/>
				</g>
				<g id="XMLID_593_">
					<line id="XMLID_594_" class="st2" x1="531.1" y1="564.3" x2="531.1" y2="579.3"/>
				</g>
			</g>
		</g>
		<g>
			<g>
				<g id="XMLID_567_">
					<line id="XMLID_568_" class="st2" x1="631.1" y1="524.3" x2="631.1" y2="539.3"/>
				</g>
				<g id="XMLID_565_">
					<line id="XMLID_566_" class="st2" x1="611.1" y1="524.3" x2="611.1" y2="539.3"/>
				</g>
				<g id="XMLID_563_">
					<line id="XMLID_564_" class="st2" x1="591.1" y1="524.3" x2="591.1" y2="539.3"/>
				</g>
				<g id="XMLID_561_">
					<line id="XMLID_562_" class="st2" x1="571.1" y1="524.3" x2="571.1" y2="539.3"/>
				</g>
				<g id="XMLID_559_">
					<line id="XMLID_560_" class="st2" x1="551.1" y1="524.3" x2="551.1" y2="539.3"/>
				</g>
				<g id="XMLID_557_">
					<line id="XMLID_558_" class="st2" x1="531.1" y1="524.3" x2="531.1" y2="539.3"/>
				</g>
			</g>
		</g>
		<g>
			<g>
				<g id="XMLID_531_">
					<line id="XMLID_532_" class="st2" x1="631.1" y1="484.3" x2="631.1" y2="499.3"/>
				</g>
				<g id="XMLID_529_">
					<line id="XMLID_530_" class="st2" x1="611.1" y1="484.3" x2="611.1" y2="499.3"/>
				</g>
				<g id="XMLID_527_">
					<line id="XMLID_528_" class="st2" x1="591.1" y1="484.3" x2="591.1" y2="499.3"/>
				</g>
				<g id="XMLID_525_">
					<line id="XMLID_526_" class="st2" x1="571.1" y1="484.3" x2="571.1" y2="499.3"/>
				</g>
				<g id="XMLID_523_">
					<line id="XMLID_524_" class="st2" x1="551.1" y1="484.3" x2="551.1" y2="499.3"/>
				</g>
				<g id="XMLID_521_">
					<line id="XMLID_522_" class="st2" x1="531.1" y1="484.3" x2="531.1" y2="499.3"/>
				</g>
			</g>
		</g>
		<g>
			<g>
				<g id="XMLID_495_">
					<line id="XMLID_496_" class="st2" x1="631.1" y1="444.3" x2="631.1" y2="459.3"/>
				</g>
				<g id="XMLID_493_">
					<line id="XMLID_494_" class="st2" x1="611.1" y1="444.3" x2="611.1" y2="459.3"/>
				</g>
				<g id="XMLID_491_">
					<line id="XMLID_492_" class="st2" x1="591.1" y1="444.3" x2="591.1" y2="459.3"/>
				</g>
				<g id="XMLID_489_">
					<line id="XMLID_490_" class="st2" x1="571.1" y1="444.3" x2="571.1" y2="459.3"/>
				</g>
				<g id="XMLID_487_">
					<line id="XMLID_488_" class="st2" x1="551.1" y1="444.3" x2="551.1" y2="459.3"/>
				</g>
				<g id="XMLID_485_">
					<line id="XMLID_486_" class="st2" x1="531.1" y1="444.3" x2="531.1" y2="459.3"/>
				</g>
			</g>
		</g>
	</g>
	<rect id="XMLID_105_" x="334" y="412.3" class="st2" width="60.6" height="288"/>
	<g id="XMLID_3_">
		<g>
			<g>
				<g id="XMLID_433_">
					<line id="XMLID_435_" class="st2" x1="351.1" y1="604.3" x2="351.1" y2="619.3"/>
					<line id="XMLID_434_" class="st3" x1="351.1" y1="624.3" x2="351.1" y2="630.3"/>
				</g>
				<g id="XMLID_430_">
					<line id="XMLID_432_" class="st2" x1="364.1" y1="604.3" x2="364.1" y2="619.3"/>
					<line id="XMLID_431_" class="st3" x1="364.1" y1="624.3" x2="364.1" y2="630.3"/>
				</g>
				<g id="XMLID_427_">
					<line id="XMLID_429_" class="st2" x1="377.1" y1="604.3" x2="377.1" y2="619.3"/>
					<line id="XMLID_428_" class="st3" x1="377.1" y1="624.3" x2="377.1" y2="630.3"/>
				</g>
			</g>
		</g>
		<g>
			<g>
				<g id="XMLID_406_">
					<line id="XMLID_408_" class="st2" x1="351.1" y1="560.3" x2="351.1" y2="575.3"/>
					<line id="XMLID_407_" class="st3" x1="351.1" y1="580.3" x2="351.1" y2="586.3"/>
				</g>
				<g id="XMLID_403_">
					<line id="XMLID_405_" class="st2" x1="364.1" y1="560.3" x2="364.1" y2="575.3"/>
					<line id="XMLID_404_" class="st3" x1="364.1" y1="580.3" x2="364.1" y2="586.3"/>
				</g>
				<g id="XMLID_400_">
					<line id="XMLID_402_" class="st2" x1="377.1" y1="560.3" x2="377.1" y2="575.3"/>
					<line id="XMLID_401_" class="st3" x1="377.1" y1="580.3" x2="377.1" y2="586.3"/>
				</g>
			</g>
		</g>
		<g>
			<g>
				<g id="XMLID_379_">
					<line id="XMLID_381_" class="st2" x1="351.1" y1="516.3" x2="351.1" y2="531.3"/>
					<line id="XMLID_380_" class="st3" x1="351.1" y1="536.3" x2="351.1" y2="542.3"/>
				</g>
				<g id="XMLID_376_">
					<line id="XMLID_378_" class="st2" x1="364.1" y1="516.3" x2="364.1" y2="531.3"/>
					<line id="XMLID_377_" class="st3" x1="364.1" y1="536.3" x2="364.1" y2="542.3"/>
				</g>
				<g id="XMLID_373_">
					<line id="XMLID_375_" class="st2" x1="377.1" y1="516.3" x2="377.1" y2="531.3"/>
					<line id="XMLID_374_" class="st3" x1="377.1" y1="536.3" x2="377.1" y2="542.3"/>
				</g>
			</g>
		</g>
		<g>
			<g>
				<g id="XMLID_352_">
					<line id="XMLID_354_" class="st2" x1="351.1" y1="472.3" x2="351.1" y2="487.3"/>
					<line id="XMLID_353_" class="st3" x1="351.1" y1="492.3" x2="351.1" y2="498.3"/>
				</g>
				<g id="XMLID_349_">
					<line id="XMLID_351_" class="st2" x1="364.1" y1="472.3" x2="364.1" y2="487.3"/>
					<line id="XMLID_350_" class="st3" x1="364.1" y1="492.3" x2="364.1" y2="498.3"/>
				</g>
				<g id="XMLID_346_">
					<line id="XMLID_348_" class="st2" x1="377.1" y1="472.3" x2="377.1" y2="487.3"/>
					<line id="XMLID_347_" class="st3" x1="377.1" y1="492.3" x2="377.1" y2="498.3"/>
				</g>
			</g>
		</g>
		<g>
			<g>
				<g id="XMLID_325_">
					<line id="XMLID_327_" class="st2" x1="351.1" y1="428.3" x2="351.1" y2="443.3"/>
					<line id="XMLID_326_" class="st3" x1="351.1" y1="448.3" x2="351.1" y2="454.3"/>
				</g>
				<g id="XMLID_322_">
					<line id="XMLID_324_" class="st2" x1="364.1" y1="428.3" x2="364.1" y2="443.3"/>
					<line id="XMLID_323_" class="st3" x1="364.1" y1="448.3" x2="364.1" y2="454.3"/>
				</g>
				<g id="XMLID_319_">
					<line id="XMLID_321_" class="st2" x1="377.1" y1="428.3" x2="377.1" y2="443.3"/>
					<line id="XMLID_320_" class="st3" x1="377.1" y1="448.3" x2="377.1" y2="454.3"/>
				</g>
			</g>
		</g>
	</g>
	<ellipse id="XMLID_130_" class="st2" cx="713.8" cy="559.2" rx="41" ry="56.9"/>
	<line id="XMLID_129_" class="st2" x1="715.4" y1="592.6" x2="727.1" y2="580.8"/>
	<line id="XMLID_128_" class="st2" x1="713.8" y1="574.7" x2="701.3" y2="563"/>
	<line id="XMLID_127_" class="st2" x1="715.4" y1="546.2" x2="715.4" y2="667.4"/>
	<line id="XMLID_132_" class="st2" x1="451.6" y1="187" x2="451.6" y2="239.4"/>
</g>
<path id="XMLID_45_" class="st6" d="M822,699.7c-4.1-46-38.4-82-80.1-82c-41.7,0-76.1,36-80.1,82H822z"/>
<path id="XMLID_88_" class="st7" d="M766,649c0-10.7-3.1-20.8-8.4-29.6c-5.1-1.1-10.3-1.7-15.7-1.7c-41.7,0-76.1,36-80.1,82h74.8
	C754.3,688.4,766,669.9,766,649z"/>
<path id="XMLID_91_" class="st6" d="M864.5,699.7c-2.2-24.4-20.4-43.5-42.5-43.5c-22.1,0-40.3,19.1-42.5,43.5H864.5z"/>
<path id="XMLID_90_" class="st7" d="M834.8,672.8c0-5.7-1.6-11-4.5-15.7c-2.7-0.6-5.5-0.9-8.3-0.9c-22.1,0-40.3,19.1-42.5,43.5h39.7
	C828.6,693.7,834.8,683.9,834.8,672.8z"/>
<line id="XMLID_37_" class="st5" x1="745.7" y1="648.1" x2="745.7" y2="699.7"/>
<line id="XMLID_41_" class="st5" x1="718.7" y1="656.2" x2="745.7" y2="672.9"/>
<line id="XMLID_54_" class="st5" x1="746.2" y1="691.3" x2="767.4" y2="673.9"/>
<ellipse id="XMLID_46_" class="st6" cx="787.7" cy="419.7" rx="75" ry="107"/>
<path id="XMLID_87_" class="st7" d="M712.7,419.7c0,23,5.1,44.3,13.8,61.8c7.8,4.4,16.2,6.8,25,6.8c37.7,0,68.3-43.6,68.3-97.5
	c0-31.8-10.7-60-27.2-77.8c-1.6-0.2-3.3-0.2-4.9-0.2C746.3,312.7,712.7,360.6,712.7,419.7z"/>
<line id="XMLID_1_" class="st5" x1="922.6" y1="699.7" x2="893.3" y2="699.7"/>
<ellipse id="XMLID_20_" class="st2" cx="784.1" cy="350.7" rx="7.6" ry="17.4"/>
<ellipse id="XMLID_18_" transform="matrix(0.7178 -0.6963 0.6963 0.7178 -71.4944 640.2252)" class="st2" cx="754" cy="408.3" rx="7.6" ry="17.4"/>
<ellipse id="XMLID_38_" transform="matrix(0.5119 -0.859 0.859 0.5119 -98.4599 842.5667)" class="st2" cx="692.2" cy="507.9" rx="17.4" ry="7.6"/>
<ellipse id="XMLID_82_" transform="matrix(1 -1.413290e-03 1.413290e-03 1 -0.8581 1.1955)" class="st2" cx="845.5" cy="607.8" rx="7.6" ry="17.4"/>
<ellipse id="XMLID_19_" transform="matrix(0.5674 -0.8234 0.8234 0.5674 31.0156 846.9899)" class="st2" cx="821.7" cy="394" rx="17.4" ry="7.6"/>
<ellipse id="XMLID_21_" transform="matrix(0.5674 -0.8234 0.8234 0.5674 -35.3029 878.3284)" class="st2" cx="818.3" cy="472.8" rx="13.5" ry="5.9"/>
<line id="XMLID_22_" class="st5" x1="787.7" y1="460.7" x2="810.2" y2="440.7"/>
<line id="XMLID_23_" class="st5" x1="787.7" y1="494.7" x2="759.7" y2="472.8"/>
<line id="XMLID_5_" class="st5" x1="787.7" y1="419.7" x2="787.7" y2="699.7"/>
<g>
	<path id="XMLID_50_" class="st0" d="M469.7,501c0,0-12.1,16.8-13.6,18.3s-40.8,7.3-40.8,7.3l-4.4,14.7c0,0,48.8-3.5,53.3-8
		s17-20.7,17-20.7L469.7,501z"/>
	<path id="XMLID_32_" class="st5" d="M469.7,501c0,0-12.1,16.8-13.6,18.3s-45.3,7.3-45.3,7.3l-4.4,14.7c0,0,53.2-3.5,57.7-8
		s17-20.7,17-20.7L469.7,501z"/>
	<circle id="XMLID_47_" class="st0" cx="563.1" cy="640" r="59.7"/>
	<circle id="XMLID_9_" class="st0" cx="381" cy="640" r="59.7"/>
	<circle id="XMLID_17_" class="st5" cx="381" cy="640" r="59.7"/>
	<path id="XMLID_39_" class="st9" d="M381,679.7c-21.9,0-39.7-17.8-39.7-39.7s17.8-39.7,39.7-39.7c21.9,0,39.7,17.8,39.7,39.7
		S402.9,679.7,381,679.7z"/>
	<path id="XMLID_81_" class="st2" d="M346.1,658.8c-3-5.6-4.7-12-4.7-18.8c0-13.3,6.5-25,16.6-32.2"/>
	<path id="XMLID_85_" class="st2" d="M404.1,621.4c4.1,5.1,6.5,11.5,6.5,18.6c0,3.7-0.7,7.2-1.9,10.4"/>
	<line id="XMLID_35_" class="st5" x1="381" y1="640" x2="410.8" y2="541.3"/>
	<path id="XMLID_7_" class="st6" d="M381,647c-3.8,0-7-3.2-7-7c0-3.8,3.2-7,7-7s7,3.2,7,7C388,643.8,384.8,647,381,647z"/>
	<path id="XMLID_43_" class="st5" d="M381,647c-3.8,0-7-3.2-7-7c0-3.8,3.2-7,7-7s7,3.2,7,7C388,643.8,384.8,647,381,647z"/>
	<circle id="XMLID_26_" class="st5" cx="563.1" cy="640" r="59.7"/>
	<path id="XMLID_40_" class="st9" d="M563.1,679.7c-21.9,0-39.7-17.8-39.7-39.7s17.8-39.7,39.7-39.7s39.7,17.8,39.7,39.7
		S585,679.7,563.1,679.7z"/>
	<path id="XMLID_89_" class="st2" d="M570.5,601c18.4,3.5,32.3,19.6,32.3,39"/>
	<path id="XMLID_92_" class="st2" d="M557.6,669.2c-7.5-1.4-14-5.7-18.4-11.6"/>
	<polygon id="XMLID_28_" class="st5" points="409.7,559.8 464.6,642 563.5,641.9 508.6,559.7 	"/>
	<circle id="XMLID_51_" class="st0" cx="468.6" cy="462.1" r="26.2"/>
	<line id="XMLID_29_" class="st5" x1="481.3" y1="451.4" x2="461.9" y2="488.3"/>
	<circle id="XMLID_25_" class="st5" cx="468.6" cy="462.1" r="26.2"/>
	<path id="XMLID_52_" class="st10" d="M502.1,458.1c2.1-9.6,0.8-18.4-4.3-24.5c-10.9-13-36.1-9.4-57.3,8.4
		c-5.8,4.9-10.7,10.3-14.7,16H502.1z"/>
	<path id="XMLID_86_" class="st11" d="M497.8,433.6c-6.7-8-18.7-9.7-31.9-5.7c7.1,0.4,13.1,2.9,17.1,7.7c4.7,5.7,6.2,13.6,4.7,22.5
		h14.4C504.1,448.4,502.9,439.7,497.8,433.6z"/>
	<path id="XMLID_31_" class="st5" d="M502.1,458.1c2.1-9.6,0.8-18.4-4.3-24.5c-10.9-13-36.1-9.4-57.3,8.4
		c-5.8,4.9-10.7,10.3-14.7,16H502.1z"/>
	<path id="XMLID_70_" class="st0" d="M479.1,573.7c0,0-7.6,6.2-10.4,9c-2.8,2.8-1.5,55.3-1.5,55.3h14.2c0,0,4.8-41.8,6.7-43.7
		c1.8-1.8,12.1-8.7,12.1-8.7L479.1,573.7z"/>
	<path id="XMLID_30_" class="st5" d="M479.1,573.7c0,0-7.6,6.2-10.4,9c-2.8,2.8-1.5,55.3-1.5,55.3h14.2c0,0,4.8-41.8,6.7-43.7
		c1.8-1.8,12.1-8.7,12.1-8.7L479.1,573.7z"/>
	<path id="XMLID_49_" class="st9" d="M467.2,500.7l13.2,17l6.2-7.3l21.7,36.7l49.3,3c0,0-31.9-51.7-47.2-63
		c-15.3-11.3-23.4-6.1-26.9-2.7C480.1,487.8,467.2,500.7,467.2,500.7z"/>
	<path id="XMLID_94_" class="st12" d="M526.2,548.1c-2.8-30-20-54.7-42.9-63.6c-3.7,3.7-16.1,16.1-16.1,16.1l13.2,17l6.2-7.3
		l21.7,36.7L526.2,548.1z"/>
	<path id="XMLID_33_" class="st5" d="M467.2,500.7l13.2,17l6.2-7.3l21.7,39.7h49.3c0,0-31.9-51.7-47.2-63
		c-15.3-11.3-23.4-6.1-26.9-2.7C480.1,487.8,467.2,500.7,467.2,500.7z"/>
	<path id="XMLID_16_" class="st4" d="M487.5,654.2h-33.6v-5.5c0-4.9,3.8-8.9,8.6-9.2l24.9-1.4V654.2z"/>
	<path id="XMLID_34_" class="st5" d="M487.5,654.2h-33.6v-5.5c0-4.9,3.8-8.9,8.6-9.2l24.9-1.4V654.2z"/>
	<path id="XMLID_48_" class="st10" d="M476.9,572l23.2,17.7c0,0,49.9-17,57.5-39.7c-38,0-49.3,0-49.3,0L476.9,572z"/>
	<path id="XMLID_93_" class="st13" d="M525.3,550c-12.6,0-17,0-17,0l-31.4,22l5.6,4.3c1.2-0.2,2.4-0.4,3.7-0.6
		C505.8,571.7,521.1,561.2,525.3,550z"/>
	<path id="XMLID_27_" class="st5" d="M476.9,572l23.2,17.7c0,0,49.9-17,57.5-39.7c-38,0-49.3,0-49.3,0L476.9,572z"/>
	<path id="XMLID_13_" class="st6" d="M563.5,649c-3.8,0-7-3.2-7-7c0-3.8,3.2-7,7-7s7,3.2,7,7C570.5,645.8,567.3,649,563.5,649z"/>
	<path id="XMLID_12_" class="st5" d="M563.5,649c-3.8,0-7-3.2-7-7c0-3.8,3.2-7,7-7s7,3.2,7,7C570.5,645.8,567.3,649,563.5,649z"/>
	<line id="XMLID_76_" class="st5" x1="549.8" y1="435.2" x2="557.6" y2="435.2"/>
	<line id="XMLID_63_" class="st5" x1="487.5" y1="435.2" x2="536.7" y2="435.2"/>
	<line id="XMLID_64_" class="st5" x1="588.7" y1="656.2" x2="661.7" y2="656.2"/>
	<line id="XMLID_77_" class="st5" x1="675.3" y1="617.7" x2="682.3" y2="617.7"/>
	<line id="XMLID_65_" class="st5" x1="634.2" y1="617.7" x2="661.7" y2="617.7"/>
	<line id="XMLID_66_" class="st5" x1="551.3" y1="491" x2="589.6" y2="491"/>
	<line id="XMLID_68_" class="st5" x1="346.1" y1="576.3" x2="312.6" y2="576.3"/>
	<line id="XMLID_80_" class="st5" x1="374.7" y1="559.7" x2="357.9" y2="559.7"/>
</g>
</svg>
