<svg version="1.1" id="Layer_1" xmlns="http://www.w3.org/2000/svg" x="0px" y="0px"
	 viewBox="0 0 1000 1000" style="enable-background:new 0 0 1000 1000;" xml:space="preserve">
<style type="text/css">
	.st0{fill:#A8DAB5;}
	.st1{fill:#514C4C;}
	.st2{fill:#7BA884;stroke:#7BA884;stroke-width:6;stroke-linecap:round;stroke-linejoin:round;stroke-miterlimit:10;}
	.st3{fill:#404041;stroke:#404041;stroke-width:6;stroke-linecap:round;stroke-linejoin:round;stroke-miterlimit:10;}
	.st4{fill:#635142;}
	.st5{fill:#404041;}
	.st6{fill:none;stroke:#404041;stroke-width:6;stroke-linecap:round;stroke-linejoin:round;stroke-miterlimit:10;}
	.st7{fill:#705D4C;}
	.st8{fill:#897160;}
	.st9{opacity:0.81;fill:#635142;}
	.st10{opacity:0.75;fill:#897160;}
	.st11{fill:#FEC556;}
	.st12{fill:#F8A342;}
	.st13{opacity:0.39;fill:#FDD08A;}
	.st14{opacity:0.88;fill:#FDD08A;}
	.st15{opacity:0.59;fill:#F48B34;stroke:#F48B34;stroke-width:6;stroke-linecap:round;stroke-linejoin:round;stroke-miterlimit:10;}
	.st16{opacity:0.35;fill:#404041;}
	.st17{opacity:0.59;fill:#F48B34;stroke:#F48B34;stroke-width:4;stroke-linecap:round;stroke-linejoin:round;stroke-miterlimit:10;}
	.st18{fill:#DD3748;}
	.st19{opacity:0.3;fill:none;stroke:#404041;stroke-width:3;stroke-linecap:round;stroke-linejoin:round;stroke-miterlimit:10;}
	.st20{fill:none;stroke:#404041;stroke-width:4;stroke-linecap:round;stroke-linejoin:round;stroke-miterlimit:10;}
	.st21{fill:none;stroke:#404041;stroke-width:3;stroke-linecap:round;stroke-linejoin:round;stroke-miterlimit:10;}
	.st22{opacity:0.36;fill:#F48B34;}
</style>
<rect id="XMLID_12_" x="553.3" y="338.6" class="st2" width="22" height="26"/>
<path id="XMLID_11_" class="st2" d="M574.4,340.6h-20.1c-3.5,0-6.2-2.6-6.2-5.9l0.6-19.6c0.1-3.1,2.8-5.5,6.2-5.5h19
	c3.3,0,6.1,2.5,6.2,5.5l0.6,19.6C580.6,338,577.8,340.6,574.4,340.6z"/>
<path id="XMLID_10_" class="st2" d="M531.2,340.6h-20.1c-3.5,0-6.2-2.6-6.2-5.9l0.6-19.6c0.1-3.1,2.8-5.5,6.2-5.5h19
	c3.3,0,6.1,2.5,6.2,5.5l0.6,19.6C537.4,338,534.7,340.6,531.2,340.6z"/>
<path id="XMLID_9_" class="st2" d="M475.1,342.6h-32l3.2-119c0.1-5,4.3-9,9.3-9h7c5,0,9.2,4,9.3,9L475.1,342.6z"/>
<rect id="XMLID_8_" x="439.1" y="338.6" class="st2" width="40" height="26"/>
<rect id="XMLID_7_" x="510.6" y="338.6" class="st2" width="22" height="26"/>
<path id="XMLID_6_" class="st2" d="M423.4,423.6c-0.6-1.4-0.9-2.9-0.9-4.5v-37c0-10.3,7.2-19.3,17.3-21.6c45.3-10,92.1-10,137.4,0
	c10.1,2.2,17.3,11.2,17.3,21.6v37c0,1.6-0.3,3.1-0.9,4.5H423.4z"/>
<path id="XMLID_3_" class="st2" d="M421.5,439.4c0,78.8,0,157.6,0,236.4c0,10,6,17.8,15.2,19.9c11.1,2.6,22.5,4.3,34,5.5
	c3.2,0.3,6.5-1.3,8.3-4c6.4-10,17.7-16.8,30.6-16.7c12.6,0,23.7,6.6,30.2,16.4c1.8,2.7,5.1,4.3,8.4,4c10.2-1.1,20.2-2.8,30-5.1
	c9.3-2.1,15.4-10,15.4-20c0-78.8,0-157.6,0-236.4C539.6,423.7,475.5,423.7,421.5,439.4z"/>
<path id="XMLID_1_" class="st2" d="M597.5,446.8v-42.1c0-8.8-6.4-16.4-15.1-17.8c-49.6-7.8-100.1-7.8-149.7,0
	c-8.7,1.4-15.1,8.9-15.1,17.8v42.1c0,3.8,1.3,7.4,3.7,10.3c6.4,7.4,10.3,17,10.3,27.5v80c0,10.5-3.9,20.1-10.3,27.5
	c-2.5,2.8-3.7,6.5-3.7,10.3v42.1c0,8.8,6.4,16.4,15.1,17.8c49.6,7.8,100.1,7.8,149.7,0c8.7-1.4,15.1-8.9,15.1-17.8v-42.1
	c0-3.8-1.3-7.4-3.7-10.3c-6.4-7.4-10.3-17-10.3-27.5v-80c0-10.5,3.9-20.1,10.3-27.5C596.2,454.3,597.5,450.6,597.5,446.8z"/>
<path id="XMLID_97_" class="st3" d="M405.5,491.7h-0.8c-3,0-5.4-2.4-5.4-5.4l0,0c0-3,2.4-5.4,5.4-5.4h0.8c3,0,5.4,2.4,5.4,5.4l0,0
	C410.9,489.3,408.5,491.7,405.5,491.7z"/>
<path id="XMLID_113_" class="st3" d="M405.5,512.5h-0.8c-3,0-5.4-2.4-5.4-5.4l0,0c0-3,2.4-5.4,5.4-5.4h0.8c3,0,5.4,2.4,5.4,5.4l0,0
	C410.9,510.1,408.5,512.5,405.5,512.5z"/>
<rect id="XMLID_115_" x="538.3" y="338.6" class="st4" width="22" height="26"/>
<rect id="XMLID_16_" x="549.3" y="338.6" class="st5" width="11" height="26"/>
<rect id="XMLID_112_" x="538.3" y="338.6" class="st6" width="22" height="26"/>
<path id="XMLID_111_" class="st7" d="M559.4,340.6h-20.1c-3.5,0-6.2-2.6-6.2-5.9l0.6-19.6c0.1-3.1,2.8-5.5,6.2-5.5h19
	c3.3,0,6.1,2.5,6.2,5.5l0.6,19.6C565.6,338,562.8,340.6,559.4,340.6z"/>
<path id="XMLID_131_" class="st8" d="M537.6,336.8l-1.5-0.1l0.8-23.5l1.5,0.1c1.9,0.1,3.4,1.7,3.4,3.6l-0.6,16.5
	C541.1,335.3,539.5,336.9,537.6,336.8z"/>
<path id="XMLID_146_" class="st9" d="M565,315.2c-0.1-3.1-2.8-5.5-6.2-5.5h-12.8c3.3,0,6.1,2.5,6.2,5.5l0.6,19.6
	c0.1,3.2-2.7,5.9-6.2,5.9h12.8c3.5,0,6.2-2.6,6.2-5.9L565,315.2z"/>
<path id="XMLID_103_" class="st6" d="M559.4,340.6h-20.1c-3.5,0-6.2-2.6-6.2-5.9l0.6-19.6c0.1-3.1,2.8-5.5,6.2-5.5h19
	c3.3,0,6.1,2.5,6.2,5.5l0.6,19.6C565.6,338,562.8,340.6,559.4,340.6z"/>
<path id="XMLID_150_" class="st7" d="M516.2,340.6h-20.1c-3.5,0-6.2-2.6-6.2-5.9l0.6-19.6c0.1-3.1,2.8-5.5,6.2-5.5h19
	c3.3,0,6.1,2.5,6.2,5.5l0.6,19.6C522.4,338,519.7,340.6,516.2,340.6z"/>
<path id="XMLID_149_" class="st8" d="M494.4,336.8l-1.5-0.1l0.8-23.5l1.5,0.1c1.9,0.1,3.4,1.7,3.4,3.6l-0.6,16.5
	C497.9,335.3,496.3,336.9,494.4,336.8z"/>
<path id="XMLID_132_" class="st9" d="M521.8,315.2c-0.1-3.1-2.8-5.5-6.2-5.5h-12.8c3.3,0,6.1,2.5,6.2,5.5l0.6,19.6
	c0.1,3.2-2.7,5.9-6.2,5.9h12.8c3.5,0,6.2-2.6,6.2-5.9L521.8,315.2z"/>
<path id="XMLID_101_" class="st6" d="M516.2,340.6h-20.1c-3.5,0-6.2-2.6-6.2-5.9l0.6-19.6c0.1-3.1,2.8-5.5,6.2-5.5h19
	c3.3,0,6.1,2.5,6.2,5.5l0.6,19.6C522.4,338,519.7,340.6,516.2,340.6z"/>
<path id="XMLID_42_" class="st7" d="M460.1,342.6h-32l3.2-119c0.1-5,4.3-9,9.3-9h7c5,0,9.2,4,9.3,9L460.1,342.6z"/>
<path id="XMLID_152_" class="st8" d="M431.6,219.8c-0.1,0.6-0.2,1.1-0.2,1.7l-3.2,121.1h8.3c0,0,2.4-86.9,3.2-114.5
	C439.8,223.5,436.1,219.8,431.6,219.8L431.6,219.8z"/>
<path id="XMLID_154_" class="st9" d="M435.9,217.1c5,0,9.2,4,9.3,9l3.5,116.5l12.6,0l-3.6-119c-0.2-5-4.3-9-9.3-9l-7,0
	c-2.4,0-4.7,1-6.3,2.5L435.9,217.1z"/>
<path id="XMLID_47_" class="st6" d="M460.1,342.6h-32l3.2-119c0.1-5,4.3-9,9.3-9h7c5,0,9.2,4,9.3,9L460.1,342.6z"/>
<rect id="XMLID_95_" x="424.1" y="338.6" class="st4" width="40" height="26"/>
<path id="XMLID_117_" class="st10" d="M428.1,357.7L428.1,357.7c-2.1,0-3.7-1.7-3.7-3.7v-10.6c0-2.1,1.7-3.7,3.7-3.7l0,0
	c2.1,0,3.7,1.7,3.7,3.7V354C431.9,356.1,430.2,357.7,428.1,357.7z"/>
<rect id="XMLID_170_" x="448.1" y="338.6" class="st5" width="16" height="26"/>
<rect id="XMLID_94_" x="424.1" y="338.6" class="st6" width="40" height="26"/>
<rect id="XMLID_100_" x="495.6" y="338.6" class="st4" width="22" height="26"/>
<rect id="XMLID_14_" x="506.6" y="338.6" class="st5" width="11" height="26"/>
<rect id="XMLID_99_" x="495.6" y="338.6" class="st6" width="22" height="26"/>
<path id="XMLID_24_" class="st7" d="M408.4,423.6c-0.6-1.4-0.9-2.9-0.9-4.5v-37c0-10.3,7.2-19.3,17.3-21.6c45.3-10,92.1-10,137.4,0
	c10.1,2.2,17.3,11.2,17.3,21.6v37c0,1.6-0.3,3.1-0.9,4.5H408.4z"/>
<path id="XMLID_141_" class="st8" d="M424.1,382.1c0-10.3,7.2-19.3,17.3-21.6c19.9-4.4,40.2-6.8,60.4-7.4c-25.8-0.7-51.6,1.8-77,7.4
	c-10.1,2.2-17.3,11.2-17.3,21.6v37c0,1.6,0.3,3.1,0.9,4.5H425c-0.6-1.4-0.9-2.9-0.9-4.5V382.1z"/>
<path id="XMLID_109_" class="st4" d="M408.7,444.1c-0.6-1.4-0.9-2.9-0.9-4.5v-37c0-10.3,7.2-19.3,17.3-21.6c45.3-10,92.1-10,137.4,0
	c10.1,2.2,17.3,11.2,17.3,21.6v37c0,1.6-0.3,3.1-0.9,4.5H408.7z"/>
<path id="XMLID_140_" class="st4" d="M562.2,360.6c-25.6-5.6-51.7-8.1-77.7-7.4c20,0.6,40,3,59.8,7.4c10.1,2.2,17.3,11.2,17.3,21.6
	v37c0,1.6-0.3,3.1-0.9,4.5h17.9c0.6-1.4,0.9-2.9,0.9-4.5v-37C579.5,371.8,572.3,362.8,562.2,360.6z"/>
<path id="XMLID_27_" class="st6" d="M408.4,423.6c-0.6-1.4-0.9-2.9-0.9-4.5v-37c0-10.3,7.2-19.3,17.3-21.6c45.3-10,92.1-10,137.4,0
	c10.1,2.2,17.3,11.2,17.3,21.6v37c0,1.6-0.3,3.1-0.9,4.5H408.4z"/>
<path id="XMLID_23_" class="st7" d="M406.5,439.4c0,78.8,0,157.6,0,236.4c0,10,6,17.8,15.2,19.9c11.1,2.6,22.5,4.3,34,5.5
	c3.2,0.3,6.5-1.3,8.3-4c6.4-10,17.7-16.8,30.6-16.7c12.6,0,23.7,6.6,30.2,16.4c1.8,2.7,5.1,4.3,8.4,4c10.2-1.1,20.2-2.8,30-5.1
	c9.3-2.1,15.4-10,15.4-20c0-78.8,0-157.6,0-236.4C524.6,423.7,460.5,423.7,406.5,439.4z"/>
<path id="XMLID_155_" class="st4" d="M458.2,694.6c-6.5-0.7-11.9-1.1-18.8-2.7c-1.1-0.3-2.1-0.6-3.1-1c-4.3-1.7-9,1.5-9,6.2l0,0
	c9.3,1.9,18.9,3.3,28.5,4.3c3.2,0.3,4.2,1,6-1.7c0,0,0-0.1,0.1-0.3C462.2,697,460.5,694.8,458.2,694.6z"/>
<path id="XMLID_157_" class="st8" d="M417.9,692.6c5.6,2.3,7.5-4.5,6.9-7.4c-0.9-4-0.6-10-0.6-13.4c0-78.8,0-157.6,0-236.4
	c2.6-0.8,5.2-1.5,7.8-2.1c-8.7,1.7-17.2,3.7-25.4,6.1c0,78.8,0,157.6,0,236.4c0,10-0.4,13.6,8.8,15.7
	C415.9,691.8,416.6,692.1,417.9,692.6z"/>
<path id="XMLID_139_" class="st4" d="M404.6,581.6c0,28.8,0,57.6,0,86.5c2.9,2,6.3,3.4,10.1,3.9c25,4,50.6,6,75.9,6s50.9-2,75.9-6
	c3.7-0.6,7.1-2,10.1-3.9c0-28.8,0-57.6,0-86.5c-2-4.4-3-9.2-3-14.2v-80c0-4.9,1-9.7,3-14.2c0-11.3,0-22.7,0-34
	c-54-15.8-118-15.8-172,0c0,11.3,0,22.7,0,34c2,4.4,3,9.2,3,14.2v80C407.6,572.3,406.6,577.1,404.6,581.6z"/>
<g id="XMLID_135_">
	<g id="XMLID_182_">
		<path id="XMLID_183_" class="st4" d="M556.1,434.9c1.8,0.5,3.7,1,5.5,1.5c0,78.8,0,157.6,0,236.4c0,10-6.1,17.8-15.4,20
			c-5.9,1.4-10.3,2.1-15.7,2.3c-2.4,0.1-4.3,2.1-4.1,4.5c0,0.1,0,0.2,0.1,0.2c1.8,2.7,3.4,2.4,6.6,2.1c10.2-1.1,20.2-2.8,30-5.1
			c9.3-2.1,15.4-10,15.4-20c0-78.8,0-157.6,0-236.4C571.2,438.3,563.7,436.5,556.1,434.9z"/>
	</g>
</g>
<path id="XMLID_22_" class="st6" d="M406.5,439.4c0,78.8,0,157.6,0,236.4c0,10,6,17.8,15.2,19.9c11.1,2.6,22.5,4.3,34,5.5
	c3.2,0.3,6.5-1.3,8.3-4c6.4-10,17.7-16.8,30.6-16.7c12.6,0,23.7,6.6,30.2,16.4c1.8,2.7,5.1,4.3,8.4,4c10.2-1.1,20.2-2.8,30-5.1
	c9.3-2.1,15.4-10,15.4-20c0-78.8,0-157.6,0-236.4C524.6,423.7,460.5,423.7,406.5,439.4z"/>
<path id="XMLID_130_" class="st11" d="M582.5,446.8v-42.1c0-8.8-6.4-16.4-15.1-17.8c-49.6-7.8-100.1-7.8-149.7,0
	c-8.7,1.4-15.1,8.9-15.1,17.8v42.1c0,3.8,1.3,7.4,3.7,10.3c6.4,7.4,10.3,17,10.3,27.5v80c0,10.5-3.9,20.1-10.3,27.5
	c-2.5,2.8-3.7,6.5-3.7,10.3v42.1c0,8.8,6.4,16.4,15.1,17.8c49.6,7.8,100.1,7.8,149.7,0c8.7-1.4,15.1-8.9,15.1-17.8v-42.1
	c0-3.8-1.3-7.4-3.7-10.3c-6.4-7.4-10.3-17-10.3-27.5v-80c0-10.5,3.9-20.1,10.3-27.5C581.2,454.3,582.5,450.6,582.5,446.8z"/>
<g id="XMLID_21_">
	<path id="XMLID_133_" class="st12" d="M550.5,384.7c-21.4-2.6-43-3.8-64.5-3.5c21.6,0.3,43.1,2,64.5,5.2V384.7z"/>
	<path id="XMLID_145_" class="st12" d="M578.8,457.1c2.5-2.8,3.7-6.5,3.7-10.3v-42.1c0-2.9-0.7-5.6-1.9-8.1
		c-2.8-5.5-11.1-3.6-11.1,2.6v5.4v5.7v36.3c0,3.8-1.3,7.4-3.7,10.3c-6.4,7.4-10.3,17-10.3,27.5v80c0,10.5,3.9,20.1,10.3,27.5
		c2.5,2.8,3.7,6.5,3.7,10.3v42.1c0,0,0,0.1,0,0.1c0,5.4-4.2,10-9.6,10.7c-43.1,5.9-90.3,5.8-133.5,0.7c-4.3-0.5-8.1,2.8-8.1,7
		c25.7,3.5,53.1,5.1,80.4,4.8c-4.2,0.2-8.4,0.3-12.6,0.4c27.2,0.4,54.4-1.6,81.3-5.8c8.7-1.4,15.2-8.9,15.2-17.8v-8v-34.1
		c0-3.8-1.3-7.4-3.7-10.3c-6.4-7.4-10.3-17-10.3-27.5v-80C568.5,474.1,572.4,464.5,578.8,457.1z"/>
</g>
<path id="XMLID_143_" class="st13" d="M494.6,516.4c0-49.4-5.6-95.7-15.2-135.1c-20.6,0.6-41.3,2.4-61.7,5.7
	c-8.7,1.4-15.1,8.9-15.1,17.8v42.1c0,3.8,1.3,7.4,3.7,10.3c6.4,7.4,10.3,17,10.3,27.5v80c0,10.5-3.9,20.1-10.3,27.5
	c-2.5,2.8-3.7,6.5-3.7,10.3v42.1c0,8.8,6.4,16.4,15.1,17.8c19,3,38.2,4.8,57.4,5.5C487.4,625.1,494.6,572.8,494.6,516.4z"/>
<path id="XMLID_138_" class="st14" d="M414.4,446.8v-42.1c0,0,0-0.1,0-0.1c0-5.8,4.5-10.6,10.2-11.4c0.6-0.1,1.2-0.2,1.7-0.2
	c42.7-5.9,92.9-4.7,136,0.8c4.1,0.5,8-1.7,9.7-5.5l0,0c-23.8-3.4-59.5-7.4-83.5-7.2c-0.2,0-0.5,0-0.7,0c-1.2,0-3,0-4.2,0
	c-2,0.1-3.9,0.1-5.9,0.2c-2.9,0.1-5.9,0.2-8.8,0.4c-0.5,0-1,0-1.4,0.1c-2.8,0.1-5.5,0.3-8.2,0.5c-0.6,0-1.3,0.1-1.9,0.1
	c-2.6,0.2-5.1,0.4-7.7,0.6c-0.8,0.1-1.6,0.1-2.4,0.2c-2.4,0.2-4.9,0.5-7.3,0.8c-0.9,0.1-1.8,0.2-2.7,0.3c-2.4,0.3-4.8,0.6-7.3,0.9
	c-0.9,0.1-1.7,0.2-2.6,0.3c-3.1,0.4-6.3,0.9-9.4,1.4c-0.1,0-0.2,0-0.3,0c0,0,0,0,0,0c0,0,0,0,0,0c-8.1,1.3-14.2,7.9-15,15.8
	c0,0.1,0,0.2,0,0.3c0,0.5-0.1,1.1-0.1,1.6v42.1c0,0.5,0,1.1,0.1,1.6c0,0,0,0.1,0,0.1c0.3,3.1,1.6,6.1,3.6,8.5
	c6.4,7.4,10.3,17,10.3,27.5v1.9v78.1c0,0.7,0,1.3,0,2c-0.2,3.9-0.9,7.7-2.1,11.2c-0.3,0.9-0.7,1.9-1,2.8c-0.7,1.8-1.6,3.5-2.6,5.2
	c-0.4,0.8-0.9,1.5-1.4,2.3c-1,1.4-2,2.8-3.1,4.1c-0.9,1.1-1.7,2.2-2.3,3.5c-0.3,0.7-0.5,1.3-0.8,2c-0.3,1.1-0.6,2.2-0.7,3.3
	c0,0.5-0.1,0.9-0.1,1.4v42.1c0,0.6,0,1.2,0.1,1.7c0,0,0,0.1,0,0.1c0.1,0.5,0.1,1.1,0.2,1.6c0,0,0,0,0,0v0c1.4,7.1,7,12.8,14.3,14.2
	c0-4.2-0.7-8.4-2-12.4c-0.5-1.7-0.8-3.4-0.8-5.2v-42.1c0-3.8,1.3-7.4,3.7-10.3c6.4-7.4,10.3-17,10.3-27.5v-80
	c0-10.5-3.9-20.1-10.3-27.5C415.7,454.3,414.4,450.6,414.4,446.8z"/>
<path id="XMLID_4_" class="st6" d="M582.5,446.8v-42.1c0-8.8-6.4-16.4-15.1-17.8c-49.6-7.8-100.1-7.8-149.7,0
	c-8.7,1.4-15.1,8.9-15.1,17.8v42.1c0,3.8,1.3,7.4,3.7,10.3c6.4,7.4,10.3,17,10.3,27.5v80c0,10.5-3.9,20.1-10.3,27.5
	c-2.5,2.8-3.7,6.5-3.7,10.3v42.1c0,8.8,6.4,16.4,15.1,17.8c49.6,7.8,100.1,7.8,149.7,0c8.7-1.4,15.1-8.9,15.1-17.8v-42.1
	c0-3.8-1.3-7.4-3.7-10.3c-6.4-7.4-10.3-17-10.3-27.5v-80c0-10.5,3.9-20.1,10.3-27.5C581.2,454.3,582.5,450.6,582.5,446.8z"/>
<path id="XMLID_43_" class="st15" d="M532.1,525.6h-78c-6.6,0-12-5.4-12-12v-68c0-6.6,5.4-12,12-12h78c6.6,0,12,5.4,12,12v68
	C544.1,520.2,538.8,525.6,532.1,525.6z"/>
<path id="XMLID_15_" class="st7" d="M532.1,522.6h-78c-6.6,0-12-5.4-12-12v-68c0-6.6,5.4-12,12-12h78c6.6,0,12,5.4,12,12v68
	C544.1,517.2,538.8,522.6,532.1,522.6z"/>
<path id="XMLID_159_" class="st4" d="M448.1,510.6v-68c0-6.6,5.4-12,12-12h-5.3c-6.6,0-12,5.4-12,12v68c0,6.6,5.4,12,12,12h5.3
	C453.5,522.6,448.1,517.2,448.1,510.6z"/>
<path id="XMLID_156_" class="st4" d="M532.1,430.6h-6c6.6,0,12,5.4,12,12v68c0,6.6-5.4,12-12,12h6c6.6,0,12-5.4,12-12v-68
	C544.1,436,538.8,430.6,532.1,430.6z"/>
<path id="XMLID_13_" class="st6" d="M532.1,522.6h-78c-6.6,0-12-5.4-12-12v-68c0-6.6,5.4-12,12-12h78c6.6,0,12,5.4,12,12v68
	C544.1,517.2,538.8,522.6,532.1,522.6z"/>
<circle id="XMLID_17_" class="st5" cx="460.1" cy="478.9" r="4"/>
<circle id="XMLID_25_" class="st5" cx="471.6" cy="478.9" r="4"/>
<circle id="XMLID_28_" class="st5" cx="483.1" cy="478.9" r="4"/>
<circle id="XMLID_29_" class="st5" cx="494.6" cy="478.9" r="4"/>
<circle id="XMLID_30_" class="st5" cx="506.1" cy="478.9" r="4"/>
<circle id="XMLID_31_" class="st5" cx="517.6" cy="478.9" r="4"/>
<circle id="XMLID_33_" class="st5" cx="529.2" cy="478.9" r="4"/>
<circle id="XMLID_64_" class="st5" cx="465.8" cy="467.5" r="4"/>
<circle id="XMLID_62_" class="st5" cx="477.4" cy="467.5" r="4"/>
<circle id="XMLID_61_" class="st5" cx="488.9" cy="467.5" r="4"/>
<circle id="XMLID_60_" class="st5" cx="500.4" cy="467.5" r="4"/>
<circle id="XMLID_57_" class="st5" cx="511.9" cy="467.5" r="4"/>
<circle id="XMLID_54_" class="st5" cx="523.4" cy="467.5" r="4"/>
<circle id="XMLID_78_" class="st5" cx="471.6" cy="456.1" r="4"/>
<circle id="XMLID_77_" class="st5" cx="483.1" cy="456.1" r="4"/>
<circle id="XMLID_76_" class="st5" cx="494.6" cy="456.1" r="4"/>
<circle id="XMLID_75_" class="st5" cx="506.1" cy="456.1" r="4"/>
<circle id="XMLID_39_" class="st5" cx="517.6" cy="456.1" r="4"/>
<circle id="XMLID_85_" class="st5" cx="465.8" cy="490.3" r="4"/>
<circle id="XMLID_84_" class="st5" cx="477.4" cy="490.3" r="4"/>
<circle id="XMLID_83_" class="st5" cx="488.9" cy="490.3" r="4"/>
<circle id="XMLID_82_" class="st5" cx="500.4" cy="490.3" r="4"/>
<circle id="XMLID_81_" class="st5" cx="511.9" cy="490.3" r="4"/>
<circle id="XMLID_80_" class="st5" cx="523.4" cy="490.3" r="4"/>
<circle id="XMLID_91_" class="st5" cx="471.6" cy="501.7" r="4"/>
<circle id="XMLID_69_" class="st16" cx="460.1" cy="501.7" r="4"/>
<circle id="XMLID_79_" class="st16" cx="460.1" cy="456.1" r="4"/>
<circle id="XMLID_86_" class="st16" cx="477.4" cy="446.4" r="4"/>
<circle id="XMLID_92_" class="st16" cx="488.9" cy="446.4" r="4"/>
<circle id="XMLID_93_" class="st16" cx="500.4" cy="446.4" r="4"/>
<circle id="XMLID_102_" class="st16" cx="511.9" cy="446.4" r="4"/>
<circle id="XMLID_90_" class="st5" cx="483.1" cy="501.7" r="4"/>
<circle id="XMLID_89_" class="st5" cx="494.6" cy="501.7" r="4"/>
<circle id="XMLID_88_" class="st5" cx="506.1" cy="501.1" r="4"/>
<circle id="XMLID_87_" class="st5" cx="517.6" cy="501.7" r="4"/>
<circle id="XMLID_40_" class="st16" cx="529.2" cy="501.7" r="4"/>
<circle id="XMLID_70_" class="st16" cx="529.2" cy="456.1" r="4"/>
<path id="XMLID_123_" class="st17" d="M506.4,610.4h-20c-3.3,0-6-2.7-6-6v-20c0-3.3,2.7-6,6-6h20c3.3,0,6,2.7,6,6v20
	C512.4,607.7,509.7,610.4,506.4,610.4z"/>
<path id="XMLID_35_" class="st18" d="M503.6,610.4h-20c-3.3,0-6-2.7-6-6v-20c0-3.3,2.7-6,6-6h20c3.3,0,6,2.7,6,6v20
	C509.6,607.7,506.9,610.4,503.6,610.4z"/>
<path id="XMLID_104_" class="st19" d="M483.6,591.4v-5c0-1.1,0.9-2,2-2h12"/>
<path id="XMLID_34_" class="st20" d="M503.6,610.4h-20c-3.3,0-6-2.7-6-6v-20c0-3.3,2.7-6,6-6h20c3.3,0,6,2.7,6,6v20
	C509.6,607.7,506.9,610.4,503.6,610.4z"/>
<path id="XMLID_124_" class="st17" d="M551.6,610.4h-20c-3.3,0-6-2.7-6-6v-20c0-3.3,2.7-6,6-6h20c3.3,0,6,2.7,6,6v20
	C557.6,607.7,554.9,610.4,551.6,610.4z"/>
<g id="XMLID_105_">
	<path id="XMLID_121_" class="st11" d="M496.5,590.8v2.8c-0.4-0.4-0.7-0.7-1.1-0.9c-0.4-0.2-0.7-0.3-1.1-0.3c-0.7,0-1.3,0.3-1.8,0.8
		c-0.2,0.2-0.3,0.4-0.4,0.6c-0.1,0.2-0.2,0.4-0.2,0.7c0,0.2-0.1,0.5-0.1,0.8c0,0.8,0.2,1.4,0.7,1.9c0.5,0.5,1.1,0.7,1.8,0.7
		c0.4,0,0.8-0.1,1.1-0.3c0.3-0.2,0.7-0.5,1.1-0.9v2.8c-0.5,0.2-0.9,0.4-1.2,0.4c-0.4,0.1-0.8,0.1-1.2,0.1c-0.5,0-1-0.1-1.4-0.2
		c-0.5-0.1-0.9-0.3-1.2-0.6c-0.7-0.5-1.2-1.1-1.6-1.8c-0.4-0.7-0.6-1.6-0.6-2.4c0-0.7,0.1-1.4,0.4-2c0.1-0.3,0.2-0.6,0.4-0.8
		c0.2-0.3,0.4-0.5,0.6-0.8c0.5-0.5,1-0.8,1.5-1c0.6-0.2,1.2-0.3,1.9-0.3c0.4,0,0.8,0,1.2,0.1C495.7,590.5,496.1,590.6,496.5,590.8z"
		/>
</g>
<path id="XMLID_108_" class="st1" d="M549.8,610.4h-20c-3.3,0-6-2.7-6-6v-20c0-3.3,2.7-6,6-6h20c3.3,0,6,2.7,6,6v20
	C555.8,607.7,553.1,610.4,549.8,610.4z"/>
<path id="XMLID_107_" class="st21" d="M528.8,591.4v-5c0-1.1,0.9-2,2-2h12"/>
<path id="XMLID_106_" class="st20" d="M548.8,610.4h-20c-3.3,0-6-2.7-6-6v-20c0-3.3,2.7-6,6-6h20c3.3,0,6,2.7,6,6v20
	C554.8,607.7,552.1,610.4,548.8,610.4z"/>
<path id="XMLID_127_" class="st11" d="M538,597.6l-4.3-4.3c-1-1-0.3-2.8,1.2-2.8h8.5c1.5,0,2.2,1.8,1.2,2.8l-4.3,4.3
	C539.7,598.3,538.7,598.3,538,597.6z"/>
<path id="XMLID_118_" class="st17" d="M462.2,610.4h-20c-3.3,0-6-2.7-6-6v-20c0-3.3,2.7-6,6-6h20c3.3,0,6,2.7,6,6v20
	C468.2,607.7,465.6,610.4,462.2,610.4z"/>
<path id="XMLID_129_" class="st1" d="M458.5,610.4h-20c-3.3,0-6-2.7-6-6v-20c0-3.3,2.7-6,6-6h20c3.3,0,6,2.7,6,6v20
	C464.5,607.7,461.8,610.4,458.5,610.4z"/>
<path id="XMLID_128_" class="st21" d="M438.5,591.4v-5c0-1.1,0.9-2,2-2h12"/>
<path id="XMLID_126_" class="st20" d="M459.5,610.4h-20c-3.3,0-6-2.7-6-6v-20c0-3.3,2.7-6,6-6h20c3.3,0,6,2.7,6,6v20
	C465.5,607.7,462.8,610.4,459.5,610.4z"/>
<path id="XMLID_125_" class="st11" d="M447.7,591.1l-4.3,4.3c-1,1-0.3,2.8,1.2,2.8h8.5c1.5,0,2.2-1.8,1.2-2.8l-4.3-4.3
	C449.4,590.4,448.4,590.4,447.7,591.1z"/>
<path id="XMLID_151_" class="st22" d="M512.6,408.9h-16.8c-1.2,0-2.2-1-2.2-2.2l0,0c0-1.2,1-2.2,2.2-2.2h16.8c1.2,0,2.2,1,2.2,2.2
	l0,0C514.8,407.9,513.8,408.9,512.6,408.9z"/>
<path id="XMLID_163_" class="st22" d="M512.6,415h-37c-1.2,0-2.2-1-2.2-2.2l0,0c0-1.2,1-2.2,2.2-2.2h37c1.2,0,2.2,1,2.2,2.2l0,0
	C514.8,414,513.8,415,512.6,415z"/>
</svg>
