<svg height="494" viewBox="0 0 205 494" width="205" xmlns="http://www.w3.org/2000/svg"><g fill="none" fill-rule="evenodd" transform="translate(3 3)"><path d="m154.3 124.6h22v26h-22z" style="stroke:#7ba884;stroke-width:6;fill:#7ba884;fill-rule:nonzero;stroke-linecap:round;stroke-linejoin:round"/><path d="m175.4 126.6h-20.1c-3.5 0-6.2-2.6-6.2-5.9l.6-19.6c.1-3.1 2.8-5.5 6.2-5.5h19c3.3 0 6.1 2.5 6.2 5.5l.6 19.6c-.1 3.3-2.9 5.9-6.3 5.9z" style="stroke:#7ba884;stroke-width:6;fill:#7ba884;fill-rule:nonzero;stroke-linecap:round;stroke-linejoin:round"/><path d="m132.2 126.6h-20.1c-3.5 0-6.2-2.6-6.2-5.9l.6-19.6c.1-3.1 2.8-5.5 6.2-5.5h19c3.3 0 6.1 2.5 6.2 5.5l.6 19.6c-.1 3.3-2.8 5.9-6.3 5.9z" style="stroke:#7ba884;stroke-width:6;fill:#7ba884;fill-rule:nonzero;stroke-linecap:round;stroke-linejoin:round"/><path d="m76.1 128.6h-32l3.2-119c.1-5 4.3-9 9.3-9h7c5 0 9.2 4 9.3 9z" style="stroke:#7ba884;stroke-width:6;fill:#7ba884;fill-rule:nonzero;stroke-linecap:round;stroke-linejoin:round"/><path d="m40.1 124.6h40v26h-40z" style="stroke:#7ba884;stroke-width:6;fill:#7ba884;fill-rule:nonzero;stroke-linecap:round;stroke-linejoin:round"/><path d="m111.6 124.6h22v26h-22z" style="stroke:#7ba884;stroke-width:6;fill:#7ba884;fill-rule:nonzero;stroke-linecap:round;stroke-linejoin:round"/><path d="m24.4 209.6c-.6-1.4-.9-2.9-.9-4.5v-37c0-10.3 7.2-19.3 17.3-21.6 45.3-10 92.1-10 137.4 0 10.1 2.2 17.3 11.2 17.3 21.6v37c0 1.6-.3 3.1-.9 4.5z" style="stroke:#7ba884;stroke-width:6;fill:#7ba884;fill-rule:nonzero;stroke-linecap:round;stroke-linejoin:round"/><path d="m22.5 225.4v236.4c0 10 6 17.8 15.2 19.9 11.1 2.6 22.5 4.3 34 5.5 3.2.3 6.5-1.3 8.3-4 6.4-10 17.7-16.8 30.6-16.7 12.6 0 23.7 6.6 30.2 16.4 1.8 2.7 5.1 4.3 8.4 4 10.2-1.1 20.2-2.8 30-5.1 9.3-2.1 15.4-10 15.4-20 0-78.8 0-157.6 0-236.4-54-15.7-118.1-15.7-172.1 0z" style="stroke:#7ba884;stroke-width:6;fill:#7ba884;fill-rule:nonzero;stroke-linecap:round;stroke-linejoin:round"/><path d="m198.5 232.8v-42.1c0-8.8-6.4-16.4-15.1-17.8-49.6-7.8-100.1-7.8-149.7 0-8.7 1.4-15.1 8.9-15.1 17.8v42.1c0 3.8 1.3 7.4 3.7 10.3 6.4 7.4 10.3 17 10.3 27.5v80c0 10.5-3.9 20.1-10.3 27.5-2.5 2.8-3.7 6.5-3.7 10.3v42.1c0 8.8 6.4 16.4 15.1 17.8 49.6 7.8 100.1 7.8 149.7 0 8.7-1.4 15.1-8.9 15.1-17.8v-42.1c0-3.8-1.3-7.4-3.7-10.3-6.4-7.4-10.3-17-10.3-27.5v-80c0-10.5 3.9-20.1 10.3-27.5 2.4-2.8 3.7-6.5 3.7-10.3z" style="stroke:#7ba884;stroke-width:6;fill:#7ba884;fill-rule:nonzero;stroke-linecap:round;stroke-linejoin:round"/><path d="m6.5 277.7h-.8c-3 0-5.4-2.4-5.4-5.4 0-3 2.4-5.4 5.4-5.4h.8c3 0 5.4 2.4 5.4 5.4 0 3-2.4 5.4-5.4 5.4z" style="stroke:#404041;stroke-width:6;fill:#404041;fill-rule:nonzero;stroke-linecap:round;stroke-linejoin:round"/><path d="m6.5 298.5h-.8c-3 0-5.4-2.4-5.4-5.4 0-3 2.4-5.4 5.4-5.4h.8c3 0 5.4 2.4 5.4 5.4 0 3-2.4 5.4-5.4 5.4z" style="stroke:#404041;stroke-width:6;fill:#404041;fill-rule:nonzero;stroke-linecap:round;stroke-linejoin:round"/><path d="m139.3 124.6h22v26h-22z" fill="#635142" fill-rule="nonzero"/><path d="m150.3 124.6h11v26h-11z" fill="#404041" fill-rule="nonzero"/><path d="m139.3 124.6h22v26h-22z" stroke="#404041" stroke-linecap="round" stroke-linejoin="round" stroke-width="6"/><path d="m160.4 126.6h-20.1c-3.5 0-6.2-2.6-6.2-5.9l.6-19.6c.1-3.1 2.8-5.5 6.2-5.5h19c3.3 0 6.1 2.5 6.2 5.5l.6 19.6c-.1 3.3-2.9 5.9-6.3 5.9z" fill="#705d4c" fill-rule="nonzero"/><path d="m138.6 122.8-1.5-.1.8-23.5 1.5.1c1.9.1 3.4 1.7 3.4 3.6l-.6 16.5c-.1 1.9-1.7 3.5-3.6 3.4z" fill="#897160" fill-rule="nonzero"/><path d="m166 101.2c-.1-3.1-2.8-5.5-6.2-5.5h-12.8c3.3 0 6.1 2.5 6.2 5.5l.6 19.6c.1 3.2-2.7 5.9-6.2 5.9h12.8c3.5 0 6.2-2.6 6.2-5.9z" fill="#635142" fill-rule="nonzero" opacity=".81"/><path d="m160.4 126.6h-20.1c-3.5 0-6.2-2.6-6.2-5.9l.6-19.6c.1-3.1 2.8-5.5 6.2-5.5h19c3.3 0 6.1 2.5 6.2 5.5l.6 19.6c-.1 3.3-2.9 5.9-6.3 5.9z" stroke="#404041" stroke-linecap="round" stroke-linejoin="round" stroke-width="6"/><path d="m117.2 126.6h-20.1c-3.5 0-6.2-2.6-6.2-5.9l.6-19.6c.1-3.1 2.8-5.5 6.2-5.5h19c3.3 0 6.1 2.5 6.2 5.5l.6 19.6c-.1 3.3-2.8 5.9-6.3 5.9z" fill="#705d4c" fill-rule="nonzero"/><path d="m95.4 122.8-1.5-.1.8-23.5 1.5.1c1.9.1 3.4 1.7 3.4 3.6l-.6 16.5c-.1 1.9-1.7 3.5-3.6 3.4z" fill="#897160" fill-rule="nonzero"/><path d="m122.8 101.2c-.1-3.1-2.8-5.5-6.2-5.5h-12.8c3.3 0 6.1 2.5 6.2 5.5l.6 19.6c.1 3.2-2.7 5.9-6.2 5.9h12.8c3.5 0 6.2-2.6 6.2-5.9z" fill="#635142" fill-rule="nonzero" opacity=".81"/><path d="m117.2 126.6h-20.1c-3.5 0-6.2-2.6-6.2-5.9l.6-19.6c.1-3.1 2.8-5.5 6.2-5.5h19c3.3 0 6.1 2.5 6.2 5.5l.6 19.6c-.1 3.3-2.8 5.9-6.3 5.9z" stroke="#404041" stroke-linecap="round" stroke-linejoin="round" stroke-width="6"/><path d="m61.1 128.6h-32l3.2-119c.1-5 4.3-9 9.3-9h7c5 0 9.2 4 9.3 9z" fill="#705d4c" fill-rule="nonzero"/><path d="m32.6 5.8c-.1.6-.2 1.1-.2 1.7l-3.2 121.1h8.3s2.4-86.9 3.2-114.5c.1-4.6-3.6-8.3-8.1-8.3z" fill="#897160" fill-rule="nonzero"/><path d="m36.9 3.1c5 0 9.2 4 9.3 9l3.5 116.5h12.6l-3.6-119c-.2-5-4.3-9-9.3-9h-7c-2.4 0-4.7 1-6.3 2.5z" fill="#635142" fill-rule="nonzero" opacity=".81"/><path d="m61.1 128.6h-32l3.2-119c.1-5 4.3-9 9.3-9h7c5 0 9.2 4 9.3 9z" stroke="#404041" stroke-linecap="round" stroke-linejoin="round" stroke-width="6"/><path d="m25.1 124.6h40v26h-40z" fill="#635142" fill-rule="nonzero"/><path d="m29.1 143.7c-2.1 0-3.7-1.7-3.7-3.7v-10.6c0-2.1 1.7-3.7 3.7-3.7 2.1 0 3.7 1.7 3.7 3.7v10.6c.1 2.1-1.6 3.7-3.7 3.7z" fill="#897160" fill-rule="nonzero" opacity=".75"/><path d="m49.1 124.6h16v26h-16z" fill="#404041" fill-rule="nonzero"/><path d="m25.1 124.6h40v26h-40z" stroke="#404041" stroke-linecap="round" stroke-linejoin="round" stroke-width="6"/><path d="m96.6 124.6h22v26h-22z" fill="#635142" fill-rule="nonzero"/><path d="m107.6 124.6h11v26h-11z" fill="#404041" fill-rule="nonzero"/><path d="m96.6 124.6h22v26h-22z" stroke="#404041" stroke-linecap="round" stroke-linejoin="round" stroke-width="6"/><path d="m9.4 209.6c-.6-1.4-.9-2.9-.9-4.5v-37c0-10.3 7.2-19.3 17.3-21.6 45.3-10 92.1-10 137.4 0 10.1 2.2 17.3 11.2 17.3 21.6v37c0 1.6-.3 3.1-.9 4.5z" fill="#705d4c" fill-rule="nonzero"/><path d="m25.1 168.1c0-10.3 7.2-19.3 17.3-21.6 19.9-4.4 40.2-6.8 60.4-7.4-25.8-.7-51.6 1.8-77 7.4-10.1 2.2-17.3 11.2-17.3 21.6v37c0 1.6.3 3.1.9 4.5h16.6c-.6-1.4-.9-2.9-.9-4.5z" fill="#897160" fill-rule="nonzero"/><path d="m9.7 230.1c-.6-1.4-.9-2.9-.9-4.5v-37c0-10.3 7.2-19.3 17.3-21.6 45.3-10 92.1-10 137.4 0 10.1 2.2 17.3 11.2 17.3 21.6v37c0 1.6-.3 3.1-.9 4.5z" fill="#635142" fill-rule="nonzero"/><path d="m163.2 146.6c-25.6-5.6-51.7-8.1-77.7-7.4 20 .6 40 3 59.8 7.4 10.1 2.2 17.3 11.2 17.3 21.6v37c0 1.6-.3 3.1-.9 4.5h17.9c.6-1.4.9-2.9.9-4.5v-37c0-10.4-7.2-19.4-17.3-21.6z" fill="#635142" fill-rule="nonzero"/><path d="m9.4 209.6c-.6-1.4-.9-2.9-.9-4.5v-37c0-10.3 7.2-19.3 17.3-21.6 45.3-10 92.1-10 137.4 0 10.1 2.2 17.3 11.2 17.3 21.6v37c0 1.6-.3 3.1-.9 4.5z" stroke="#404041" stroke-linecap="round" stroke-linejoin="round" stroke-width="6"/><path d="m7.5 225.4v236.4c0 10 6 17.8 15.2 19.9 11.1 2.6 22.5 4.3 34 5.5 3.2.3 6.5-1.3 8.3-4 6.4-10 17.7-16.8 30.6-16.7 12.6 0 23.7 6.6 30.2 16.4 1.8 2.7 5.1 4.3 8.4 4 10.2-1.1 20.2-2.8 30-5.1 9.3-2.1 15.4-10 15.4-20 0-78.8 0-157.6 0-236.4-54-15.7-118.1-15.7-172.1 0z" fill="#705d4c" fill-rule="nonzero"/><path d="m59.2 480.6c-6.5-.7-11.9-1.1-18.8-2.7-1.1-.3-2.1-.6-3.1-1-4.3-1.7-9 1.5-9 6.2 9.3 1.9 18.9 3.3 28.5 4.3 3.2.3 4.2 1 6-1.7 0 0 0-.1.1-.3.3-2.4-1.4-4.6-3.7-4.8z" fill="#635142" fill-rule="nonzero"/><path d="m18.9 478.6c5.6 2.3 7.5-4.5 6.9-7.4-.9-4-.6-10-.6-13.4 0-78.8 0-157.6 0-236.4 2.6-.8 5.2-1.5 7.8-2.1-8.7 1.7-17.2 3.7-25.4 6.1v236.4c0 10-.4 13.6 8.8 15.7.5.3 1.2.6 2.5 1.1z" fill="#897160" fill-rule="nonzero"/><path d="m5.6 367.6v86.5c2.9 2 6.3 3.4 10.1 3.9 25 4 50.6 6 75.9 6s50.9-2 75.9-6c3.7-.6 7.1-2 10.1-3.9 0-28.8 0-57.6 0-86.5-2-4.4-3-9.2-3-14.2v-80c0-4.9 1-9.7 3-14.2 0-11.3 0-22.7 0-34-54-15.8-118-15.8-172 0v34c2 4.4 3 9.2 3 14.2v80c0 4.9-1 9.7-3 14.2z" fill="#635142" fill-rule="nonzero"/><path d="m30.1.9c1.8.5 3.7 1 5.5 1.5v236.4c0 10-6.1 17.8-15.4 20-5.9 1.4-10.3 2.1-15.7 2.3-2.4.1-4.3 2.1-4.1 4.5 0 .1 0 .2.1.2 1.8 2.7 3.4 2.4 6.6 2.1 10.2-1.1 20.2-2.8 30-5.1 9.3-2.1 15.4-10 15.4-20 0-78.8 0-157.6 0-236.4-7.3-2.1-14.8-3.9-22.4-5.5z" fill="#635142" fill-rule="nonzero" transform="translate(127 220)"/><path d="m7.5 225.4v236.4c0 10 6 17.8 15.2 19.9 11.1 2.6 22.5 4.3 34 5.5 3.2.3 6.5-1.3 8.3-4 6.4-10 17.7-16.8 30.6-16.7 12.6 0 23.7 6.6 30.2 16.4 1.8 2.7 5.1 4.3 8.4 4 10.2-1.1 20.2-2.8 30-5.1 9.3-2.1 15.4-10 15.4-20 0-78.8 0-157.6 0-236.4-54-15.7-118.1-15.7-172.1 0z" stroke="#404041" stroke-linecap="round" stroke-linejoin="round" stroke-width="6"/><path d="m183.5 232.8v-42.1c0-8.8-6.4-16.4-15.1-17.8-49.6-7.8-100.1-7.8-149.7 0-8.7 1.4-15.1 8.9-15.1 17.8v42.1c0 3.8 1.3 7.4 3.7 10.3 6.4 7.4 10.3 17 10.3 27.5v80c0 10.5-3.9 20.1-10.3 27.5-2.5 2.8-3.7 6.5-3.7 10.3v42.1c0 8.8 6.4 16.4 15.1 17.8 49.6 7.8 100.1 7.8 149.7 0 8.7-1.4 15.1-8.9 15.1-17.8v-42.1c0-3.8-1.3-7.4-3.7-10.3-6.4-7.4-10.3-17-10.3-27.5v-80c0-10.5 3.9-20.1 10.3-27.5 2.4-2.8 3.7-6.5 3.7-10.3z" fill="#fec556" fill-rule="nonzero"/><g fill="#f8a342" fill-rule="nonzero" transform="translate(19 167)"><path d="m132.5 3.7c-21.4-2.6-43-3.8-64.5-3.5 21.6.3 43.1 2 64.5 5.2z"/><path d="m160.8 76.1c2.5-2.8 3.7-6.5 3.7-10.3v-42.1c0-2.9-.7-5.6-1.9-8.1-2.8-5.5-11.1-3.6-11.1 2.6v5.4 5.7 36.3c0 3.8-1.3 7.4-3.7 10.3-6.4 7.4-10.3 17-10.3 27.5v80c0 10.5 3.9 20.1 10.3 27.5 2.5 2.8 3.7 6.5 3.7 10.3v42.1.1c0 5.4-4.2 10-9.6 10.7-43.1 5.9-90.3 5.8-133.5.7-4.3-.5-8.1 2.8-8.1 7 25.7 3.5 53.1 5.1 80.4 4.8-4.2.2-8.4.3-12.6.4 27.2.4 54.4-1.6 81.3-5.8 8.7-1.4 15.2-8.9 15.2-17.8v-8-34.1c0-3.8-1.3-7.4-3.7-10.3-6.4-7.4-10.3-17-10.3-27.5v-80c-.1-10.4 3.8-20 10.2-27.4z"/></g><path d="m95.6 302.4c0-49.4-5.6-95.7-15.2-135.1-20.6.6-41.3 2.4-61.7 5.7-8.7 1.4-15.1 8.9-15.1 17.8v42.1c0 3.8 1.3 7.4 3.7 10.3 6.4 7.4 10.3 17 10.3 27.5v80c0 10.5-3.9 20.1-10.3 27.5-2.5 2.8-3.7 6.5-3.7 10.3v42.1c0 8.8 6.4 16.4 15.1 17.8 19 3 38.2 4.8 57.4 5.5 12.3-42.8 19.5-95.1 19.5-151.5z" fill="#fdd08a" fill-rule="nonzero" opacity=".39"/><path d="m15.4 232.8v-42.1-.1c0-5.8 4.5-10.6 10.2-11.4.6-.1 1.2-.2 1.7-.2 42.7-5.9 92.9-4.7 136 .8 4.1.5 8-1.7 9.7-5.5-23.8-3.4-59.5-7.4-83.5-7.2-.2 0-.5 0-.7 0-1.2 0-3 0-4.2 0-2 .1-3.9.1-5.9.2-2.9.1-5.9.2-8.8.4-.5 0-1 0-1.4.1-2.8.1-5.5.3-8.2.5-.6 0-1.3.1-1.9.1-2.6.2-5.1.4-7.7.6-.8.1-1.6.1-2.4.2-2.4.2-4.9.5-7.3.8-.9.1-1.8.2-2.7.3-2.4.3-4.8.6-7.3.9-.9.1-1.7.2-2.6.3-3.1.4-6.3.9-9.4 1.4-.1 0-.2 0-.3 0-8.1 1.3-14.2 7.9-15 15.8v.3c0 .5-.1 1.1-.1 1.6v42.1c0 .5 0 1.1.1 1.6v.1c.3 3.1 1.6 6.1 3.6 8.5 6.4 7.4 10.3 17 10.3 27.5v1.9 78.1 2c-.2 3.9-.9 7.7-2.1 11.2-.3.9-.7 1.9-1 2.8-.7 1.8-1.6 3.5-2.6 5.2-.4.8-.9 1.5-1.4 2.3-1 1.4-2 2.8-3.1 4.1-.9 1.1-1.7 2.2-2.3 3.5-.3.7-.5 1.3-.8 2-.3 1.1-.6 2.2-.7 3.3 0 .5-.1.9-.1 1.4v42.1c0 .6 0 1.2.1 1.7v.1c.1.5.1 1.1.2 1.6 1.4 7.1 7 12.8 14.3 14.2 0-4.2-.7-8.4-2-12.4-.5-1.7-.8-3.4-.8-5.2v-42.1c0-3.8 1.3-7.4 3.7-10.3 6.4-7.4 10.3-17 10.3-27.5v-80c0-10.5-3.9-20.1-10.3-27.5-2.3-2.6-3.6-6.3-3.6-10.1z" fill="#fdd08a" fill-rule="nonzero" opacity=".88"/><path d="m183.5 232.8v-42.1c0-8.8-6.4-16.4-15.1-17.8-49.6-7.8-100.1-7.8-149.7 0-8.7 1.4-15.1 8.9-15.1 17.8v42.1c0 3.8 1.3 7.4 3.7 10.3 6.4 7.4 10.3 17 10.3 27.5v80c0 10.5-3.9 20.1-10.3 27.5-2.5 2.8-3.7 6.5-3.7 10.3v42.1c0 8.8 6.4 16.4 15.1 17.8 49.6 7.8 100.1 7.8 149.7 0 8.7-1.4 15.1-8.9 15.1-17.8v-42.1c0-3.8-1.3-7.4-3.7-10.3-6.4-7.4-10.3-17-10.3-27.5v-80c0-10.5 3.9-20.1 10.3-27.5 2.4-2.8 3.7-6.5 3.7-10.3z" stroke="#404041" stroke-linecap="round" stroke-linejoin="round" stroke-width="6"/><path d="m133.1 311.6h-78c-6.6 0-12-5.4-12-12v-68c0-6.6 5.4-12 12-12h78c6.6 0 12 5.4 12 12v68c0 6.6-5.3 12-12 12z" style="stroke:#f48b34;stroke-width:6;fill:#f48b34;fill-rule:nonzero;opacity:.59;stroke-linecap:round;stroke-linejoin:round"/><path d="m133.1 308.6h-78c-6.6 0-12-5.4-12-12v-68c0-6.6 5.4-12 12-12h78c6.6 0 12 5.4 12 12v68c0 6.6-5.3 12-12 12z" fill="#705d4c" fill-rule="nonzero"/><path d="m49.1 296.6v-68c0-6.6 5.4-12 12-12h-5.3c-6.6 0-12 5.4-12 12v68c0 6.6 5.4 12 12 12h5.3c-6.6 0-12-5.4-12-12z" fill="#635142" fill-rule="nonzero"/><path d="m133.1 216.6h-6c6.6 0 12 5.4 12 12v68c0 6.6-5.4 12-12 12h6c6.6 0 12-5.4 12-12v-68c0-6.6-5.3-12-12-12z" fill="#635142" fill-rule="nonzero"/><path d="m133.1 308.6h-78c-6.6 0-12-5.4-12-12v-68c0-6.6 5.4-12 12-12h78c6.6 0 12 5.4 12 12v68c0 6.6-5.3 12-12 12z" stroke="#404041" stroke-linecap="round" stroke-linejoin="round" stroke-width="6"/><g fill-rule="nonzero"><circle cx="61.1" cy="264.9" fill="#404041" r="4"/><circle cx="72.6" cy="264.9" fill="#404041" r="4"/><circle cx="84.1" cy="264.9" fill="#404041" r="4"/><circle cx="95.6" cy="264.9" fill="#404041" r="4"/><circle cx="107.1" cy="264.9" fill="#404041" r="4"/><circle cx="118.6" cy="264.9" fill="#404041" r="4"/><circle cx="130.2" cy="264.9" fill="#404041" r="4"/><circle cx="66.8" cy="253.5" fill="#404041" r="4"/><circle cx="78.4" cy="253.5" fill="#404041" r="4"/><circle cx="89.9" cy="253.5" fill="#404041" r="4"/><circle cx="101.4" cy="253.5" fill="#404041" r="4"/><circle cx="112.9" cy="253.5" fill="#404041" r="4"/><circle cx="124.4" cy="253.5" fill="#404041" r="4"/><circle cx="72.6" cy="242.1" fill="#404041" r="4"/><circle cx="84.1" cy="242.1" fill="#404041" r="4"/><circle cx="95.6" cy="242.1" fill="#404041" r="4"/><circle cx="107.1" cy="242.1" fill="#404041" r="4"/><circle cx="118.6" cy="242.1" fill="#404041" r="4"/><circle cx="66.8" cy="276.3" fill="#404041" r="4"/><circle cx="78.4" cy="276.3" fill="#404041" r="4"/><circle cx="89.9" cy="276.3" fill="#404041" r="4"/><circle cx="101.4" cy="276.3" fill="#404041" r="4"/><circle cx="112.9" cy="276.3" fill="#404041" r="4"/><circle cx="124.4" cy="276.3" fill="#404041" r="4"/><circle cx="72.6" cy="287.7" fill="#404041" r="4"/><circle cx="61.1" cy="287.7" fill="#404041" opacity=".35" r="4"/><circle cx="61.1" cy="242.1" fill="#404041" opacity=".35" r="4"/><circle cx="78.4" cy="232.4" fill="#404041" opacity=".35" r="4"/><circle cx="89.9" cy="232.4" fill="#404041" opacity=".35" r="4"/><circle cx="101.4" cy="232.4" fill="#404041" opacity=".35" r="4"/><circle cx="112.9" cy="232.4" fill="#404041" opacity=".35" r="4"/><circle cx="84.1" cy="287.7" fill="#404041" r="4"/><circle cx="95.6" cy="287.7" fill="#404041" r="4"/><circle cx="107.1" cy="287.1" fill="#404041" r="4"/><circle cx="118.6" cy="287.7" fill="#404041" r="4"/><circle cx="130.2" cy="287.7" fill="#404041" opacity=".35" r="4"/><circle cx="130.2" cy="242.1" fill="#404041" opacity=".35" r="4"/><path d="m107.4 396.4h-20c-3.3 0-6-2.7-6-6v-20c0-3.3 2.7-6 6-6h20c3.3 0 6 2.7 6 6v20c0 3.3-2.7 6-6 6z" style="stroke:#f48b34;stroke-width:4;fill:#f48b34;opacity:.59;stroke-linecap:round;stroke-linejoin:round"/><path d="m104.6 396.4h-20c-3.3 0-6-2.7-6-6v-20c0-3.3 2.7-6 6-6h20c3.3 0 6 2.7 6 6v20c0 3.3-2.7 6-6 6z" fill="#dd3748"/></g><path d="m84.6 377.4v-5c0-1.1.9-2 2-2h12" opacity=".3" stroke="#404041" stroke-linecap="round" stroke-linejoin="round" stroke-width="3"/><path d="m104.6 396.4h-20c-3.3 0-6-2.7-6-6v-20c0-3.3 2.7-6 6-6h20c3.3 0 6 2.7 6 6v20c0 3.3-2.7 6-6 6z" stroke="#404041" stroke-linecap="round" stroke-linejoin="round" stroke-width="4"/><path d="m152.6 396.4h-20c-3.3 0-6-2.7-6-6v-20c0-3.3 2.7-6 6-6h20c3.3 0 6 2.7 6 6v20c0 3.3-2.7 6-6 6z" style="stroke:#f48b34;stroke-width:4;fill:#f48b34;fill-rule:nonzero;opacity:.59;stroke-linecap:round;stroke-linejoin:round"/><path d="m7.5.8v2.8c-.4-.4-.7-.7-1.1-.9s-.7-.3-1.1-.3c-.7 0-1.3.3-1.8.8-.2.2-.3.4-.4.6s-.2.4-.2.7c0 .2-.1.5-.1.8 0 .8.2 1.4.7 1.9s1.1.7 1.8.7c.4 0 .8-.1 1.1-.3s.7-.5 1.1-.9v2.8c-.5.2-.9.4-1.2.4-.4.1-.8.1-1.2.1-.5 0-1-.1-1.4-.2-.5-.1-.9-.3-1.2-.6-.7-.5-1.2-1.1-1.6-1.8s-.6-1.6-.6-2.4c0-.7.1-1.4.4-2 .1-.3.2-.6.4-.8.2-.3.4-.5.6-.8.5-.5 1-.8 1.5-1 .6-.2 1.2-.3 1.9-.3.4 0 .8 0 1.2.1.4.3.8.4 1.2.6z" fill="#fec556" fill-rule="nonzero" transform="translate(90 376)"/><path d="m150.8 396.4h-20c-3.3 0-6-2.7-6-6v-20c0-3.3 2.7-6 6-6h20c3.3 0 6 2.7 6 6v20c0 3.3-2.7 6-6 6z" fill="#514c4c" fill-rule="nonzero"/><path d="m129.8 377.4v-5c0-1.1.9-2 2-2h12" stroke="#404041" stroke-linecap="round" stroke-linejoin="round" stroke-width="3"/><path d="m149.8 396.4h-20c-3.3 0-6-2.7-6-6v-20c0-3.3 2.7-6 6-6h20c3.3 0 6 2.7 6 6v20c0 3.3-2.7 6-6 6z" stroke="#404041" stroke-linecap="round" stroke-linejoin="round" stroke-width="4"/><path d="m139 383.6-4.3-4.3c-1-1-.3-2.8 1.2-2.8h8.5c1.5 0 2.2 1.8 1.2 2.8l-4.3 4.3c-.6.7-1.6.7-2.3 0z" fill="#fec556" fill-rule="nonzero"/><path d="m63.2 396.4h-20c-3.3 0-6-2.7-6-6v-20c0-3.3 2.7-6 6-6h20c3.3 0 6 2.7 6 6v20c0 3.3-2.6 6-6 6z" style="stroke:#f48b34;stroke-width:4;fill:#f48b34;fill-rule:nonzero;opacity:.59;stroke-linecap:round;stroke-linejoin:round"/><path d="m59.5 396.4h-20c-3.3 0-6-2.7-6-6v-20c0-3.3 2.7-6 6-6h20c3.3 0 6 2.7 6 6v20c0 3.3-2.7 6-6 6z" fill="#514c4c" fill-rule="nonzero"/><path d="m39.5 377.4v-5c0-1.1.9-2 2-2h12" stroke="#404041" stroke-linecap="round" stroke-linejoin="round" stroke-width="3"/><path d="m60.5 396.4h-20c-3.3 0-6-2.7-6-6v-20c0-3.3 2.7-6 6-6h20c3.3 0 6 2.7 6 6v20c0 3.3-2.7 6-6 6z" stroke="#404041" stroke-linecap="round" stroke-linejoin="round" stroke-width="4"/><path d="m48.7 377.1-4.3 4.3c-1 1-.3 2.8 1.2 2.8h8.5c1.5 0 2.2-1.8 1.2-2.8l-4.3-4.3c-.6-.7-1.6-.7-2.3 0z" fill="#fec556" fill-rule="nonzero"/><path d="m113.6 194.9h-16.8c-1.2 0-2.2-1-2.2-2.2 0-1.2 1-2.2 2.2-2.2h16.8c1.2 0 2.2 1 2.2 2.2 0 1.2-1 2.2-2.2 2.2z" fill="#f48b34" fill-rule="nonzero" opacity=".36"/><path d="m113.6 201h-37c-1.2 0-2.2-1-2.2-2.2 0-1.2 1-2.2 2.2-2.2h37c1.2 0 2.2 1 2.2 2.2 0 1.2-1 2.2-2.2 2.2z" fill="#f48b34" fill-rule="nonzero" opacity=".36"/></g></svg>