
<svg version="1.1" id="Layer_1" xmlns="http://www.w3.org/2000/svg" x="0px" y="0px"
	 viewBox="0 0 1000 1000" style="enable-background:new 0 0 1000 1000;" xml:space="preserve">
<style type="text/css">
	.st0{fill:#413E51;}
	.st1{fill:#EEF2F4;}
	.st2{opacity:0.86;fill:#2D2C3A;}
	.st3{fill:#8E9091;}
	.st4{opacity:0.91;fill:#95A0C6;}
	.st5{fill:none;stroke:#192244;stroke-width:6;stroke-linecap:round;stroke-linejoin:round;stroke-miterlimit:10;}
	.st6{fill:#55C9FF;}
	.st7{fill:none;stroke:#26A7BC;stroke-width:4;stroke-linecap:round;stroke-linejoin:round;stroke-miterlimit:10;}
	.st8{fill:#49C6F2;}
	.st9{fill:#26A7BC;}
	.st10{fill:#404A6E;}
	.st11{fill:#273052;}
	.st12{fill:none;stroke:#192244;stroke-width:4;stroke-linecap:round;stroke-linejoin:round;stroke-miterlimit:10;}
	.st13{opacity:0.91;fill:#6D7493;}
	.st14{fill:none;stroke:#192244;stroke-width:7;stroke-linecap:round;stroke-linejoin:round;stroke-miterlimit:10;}
	.st15{fill:none;stroke:#F6537F;stroke-width:4;stroke-linecap:round;stroke-linejoin:round;stroke-miterlimit:10;}
	.st16{fill:none;stroke:#F6537F;stroke-width:5;stroke-linecap:round;stroke-linejoin:round;stroke-miterlimit:10;}
	.st17{fill:none;stroke:#F6537F;stroke-width:2;stroke-linejoin:round;stroke-miterlimit:10;}
	.st18{fill:#2EC2F1;}
	.st19{fill:#FFFFFF;}
	.st20{fill:none;stroke:#F6537F;stroke-width:2;stroke-linecap:round;stroke-linejoin:round;stroke-miterlimit:10;}
</style>
<ellipse id="XMLID_3_" class="st2" cx="497.4" cy="719.9" rx="133.9" ry="18.6"/>
<path id="XMLID_14_" class="st3" d="M628.7,411.1h-3.2c-1.8,0-3.5,0.8-4.5,2.2c-5,7.2-5.7,15.7-5.7,24.8c0,9.1,0.7,17.6,5.7,24.8
	c1,1.4,2.7,2.2,4.5,2.2h3.2c1.9,0,3.7-1.4,4.1-3.1c3-15.8,2.2-32.1,0-47.8C632.5,412.5,630.6,411.1,628.7,411.1z"/>
<path id="XMLID_15_" class="st4" d="M628.7,411.1h-3.2c-1.8,0-3.5,0.8-4.5,2.2c-5,7.2-5.7,15.7-5.7,24.8c0,9.1,0.7,17.6,5.7,24.8
	c1,1.4,2.7,2.2,4.5,2.2h3.2c1.9,0,3.7-1.4,4.1-3.1c3-15.8,2.2-32.1,0-47.8C632.5,412.5,630.6,411.1,628.7,411.1z"/>
<path id="XMLID_11_" class="st5" d="M628.7,411.1h-3.2c-1.8,0-3.5,0.8-4.5,2.2c-5,7.2-5.7,15.7-5.7,24.8c0,9.1,0.7,17.6,5.7,24.8
	c1,1.4,2.7,2.2,4.5,2.2h3.2c1.9,0,3.7-1.4,4.1-3.1c3-15.8,2.2-32.1,0-47.8C632.5,412.5,630.6,411.1,628.7,411.1z"/>
<path id="XMLID_13_" class="st6" d="M579.3,331.5c-3.4-11.3-3.8-21.8-4.2-28.8c-0.3-6-0.1-24-5.1-29.2c-4.4-4.6-8.5-7.8-28.5-10.8
	c-10.8-1.6-27.8-3.7-43.8-4c-16,0.3-33,2.3-43.8,4c-20,3-24,6.2-28.5,10.8c-5,5.1-4.8,23.1-5.1,29.2c-0.4,7-0.8,17.5-4.2,28.8
	c-1.6,5.3-3.6,10.4-6,15.3h87.7h87.7C582.9,342,580.9,336.8,579.3,331.5z"/>
<path id="XMLID_10_" class="st7" d="M579.3,331.5c-3.4-11.3-3.8-21.8-4.2-28.8c-0.3-6-0.1-24-5.1-29.2c-4.4-4.6-8.5-7.8-28.5-10.8
	c-10.8-1.6-27.8-3.7-43.8-4c-16,0.3-33,2.3-43.8,4c-20,3-24,6.2-28.5,10.8c-5,5.1-4.8,23.1-5.1,29.2c-0.4,7-0.8,17.5-4.2,28.8
	c-1.6,5.3-3.6,10.4-6,15.3h87.7h87.7C582.9,342,580.9,336.8,579.3,331.5z"/>
<path id="XMLID_48_" class="st8" d="M579.3,651.6c-3.4,11.3-3.8,21.8-4.2,28.8c-0.3,6-0.1,24-5.1,29.2c-4.4,4.6-8.5,7.8-28.5,10.8
	c-10.8,1.6-27.8,3.7-43.8,4c-16-0.3-33-2.3-43.8-4c-20-3-24-6.2-28.5-10.8c-5-5.1-4.8-23.1-5.1-29.2c-0.4-7-0.8-17.5-4.2-28.8
	c-1.6-5.3-3.6-10.4-6-15.3h87.7h87.7C582.9,641.2,580.9,646.3,579.3,651.6z"/>
<path id="XMLID_62_" class="st9" d="M410,636.3c2.3,4.6,4.2,9.5,5.8,14.5h163.8c1.6-5,3.5-9.9,5.8-14.5h-87.7H410z"/>
<path id="XMLID_31_" class="st7" d="M579.3,651.6c-3.4,11.3-3.8,21.8-4.2,28.8c-0.3,6-0.1,24-5.1,29.2c-4.4,4.6-8.5,7.8-28.5,10.8
	c-10.8,1.6-27.8,3.7-43.8,4c-16-0.3-33-2.3-43.8-4c-20-3-24-6.2-28.5-10.8c-5-5.1-4.8-23.1-5.1-29.2c-0.4-7-0.8-17.5-4.2-28.8
	c-1.6-5.3-3.6-10.4-6-15.3h87.7h87.7C582.9,641.2,580.9,646.3,579.3,651.6z"/>
<path id="XMLID_9_" class="st10" d="M577.1,636.3H417.7c-24.3,0-44-19.7-44-44v-202c0-24.3,19.7-44,44-44h159.4
	c24.3,0,44,19.7,44,44v202C621.1,616.6,601.4,636.3,577.1,636.3z"/>
<path id="XMLID_43_" class="st11" d="M577.1,618.3H417.7c-24.3,0-44-19.7-44-44v18c0,24.3,19.7,44,44,44h159.4c24.3,0,44-19.7,44-44
	v-18C621.1,598.6,601.4,618.3,577.1,618.3z"/>
<path id="XMLID_12_" class="st10" d="M389.3,592.3v-202c0-15.5,12.5-28,28-28h160.2c15.5,0,28,12.5,28,28v202c0,15.5-12.5,28-28,28
	H417.3C401.8,620.3,389.3,607.8,389.3,592.3z"/>
<path id="XMLID_6_" class="st12" d="M389.3,592.3v-202c0-15.5,12.5-28,28-28h160.2c15.5,0,28,12.5,28,28v202c0,15.5-12.5,28-28,28
	H417.3C401.8,620.3,389.3,607.8,389.3,592.3z"/>
<path id="XMLID_27_" class="st13" d="M601.6,353c-7-4.2-15.4-6.7-24.5-6.7H417.7c-9.6,0-18.5,2.8-25.7,7.5
	c6,9.9,17.7,16.5,31.1,16.5H570C583.8,370.3,595.7,363.3,601.6,353z"/>
<path id="XMLID_5_" class="st13" d="M629.9,499.2c0-1.7-1.6-3-3.4-3c-1.8,0-3.5,0-5.3,0v83.3c1.8,0,3.5,0,5.3,0c1.9,0,3.4-1.3,3.4-3
	C630.4,550.8,630.4,525,629.9,499.2z"/>
<path id="XMLID_17_" class="st5" d="M629.9,499.2c0-1.7-1.6-3-3.4-3c-1.8,0-3.5,0-5.3,0v83.3c1.8,0,3.5,0,5.3,0c1.9,0,3.4-1.3,3.4-3
	C630.4,550.8,630.4,525,629.9,499.2z"/>
<path id="XMLID_2_" class="st14" d="M577.1,636.3H417.7c-24.3,0-44-19.7-44-44v-202c0-24.3,19.7-44,44-44h159.4
	c24.3,0,44,19.7,44,44v202C621.1,616.6,601.4,636.3,577.1,636.3z"/>
<path id="XMLID_20_" class="st15" d="M438.4,426.9v7.2c0,2.2-1.8,4-4,4h-15.3c-2.2,0-4-1.8-4-4v-15.3c0-2.2,1.8-4,4-4h10.8"/>
<polyline id="XMLID_16_" class="st16" points="421.8,423.5 427.7,429.3 438.4,416 "/>
<line id="XMLID_19_" class="st17" x1="413" y1="458" x2="478.6" y2="458"/>
<g>
	<g>
		<path class="st18" d="M442.7,465.5v33.9c0,1.4-0.1,2.7-0.2,3.9c-0.2,1.2-0.4,2.2-0.7,3.1c-0.6,1.4-1.3,2.6-2.3,3.8
			s-2.1,2.1-3.4,2.9c-1.3,0.8-2.7,1.4-4.3,1.9c-1.6,0.5-3.2,0.7-5,0.7c-5.2,0-9.5-2.4-12.8-7.2l8.3-8.5c0.2,1.5,0.7,2.6,1.4,3.5
			c0.7,0.9,1.6,1.3,2.7,1.3c2.4,0,3.6-1.9,3.6-5.6v-33.7H442.7z"/>
		<path class="st18" d="M462,481.1v18.7c0,4.1,2,6.1,6,6.1c4,0,6-2,6-6.1v-18.7h11.7v21c0,4.5-1.5,7.9-4.4,10.1
			c-3,2.2-7.4,3.4-13.2,3.4c-5.9,0-10.3-1.1-13.2-3.4c-3-2.2-4.4-5.6-4.4-10.1v-21H462z"/>
		<path class="st18" d="M514.1,489.7c-2.2-1.1-4.3-1.7-6.3-1.7c-1.1,0-2,0.2-2.6,0.6c-0.7,0.4-1,1-1,1.7c0,0.4,0.1,0.7,0.2,0.9
			c0.1,0.2,0.3,0.5,0.7,0.7c0.4,0.2,0.9,0.4,1.6,0.6c0.7,0.2,1.7,0.4,2.8,0.6c3.2,0.6,5.7,1.8,7.2,3.5c1.6,1.7,2.4,3.8,2.4,6.4
			c0,1.9-0.4,3.7-1.2,5.2s-1.9,2.9-3.2,3.9c-1.4,1.1-3,1.9-5,2.5c-1.9,0.6-4.1,0.9-6.4,0.9c-4.5,0-8.9-1.3-13.3-3.8l4.3-8.3
			c3.3,2.2,6.4,3.4,9.3,3.4c1.1,0,2-0.2,2.7-0.7c0.7-0.5,1-1.1,1-1.8c0-0.4-0.1-0.8-0.2-1.1c-0.1-0.3-0.3-0.5-0.7-0.8
			c-0.3-0.2-0.9-0.5-1.5-0.6c-0.7-0.2-1.5-0.4-2.6-0.6c-3.6-0.7-6.2-1.8-7.6-3.3c-1.4-1.4-2.2-3.4-2.2-6c0-1.9,0.3-3.5,1-5
			c0.7-1.5,1.7-2.8,3-3.8c1.3-1,2.9-1.8,4.7-2.4c1.8-0.6,3.9-0.8,6.1-0.8c3.7,0,7.2,0.7,10.7,2.1L514.1,489.7z"/>
		<path class="st18" d="M537.4,490.9v23.4h-11.7v-23.4h-3.9v-9.8h3.9v-10h11.7v10h6.7v9.8H537.4z"/>
	</g>
</g>
<g>
	<path class="st19" d="M417.6,530.8h18.8c3.3,0,6.4,0.7,9.4,2c2.9,1.3,5.5,3.1,7.6,5.3c2.2,2.2,3.9,4.8,5.1,7.8
		c1.3,3,1.9,6.1,1.9,9.3c0,3.2-0.6,6.3-1.8,9.2s-2.9,5.6-5.1,7.8c-2.2,2.2-4.7,4-7.6,5.4c-2.9,1.3-6.1,2-9.4,2h-18.8V530.8z
		 M430.3,568.8h2.9c2.2,0,4.2-0.3,5.9-1c1.7-0.7,3.2-1.6,4.4-2.8c1.2-1.2,2.1-2.6,2.7-4.3c0.6-1.7,0.9-3.5,0.9-5.5
		c0-1.9-0.3-3.8-1-5.4c-0.6-1.7-1.6-3.1-2.8-4.3c-1.2-1.2-2.6-2.2-4.4-2.8c-1.7-0.7-3.7-1-5.8-1h-2.9V568.8z"/>
	<path class="st19" d="M464.5,562.7c0-2.5,0.5-4.8,1.5-6.9c1-2.1,2.4-4,4.1-5.6c1.8-1.6,3.9-2.8,6.3-3.7c2.4-0.9,5.1-1.4,8-1.4
		c2.8,0,5.5,0.4,7.9,1.3c2.4,0.9,4.6,2.1,6.3,3.7c1.8,1.6,3.2,3.5,4.2,5.6c1,2.2,1.5,4.6,1.5,7.2c0,2.6-0.5,5-1.5,7.2
		c-1,2.2-2.4,4.1-4.2,5.6c-1.8,1.6-3.9,2.8-6.4,3.7c-2.5,0.9-5.2,1.3-8.1,1.3c-2.8,0-5.5-0.4-7.9-1.3c-2.4-0.9-4.5-2.1-6.2-3.7
		c-1.7-1.6-3.1-3.5-4.1-5.7C465,567.9,464.5,565.4,464.5,562.7z M476.9,562.8c0,1.1,0.2,2.1,0.6,3.1c0.4,0.9,0.9,1.7,1.6,2.4
		c0.7,0.7,1.5,1.2,2.4,1.6c0.9,0.4,1.9,0.6,2.9,0.6c1,0,2-0.2,2.9-0.6c0.9-0.4,1.7-0.9,2.4-1.6c0.7-0.7,1.2-1.5,1.6-2.4
		c0.4-0.9,0.6-1.9,0.6-3c0-1-0.2-2-0.6-2.9c-0.4-0.9-0.9-1.7-1.6-2.4c-0.7-0.7-1.5-1.2-2.4-1.6c-0.9-0.4-1.9-0.6-2.9-0.6
		c-1,0-2,0.2-2.9,0.6c-0.9,0.4-1.7,0.9-2.4,1.6c-0.7,0.7-1.2,1.5-1.6,2.4C477.1,560.8,476.9,561.8,476.9,562.8z"/>
	<path class="st19" d="M543.8,530.8v48.8h-12.7v-48.8H543.8z"/>
	<path class="st19" d="M564.5,556.1v23.4h-11.7v-23.4h-3.9v-9.8h3.9v-10h11.7v10h6.7v9.8H564.5z"/>
	<path class="st19" d="M573.4,573.3c0-1,0.2-2,0.6-2.9c0.4-0.9,0.9-1.7,1.6-2.4c0.7-0.7,1.5-1.2,2.4-1.6c0.9-0.4,1.9-0.6,2.9-0.6
		s2,0.2,2.9,0.6c0.9,0.4,1.7,0.9,2.4,1.6c0.7,0.7,1.2,1.5,1.6,2.4c0.4,0.9,0.6,1.9,0.6,2.9c0,1-0.2,2-0.6,2.9
		c-0.4,0.9-0.9,1.7-1.6,2.4c-0.7,0.7-1.5,1.2-2.4,1.6c-0.9,0.4-1.9,0.6-2.9,0.6s-2-0.2-2.9-0.6c-0.9-0.4-1.7-0.9-2.4-1.6
		c-0.7-0.7-1.2-1.5-1.6-2.4C573.6,575.4,573.4,574.4,573.4,573.3z"/>
</g>
<g>
	<path class="st19" d="M546,385.7c0,3.5-1.3,5.5-3.6,5.5c-2,0-3.4-1.9-3.4-5.3c0-3.5,1.5-5.4,3.6-5.4
		C544.8,380.4,546,382.4,546,385.7z M540.4,385.9c0,2.7,0.8,4.2,2.1,4.2c1.4,0,2.1-1.7,2.1-4.3c0-2.6-0.7-4.2-2.1-4.2
		C541.3,381.5,540.4,383,540.4,385.9z"/>
	<path class="st19" d="M553.5,381.8h-4l-0.4,2.7c0.2,0,0.5-0.1,0.8-0.1c0.8,0,1.6,0.2,2.2,0.6c0.8,0.5,1.5,1.4,1.5,2.7
		c0,2-1.6,3.6-3.9,3.6c-1.1,0-2.1-0.3-2.6-0.6l0.4-1.1c0.4,0.3,1.3,0.6,2.2,0.6c1.3,0,2.5-0.9,2.5-2.3c0-1.3-0.9-2.3-3-2.3
		c-0.6,0-1.1,0.1-1.4,0.1l0.7-5h5V381.8z"/>
	<path class="st19" d="M555.7,384.6c0-0.6,0.4-1,1-1c0.6,0,0.9,0.4,0.9,1c0,0.6-0.4,1-1,1C556,385.6,555.7,385.1,555.7,384.6z
		 M555.7,390.2c0-0.6,0.4-1,1-1c0.6,0,0.9,0.4,0.9,1c0,0.6-0.4,1-1,1C556,391.2,555.7,390.8,555.7,390.2z"/>
	<path class="st19" d="M565.1,381.8h-4l-0.4,2.7c0.2,0,0.5-0.1,0.8-0.1c0.8,0,1.6,0.2,2.2,0.6c0.8,0.5,1.5,1.4,1.5,2.7
		c0,2-1.6,3.6-3.9,3.6c-1.1,0-2.1-0.3-2.6-0.6l0.4-1.1c0.4,0.3,1.3,0.6,2.2,0.6c1.3,0,2.5-0.9,2.5-2.3c0-1.3-0.9-2.3-3-2.3
		c-0.6,0-1.1,0.1-1.4,0.1l0.7-5h5V381.8z"/>
	<path class="st19" d="M567.1,391v-0.9l1.1-1.1c2.7-2.5,3.9-3.9,3.9-5.4c0-1.1-0.5-2-2.1-2c-0.9,0-1.7,0.5-2.2,0.9l-0.4-1
		c0.7-0.6,1.7-1.1,2.9-1.1c2.2,0,3.2,1.5,3.2,3c0,1.9-1.4,3.5-3.6,5.6l-0.8,0.8v0h4.7v1.2H567.1z"/>
</g>
<g>
	<g>
		<path class="st19" d="M423.1,381.4h-3.3v-1.2h8v1.2h-3.3v9.6h-1.4V381.4z"/>
		<path class="st19" d="M434.8,387.1c0,2.9-2,4.1-3.9,4.1c-2.1,0-3.7-1.5-3.7-4c0-2.6,1.7-4.1,3.8-4.1
			C433.3,383.1,434.8,384.7,434.8,387.1z M428.6,387.2c0,1.7,1,3,2.4,3c1.3,0,2.4-1.3,2.4-3c0-1.3-0.7-3-2.3-3
			C429.4,384.2,428.6,385.7,428.6,387.2z"/>
		<path class="st19" d="M443.2,379.7v9.4c0,0.7,0,1.5,0.1,2H442l-0.1-1.3h0c-0.4,0.9-1.4,1.5-2.6,1.5c-1.9,0-3.3-1.6-3.3-3.9
			c0-2.6,1.6-4.2,3.5-4.2c1.2,0,2,0.6,2.3,1.2h0v-4.6H443.2z M441.8,386.4c0-0.2,0-0.4-0.1-0.6c-0.2-0.9-1-1.6-2-1.6
			c-1.5,0-2.3,1.3-2.3,3c0,1.6,0.8,2.9,2.3,2.9c0.9,0,1.8-0.6,2.1-1.7c0-0.2,0.1-0.4,0.1-0.6V386.4z"/>
		<path class="st19" d="M449.9,391l-0.1-1h0c-0.4,0.6-1.3,1.2-2.4,1.2c-1.6,0-2.4-1.1-2.4-2.2c0-1.9,1.7-2.9,4.7-2.9v-0.2
			c0-0.6-0.2-1.8-1.8-1.8c-0.7,0-1.5,0.2-2,0.6l-0.3-0.9c0.6-0.4,1.6-0.7,2.5-0.7c2.4,0,2.9,1.6,2.9,3.2v2.9c0,0.7,0,1.3,0.1,1.9
			H449.9z M449.7,387.1c-1.5,0-3.3,0.2-3.3,1.7c0,0.9,0.6,1.3,1.3,1.3c1,0,1.6-0.6,1.9-1.3c0-0.1,0.1-0.3,0.1-0.4V387.1z"/>
		<path class="st19" d="M453.7,383.3l1.7,4.6c0.2,0.5,0.4,1.1,0.5,1.6h0c0.1-0.5,0.3-1.1,0.5-1.6l1.5-4.5h1.5l-2.1,5.5
			c-1,2.7-1.7,4-2.7,4.9c-0.7,0.6-1.4,0.8-1.7,0.9l-0.4-1.2c0.4-0.1,0.8-0.3,1.2-0.7c0.4-0.3,0.9-0.8,1.2-1.6
			c0.1-0.1,0.1-0.3,0.1-0.3s0-0.2-0.1-0.4l-2.9-7.1H453.7z"/>
	</g>
</g>
<polyline id="XMLID_4_" class="st20" points="413.9,390.8 409,385.9 413.9,381 "/>
</svg>
