<svg
   xmlns="http://www.w3.org/2000/svg"
   width="103mm"
   height="103mm"
   viewBox="0 0 103 103">
  <g transform="translate(0,-194)">
    <g transform="matrix(0.37365995,0,0,0.28581274,55.323799,241.34548)">
      <path d="m 77.4,-109 c 27,5.8 55.8,20.4 43.3,40.1 -12.4,19.7 -66.1,44.3 -61.3,84.2 4.7,39.8 67.9,94.8 68.5,97.5 0.7,2.7 -61.2,-46.9 -106.7,-27.7 -45.4,19.2 -74.4,107.1 -80.7,109.1 -6.2,2 10.4,-82 -7.1,-124.2 -17.4,-42.3 -68.9,-42.7 -77.8,-53.9 -8.8,-11.2 25,-33.2 34.6,-71.3 9.5,-38.1 -5.2,-92.4 9,-104.1 14.3,-11.6 57.5,19.3 91.8,33.4 34.2,14 59.5,11 86.4,16.9 z"  />
    </g>
  </g>
</svg>
