<svg
   xmlns="http://www.w3.org/2000/svg"
   width="103mm"
   height="103mm"
   viewBox="0 0 103 103"
>
  <g transform="translate(0,-194)">
    <g transform="matrix(0.43507181,0,0,0.253183,50.908923,253.45139)">
      <path
         id="path4285"
         d="m 114.9,-204.2 c 12.1,33.3 -15,102.1 -22.4,144.7 -7.4,42.6 5,59 -3.2,67.9 -8.2,8.9 -37.1,10.4 -44.3,45.3 -7.3,35 6.9,103.4 -0.8,113 C 36.5,176.2 6.9,127 -15.4,99.1 -37.6,71.2 -52.4,64.8 -61.2,53.6 -69.9,42.5 -72.6,26.6 -83.6,6.7 c -11.1,-19.8 -30.6,-43.8 -31.2,-66.1 -0.7,-22.3 17.6,-42.8 39.9,-71.5 22.3,-28.6 48.6,-65.4 87.4,-84.9 38.9,-19.5 90.2,-21.7 102.4,11.6 z" />
    </g>
  </g>
</svg>
