<svg
   xmlns="http://www.w3.org/2000/svg"
   width="103mm"
   height="103mm"
   viewBox="0 0 103 103"
>
  <g transform="translate(0,-194)">
    <g transform="matrix(0.43506628,0,0,0.31935118,46.90167,259.83684)">
      <path d="m 121.2,-198.5 c 14.6,19.2 -9.6,88.9 -32.2,131 -22.5,42.1 -43.4,56.6 -38.6,80 4.9,23.5 35.4,55.9 36.7,73.7 1.3,17.8 -26.7,21 -51.4,22.1 -24.6,1.1 -45.9,0.1 -75,2.3 -29.1,2.1 -65.9,7.3 -61.3,-10.5 4.6,-17.8 50.6,-58.7 53.8,-88.5 3.2,-29.9 -36.4,-48.8 -51.1,-72.9 -14.8,-24 -4.7,-53.3 15.8,-69.8 20.5,-16.5 51.3,-20.2 93.4,-37.7 42,-17.5 95.4,-48.9 109.9,-29.7 z" />
    </g>
  </g>
</svg>
