<svg
   xmlns="http://www.w3.org/2000/svg"
   width="103mm"
   height="103mm"
   viewBox="0 0 103 103"
>
  <g transform="translate(0,-194)">
    <g transform="matrix(0.30319701,0,0,0.31595783,61.015799,240.40907)">
      <path d="m 71.9,-111.9 c 0.9,0.6 -32.8,55 -16.9,87.5 C 70.9,8 136.4,18.5 135.7,19 134.9,19.6 67.8,10.1 37.9,18.1 8,26 15.3,51.4 4.3,88.4 c -11.1,37 -40.4,85.6 -63.5,89.6 -23.2,4 -40.2,-36.6 -69,-68 -28.9,-31.3 -69.6,-53.5 -68.9,-78.8 0.8,-25.4 43,-53.8 61,-93.3 18.1,-39.5 11.9,-90.1 30.6,-82.6 18.6,7.5 62.1,73.1 101.5,79.3 39.5,6.2 75,-47.1 75.9,-46.5 z"  />
    </g>
  </g>
</svg>
