<svg
   xmlns="http://www.w3.org/2000/svg"
   width="103mm"
   height="103mm"
   viewBox="0 0 103 103"
   >
  <g transform="translate(0,-194)">
    <g transform="matrix(0.3227234,0,0,0.29659974,59.890171,258.85235)">
      <path d="m 35.1,-87.6 c 14.6,42.3 33.4,45 33,53.7 -0.3,8.7 -19.9,23.4 -3.9,56.4 15.9,33.1 67.3,84.5 66.7,98.1 C 130.3,134.1 77.7,109.8 42.8,98.4 7.9,87 -9.3,88.6 -39.5,97 c -30.3,8.3 -73.6,23.4 -83.6,10.5 -9.9,-13 13.5,-54.1 0.2,-94.7 -13.3,-40.5 -63.5,-80.7 -57.8,-96.2 5.7,-15.5 67.3,-6.4 106.7,-37.4 39.4,-31 56.7,-102.1 70.5,-96.7 13.8,5.5 24,87.5 38.6,129.9 z" />
    </g>
  </g>
</svg>
