<svg
   xmlns="http://www.w3.org/2000/svg"
   width="103mm"
   height="103mm"
   viewBox="0 0 103 103">
  <g
     transform="translate(0,-194)">
    <g
       transform="matrix(0.33609882,0,0,0.51525932,48.337623,231.12524)">
      <path
         d="m 22.5,-42.6 c 5.7,11.1 8.4,19.2 30.2,29.5 21.9,10.3 62.8,23 86.3,50.7 23.5,27.8 29.5,70.7 8.2,83.1 -21.3,12.5 -70,-5.7 -104.4,-13 -34.3,-7.3 -54.4,-3.8 -79.4,-2.3 -25,1.4 -55,0.7 -76,-13.4 -21,-14.2 -32.9,-41.8 -26.7,-65.8 6.2,-24 30.4,-44.4 51.4,-56.3 21.1,-11.9 38.8,-15.3 52.9,-22.5 14.1,-7.3 24.5,-18.3 34,-16.8 9.5,1.6 17.9,15.7 23.5,26.8 z" />
    </g>
  </g>
</svg>
