<svg
   xmlns="http://www.w3.org/2000/svg"
   width="102mm"
   height="103mm"
   viewBox="0 0 102 103"
>
  <g
     transform="translate(0,-194)">
    <g
       transform="matrix(0.23806162,0,0,0.25306793,63.392874,246.05441)">
      <path
         d="m 58.2,-102.7 c 9.8,18.5 5.4,47.1 16.6,69.3 11.1,22.1 38,37.8 56.8,67.2 18.9,29.3 29.8,72.4 16.3,102.3 -13.5,30 -51.4,46.7 -89.7,54.6 -38.4,7.9 -77.2,7 -97.1,-17.5 -20,-24.4 -21.2,-72.3 -58.7,-98.3 -37.6,-26 -111.5,-30.1 -142.7,-57.8 -31.2,-27.8 -19.6,-79.1 2.4,-125 22.1,-45.9 54.6,-86.4 96,-90.5 41.3,-4.1 91.6,28.2 128.8,48.5 37.2,20.3 61.4,28.7 71.3,47.2 z" />
    </g>
  </g>
</svg>
