<svg
   xmlns="http://www.w3.org/2000/svg"
   width="88mm"
   height="94mm"
   viewBox="0 0 88 94">
  <g transform="translate(0,-203)">
    <g transform="matrix(0.26458333,0,0,0.26458333,39.762447,250.08468)">
      <path
         id="path3830"
         d="m 64.5,-79 c 31.3,12.9 77.1,15.5 98.4,36.6 21.3,21.1 18.1,60.6 0.6,89.7 -17.5,29 -49.4,47.5 -79,71 -29.6,23.5 -57.1,52.1 -87.6,56.4 -30.6,4.4 -64.3,-15.6 -91.2,-40 -27,-24.4 -47.2,-53.3 -51.6,-83.4 -4.4,-30.1 7,-61.4 8.4,-105.3 1.4,-44 -7.3,-100.6 14,-116.7 21.2,-16.1 72.4,8.3 106.3,32 33.9,23.8 50.5,46.9 81.7,59.7 z" />
    </g>
  </g>
</svg>
