<svg
   xmlns="http://www.w3.org/2000/svg"
   width="103mm"
   height="103mm"
   viewBox="0 0 103 103"
>
  <g transform="translate(0,-194)">
    <g transform="matrix(0.29575103,0,0,0.38238782,70.252939,267.26631)">
      <path
         id="path4252"
         d="m 53.4,-90.9 c 10.4,14.6 9.9,38.4 21.1,58.3 11.2,19.8 34.2,35.7 31.3,47 C 102.9,25.7 74.1,32.5 53.6,34.1 33,35.8 20.7,32.3 9.2,39.2 -2.3,46.1 -13,63.3 -28.3,70.6 c -15.4,7.4 -35.5,4.7 -62.4,-4.3 -26.9,-9 -60.7,-24.3 -91.1,-56.7 -30.4,-32.4 -57.6,-81.9 -50.6,-123.5 7,-41.6 48,-75.3 92.5,-74.3 44.4,0.9 92.1,36.6 126.7,57 34.6,20.5 56.1,25.8 66.6,40.3 z" />
    </g>
  </g>
</svg>
