<svg
   xmlns="http://www.w3.org/2000/svg"
   width="103mm"
   height="103mm"
   viewBox="0 0 103 103">
  <defs />
  <g
     transform="translate(0,-194)">
    <g
       id="g4188"
       transform="matrix(0.28385027,0,0,0.25505524,45.291136,244.04655)">
      <path
         id="path4186"
         d="m 81,-117.3 c 42.7,18.8 109.1,9.5 116.4,26.8 7.3,17.2 -44.6,61.1 -61.6,102.9 -17.1,41.8 0.6,81.5 -8.4,105.5 -9.1,23.9 -45,32.2 -82.6,50.5 -37.7,18.4 -77,46.8 -97.9,31.8 -20.8,-15 -23.2,-73.6 -44.1,-109.5 -20.9,-35.9 -60.3,-49.1 -57.7,-65.2 2.7,-16.2 47.4,-35.2 65.5,-62.7 18.2,-27.6 9.7,-63.8 20.2,-97.3 10.5,-33.6 39.8,-64.5 64.1,-56.5 24.2,7.9 43.3,54.9 86.1,73.7 z"/>
    </g>
  </g>
</svg>
