<svg
   xmlns="http://www.w3.org/2000/svg"
   width="106mm"
   height="99mm"
   viewBox="0 0 106 99"
>
  <defs />
  <g
     transform="translate(0,-198)">
    <g
       transform="matrix(0.26458333,0,0,0.26458333,39.441685,246.61766)">
      <path
         id="path3713"
         d="m 75,-84.8 c 39,9.8 99,9.3 134.7,36.2 35.7,27 47.1,81.4 32.7,127.9 -14.4,46.5 -54.6,85.1 -99.3,100.9 -44.7,15.8 -93.9,8.8 -131.6,-7 -37.8,-15.7 -64,-40.3 -90.8,-61.9 -26.8,-21.6 -54.1,-40.3 -62.1,-65.3 -7.9,-24.9 3.5,-56 3.5,-101.5 0.1,-45.5 -11.2,-105.4 9.8,-121.1 21.1,-15.6 74.6,13 110.4,37.4 35.7,24.4 53.8,44.6 92.7,54.4 z"
         />
    </g>
  </g>
</svg>
