<svg
   xmlns="http://www.w3.org/2000/svg"
   width="103mm"
   height="103mm"
   viewBox="0 0 103 103"
>
  <g
     transform="translate(0,-194)">
    <g
       transform="matrix(0.39667069,0,0,0.29087447,48.431111,238.38612)">
      <path
         d="m 68.2,-95.6 c 28.2,7.6 64.6,13 65.2,30 0.5,17.1 -34.8,45.9 -48.1,71.7 -13.3,25.7 -4.7,48.5 -2.7,90 2.1,41.5 -2.3,101.7 -20.8,101.2 -18.5,-0.6 -51,-62 -84.8,-86.7 -33.8,-24.7 -68.9,-12.6 -84.4,-22.2 -15.5,-9.6 -11.5,-40.7 -6.8,-66.6 4.6,-25.9 9.8,-46.5 10.5,-78 0.7,-31.5 -3.2,-73.9 13.3,-86.8 16.5,-13 53.5,3.5 81.9,16.7 28.5,13.2 48.5,23 76.7,30.7 z" />
    </g>
  </g>
</svg>
