<svg
   xmlns="http://www.w3.org/2000/svg"
   width="103mm"
   height="103mm"
   viewBox="0 0 103 103"
  >
  <g transform="translate(0,-194)">
    <g transform="matrix(0.2310928,0,0,0.2353692,50.010632,240.41823)">
      <path
         id="path4318"
         d="m 76.1,-133.2 c 18,26.4 25.1,55.1 59.1,84.6 34,29.6 94.9,60 91.6,81 C 223.5,53.4 156,65 120.5,102.3 85,139.7 81.5,202.7 56.2,225.8 31,248.8 -16.1,231.9 -37.5,194.9 -59,157.9 -54.8,100.9 -92.1,72 -129.4,43 -208.2,42.1 -213,28.8 c -4.7,-13.3 64.6,-39.1 94.3,-74.2 29.7,-35.1 19.9,-79.4 33.1,-108 13.2,-28.7 49.4,-41.6 82,-36 32.6,5.6 61.6,29.8 79.7,56.2 z" />
    </g>
  </g>
</svg>
