<svg
   xmlns="http://www.w3.org/2000/svg"
   width="102mm"
   height="103mm"
   viewBox="0 0 102 103"
>
  <defs />
  <g
     transform="translate(0,-194)">
    <g
       transform="matrix(0.41304758,0,0,0.34440538,36.934195,266.19945)">
      <path
         d="m 94,-139.4 c 33.3,34.2 69.5,54.3 56.1,75.8 C 136.6,-42.1 73.5,-19.4 51.9,7.5 30.3,34.4 50.1,65.3 48.4,78.7 46.6,92.2 23.3,88.1 10.2,74.1 -2.9,60 -5.9,36.1 -12.1,24.1 c -6.1,-12 -15.6,-12 -33.1,-20.2 -17.6,-8.2 -43.2,-24.6 -37.9,-27.7 5.4,-3.1 41.9,7.1 60.9,-31.7 19.1,-38.8 20.6,-126.7 36.6,-146.5 16,-19.8 46.3,28.4 79.6,62.6 z"
  />
    </g>
  </g>
</svg>
