<svg
   xmlns="http://www.w3.org/2000/svg"
   width="103mm"
   height="103mm"
   viewBox="0 0 103 103"
   version="1.1"
>
  <g
     transform="translate(0,-194)">
    <g
       transform="matrix(0.33439979,0,0,0.24269207,53.970748,249.85894)">
      <path
         d="m 57,-119 c 10.2,36.8 7.1,64 4.7,83.6 -2.3,19.5 -3.8,31.5 18.8,64.5 22.6,33.1 69.3,87.1 62.8,95.5 C 136.7,133 77,95.8 31.5,110.7 c -45.5,15 -76.7,82.2 -87,78.8 -10.3,-3.3 0.3,-77.1 -3.1,-118.1 -3.5,-41 -20.9,-49.2 -43.5,-69.4 -22.6,-20.1 -50.3,-52.2 -56,-88.6 -5.8,-36.4 10.5,-77.1 40.5,-104.9 30,-27.8 73.8,-42.6 107.4,-26.8 33.6,15.8 57.1,62.4 67.2,99.3 z" />
    </g>
  </g>
</svg>
