<svg
   xmlns="http://www.w3.org/2000/svg"
   width="102mm"
   height="103mm"
   viewBox="0 0 102 103"
>
  <defs />
  <g
     transform="translate(0,-194)">
    <g
       transform="matrix(0.26458333,0,0,0.26458333,42.920003,241.73331)">
      <path
         d="m 52.9,-40 c 44.7,-0.4 130,-23.8 157.4,-11.3 27.5,12.4 -3,60.6 -39,87.1 C 135.4,62.3 93.8,67.2 64.4,101.6 34.9,136 17.4,200 -6,208.2 c -23.4,8.3 -52.8,-39.3 -78.8,-74.9 -26,-35.5 -48.6,-59.1 -59.1,-87.5 -10.5,-28.4 -8.9,-61.7 -10.9,-108.7 -2,-47 -7.7,-107.7 17.5,-113.7 25.2,-6 81.3,42.8 111.3,78.5 30.1,35.8 34.2,58.4 78.9,58.1 z"
      />
    </g>
  </g>
</svg>
