<svg
   xmlns="http://www.w3.org/2000/svg"
   width="103mm"
   height="103mm"
   viewBox="0 0 103 103">
  <g transform="translate(0,-194)">
    <g transform="matrix(0.22363642,0,0,0.23987391,55.276086,247.72615)">
      <path d="m 106.3,-198.7 c 0.3,33.5 -52.1,115.7 -33.6,163.4 18.6,47.7 108.1,60.9 130.8,81 22.7,20.1 -21.2,47.1 -64,48.3 -42.8,1.2 -84.4,-23.3 -120.8,2.3 -36.4,25.6 -67.7,101.4 -76,98.9 -8.3,-2.4 6.4,-83.1 -28.3,-121.8 -34.6,-38.6 -118.5,-35.3 -146.1,-55.9 -27.6,-20.6 1.1,-65.2 41.6,-83.7 40.5,-18.6 92.9,-11.1 126.5,-29.4 33.7,-18.3 48.6,-62.3 82.6,-91.9 34,-29.6 87,-44.7 87.3,-11.2 z" />
    </g>
  </g>
</svg>
