<svg
   xmlns="http://www.w3.org/2000/svg"
   width="103mm"
   height="103mm"
   viewBox="0 0 103 103"
>
  <g transform="translate(0,-194)">
    <g transform="matrix(0.37067136,0,0,0.29781109,29.835917,249.4194)">
      <path d="m 7.2,-54.1 c 0.3,43.2 -2.6,48.2 40.6,57.3 43.2,9.1 132.3,22.3 144.3,33.2 12.1,10.8 -53,19.3 -91,36.3 -37.9,17.1 -48.8,42.7 -69.8,61.5 -21,18.7 -52.1,30.5 -68.8,15.5 -16.7,-15 -19.1,-56.8 -12.1,-86 C -42.6,34.5 -26.2,18 -33.9,1.5 -41.5,-15 -73,-31.4 -76.8,-40 c -3.8,-8.7 20.3,-9.6 37.7,-44.9 17.5,-35.4 28.3,-105.3 35.4,-99.5 7.1,5.7 10.5,87.1 10.9,130.3 z" />
    </g>
  </g>
</svg>
