<svg
   xmlns="http://www.w3.org/2000/svg"
   width="103mm"
   height="103mm"
   viewBox="0 0 103 103"
  >
  <g transform="translate(0,-194)">
    <g transform="matrix(0.26558621,0,0,0.36397785,40.186321,247.29919)">
      <path
         id="path4219"
         d="m 97.4,-136.6 c 34.7,7.3 72.8,24.4 101.7,55.2 28.9,30.8 48.5,75.3 19.3,96 C 189.3,35.2 111.3,32 72.7,45.9 34.1,59.8 34.9,90.8 25.5,99.5 c -9.5,8.6 -29.4,-5.1 -68.4,3.2 -39.1,8.4 -97.5,39 -101,26.6 -3.5,-12.3 48,-67.6 73.5,-99.8 25.5,-32.2 25.2,-41.2 18.1,-65 -7.2,-23.8 -21.2,-62.3 -13.7,-82 7.6,-19.7 36.8,-20.6 67.1,-22.3 30.3,-1.7 61.6,-4.1 96.3,3.2 z"/>
    </g>
  </g>
</svg>
