<svg
   xmlns="http://www.w3.org/2000/svg"
   width="102mm"
   height="103mm"
   viewBox="0 0 102 103">
 >
  <g
     transform="translate(0,-194)">
    <g
       transform="matrix(0.39678932,0,0,0.26458333,42.246347,255.20971)">
      <path
         d="m 109.4,-127.2 c 28.3,46.1 44.5,86.7 34.7,117.4 C 134.3,21 98.6,42 70.3,72.3 42,102.6 21,142.3 -7.7,150 c -28.6,7.6 -64.9,-16.7 -75.9,-47.1 -11,-30.3 3.3,-66.6 -0.5,-106.7 -3.7,-40 -25.6,-83.9 -14.6,-130 11,-46.2 54.9,-94.7 97.1,-93.1 42.1,1.7 82.7,53.5 111,99.7 z"/>
    </g>
  </g>
</svg>
