<svg
   xmlns="http://www.w3.org/2000/svg"
   width="102mm"
   height="103mm"
   viewBox="0 0 102 103"
>
  <defs />
  <g transform="translate(0,-194)">
    <g
       transform="matrix(0.24938355,0,0,0.33315302,58.222196,248.08469)">
      <path
         d="m 94.8,-157.3 c 6.8,14.2 -23.5,76.4 -6.1,116.3 17.4,39.9 82.7,57.4 82.9,66.7 0.2,9.2 -64.5,10.1 -94.3,37.2 C 47.5,90 52.6,143.4 44.1,142.4 35.5,141.4 13.2,86 -14.4,68.9 -42,51.7 -75.1,72.7 -114.3,73.4 -153.5,74.1 -199,54.6 -216.9,22.6 c -18,-32 -8.3,-76.5 14,-111 22.4,-34.4 57.5,-58.8 93.4,-59.8 36,-0.9 72.7,21.7 113.1,16.1 40.4,-5.7 84.3,-39.4 91.2,-25.2 z" />
    </g>
  </g>
</svg>
