<svg
   xmlns="http://www.w3.org/2000/svg"
   width="103mm"
   height="103mm"
   viewBox="0 0 103 103"
   >
  <g transform="translate(0,-194)">
    <g transform="matrix(0.30452343,0,0,0.64754783,61.480187,221.76808)">
      <path d="m 33.5,-38.5 c 17.3,-2.5 43.7,-5.7 57.3,3.2 13.6,8.8 14.4,29.7 23.7,60.6 9.3,30.9 27.1,71.9 14,84.7 -13.2,12.8 -57.3,-2.5 -86,-18.5 -28.6,-16 -41.7,-32.7 -68,-29.1 -26.3,3.5 -65.8,27.2 -104,26 -38.2,-1.3 -75.1,-27.5 -67.6,-52.9 7.6,-25.4 59.6,-50 98.4,-58 38.8,-8 64.4,0.5 78.7,1.7 14.2,1.2 17.1,-5 22.6,-9.1 5.5,-4.1 13.6,-6 30.9,-8.6 z" />
    </g>
  </g>
</svg>
