<svg
   xmlns="http://www.w3.org/2000/svg"
   width="102mm"
   height="103mm"
   viewBox="0 0 102 103"
>
  <g transform="translate(0,-194)">
    <g
       transform="matrix(0.21933456,0,0,0.24886441,53.371588,247.94927)">
      <path
         d="m 100.3,-146.6 c 32.9,11.7 65,34.1 85.6,65.7 20.6,31.6 29.7,72.4 28.9,115.2 -0.8,42.9 -11.4,87.8 -39.1,115.8 -27.6,28.1 -72.2,39.3 -113.5,42.8 -41.4,3.5 -79.4,-0.7 -120.7,-6.8 -41.3,-6.2 -85.9,-14.3 -105.9,-41.4 -20,-27.2 -15.4,-73.3 -28.9,-121.2 -13.6,-47.8 -45.2,-97.4 -42.8,-143.2 2.5,-45.8 39,-88 84,-94.1 45.1,-6.1 98.6,23.8 142.2,39.3 43.6,15.4 77.3,16.3 110.2,27.9 z"/>
    </g>
  </g>
</svg>
