<?xml version="1.0" encoding="iso-8859-1"?>
<!-- Generator: Adobe Illustrator 19.0.0, SVG Export Plug-In . SVG Version: 6.00 Build 0)  -->
<svg version="1.1" id="Layer_1" xmlns="http://www.w3.org/2000/svg" xmlns:xlink="http://www.w3.org/1999/xlink" x="0px" y="0px"
	 viewBox="0 0 512 512" style="enable-background:new 0 0 512 512;" xml:space="preserve">
<path style="fill:#F8E9B4;" d="M33.8,328.908c0-7.222-5.797-13.077-12.949-13.077s-12.948,5.854-12.948,13.077
	s5.797,21.436,12.949,21.436S33.8,336.13,33.8,328.908z"/>
<path style="fill:#ADD9E8;" d="M301.826,460.771h-55.439c-6.677,0-12.091-5.413-12.091-12.09v-138.07h79.62v138.07
	C313.917,455.359,308.503,460.771,301.826,460.771z"/>
<path style="fill:#F8ECC8;" d="M313.916,415.353L313.916,415.353v33.328c0,6.677-5.413,12.09-12.09,12.09h-27.72v-5.609
	C274.106,433.176,291.93,415.353,313.916,415.353z"/>
<path style="opacity:0.1;enable-background:new    ;" d="M301.826,460.771h-55.439c-6.677,0-12.091-5.413-12.091-12.09v-138.07
	h79.62v138.07C313.917,455.359,308.503,460.771,301.826,460.771z"/>
<path style="fill:#B0E2E8;" d="M188.664,213.292c-72.816,0-131.844,43.572-131.844,97.32v138.07c0,6.677,5.413,12.09,12.09,12.09
	h55.439c6.677,0,12.09-5.413,12.09-12.09v-53.284c12.353,1.963,26.505,3.138,42.684,3.466v49.818c0,6.677,5.413,12.09,12.09,12.09
	h55.439c6.677,0,12.09-5.413,12.09-12.09v-56.985c48.85-12.815,61.765-41.844,61.765-81.085
	C320.508,256.863,261.479,213.292,188.664,213.292z"/>
<path style="fill:#F8ECC8;" d="M136.439,415.353L136.439,415.353v33.328c0,6.677-5.413,12.09-12.09,12.09H96.629v-5.609
	C96.629,433.176,114.453,415.353,136.439,415.353z"/>
<path style="opacity:0.05;enable-background:new    ;" d="M188.664,213.292c-23.044,0-44.702,4.368-63.551,12.037
	c13.889,58.26,71.77,101.961,141.074,101.961c19.157,0,37.436-3.347,54.161-9.409c0.107-2.383,0.16-4.806,0.16-7.271
	C320.508,256.863,261.479,213.292,188.664,213.292z"/>
<path style="fill:#F8ECC8;" d="M258.742,415.353L258.742,415.353v33.328c0,6.677-5.413,12.09-12.09,12.09h-27.719v-5.609
	C218.933,433.176,236.757,415.353,258.742,415.353z"/>
<path style="fill:#D9EBEF;" d="M504.096,128.025c0-40.032-32.452-72.483-72.483-72.483s-72.483,32.451-72.483,72.483v125.389
	c0,23.215,18.82,42.035,42.035,42.035s42.035-18.82,42.035-42.035c0-41.235,19.525-54.249,37.302-71.881
	c2.742-2.506,5.281-5.227,7.611-8.125c0.061-0.072,0.129-0.135,0.184-0.211C504.096,151.635,504.096,128.025,504.096,128.025z"/>
<path style="fill:#EDBCB9;" d="M452.199,148.005c0-25.7-20.835-46.535-46.535-46.535c-25.7,0-46.535,20.835-46.535,46.535v80.501
	c0,14.905,12.082,26.987,26.987,26.987c14.905,0,26.987-12.082,26.987-26.987c0-26.474,12.535-34.829,23.949-46.148
	c1.76-1.609,3.39-3.357,4.886-5.217c0.039-0.045,0.079-0.09,0.118-0.136C454.441,162.426,452.199,148.005,452.199,148.005z"/>
<ellipse style="fill:#B0E2E8;" cx="284.309" cy="180.197" rx="144.251" ry="128.971"/>
<path style="opacity:0.05;enable-background:new    ;" d="M358.075,209.282l-44.421-6.45c-8.722,44.28,1.628,77.205,16.418,99.71
	c17.831-5.33,34.109-13.69,48.074-24.394C365.24,263.442,358.075,239.364,358.075,209.282z"/>
<path style="fill:#D9EBEF;" d="M26.685,128.025c0-40.032,32.452-72.483,72.483-72.483s72.483,32.451,72.483,72.483v125.389
	c0,23.215-18.82,42.035-42.035,42.035s-42.035-18.82-42.035-42.035c0-41.235-19.525-54.249-37.302-71.881
	c-2.741-2.506-5.281-5.227-7.611-8.125c-0.061-0.072-0.129-0.135-0.184-0.211C26.685,151.635,26.685,128.025,26.685,128.025z"/>
<path style="fill:#EDBCB9;" d="M78.582,148.005c0-25.7,20.835-46.535,46.535-46.535c25.7,0,46.535,20.835,46.535,46.535v80.501
	c0,14.905-12.082,26.987-26.987,26.987c-14.905,0-26.987-12.082-26.987-26.987c0-26.474-12.536-34.829-23.949-46.148
	c-1.76-1.609-3.39-3.357-4.886-5.217c-0.039-0.045-0.079-0.09-0.118-0.136C76.34,162.426,78.582,148.005,78.582,148.005z"/>
<path style="fill:#ADD9E8;" d="M419.031,335.511c-16.292,0.001-32.432-3.914-46.997-11.818
	c-21.447-11.639-56.468-41.271-60.984-111.603c-0.539-8.387,6.159-15.476,14.561-15.476h25.109c7.595,0,13.95,5.831,14.532,13.404
	c2.477,32.258,14.061,55.973,32.628,66.049c11.67,6.334,25.836,6.902,38.922,1.948c6.426-2.433,13.674-0.235,17.418,5.526
	l14.053,21.62c4.827,7.426,1.858,17.383-6.219,21.019C448.276,332.382,433.593,335.51,419.031,335.511z"/>
<path style="opacity:0.1;enable-background:new    ;" d="M365.525,213.16l-22.138,6.583c-4.185,1.245-6.567,5.644-5.323,9.829
	c1.02,3.432,4.165,5.653,7.573,5.653c0.745,0,1.505-0.106,2.256-0.33l20.061-5.966C366.878,223.955,366.061,218.693,365.525,213.16z
	 M358.149,268.928c-3.472,2.645-4.144,7.605-1.497,11.077c1.556,2.042,3.91,3.115,6.294,3.115c1.669,0,3.353-0.527,4.783-1.617
	l18.71-14.252c-3.491-3.637-6.594-7.925-9.285-12.799L358.149,268.928z M411.649,280.732l-2.429,17.919
	c-0.587,4.326,2.444,8.308,6.77,8.893c0.361,0.048,0.719,0.073,1.073,0.073c3.893,0,7.284-2.878,7.822-6.844l2.742-20.23
	C422.263,281.502,416.863,281.576,411.649,280.732z"/>
<path d="M384.861,182.977c4.366,0,7.904-3.539,7.904-7.904v-12.596c0-4.365-3.538-7.904-7.904-7.904s-7.904,3.539-7.904,7.904
	v12.596C376.957,179.439,380.496,182.977,384.861,182.977z M431.613,47.638c-21.137,0-41.258,8.299-56.235,22.978
	c-25.409-17.132-56.947-27.293-91.074-27.293c-43.803,0-85.637,17.228-114.369,46.606c-13.599-25.16-40.218-42.291-70.767-42.291
	c-44.326,0-80.387,36.062-80.387,80.387c0,1.07,0.197,26.463,17.318,49.829c0.173,0.236,0.355,0.459,0.549,0.68
	c2.53,3.129,5.28,6.062,8.177,8.721c2.128,2.108,4.28,4.151,6.36,6.129c13.903,13.209,26.08,24.785,28.173,51.565
	c-8.931,8.432-16.029,17.816-21.116,27.793c-22.175,4.39-35.442,20.572-41.073,35.532C7.423,310.032,0,318.605,0,328.908
	c0,9.958,7.359,29.34,20.852,29.34s20.853-19.382,20.853-29.34c0-7.096-3.527-13.368-8.902-17.167
	c3.315-7.586,9.334-15.313,18.362-19.965c-1.485,6.179-2.249,12.482-2.249,18.838v138.07c0,11.024,8.969,19.994,19.995,19.994
	h55.438c11.025,0,19.995-8.969,19.995-19.994v-44.206c8.315,1.002,17.304,1.692,26.876,2.063v42.143
	c0,11.024,8.969,19.994,19.994,19.994h110.614c11.024,0,19.994-8.969,19.994-19.994v-97.401c4.383-11.326,6.529-24.603,6.584-40.05
	c3.678-1.002,7.32-2.134,10.921-3.392c10.148,11.109,20.641,18.299,28.939,22.802c15.401,8.358,32.956,12.775,50.767,12.775
	c15.921,0,31.487-3.374,46.266-10.027c5.972-2.688,10.455-7.829,12.298-14.104c1.837-6.25,0.855-12.968-2.697-18.43l-14.052-21.62
	c-3.03-4.662-7.522-7.834-12.555-9.26c1.851-5.263,2.812-10.835,2.812-16.56c0-32.962,13.204-45.506,28.493-60.031
	c2.081-1.978,4.232-4.02,6.36-6.127c2.899-2.662,5.648-5.595,8.176-8.721c0.189-0.212,0.368-0.431,0.541-0.666
	C511.804,154.492,512,129.098,512,128.028C512,83.699,475.938,47.638,431.613,47.638z M20.852,341.933
	c-2.167-2.292-5.044-8.987-5.044-13.026c0-2.853,2.263-5.173,5.044-5.173c2.782,0,5.045,2.321,5.045,5.173
	C25.896,332.946,23.019,339.641,20.852,341.933z M62.071,181.924c-2.057-1.955-4.185-3.976-6.228-6.003
	c-0.076-0.075-0.154-0.15-0.233-0.221c-2.401-2.196-4.683-4.633-6.785-7.245c-0.044-0.055-0.089-0.109-0.134-0.162
	c-0.008-0.008-0.016-0.018-0.023-0.027c-13.701-18.884-14.076-39.798-14.081-40.258c0.011-35.6,28.977-64.56,64.58-64.56
	c35.609,0,64.579,28.97,64.579,64.579v125.389c0,18.82-15.31,34.131-34.131,34.131s-34.132-15.311-34.132-34.131
	C95.483,213.666,78.497,197.529,62.071,181.924z M128.535,448.681c0,2.308-1.878,4.186-4.187,4.186h-19.724
	c0.99-13.844,10.844-25.276,23.91-28.618v24.433H128.535z M250.838,448.681c0,2.308-1.878,4.186-4.187,4.186h-19.724
	c0.99-13.844,10.844-25.276,23.91-28.618v24.433H250.838z M266.26,452.867h-0.062c0.035-0.161,0.061-0.325,0.092-0.487
	C266.28,452.543,266.268,452.705,266.26,452.867z M306.012,448.681c0,2.308-1.877,4.186-4.186,4.186h-19.725
	c0.99-13.844,10.844-25.276,23.911-28.618V448.681z M306.012,408.116c-20.49,3.432-36.588,19.962-39.37,40.662
	c0-0.033,0.005-0.064,0.005-0.097v-51.01c16.61-5.063,29.633-12.273,39.366-21.949v32.393H306.012z M256.737,384.051
	c-3.476,0.912-5.898,4.052-5.898,7.645v16.42c-21.824,3.656-38.676,22.167-39.751,44.752h-19.875c-2.308,0-4.186-1.878-4.186-4.186
	v-49.818c0-4.303-3.442-7.815-7.744-7.903c-15.513-0.314-29.51-1.448-41.605-3.37c-2.282-0.363-4.613,0.292-6.372,1.795
	c-1.76,1.502-2.773,3.698-2.773,6.011v12.719c-21.824,3.656-38.676,22.167-39.751,44.752H68.91c-2.308,0-4.187-1.878-4.187-4.186
	v-138.07c0-15.638,5.813-31.02,16.589-44.516c5.627,21.414,25.147,37.257,48.303,37.257c19.783,0,36.915-11.563,44.995-28.285
	c28.618,26.839,67.857,42.011,109.692,42.011c9.567,0,18.998-0.796,28.243-2.356C311.495,353.769,295.094,373.988,256.737,384.051z
	 M461.647,309.468c1.413,2.174,1.097,4.291,0.783,5.36c-0.318,1.082-1.211,3.06-3.62,4.145c-12.727,5.729-26.11,8.633-39.779,8.634
	c-15.186,0-30.134-3.755-43.228-10.861c-45.178-24.517-55.021-76.411-56.867-105.163c-0.279-4.356-4.023-7.658-8.394-7.381
	c-4.357,0.279-7.661,4.037-7.381,8.394c2.376,37.016,12.952,63.388,25.722,82.046c-14.288,4.401-29.238,6.628-44.58,6.628
	c-40.865,0-78.895-15.915-104.929-43.781c0.11-1.346,0.18-2.702,0.18-4.075V128.025c0-7.597-1.082-14.942-3.06-21.913
	c25.764-29.49,65.727-46.982,107.81-46.982c75.184,0,136.35,54.311,136.35,121.07c0,28.643-11.259,55.968-31.858,77.75
	c-8.629-11.107-14.066-27.726-15.664-48.537c-0.333-4.351-4.117-7.609-8.486-7.276c-4.352,0.334-7.61,4.133-7.275,8.486
	c2.709,35.297,15.758,61.006,36.739,72.391c13.529,7.342,30.111,8.215,45.49,2.392c3.028-1.147,6.313-0.142,7.993,2.442
	L461.647,309.468z M482.113,168.265c-0.007,0.009-0.016,0.019-0.023,0.027c-0.045,0.054-0.09,0.107-0.134,0.162
	c-2.097,2.608-4.381,5.047-6.786,7.245c-0.079,0.072-0.156,0.145-0.232,0.221c-2.044,2.027-4.17,4.047-6.227,6.002
	c-16.427,15.605-33.413,31.743-33.413,71.491c0,6.674-1.903,13.04-5.504,18.567c-9.797,2.624-19.85,1.64-28.142-2.86
	c-0.364-0.197-0.72-0.408-1.077-0.618c23.207-24.676,35.888-55.7,35.888-88.303c0-39.379-18.589-74.923-48.28-99.917
	c11.831-10.771,27.257-16.837,43.431-16.837c35.609,0,64.579,28.97,64.579,64.579C496.192,128.235,496.032,149.088,482.113,168.265z
	 M282.645,154.573c-4.366,0-7.904,3.539-7.904,7.904v12.596c0,4.365,3.538,7.904,7.904,7.904s7.904-3.539,7.904-7.904v-12.596
	C290.548,158.112,287.011,154.573,282.645,154.573z"/>
<g>
</g>
<g>
</g>
<g>
</g>
<g>
</g>
<g>
</g>
<g>
</g>
<g>
</g>
<g>
</g>
<g>
</g>
<g>
</g>
<g>
</g>
<g>
</g>
<g>
</g>
<g>
</g>
<g>
</g>
</svg>
