<?xml version="1.0" encoding="iso-8859-1"?>
<!-- Generator: Adobe Illustrator 19.0.0, SVG Export Plug-In . SVG Version: 6.00 Build 0)  -->
<svg version="1.1" id="Layer_1" xmlns="http://www.w3.org/2000/svg" xmlns:xlink="http://www.w3.org/1999/xlink" x="0px" y="0px"
	 viewBox="0 0 512 512" style="enable-background:new 0 0 512 512;" xml:space="preserve">
<rect x="264.331" y="161.19" style="fill:#EDBCB9;" width="79.861" height="79.861"/>
<path style="opacity:0.05;enable-background:new    ;" d="M264.331,161.188v45.239c12.861,2.953,26.946,4.368,41.716,4.368
	c13.415,0,26.267-1.168,38.149-3.594v-46.015h-79.865V161.188z"/>
<path style="fill:#EDBCB9;" d="M345.08,40.409c-4.278-18.529-23.167-32.491-45.828-32.491c-24.228,0-44.148,15.96-46.505,36.397
	c-33.639,11.278-56.399,35.056-56.399,73.412c0,56.352,49.114,80.111,109.699,80.111s109.7-23.759,109.7-80.111
	C415.747,74.164,386.392,49.405,345.08,40.409z"/>
<g style="opacity:0.05;">
	<circle cx="222.717" cy="116.514" r="7.829"/>
	<circle cx="229.051" cy="146.421" r="7.829"/>
	<circle cx="246.29" cy="130.059" r="7.829"/>
</g>
<path style="fill:#EDC3D5;" d="M290.328,469.13h-16.433c-3.828,0-6.932-3.104-6.932-6.932v-46.734
	c0-13.4,4.345-26.332,11.865-37.422c4.419-6.517,7.001-14.379,7.001-22.847c0-22.4-18.054-40.584-40.405-40.794
	c-21.895-0.206-40.298,17.275-41.155,39.154c-0.358,9.136,2.292,17.633,7.037,24.588c7.491,10.979,11.796,23.815,11.796,37.106
	v46.951c0,3.828-3.103,6.932-6.932,6.932l0,0c-9.652,0-17.476,7.825-17.476,17.476l0,0c0,9.652,7.824,17.476,17.476,17.476h74.157
	c9.652,0,17.476-7.825,17.476-17.476l0,0C307.805,476.955,299.98,469.13,290.328,469.13z"/>
<path style="fill:#EDBCB9;" d="M290.328,469.13h-16.433c-3.828,0-6.932-3.104-6.932-6.932v-46.734
	c0-13.4,4.345-26.332,11.865-37.422c4.419-6.517,7.001-14.379,7.001-22.847c0-22.4-18.054-40.584-40.405-40.794
	c-21.895-0.206-40.298,17.275-41.155,39.154c-0.358,9.136,2.292,17.633,7.037,24.588c7.491,10.979,11.796,23.815,11.796,37.106
	v46.951c0,3.828-3.103,6.932-6.932,6.932l0,0c-9.652,0-17.476,7.825-17.476,17.476l0,0c0,9.652,7.824,17.476,17.476,17.476h74.157
	c9.652,0,17.476-7.825,17.476-17.476l0,0C307.805,476.955,299.98,469.13,290.328,469.13z"/>
<path style="opacity:0.1;enable-background:new    ;" d="M245.425,314.402c-21.895-0.206-40.298,17.275-41.155,39.154
	c-0.358,9.136,2.292,17.633,7.037,24.588c3.167,4.641,5.757,9.617,7.7,14.816h41.933c3.543,0,7.023-0.26,10.441-0.721
	c1.921-4.969,4.422-9.733,7.448-14.196c4.419-6.517,7.001-14.379,7.001-22.847C285.83,332.796,267.776,314.612,245.425,314.402z"/>
<path style="fill:#F8E9B4;" d="M416.201,133.37l-51.388-16.685c-21.336-6.927-43.222,8.977-43.222,31.409v7.852
	c0,14.514,12.632,25.798,27.055,24.167l73.057-8.263c7.055-0.798,12.387-6.766,12.387-13.866l0,0
	C434.09,146.771,426.868,136.833,416.201,133.37z"/>
<path style="fill:#4A5058;" d="M266.827,376.258h-72.673c-46.014,0-87.56-27.536-105.487-69.915l-8.074-19.087
	c-9.273-21.922,6.82-46.202,30.623-46.202h232.981v57.835C344.197,341.618,309.557,376.258,266.827,376.258z"/>
<path style="fill:#EDBCB9;" d="M253.154,469.13h-16.433c-3.828,0-6.932-3.104-6.932-6.932v-46.734
	c0-13.4,4.345-26.332,11.865-37.422c4.419-6.517,7.001-14.379,7.001-22.847c0-22.4-18.054-40.584-40.405-40.794
	c-21.895-0.206-40.298,17.275-41.155,39.154c-0.358,9.136,2.292,17.633,7.037,24.588c7.492,10.979,11.796,23.815,11.796,37.106
	v46.951c0,3.828-3.104,6.932-6.932,6.932l0,0c-9.652,0-17.476,7.825-17.476,17.476l0,0c0,9.652,7.825,17.476,17.476,17.476h74.157
	c9.652,0,17.476-7.825,17.476-17.476l0,0C270.63,476.955,262.806,469.13,253.154,469.13z"/>
<g style="opacity:0.05;">
	<circle cx="190.952" cy="366.581" r="7.829"/>
	<circle cx="204.496" cy="392.266" r="7.829"/>
	<circle cx="215.412" cy="370.181" r="7.829"/>
</g>
<path style="opacity:0.1;enable-background:new    ;" d="M197.965,241.054c-3.792,0-7.494,0.383-11.071,1.111l-38.003,3.812
	c-10.866,1.089-21.826,0.788-32.614-0.9c-13.508-2.113-25.714,8.331-25.714,22.004l0,0c0,11.286,8.403,20.589,19.29,22.05
	c-0.712,2.277-1.096,4.698-1.096,7.209c0,11.705,8.329,21.461,19.382,23.674c-0.764,2.352-1.189,4.856-1.189,7.463l0,0
	c0,13.337,10.812,24.15,24.15,24.15h46.865c30.533,0,55.285-24.752,55.285-55.285S228.499,241.054,197.965,241.054z"/>
<path style="fill:#E8E8E8;" d="M209.046,230.996c-3.792,0-7.494,0.383-11.071,1.111l-38.004,3.812
	c-10.865,1.089-21.825,0.788-32.614-0.9c-13.508-2.113-25.714,8.331-25.714,22.004l0,0c0,11.286,8.403,20.589,19.29,22.05
	c-0.712,2.277-1.096,4.698-1.096,7.209c0,11.705,8.329,21.461,19.382,23.674c-0.764,2.352-1.189,4.856-1.189,7.463l0,0
	c0,13.337,10.812,24.15,24.15,24.15h46.865c30.533,0,55.285-24.752,55.285-55.285C264.331,255.749,239.579,230.996,209.046,230.996z
	"/>
<path d="M423.145,127.682c0.331-3.249,0.519-6.572,0.519-9.955c0-22.962-7.437-42.195-22.105-57.163
	c-12.306-12.558-29.179-21.569-50.199-26.817C344.263,13.922,323.188,0,299.252,0c-26.21,0-48.284,16.188-53.498,38.401
	c-37.016,13.972-57.324,41.985-57.324,79.326c0,41.281,24.664,70.103,67.983,81.973v33.436h-13.225
	c-9.855-6.353-21.571-10.057-34.142-10.057c-4.111,0-8.228,0.4-12.244,1.189l-37.622,3.773c-10.191,1.023-20.486,0.738-30.6-0.845
	c-8.494-1.33-17.112,1.026-23.758,6.453c-11.924,1.861-22.581,8.981-28.886,19.447c-6.866,11.398-7.828,24.973-2.637,37.245
	l8.074,19.086c15.321,36.224,46.994,62.757,85.175,71.582c0.337,0.537,0.684,1.069,1.043,1.596
	c6.816,9.988,10.418,21.275,10.418,32.643v45.983c-13.545,0.52-24.406,11.703-24.406,25.374c0,14.002,11.391,25.394,25.393,25.394
	h111.331c14.002,0,25.394-11.392,25.394-25.394c0-14.002-11.392-25.393-25.394-25.393H274.88v-45.749
	c0-11.445,3.63-22.849,10.494-32.972c0.096-0.14,0.188-0.296,0.284-0.439c37.991-8.601,66.453-42.611,66.453-83.165v-98.342
	c15.191-3.774,28.355-9.572,39.075-17.277l31.404-3.552c11.068-1.252,19.415-10.595,19.415-21.733
	C442.007,144.938,434.591,133.304,423.145,127.682z M276.673,477.049h13.655c5.271,0,9.559,4.287,9.559,9.558
	c0,5.271-4.287,9.559-9.559,9.559h-13.655c1.204-2.953,1.874-6.179,1.874-9.559C278.547,483.226,277.878,480.001,276.673,477.049z
	 M95.958,303.259l-8.074-19.086c-3.192-7.549-2.603-15.897,1.617-22.905c1.201-1.994,2.637-3.771,4.253-5.322
	c-0.013,0.359-0.03,0.717-0.03,1.078c0,12.233,7.436,23.018,18.232,27.696c-0.025,0.519-0.038,1.041-0.038,1.562
	c0,12.542,7.344,23.724,18.269,28.946c-0.051,0.728-0.075,1.459-0.075,2.191c0,16.778,12.954,30.577,29.385,31.946
	c-0.155,1.288-0.263,2.582-0.314,3.882c-0.125,3.165,0.057,6.294,0.523,9.36C131.168,352.878,107.879,331.44,95.958,303.259z
	 M162.181,333.65c-8.951,0-16.232-7.281-16.232-16.231c0-1.692,0.269-3.38,0.801-5.017c0.699-2.149,0.445-4.495-0.697-6.445
	c-1.141-1.951-3.061-3.321-5.278-3.765c-7.544-1.511-13.02-8.203-13.02-15.91c0-1.654,0.247-3.285,0.736-4.849
	c0.695-2.226,0.374-4.647-0.88-6.616c-1.254-1.968-3.312-3.282-5.625-3.592c-7.084-0.95-12.425-7.056-12.425-14.202
	c0-4.201,1.829-8.175,5.022-10.906c2.62-2.242,5.929-3.449,9.326-3.449c0.74,0,1.483,0.057,2.225,0.173
	c11.448,1.789,23.096,2.111,34.628,0.955l38.004-3.812c0.264-0.026,0.526-0.068,0.785-0.119c3.108-0.631,6.303-0.951,9.495-0.951
	c26.118,0,47.368,21.25,47.368,47.368c0,26.118-21.25,47.368-47.368,47.368h-46.865V333.65z M253.154,496.165h-74.157
	c-5.27,0-9.558-4.287-9.558-9.559c0-5.27,4.288-9.558,9.558-9.558c8.188,0,14.849-6.661,14.849-14.848v-46.951
	c0-14.566-4.556-28.94-13.174-41.569c-3.986-5.841-5.946-12.693-5.666-19.816c0.058-1.473,0.231-2.934,0.489-4.38h33.55
	c10.482,0,20.367-2.58,29.079-7.115c1.712,4.025,2.613,8.362,2.613,12.826c0,6.601-1.95,12.965-5.637,18.404
	c-8.653,12.764-13.228,27.242-13.228,41.866V462.2c0,8.188,6.661,14.848,14.848,14.848h16.433c5.27,0,9.558,4.287,9.558,9.558
	C262.712,491.878,258.425,496.165,253.154,496.165z M259.047,415.465v46.446c-1.893-0.452-3.864-0.698-5.893-0.698h-15.447v-45.749
	c0-10.813,3.245-21.588,9.397-31.29h19.124C261.513,394.117,259.047,404.749,259.047,415.465z M336.28,298.889
	c0,38.296-31.157,69.451-69.453,69.451H254.77c1.188-4.244,1.803-8.656,1.803-13.144c0-7.73-1.796-15.209-5.24-21.987
	c12.834-11.575,20.916-28.324,20.916-46.927c0-13.946-4.55-26.846-12.23-37.311h76.259v49.917H336.28z M336.28,233.136h-64.031
	v-29.999c10.426,1.726,21.709,2.618,33.798,2.618c10.652,0,20.744-0.725,30.232-2.113V233.136z M306.047,189.92
	c-91.864,0-101.781-50.487-101.781-72.194c0-40.339,27.732-58.105,50.998-65.905c2.913-0.976,4.996-3.549,5.348-6.6
	c1.901-16.477,18.873-29.386,38.64-29.386c18.558,0,34.587,11.085,38.113,26.356c0.688,2.984,3.037,5.303,6.03,5.955
	c53.255,11.597,64.434,44.239,64.434,69.581c0,1.538-0.056,3.053-0.136,4.556l-40.434-13.129
	c-12.611-4.094-25.99-1.972-36.711,5.822c-10.723,7.793-16.873,19.863-16.873,33.12v7.852c0,9.172,3.923,17.934,10.762,24.043
	c4.013,3.585,8.82,6.064,13.95,7.297C328.444,189.019,317.636,189.92,306.047,189.92z M420.813,163.985l-73.057,8.263
	c-4.706,0.529-9.241-0.912-12.771-4.067c-3.532-3.154-5.477-7.499-5.477-12.234v-7.852c0-8.129,3.771-15.531,10.348-20.31
	c4.378-3.182,9.478-4.821,14.68-4.821c2.611,0,5.248,0.414,7.831,1.253l51.388,16.686c7.427,2.41,12.417,9.276,12.417,17.085
	C426.172,161.059,423.867,163.639,420.813,163.985z M289.503,82.086c-10.368,0-18.804,8.435-18.804,18.804
	c0,4.374,3.544,7.918,7.918,7.918s7.918-3.544,7.918-7.918c0-1.636,1.332-2.969,2.969-2.969s2.969,1.332,2.969,2.969
	c0,4.374,3.544,7.918,7.918,7.918c4.374,0,7.918-3.544,7.918-7.918C308.306,90.521,299.871,82.086,289.503,82.086z M377.665,109.458
	c4.373,0,7.918-3.544,7.918-7.918V88.849c0-4.374-3.545-7.918-7.918-7.918c-4.374,0-7.918,3.544-7.918,7.918v12.69
	C369.747,105.913,373.291,109.458,377.665,109.458z"/>
<g>
</g>
<g>
</g>
<g>
</g>
<g>
</g>
<g>
</g>
<g>
</g>
<g>
</g>
<g>
</g>
<g>
</g>
<g>
</g>
<g>
</g>
<g>
</g>
<g>
</g>
<g>
</g>
<g>
</g>
</svg>
