<?xml version="1.0" encoding="iso-8859-1"?>
<!-- Generator: Adobe Illustrator 19.0.0, SVG Export Plug-In . SVG Version: 6.00 Build 0)  -->
<svg version="1.1" id="Layer_1" xmlns="http://www.w3.org/2000/svg" xmlns:xlink="http://www.w3.org/1999/xlink" x="0px" y="0px"
	 viewBox="0 0 512 512" style="enable-background:new 0 0 512 512;" xml:space="preserve">
<circle style="fill:#BDD186;" cx="294.519" cy="184.622" r="20.735"/>
<path style="opacity:0.1;enable-background:new    ;" d="M314.422,178.827h-39.8c-0.534,1.839-0.835,3.778-0.835,5.789
	c0,11.452,9.283,20.735,20.735,20.735c11.452,0,20.735-9.284,20.735-20.735C315.257,182.604,314.956,180.667,314.422,178.827z"/>
<circle style="fill:#BDD186;" cx="235.569" cy="184.622" r="20.735"/>
<path style="opacity:0.1;enable-background:new    ;" d="M228.953,178.827c-4.561,0-9.059,0.271-13.483,0.786
	c-0.399,1.605-0.634,3.276-0.634,5.005c0,11.452,9.284,20.735,20.735,20.735c11.452,0,20.736-9.284,20.736-20.735
	c0-2.012-0.301-3.95-0.835-5.789h-26.519V178.827z"/>
<circle style="fill:#BDD186;" cx="180.297" cy="196.452" r="20.735"/>
<path style="opacity:0.1;enable-background:new    ;" d="M160.209,201.521c2.264,8.998,10.385,15.668,20.085,15.668
	c11.452,0,20.735-9.284,20.735-20.735c0-4.916-1.718-9.424-4.576-12.977C183.234,187.345,171.003,193.516,160.209,201.521z"/>
<circle style="fill:#BDD186;" cx="135.074" cy="237.445" r="20.735"/>
<path style="opacity:0.1;enable-background:new    ;" d="M142.25,218.016c-8.953,10.161-16.136,21.912-21.1,34.769
	c3.682,3.343,8.554,5.398,13.919,5.398c11.452,0,20.735-9.284,20.735-20.735C155.804,228.525,150.156,220.941,142.25,218.016z"/>
<circle style="fill:#BDD186;" cx="83.638" cy="278.438" r="20.735"/>
<path style="opacity:0.1;enable-background:new    ;" d="M62.947,277.573c-0.012,0.289-0.043,0.572-0.043,0.864
	c0,11.452,9.283,20.735,20.735,20.735s20.735-9.284,20.735-20.735c0-3.194-0.743-6.208-2.033-8.91L62.947,277.573z"/>
<path style="fill:#97B05F;" d="M489.722,214.592c-7.913,0-14.328,6.414-14.328,14.328v11.148h-19.128V228.92
	c0-7.913-6.414-14.328-14.328-14.328s-14.328,6.414-14.328,14.328v11.148h-20.711c-5.417-31.488-32.838-55.452-65.873-55.452
	H233.792c-49.976,0-92.534,31.73-108.643,76.143c-2.653,7.316-8.936,12.712-16.561,14.27l-87.21,17.812
	c-7.814,1.596-13.427,8.471-13.427,16.447c0,9.27,7.515,16.786,16.786,16.786h452.118c15.019,0,27.195-12.176,27.195-27.195v-69.957
	C504.049,221.008,497.635,214.592,489.722,214.592z"/>
<g>
	<path style="fill:#FFFFFF;" d="M427.61,293.204c-4.392,0-7.951-3.559-7.951-7.951v-9.998c0-4.391,3.559-7.951,7.951-7.951
		s7.951,3.559,7.951,7.951v9.998C435.56,289.645,432.001,293.204,427.61,293.204z"/>
	<path style="fill:#FFFFFF;" d="M454.135,293.204c-4.392,0-7.951-3.559-7.951-7.951v-9.998c0-4.391,3.559-7.951,7.951-7.951
		c4.391,0,7.951,3.559,7.951,7.951v9.998C462.086,289.645,458.527,293.204,454.135,293.204z"/>
	<path style="fill:#FFFFFF;" d="M480.66,293.204c-4.392,0-7.951-3.559-7.951-7.951v-9.998c0-4.391,3.559-7.951,7.951-7.951
		s7.951,3.559,7.951,7.951v9.998C488.611,289.645,485.052,293.204,480.66,293.204z"/>
</g>
<path style="fill:#F8E9B4;" d="M320.127,303.494L8.962,314.979c2.333,6.464,8.506,11.095,15.775,11.095h360.755
	C367.277,310.665,343.967,302.614,320.127,303.494z"/>
<path style="opacity:0.15;enable-background:new    ;" d="M326.55,317.347h-15.093c-3.929,0-7.261-2.882-7.83-6.77
	c-1.43-9.801-9.835-17.069-19.741-17.069c-12.164,0-21.497,10.794-19.741,22.831l1.421,9.734h79.96
	C340.939,320.734,334.141,317.347,326.55,317.347z"/>
<path style="opacity:0.15;enable-background:new    ;" d="M195.455,317.347h-15.092c-3.929,0-7.263-2.882-7.83-6.77
	c-1.43-9.801-9.835-17.069-19.741-17.069c-12.164,0-21.497,10.794-19.741,22.831l1.42,9.734h79.96
	C209.844,320.734,203.047,317.347,195.455,317.347z"/>
<g>
	<path style="fill:#BDD186;" d="M312.638,309.517L312.638,309.517c-1.43-9.801-9.835-17.069-19.741-17.069l0,0
		c-12.164,0-21.498,10.794-19.741,22.831l2.43,16.646c1.357,9.299,9.331,16.194,18.728,16.194h59.448
		c3.764,0,6.816-3.052,6.816-6.815l0,0c0-13.816-11.201-25.017-25.017-25.017h-15.093
		C316.539,316.287,313.206,313.404,312.638,309.517z"/>
	<path style="fill:#BDD186;" d="M182.551,309.517L182.551,309.517c-1.43-9.801-9.835-17.069-19.741-17.069l0,0
		c-12.164,0-21.497,10.794-19.741,22.831l2.43,16.646c1.357,9.299,9.331,16.194,18.728,16.194h59.447
		c3.764,0,6.816-3.052,6.816-6.815l0,0c0-13.816-11.201-25.017-25.017-25.017h-15.093
		C186.451,316.287,183.119,313.404,182.551,309.517z"/>
</g>
<g style="opacity:0.1;">
	<path d="M285.082,249.826c-9.822,0-17.812-7.991-17.812-17.812c0-3.645,1.1-7.037,2.985-9.863
		c-1.885-2.825-2.985-6.217-2.985-9.862c0-9.822,7.991-17.812,17.812-17.812c4.392,0,7.951,3.559,7.951,7.951
		s-3.559,7.951-7.951,7.951c-1.054,0-1.911,0.858-1.911,1.911c0,1.054,0.858,1.911,1.911,1.911c4.392,0,7.951,3.559,7.951,7.951
		s-3.559,7.951-7.951,7.951c-1.054,0-1.911,0.859-1.911,1.912s0.858,1.911,1.911,1.911c4.392,0,7.951,3.559,7.951,7.951
		C293.033,246.267,289.474,249.826,285.082,249.826z"/>
	<path d="M215.119,249.826c-9.822,0-17.812-7.991-17.812-17.812c0-3.645,1.1-7.037,2.986-9.863
		c-1.885-2.825-2.986-6.217-2.986-9.862c0-9.822,7.991-17.812,17.812-17.812c4.391,0,7.951,3.559,7.951,7.951
		s-3.56,7.951-7.951,7.951c-1.054,0-1.911,0.858-1.911,1.911c0,1.054,0.858,1.911,1.911,1.911c4.391,0,7.951,3.559,7.951,7.951
		s-3.56,7.951-7.951,7.951c-1.054,0-1.911,0.859-1.911,1.912s0.858,1.911,1.911,1.911c4.391,0,7.951,3.559,7.951,7.951
		C223.069,246.267,219.51,249.826,215.119,249.826z"/>
	<path d="M250.101,249.826c-9.822,0-17.812-7.991-17.812-17.812c0-3.645,1.1-7.037,2.986-9.863
		c-1.885-2.825-2.986-6.217-2.986-9.862c0-9.822,7.991-17.812,17.812-17.812c4.391,0,7.951,3.559,7.951,7.951
		s-3.56,7.951-7.951,7.951c-1.054,0-1.911,0.858-1.911,1.911c0,1.054,0.858,1.911,1.911,1.911c4.391,0,7.951,3.559,7.951,7.951
		s-3.56,7.951-7.951,7.951c-1.054,0-1.911,0.859-1.911,1.912s0.858,1.911,1.911,1.911c4.391,0,7.951,3.559,7.951,7.951
		C258.052,246.267,254.492,249.826,250.101,249.826z"/>
	<path d="M180.137,269.549c-9.822,0-17.812-7.991-17.812-17.812c0-3.645,1.1-7.037,2.985-9.862
		c-1.886-2.825-2.985-6.217-2.985-9.862c0-9.822,7.991-17.812,17.812-17.812c4.391,0,7.951,3.559,7.951,7.951
		s-3.56,7.951-7.951,7.951c-1.054,0-1.911,0.858-1.911,1.911c0,1.054,0.858,1.911,1.911,1.911c4.391,0,7.951,3.559,7.951,7.951
		s-3.56,7.951-7.951,7.951c-1.054,0-1.911,0.858-1.911,1.911c0,1.054,0.858,1.911,1.911,1.911c4.391,0,7.951,3.559,7.951,7.951
		C188.087,265.99,184.527,269.549,180.137,269.549z"/>
</g>
<path d="M489.722,206.643c-12.285,0-22.279,9.994-22.279,22.278v3.198h-3.227v-3.198c0-12.284-9.994-22.278-22.278-22.278
	c-12.285,0-22.279,9.994-22.279,22.278v3.198h-6.366c-8.63-32.505-38.02-55.453-72.268-55.453h-18.948
	c-3.456-11.961-14.496-20.736-27.555-20.736c-13.059,0-24.1,8.775-27.557,20.736h-3.836c-3.457-11.961-14.498-20.736-27.557-20.736
	c-14.096,0-25.841,10.223-28.233,23.643c-1.115,0.246-2.226,0.504-3.332,0.78c-5.249-7.733-14.064-12.584-23.713-12.584
	c-15.817,0-28.687,12.868-28.687,28.685c0,3.466,0.637,6.845,1.835,10.031c-1.966,1.682-3.884,3.423-5.743,5.228
	c-3.905-1.924-8.219-2.951-12.632-2.951c-15.817,0-28.687,12.868-28.687,28.686c0,8.758,3.993,16.861,10.578,22.225
	c-1.553,3.024-4.168,5.398-7.303,6.712c-4.584-9.896-14.599-16.636-26.018-16.636c-15.626,0-28.365,12.561-28.672,28.114
	l-35.182,7.185C8.322,287.393,0,297.586,0,309.287c0,13.639,11.097,24.736,24.736,24.736h113.079
	c2.317,12.63,13.488,22.047,26.412,22.047h59.449c8.142,0,14.766-6.624,14.766-14.767c0-2.502-0.289-4.937-0.82-7.281h30.283
	c2.317,12.63,13.487,22.047,26.412,22.047h59.448c8.142,0,14.766-6.624,14.766-14.767c0-2.502-0.289-4.937-0.82-7.281h109.148
	c19.379,0,35.145-15.765,35.145-35.145v-69.957C512,216.637,502.006,206.643,489.722,206.643z M294.522,171.831
	c4.044,0,7.649,1.893,9.993,4.835h-19.989C286.872,173.724,290.477,171.831,294.522,171.831z M235.572,171.831
	c4.045,0,7.651,1.893,9.994,4.835h-11.774c-2.833,0-5.647,0.116-8.445,0.308C227.681,173.859,231.39,171.831,235.572,171.831z
	 M180.296,183.67c2.561,0,4.988,0.776,7.028,2.126c-6.907,2.819-13.529,6.259-19.793,10.248
	C167.75,189.185,173.384,183.67,180.296,183.67z M135.069,224.664c0.33,0,0.657,0.02,0.985,0.046
	c-4.579,5.909-8.634,12.276-12.11,19.027c-1.065-1.881-1.659-4.037-1.659-6.288C122.283,230.399,128.018,224.664,135.069,224.664z
	 M83.638,265.651c3.812,0,7.265,1.694,9.619,4.393l-21.775,4.447C73.151,269.368,77.966,265.651,83.638,265.651z M164.227,340.169
	c-5.411,0-10.079-4.038-10.861-9.391l-2.43-16.646c-0.511-3.502,0.482-6.904,2.796-9.581c2.315-2.677,5.539-4.151,9.077-4.151
	c5.915,0,11.019,4.414,11.874,10.267c1.129,7.737,7.877,13.572,15.696,13.572h15.092c9.029,0,16.443,7.048,17.029,15.932h-58.274
	V340.169z M294.314,340.169c-5.41,0-10.08-4.038-10.86-9.391l-2.43-16.646c-0.51-3.502,0.482-6.905,2.798-9.581
	c2.315-2.677,5.539-4.151,9.077-4.151c5.914,0,11.019,4.414,11.874,10.267c1.128,7.737,7.877,13.572,15.696,13.572h15.092
	c9.029,0,16.443,7.048,17.028,15.932h-58.275V340.169z M496.099,264.306h-87.978c-4.392,0-7.951,3.559-7.951,7.951
	c0,4.392,3.559,7.951,7.951,7.951h87.978v18.67c0,10.611-8.633,19.243-19.243,19.243H358.974
	c-5.979-6.038-14.265-9.787-23.414-9.787l-15.054,0.035v-0.002c-0.001,0-0.001,0-0.001,0c-1.986-13.609-13.854-23.872-27.607-23.872
	c-8.108,0-15.801,3.517-21.105,9.652c-5.304,6.134-7.674,14.254-6.504,22.278l0.247,1.695h-36.65
	c-5.979-6.038-14.265-9.787-23.414-9.787l-15.054,0.035l-0.001-0.002c-1.987-13.609-13.855-23.872-27.608-23.872
	c-8.108,0-15.801,3.517-21.105,9.652c-5.304,6.134-7.674,14.254-6.502,22.277l0.247,1.695H24.736c-4.872,0-8.835-3.963-8.835-8.835
	c0-4.179,2.972-7.82,7.067-8.657l87.21-17.812c10.277-2.099,18.878-9.513,22.444-19.348c15.384-42.41,56.041-70.904,101.17-70.904
	h107.233c28.76,0,53.168,20.544,58.038,48.85c0.656,3.815,3.965,6.603,7.836,6.603h20.711c4.392,0,7.951-3.559,7.951-7.951v-11.149
	c0-3.516,2.861-6.377,6.378-6.377c3.516,0,6.377,2.86,6.377,6.377v11.149c0,4.392,3.559,7.951,7.951,7.951h19.128
	c4.392,0,7.951-3.559,7.951-7.951v-11.149c0-3.516,2.861-6.377,6.378-6.377c3.516,0,6.377,2.86,6.377,6.377v35.388H496.099z
	 M375.788,214.361c-9.62,0-17.448,7.828-17.448,17.449c0,4.392,3.559,7.951,7.951,7.951s7.951-3.559,7.951-7.951
	c0-0.853,0.693-1.548,1.547-1.548c0.853,0,1.547,0.694,1.547,1.548c0,4.392,3.559,7.951,7.951,7.951s7.951-3.559,7.951-7.951
	C393.236,222.189,385.409,214.361,375.788,214.361z M332.767,214.361c-9.621,0-17.449,7.828-17.449,17.449
	c0,4.392,3.559,7.951,7.951,7.951c4.391,0,7.951-3.559,7.951-7.951c0-0.853,0.694-1.548,1.548-1.548
	c0.853,0,1.547,0.694,1.547,1.548c0,4.392,3.559,7.951,7.951,7.951s7.951-3.559,7.951-7.951
	C350.214,222.189,342.387,214.361,332.767,214.361z"/>
<g>
</g>
<g>
</g>
<g>
</g>
<g>
</g>
<g>
</g>
<g>
</g>
<g>
</g>
<g>
</g>
<g>
</g>
<g>
</g>
<g>
</g>
<g>
</g>
<g>
</g>
<g>
</g>
<g>
</g>
</svg>
