<?xml version="1.0" encoding="iso-8859-1"?>
<!-- Generator: Adobe Illustrator 19.0.0, SVG Export Plug-In . SVG Version: 6.00 Build 0)  -->
<svg version="1.1" id="Layer_1" xmlns="http://www.w3.org/2000/svg" xmlns:xlink="http://www.w3.org/1999/xlink" x="0px" y="0px"
	 viewBox="0 0 512 512" style="enable-background:new 0 0 512 512;" xml:space="preserve">
<path style="fill:#F4B759;" d="M120.827,324.907c-62.246,0-112.888-50.642-112.888-112.887v-26.887c0-9.604,7.786-17.39,17.39-17.39
	s17.39,7.786,17.39,17.39v26.887c0,43.069,35.038,78.107,78.107,78.107c9.604,0,17.39,7.786,17.39,17.39
	C138.217,317.121,130.432,324.907,120.827,324.907z"/>
<path style="opacity:0.2;enable-background:new    ;" d="M120.827,290.126c-11.128,0-21.71-2.355-31.299-6.567
	c-8.617,8.077-15.687,17.781-20.72,28.623c15.577,8.122,33.271,12.723,52.02,12.723c9.604,0,17.39-7.786,17.39-17.39
	C138.217,297.913,130.432,290.126,120.827,290.126z"/>
<path style="fill:#4A5058;" d="M25.329,167.743c-9.604,0-17.39,7.786-17.39,17.39v22.8h34.78v-22.8
	C42.72,175.529,34.934,167.743,25.329,167.743z"/>
<path style="fill:#F4B759;" d="M312.467,431.43h-4.793v-80.306h-42.51v99.391c0,7.389,5.989,13.378,13.378,13.378h51.249
	c4.18,0,7.57-3.39,7.57-7.57l0,0C337.362,442.576,326.215,431.43,312.467,431.43z"/>
<path style="opacity:0.1;enable-background:new    ;" d="M312.467,431.43h-4.793v-80.306h-42.51v99.391
	c0,7.389,5.989,13.378,13.378,13.378h51.249c4.18,0,7.57-3.39,7.57-7.57l0,0C337.362,442.576,326.215,431.43,312.467,431.43z"/>
<path style="fill:#F4B759;" d="M168.136,258.533c-51.137,0-92.591,41.454-92.591,92.591l0,0v99.391
	c0,7.389,5.989,13.378,13.378,13.378h51.249c4.18,0,7.57-3.388,7.57-7.57l0,0c0-13.749-11.146-24.895-24.895-24.895h-4.793v-30.72
	c2.496,0.382,5.053,0.581,7.656,0.581H250.83c33.892,0,61.367-27.475,61.367-61.366v-81.391L168.136,258.533L168.136,258.533z"/>
<path style="fill:#F8ECC8;" d="M256.597,262.749v79.539c0,11.617-9.417,21.034-21.034,21.034h-63.651
	c-20.969,0-37.968,16.999-37.968,37.968l0,0h116.888c33.892,0,61.366-27.475,61.366-61.366v-77.175H256.597L256.597,262.749z"/>
<path style="fill:#F4B759;" d="M226.925,431.43h-4.793v-70.778h-42.51v89.864c0,7.389,5.989,13.378,13.378,13.378h51.249
	c4.18,0,7.57-3.39,7.57-7.57l0,0C251.82,442.576,240.674,431.43,226.925,431.43z"/>
<path style="opacity:0.1;enable-background:new    ;" d="M168.136,258.533c-11.032,0-21.612,1.933-31.423,5.473
	c-5.086,6.02-9.667,12.704-13.574,20.14c-1.938,3.689,1.281,7.936,5.351,7.039c14.66-3.228,30.009-2.366,40.196,1.137
	c3.87,1.331,5.315,6.084,2.722,9.25c-11.917,14.548-13.926,25.187-12.267,34.066c0.669,3.579,4.774,5.228,7.706,3.071
	c17.503-12.877,52.291-18.945,76.465-10.898h0.042c25.403,9.911,50.435,15.564,68.739,15.595c0.065-1.154,0.105-2.313,0.105-3.483
	v-81.391H168.136V258.533z"/>
<circle style="fill:#4A5058;" cx="189.832" cy="94.583" r="46.479"/>
<circle style="fill:#EDBCB9;" cx="189.832" cy="94.583" r="21.015"/>
<circle style="fill:#4A5058;" cx="438.9" cy="94.583" r="46.479"/>
<circle style="fill:#EDBCB9;" cx="438.9" cy="94.583" r="21.015"/>
<path style="fill:#F4B759;" d="M314.365,60.323c51.294,0,131.422,36.443,169.746,123.561
	c34.221,77.792-107.252,143.486-169.746,143.486s-203.968-65.693-169.746-143.486C182.942,96.766,263.07,60.323,314.365,60.323z"/>
<path style="fill:#F8ECC8;" d="M498.121,275.146c4.07,0.896,7.29-3.35,5.351-7.039c-40.481-77.052-152.581-74.082-164.518-74.082
	h-49.179c-11.938,0-124.037-2.969-164.518,74.082c-1.938,3.689,1.281,7.935,5.351,7.039c14.66-3.228,30.009-2.366,40.196,1.137
	c3.87,1.331,5.315,6.084,2.722,9.25c-11.917,14.548-13.926,25.187-12.267,34.066c0.669,3.579,4.774,5.228,7.706,3.071
	c17.503-12.877,52.291-18.945,76.465-10.897h0.042c25.473,9.938,50.576,15.598,68.893,15.598c18.317,0,43.42-5.659,68.893-15.598
	h0.042c24.174-8.047,58.962-1.981,76.465,10.897c2.932,2.157,7.037,0.508,7.706-3.071c1.66-8.878-0.35-19.518-12.267-34.066
	c-2.593-3.166-1.149-7.919,2.722-9.25C468.112,272.782,483.461,271.919,498.121,275.146z"/>
<path style="fill:#F7DA70;" d="M353.682,199.748l-27.672-78.48c-3.875-10.99-19.417-10.99-23.293,0l-27.672,78.48H353.682z"/>
<path style="fill:#4A5058;" d="M352.15,207.653l-8.795,10.474c-15.128,18.017-42.853,18.017-57.982,0l-8.795-10.474
	c-4.532-5.397-0.694-13.628,6.352-13.628h62.867C352.844,194.025,356.681,202.256,352.15,207.653z"/>
<path d="M510.5,264.415c-5.285-10.061-11.888-19.203-19.769-27.414c8.582-18.806,8.824-37.723,0.647-56.314
	c-6.332-14.393-14.008-27.92-22.881-40.426c15.332-9.904,24.819-26.939,24.819-45.676c0-30.007-24.411-54.418-54.418-54.418
	c-21.637,0-40.789,12.673-49.495,31.782c-25.012-12.564-51.495-19.565-75.038-19.565s-50.026,7.001-75.037,19.565
	c-8.707-19.109-27.859-31.782-49.495-31.782c-30.007,0-54.419,24.413-54.419,54.418c0,18.737,9.487,35.771,24.819,45.676
	c-8.873,12.507-16.548,26.033-22.88,40.426c-8.178,18.591-7.936,37.508,0.647,56.314c-7.668,7.989-14.12,16.866-19.331,26.607
	c-7.396,4.184-14.132,9.213-20.106,14.933c-28.415-9.512-47.9-36.241-47.9-66.522v-26.887c0-13.967-11.363-25.329-25.329-25.329
	C11.363,159.804,0,171.166,0,185.133v26.887c0,47.697,28.553,91.112,71.785,110.394c-2.727,9.178-4.178,18.828-4.178,28.71v99.391
	c0,11.754,9.563,21.317,21.317,21.317h51.249c8.552,0,15.509-6.957,15.509-15.509c0-17.044-13.053-31.096-29.688-32.684v-14.411
	h45.69v41.287c0,11.754,9.563,21.317,21.318,21.317h51.249c7.371,0,13.544-5.172,15.113-12.075
	c3.452,7.132,10.74,12.075,19.18,12.075h51.249c8.552,0,15.509-6.957,15.509-15.509c0-17.044-13.053-31.096-29.688-32.684v-59.122
	c1.306-3.43,2.362-6.981,3.113-10.645c0.925-4.507,1.411-9.172,1.411-13.95v-4.793c0.656-0.036,1.305-0.065,1.973-0.111
	c0.025-0.001,0.05,0.001,0.074,0c0,0,0,0,0.001,0c0.071-0.005,0.143-0.011,0.214-0.016h0.002c18.281-1.32,40.802-6.9,63.48-15.722
	c22.71-7.522,54.67-0.891,69.177,9.782c3.584,2.637,8.183,3.239,12.302,1.613c4.135-1.632,7.093-5.228,7.913-9.62
	c2.308-12.345-1.503-24.517-11.982-38.107c9.322-2.455,21.943-2.51,33.121-0.05c4.929,1.086,9.887-0.727,12.941-4.728
	C512.413,274.164,512.852,268.893,510.5,264.415z M438.898,56.046c21.252,0,38.54,17.289,38.54,38.54
	c0,13.691-7.152,26.101-18.625,33.005c-2.076-2.523-4.207-4.994-6.387-7.416c9.166-4.865,15.426-14.508,15.426-25.589
	c0-15.965-12.989-28.954-28.954-28.954c-12.558,0-23.269,8.038-27.272,19.237c-1.074-0.716-2.155-1.424-3.243-2.12
	c-1.659-1.063-3.332-2.095-5.015-3.107C409.287,65.504,423.164,56.046,438.898,56.046z M451.973,94.586
	c0,6.783-5.193,12.374-11.811,13.012c-4.583-4.332-9.354-8.454-14.298-12.367c-0.012-0.214-0.041-0.432-0.041-0.644
	c0-7.21,5.865-13.075,13.075-13.075C446.108,81.51,451.973,87.376,451.973,94.586z M151.29,94.586
	c0-21.252,17.289-38.54,38.541-38.54c15.733,0,29.61,9.458,35.53,23.596c-1.682,1.012-3.356,2.045-5.015,3.107
	c-1.088,0.697-2.169,1.405-3.243,2.12c-4.002-11.2-14.714-19.237-27.271-19.237c-15.965,0-28.954,12.989-28.954,28.954
	c0,11.081,6.26,20.723,15.426,25.589c-2.181,2.422-4.312,4.894-6.387,7.416C158.442,120.687,151.29,108.276,151.29,94.586z
	 M202.906,94.586c0,0.213-0.03,0.43-0.041,0.644c-4.943,3.913-9.715,8.036-14.298,12.367c-6.619-0.638-11.811-6.229-11.811-13.012
	c0-7.21,5.867-13.075,13.075-13.075C197.04,81.51,202.906,87.376,202.906,94.586z M151.885,187.082
	c0.133-0.303,0.272-0.595,0.405-0.896h45.473c4.385,0,7.939-3.555,7.939-7.939s-3.555-7.939-7.939-7.939h-37.628
	c4.207-7.698,8.698-14.781,13.355-21.304h13.167c4.385,0,7.939-3.555,7.939-7.939s-3.555-7.939-7.939-7.939h-0.612
	c14.758-16.875,30.122-28.848,42.862-37.005c13.692-8.768,28.242-15.676,42.68-20.424v5.262c0,4.385,3.555,7.939,7.939,7.939
	s7.939-3.555,7.939-7.939v-9.607c6.449-1.408,12.793-2.332,18.958-2.771v20.18c0,4.385,3.555,7.939,7.939,7.939
	s7.939-3.555,7.939-7.939V68.579c6.165,0.439,12.509,1.363,18.958,2.771v9.607c0,4.385,3.555,7.939,7.939,7.939
	s7.939-3.555,7.939-7.939v-5.262c14.439,4.748,28.989,11.657,42.68,20.424c12.74,8.157,28.105,20.131,42.863,37.005h-0.612
	c-4.385,0-7.939,3.555-7.939,7.939s3.555,7.939,7.939,7.939h13.167c4.657,6.523,9.148,13.606,13.355,21.304h-37.628
	c-4.385,0-7.939,3.555-7.939,7.939s3.555,7.939,7.939,7.939h45.473c0.134,0.301,0.273,0.593,0.405,0.896
	c5.564,12.65,6.021,25.575,1.396,38.539c-13.402-10.697-29.536-19.354-48.315-25.89c-26.511-9.227-53.22-12.38-72.524-13.307
	l-23.903-67.793c-2.902-8.226-10.411-13.542-19.135-13.541c-8.723,0-16.232,5.315-19.133,13.541l-23.903,67.793
	c-19.304,0.927-46.013,4.08-72.524,13.307c-18.779,6.537-34.912,15.192-48.315,25.89C145.863,212.655,146.32,199.73,151.885,187.082
	z M345.798,201.964c0.143,0,0.223,0.003,0.315,0.195l0.01,0.028c0.082,0.186,0.036,0.254-0.054,0.362l-8.795,10.474
	c-5.698,6.786-14.049,10.679-22.911,10.679c-8.861-0.001-17.211-3.892-22.909-10.679l-8.796-10.474
	c-0.089-0.107-0.132-0.175-0.054-0.358l0.012-0.033c0.093-0.189,0.173-0.193,0.315-0.193h62.867V201.964z M288.283,186.086
	l21.923-62.176c0.937-2.657,3.22-2.944,4.158-2.944c0.939,0,3.222,0.287,4.159,2.944l21.923,62.176H288.283z M15.878,185.133
	c0-5.211,4.24-9.451,9.451-9.451s9.451,4.24,9.451,9.451v14.861H15.878V185.133z M63.192,299.666l3.55-3.523
	c3.112-3.088,3.131-8.116,0.042-11.227c-3.088-3.112-8.116-3.13-11.227-0.042l-5.009,4.971
	c-13.826-12.542-24.167-28.609-29.813-46.457L28.522,241c4.192-1.285,6.548-5.726,5.263-9.918c-1.285-4.193-5.727-6.547-9.918-5.263
	l-6.761,2.074c-0.612-3.955-1-7.967-1.151-12.02h18.916c0.53,11.877,3.502,23.239,8.477,33.526l-4.86,2.821
	c-3.792,2.201-5.082,7.06-2.88,10.851c1.474,2.537,4.136,3.955,6.873,3.955c1.353,0,2.724-0.346,3.978-1.074l5.097-2.959
	c9.041,12.28,21.314,22.154,35.788,28.27c-3.794,5.117-7.088,10.582-9.844,16.323C72.491,305.305,67.711,302.654,63.192,299.666z
	 M171.684,393.351h-28.736c3.47-12.648,15.025-21.976,28.736-22.079L171.684,393.351L171.684,393.351z M193.001,455.955
	c-2.999,0-5.44-2.44-5.44-5.439v-62.017h10.919c4.385,0,7.939-3.555,7.939-7.939s-3.555-7.939-7.939-7.939h-10.918v-11.969
	c0-4.385-3.555-7.939-7.939-7.939c-2.36,0-4.473,1.035-5.927,2.67h-1.783c-22.606,0-41.433,16.428-45.207,37.968h-0.995
	c-2.164,0-4.335-0.165-6.453-0.489c-2.289-0.35-4.616,0.315-6.374,1.824c-1.757,1.508-2.768,3.708-2.768,6.024v7.336H98.005
	c-4.385,0-7.939,3.555-7.939,7.939s3.555,7.939,7.939,7.939h12.111v7.507c0,4.385,3.555,7.939,7.939,7.939h4.793
	c9.225,0,16.755,7.407,16.952,16.586H88.923c-2.999,0-5.439-2.44-5.439-5.439v-48.243h6.505c4.385,0,7.939-3.555,7.939-7.939
	s-3.555-7.939-7.939-7.939h-6.505v-22.09h14.519c4.385,0,7.939-3.555,7.939-7.939s-3.555-7.939-7.939-7.939H83.531
	c0.77-24.393,11.937-46.915,30.3-62.251V315.5c0,4.385,3.555,7.939,7.939,7.939s7.939-3.555,7.939-7.939v-32.296
	c0.863-0.015,1.734-0.111,2.605-0.302c11.179-2.462,23.801-2.406,33.121,0.05c-9.429,12.228-13.443,23.311-12.474,34.402
	c-1.396-1.222-3.219-1.967-5.22-1.967c-4.385,0-7.939,3.555-7.939,7.939v15.848c0,4.385,3.555,7.939,7.939,7.939
	s7.939-3.555,7.939-7.939v-12.943c1.412,1.965,3.351,3.527,5.687,4.449c4.121,1.627,8.718,1.023,12.3-1.614
	c1.21-0.89,2.55-1.749,3.988-2.577v17.607c0,4.385,3.555,7.939,7.939,7.939c4.385,0,7.939-3.555,7.939-7.939v-24.135
	c10.195-2.95,21.984-4.465,33.14-3.702v13.653c0,4.385,3.555,7.939,7.939,7.939c4.385,0,7.939-3.555,7.939-7.939v-10.721
	c0.097,0.032,0.197,0.059,0.294,0.091c1.939,0.755,3.876,1.478,5.811,2.185v20.821c0,7.22-5.874,13.095-13.094,13.095h-7.504
	c-1.454-1.634-3.567-2.67-5.927-2.67c-4.385,0-7.939,3.555-7.939,7.939v46.322h-4.312c-4.385,0-7.939,3.555-7.939,7.939
	s3.555,7.939,7.939,7.939h4.312v8.579c0,4.385,3.555,7.939,7.939,7.939h4.793c9.225,0,16.755,7.407,16.952,16.586h-50.878V455.955z
	 M257.226,443.698c-4.572-10.931-14.885-18.887-27.154-20.058v-14.411h20.76c2.156,0,4.287-0.113,6.394-0.306L257.226,443.698
	L257.226,443.698z M250.831,393.351h-20.76v-22.09h5.492c15.976,0,28.973-12.997,28.973-28.974v-15.54
	c14.207,4.252,27.801,7.03,39.722,8.079v5.097c0,1.841-0.094,3.66-0.276,5.455c-0.183,1.794-0.454,3.562-0.811,5.299
	c-0.178,0.869-0.378,1.73-0.598,2.583C296.635,376.289,275.688,393.351,250.831,393.351z M299.734,388.984v5.236h-5.358
	c-0.198,0-0.393,0.015-0.587,0.03C295.867,392.603,297.859,390.853,299.734,388.984z M329.419,455.955h-50.875
	c-2.999,0-5.439-2.44-5.439-5.439v-17.52h6.189c4.385,0,7.939-3.555,7.939-7.939s-3.555-7.939-7.939-7.939h-6.189v-11.581
	c4.947-1.683,9.647-3.901,14.022-6.601c-0.439,0.987-0.688,2.075-0.688,3.224c0,4.385,3.555,7.939,7.939,7.939h5.358v21.331
	c0,4.385,3.555,7.939,7.939,7.939h4.793C321.692,439.369,329.221,446.776,329.419,455.955z M455.344,268.776
	c-4.307,1.481-7.62,4.976-8.861,9.348c-1.227,4.321-0.261,8.971,2.581,12.44c8.437,10.3,10.717,17.576,10.955,22.741
	c-21.084-12.772-55.012-16.941-78.801-9.205c-0.022,0.006-0.043,0.015-0.065,0.021c-0.264,0.073-0.524,0.156-0.78,0.255
	c-1.448,0.565-2.893,1.113-4.337,1.649c-0.438,0.163-0.874,0.318-1.313,0.478c-1.013,0.371-2.026,0.739-3.036,1.095
	c-0.496,0.175-0.992,0.344-1.487,0.517c-0.956,0.331-1.911,0.657-2.861,0.976c-0.502,0.167-1.001,0.331-1.502,0.495
	c-0.953,0.312-1.903,0.617-2.851,0.916c-0.481,0.151-0.96,0.302-1.44,0.45c-0.983,0.304-1.963,0.597-2.939,0.885
	c-0.433,0.128-0.867,0.258-1.298,0.383c-1.074,0.311-2.141,0.609-3.204,0.9c-0.326,0.09-0.655,0.184-0.98,0.272
	c-1.394,0.376-2.78,0.738-4.153,1.081c-0.018,0.004-0.035,0.008-0.053,0.013c-1.313,0.327-2.611,0.636-3.902,0.933
	c-0.582,0.133-1.156,0.256-1.734,0.383c-0.711,0.157-1.423,0.314-2.126,0.462c-0.701,0.146-1.393,0.283-2.086,0.419
	c-0.556,0.11-1.111,0.219-1.663,0.323c-0.765,0.143-1.524,0.279-2.279,0.41c-0.45,0.078-0.898,0.155-1.343,0.228
	c-0.813,0.134-1.622,0.264-2.422,0.383c-0.357,0.053-0.709,0.103-1.063,0.154c-0.858,0.122-1.713,0.24-2.554,0.345
	c-0.25,0.031-0.494,0.057-0.742,0.087c-0.917,0.109-1.83,0.214-2.727,0.302c-0.031,0.003-0.06,0.005-0.091,0.008
	c-1.055,0.103-2.096,0.191-3.121,0.264c-0.016,0.001-0.031,0.005-0.047,0.006c-1.404,0.097-2.766,0.158-4.103,0.196
	c-1.723,0.051-3.394,0.051-5.119,0c-1.333-0.038-2.691-0.098-4.09-0.196c-0.016-0.001-0.031-0.005-0.047-0.006
	c-1.031-0.073-2.078-0.162-3.14-0.265c-0.023-0.002-0.047-0.003-0.07-0.006c-0.9-0.088-1.816-0.193-2.737-0.303
	c-0.245-0.029-0.485-0.055-0.73-0.085c-0.845-0.105-1.702-0.223-2.563-0.346c-0.35-0.05-0.701-0.098-1.054-0.151
	c-0.803-0.12-1.614-0.25-2.43-0.384c-0.442-0.073-0.887-0.149-1.334-0.227c-0.758-0.131-1.52-0.268-2.288-0.412
	c-0.547-0.103-1.1-0.212-1.652-0.321c-0.695-0.137-1.392-0.274-2.095-0.42c-0.703-0.147-1.413-0.304-2.125-0.46
	c-0.577-0.127-1.151-0.249-1.732-0.382c-1.304-0.3-2.618-0.612-3.945-0.943c-0.003-0.001-0.006-0.001-0.01-0.002
	c-1.376-0.344-2.765-0.706-4.162-1.083c-0.312-0.085-0.629-0.175-0.942-0.261c-1.078-0.295-2.159-0.598-3.249-0.912
	c-0.416-0.121-0.836-0.247-1.253-0.371c-0.994-0.293-1.991-0.593-2.993-0.902c-0.46-0.142-0.923-0.288-1.386-0.433
	c-0.968-0.305-1.938-0.616-2.912-0.936c-0.482-0.158-0.963-0.315-1.446-0.477c-0.975-0.325-1.954-0.661-2.934-1
	c-0.472-0.164-0.943-0.325-1.416-0.492c-1.052-0.372-2.107-0.754-3.163-1.14c-0.394-0.144-0.787-0.284-1.181-0.431
	c-1.452-0.539-2.907-1.091-4.363-1.66c-0.016-0.006-0.033-0.01-0.049-0.016c-0.239-0.092-0.483-0.17-0.729-0.238
	c-0.01-0.002-0.018-0.006-0.026-0.008c-23.792-7.752-57.744-3.585-78.84,9.194c0.238-5.165,2.517-12.441,10.956-22.742
	c2.842-3.469,3.806-8.12,2.58-12.44c-1.242-4.372-4.554-7.866-8.862-9.348c-10.495-3.608-24.543-4.507-37.936-2.571
	c14.106-23.238,37.142-40.536,68.574-51.478c22.389-7.793,45.07-10.954,62.66-12.134c0.053,3.644,1.343,7.222,3.816,10.166
	l8.796,10.474c6.995,8.331,16.604,13.804,27.131,15.649v5.723c0,6.58-5.353,11.933-11.932,11.933
	c-6.58,0-11.933-5.353-11.933-11.933c0-4.385-3.555-7.939-7.939-7.939s-7.939,3.555-7.939,7.939
	c0,15.335,12.476,27.811,27.812,27.811c7.778,0,14.82-3.208,19.871-8.373c5.051,5.164,12.094,8.373,19.871,8.373
	c15.335,0,27.81-12.476,27.81-27.811c0-4.385-3.555-7.939-7.939-7.939s-7.939,3.555-7.939,7.939c0,6.58-5.353,11.933-11.932,11.933
	s-11.932-5.353-11.932-11.933v-5.724c10.526-1.845,20.137-7.318,27.131-15.649l8.795-10.474c2.473-2.945,3.763-6.523,3.816-10.166
	c17.59,1.181,40.272,4.342,62.66,12.134c31.432,10.94,54.468,28.24,68.574,51.478C479.888,264.266,465.838,265.167,455.344,268.776z
	 M234.503,164.327c4.385,0,7.939-3.555,7.939-7.939c0-3.512,2.858-6.37,6.37-6.37c3.512,0,6.37,2.858,6.37,6.37
	c0,4.385,3.555,7.939,7.939,7.939s7.939-3.555,7.939-7.939c0-12.268-9.981-22.249-22.249-22.249s-22.249,9.981-22.249,22.249
	C226.564,160.772,230.118,164.327,234.503,164.327z M377.918,167.745c4.385,0,7.939-3.555,7.939-7.939v-11.823
	c0-4.385-3.555-7.939-7.939-7.939s-7.939,3.555-7.939,7.939v11.823C369.978,164.19,373.533,167.745,377.918,167.745z"/>
<g>
</g>
<g>
</g>
<g>
</g>
<g>
</g>
<g>
</g>
<g>
</g>
<g>
</g>
<g>
</g>
<g>
</g>
<g>
</g>
<g>
</g>
<g>
</g>
<g>
</g>
<g>
</g>
<g>
</g>
</svg>
