<?xml version="1.0" encoding="iso-8859-1"?>
<!-- Generator: Adobe Illustrator 19.0.0, SVG Export Plug-In . SVG Version: 6.00 Build 0)  -->
<svg version="1.1" id="Layer_1" xmlns="http://www.w3.org/2000/svg" xmlns:xlink="http://www.w3.org/1999/xlink" x="0px" y="0px"
	 viewBox="0 0 512.001 512.001" style="enable-background:new 0 0 512.001 512.001;" xml:space="preserve">
<path style="fill:#97B05F;" d="M81.919,333.082c-21.389-5.511-41.038,13.546-36.184,35.093l10.109,44.878H36.072
	c-12.772,0-23.762,9.815-24.364,22.574c-0.642,13.622,10.213,24.867,23.694,24.867h77.922c27.955,0,50.617-22.661,50.617-50.617
	v-55.662L81.919,333.082z"/>
<path style="opacity:0.1;enable-background:new    ;" d="M98.752,337.419c-1.62,6.799-2.469,13.797-2.469,20.943
	c0,26.907,11.999,49.865,32.215,67.604l-26.848,26.847c-2.27,2.27-3.976,4.889-5.133,7.68h16.806
	c27.954,0,50.616-22.661,50.616-50.617v-55.662L98.752,337.419z"/>
<path style="fill:#97B05F;" d="M430.084,333.082c21.389-5.511,41.038,13.546,36.184,35.093l-10.109,44.878h19.771
	c12.772,0,23.762,9.815,24.364,22.574c0.642,13.622-10.213,24.867-23.694,24.867h-77.922c-27.954,0-50.616-22.661-50.616-50.617
	v-55.662L430.084,333.082z"/>
<path style="opacity:0.1;enable-background:new    ;" d="M413.25,337.419c1.621,6.799,2.469,13.797,2.469,20.943
	c0,26.907-11.999,49.865-32.215,67.604l26.848,26.847c2.27,2.27,3.976,4.889,5.133,7.68h-16.806
	c-27.954,0-50.616-22.661-50.616-50.617v-55.662L413.25,337.419z"/>
<path style="fill:#4EBF8C;" d="M415.718,337.656c0-65.713-71.508-118.985-159.717-118.985c-88.21,0-159.717,53.271-159.717,118.985
	S167.793,445.57,256.002,445.57C344.211,445.57,415.718,403.369,415.718,337.656z"/>
<path style="fill:#BDD186;" d="M415.718,337.656c0-65.713-71.508-118.985-159.717-118.985c-88.21,0-159.717,53.271-159.717,118.985
	S167.793,445.57,256.002,445.57C344.211,445.57,415.718,403.369,415.718,337.656z"/>
<path style="opacity:0.1;enable-background:new    ;" d="M256.002,218.671c-63.853,0-118.947,27.919-144.507,68.262
	c39.871,19.631,90.022,30.242,144.507,30.242s104.637-10.611,144.507-30.242C374.948,246.59,319.856,218.671,256.002,218.671z"/>
<path style="fill:#F8E9B4;" d="M256.002,342.257c-46.691,0-86.114,34.613-98.813,82.077c27.186,13.685,61.505,21.236,98.813,21.236
	c37.309,0,71.627-7.551,98.813-21.236C342.114,376.87,302.692,342.257,256.002,342.257z"/>
<g>
	<path style="fill:#97B05F;" d="M177.992,342.257c-13.101,0-23.721,10.62-23.721,23.721v50.294l-36.543,36.542
		c-9.264,9.263-9.264,24.282,0,33.546c4.631,4.632,10.702,6.948,16.773,6.948c6.068,0,12.141-2.317,16.772-6.947l3.18-3.18
		c1.395,11.77,11.393,20.904,23.538,20.904c13.101,0,23.721-10.62,23.721-23.721V365.978
		C201.713,352.878,191.093,342.257,177.992,342.257z"/>
	<path style="fill:#97B05F;" d="M394.275,452.814l-36.543-36.542v-50.294c0-13.101-10.62-23.721-23.72-23.721
		c-13.101,0-23.721,10.62-23.721,23.721v114.387c0,13.101,10.62,23.721,23.721,23.721c12.145,0,22.143-9.133,23.538-20.904
		l3.18,3.18c4.631,4.631,10.702,6.947,16.772,6.947c6.071,0,12.141-2.316,16.773-6.948
		C403.539,477.096,403.539,462.077,394.275,452.814z"/>
</g>
<path style="fill:#BDD186;" d="M472.819,67.099c0-32.687-26.498-59.183-59.183-59.183c-17.053,0-32.411,7.222-43.211,18.763
	c-33.213-12.31-72.419-18.763-114.423-18.763s-81.21,6.453-114.423,18.763c-10.8-11.541-26.158-18.763-43.211-18.763
	c-32.687,0-59.183,26.498-59.183,59.183c0,12.865,4.118,24.762,11.089,34.47c-7.188,15.063-11.089,31.792-11.089,50.089
	c0,91.376,97.073,146.935,216.818,146.935s216.818-55.559,216.818-146.935c0-18.297-3.902-35.026-11.09-50.089
	C468.701,91.86,472.819,79.964,472.819,67.099z"/>
<path style="fill:#EDBCB9;" d="M271.828,97.625c-8.741,0-15.827-7.086-15.827-15.827c0,8.741-7.086,15.827-15.827,15.827
	c-3.376,0-6.498-1.066-9.068-2.866v18.23c0,13.749,11.146,24.894,24.894,24.894c13.748,0,24.893-11.146,24.893-24.894V94.757
	C278.326,96.559,275.203,97.625,271.828,97.625z"/>
<path style="fill:#D46D59;" d="M256.002,118.713c-8.503,0-16.194,2.445-21.738,6.39c4.256,7.62,12.39,12.779,21.738,12.779
	s17.482-5.159,21.738-12.779C272.195,121.159,264.505,118.713,256.002,118.713z"/>
<g style="opacity:0.1;">
	<circle cx="318.096" cy="243.627" r="22.979"/>
	<circle cx="373.324" cy="220.651" r="18.406"/>
</g>
<path d="M92.439,38.97c-13.637,0-24.732,11.094-24.732,24.732c0,4.371,3.543,7.915,7.915,7.915c4.372,0,7.915-3.544,7.915-7.915
	c0-4.908,3.993-8.901,8.901-8.901c4.909,0,8.901,3.993,8.901,8.901c0,4.371,3.543,7.915,7.915,7.915
	c4.372,0,7.915-3.544,7.915-7.915C117.171,50.065,106.076,38.97,92.439,38.97z M402.747,71.617c4.372,0,7.915-3.544,7.915-7.915
	c0-4.908,3.993-8.901,8.901-8.901c4.908,0,8.901,3.993,8.901,8.901c0,4.371,3.544,7.915,7.915,7.915
	c4.372,0,7.915-3.544,7.915-7.915c0-13.637-11.095-24.732-24.732-24.732c-13.637,0-24.732,11.094-24.732,24.732
	C394.832,68.074,398.375,71.617,402.747,71.617z M288.812,112.988V98.365c4.177-4.282,6.758-10.126,6.758-16.566
	c0-4.371-3.543-7.915-7.915-7.915s-7.915,3.544-7.915,7.915c0,4.362-3.548,7.911-7.911,7.911c-4.362,0-7.91-3.548-7.91-7.911
	c0-4.371-3.543-7.915-7.915-7.915s-7.915,3.544-7.915,7.915c0,4.362-3.548,7.911-7.911,7.911c-4.362,0-7.91-3.548-7.91-7.911
	c0-4.371-3.543-7.915-7.915-7.915c-4.372,0-7.915,3.544-7.915,7.915c0,6.441,2.581,12.287,6.759,16.568v14.621
	c0,18.092,14.717,32.809,32.809,32.809C274.093,145.796,288.812,131.079,288.812,112.988z M239.023,112.988v-7.477
	c0.382,0.018,0.765,0.03,1.151,0.03c6.075,0,11.624-2.293,15.827-6.059c4.203,3.766,9.752,6.059,15.826,6.059
	c0.387,0,0.77-0.011,1.154-0.03v7.477c0,9.362-7.617,16.978-16.979,16.978C246.64,129.966,239.023,122.349,239.023,112.988z
	 M508.2,435.253c-0.795-16.887-14.97-30.117-32.269-30.117h-9.874l7.934-35.224c2.89-12.831-1.022-25.958-10.462-35.114
	c-9.443-9.157-22.684-12.666-35.419-9.382l-5.108,1.316c-2.107-18.819-9.634-36.887-22.174-53.125
	c4.409-2.402,8.676-4.92,12.777-7.565c21.074-13.594,37.539-30.002,48.941-48.766c12.068-19.866,18.189-41.942,18.189-65.618
	c0-17.428-3.356-34.009-9.982-49.36c6.544-10.577,9.982-22.653,9.982-35.2c0-36.997-30.1-67.098-67.099-67.098
	c-16.714,0-32.916,6.339-45.217,17.547C335.439,6.058,296.697,0,256.002,0s-79.437,6.058-112.418,17.547
	C131.282,6.339,115.081,0,98.367,0c-36.999,0-67.1,30.101-67.1,67.099c0,12.548,3.437,24.623,9.982,35.2
	c-6.626,15.351-9.982,31.931-9.982,49.36c0,23.676,6.12,45.752,18.189,65.618c11.401,18.765,27.867,35.172,48.94,48.766
	c4.1,2.646,8.368,5.164,12.778,7.565c-12.539,16.237-20.067,34.306-22.173,53.124l-5.108-1.316
	c-12.733-3.281-25.975,0.226-35.419,9.382c-9.44,9.157-13.352,22.284-10.462,35.114l7.934,35.224h-9.874
	c-17.301,0-31.475,13.229-32.271,30.118c-0.412,8.743,2.682,17.037,8.709,23.355c6.029,6.32,14.159,9.8,22.891,9.8h67.491
	c-0.014,0.392-0.028,0.783-0.028,1.178c0,8.451,3.292,16.396,9.266,22.369c5.974,5.977,13.918,9.267,22.37,9.267
	c5.868,0,11.492-1.586,16.381-4.557c5.565,9.249,15.699,15.335,27.11,15.335c17.444,0,31.635-14.192,31.635-31.636v-30.896
	c14.868,2.653,30.415,4.017,46.373,4.017c15.958,0,31.505-1.364,46.374-4.017v30.896c0,17.445,14.192,31.636,31.635,31.636
	c11.411,0,21.543-6.086,27.109-15.334c4.891,2.97,10.515,4.557,16.382,4.557c8.453,0,16.397-3.291,22.369-9.265
	c5.976-5.976,9.267-13.92,9.267-22.371c0-0.394-0.015-0.786-0.029-1.178h67.491c8.732,0,16.862-3.481,22.891-9.801
	C505.52,452.29,508.612,443.996,508.2,435.253z M106.979,252.74c-39.174-25.271-59.88-60.225-59.88-101.081
	c0-16.628,3.471-32.333,10.318-46.68c1.244-2.605,0.97-5.68-0.715-8.025c-6.283-8.751-9.604-19.074-9.604-29.855
	c0-28.269,22.999-51.268,51.269-51.268c14.328,0,27.622,5.773,37.432,16.256c2.179,2.329,5.544,3.121,8.531,2.014
	c32.243-11.952,70.859-18.27,111.672-18.27s79.429,6.318,111.672,18.27c2.987,1.107,6.351,0.315,8.531-2.014
	c9.81-10.483,23.104-16.256,37.432-16.256c28.269,0,51.268,22.999,51.268,51.268c0,10.78-3.321,21.104-9.604,29.855
	c-1.684,2.345-1.958,5.42-0.715,8.025c6.846,14.347,10.318,30.052,10.318,46.68c0,40.856-20.706,75.81-59.88,101.081
	c-37.923,24.464-90.847,37.937-149.022,37.937S144.902,277.204,106.979,252.74z M107.825,452.578H35.402
	c-4.363,0-8.424-1.739-11.438-4.898c-3.01-3.156-4.554-7.304-4.349-11.682c0.39-8.288,7.773-15.031,16.458-15.031h19.771
	c2.404,0,4.68-1.093,6.181-2.971c1.502-1.879,2.069-4.338,1.54-6.684l-10.109-44.877c-1.669-7.408,0.59-14.986,6.041-20.272
	c5.45-5.286,13.094-7.311,20.447-5.416l8.586,2.212c1.729,31.417,18.841,59.04,48.852,79.009l-25.249,25.249
	C110.485,448.862,109.051,450.663,107.825,452.578z M193.797,480.364c0,8.714-7.09,15.806-15.804,15.806
	c-7.998,0-14.739-5.984-15.678-13.92c-0.358-3.012-2.403-5.555-5.269-6.548c-0.847-0.293-1.723-0.437-2.591-0.437
	c-2.065,0-4.089,0.809-5.599,2.319l-3.179,3.179c-2.986,2.985-6.954,4.629-11.176,4.629c-4.223,0-8.192-1.644-11.177-4.63
	c-2.985-2.986-4.63-6.954-4.63-11.176c0-4.222,1.645-8.19,4.631-11.176l36.543-36.542c1.484-1.484,2.318-3.498,2.318-5.597v-50.294
	c0-8.714,7.09-15.806,15.806-15.806s15.804,7.09,15.804,15.806V480.364z M302.374,365.978v67.415
	c-14.781,2.828-30.349,4.262-46.374,4.262s-31.593-1.433-46.373-4.262v-67.415c0-17.445-14.192-31.636-31.635-31.636
	s-31.636,14.192-31.636,31.636v42.943c-27.259-18.097-42.156-43.13-42.156-71.265c0-20.119,7.417-39.654,21.477-56.833
	c36.777,16.682,81.915,25.686,130.324,25.686s93.547-9.005,130.323-25.686c14.061,17.179,21.478,36.714,21.478,56.834
	c0,28.137-14.898,53.17-42.156,71.265v-42.944c0-17.445-14.192-31.636-31.636-31.636
	C316.567,334.342,302.374,348.534,302.374,365.978z M388.677,480.764c-2.984,2.985-6.953,4.628-11.176,4.628
	c-4.222,0-8.191-1.644-11.176-4.628l-3.18-3.18c-2.144-2.145-5.323-2.874-8.191-1.883c-2.864,0.993-4.91,3.537-5.267,6.548
	c-0.94,7.935-7.679,13.92-15.677,13.92c-8.715,0-15.805-7.09-15.805-15.806V365.978c0-8.714,7.09-15.806,15.805-15.806
	c8.715,0,15.806,7.09,15.806,15.806v50.294c0,2.099,0.834,4.113,2.318,5.597l36.543,36.542c0.001,0,0.001,0,0.001,0
	c2.985,2.986,4.63,6.954,4.63,11.176C393.308,473.809,391.663,477.777,388.677,480.764z M488.039,447.68
	c-3.013,3.159-7.075,4.898-11.438,4.898h-72.422c-1.226-1.914-2.661-3.715-4.308-5.362l0,0l-25.25-25.249
	c30.012-19.969,47.124-47.591,48.853-79.009l8.586-2.212c7.354-1.893,14.997,0.131,20.447,5.416
	c5.451,5.286,7.71,12.864,6.041,20.272l-10.109,44.877c-0.529,2.346,0.038,4.805,1.54,6.684c1.503,1.878,3.777,2.971,6.181,2.971
	h19.771c8.684,0,16.066,6.743,16.457,15.031C492.594,440.376,491.049,444.525,488.039,447.68z"/>
<g>
</g>
<g>
</g>
<g>
</g>
<g>
</g>
<g>
</g>
<g>
</g>
<g>
</g>
<g>
</g>
<g>
</g>
<g>
</g>
<g>
</g>
<g>
</g>
<g>
</g>
<g>
</g>
<g>
</g>
</svg>
