<?xml version="1.0" encoding="iso-8859-1"?>
<!-- Generator: Adobe Illustrator 19.0.0, SVG Export Plug-In . SVG Version: 6.00 Build 0)  -->
<svg version="1.1" id="Layer_1" xmlns="http://www.w3.org/2000/svg" xmlns:xlink="http://www.w3.org/1999/xlink" x="0px" y="0px"
	 viewBox="0 0 512 512" style="enable-background:new 0 0 512 512;" xml:space="preserve">
<path style="fill:#6E614F;" d="M326.669,460.457L326.669,460.457c-19.463,0-35.242-15.778-35.242-35.242v-64.26h70.482v64.26
	C361.91,444.68,346.132,460.457,326.669,460.457z"/>
<path style="opacity:0.15;enable-background:new    ;" d="M326.669,460.457L326.669,460.457c-19.463,0-35.242-15.778-35.242-35.242
	v-64.26h70.482v64.26C361.91,444.68,346.132,460.457,326.669,460.457z"/>
<path style="fill:#7D7060;" d="M210.197,152.65c0-55.841-45.268-101.108-101.108-101.108C53.249,51.543,7.982,96.81,7.982,152.65
	c0,54.227,42.691,98.479,96.296,100.991c-1.07,26.958,7.349,53.955,24.679,75.869l0,0l62.959-10.427
	c-9.143-3.706-18.281-19.339-18.281-45.121c0-31.708,35.138-59.786,36.497-117.864C210.171,154.953,210.197,153.804,210.197,152.65z
	"/>
<path style="fill:#60523F;" d="M97.165,92.987c-33.277,0-60.35,27.073-60.35,60.35c0,27.501,22.374,49.876,49.876,49.876
	c22.882,0,41.497-18.615,41.497-41.497c0-4.408-3.574-7.982-7.982-7.982s-7.982,3.574-7.982,7.982
	c0,14.08-11.454,25.534-25.534,25.534c-18.699,0-33.912-15.213-33.912-33.912c0-24.474,19.911-44.386,44.386-44.386
	c31.693,0,57.478,25.785,57.478,57.477c0,40.717-33.126,73.843-73.843,73.843c-10.209,0-20.155-1.608-29.592-4.721
	c14.739,10.309,32.352,16.787,51.401,17.993c39.013-9.771,67.997-45.115,67.997-87.115
	C170.606,125.933,137.661,92.987,97.165,92.987z"/>
<path style="fill:#6E614F;" d="M191.956,287.196c-40.894,0-74.045,33.151-74.045,74.045v63.975c0,19.463,15.778,35.242,35.24,35.242
	l0,0c19.463,0,35.242-15.778,35.242-35.242v-17.273h47.553v17.273c0,19.463,15.778,35.242,35.242,35.242l0,0
	c19.463,0,35.24-15.778,35.24-35.242v-17.273h5.416c27.65,0,50.065-22.415,50.065-50.065v-70.681H191.956V287.196z"/>
<path style="opacity:0.08;enable-background:new    ;" d="M203.755,287.196c0.594,5.711,1.631,11.31,3.093,16.771
	c0.895,3.344,1.109,6.83,0.502,10.239c-0.909,5.1-1.203,10.412-0.793,15.861c2.24,29.781,25.624,54.119,55.294,57.541
	c4.922,0.568,9.74,0.549,14.403,0.019c4.115-0.467,8.291,0.119,12.157,1.606c15.672,6.028,32.825,9.71,50.859,10.524
	c13.633-8.945,22.641-24.357,22.641-41.879v-70.681H203.755V287.196z"/>
<path style="fill:#6E614F;" d="M481.185,195.58v-51.348c0-15.264-12.375-27.639-27.639-27.639s-27.639,12.375-27.639,27.639v8.111
	c-19.671-8.718-41.977-13.64-65.616-13.64s-45.945,4.922-65.616,13.64v-8.113c0-15.264-12.375-27.639-27.639-27.639
	c-15.264,0-27.639,12.375-27.639,27.639v51.348c-14.448,19.326-22.834,42.339-22.834,67.04c0,68.438,64.35,123.917,143.729,123.917
	c79.38,0,143.729-55.48,143.729-123.917C504.018,237.919,495.632,214.906,481.185,195.58z"/>
<g>
	<path style="fill:#F8E9B4;" d="M338.015,282.48c0.567-4.38,0.875-8.898,0.875-13.524c0-39.32-21.456-71.194-47.923-71.194
		c-25.103,0-45.684,28.679-47.741,65.18c-14.299,11.506-23.459,29.14-23.459,48.922c0,34.669,28.105,62.774,62.774,62.774
		s62.774-28.105,62.774-62.774C345.317,301.244,342.67,291.248,338.015,282.48z"/>
	<path style="fill:#F8E9B4;" d="M477.353,262.941c-2.057-36.502-22.638-65.18-47.741-65.18c-26.467,0-47.923,31.874-47.923,71.194
		c0,4.626,0.308,9.144,0.875,13.524c-4.654,8.768-7.301,18.765-7.301,29.384c0,34.669,28.105,62.774,62.774,62.774
		s62.774-28.105,62.774-62.774C500.811,292.081,491.652,274.447,477.353,262.941z"/>
</g>
<path style="fill:#FFFFFF;" d="M379.985,299.961h-39.39c-0.894,0-1.62,0.725-1.62,1.62v34.604c0,4.192,3.398,7.589,7.589,7.589
	h27.45c4.192,0,7.589-3.398,7.589-7.589V301.58C381.605,300.686,380.879,299.961,379.985,299.961z"/>
<path style="opacity:0.1;enable-background:new    ;" d="M338.975,299.961v28.074c7.207-1.055,13.732-4.205,18.938-8.814
	c1.355-1.199,3.399-1.199,4.754,0c5.206,4.609,11.731,7.759,18.938,8.814v-28.074H338.975z"/>
<path style="fill:#7D7060;" d="M320.67,281.63c-15.037,0-21.859,18.899-10.212,28.411c6.316,5.158,14.384,8.251,23.174,8.251
	c9.316,0,17.815-3.48,24.281-9.205c1.355-1.199,3.399-1.199,4.754,0c6.466,5.725,14.965,9.205,24.281,9.205
	c8.79,0,16.858-3.094,23.174-8.251c11.648-9.512,4.826-28.411-10.212-28.411H320.67z"/>
<path style="fill:#4A5058;" d="M385.289,283.681l-5.969,7.109c-10.268,12.228-29.084,12.228-39.35,0L334,283.681
	c-3.076-3.663-0.471-9.249,4.311-9.249h42.667C385.76,274.432,388.365,280.019,385.289,283.681z"/>
<path style="fill:#F8E9B4;" d="M324.69,170.735c0,4.408,3.574,7.982,7.982,7.982c4.408,0,7.982-3.574,7.982-7.982V139.86
	c-5.422,0.639-10.751,1.532-15.963,2.678V170.735z M352.308,138.897v31.838c0,4.408,3.574,7.982,7.982,7.982
	s7.982-3.574,7.982-7.982v-31.838c-2.642-0.125-5.303-0.194-7.982-0.194C357.611,138.704,354.951,138.772,352.308,138.897z
	 M379.926,139.86v30.875c0,4.408,3.574,7.982,7.982,7.982c4.408,0,7.982-3.574,7.982-7.982v-28.197
	C390.677,141.392,385.349,140.498,379.926,139.86z"/>
<path d="M291.427,229.081c-4.408,0-7.982,3.574-7.982,7.982v11.886c0,4.408,3.574,7.982,7.982,7.982s7.982-3.574,7.982-7.982
	v-11.886C299.409,232.653,295.835,229.081,291.427,229.081z M512,262.622c0-24.749-7.887-48.773-22.834-69.648v-48.741
	c0-19.641-15.979-35.62-35.62-35.62c-18.424,0-33.625,14.059-35.439,32.013c-18.285-6.576-37.682-9.901-57.817-9.901
	c-20.135,0-39.531,3.327-57.817,9.901c-1.814-17.953-17.016-32.013-35.439-32.013c-19.641,0-35.62,15.979-35.62,35.62v48.741
	c-14.948,20.875-22.835,44.898-22.835,69.648c0,5.564,0.419,11.104,1.213,16.594h-17.837c-3.436,0-6.815,0.237-10.142,0.649
	c-0.12-1.927-0.197-3.89-0.197-5.903c0-11.767,6.118-23.951,13.203-38.061c10.013-19.943,22.476-44.763,23.289-79.535
	c0.042-1.234,0.069-2.471,0.069-3.715c0-60.152-48.937-109.09-109.09-109.09S0,92.498,0,152.65
	c0,55.784,41.689,101.971,96.24,108.339c0.547,23.572,7.91,46.676,21.126,66.191c-4.76,10.383-7.436,21.912-7.436,34.061v63.975
	c0,23.833,19.39,43.222,43.223,43.222s43.222-19.389,43.222-43.222v-9.292h31.59v9.292c0,23.833,19.389,43.222,43.222,43.222
	c10.546,0,20.219-3.801,27.729-10.1c7.706,6.487,17.438,10.1,27.752,10.1c23.833,0,43.223-19.389,43.223-43.222v-30.959
	c19.559-1.046,38.358-5.308,56.039-12.7c3.962,0.696,8.009,1.062,12.105,1.062c39.015,0,70.756-31.741,70.756-70.755
	c0-5.352-0.612-10.611-1.766-15.709C510.314,285.244,512,273.978,512,262.622z M112.253,253.958c0.045-1.132-0.152-2.217-0.54-3.21
	c34.335-12.628,58.893-45.66,58.893-84.321c0-40.496-32.945-73.441-73.442-73.441c-33.277,0-60.35,27.073-60.35,60.35
	c0,27.501,22.374,49.876,49.876,49.876c22.882,0,41.497-18.615,41.497-41.497c0-4.408-3.574-7.982-7.982-7.982
	c-4.408,0-7.982,3.574-7.982,7.982c0,14.08-11.454,25.534-25.534,25.534c-18.699,0-33.912-15.213-33.912-33.912
	c0-24.475,19.911-44.386,44.386-44.386c31.693,0,57.478,25.785,57.478,57.477c0,40.717-33.126,73.843-73.843,73.843
	c-0.826,0-1.622,0.126-2.371,0.359c-36.543-12.667-62.465-47.334-62.465-87.979c0-51.35,41.776-93.126,93.126-93.126
	s93.126,41.776,93.126,93.126c0,1.065-0.024,2.124-0.063,3.261c-0.732,31.269-11.818,53.347-21.599,72.826
	c-7.662,15.26-14.9,29.675-14.9,45.224c0,3.236,0.15,6.393,0.419,9.462c-15.867,5.292-29.596,15.295-39.503,28.359
	C116.5,294.345,111.45,274.212,112.253,253.958z M298.447,407.944v17.273c0,15.031-12.229,27.259-27.26,27.259
	s-27.259-12.229-27.259-27.259v-17.273c0-4.408-3.574-7.982-7.982-7.982h-47.553c-4.408,0-7.982,3.574-7.982,7.982v17.273
	c0,15.031-12.229,27.259-27.259,27.259c-15.031,0-27.26-12.229-27.26-27.259v-63.975c0-36.427,29.636-66.062,66.063-66.062h21.302
	c0.095,0.326,0.197,0.651,0.295,0.976c-1.154,5.097-1.766,10.356-1.766,15.709c0,39.015,31.741,70.755,70.756,70.755
	c4.097,0,8.143-0.367,12.105-1.062c13.012,5.44,26.63,9.183,40.711,11.197c-6.862,4.628-15.025,7.208-23.515,7.208h-5.416
	C302.02,399.962,298.447,403.536,298.447,407.944z M371.521,305.775c5.34-2.011,10.143-5.364,13.911-9.851l5.299-6.311h9.178
	c5.282,0,7.162,4.124,7.612,5.387c0.445,1.246,1.58,5.569-2.45,8.861c-5.168,4.221-11.436,6.452-18.125,6.452
	C381.44,310.311,376.105,308.709,371.521,305.775z M373.623,324.23v11.562h-26.666V324.23c4.772-1.493,9.284-3.779,13.333-6.797
	C364.339,320.451,368.85,322.737,373.623,324.23z M373.208,285.658c-3.374,4.017-8.317,6.321-13.563,6.321
	s-10.19-2.304-13.563-6.321l-2.723-3.244h32.572L373.208,285.658z M348.598,306.081c-4.477,2.746-9.645,4.229-14.966,4.229
	c-6.69,0-12.957-2.231-18.125-6.452c-4.03-3.292-2.894-7.613-2.45-8.861c0.45-1.264,2.331-5.387,7.612-5.387h7.887l5.3,6.311
	C337.82,300.643,342.924,304.114,348.598,306.081z M326.313,273.648h-5.642c-10.296,0-19.187,6.277-22.65,15.991
	c-3.446,9.668-0.546,20.104,7.389,26.584c7.255,5.924,16.253,9.407,25.585,9.962v9.999c0,0.386,0.03,0.766,0.059,1.145
	c-9.419,17.891-28.196,29.327-48.509,29.327c-30.213,0-54.792-24.58-54.792-54.792c0-16.666,7.465-32.231,20.481-42.704
	c1.76-1.416,2.838-3.513,2.966-5.769c1.822-32.326,19.291-57.648,39.771-57.648c21.579,0,39.817,28.759,39.936,62.876
	C329.007,269.848,327.424,271.56,326.313,273.648z M353.929,425.217c0,15.031-12.229,27.259-27.26,27.259
	c-6.548,0-12.726-2.314-17.604-6.462c3.403-6.175,5.346-13.262,5.346-20.797v-9.348c15.077-0.668,29.219-7.212,39.518-18.059v27.407
	H353.929z M360.29,378.557c-14.501,0-28.572-1.909-42.046-5.672c9.246-5.416,17.263-12.903,23.294-21.978
	c1.579,0.542,3.267,0.849,5.027,0.849h27.45c1.761,0,3.448-0.308,5.027-0.849c6.031,9.076,14.048,16.562,23.294,21.978
	C388.862,376.648,374.792,378.557,360.29,378.557z M438.037,366.656c-20.313,0-39.089-11.435-48.509-29.327
	c0.028-0.38,0.057-0.759,0.057-1.145v-9.999c9.331-0.557,18.33-4.038,25.585-9.962c7.935-6.48,10.835-16.916,7.389-26.584
	c-3.462-9.714-12.352-15.991-22.65-15.991h-6.932c-0.848-1.595-1.972-2.969-3.301-4.077c-0.001-0.205-0.004-0.415-0.004-0.616
	c0-34.265,18.291-63.212,39.941-63.212c20.48,0,37.95,25.322,39.772,57.648c0.128,2.256,1.205,4.353,2.966,5.769
	c13.015,10.473,20.48,26.038,20.48,42.704C492.829,342.076,468.25,366.656,438.037,366.656z M495.691,270.858
	c-3.057-4.285-6.599-8.264-10.616-11.835c-3.437-39.717-26.865-69.242-55.462-69.242c-15.541,0-29.927,8.657-40.507,24.377
	c-9.525,14.15-14.93,32.638-15.356,52.295h-26.918c-0.426-19.656-5.831-38.145-15.356-52.295
	c-10.582-15.72-24.968-24.377-40.508-24.377c-28.598,0-52.024,29.526-55.462,69.242c-4.017,3.573-7.559,7.552-10.617,11.836
	c-0.227-2.736-0.347-5.483-0.347-8.236c0-22.14,7.346-43.669,21.245-62.261c1.031-1.379,1.589-3.056,1.589-4.779v-51.35
	c0-10.839,8.818-19.657,19.657-19.657c10.839,0,19.657,8.818,19.657,19.657v8.113c0,2.7,1.365,5.218,3.629,6.691
	c2.265,1.473,5.118,1.702,7.587,0.607c19.399-8.597,40.388-12.956,62.383-12.956s42.984,4.359,62.383,12.956
	c2.469,1.094,5.324,0.865,7.587-0.607c2.263-1.473,3.629-3.991,3.629-6.691v-8.113c0-10.839,8.818-19.657,19.657-19.657
	s19.657,8.818,19.657,19.657v51.35c0,1.723,0.558,3.399,1.589,4.779c13.899,18.592,21.245,40.122,21.245,62.261
	C496.037,265.374,495.916,268.12,495.691,270.858z M429.152,229.081c-4.408,0-7.982,3.574-7.982,7.982v11.886
	c0,4.408,3.574,7.982,7.982,7.982s7.982-3.574,7.982-7.982v-11.886C437.133,232.653,433.56,229.081,429.152,229.081z"/>
<g>
</g>
<g>
</g>
<g>
</g>
<g>
</g>
<g>
</g>
<g>
</g>
<g>
</g>
<g>
</g>
<g>
</g>
<g>
</g>
<g>
</g>
<g>
</g>
<g>
</g>
<g>
</g>
<g>
</g>
</svg>
