<?xml version="1.0" encoding="iso-8859-1"?>
<!-- Generator: Adobe Illustrator 19.0.0, SVG Export Plug-In . SVG Version: 6.00 Build 0)  -->
<svg version="1.1" id="Layer_1" xmlns="http://www.w3.org/2000/svg" xmlns:xlink="http://www.w3.org/1999/xlink" x="0px" y="0px"
	 viewBox="0 0 512.001 512.001" style="enable-background:new 0 0 512.001 512.001;" xml:space="preserve">
<path style="fill:#F4B759;" d="M236.987,470.237h-25.128v-32.638c0-9.339-7.57-16.909-16.909-16.909s-16.909,7.57-16.909,16.909
	v32.638h-8.707c-9.339,0-16.909,7.57-16.909,16.909s7.57,16.909,16.909,16.909h67.653c9.339,0,16.909-7.57,16.909-16.909
	C253.895,477.807,246.324,470.237,236.987,470.237z"/>
<path style="opacity:0.1;enable-background:new    ;" d="M236.987,470.237h-25.128v-32.638c0-9.339-7.57-16.909-16.909-16.909
	s-16.909,7.57-16.909,16.909v32.638h-8.707c-9.339,0-16.909,7.57-16.909,16.909s7.57,16.909,16.909,16.909h67.653
	c9.339,0,16.909-7.57,16.909-16.909C253.895,477.807,246.324,470.237,236.987,470.237z"/>
<path style="fill:#E8E8E8;" d="M264.537,363.867c0,48.858-41.181,88.466-107.365,88.466S53.648,412.725,53.648,363.867
	s37.339-79.682,103.524-79.682S264.537,315.009,264.537,363.867z"/>
<path style="opacity:0.04;enable-background:new    ;" d="M98.499,336.377H58.252c-3.028,8.348-4.603,17.538-4.603,27.491
	c0,15.482,3.762,30.03,10.99,42.688l33.751,2.972c20.553,1.809,38.239-14.388,38.239-35.019
	C136.629,353.449,119.557,336.377,98.499,336.377z"/>
<path style="fill:#E8E8E8;" d="M103.898,398.333l-35.513-3.127c-22.752-2.003-42.637-16.162-51.974-37.007l0,0
	c-6.945-15.505,4.4-33.017,21.389-33.017h66.205c21.06,0,38.131,17.072,38.131,38.131l0,0
	C142.137,383.947,124.452,400.144,103.898,398.333z"/>
<path style="opacity:0.08;enable-background:new    ;" d="M103.898,398.333l-35.513-3.127
	c-22.752-2.003-42.637-16.162-51.974-37.007l0,0c-6.945-15.505,4.4-33.017,21.389-33.017h66.205
	c21.06,0,38.131,17.072,38.131,38.131l0,0C142.137,383.947,124.452,400.144,103.898,398.333z"/>
<path style="opacity:0.05;enable-background:new    ;" d="M157.173,284.186c-20.995,0-39.076,3.111-53.995,8.907
	c22.977,27.237,58.176,44.042,98.708,48.519c2.179,2.477,4.457,4.881,6.831,7.205l0,0c15.744,15.405,33.247,28.732,52.075,39.751
	c2.45-7.842,3.746-16.123,3.746-24.7C264.537,315.009,223.357,284.186,157.173,284.186z"/>
<path style="fill:#E8E8E8;" d="M372.176,186.186c0-82.379-66.781-146.792-149.16-146.792s-149.16,64.413-149.16,146.792
	s66.781,130.589,149.16,130.589S372.176,268.565,372.176,186.186z"/>
<path style="fill:#F4B759;" d="M349.727,403.956L349.727,403.956c-49.386-10.67-94.751-35.08-130.864-70.416l0,0
	c-25.534-24.984-39.925-59.201-39.925-94.924l0,0H497.65v45.962C497.65,362.417,425.81,420.393,349.727,403.956z"/>
<path style="opacity:0.1;enable-background:new    ;" d="M349.727,403.956L349.727,403.956
	c-49.386-10.67-94.751-35.08-130.864-70.416l0,0c-25.534-24.984-39.925-59.201-39.925-94.924l0,0H497.65v45.962
	C497.65,362.417,425.81,420.393,349.727,403.956z"/>
<g>
	<path style="fill:#F4B759;" d="M445.221,186.186H231.366c-28.955,0-52.428,23.473-52.428,52.429l0,0H497.65l0,0
		C497.65,209.661,474.177,186.186,445.221,186.186z"/>
	<path style="fill:#F4B759;" d="M175.964,470.237h-25.128v-32.638c0-9.339-7.57-16.909-16.909-16.909s-16.909,7.57-16.909,16.909
		v32.638h-8.707c-9.339,0-16.909,7.57-16.909,16.909s7.57,16.909,16.909,16.909h67.653c9.339,0,16.909-7.57,16.909-16.909
		C192.873,477.807,185.302,470.237,175.964,470.237z"/>
</g>
<path d="M317.889,162.173c4.388,0,7.945-3.556,7.945-7.945c0-3.045,2.477-5.522,5.522-5.522c3.045,0,5.523,2.477,5.523,5.522
	c0,4.389,3.557,7.945,7.945,7.945c4.388,0,7.945-3.556,7.945-7.945c0-11.807-9.606-21.412-21.414-21.412
	c-11.807,0-21.412,9.606-21.412,21.412C309.943,158.617,313.501,162.173,317.889,162.173z M445.221,178.241h-65.299
	c-1.937-38.831-18.054-74.808-45.879-102.023c-29.517-28.87-68.948-44.769-111.028-44.769c-0.415,0-0.828,0.012-1.244,0.015
	C215.905,11.651,198.714,0,174.726,0c-4.388,0-7.945,3.557-7.945,7.945c0,4.389,3.557,7.945,7.945,7.945
	c18.318,0,26.768,7.888,30.529,16.525c-35.326,3.827-67.944,19.036-93.266,43.802c-29.713,29.062-46.077,68.116-46.077,109.968
	c0,38.349,13.811,71.697,39.94,96.438c0.287,0.272,0.582,0.536,0.871,0.805c-20.939,6.786-37.177,18.276-47.619,33.807H37.801
	c-10.684,0-20.53,5.353-26.338,14.32c-5.809,8.967-6.67,20.141-2.302,29.893c8.391,18.732,24.394,32.681,43.54,38.689
	c9.919,24.208,29.685,42.517,56.372,52.23v9.923h-0.762c-13.705,0-24.854,11.149-24.854,24.854
	c0,13.704,11.149,24.854,24.854,24.854h128.676c13.704,0,24.854-11.15,24.854-24.854c0-13.705-11.149-24.854-24.854-24.854h-17.182
	v-15.846c6.744-3.423,13.028-7.441,18.752-12.081c16.777-13.597,27.883-31.773,32.059-52.082
	c24.049,13.582,50.118,23.539,77.433,29.44c9.208,1.99,18.48,2.967,27.682,2.967c29.396,0,58.06-9.986,81.479-28.885
	c30.75-24.816,48.386-61.712,48.386-101.226v-45.963C505.595,205.325,478.512,178.241,445.221,178.241z M445.221,194.132
	c21.816,0,40.001,15.79,43.759,36.539H187.607c3.759-20.749,21.943-36.539,43.759-36.539H445.221z M81.803,186.186
	c0-37.541,14.666-72.56,41.298-98.607c26.529-25.948,62.014-40.238,99.916-40.238s73.386,14.29,99.916,40.238
	c24.743,24.2,39.149,56.147,41.07,90.662H231.366c-33.29,0-60.375,27.083-60.375,60.374c0,23.471,6.004,46.57,17.049,67.015
	c-28.401-5.308-52.818-17.078-71.262-34.545C93.897,249.421,81.803,220.063,81.803,186.186z M69.082,387.292
	c-19.865-1.75-37.268-14.143-45.42-32.34c-2.188-4.885-1.773-10.263,1.137-14.755c2.91-4.493,7.649-7.069,13.002-7.069h66.206
	c16.644,0,30.186,13.541,30.186,30.186c0,7.724-3.137,14.85-8.833,20.066c-5.696,5.216-13.071,7.718-20.763,7.038l0,0
	L69.082,387.292z M175.964,496.109h-67.653c-4.942,0-8.964-4.021-8.964-8.964s4.021-8.964,8.964-8.964h8.707
	c4.388,0,7.945-3.556,7.945-7.945v-32.638c0-4.942,4.02-8.964,8.964-8.964c4.943,0,8.964,4.021,8.964,8.964v32.638
	c0,4.389,3.557,7.945,7.945,7.945h25.128c4.943,0,8.964,4.021,8.964,8.964C184.927,492.088,180.906,496.109,175.964,496.109z
	 M158.78,462.291v-2.04c3.833-0.036,7.608-0.193,11.314-0.48v2.52H158.78z M236.987,478.182c4.942,0,8.964,4.021,8.964,8.964
	s-4.02,8.964-8.964,8.964h-37.848c1.081-2.783,1.679-5.803,1.679-8.964c0-10.139-6.106-18.874-14.832-22.736v-6.698
	c6.219-1.157,12.195-2.718,17.927-4.639v17.163c0,4.389,3.557,7.945,7.945,7.945H236.987z M228.551,422.018
	c-17.714,14.358-41.817,22.056-69.77,22.342v-6.761c0-13.705-11.149-24.854-24.854-24.854c-12.931,0-23.583,9.928-24.744,22.561
	c-16.185-7.016-28.908-17.933-37.11-31.799l31.128,2.741c1.254,0.11,2.508,0.165,3.757,0.165c10.722,0,21.169-4.021,29.132-11.313
	c8.893-8.144,13.992-19.729,13.992-31.786c0-25.407-20.67-46.077-46.077-46.077H79.612c10.2-10.212,24.585-17.521,42.402-21.51
	c21.478,14.898,47.823,24.361,77.421,27.686c4.205,5.59,8.837,10.88,13.872,15.806c13.132,12.849,27.433,24.279,42.673,34.184
	C253.584,392.392,243.969,409.522,228.551,422.018z M489.704,284.578c0,34.688-15.482,67.076-42.475,88.86
	c-26.993,21.785-61.922,30.079-95.825,22.752c-47.985-10.366-91.897-33.995-126.985-68.328
	c-21.957-21.485-35.285-50.752-37.268-81.299h302.555V284.578z M217.405,162.173c4.388,0,7.945-3.556,7.945-7.945
	c0-3.045,2.477-5.522,5.523-5.522c3.045,0,5.522,2.477,5.522,5.522c0,4.389,3.557,7.945,7.945,7.945
	c4.388,0,7.945-3.556,7.945-7.945c0-11.807-9.606-21.412-21.412-21.412c-11.807,0-21.414,9.606-21.414,21.412
	C209.46,158.617,213.017,162.173,217.405,162.173z"/>
<g>
</g>
<g>
</g>
<g>
</g>
<g>
</g>
<g>
</g>
<g>
</g>
<g>
</g>
<g>
</g>
<g>
</g>
<g>
</g>
<g>
</g>
<g>
</g>
<g>
</g>
<g>
</g>
<g>
</g>
</svg>
