<?xml version="1.0" encoding="iso-8859-1"?>
<!-- Generator: Adobe Illustrator 19.0.0, SVG Export Plug-In . SVG Version: 6.00 Build 0)  -->
<svg version="1.1" id="Layer_1" xmlns="http://www.w3.org/2000/svg" xmlns:xlink="http://www.w3.org/1999/xlink" x="0px" y="0px"
	 viewBox="0 0 512.002 512.002" style="enable-background:new 0 0 512.002 512.002;" xml:space="preserve">
<path style="fill:#E8E8E8;" d="M351,441.634v-67.083c0-17.348-14.063-31.41-31.411-31.41l0,0c-17.348,0-31.411,14.063-31.411,31.41
	v89.146c0,13.945,11.305,25.249,25.249,25.249h70.361c6.112,0,11.067-4.955,11.067-11.067l0,0c0-20.017-16.228-36.245-36.245-36.245
	H351z"/>
<path style="opacity:0.08;enable-background:new    ;" d="M351,441.634v-67.083c0-17.348-14.063-31.41-31.411-31.41l0,0
	c-17.348,0-31.411,14.063-31.411,31.41v89.146c0,13.945,11.305,25.249,25.249,25.249h70.361c6.112,0,11.067-4.955,11.067-11.067l0,0
	c0-20.017-16.228-36.245-36.245-36.245H351z"/>
<path style="fill:#E8E8E8;" d="M175.616,397.548c-73.762-26.393-119.997-95.426-120.902-169.42
	c-0.202-16.509-22.594-21.273-29.565-6.306c-2.373,5.094-4.532,10.343-6.463,15.738c-33.92,94.794,15.428,199.136,110.222,233.057
	L175.616,397.548z"/>
<path style="fill:#4A5058;" d="M54.715,228.127c-0.107-8.719-6.404-14.158-13.349-15.148c-0.379,1.003-0.758,2.007-1.121,3.021
	C7.08,308.683,53.525,410.482,144.211,446.674l31.405-49.127C101.856,371.154,55.62,302.122,54.715,228.127z"/>
<path style="opacity:0.1;enable-background:new    ;" d="M94.559,339.658l-5.07,6.688c-17.008,22.438-28.398,48.512-33.363,76.046
	c19.355,21.083,43.963,37.912,72.782,48.224l46.709-73.067C142.516,385.703,114.965,365.27,94.559,339.658z"/>
<path style="fill:#4A5058;" d="M293.696,126.148h80.351c4.182,0,7.573-3.39,7.573-7.573V98.837c0-14.545-4.407-28.75-12.64-40.741
	l-17.802-25.929c-8.341-12.149-26.275-12.149-34.615,0l-22.578,32.885c-5.122,7.46-7.863,16.298-7.863,25.347v28.175
	C286.124,122.757,289.514,126.148,293.696,126.148z"/>
<path style="fill:#EDBCB9;" d="M321.279,110.03h25.187c4.029,0,7.295-3.266,7.295-7.296v-7.959c0-6.649-1.835-13.142-5.265-18.624
	l-10.648-17.021c-1.837-2.937-6.114-2.937-7.951,0L316.26,80.928c-1.487,2.378-2.276,5.126-2.276,7.93v13.874
	C313.983,106.763,317.249,110.03,321.279,110.03z"/>
<path style="fill:#4A5058;" d="M318.522,81.644h-75.2c-1.18-5.918-3.544-11.567-6.994-16.591l-22.578-32.885
	c-8.34-12.149-26.275-12.149-34.615,0l-17.801,25.929c-8.233,11.991-12.64,26.196-12.64,40.741v162.15
	c0,16.609-4.821,32.861-13.879,46.782l-18.562,28.531c-18.831,28.944-28.849,62.735-28.838,97.267
	c0.007,23.26,18.9,42.102,42.16,42.102h130.021c39.967,0,72.367-32.399,72.367-72.367v-84.922h59.289V163.927
	c0-6.519,8.795-12.86,7.362-18.94C390.061,108.673,357.448,81.644,318.522,81.644z"/>
<path style="fill:#FFFFFF;" d="M319.938,354.202c-12.633,0.449-22.463,11.216-22.463,23.857v28.852
	c0,26.355-21.365,47.721-47.721,47.721l0,0c-12.751,0-23.393,9.027-25.886,21.039h35.729c39.967,0,72.367-32.399,72.367-72.367
	v-46.26C328.414,355.1,324.306,354.047,319.938,354.202z"/>
<path style="fill:#E8E8E8;" d="M468.787,200.827h-67.982v-36.9c0-8.2-1.215-16.114-3.449-23.588
	c-7.755-5.123-17.305-8.153-27.641-8.153c-17.312,0-32.424,8.488-40.565,21.109c-8.142-12.622-23.254-21.109-40.565-21.109
	c-25.932,0-46.953,19.03-46.953,42.506c0,22.332,19.029,40.629,43.207,42.358v51.664c0,27.431,22.237,49.668,49.668,49.668h96.513
	c40.327,0,73.019-32.692,73.019-73.02v-9.284C504.04,216.61,488.257,200.827,468.787,200.827z"/>
<path style="fill:#EDBCB9;" d="M454.934,264.269c-7.338,0-13.286-5.948-13.286-13.286c0,7.338-5.948,13.286-13.286,13.286
	c-3.775,0-7.173-1.582-9.591-4.108v17.177c0,12.636,10.243,22.879,22.878,22.879c12.636,0,22.878-10.243,22.878-22.879v-17.177
	C462.108,262.688,458.709,264.269,454.934,264.269z"/>
<path style="opacity:0.1;enable-background:new    ;" d="M441.648,283.561c-4.397,0-7.961-3.563-7.961-7.961v-24.617
	c0-4.398,3.564-7.961,7.961-7.961s7.961,3.563,7.961,7.961V275.6C449.609,279.997,446.044,283.561,441.648,283.561z"/>
<path style="fill:#4A5058;" d="M471.617,211.637l-6.976,8.308c-11.999,14.291-33.989,14.291-45.988,0l-6.976-8.308
	c-3.594-4.281-0.551-10.809,5.039-10.809h49.864C472.168,200.827,475.211,207.356,471.617,211.637z"/>
<path style="fill:#EDBCB9;" d="M176.556,96.26v-5.627c0-3.967,1.098-7.856,3.171-11.237l8.951-14.602
	c3.555-5.799,11.98-5.799,15.534,0l8.951,14.602c2.073,3.382,3.171,7.271,3.171,11.237l0,0c0,5.626-3.628,10.61-8.982,12.34
	l-14.944,4.825C184.576,110.327,176.556,104.489,176.556,96.26z"/>
<g>
	<path style="fill:#E8E8E8;" d="M274.75,441.634v-67.083c0-17.348-14.063-31.41-31.411-31.41l0,0
		c-17.348,0-31.411,14.063-31.411,31.41v89.146c0,13.945,11.305,25.249,25.249,25.249h70.361c6.112,0,11.067-4.955,11.067-11.067
		l0,0c0-20.017-16.228-36.245-36.245-36.245H274.75z"/>
	<path style="fill:#E8E8E8;" d="M159.845,441.634h-7.426l6.823-31.346c4.553-20.915-11.38-40.688-32.785-40.688l0,0
		c-26.432,0-49.292,18.42-54.913,44.247l-7.629,35.047c-4.482,20.589,11.202,40.054,32.274,40.054h88.835
		c6.112,0,11.067-4.955,11.067-11.067C196.09,457.861,179.862,441.634,159.845,441.634z"/>
</g>
<path d="M294.912,168.075c-4.397,0-7.961,3.563-7.961,7.961v11.856c0,4.398,3.564,7.961,7.961,7.961
	c4.397,0,7.961-3.563,7.961-7.961v-11.856C302.873,171.638,299.308,168.075,294.912,168.075z M468.787,192.866h-60.021v-28.94
	c0-8.765-1.273-17.468-3.782-25.867c-0.015-0.049-0.04-0.092-0.056-0.141c-3.211-10.681-8.475-20.717-15.346-29.52v-9.561
	c0-16.225-4.854-31.871-14.038-45.247l-17.802-25.93c-5.402-7.869-14.326-12.566-23.87-12.566s-18.469,4.697-23.87,12.566
	l-22.577,32.885c-2.802,4.08-4.975,8.483-6.525,13.136h-31.465c-1.55-4.655-3.74-9.052-6.543-13.136L220.313,27.66
	c-5.402-7.869-14.326-12.566-23.87-12.566c-9.545,0-18.467,4.697-23.87,12.566L154.77,53.59
	c-9.183,13.376-14.038,29.022-14.038,45.247v162.15c0,15.105-4.354,29.781-12.59,42.441l-18.561,28.531
	c-1.637,2.516-3.19,5.084-4.702,7.677c-26.785-31.11-41.699-70.331-42.204-111.607c-0.137-11.189-7.571-20.285-18.5-22.635
	c-10.959-2.361-21.504,2.894-26.243,13.066c-2.482,5.329-4.75,10.854-6.742,16.418c-25.368,70.896-6.764,149.403,47.332,201.356
	L56.135,447.2c-2.65,12.179,0.314,24.73,8.135,34.435s19.455,15.272,31.918,15.272h88.835c8.488,0,15.69-5.588,18.134-13.276h7.478
	c6.065,8.056,15.706,13.276,26.543,13.276h70.361c0.867,0,1.714-0.079,2.551-0.191c1.121,0.114,2.24,0.191,3.339,0.191h70.361
	c10.492,0,19.028-8.535,19.028-19.028c0-24.258-19.641-44.015-43.855-44.205v-59.122c0-13.937-7.326-26.645-19.036-33.704v-14.505
	h91.096c44.653,0,80.98-36.328,80.98-80.98v-9.284C512.001,212.251,492.615,192.866,468.787,192.866z M463.614,208.788l-5.069,6.036
	c-4.202,5.006-10.362,7.876-16.898,7.876s-12.695-2.87-16.898-7.876l-5.069-6.036H463.614z M300.55,69.559l22.577-32.887
	c2.468-3.595,6.384-5.656,10.744-5.656c4.359,0,8.276,2.06,10.744,5.656l17.802,25.93c6.1,8.886,9.807,19.024,10.896,29.638
	c-0.141-0.108-0.276-0.223-0.417-0.33c-15.76-11.925-34.562-18.229-54.374-18.229H298.11
	C298.833,72.264,299.64,70.886,300.55,69.559z M63.764,412.153l-1.196,5.498c-44.143-47.473-58.504-115.599-36.386-177.41
	c1.827-5.105,3.908-10.172,6.184-15.06c2.375-5.097,7.079-4.519,8.462-4.221c1.374,0.295,5.858,1.692,5.927,7.265
	c0.576,47.151,18.375,91.844,50.23,126.491c-2.853,6.12-5.373,12.406-7.558,18.827C76.693,382.589,67.243,396.168,63.764,412.153z
	 M185.023,480.985H96.188c-7.622,0-14.737-3.404-19.52-9.34s-6.596-13.611-4.975-21.061l7.629-35.047
	c4.79-22.005,24.613-37.978,47.135-37.978c7.782,0,15.044,3.475,19.927,9.535c4.883,6.06,6.734,13.896,5.079,21.5l-6.823,31.346
	c-0.512,2.353,0.069,4.812,1.579,6.688c1.512,1.876,3.791,2.966,6.199,2.966h7.426c15.596,0,28.284,12.688,28.284,28.284
	C188.128,479.592,186.735,480.985,185.023,480.985z M203.968,374.552v89.145c0,1.359,0.091,2.696,0.251,4.012h-1.359
	c-4.426-18.724-20.784-32.889-40.576-33.97l4.736-21.759c2.684-12.334-0.318-25.047-8.239-34.875
	c-7.92-9.83-19.702-15.467-32.325-15.467c-5.518,0-10.913,0.726-16.084,2.085c3.594-8.015,7.781-15.74,12.556-23.081l18.561-28.531
	c9.922-15.25,15.166-32.928,15.166-51.124V98.837c0-12.993,3.887-25.524,11.242-36.235l17.801-25.93
	c2.468-3.595,6.384-5.656,10.744-5.656c4.361,0,8.276,2.06,10.744,5.656l22.579,32.887c2.832,4.126,4.766,8.715,5.749,13.641
	c0.743,3.724,4.011,6.404,7.807,6.404h75.2c16.316,0,31.795,5.188,44.765,15.004c7.54,5.705,13.924,12.858,18.803,20.905
	c-4.022-0.85-8.165-1.289-12.376-1.289c-15.516,0-30.262,6.131-40.565,16.472c-10.304-10.34-25.049-16.472-40.564-16.472
	c-30.28,0-54.914,22.639-54.914,50.467c0,23.853,18.459,44.318,43.207,49.296v44.726c0,28.188,20.349,51.698,47.125,56.653v21.032
	c-1.44-0.15-2.893-0.204-4.348-0.151c-16.619,0.591-30.142,14.862-30.142,31.812v28.852c0,8.079-2.381,15.734-6.803,22.24v-54.599
	c0-21.709-17.662-39.372-39.371-39.372C221.63,335.18,203.968,352.842,203.968,374.552z M307.539,480.985h-70.361
	c-9.533,0-17.288-7.756-17.288-17.288v-89.145c0-12.931,10.519-23.45,23.45-23.45c12.93,0,23.449,10.519,23.449,23.45v67.082
	c0,4.398,3.564,7.961,7.961,7.961h7.61c15.596,0,28.284,12.688,28.284,28.284C310.644,479.592,309.251,480.985,307.539,480.985z
	 M309.975,443.4c-3.833-3.075-8.184-5.525-12.904-7.197c5.401-8.738,8.364-18.898,8.364-29.292v-28.852
	c0-8.477,6.632-15.61,14.784-15.901c1.279-0.039,2.548,0.081,3.782,0.344v40.802C324.003,418.069,319.059,432.04,309.975,443.4z
	 M343.039,374.552v67.082c0,4.398,3.564,7.961,7.961,7.961h7.61c15.596,0,28.284,12.688,28.284,28.284
	c0,1.712-1.394,3.106-3.106,3.106h-57.499c0.168-1.014,0.277-2.047,0.277-3.107c0-8.116-2.208-15.723-6.041-22.268
	c12.544-14.556,19.399-32.881,19.399-52.307v-40.424C341.922,366.36,343.039,370.362,343.039,374.552z M496.079,245.362
	c0,35.873-29.185,65.058-65.058,65.058h-96.512c-22.998,0-41.707-18.71-41.707-41.707v-51.664c0-4.177-3.227-7.643-7.393-7.94
	c-20.083-1.437-35.814-16.556-35.814-34.418c0-19.047,17.492-34.545,38.992-34.545c13.947,0,26.926,6.692,33.875,17.463
	c1.466,2.273,3.986,3.646,6.69,3.646c2.705,0,5.224-1.374,6.689-3.646c6.948-10.772,19.929-17.463,33.876-17.463
	c7.449,0,14.585,1.838,20.809,5.342c1.541,6.024,2.32,12.212,2.32,18.438v36.901c0,4.398,3.564,7.961,7.961,7.961h1.42
	c0.271,2.865,1.399,5.637,3.355,7.968l6.976,8.307c5.496,6.546,12.938,10.964,21.13,12.713v13.206c0,2.937-2.389,5.326-5.325,5.326
	c-2.937,0-5.325-2.389-5.325-5.326c0-4.398-3.564-7.961-7.961-7.961c-4.397,0-7.961,3.563-7.961,7.961
	c0,11.717,9.531,21.249,21.247,21.249c5.023,0,9.646-1.753,13.286-4.678c3.641,2.925,8.264,4.678,13.286,4.678
	c11.717,0,21.247-9.531,21.247-21.249c0-4.398-3.564-7.961-7.961-7.961c-4.397,0-7.961,3.563-7.961,7.961
	c0,2.937-2.389,5.326-5.325,5.326s-5.325-2.389-5.325-5.326v-13.206c8.191-1.749,15.633-6.167,21.13-12.713l6.976-8.307v-0.001
	c1.339-1.594,2.289-3.398,2.845-5.295c9.171,4.403,15.519,13.782,15.519,24.618v9.284H496.079z M364.801,168.075
	c-4.397,0-7.961,3.563-7.961,7.961v11.856c0,4.398,3.564,7.961,7.961,7.961c4.397,0,7.961-3.563,7.961-7.961v-11.856
	C372.762,171.638,369.198,168.075,364.801,168.075z"/>
<g>
</g>
<g>
</g>
<g>
</g>
<g>
</g>
<g>
</g>
<g>
</g>
<g>
</g>
<g>
</g>
<g>
</g>
<g>
</g>
<g>
</g>
<g>
</g>
<g>
</g>
<g>
</g>
<g>
</g>
</svg>
