<?xml version="1.0" encoding="iso-8859-1"?>
<!-- Generator: Adobe Illustrator 19.0.0, SVG Export Plug-In . SVG Version: 6.00 Build 0)  -->
<svg version="1.1" id="Layer_1" xmlns="http://www.w3.org/2000/svg" xmlns:xlink="http://www.w3.org/1999/xlink" x="0px" y="0px"
	 viewBox="0 0 511.999 511.999" style="enable-background:new 0 0 511.999 511.999;" xml:space="preserve">
<path style="fill:#F4B759;" d="M215.33,504.08h-50.938c-10.741,0-19.449-8.707-19.449-19.449l0,0
	c0-10.741,8.707-19.449,19.449-19.449h50.938c10.741,0,19.449,8.707,19.449,19.449l0,0
	C234.779,495.373,226.072,504.08,215.33,504.08z"/>
<path style="opacity:0.1;enable-background:new    ;" d="M215.33,465.182h-50.938c-1.552,0-3.055,0.202-4.503,0.545
	c16.834,18.135,41.257,28.527,69.435,32.391c3.372-3.497,5.455-8.245,5.455-13.487C234.779,473.889,226.072,465.182,215.33,465.182z
	"/>
<path style="fill:#F4B759;" d="M296.67,504.08h50.938c10.741,0,19.449-8.707,19.449-19.449l0,0c0-10.741-8.707-19.449-19.449-19.449
	H296.67c-10.741,0-19.449,8.707-19.449,19.449l0,0C277.221,495.373,285.929,504.08,296.67,504.08z"/>
<path style="opacity:0.1;enable-background:new    ;" d="M347.608,465.182H296.67c-10.741,0-19.449,8.707-19.449,19.449
	c0,5.242,2.083,9.989,5.455,13.487c28.177-3.864,52.601-14.255,69.435-32.391C350.663,465.384,349.16,465.182,347.608,465.182z"/>
<g>
	<path style="fill:#4A5058;" d="M140.868,334.304c-5.351,6.718-37.678,46.96-53.097,82.6c-4.57,10.563,4.606,21.923,15.898,19.697
		c19.212-3.788,43.657-6.093,52.207-4.311L140.868,334.304z"/>
	<path style="fill:#4A5058;" d="M371.132,334.304c5.351,6.718,37.678,46.96,53.097,82.6c4.57,10.563-4.606,21.923-15.898,19.697
		c-19.212-3.788-43.656-6.093-52.207-4.311L371.132,334.304z"/>
	<path style="fill:#4A5058;" d="M380.262,381.555c0-73.074-55.634-132.312-124.262-132.312s-124.262,59.238-124.262,132.312
		c0,73.075,55.634,103.076,124.262,103.076S380.262,454.63,380.262,381.555z"/>
</g>
<path style="fill:#E8E8E8;" d="M256,381.319c-46.15,0-83.561,33.346-83.561,74.481c0,2.709,0.172,5.38,0.488,8.013
	c22.013,14.315,51.133,20.817,83.074,20.817c31.94,0,61.061-6.503,83.073-20.817c0.316-2.634,0.488-5.305,0.488-8.013
	C339.561,414.666,302.15,381.319,256,381.319z"/>
<path style="opacity:0.2;enable-background:new    ;" d="M256,249.243c-54.99,0-101.63,38.037-117.998,90.747
	c32.698,22.412,73.603,35.741,117.998,35.741s85.301-13.33,117.998-35.741C357.63,287.28,310.99,249.243,256,249.243z"/>
<ellipse style="fill:#4A5058;" cx="255.997" cy="181.288" rx="194.044" ry="173.368"/>
<path style="fill:#E8E8E8;" d="M410.943,285.658c10.772-18.343,16.773-39.827,16.269-62.752
	c-1.396-63.566-53.399-115.193-116.974-116.151c-14.202-0.214-27.841,2.068-40.513,6.431c-8.894,3.062-18.559,3.062-27.453,0
	c-12.669-4.362-26.306-6.644-40.507-6.431c-63.579,0.955-115.587,52.586-116.979,116.157c-0.503,22.927,5.503,44.411,16.279,62.755
	c35.42,41.9,91.634,68.984,154.935,68.984C319.305,354.652,375.523,327.564,410.943,285.658z"/>
<path style="opacity:0.07;enable-background:new    ;" d="M293.418,262.591l-17.931,19.471c-10.762,11.686-28.211,11.686-38.972,0
	l-17.931-19.471c-6.854-7.442-5.333-19.921,3.069-25.171l0,0c21.265-13.288,47.434-13.288,68.699,0l0,0
	C298.751,242.671,300.272,255.149,293.418,262.591z"/>
<path style="fill:#F4B759;" d="M293.193,252.401l-17.824,17.824c-10.697,10.697-28.041,10.697-38.739,0l-17.824-17.824
	c-6.813-6.813-5.301-18.235,3.05-23.041l0,0c21.137-12.164,47.149-12.164,68.286,0l0,0
	C298.494,234.166,300.006,245.588,293.193,252.401z"/>
<path d="M379.892,332.602c-0.774-2.195-1.6-4.376-2.482-6.539c48.892-33.117,80.555-85.688,80.555-144.778
	C457.966,81.325,367.365,0,256,0S54.034,81.325,54.034,181.285c0,59.09,31.664,111.661,80.555,144.778
	c-0.882,2.163-1.707,4.343-2.482,6.539c-14.016,17.755-38.533,50.941-51.605,81.158c-3.284,7.59-2.097,16.309,3.098,22.752
	c4.277,5.304,10.634,8.282,17.274,8.282c1.434,0,2.882-0.138,4.325-0.423c10.762-2.122,23.406-3.781,33.587-4.45
	c4.281,7.083,9.452,13.534,15.5,19.283c-10.103,4.028-17.266,13.905-17.266,25.428c0,15.092,12.278,27.368,27.369,27.368h50.937
	c12.5,0,23.063-8.428,26.324-19.896c4.681,0.294,9.464,0.448,14.346,0.448c4.884,0,9.665-0.154,14.347-0.448
	c3.261,11.47,13.823,19.896,26.323,19.896h50.939c15.091,0,27.368-12.278,27.368-27.368c0-11.524-7.163-21.399-17.266-25.428
	c6.05-5.748,11.22-12.2,15.5-19.283c10.181,0.668,22.825,2.328,33.587,4.45c1.443,0.285,2.89,0.423,4.325,0.423
	c6.641,0,12.999-2.979,17.274-8.282c5.195-6.443,6.382-15.161,3.098-22.752C418.423,383.537,393.908,350.353,379.892,332.602z
	 M102.138,428.83c-3.415,0.669-5.477-1.357-6.206-2.261c-0.727-0.901-2.267-3.34-0.891-6.521
	c7.275-16.815,18.686-35.051,29.235-50.264c-0.302,3.892-0.457,7.816-0.457,11.771c0,15.766,2.542,30.204,7.494,43.071
	C121.9,425.502,111.492,426.987,102.138,428.83z M215.33,496.161h-50.938c-6.357,0-11.53-5.172-11.53-11.529
	c0-6.358,5.172-11.529,11.53-11.529h8.533c14.668,8.582,32.362,14.402,52.37,17.301C223.297,493.84,219.583,496.161,215.33,496.161z
	 M359.137,484.632c0,6.358-5.172,11.529-11.529,11.529h-50.939c-4.26,0-7.979-2.328-9.975-5.756
	c20.013-2.899,37.708-8.719,52.38-17.302h8.533C353.965,473.102,359.137,478.274,359.137,484.632z M339.157,454.129
	c-19.971,14.774-48.725,22.583-83.156,22.583s-63.186-7.809-83.156-22.583c-22.021-16.289-33.186-40.706-33.186-72.573
	c0-16.343,2.9-32.111,8.606-46.999c31.201,17.733,68.154,28.015,107.737,28.015s76.536-10.282,107.737-28.015
	c5.707,14.888,8.606,30.657,8.606,46.999C372.343,413.423,361.177,437.84,339.157,454.129z M256,346.731
	c-102.63,0-186.127-74.219-186.127-165.446S153.37,15.839,256,15.839s186.127,74.219,186.127,165.446S358.631,346.731,256,346.731z
	 M416.069,426.57c-0.729,0.903-2.791,2.934-6.206,2.261c-9.354-1.844-19.763-3.328-29.175-4.204
	c4.952-12.867,7.494-27.305,7.494-43.071c0-3.955-0.155-7.88-0.457-11.772c10.549,15.213,21.96,33.448,29.235,50.266
	C418.337,423.229,416.796,425.669,416.069,426.57z M294.093,222.496c-23.496-13.522-52.688-13.522-76.186,0
	c-6.134,3.529-10.184,9.577-11.113,16.592c-0.928,7.015,1.409,13.909,6.413,18.913l17.824,17.824
	c6.884,6.885,15.927,10.326,24.969,10.326c9.043,0,18.085-3.441,24.969-10.326l17.824-17.824c5.004-5.004,7.341-11.898,6.413-18.913
	C304.276,232.073,300.227,226.025,294.093,222.496z M287.593,246.802l-17.824,17.824c-7.592,7.591-19.946,7.591-27.538,0
	l-17.824-17.824c-1.491-1.491-2.187-3.545-1.91-5.634c0.277-2.09,1.484-3.891,3.31-4.943c9.311-5.359,19.753-8.038,30.193-8.038
	c10.44,0,20.881,2.679,30.193,8.038c1.827,1.052,3.034,2.853,3.31,4.943C289.78,243.257,289.084,245.311,287.593,246.802z
	 M352.11,195.343c-4.374,0-7.92,3.546-7.92,7.92v11.794c0,4.374,3.546,7.92,7.92,7.92c4.374,0,7.92-3.546,7.92-7.92v-11.794
	C360.03,198.889,356.484,195.343,352.11,195.343z M159.889,195.343c-4.374,0-7.92,3.546-7.92,7.92v11.794
	c0,4.374,3.546,7.92,7.92,7.92s7.92-3.546,7.92-7.92v-11.794C167.809,198.889,164.263,195.343,159.889,195.343z"/>
<g>
</g>
<g>
</g>
<g>
</g>
<g>
</g>
<g>
</g>
<g>
</g>
<g>
</g>
<g>
</g>
<g>
</g>
<g>
</g>
<g>
</g>
<g>
</g>
<g>
</g>
<g>
</g>
<g>
</g>
</svg>
