<?xml version="1.0" encoding="iso-8859-1"?>
<!-- Generator: Adobe Illustrator 19.0.0, SVG Export Plug-In . SVG Version: 6.00 Build 0)  -->
<svg version="1.1" id="Layer_1" xmlns="http://www.w3.org/2000/svg" xmlns:xlink="http://www.w3.org/1999/xlink" x="0px" y="0px"
	 viewBox="0 0 512 512" style="enable-background:new 0 0 512 512;" xml:space="preserve">
<path style="fill:#F4B759;" d="M388.384,14.016H123.616c-63.844,0-115.6,51.756-115.6,115.6
	c0,95.422,77.355,172.776,172.776,172.776h150.415c95.421,0,172.776-77.355,172.776-172.776
	C503.983,65.772,452.227,14.016,388.384,14.016z"/>
<path style="opacity:0.05;enable-background:new    ;" d="M388.384,14.016H123.616c-63.844,0-115.6,51.756-115.6,115.6
	c0,95.422,77.355,172.776,172.776,172.776h150.415c95.421,0,172.776-77.355,172.776-172.776
	C503.983,65.772,452.227,14.016,388.384,14.016z"/>
<path style="fill:#F4B759;" d="M454.102,316.656l-18.731,28.1c-25.514,38.276-68.471,61.267-114.471,61.267h-97.083v91.96h94.725
	c72.426,0,135.236-50.061,151.393-120.661l11.218-49.023c2.145-9.374-4.977-18.31-14.593-18.31l0,0
	C461.554,309.989,456.879,312.492,454.102,316.656z"/>
<path style="opacity:0.05;enable-background:new    ;" d="M454.102,316.656l-18.731,28.1
	c-25.514,38.276-68.471,61.267-114.471,61.267h-97.083v91.96h94.725c72.426,0,135.236-50.061,151.393-120.661l11.218-49.023
	c2.145-9.374-4.977-18.31-14.593-18.31l0,0C461.554,309.989,456.879,312.492,454.102,316.656z"/>
<circle style="fill:#F8ECC8;" cx="129.4" cy="137.609" r="65.512"/>
<circle style="fill:#4A5058;" cx="129.4" cy="137.609" r="31.319"/>
<circle style="fill:#F8ECC8;" cx="382.6" cy="137.609" r="65.512"/>
<circle style="fill:#4A5058;" cx="382.6" cy="137.609" r="31.319"/>
<path style="opacity:0.1;enable-background:new    ;" d="M392.028,91.642L392.028,91.642c-4.384-36.368-35.242-63.731-71.873-63.731
	h-128.31c-36.631,0-67.49,27.363-71.873,63.731l0,0c-5.705,47.323,25.932,89.693,70.436,99.507v111.243h131.186V191.149
	C366.096,181.335,397.733,138.965,392.028,91.642z"/>
<path style="fill:#F4B759;" d="M301.987,423.367v-17.343H60.513c-25.394,0-45.98,20.586-45.98,45.979l0,0
	c0,25.394,20.586,45.98,45.98,45.98h166.857C268.58,497.983,301.987,464.576,301.987,423.367z"/>
<circle style="fill:#4A5058;" cx="55.359" cy="452.002" r="7.927"/>
<circle style="fill:#F8ECC8;" cx="106.013" cy="452.002" r="7.927"/>
<circle style="fill:#4A5058;" cx="156.657" cy="452.002" r="7.927"/>
<path style="fill:#F8ECC8;" d="M301.984,406.023V150.605h-91.96v255.417c0,50.789-41.172,91.96-91.96,91.96H227.37
	c41.209,0,74.616-33.407,74.616-74.616v-17.343h-0.002V406.023z"/>
<path style="opacity:0.1;enable-background:new    ;" d="M176.485,477.042l68.492,18.832c8.461-2.048,16.357-5.533,23.417-10.19
	l-78.945-21.706C185.571,468.751,181.232,473.133,176.485,477.042z M210.024,406.023c0,0.003,0,0.005,0,0.005v1.929h91.96v-16.033
	h-91.96V406.023z M210.024,216.176v16.033h91.96v-16.033H210.024z M210.024,320.084h91.96v-16.033h-91.96V320.084z"/>
<path style="opacity:0.08;enable-background:new    ;" d="M210.024,150.605v47.7c6.327,1.395,12.912,2.134,19.689,2.134h52.583
	c6.776,0,13.362-0.739,19.688-2.134v-47.7L210.024,150.605L210.024,150.605z"/>
<path style="fill:#F4B759;" d="M282.296,179.387h-52.583c-54.442,0-96.64-47.589-90.124-101.64l0,0
	c4.384-36.368,35.242-63.731,71.873-63.731h89.084c36.631,0,67.49,27.363,71.873,63.731l0,0
	C378.935,131.797,336.738,179.387,282.296,179.387z"/>
<path style="fill:#D46D59;" d="M275.622,99.688h-39.235v55.899c0,2.203,2.396,3.569,4.292,2.448l12.562-7.428
	c1.705-1.008,3.822-1.008,5.527,0l12.562,7.428c1.896,1.121,4.292-0.246,4.292-2.448V99.688H275.622z"/>
<rect x="236.386" y="99.684" style="opacity:0.1;enable-background:new    ;" width="39.235" height="22.511"/>
<path d="M320.071,105.923c4.427,0,8.017-3.588,8.017-8.017V85.967c0-4.428-3.589-8.017-8.017-8.017
	c-4.427,0-8.017,3.588-8.017,8.017v11.938C312.054,102.333,315.643,105.923,320.071,105.923z M466.559,301.973
	c-7.703,0-14.854,3.827-19.128,10.237l-18.731,28.1c-24.083,36.129-64.383,57.697-107.801,57.697H310v-87.598h21.207
	c99.689,0,180.793-81.103,180.793-180.794C512,61.453,456.546,5.999,388.384,5.999H123.616C55.454,5.999,0,61.453,0,129.616
	c0,99.69,81.102,180.794,180.793,180.794h21.215v87.598H60.513c-29.773,0-53.996,24.222-53.996,53.996
	c0,29.774,24.223,53.997,53.996,53.997h258.028c36.836,0,72.987-12.644,101.794-35.604c28.807-22.958,49.196-55.379,57.413-91.287
	l11.218-49.022c1.57-6.86-0.045-13.951-4.432-19.455C480.149,305.129,473.597,301.973,466.559,301.973z M388.384,22.033
	c59.321,0,107.583,48.262,107.583,107.583c0,90.848-73.911,164.76-164.759,164.76H310V183.427
	c17.677-5.169,33.76-15.227,46.214-29.272c18.737-21.13,27.543-49.33,24.164-77.369c-2.717-22.541-14.63-41.979-31.697-54.754
	C348.682,22.033,388.384,22.033,388.384,22.033z M211.462,22.033h89.083c32.542,0,60.021,24.364,63.914,56.672
	c2.831,23.488-4.547,47.11-20.243,64.812c-15.696,17.701-38.265,27.853-61.922,27.853h-52.583
	c-23.657,0-46.226-10.152-61.922-27.853c-15.696-17.702-23.074-41.324-20.243-64.812C151.442,46.397,178.92,22.033,211.462,22.033z
	 M180.793,294.375c-90.848,0-164.759-73.911-164.759-164.759c0-59.321,48.262-107.583,107.583-107.583h39.709
	c-17.067,12.775-28.98,32.213-31.697,54.754c-3.38,28.037,5.428,56.238,24.164,77.369c12.455,14.045,28.536,24.102,46.214,29.272
	v110.948L180.793,294.375L180.793,294.375z M60.513,489.966c-20.932,0-37.963-17.031-37.963-37.964
	c0-20.932,17.031-37.963,37.963-37.963h141.102c-4.05,42.539-39.969,75.926-83.551,75.926H60.513V489.966z M227.371,489.966h-55.054
	c27.497-17.832,45.724-48.798,45.724-83.942V186.702c3.853,0.46,7.749,0.701,11.671,0.701h52.583c3.922,0,7.818-0.243,11.671-0.701
	v219.322c0,0.075,0.001,0.151,0.003,0.224v17.119C293.97,460.09,264.094,489.966,227.371,489.966z M473.337,326.511l-11.218,49.022
	c-7.411,32.383-25.799,61.62-51.777,82.326c-25.978,20.704-58.581,32.107-91.801,32.107h-42.329
	c20.473-15.054,33.792-39.296,33.792-66.6v-9.327h10.895c48.792,0,94.079-24.238,121.143-64.837l18.73-28.1
	c1.293-1.939,3.456-3.097,5.787-3.097c2.129,0,4.111,0.955,5.437,2.62C473.323,322.291,473.812,324.435,473.337,326.511z
	 M228.37,110.628v44.957c0,3.892,2.099,7.506,5.479,9.434c3.379,1.928,7.559,1.895,10.909-0.084l11.246-6.65l11.245,6.65
	c1.7,1.005,3.613,1.508,5.528,1.508c1.858,0,3.717-0.474,5.381-1.424c3.38-1.928,5.479-5.543,5.479-9.434v-44.957
	c5.623-4.09,9.302-10.701,9.302-18.17c0-4.428-3.589-8.017-8.017-8.017c-4.427,0-8.017,3.588-8.017,8.017
	c0,3.552-2.89,6.442-6.442,6.442c-3.552,0-6.442-2.89-6.442-6.442c0-4.428-3.589-8.017-8.017-8.017
	c-4.427,0-8.017,3.588-8.017,8.017c0,3.552-2.89,6.442-6.442,6.442s-6.442-2.89-6.442-6.442c0-4.428-3.589-8.017-8.017-8.017
	c-4.427,0-8.017,3.588-8.017,8.017C219.069,99.927,222.746,106.539,228.37,110.628z M244.404,114.73
	c4.381-0.56,8.379-2.365,11.601-5.078c3.221,2.713,7.218,4.518,11.6,5.078v31.788l-4.755-2.812
	c-4.222-2.498-9.468-2.497-13.689-0.001l-4.757,2.813V114.73H244.404z M191.937,105.923c4.427,0,8.017-3.588,8.017-8.017V85.967
	c0-4.428-3.589-8.017-8.017-8.017s-8.017,3.588-8.017,8.017v11.938C183.92,102.333,187.51,105.923,191.937,105.923z"/>
<g>
</g>
<g>
</g>
<g>
</g>
<g>
</g>
<g>
</g>
<g>
</g>
<g>
</g>
<g>
</g>
<g>
</g>
<g>
</g>
<g>
</g>
<g>
</g>
<g>
</g>
<g>
</g>
<g>
</g>
</svg>
