<?xml version="1.0" encoding="iso-8859-1"?>
<!-- Generator: Adobe Illustrator 19.0.0, SVG Export Plug-In . SVG Version: 6.00 Build 0)  -->
<svg version="1.1" id="Layer_1" xmlns="http://www.w3.org/2000/svg" xmlns:xlink="http://www.w3.org/1999/xlink" x="0px" y="0px"
	 viewBox="0 0 511.999 511.999" style="enable-background:new 0 0 511.999 511.999;" xml:space="preserve">
<path style="fill:#F7DA70;" d="M362.827,400.176c11.625,25.348,31.694,31.495,47.225,24.373c15.53-7.123,23.965-26.343,12.34-51.691
	c-11.625-25.348-38.908-47.226-54.439-40.103C352.422,339.878,351.202,374.827,362.827,400.176z"/>
<path style="opacity:0.08;enable-background:new    ;" d="M362.827,400.176c11.625,25.348,31.694,31.495,47.225,24.373
	c15.53-7.123,23.965-26.343,12.34-51.691c-11.625-25.348-38.908-47.226-54.439-40.103
	C352.422,339.878,351.202,374.827,362.827,400.176z"/>
<path style="opacity:0.08;enable-background:new    ;" d="M422.392,372.858c-11.625-25.348-38.908-47.226-54.439-40.103
	c-12.539,5.751-15.745,29.639-10.399,51.97h68.968C425.638,380.948,424.284,376.986,422.392,372.858z"/>
<path style="fill:#F7DA70;" d="M353.449,166.304L353.449,166.304c-75.144,0-142.54,46.244-169.576,116.355l-2.352,6.1
	c-6.426,16.665-20.362,29.304-37.573,34.077l0,0c-14.093,3.909-28.939-2.99-35.041-16.281l-1.48-3.223
	c4.088-1.084,7.735-2.399,10.459-3.877l0,0c23.175-12.581,40.874-33.294,49.687-58.146l0,0c3.801-10.719-8.645-19.832-17.715-12.973
	l0,0c-10.214,7.723-22.882,11.478-35.654,10.569c-14.199-1.011-25.703,11.351-23.677,25.441
	c-2.027-14.09-16.548-22.708-29.888-17.735l0,0c-11.998,4.472-25.212,4.44-37.188-0.091c-10.636-4.024-20.008,8.228-13.341,17.44
	l0,0c15.461,21.361,38.281,36.246,64.063,41.784l0,0c1.076,0.232,2.26,0.409,3.527,0.538l2.738,9.44
	c9.22,31.791,38.338,53.663,71.439,53.663h299.785c28.959,0,52.435-23.476,52.435-52.435l0,0
	C504.096,233.75,436.648,166.304,353.449,166.304z"/>
<path style="fill:#F8ECC8;" d="M385.006,335.13c-59.034,0-88.246,18.026-111.981,34.255H451.66c11.325,0,21.801-3.602,30.373-9.706
	C460.494,346.72,432.34,335.13,385.006,335.13z"/>
<path style="opacity:0.05;enable-background:new    ;" d="M18.721,262.099L18.721,262.099c-3.984-5.503-3.185-11.912,0.195-16.354
	c-8.497,0.274-14.499,10.348-8.806,18.213l0,0c15.461,21.361,38.281,36.246,64.063,41.784l0,0c0.253,0.055,0.518,0.102,0.783,0.151
	C52.573,296.974,33.018,281.852,18.721,262.099z"/>
<path style="fill:#F7DA70;" d="M308.075,400.176c-11.625,25.348-31.694,31.495-47.224,24.373
	c-15.53-7.123-23.966-26.343-12.34-51.691c11.625-25.348,38.908-47.226,54.439-40.103
	C318.479,339.878,319.7,374.827,308.075,400.176z"/>
<path style="opacity:0.08;enable-background:new    ;" d="M308.075,400.176c-11.625,25.348-31.694,31.495-47.224,24.373
	c-15.53-7.123-23.966-26.343-12.34-51.691c11.625-25.348,38.908-47.226,54.439-40.103
	C318.479,339.878,319.7,374.827,308.075,400.176z"/>
<path d="M461.183,270.429c-4.365,0-7.904,3.538-7.904,7.904v11.77c0,4.365,3.539,7.904,7.904,7.904s7.904-3.539,7.904-7.904v-11.77
	C469.087,273.967,465.548,270.429,461.183,270.429z M353.449,158.4c-38.472,0-75.577,11.506-107.299,33.273
	c-31.724,21.767-55.808,52.246-69.65,88.143l-2.352,6.1c-5.5,14.264-17.579,25.218-32.312,29.304
	c-8.669,2.406-17.626-0.682-22.984-7.449c1.002-0.442,1.937-0.899,2.805-1.369c24.932-13.535,43.884-35.716,53.366-62.452
	c2.88-8.124,0.143-17.004-6.811-22.096c-6.954-5.093-16.246-5.02-23.121,0.177c-8.69,6.57-19.465,9.759-30.326,8.989
	c-9.165-0.644-18.011,2.832-24.27,9.556c-1.056,1.134-2.013,2.334-2.871,3.59c-1.176-0.964-2.434-1.846-3.766-2.637
	c-7.903-4.687-17.372-5.538-25.979-2.327c-10.21,3.803-21.441,3.776-31.631-0.077c-8.061-3.052-16.996-0.5-22.234,6.346
	c-5.237,6.847-5.36,16.137-0.306,23.119c16.429,22.699,40.468,38.526,67.783,44.653l1.357,4.677
	c10.138,34.954,42.636,59.366,79.029,59.366h86.401c-3.583,10.832-4.069,21.241-1.365,30.471
	c3.166,10.806,10.497,19.319,20.644,23.973c5.075,2.327,10.421,3.491,15.782,3.491c5.357,0,10.728-1.162,15.854-3.487
	c10.824-4.909,19.838-14.683,26.068-28.265v-0.001c3.704-8.077,6.248-17.139,7.512-26.182h25.356
	c1.298,9.164,3.877,18.25,7.514,26.183c6.229,13.583,15.244,23.356,26.068,28.265c5.126,2.325,10.496,3.487,15.854,3.487
	c5.36,0,10.708-1.163,15.782-3.491c10.146-4.654,17.478-13.167,20.644-23.973c2.704-9.228,2.218-19.637-1.365-30.471h19.035
	c33.271,0,60.338-27.069,60.338-60.339C511.999,229.524,440.874,158.4,353.449,158.4z M300.891,396.881
	c-10.441,22.768-26.321,25.267-36.745,20.483c-5.92-2.715-10.205-7.705-12.064-14.049c-2.255-7.698-1.006-17.091,3.613-27.162
	c5.072-11.059,13.8-21.984,23.347-29.226c6.501-4.932,12.739-7.645,17.248-7.645c1.27,0,2.403,0.215,3.365,0.657
	c4.382,2.009,7.505,9.742,8.152,20.18C308.548,372.08,305.963,385.822,300.891,396.881z M418.82,403.314
	c-1.859,6.345-6.144,11.334-12.064,14.049c-10.426,4.781-26.304,2.284-36.745-20.482c-2.725-5.944-4.734-12.697-5.895-19.593h51.592
	C419.907,386.929,420.99,395.908,418.82,403.314z M451.66,361.481H323.63c-0.578-16.458-6.063-30.717-17.387-35.91
	c-18.803-8.626-46.044,11.223-60.669,35.91h-93.699c-29.402,0-55.657-19.723-63.848-47.961l-2.738-9.441
	c-0.898-3.096-3.585-5.337-6.792-5.662c-0.999-0.101-1.895-0.237-2.665-0.403c-23.913-5.137-44.98-18.877-59.32-38.691
	c-1.35-1.866-0.544-3.462,0.057-4.247c0.601-0.786,1.93-1.982,4.085-1.166c13.77,5.208,28.951,5.245,42.746,0.104
	c4.106-1.529,8.621-1.125,12.39,1.111s6.288,6.007,6.913,10.344c0.622,4.322,4.625,7.315,8.948,6.698
	c3.941-0.567,6.782-3.95,6.779-7.819c0-0.373-0.026-0.749-0.082-1.129c-0.624-4.339,0.73-8.667,3.716-11.875
	c2.984-3.208,7.2-4.874,11.576-4.558c14.688,1.039,29.239-3.269,40.983-12.149c1.839-1.388,3.45-0.615,4.248-0.033
	c0.798,0.585,2.021,1.888,1.252,4.059c-8.175,23.052-24.514,42.175-46.009,53.844c-1.432,0.777-4.107,1.961-8.715,3.184
	c-2.253,0.598-4.128,2.16-5.122,4.269s-1.007,4.548-0.035,6.668l1.48,3.225c7.764,16.907,26.406,25.57,44.337,20.598
	c19.531-5.417,35.545-19.94,42.835-38.849l2.352-6.1c12.689-32.905,34.766-60.843,63.846-80.797
	c29.08-19.953,63.09-30.499,98.357-30.499c78.709,0,142.743,64.034,142.743,142.743C496.192,341.505,476.215,361.481,451.66,361.481
	z M296.701,120.959c4.365,0,7.904-3.538,7.904-7.904c0-11.287,9.183-20.47,20.47-20.47c11.287,0,20.47,9.183,20.47,20.47v30.339
	c0,4.366,3.539,7.904,7.904,7.904s7.904-3.538,7.904-7.904v-30.339c0-11.287,9.183-20.47,20.47-20.47
	c11.288,0,20.471,9.183,20.471,20.47c0,4.366,3.539,7.904,7.904,7.904s7.904-3.538,7.904-7.904
	c0-20.003-16.274-36.277-36.278-36.277c-11.478,0-21.722,5.365-28.374,13.711c-6.653-8.347-16.895-13.711-28.374-13.711
	c-20.004,0-36.277,16.273-36.277,36.277C288.797,117.42,292.336,120.959,296.701,120.959z M411.391,280.569
	c-4.365,0-7.904,3.538-7.904,7.904c0,2.917-2.372,5.288-5.288,5.288c-2.916,0-5.288-2.372-5.288-5.288
	c0-4.366-3.539-7.904-7.904-7.904s-7.904,3.538-7.904,7.904c0,2.917-2.372,5.288-5.288,5.288c-2.916,0-5.289-2.372-5.289-5.288
	c0-4.366-3.539-7.904-7.904-7.904s-7.904,3.538-7.904,7.904c0,11.632,9.463,21.096,21.097,21.096c4.988,0,9.577-1.74,13.192-4.644
	c3.616,2.904,8.205,4.644,13.192,4.644c11.632,0,21.096-9.463,21.096-21.096C419.294,284.107,415.756,280.569,411.391,280.569z
	 M308.829,270.429c-4.365,0-7.904,3.538-7.904,7.904v11.77c0,4.365,3.539,7.904,7.904,7.904s7.904-3.539,7.904-7.904v-11.77
	C316.733,273.967,313.194,270.429,308.829,270.429z"/>
<g>
</g>
<g>
</g>
<g>
</g>
<g>
</g>
<g>
</g>
<g>
</g>
<g>
</g>
<g>
</g>
<g>
</g>
<g>
</g>
<g>
</g>
<g>
</g>
<g>
</g>
<g>
</g>
<g>
</g>
</svg>
