<?xml version="1.0" encoding="iso-8859-1"?>
<!-- Generator: Adobe Illustrator 19.0.0, SVG Export Plug-In . SVG Version: 6.00 Build 0)  -->
<svg version="1.1" id="Layer_1" xmlns="http://www.w3.org/2000/svg" xmlns:xlink="http://www.w3.org/1999/xlink" x="0px" y="0px"
	 viewBox="0 0 512 512" style="enable-background:new 0 0 512 512;" xml:space="preserve">
<rect x="276.545" y="46.079" style="fill:#F7DA70;" width="28.155" height="60.506"/>
<circle style="fill:#7D7060;" cx="290.629" cy="33.542" r="25.664"/>
<rect x="352.689" y="46.079" style="fill:#F7DA70;" width="28.155" height="60.506"/>
<circle style="fill:#7D7060;" cx="366.773" cy="33.542" r="25.664"/>
<path style="fill:#F7DA70;" d="M287.156,504.123h-21.217c-4.559,0-8.255-3.696-8.255-8.255v-96.771h37.728v96.771
	C295.411,500.427,291.715,504.123,287.156,504.123z"/>
<path style="fill:#7D7060;" d="M287.156,504.123h-21.217c-4.559,0-8.255-3.696-8.255-8.255v-16.381h37.728v16.381
	C295.411,500.427,291.715,504.123,287.156,504.123z"/>
<path style="opacity:0.1;enable-background:new    ;" d="M287.156,504.123h-21.217c-4.559,0-8.255-3.696-8.255-8.255v-96.771h37.728
	v96.771C295.411,500.427,291.715,504.123,287.156,504.123z"/>
<path style="fill:#7D7060;" d="M64.71,403.506c0-7.966-5.416-14.424-12.097-14.424s-12.097,6.458-12.097,14.424
	c0,7.966,5.416,22.635,12.097,22.635C59.295,426.141,64.71,411.472,64.71,403.506z"/>
<path style="fill:#F7DA70;" d="M331.349,88.139c-65.842,0-119.217,33.531-119.217,90.151V313.43c0,11.38-9.224,20.604-20.604,20.604
	h-45.681c-34.439,0-62.357,27.918-62.357,62.357l0,0c0,15.493,8.193,29.068,20.48,36.643v62.834c0,4.559,3.696,8.255,8.255,8.255
	h21.217c4.559,0,8.255-3.696,8.255-8.255v-56.457h51.571v56.457c0,4.559,3.696,8.255,8.255,8.255h21.217
	c4.559,0,8.255-3.696,8.255-8.255v-56.457h10.033c34.495,0,62.459-27.963,62.459-62.458V266.331
	c8.737,1.36,17.847,2.074,27.214,2.106v0.005h54.596c0,0,65.271-50.229,65.271-90.151C450.567,121.67,397.192,88.139,331.349,88.139
	z"/>
<g>
	<path style="fill:#7D7060;" d="M133.442,504.123h-21.217c-4.559,0-8.255-3.696-8.255-8.255v-16.381h37.728v16.381
		C141.697,500.427,138.001,504.123,133.442,504.123z"/>
	<path style="fill:#7D7060;" d="M222.74,504.123h-21.217c-4.559,0-8.255-3.696-8.255-8.255v-16.381h37.728v16.381
		C230.995,500.427,227.299,504.123,222.74,504.123z"/>
</g>
<g>
	<path style="fill:#6E614F;" d="M212.132,295.391c20.644,0,37.379-16.735,37.379-37.379c0-20.644-16.735-37.379-37.379-37.379
		V295.391z"/>
	<path style="fill:#6E614F;" d="M303.488,288.456c-18.551,0-33.59,15.039-33.59,33.59s15.039,33.59,33.59,33.59V288.456z"/>
	<circle style="fill:#6E614F;" cx="235.574" cy="366.017" r="18.642"/>
	<circle style="fill:#6E614F;" cx="182.61" cy="396.642" r="18.642"/>
	<path style="fill:#6E614F;" d="M96.313,383.13c-4.181,0-8.171,0.806-11.836,2.257c-0.636,3.574-0.988,7.248-0.988,11.005l0,0
		c0,15.493,8.193,29.068,20.48,36.643v13.531c14.075-3.436,24.524-16.123,24.524-31.256
		C128.493,397.537,114.085,383.13,96.313,383.13z"/>
	<path style="fill:#6E614F;" d="M175.603,334.034h-29.757c-13.832,0-26.606,4.511-36.948,12.132
		c3.989,14.371,17.158,24.923,32.8,24.923c18.803,0,34.046-15.242,34.046-34.046C175.743,336.028,175.691,335.026,175.603,334.034z"
		/>
</g>
<path style="opacity:0.1;enable-background:new    ;" d="M251.051,162.122c-2.529-9.876-11.457-16.799-21.651-16.791
	c-3.386,0.003-7.109,0.343-10.933,1.242c-4.105,9.55-6.335,20.15-6.335,31.716v40.633c11.197-3.478,23.59-9.576,31.907-20.302
	C254.014,185.758,253.601,172.077,251.051,162.122z"/>
<path style="fill:#F4B759;" d="M195.795,146.008c9.975-12.864,23.329-15.868,33.605-15.877c10.195-0.008,19.122,6.915,21.651,16.791
	c2.55,9.954,2.963,23.636-7.013,36.5c-11.828,15.252-31.914,21.171-45.052,23.461c-7.299,1.272-14.114-4.013-14.699-11.4
	C183.234,182.187,183.967,161.259,195.795,146.008z"/>
<g>
	<g>
		<path id="SVGCleanerId_0" style="fill:#F7D140;" d="M471.485,212.014c0,31.163-38.588,56.426-86.187,56.426
			c-47.6,0-86.187-25.263-86.187-56.426s33.321-56.426,86.187-56.426C438.163,155.588,471.485,180.851,471.485,212.014z"/>
	</g>
	<g>
		<path id="SVGCleanerId_0_1_" style="fill:#F7D140;" d="M471.485,212.014c0,31.163-38.588,56.426-86.187,56.426
			c-47.6,0-86.187-25.263-86.187-56.426s33.321-56.426,86.187-56.426C438.163,155.588,471.485,180.851,471.485,212.014z"/>
	</g>
</g>
<g>
	<path id="SVGCleanerId_0_2_" style="fill:#F4B759;" d="M471.485,212.014c0,31.163-38.588,56.426-86.187,56.426
		c-47.6,0-86.187-25.263-86.187-56.426s33.321-56.426,86.187-56.426C438.163,155.588,471.485,180.851,471.485,212.014z"/>
</g>
<path d="M316.289,147.084c4.351,0,7.877-3.527,7.877-7.877v-11.729c0-4.35-3.526-7.877-7.877-7.877
	c-4.351,0-7.877,3.527-7.877,7.877v11.729C308.412,143.557,311.938,147.084,316.289,147.084z M458.04,169.671
	c-2.426-26.69-16.098-49.257-39.726-65.435c-8.729-5.976-18.708-10.902-29.591-14.711V58.867
	c7.09-6.155,11.587-15.223,11.587-25.326C400.31,15.047,385.264,0,366.769,0c-18.494,0-33.541,15.047-33.541,33.542
	c0,10.104,4.497,19.17,11.587,25.325v21.875c-4.432-0.309-8.922-0.479-13.464-0.479c-6.408,0-12.668,0.307-18.77,0.891V58.867
	c7.09-6.155,11.587-15.223,11.587-25.326C324.166,15.047,309.12,0,290.625,0c-18.494,0-33.541,15.047-33.541,33.542
	c0,10.104,4.497,19.17,11.586,25.325v32.515c-18.17,7.196-33.396,17.72-44.53,31.119c-14.14,1.268-26.019,7.651-34.57,18.679
	c-13.111,16.907-14.38,39.199-13.136,54.922c0.454,5.726,3.317,11.03,7.857,14.55c3.608,2.798,8.042,4.29,12.551,4.29
	c1.165,0,2.335-0.1,3.496-0.302c1.267-0.221,2.582-0.48,3.916-0.758v99.547c0,7.018-5.709,12.727-12.727,12.727h-45.681
	c-19.006,0-36.261,7.601-48.919,19.907c-33.312,5.279-45.271,24.059-49.526,35.938c-8.489,2.569-14.76,11.223-14.76,21.504
	c0,10.649,6.86,30.512,19.974,30.512s19.974-19.865,19.974-30.512c0-7.926-3.734-14.881-9.329-18.836
	c3.983-8.842,11.379-14.412,18.935-17.914c-4.213,9.011-6.581,19.051-6.581,29.637c0,16.275,7.579,31.223,20.48,40.81v58.666
	c0,8.896,7.237,16.132,16.132,16.132h21.217c8.896,0,16.132-7.237,16.132-16.132v-48.58h35.816v48.58
	c0,8.896,7.237,16.132,16.132,16.132h21.217c8.896,0,16.132-7.237,16.132-16.132v-48.58h2.156c2.974,0,5.899-0.207,8.778-0.567
	v49.147c0,8.896,7.236,16.132,16.131,16.132h21.217c8.896,0,16.132-7.237,16.132-16.132v-86.247
	c5.147-9.768,8.075-20.88,8.075-32.668V275.292c6.231,0.648,12.596,0.99,19.016,1.022c0.107,0.004,0.213,0.006,0.321,0.006h54.595
	c24.536,0,47.712-6.326,65.258-17.814c18.577-12.162,28.807-28.672,28.807-46.49C479.36,195.857,471.832,181.036,458.04,169.671z
	 M52.613,417.086c-1.926-2.906-4.22-9.034-4.22-13.58c0-3.747,2.228-6.546,4.22-6.546s4.22,2.799,4.22,6.546
	C56.833,408.051,54.541,414.18,52.613,417.086z M366.769,15.754c9.807,0,17.787,7.98,17.787,17.788s-7.98,17.788-17.787,17.788
	c-9.808,0-17.787-7.98-17.787-17.788S356.961,15.754,366.769,15.754z M372.97,66.499v18.439c-4.046-0.95-8.187-1.75-12.402-2.415
	V66.499c2.011,0.378,4.082,0.584,6.201,0.584C368.889,67.083,370.959,66.877,372.97,66.499z M290.625,15.754
	c9.807,0,17.787,7.98,17.787,17.788s-7.98,17.788-17.787,17.788c-9.808,0-17.787-7.98-17.787-17.788S280.817,15.754,290.625,15.754z
	 M296.826,66.499v16.856c-4.238,0.792-8.373,1.736-12.402,2.822V66.499c2.011,0.378,4.082,0.584,6.201,0.584
	C292.745,67.083,294.815,66.877,296.826,66.499z M197.634,199.121c-1.779,0.312-3.075-0.441-3.689-0.918
	c-0.614-0.476-1.665-1.543-1.806-3.344c-0.839-10.602-0.671-30.42,9.881-44.025c6.592-8.502,15.807-12.818,27.387-12.828h0.012
	c6.606,0,12.364,4.468,14.003,10.868c2.874,11.218,0.987,21.216-5.606,29.718C227.262,192.2,208.11,197.296,197.634,199.121z
	 M133.821,495.868c0,0.209-0.17,0.378-0.378,0.378h-21.217c-0.208,0-0.378-0.17-0.378-0.378v-8.504h21.974V495.868z
	 M223.118,495.868c0,0.209-0.17,0.378-0.378,0.378h-21.217c-0.208,0-0.378-0.17-0.378-0.378v-8.504h21.974V495.868z
	 M287.534,495.868c0,0.209-0.17,0.378-0.378,0.378h-21.218c-0.208,0-0.377-0.17-0.377-0.378v-8.504h21.974V495.868z M287.534,471.61
	h-21.974v-28.745c8.145-3.042,15.572-7.557,21.974-13.211V471.61z M304.699,258.547c-2.27-0.354-4.587,0.305-6.335,1.8
	c-1.747,1.497-2.753,3.682-2.753,5.983v110.621c0,30.096-24.486,54.582-54.581,54.582h-10.033c-4.35,0-7.877,3.527-7.877,7.877
	v32.199h-21.974v-32.199c0-4.35-3.527-7.877-7.877-7.877h-51.57c-4.35,0-7.877,3.527-7.877,7.877v32.199h-21.974v-38.576
	c0-2.734-1.417-5.271-3.743-6.705c-10.481-6.46-16.737-17.652-16.737-29.938c0-30.041,24.44-54.48,54.48-54.48h45.681
	c15.705,0,28.481-12.776,28.481-28.481V209.361c11.016-4.144,22.183-10.704,30.255-21.113c9.592-12.369,12.503-27.335,8.419-43.281
	c-2.223-8.681-8.083-15.641-15.689-19.471c20.06-18.635,52.03-29.479,88.357-29.479c30.355,0,58.079,7.536,78.064,21.22
	c15.716,10.76,26.116,24.844,30.656,41.286c-15.309-7.093-33.944-10.81-54.773-10.81c-26.936,0-50.231,6.19-67.364,17.902
	c-17.219,11.769-26.701,28.248-26.701,46.403c0,17.818,10.23,34.328,28.807,46.49c0.974,0.637,1.971,1.253,2.979,1.858
	C316.782,260.076,310.645,259.473,304.699,258.547z M441.926,245.325c-15.011,9.827-35.122,15.24-56.629,15.24
	c-21.506,0-41.618-5.412-56.629-15.24c-13.982-9.154-21.682-20.983-21.682-33.309c0-28.131,32.934-48.549,78.311-48.549
	s78.311,20.418,78.311,48.549C463.607,224.341,455.907,236.17,441.926,245.325z M400.222,147.084c4.351,0,7.877-3.527,7.877-7.877
	v-11.729c0-4.35-3.526-7.877-7.877-7.877c-4.35,0-7.877,3.527-7.877,7.877v11.729C392.345,143.557,395.871,147.084,400.222,147.084z
	 M433.581,208.242c-4.351,0-7.877,3.527-7.877,7.877c0,2.781-2.262,5.044-5.044,5.044c-2.78,0-5.043-2.262-5.043-5.044
	c0-4.35-3.527-7.877-7.877-7.877c-4.351,0-7.877,3.527-7.877,7.877c0,2.781-2.262,5.044-5.044,5.044
	c-2.781,0-5.044-2.262-5.044-5.044c0-4.35-3.526-7.877-7.877-7.877c-4.351,0-7.877,3.527-7.877,7.877
	c0,11.468,9.331,20.798,20.798,20.798c4.88,0,9.37-1.688,12.921-4.511c3.551,2.823,8.042,4.511,12.92,4.511
	c11.468,0,20.798-9.329,20.798-20.798C441.457,211.769,437.931,208.242,433.581,208.242z"/>
<g>
</g>
<g>
</g>
<g>
</g>
<g>
</g>
<g>
</g>
<g>
</g>
<g>
</g>
<g>
</g>
<g>
</g>
<g>
</g>
<g>
</g>
<g>
</g>
<g>
</g>
<g>
</g>
<g>
</g>
</svg>
