<?xml version="1.0" encoding="iso-8859-1"?>
<!-- Generator: Adobe Illustrator 19.0.0, SVG Export Plug-In . SVG Version: 6.00 Build 0)  -->
<svg version="1.1" id="Layer_1" xmlns="http://www.w3.org/2000/svg" xmlns:xlink="http://www.w3.org/1999/xlink" x="0px" y="0px"
	 viewBox="0 0 512.002 512.002" style="enable-background:new 0 0 512.002 512.002;" xml:space="preserve">
<path style="fill:#6E614F;" d="M48.021,307.187c-10.514,5.736-34.894,8.04-39.301-0.037c-4.407-8.077,10.726-27.332,21.24-33.067
	c10.514-5.736,20.34-1.481,25.328,7.661S58.535,301.451,48.021,307.187z"/>
<path style="fill:#7D7060;" d="M239.896,467.291h-21.902c-4.229,0-7.657-3.428-7.657-7.657V349.756
	c0-10.277,8.331-18.607,18.607-18.607l0,0c10.277,0,18.607,8.33,18.607,18.607v109.878
	C247.553,463.864,244.125,467.291,239.896,467.291z"/>
<path style="fill:#4A5058;" d="M210.338,441.891v17.744c0,4.229,3.428,7.657,7.657,7.657h21.902c4.229,0,7.657-3.428,7.657-7.657
	v-17.744H210.338z"/>
<path style="opacity:0.15;enable-background:new    ;" d="M239.896,467.291h-21.902c-4.229,0-7.657-3.428-7.657-7.657V349.756
	c0-10.277,8.331-18.607,18.607-18.607l0,0c10.277,0,18.607,8.33,18.607,18.607v109.878
	C247.553,463.864,244.125,467.291,239.896,467.291z"/>
<path style="fill:#F8ECC8;" d="M363.518,113.349V64.323c0-10.619,8.608-19.228,19.228-19.228l0,0
	c17.084,0,30.934,13.85,30.934,30.934v21.496c0,7.124,5.774,12.899,12.898,12.899l0,0c7.124,0,12.899-5.774,12.899-12.899v-32.4
	c0-11.273,9.138-20.411,20.411-20.411l0,0c16.431,0,29.751,13.32,29.751,29.751v50.404c0,21.28-17.225,38.543-38.505,38.591
	l-114.088,0.256c-9.471,0.021-17.16-7.651-17.16-17.122l0,0c0-9.456,7.666-17.122,17.122-17.122h10.388
	C356.301,129.47,363.518,122.253,363.518,113.349z"/>
<path style="opacity:0.1;enable-background:new    ;" d="M371.185,114.142V65.116c0-10.42,8.294-18.883,18.638-19.198
	c-2.273-0.532-4.641-0.823-7.076-0.823l0,0c-10.619,0-19.228,8.608-19.228,19.228v49.026c0,8.904-7.218,16.122-16.122,16.122
	h-10.388c-1.797,0-3.527,0.28-5.155,0.793h23.21C363.967,130.263,371.185,123.046,371.185,114.142z M459.858,154.737l-114.088,0.256
	c-9.471,0.021-17.16-7.651-17.16-17.122l-0.793-5.706c-4.764,3.041-7.93,8.36-7.93,14.429c0,9.472,7.689,17.144,17.16,17.122
	l114.088-0.256c12.852-0.029,24.215-6.342,31.209-16.022C476.017,152.009,468.257,154.718,459.858,154.737z"/>
<path style="fill:#7D7060;" d="M401.645,186.669h-33.471l-3.248-28.25c-3.358-29.207-28.086-51.254-57.485-51.254h-74.81
	c-29.4,0-54.127,22.047-57.485,51.254l-11.623,101.083H92.509c-33.515,0-60.685,27.17-60.685,60.685v139.448
	c0,4.229,3.428,7.657,7.657,7.657h21.902c4.229,0,7.657-3.428,7.657-7.657v-37.463c0-5.961,2.104-11.729,5.94-16.289l0.003-0.004
	c8.579-10.197,13.52-22.926,14.097-36.19h55.294v89.946c0,4.229,3.428,7.657,7.657,7.657h21.902c4.229,0,7.657-3.428,7.657-7.657
	v-89.946h24.929c12.167,0,23.473-3.677,32.878-9.972l21.673,52.686c1.835,4.459,8.2,4.307,9.819-0.235l13.921-39.052
	c1.265-3.549,5.826-4.519,8.426-1.792l11.14,11.682c2.077,2.177,5.641,1.849,7.284-0.671l31.81-48.796h116.156
	c24.545,0,44.443-19.898,44.443-44.443l0,0C504.07,232.526,458.213,186.669,401.645,186.669z"/>
<g>
	<path style="fill:#4A5058;" d="M31.824,441.891v17.744c0,4.229,3.428,7.657,7.657,7.657h21.902c4.229,0,7.657-3.428,7.657-7.657
		v-17.744H31.824z"/>
	<path style="fill:#4A5058;" d="M144.374,441.891v17.744c0,4.229,3.428,7.657,7.657,7.657h21.902c4.229,0,7.657-3.428,7.657-7.657
		v-17.744H144.374z"/>
</g>
<path style="opacity:0.15;enable-background:new    ;" d="M203.107,197.583l-33.94,12.839l-4.275,37.175
	c1.001-0.64,1.976-1.351,2.907-2.154l23.091-19.926C198.98,218.535,203.472,208.263,203.107,197.583z"/>
<path style="fill:#6E614F;" d="M198.473,207.71l-27.387,23.633c-11.684,10.083-29.64,7.177-37.547-6.078l0,0
	c-3.357-5.627-1.283-12.919,4.533-15.937l45.504-23.614c6.283-3.26,14.018-1.061,17.645,5.018l0,0
	C204.546,196.31,203.387,203.469,198.473,207.71z"/>
<path style="opacity:0.15;enable-background:new    ;" d="M182.835,141.982c-1.074,0-2.122-0.11-3.137-0.311
	c-2.298,5.209-3.87,10.828-4.551,16.748l-2.043,17.762l7.402,0.017c16.961,0.038,31.209-12.741,33.012-29.604l0,0L182.835,141.982z"
	/>
<path style="fill:#F8ECC8;" d="M169.885,113.349V64.323c0-10.619-8.608-19.228-19.228-19.228l0,0
	c-17.084,0-30.934,13.85-30.934,30.934v21.496c0,7.124-5.775,12.899-12.899,12.899l0,0c-7.124,0-12.899-5.774-12.899-12.899v-32.4
	c0-11.273-9.138-20.411-20.411-20.411l0,0c-16.431,0-29.751,13.32-29.751,29.751v50.404c0,21.28,17.225,38.543,38.505,38.591
	l114.088,0.256c9.471,0.021,17.16-7.651,17.16-17.122l0,0c0-9.456-7.666-17.122-17.122-17.122h-10.388
	C177.103,129.47,169.885,122.253,169.885,113.349z"/>
<path style="opacity:0.1;enable-background:new    ;" d="M205.818,154.255L91.73,153.999c-21.279-0.048-38.505-17.312-38.505-38.591
	V65.003c0-5.792,1.661-11.194,4.524-15.765c-8.397,5.259-13.985,14.588-13.985,25.226v50.404c0,21.28,17.225,38.543,38.505,38.592
	l114.088,0.256c7.203,0.016,13.364-4.422,15.909-10.711C210.273,153.81,208.099,154.26,205.818,154.255z"/>
<ellipse style="opacity:0.15;enable-background:new    ;" cx="368.429" cy="241.248" rx="14.825" ry="20.896"/>
<ellipse style="opacity:0.15;enable-background:new    ;" cx="453.042" cy="241.248" rx="14.825" ry="20.896"/>
<path d="M440.63,279.206c-4.38,0-7.93,3.551-7.93,7.93c0,3.869-3.148,7.017-7.017,7.017s-7.017-3.148-7.017-7.017
	c0-4.38-3.551-7.93-7.93-7.93c-4.38,0-7.93,3.551-7.93,7.93c0,3.869-3.148,7.017-7.017,7.017c-3.869,0-7.017-3.148-7.017-7.017
	c0-4.38-3.551-7.93-7.93-7.93s-7.93,3.551-7.93,7.93c0,12.615,10.263,22.878,22.878,22.878c5.708,0,10.936-2.101,14.947-5.572
	c4.012,3.47,9.24,5.572,14.947,5.572c12.615,0,22.878-10.263,22.878-22.878C448.561,282.757,445.01,279.206,440.63,279.206z
	 M284.607,158.332c-10.714,0-19.431,8.716-19.431,19.431c0,4.381,3.551,7.93,7.93,7.93s7.93-3.55,7.93-7.93
	c0-1.968,1.602-3.57,3.57-3.57c1.968,0,3.57,1.602,3.57,3.57c0,4.381,3.551,7.93,7.93,7.93s7.93-3.55,7.93-7.93
	C304.038,167.048,295.321,158.332,284.607,158.332z M401.645,178.739h-26.399l-0.826-7.175l76.732-0.172
	c25.595-0.057,46.418-20.927,46.418-46.521V74.465c0-20.777-16.904-37.681-37.68-37.681c-15.628,0-28.342,12.714-28.342,28.342
	v32.401c0,2.74-2.229,4.968-4.969,4.968s-4.968-2.228-4.968-4.968V76.03c0-21.43-17.434-38.865-38.865-38.865
	c-14.975,0-27.158,12.182-27.158,27.158v49.026c0,1.879-0.65,3.629-1.751,5.034c-11.952-11.883-28.396-19.149-46.395-19.149h-74.81
	c-18.921,0-36.547,7.952-49.034,21.944c-3.345-1.032-5.782-4.15-5.782-7.829V64.323c0-14.975-12.182-27.158-27.158-27.158
	c-21.43,0-38.865,17.434-38.865,38.865v21.496c0,2.74-2.228,4.969-4.968,4.969c-2.74,0-4.969-2.229-4.969-4.969v-32.4
	c0-15.627-12.714-28.342-28.341-28.342c-20.777,0-37.681,16.904-37.681,37.681v50.404c0,25.594,20.822,46.464,46.418,46.521
	l83.399,0.187l-1.773,15.424l-29.459,15.287c-4.703,2.442-8.232,6.765-9.68,11.861c-1.45,5.097-0.724,10.63,1.991,15.179
	c4.973,8.334,13.319,14.004,22.9,15.555c1.755,0.283,3.514,0.424,5.263,0.424c0.767,0,1.53-0.035,2.292-0.088l-0.731,6.35H92.509
	c-15.894,0-30.531,5.447-42.176,14.552c-7.369-3.72-15.998-3.459-24.171,0.998c-6.313,3.444-13.565,10.376-18.928,18.091
	C0.08,295.5-1.814,304.4,1.759,310.948c4.11,7.533,13.926,9.315,22.134,9.354v139.33c0,8.595,6.993,15.587,15.587,15.587h21.902
	c8.595,0,15.586-6.993,15.586-15.587V422.17c0-4.085,1.449-8.057,4.079-11.184c0.014-0.017,0.027-0.033,0.041-0.05
	c7.975-9.495,13.223-21.11,15.151-33.32h40.204v82.015c0,8.595,6.992,15.587,15.586,15.587h21.902
	c8.595,0,15.587-6.993,15.587-15.587v-82.015h12.888v82.015c0,8.595,6.993,15.587,15.587,15.587h21.902
	c8.595,0,15.587-6.993,15.587-15.587v-41.185c2.452,3.209,6.257,5.141,10.44,5.141c0.109,0,0.218-0.001,0.327-0.004
	c5.507-0.131,10.26-3.568,12.11-8.756l12.356-34.66l7.923,8.309c2.672,2.801,6.417,4.219,10.272,3.849
	c3.855-0.355,7.28-2.419,9.395-5.663l29.463-45.196h111.86c28.88,0,52.374-23.494,52.374-52.373
	C512,228.244,462.495,178.739,401.645,178.739z M25.742,304.42c-5.009,0.166-8.468-0.519-9.878-1.193
	c0.391-4.691,9.554-17.632,17.893-22.182c1.174-0.64,2.309-1.089,3.408-1.357C31.818,286.975,27.883,295.353,25.742,304.42z
	 M371.449,113.349V64.323c0-6.229,5.067-11.297,11.297-11.297c12.685,0,23.004,10.319,23.004,23.004v21.497
	c0,11.484,9.343,20.829,20.829,20.829s20.83-9.344,20.83-20.829V65.126c0-6.883,5.599-12.482,12.482-12.482
	c12.032,0,21.819,9.788,21.819,21.82v50.404c0,16.869-13.724,30.623-30.592,30.66l-78.564,0.177
	c-1.284-8.99-4.347-17.344-8.814-24.725C368.545,126.532,371.449,120.214,371.449,113.349z M82.286,155.529
	c-16.869-0.037-30.592-13.792-30.592-30.66V74.465c0-12.032,9.788-21.82,21.82-21.82c6.882,0,12.48,5.599,12.48,12.482v32.4
	c0,11.485,9.344,20.83,20.83,20.83s20.829-9.344,20.829-20.83V76.03c0-12.685,10.319-23.004,23.004-23.004
	c6.229,0,11.297,5.068,11.297,11.297v49.026c0,13.263,10.79,24.053,24.053,24.053h10.388c5.069,0,9.192,4.123,9.192,9.191
	c0,2.46-0.959,4.771-2.7,6.507c-1.736,1.732-4.04,2.685-6.491,2.685h-0.022L82.286,155.529z M152.162,229.228
	c-4.942-0.8-9.248-3.725-11.813-8.026c-0.664-1.114-0.509-2.179-0.356-2.713c0.152-0.536,0.579-1.524,1.731-2.121l45.504-23.614
	c0.797-0.415,1.654-0.61,2.499-0.61c1.861,0,3.67,0.955,4.683,2.654c1.357,2.273,0.886,5.178-1.119,6.908c0,0,0,0-0.001,0.001
	l-27.387,23.633C162.113,228.611,157.107,230.028,152.162,229.228z M61.107,459.36H39.754v-9.539h21.353V459.36z M173.658,459.36
	h-21.353v-9.539h21.353V459.36z M239.622,459.36h-21.354v-9.539h21.354L239.622,459.36L239.622,459.36z M239.622,433.961h-21.354
	v-57.382c5.966-1.055,11.753-2.901,17.218-5.522l4.137,10.055V433.961z M459.626,325.606H343.47c-2.681,0-5.179,1.353-6.644,3.599
	l-29.559,45.341l-8.293-8.697c-3.135-3.287-7.658-4.685-12.104-3.741c-4.444,0.944-8.008,4.065-9.532,8.344l-11.584,32.496
	L246.729,356.7c-0.905-2.199-2.75-3.877-5.026-4.57c-2.274-0.688-4.742-0.326-6.719,0.997c-8.436,5.646-18.279,8.632-28.467,8.632
	h-24.929c-4.38,0-7.93,3.55-7.93,7.93v64.272h-21.353v-64.272c0-4.381-3.551-7.93-7.93-7.93H89.08c-4.245,0-7.738,3.343-7.923,7.586
	c-0.5,11.477-4.848,22.639-12.244,31.43c-0.016,0.019-0.032,0.037-0.047,0.056c-5.004,5.974-7.759,13.551-7.759,21.344v11.788
	H39.754V320.187c0-29.09,23.666-52.756,52.755-52.756h71.015c4.03,0,7.419-3.021,7.879-7.025l2.432-21.154
	c0.835-0.594,1.648-1.228,2.433-1.904l27.387-23.634c7.846-6.769,9.688-18.143,4.378-27.043c-5.594-9.375-17.365-12.933-27.184-8.42
	l0.763-6.637l14.727,0.033h0.059c6.68,0,12.962-2.597,17.692-7.317c4.746-4.734,7.358-11.033,7.358-17.736
	c0-10.664-6.7-19.786-16.108-23.396c8.002-5.238,17.413-8.102,27.291-8.102h74.81c25.381,0,46.707,19.014,49.607,44.229l3.248,28.25
	c0.46,4.003,3.849,7.025,7.879,7.025h33.47c52.104,0,94.494,42.39,94.494,94.494C496.139,309.227,479.76,325.606,459.626,325.606z
	 M339.537,159.116c-4.38,0-7.93,3.55-7.93,7.93v11.809c0,4.381,3.551,7.93,7.93,7.93s7.93-3.55,7.93-7.93v-11.809
	C347.467,162.665,343.916,159.116,339.537,159.116z"/>
<g>
</g>
<g>
</g>
<g>
</g>
<g>
</g>
<g>
</g>
<g>
</g>
<g>
</g>
<g>
</g>
<g>
</g>
<g>
</g>
<g>
</g>
<g>
</g>
<g>
</g>
<g>
</g>
<g>
</g>
</svg>
