<?xml version="1.0" encoding="iso-8859-1"?>
<!-- Generator: Adobe Illustrator 19.0.0, SVG Export Plug-In . SVG Version: 6.00 Build 0)  -->
<svg version="1.1" id="Layer_1" xmlns="http://www.w3.org/2000/svg" xmlns:xlink="http://www.w3.org/1999/xlink" x="0px" y="0px"
	 viewBox="0 0 512 512" style="enable-background:new 0 0 512 512;" xml:space="preserve">
<g>
	<path style="fill:#4A5058;" d="M242.736,447.928c-7.567,0-13.702-6.135-13.702-13.703c0-24.148-9.696-40.049-18.703-44.603
		c-6.754-3.413-9.461-11.656-6.047-18.41c3.412-6.754,11.654-9.461,18.41-6.047c9.552,4.829,18.087,13.861,24.034,25.431
		c6.352,12.361,9.711,27.447,9.711,43.628C256.439,441.793,250.303,447.928,242.736,447.928z"/>
	<path style="fill:#4A5058;" d="M184.944,447.928c-7.567,0-13.702-6.135-13.702-13.703c0-26.546-8.702-37.447-18.398-47.142
		c-5.352-5.352-5.352-14.026,0-19.378c5.35-5.351,14.027-5.351,19.378,0c13.724,13.724,26.424,31.282,26.424,66.52
		C198.647,441.793,192.512,447.928,184.944,447.928z"/>
	<path style="fill:#4A5058;" d="M122.666,447.928c-7.567,0-13.702-6.135-13.702-13.703c0-22.149-3.619-41.543-9.004-48.26
		c-4.734-5.905-3.785-14.528,2.119-19.263c5.904-4.732,14.526-3.784,19.263,2.119c5.612,7,15.026,24.805,15.026,65.402
		C136.367,441.793,130.233,447.928,122.666,447.928z"/>
</g>
<path style="opacity:0.15;enable-background:new    ;" d="M102.079,366.704c-5.904,4.734-6.853,13.358-2.119,19.263
	c5.386,6.716,9.004,26.111,9.004,48.26c0,7.567,6.135,13.703,13.702,13.703c7.567,0,13.702-6.135,13.702-13.703
	c0-40.598-9.415-58.402-15.026-65.402C116.605,362.92,107.983,361.971,102.079,366.704z M152.844,367.705
	c-5.352,5.352-5.352,14.026,0,19.378c9.696,9.696,18.398,20.596,18.398,47.142c0,7.567,6.135,13.703,13.702,13.703
	c7.567,0,13.702-6.135,13.702-13.703c0-35.239-12.7-52.797-26.424-66.52C166.871,362.356,158.195,362.356,152.844,367.705z
	 M246.728,390.597c-5.947-11.57-14.482-20.601-24.034-25.431c-6.756-3.415-14.998-0.707-18.41,6.047
	c-3.415,6.754-0.707,14.997,6.047,18.41c9.008,4.553,18.703,20.455,18.703,44.603c0,7.567,6.135,13.703,13.702,13.703
	c7.567,0,13.702-6.135,13.702-13.703C256.439,418.044,253.08,402.958,246.728,390.597z"/>
<path style="opacity:0.15;enable-background:new    ;" d="M102.079,366.704c-5.904,4.734-6.853,13.358-2.119,19.263
	c4.189,5.223,7.307,18.114,8.486,34.005h27.501c-1.888-30.648-9.7-45.027-14.606-51.147
	C116.605,362.92,107.983,361.971,102.079,366.704z M152.844,367.705c-5.352,5.352-5.352,14.026,0,19.378
	c7.741,7.741,14.843,16.259,17.394,32.887h27.633c-2.941-25.988-13.918-40.532-25.651-52.265
	C166.871,362.356,158.195,362.356,152.844,367.705z M246.728,390.597c-5.947-11.57-14.482-20.601-24.034-25.431
	c-6.756-3.415-14.998-0.707-18.41,6.047c-3.415,6.754-0.707,14.997,6.047,18.41c7.092,3.585,14.607,14.208,17.484,30.348h27.717
	C254.142,409.219,251.171,399.24,246.728,390.597z"/>
<path style="fill:#F4B759;" d="M66.212,405.493h153.254c32.423,0,58.708-26.284,58.708-58.707v-27.222
	c0-38.833-31.48-70.312-70.312-70.312h-92.099c-56.828,0-102.894,46.068-102.894,102.894l0,0
	C12.865,381.609,36.75,405.493,66.212,405.493z"/>
<path style="fill:#7D7060;" d="M18.935,376.854c8.913,17.02,26.733,28.639,47.278,28.639h153.254
	c21.431,0,40.174-11.489,50.423-28.639H18.935z"/>
<path style="opacity:0.1;enable-background:new    ;" d="M207.859,249.251h-21.571c-16.052,16.471-25.955,38.963-25.955,63.779
	v28.162c0,28.12,16.137,52.457,39.646,64.299h19.487c32.423,0,58.707-26.284,58.707-58.707v-27.222
	C278.173,280.732,246.692,249.251,207.859,249.251z"/>
<path style="fill:#4A5058;" d="M438.668,405.493H254.56c-39.75,0-71.973-32.224-71.973-71.973v-28.162
	c0-50.486,40.927-91.413,91.413-91.413h103.924c69.668,0,126.146,56.478,126.146,126.146l0,0
	C504.069,376.212,474.788,405.493,438.668,405.493z"/>
<g>
	<path style="fill:#FFFFFF;" d="M303.817,303.806c-4.381,0-7.931-3.55-7.931-7.931v-11.811c0-4.38,3.55-7.931,7.931-7.931
		c4.38,0,7.931,3.551,7.931,7.931v11.811C311.748,300.255,308.197,303.806,303.817,303.806z"/>
	<path style="fill:#FFFFFF;" d="M456.694,303.806c-4.38,0-7.931-3.55-7.931-7.931v-11.811c0-4.38,3.551-7.931,7.931-7.931
		c4.381,0,7.931,3.551,7.931,7.931v11.811C464.625,300.255,461.074,303.806,456.694,303.806z"/>
	<path style="fill:#FFFFFF;" d="M391.646,344.362c-4.255,0-8.194-1.383-11.39-3.724c-3.197,2.341-7.136,3.724-11.392,3.724
		c-10.654,0-19.321-8.668-19.321-19.322c0-4.381,3.551-7.931,7.931-7.931c4.381,0,7.931,3.55,7.931,7.931
		c0,1.909,1.552,3.46,3.459,3.46c1.909,0,3.461-1.552,3.461-3.46c0-4.381,3.55-7.931,7.931-7.931s7.931,3.55,7.931,7.931
		c0,1.909,1.552,3.46,3.459,3.46c1.909,0,3.46-1.552,3.46-3.46c0-4.381,3.551-7.931,7.931-7.931c4.381,0,7.931,3.55,7.931,7.931
		C410.969,335.694,402.3,344.362,391.646,344.362z"/>
</g>
<rect x="351.149" y="145.157" style="fill:#4A5058;" width="58.213" height="116.965"/>
<rect x="351.149" y="145.157" style="opacity:0.15;enable-background:new    ;" width="58.213" height="41.304"/>
<g>
	<path style="fill:#4A5058;" d="M426.922,93.181L426.922,93.181c0,13.78-11.171,24.951-24.951,24.951h-43.432
		c-13.78,0-24.951-11.171-24.951-24.951l0,0c0-16.076-13.032-29.109-29.109-29.109l0,0c-16.076,0-29.109,13.032-29.109,29.109
		v22.268c0,31.338,25.404,56.742,56.742,56.742h96.283c31.338,0,56.742-25.404,56.742-56.742V93.181
		c0-16.076-13.032-29.109-29.109-29.109l0,0C439.955,64.072,426.922,77.104,426.922,93.181z"/>
	<path style="fill:#4A5058;" d="M21.632,447.928c-7.567,0-13.702-6.135-13.702-13.703c0-16.181,3.357-31.268,9.71-43.627
		c5.946-11.571,14.482-20.602,24.034-25.432c6.752-3.415,14.998-0.707,18.41,6.047c3.415,6.754,0.707,14.997-6.047,18.41
		c-9.008,4.553-18.702,20.453-18.702,44.603C35.335,441.793,29.199,447.928,21.632,447.928z"/>
	<path style="fill:#4A5058;" d="M79.425,447.928c-7.567,0-13.702-6.135-13.702-13.703c0-35.239,12.7-52.797,26.424-66.52
		c5.351-5.351,14.027-5.351,19.378,0c5.352,5.352,5.352,14.026,0,19.378c-9.696,9.696-18.398,20.596-18.398,47.142
		C93.127,441.793,86.992,447.928,79.425,447.928z"/>
	<path style="fill:#4A5058;" d="M141.704,447.928c-7.567,0-13.702-6.135-13.702-13.703c0-40.599,9.415-58.403,15.027-65.402
		c4.733-5.904,13.357-6.853,19.262-2.118c5.904,4.734,6.852,13.358,2.118,19.262c-5.385,6.716-9.003,26.111-9.003,48.26
		C155.406,441.793,149.271,447.928,141.704,447.928z"/>
</g>
<path d="M417.294,211.895V180.12h11.102c35.662,0,64.673-29.012,64.673-64.672V93.181c0-20.424-16.616-37.039-37.039-37.039
	c-20.424,0-37.038,16.616-37.038,37.039c0,9.385-7.635,17.02-17.02,17.02H358.54c-9.385,0-17.02-7.635-17.02-17.02
	c0-20.424-16.616-37.039-37.039-37.039c-20.424,0-37.038,16.616-37.038,37.039v22.268c0,35.66,29.012,64.672,64.672,64.672h11.102
	v25.894h-69.218c-30.399,0-57.646,13.729-75.883,35.306h-82.354c-61.109,0-110.826,49.717-110.826,110.826
	c0,10.768,2.792,21.181,8.099,30.424c-0.853,1.43-1.673,2.895-2.448,4.402C3.661,400.446,0,416.787,0,434.225
	c0,11.928,9.704,21.633,21.632,21.633s21.633-9.705,21.633-21.633c0-9.787,1.737-17.714,4.151-23.763
	c3.926,1.27,7.955,2.151,12.071,2.598c-1.082,6.362-1.694,13.373-1.694,21.165c0,11.928,9.704,21.633,21.632,21.633
	c11.842,0,21.482-9.569,21.621-21.379c0.139,11.811,9.778,21.379,21.621,21.379c3.353,0,6.594-0.783,9.531-2.231
	c2.874,1.414,6.093,2.231,9.508,2.231c11.839,0,21.476-9.563,21.62-21.368c0.144,11.805,9.781,21.368,21.62,21.368
	c11.928,0,21.633-9.705,21.633-21.633c0-7.45-0.536-14.325-1.607-20.801h13.044c2.02,6.174,3.089,13.254,3.089,20.801
	c0,11.928,9.705,21.633,21.633,21.633c11.928,0,21.633-9.705,21.633-21.633c0-7.162-0.624-14.119-1.836-20.801h176.134
	c40.435,0,73.332-32.896,73.332-73.333C512,280.902,473.361,229.052,417.294,211.895z M332.113,164.258
	c-26.914,0-48.81-21.896-48.81-48.81V93.181c0-11.677,9.499-21.178,21.177-21.178s21.178,9.5,21.178,21.178
	c0,18.131,14.75,32.882,32.882,32.882h43.432c18.131,0,32.882-14.75,32.882-32.882c0-11.677,9.499-21.178,21.177-21.178
	s21.178,9.5,21.178,21.178v22.268c0,26.914-21.897,48.81-48.811,48.81H332.113z M53.339,379.195
	c-0.481,1.465-1.504,2.653-2.881,3.349c-11.477,5.801-23.056,24.033-23.056,51.681c0,3.183-2.589,5.772-5.772,5.772
	c-3.182,0-5.771-2.589-5.771-5.772c0-14.928,3.054-28.761,8.833-40.002c5.187-10.093,12.487-17.9,20.558-21.979
	c0.818-0.415,1.705-0.624,2.597-0.624c0.605,0,1.214,0.097,1.806,0.291c1.466,0.481,2.654,1.504,3.35,2.882
	C53.702,376.167,53.82,377.731,53.339,379.195z M63.449,397.475c-1.986-0.118-3.945-0.375-5.879-0.749
	c0.015-0.007,0.03-0.019,0.044-0.026c4.952-2.502,8.663-6.723,10.549-11.915h0.895C66.961,388.629,65.066,392.838,63.449,397.475z
	 M105.917,381.474c-10.485,10.485-20.721,23.195-20.721,52.751c0,3.183-2.589,5.772-5.772,5.772c-3.182,0-5.771-2.589-5.771-5.772
	c0-33.968,12.441-49.251,24.101-60.911c1.124-1.125,2.602-1.688,4.08-1.688c1.479,0,2.957,0.562,4.081,1.688
	C108.167,375.563,108.167,379.225,105.917,381.474z M120.794,439.68c-2.266-0.779-3.9-2.927-3.9-5.454
	c0-7.219-0.379-14.258-1.092-20.801h5.156c-0.569,6.249-0.888,13.159-0.888,20.801C120.071,436.112,120.338,437.933,120.794,439.68z
	 M123.161,397.562h-10.595c1.451-1.691,2.984-3.288,4.567-4.872c2.272-2.274,3.953-4.972,5.019-7.907h4.194
	C125.158,388.551,124.078,392.794,123.161,397.562z M158.221,381.005c-7.922,9.882-10.746,33.971-10.746,53.221
	c0,3.183-2.589,5.772-5.772,5.772c-3.183,0-5.772-2.589-5.772-5.772c0-39.602,9.29-55.46,13.285-60.441
	c0.964-1.203,2.339-1.958,3.871-2.127c0.215-0.023,0.428-0.036,0.642-0.036c1.306,0,2.564,0.441,3.599,1.27
	c1.202,0.964,1.958,2.339,2.127,3.871C159.624,378.296,159.186,379.801,158.221,381.005z M151.352,355.891
	c-5.744,0.632-10.897,3.463-14.51,7.97c-1.153,1.437-2.339,3.116-3.522,5.062h-11.575c-1.071-2.517-2.619-4.834-4.612-6.826
	c-8.435-8.435-22.16-8.433-30.593,0c-2.136,2.136-4.278,4.399-6.379,6.826H67.736c-0.184-0.431-0.361-0.865-0.574-1.287
	c-2.607-5.158-7.067-8.993-12.558-10.796c-5.49-1.802-11.354-1.36-16.509,1.248c-5.069,2.563-9.867,6.124-14.228,10.479
	c-2.021-5.195-3.071-10.741-3.071-16.421c0-52.364,42.601-94.965,94.965-94.965h71.386c-7.951,14.278-12.49,30.705-12.49,48.176
	v28.162c0,12.708,2.997,24.725,8.298,35.404h-9.337c-1.35-3.187-3.481-6.094-6.366-8.407
	C162.743,356.902,157.101,355.259,151.352,355.891z M184.943,439.997c-3.183,0-5.772-2.589-5.772-5.772
	c0-7.717-0.703-14.599-2.116-20.801h11.803c1.244,6.348,1.856,13.207,1.856,20.801C190.716,437.408,188.126,439.997,184.943,439.997
	z M167.65,397.562c1.019-3.309,2.064-5.535,2.947-6.635c1.52-1.895,2.648-3.975,3.435-6.142h19.299
	c3.991,4.759,8.517,9.055,13.498,12.777H167.65z M242.736,439.997c-3.183,0-5.772-2.589-5.772-5.772
	c0-7.919-1.004-15.504-2.896-22.427c0.722-0.162,1.441-0.334,2.159-0.52c3.279,0.773,6.628,1.363,10.049,1.717
	c1.475,6.719,2.232,13.831,2.232,21.23C248.508,437.408,245.919,439.997,242.736,439.997z M438.668,397.562H254.56
	c-35.314,0-64.043-28.73-64.043-64.044v-28.162c0-46.031,37.45-83.481,83.481-83.481h69.218v40.245c0,4.381,3.551,7.931,7.931,7.931
	c4.381,0,7.931-3.55,7.931-7.931v-82h42.355v82c0,4.381,3.55,7.931,7.931,7.931c4.38,0,7.931-3.55,7.931-7.931V228.59
	c46.901,16.499,78.844,60.965,78.844,111.503C496.138,371.782,470.357,397.562,438.668,397.562z"/>
<g>
</g>
<g>
</g>
<g>
</g>
<g>
</g>
<g>
</g>
<g>
</g>
<g>
</g>
<g>
</g>
<g>
</g>
<g>
</g>
<g>
</g>
<g>
</g>
<g>
</g>
<g>
</g>
<g>
</g>
</svg>
