<?xml version="1.0" encoding="iso-8859-1"?>
<!-- Generator: Adobe Illustrator 19.0.0, SVG Export Plug-In . SVG Version: 6.00 Build 0)  -->
<svg version="1.1" id="Layer_1" xmlns="http://www.w3.org/2000/svg" xmlns:xlink="http://www.w3.org/1999/xlink" x="0px" y="0px"
	 viewBox="0 0 511.999 511.999" style="enable-background:new 0 0 511.999 511.999;" xml:space="preserve">
<path style="fill:#ADD9E8;" d="M31.843,310.792c0-6.597-5.348-11.946-11.946-11.946s-11.947,5.347-11.947,11.946
	c0,6.598,5.348,24.278,11.946,24.278S31.843,317.389,31.843,310.792z"/>
<path style="opacity:0.1;enable-background:new    ;" d="M31.843,310.792c0-6.597-5.348-11.946-11.946-11.946
	s-11.947,5.347-11.947,11.946c0,6.598,5.348,24.278,11.946,24.278S31.843,317.389,31.843,310.792z"/>
<path style="fill:#ADD9E8;" d="M315.431,452.811h-65.123c-6.012,0-10.885-4.873-10.885-10.885v-73.498
	c0-20.988,17.015-38.003,38.003-38.003l0,0c20.988,0,38.003,17.015,38.003,38.003v84.383H315.431z"/>
<path style="fill:#F8ECC8;" d="M306.622,423.773L306.622,423.773c-6.538,0-11.837,5.3-11.837,11.837v17.201h29.783
	c3.063,0,5.546-2.483,5.546-5.546l0,0C330.113,434.29,319.595,423.773,306.622,423.773z"/>
<path style="opacity:0.1;enable-background:new    ;" d="M315.431,425.496v-57.069c0-20.989-17.015-38.003-38.003-38.003l0,0
	c-20.988,0-38.003,17.015-38.003,38.003v73.498c0,6.012,4.873,10.885,10.885,10.885h74.258c3.063,0,5.546-2.483,5.546-5.546
	C330.113,437.408,324.036,428.983,315.431,425.496z"/>
<path style="fill:#B0E2E8;" d="M295.708,222.708H122.481c-39.649,0-71.791,32.142-71.791,71.791v21.174
	c0,21.72,8.495,41.444,22.323,56.073v70.179c0,6.012,4.873,10.885,10.885,10.885h65.123v-55.47h33.171v44.585
	c0,6.012,4.873,10.885,10.885,10.885h65.121v-57.314c42.288-8.557,74.125-45.931,74.125-90.743v-45.431
	C332.324,239.102,315.931,222.708,295.708,222.708z"/>
<path style="opacity:0.05;enable-background:new    ;" d="M136.85,222.708v20.471c0,46.865,37.992,84.857,84.857,84.857h107.664
	c1.926-7.439,2.954-15.24,2.954-23.281v-45.431c0-20.223-16.394-36.617-36.617-36.617H136.85V222.708z"/>
<path style="fill:#ADD9E8;" d="M343.614,107.344c-3.123,3.76-1.947,9.439,2.4,11.673c17.42,8.95,39.315,4.962,52.349-10.727
	c8.636-10.396,11.508-23.674,8.974-35.955c-2.779-13.47-19.846-17.809-28.634-7.23L343.614,107.344z"/>
<path style="opacity:0.1;enable-background:new    ;" d="M343.614,107.344c-3.123,3.76-1.947,9.439,2.4,11.673
	c17.42,8.95,39.315,4.962,52.349-10.727c8.636-10.396,11.508-23.674,8.974-35.955c-2.779-13.47-19.846-17.809-28.634-7.23
	L343.614,107.344z"/>
<path style="fill:#B0E2E8;" d="M468.358,172.356h-58.6v-8.486c0-53.261-43.177-96.438-96.438-96.438H248.1
	c-53.261,0-96.438,43.177-96.438,96.438v65.259c0,46.865,37.992,84.857,84.857,84.857h195.781c39.625,0,71.748-32.123,71.748-71.748
	v-34.19C504.049,188.335,488.069,172.356,468.358,172.356z"/>
<path style="opacity:0.05;enable-background:new    ;" d="M202.2,106.418l-21.723-11.297c-10.671,10.497-18.912,23.455-23.795,37.96
	c17.392,5.301,36.35-0.375,47.977-14.23C208.001,114.87,206.812,108.816,202.2,106.418z"/>
<path style="fill:#F8E9B4;" d="M397.32,101.328l-39.934,71.029h107.591l-39.934-71.029
	C418.965,90.515,403.398,90.515,397.32,101.328z"/>
<path style="fill:#ADD9E8;" d="M205.817,107.344c3.123,3.76,1.947,9.439-2.4,11.673c-17.42,8.95-39.315,4.962-52.349-10.727
	c-8.636-10.396-11.508-23.674-8.973-35.955c2.779-13.47,19.846-17.809,28.634-7.23L205.817,107.344z"/>
<path style="opacity:0.1;enable-background:new    ;" d="M205.817,107.344c3.123,3.76,1.947,9.439-2.4,11.673
	c-17.42,8.95-39.315,4.962-52.349-10.727c-8.636-10.396-11.508-23.674-8.973-35.955c2.779-13.47,19.846-17.809,28.634-7.23
	L205.817,107.344z"/>
<g>
	<path style="fill:#F8E9B4;" d="M139.945,423.773L139.945,423.773c-6.538,0-11.837,5.3-11.837,11.837v17.201h29.783
		c3.063,0,5.546-2.483,5.546-5.546l0,0C163.438,434.29,152.92,423.773,139.945,423.773z"/>
	<path style="fill:#F8E9B4;" d="M249.39,423.773L249.39,423.773c-6.538,0-11.837,5.3-11.837,11.837v17.201h29.783
		c3.063,0,5.546-2.483,5.546-5.546l0,0C272.882,434.29,262.364,423.773,249.39,423.773z"/>
</g>
<path d="M299.48,126.944c-10.952,0-19.862,8.91-19.862,19.863c0,4.392,3.559,7.951,7.951,7.951s7.951-3.559,7.951-7.951
	c0-2.185,1.777-3.961,3.96-3.961c2.184,0,3.961,1.777,3.961,3.961c0,4.392,3.559,7.951,7.951,7.951s7.951-3.559,7.951-7.951
	C319.343,135.855,310.432,126.944,299.48,126.944z M469.647,164.438l-37.672-67.006c-3.489-6.207-9.297-10.373-16.056-11.705
	c0.47-4.999,0.224-10.058-0.795-15c-1.915-9.276-8.802-16.462-17.975-18.754c-9.126-2.278-18.541,0.804-24.563,8.051l-9.881,11.896
	c-14.973-8.045-31.891-12.438-49.385-12.438h-65.22c-20.68,0-40.37,5.937-57.409,17.211l-13.845-16.666
	c-6.02-7.247-15.434-10.333-24.564-8.051c-9.172,2.292-16.059,9.478-17.973,18.753c-3.133,15.184,0.747,30.727,10.645,42.643
	c2.392,2.879,5.066,5.43,7.952,7.651c-6.025,13.399-9.193,28.069-9.193,42.848v50.887H122.48c-28.525,0-53.586,15.064-67.682,37.646
	c-20.993,3.295-37.621,19.148-41.995,39.822C5.329,295.09,0,302.321,0,310.791c0,6.56,5.194,32.229,19.898,32.229
	s19.896-25.67,19.896-32.229c0-7.706-4.412-14.388-10.836-17.691c2.638-9.182,8.854-16.762,17.06-21.191
	c-2.121,7.166-3.279,14.744-3.279,22.589v21.175c0,21.894,7.903,42.773,22.323,59.153v67.1c0,10.386,8.45,18.836,18.836,18.836
	h44.454c0.007,0,0.014,0.001,0.02,0.001h29.783c7.442,0,13.496-6.055,13.496-13.498c0-11.178-5.869-21.006-14.682-26.583v-15.39
	h17.269v36.634c0,10.386,8.45,18.836,18.836,18.836h44.454c0.007,0,0.014,0.001,0.02,0.001h29.783c0.007,0,0.014-0.001,0.02-0.001
	h27.407c0.007,0,0.014,0.001,0.02,0.001h29.783c7.443,0,13.498-6.055,13.498-13.498c0-11.179-5.868-21.006-14.682-26.583V368.43
	c0-2.358-0.203-4.72-0.568-7.063c8.112-11.85,13.536-25.207,15.972-39.427h93.514c43.947,0,79.7-35.753,79.7-79.699v-34.19
	C512,184.416,493.116,165.124,469.647,164.438z M19.898,324.792c-1.973-3.919-3.996-10.547-3.996-14.001
	c0-2.202,1.793-3.995,3.996-3.995c2.203,0,3.995,1.792,3.995,3.995C23.892,314.245,21.869,320.872,19.898,324.792z M411.182,101.17
	c1.398,0,4.873,0.395,6.93,4.055l33.274,59.181h-80.409l33.273-59.181h-0.001C406.309,101.565,409.784,101.17,411.182,101.17z
	 M384.818,70.184c2.111-2.54,5.282-3.581,8.476-2.783c3.24,0.81,5.578,3.254,6.255,6.539c0.977,4.741,0.934,9.641-0.078,14.36
	c-2.963,1.664-5.553,3.975-7.603,6.831c-4.744-5.417-10.002-10.287-15.672-14.567L384.818,70.184z M149.882,73.941
	c0.678-3.285,3.016-5.729,6.254-6.539c0.709-0.177,1.416-0.264,2.111-0.264c2.439,0,4.723,1.07,6.366,3.047l34.832,41.931
	c-14.294,7.145-32.012,3.431-42.261-8.906C150.393,95.034,147.731,84.366,149.882,73.941z M136.324,444.86v-9.25
	c0-2.144,1.744-3.886,3.886-3.886c7.752,0,14.196,5.705,15.355,13.137h-19.241V444.86z M245.503,444.86v-9.25
	c0-2.144,1.744-3.886,3.886-3.886c7.752,0,14.195,5.705,15.355,13.137h-19.241V444.86z M286.833,435.61v9.25h-6.102
	c-0.774-10.174-6.406-19.006-14.58-24.178v-18.896c15.453-4.178,29.511-11.936,41.329-22.759v36.817
	c-0.286-0.007-0.571-0.022-0.859-0.022C295.711,415.822,286.833,424.699,286.833,435.61z M302.735,444.86v-9.25
	c0-2.144,1.744-3.886,3.886-3.886c7.751,0,14.196,5.705,15.355,13.137h-19.241V444.86z M302.387,361.648
	c-12.229,13.461-28.053,22.471-45.765,26.056c-3.708,0.75-6.375,4.009-6.375,7.793v20.346c-0.286-0.007-0.57-0.022-0.859-0.022
	c-10.912,0-19.788,8.877-19.788,19.788v9.25h-36.523c-1.618,0-2.934-1.316-2.934-2.934v-44.585c0-4.392-3.56-7.951-7.951-7.951
	h-33.171c-4.391,0-7.951,3.559-7.951,7.951v18.502c-0.286-0.007-0.571-0.022-0.86-0.022c-10.911,0-19.788,8.877-19.788,19.788v9.25
	H83.898c-1.618,0-2.934-1.316-2.934-2.934v-70.179c0-2.031-0.777-3.986-2.172-5.462c-12.994-13.747-20.151-31.721-20.151-50.61
	v-21.175c0-35.202,28.638-63.84,63.84-63.84h21.25c0.821,50.471,42.125,91.279,92.789,91.279h86.083
	C319.575,336.713,312.69,350.307,302.387,361.648z M496.098,242.238c0,35.178-28.619,63.797-63.798,63.797H236.52
	c-42.406,0-76.906-34.5-76.906-76.906v-65.26c0-12.136,2.519-24.18,7.313-35.24c5.514,1.954,11.335,2.977,17.191,2.977
	c7.816,0,15.687-1.793,22.933-5.516c4.234-2.176,7.209-6.097,8.161-10.758c0.95-4.653-0.245-9.416-3.279-13.067l-11.009-13.254
	c14.094-8.932,30.242-13.627,47.177-13.627h65.22c27.513,0,53.357,12.804,70.082,34.476l-21.733,38.656
	c0.056-0.382,0.095-0.77,0.095-1.167v-11.841c0-4.392-3.559-7.951-7.951-7.951c-4.391,0-7.951,3.559-7.951,7.951v11.841
	c0,4.392,3.56,7.951,7.951,7.951c1.926,0,3.692-0.685,5.067-1.824l-8.424,14.984c-1.385,2.462-1.358,5.473,0.068,7.912
	s4.039,3.936,6.863,3.936h110.971c15.297,0,27.74,12.444,27.74,27.74v34.189H496.098z M462.018,227.565
	c-4.392,0-7.951,3.559-7.951,7.951c0,4.058-3.301,7.359-7.359,7.359c-4.058,0-7.359-3.301-7.359-7.359
	c0-4.392-3.559-7.951-7.951-7.951c-4.391,0-7.951,3.559-7.951,7.951c0,4.058-3.301,7.359-7.359,7.359
	c-4.057,0-7.358-3.301-7.358-7.359c0-4.392-3.559-7.951-7.951-7.951s-7.951,3.559-7.951,7.951c0,12.826,10.435,23.261,23.26,23.261
	c5.857,0,11.217-2.177,15.31-5.764c4.093,3.586,9.453,5.764,15.31,5.764c12.826,0,23.261-10.436,23.261-23.261
	C469.969,231.124,466.409,227.565,462.018,227.565z"/>
<g>
</g>
<g>
</g>
<g>
</g>
<g>
</g>
<g>
</g>
<g>
</g>
<g>
</g>
<g>
</g>
<g>
</g>
<g>
</g>
<g>
</g>
<g>
</g>
<g>
</g>
<g>
</g>
<g>
</g>
</svg>
