<?xml version="1.0" encoding="iso-8859-1"?>
<!-- Generator: Adobe Illustrator 19.0.0, SVG Export Plug-In . SVG Version: 6.00 Build 0)  -->
<svg version="1.1" id="Layer_1" xmlns="http://www.w3.org/2000/svg" xmlns:xlink="http://www.w3.org/1999/xlink" x="0px" y="0px"
	 viewBox="0 0 512 512" style="enable-background:new 0 0 512 512;" xml:space="preserve">
<path style="fill:#E8E8E8;" d="M312.449,183.5c81.88,0,139.026-34.865,128.132-93.423c-11.405-61.312-62.49-82.042-128.132-82.042
	c-62.44,0-119.078,20.291-140.178,79.218c-20.323,56.757,4.568,104.883,30.586,137.807c23.192,29.347,52.806,44.33,76.602,56.368
	c30.761,15.563,43.896,23.327,47.35,44.877c-17.24-3.3-30.607-5.859-30.607-5.859c-67.309-12.885-136.923-9.193-202.343,10.73l0,0
	c-19.959,6.079-41.385,6.11-61.364,0.092c-5.372-2.213-12.579-5.873-17.799-10.031c-2.737-2.179-6.784-0.176-6.784,3.321v39.409
	c0,77.32,65.313,140,145.883,140h76.928c94.065,0,170.32-104.484,170.32-163.452l0,0c0-79.671-51.159-105.553-88.513-124.451
	c-21.517-10.886-46.473-18.4-61.789-45.053C266.286,183.966,291.61,183.5,312.449,183.5z"/>
<path style="fill:#4A5058;" d="M440.583,90.078c-1.806-9.707-4.612-18.39-8.307-26.14h-90.237c-16.84,0-30.492,13.652-30.492,30.492
	s13.652,30.492,30.492,30.492h96.4C442.094,114.513,442.96,102.86,440.583,90.078z"/>
<circle style="fill:#FFFFFF;" cx="346.291" cy="94.434" r="7.822"/>
<path style="opacity:0.05;enable-background:new    ;" d="M441.614,97.596c-3.35-4.187-8.5-7.312-15.499-7.312
	c-13.559,0-20.2,11.721-20.2,20.2c0,6.681-5.416,12.098-12.097,12.098l0,0c-13.213,0-23.925,10.711-23.925,23.925v0.541
	c0,11.609,8.269,21.283,19.237,23.462C424.065,156.411,444.626,131.312,441.614,97.596z"/>
<path style="fill:#F4B759;" d="M501.89,143.933L501.89,143.933c-9.537,8.256-21.73,12.8-34.344,12.8h-73.727
	c-13.213,0-23.925-10.711-23.925-23.924v-0.541c0-13.213,10.711-23.924,23.925-23.924l0,0c6.681,0,12.097-5.416,12.097-12.098
	c0-8.478,6.641-20.2,20.2-20.2s20.2,11.721,20.2,20.2c0,12.805,33.515,27.713,54.063,37.109
	C504.586,135.277,505.388,140.906,501.89,143.933z"/>
<path style="opacity:0.2;enable-background:new    ;" d="M427.576,119.76c-4.37,0-7.911-3.542-7.911-7.911v-5.977
	c0-4.369,3.541-7.911,7.911-7.911c4.37,0,7.911,3.542,7.911,7.911v5.977C435.487,116.218,431.945,119.76,427.576,119.76z"/>
<path style="opacity:0.1;enable-background:new    ;" d="M250.195,346.469l-40.449-33.487
	c-39.192,0.648-78.234,6.725-115.887,18.193l0,0c-5.199,1.583-10.498,2.747-15.845,3.509c0.101,0.878,0.193,1.758,0.314,2.632
	l-5.237-2.054c-5.488,0.523-11.008,0.619-16.508,0.285c-6.929,3.439-11.7,10.935-10.636,19.656l0,0
	c3.637,29.83,20.859,55.94,46.091,71.142c37.03,22.775,107.67,43.555,157.324-0.582c2.732-2.171,5.284-4.65,7.599-7.446l0,0
	C274.932,396.608,271.903,364.44,250.195,346.469z"/>
<path style="fill:#E8E8E8;" d="M263.891,332.772l-85.521-70.799c-14.499-12.003-36.559-4.164-40.233,14.296l0,0
	c-1.091,5.481-1.798,10.981-2.145,16.467l-11.119-6.275c-14.998-8.463-33.597,2.164-33.919,19.382l0,0
	c-0.113,6.002,0.264,11.939,1.072,17.775l-6.171-2.421c-13.608-5.336-27.978,5.799-26.21,20.307l0,0
	c3.637,29.83,20.859,55.94,46.091,71.142c37.03,22.775,107.67,43.554,157.324-0.582c2.732-2.171,5.284-4.65,7.599-7.446l0,0
	C288.629,382.911,285.6,350.744,263.891,332.772z"/>
<path style="opacity:0.05;enable-background:new    ;" d="M263.891,332.772l-85.521-70.799
	c-14.499-12.003-36.559-4.164-40.233,14.296l0,0c-1.091,5.481-1.798,10.981-2.145,16.467l-11.119-6.275
	c-14.998-8.463-33.597,2.164-33.919,19.382l0,0c-0.113,6.002,0.264,11.939,1.072,17.775l-6.171-2.421
	c-13.608-5.336-27.978,5.799-26.21,20.307l0,0c3.637,29.83,20.859,55.94,46.091,71.142c37.03,22.775,107.67,43.554,157.324-0.582
	c2.732-2.171,5.284-4.65,7.599-7.446l0,0C288.629,382.911,285.6,350.744,263.891,332.772z"/>
<path d="M511.854,137.104c-0.691-4.827-3.751-8.918-8.186-10.946l-1.884-0.861c-9.959-4.548-22.354-10.207-32.314-16.147
	c-14.586-8.699-15.24-12.901-15.244-12.905c0-7.434-3.256-15.188-9.069-20.665c-15.094-50.06-59.711-75.456-132.709-75.456
	c-76.793,0-127.84,29.207-147.627,84.463c-17.185,47.995-6.477,96.907,31.828,145.379c24.272,30.715,54.749,46.132,79.237,58.521
	c22.518,11.393,33.842,17.861,39.313,27.542l-17.513-3.353c-17.679-3.385-35.793-5.661-53.881-6.799l-60.393-49.997
	c-8.975-7.431-20.888-9.537-31.869-5.637c-10.98,3.902-18.893,13.054-21.168,24.482c-0.345,1.732-0.655,3.479-0.931,5.235
	l-0.687-0.388c-9.494-5.357-20.811-5.328-30.275,0.081c-9.464,5.408-15.237,15.143-15.442,26.043
	c-0.041,2.183-0.021,4.38,0.059,6.585c-7.356-1.206-14.888,0.666-20.966,5.375c-3.448,2.672-6.119,6.027-7.915,9.782
	c-6.477-0.58-12.868-1.793-19.07-3.634c-4.683-1.96-11.112-5.239-15.528-8.757c-3.651-2.908-8.537-3.452-12.751-1.422
	C2.634,315.67,0,319.858,0,324.557v39.409c0,81.558,68.991,147.91,153.794,147.91h76.928c60.074,0,104.888-38.949,126.255-62.167
	c31.575-34.309,51.975-77.171,51.975-109.196c0-37.389-10.586-66.96-32.365-90.4c-18.422-19.828-41.747-31.628-60.489-41.111
	c-3.855-1.95-7.842-3.807-11.697-5.602c-8.81-4.103-17.385-8.096-25.179-13.374c10.546,1.4,21.38,1.388,31.135,1.385l2.093-0.001
	c42.913,0,79.77-9.489,104.207-26.767h50.889c14.514,0,28.548-5.231,39.522-14.729C510.756,146.722,512.545,141.933,511.854,137.104
	z M71.827,330.163c2.064-1.599,4.455-2.419,6.906-2.419c1.407,0,2.834,0.27,4.231,0.817l4.051,1.59
	c0.263,0.342,0.518,0.682,0.786,1.024c18.768,24.025,49.084,49.996,61.67,55.483c1.029,0.449,2.102,0.661,3.157,0.661
	c3.051,0,5.958-1.776,7.256-4.752c1.746-4.005-0.085-8.667-4.09-10.413c-8.47-3.692-37.067-27.093-55.523-50.718
	c-0.217-0.278-0.425-0.556-0.64-0.834c-0.588-4.887-0.86-9.792-0.769-14.613c0.099-5.274,2.892-9.984,7.473-12.602
	c4.579-2.618,10.056-2.632,14.65-0.039l9.644,5.443c17.973,24.265,54.043,57.059,78.569,66.546c0.939,0.363,1.904,0.535,2.853,0.535
	c3.173,0,6.166-1.922,7.379-5.059c1.577-4.075-0.448-8.656-4.523-10.232c-19.309-7.469-52.367-35.677-70.794-60.163
	c0.371-4.243,0.961-8.473,1.784-12.609c1.176-5.91,5.269-10.644,10.947-12.661c5.678-2.017,11.841-0.927,16.482,2.915l85.522,70.799
	c8.872,7.344,14.352,17.704,15.432,29.171c1.079,11.466-2.37,22.668-9.714,31.539c-1.912,2.309-4.074,4.427-6.428,6.298
	c-0.114,0.091-0.226,0.184-0.333,0.281c-19.817,17.615-43.116,23.993-65.921,23.992c-32.005-0.002-63.034-12.568-82.066-24.273
	c-23.565-14.197-38.991-38.008-42.322-65.323C66.998,336.468,68.577,332.682,71.827,330.163z M312.449,175.589l-2.105,0.001
	c-19.563,0.014-41.716,0.031-54.541-10.657c-2.944-2.453-7.221-2.443-10.153,0.021c-2.933,2.465-3.679,6.677-1.77,9.998
	c13.903,24.191,35.122,34.074,53.843,42.793c3.913,1.823,7.609,3.544,11.234,5.378c37.502,18.972,84.174,42.584,84.174,117.392
	c0,27.841-19.207,67.418-47.795,98.483c-19.611,21.31-60.579,57.059-114.613,57.059h-76.928
	c-76.08-0.001-137.973-59.255-137.973-132.089v-32.319c5.559,3.44,11.068,5.867,13.66,6.934c0.239,0.099,0.483,0.186,0.731,0.261
	c7.049,2.123,14.309,3.55,21.665,4.271c4.088,31.909,22.197,59.697,49.711,76.274c20.894,12.851,54.96,26.532,90.521,26.531
	c26.079,0,52.963-7.358,76.044-27.797c3.142-2.517,6.034-5.36,8.596-8.455c10.04-12.127,14.755-27.438,13.28-43.112
	c-1.476-15.674-8.968-29.835-21.095-39.875l-3.6-2.98c9.874,1.162,19.695,2.662,29.379,4.517l30.608,5.859
	c0.496,0.095,0.993,0.141,1.487,0.141c2.038,0,4.02-0.788,5.509-2.233c1.851-1.796,2.711-4.383,2.303-6.93
	c-4.097-25.563-20.507-34.96-51.589-50.685c-23.103-11.688-51.855-26.233-73.967-54.214
	c-34.696-43.903-44.568-87.721-29.346-130.235c21.893-61.141,84.263-73.974,132.73-73.974c59.626,0,96.772,17.123,113.027,52.206
	c-16.985,0.355-27.471,14.743-27.471,28.094c0,2.308-1.878,4.186-4.186,4.186c-17.555,0-31.836,14.282-31.836,31.836v0.541
	c0,14.622,9.913,26.966,23.37,30.683C365.425,171.378,340.443,175.589,312.449,175.589z M467.546,148.822h-73.726
	c-8.831,0-16.015-7.184-16.015-16.014v-0.541c0-8.831,7.184-16.015,16.015-16.015c11.032,0,20.008-8.976,20.008-20.008
	c0-3.85,3.095-12.289,12.289-12.289s12.289,8.439,12.289,12.289c0,16.15,24.417,28.644,56.408,43.262
	C487.026,145.531,477.436,148.822,467.546,148.822z"/>
<g>
</g>
<g>
</g>
<g>
</g>
<g>
</g>
<g>
</g>
<g>
</g>
<g>
</g>
<g>
</g>
<g>
</g>
<g>
</g>
<g>
</g>
<g>
</g>
<g>
</g>
<g>
</g>
<g>
</g>
</svg>
