<?xml version="1.0" encoding="iso-8859-1"?>
<!-- Generator: Adobe Illustrator 19.0.0, SVG Export Plug-In . SVG Version: 6.00 Build 0)  -->
<svg version="1.1" id="Layer_1" xmlns="http://www.w3.org/2000/svg" xmlns:xlink="http://www.w3.org/1999/xlink" x="0px" y="0px"
	 viewBox="0 0 512.001 512.001" style="enable-background:new 0 0 512.001 512.001;" xml:space="preserve">
<path style="fill:#4A5058;" d="M225.14,481.259c-10.026,0-18.156-8.128-18.156-18.156v-41.152c0-10.026,8.128-18.156,18.156-18.156
	c10.026,0,18.156,8.128,18.156,18.156v41.152C243.296,473.131,235.167,481.259,225.14,481.259z"/>
<path style="opacity:0.15;enable-background:new    ;" d="M225.14,403.797c-10.026,0-18.156,8.128-18.156,18.156v16.622
	c9.567,9.459,22.157,16.151,36.31,18.689v-35.311C243.295,411.927,235.167,403.797,225.14,403.797z"/>
<path style="fill:#4A5058;" d="M286.861,481.259c-10.026,0-18.156-8.128-18.156-18.156v-41.152c0-10.026,8.128-18.156,18.156-18.156
	c10.026,0,18.156,8.128,18.156,18.156v41.152C305.015,473.131,296.887,481.259,286.861,481.259z"/>
<path style="opacity:0.15;enable-background:new    ;" d="M286.861,403.797c-10.026,0-18.156,8.128-18.156,18.156v35.311
	c14.153-2.537,26.743-9.23,36.31-18.689v-16.622C305.015,411.927,296.887,403.797,286.861,403.797z"/>
<path style="fill:#4A5058;" d="M210.964,412.142c-34.816-18.123-72.943-1.508-89.791,16.331c-4.941,5.232-12.896,5.998-18.766,1.834
	c-26.631-18.891-61.239-8.904-83.716,10.504c-4.562,3.938-11.528,0.084-10.746-5.892c4.738-36.204,23.785-85.107,74.333-112.686
	c6.668-3.639,14.777-3.248,21.231,0.758c29.811,18.505,74.558,20.056,96.64,6.427h55.856L210.964,412.142z"/>
<path style="fill:#A4A8AB;" d="M197.534,356.936c-19.766,12.864-62.241,11.399-88.925-6.067c-5.777-3.782-13.036-4.15-19.005-0.716
	c-34.285,19.727-48.581,51.007-55.345,79.873c21.084-11.535,47.105-14.648,68.149,0.28c5.869,4.163,13.825,3.398,18.766-1.834
	c16.847-17.839,54.976-34.454,89.791-16.331l30.057-55.206h-43.489V356.936z"/>
<path style="opacity:0.1;enable-background:new    ;" d="M202.443,329.416c-18.342,11.756-30.396,31.622-30.396,54.153
	c0,7.279,1.277,14.273,3.599,20.812c11.524-0.489,23.608,1.664,35.318,7.76l45.041-82.726h-53.562V329.416z"/>
<path style="fill:#4A5058;" d="M301.037,412.142c34.816-18.123,72.943-1.508,89.791,16.331c4.941,5.232,12.896,5.998,18.766,1.834
	c26.631-18.891,61.239-8.904,83.716,10.504c4.562,3.938,11.528,0.084,10.746-5.892c-4.738-36.204-23.785-85.107-74.333-112.686
	c-6.668-3.639-14.777-3.248-21.231,0.758c-29.811,18.505-74.558,20.056-96.64,6.427h-55.856L301.037,412.142z"/>
<path style="fill:#A4A8AB;" d="M314.467,356.936c19.766,12.864,62.241,11.399,88.925-6.067c5.777-3.782,13.036-4.15,19.005-0.716
	c34.285,19.727,48.581,51.007,55.346,79.873c-21.084-11.535-47.105-14.648-68.149,0.28c-5.869,4.163-13.825,3.398-18.766-1.834
	c-16.847-17.839-54.976-34.454-89.791-16.331l-30.057-55.206h43.488V356.936z"/>
<path style="opacity:0.1;enable-background:new    ;" d="M309.558,329.416c18.342,11.756,30.396,31.622,30.396,54.153
	c0,7.279-1.277,14.273-3.599,20.812c-11.524-0.489-23.608,1.664-35.318,7.76l-45.041-82.726h53.562V329.416z"/>
<ellipse style="fill:#4A5058;" cx="255.996" cy="384.798" rx="67.838" ry="64.149"/>
<path style="opacity:0.15;enable-background:new    ;" d="M256,320.643c-28.855,0-53.485,17.045-63.29,41.062
	c19.138,6.94,40.608,10.833,63.29,10.833c22.682,0,44.153-3.892,63.29-10.833C309.486,337.687,284.855,320.643,256,320.643z"/>
<path style="fill:#4A5058;" d="M117.609,76.298l26.269-37.084c8.005-11.301,24.777-11.301,32.782,0l26.269,37.084
	c31.596,44.604,27.303,105.31-10.253,145.024l0,0c-17.598,18.608-47.215,18.608-64.813,0l0,0
	C90.306,181.608,86.014,120.901,117.609,76.298z"/>
<path style="fill:#EDBCB9;" d="M139.916,106.11l13.679-22.658c3.259-5.4,10.09-5.4,13.349,0l13.679,22.658
	c15.075,24.969,13.027,58.954-4.892,81.186l0,0c-8.396,10.417-22.527,10.417-30.923,0l0,0
	C126.888,165.063,124.841,131.079,139.916,106.11z"/>
<path style="fill:#4A5058;" d="M394.391,76.298l-26.269-37.084c-8.005-11.301-24.777-11.301-32.782,0L309.07,76.298
	c-31.596,44.604-27.303,105.31,10.254,145.024l0,0c17.598,18.608,47.215,18.608,64.813,0l0,0
	C421.695,181.608,425.987,120.901,394.391,76.298z"/>
<path style="fill:#EDBCB9;" d="M372.085,106.11l-13.68-22.659c-3.259-5.4-10.09-5.4-13.349,0l-13.679,22.658
	c-15.075,24.969-13.027,58.954,4.892,81.186l0,0c8.396,10.417,22.527,10.417,30.923,0l0,0
	C385.112,165.063,387.16,131.079,372.085,106.11z"/>
<path style="fill:#4A5058;" d="M401.598,249.129c0-60.319-65.186-97.114-145.598-97.114s-145.599,36.795-145.599,97.114
	S175.588,358.347,256,358.347S401.598,309.448,401.598,249.129z"/>
<g>
	<path style="fill:#FFFFFF;" d="M180.773,249.031c-4.354,0-7.883-3.529-7.883-7.883v-11.74c0-4.355,3.53-7.883,7.883-7.883
		c4.354,0,7.883,3.529,7.883,7.883v11.74C188.656,245.501,185.127,249.031,180.773,249.031z"/>
	<path style="fill:#FFFFFF;" d="M331.235,249.031c-4.355,0-7.883-3.529-7.883-7.883v-11.74c0-4.355,3.529-7.883,7.883-7.883
		c4.355,0,7.883,3.529,7.883,7.883v11.74C339.118,245.501,335.59,249.031,331.235,249.031z"/>
</g>
<path style="fill:#EDBCB9;" d="M238.903,206.779L238.903,206.779c-8.583,8.563-16.271,17.978-22.947,28.099l0,0
	c-3.825,5.8-0.219,13.599,6.678,14.441l0,0c22.164,2.707,44.575,2.707,66.739,0l0,0c6.896-0.842,10.503-8.641,6.678-14.441l0,0
	c-6.673-10.119-14.36-19.532-22.941-28.093l-0.005-0.005C263.653,197.349,248.354,197.349,238.903,206.779z"/>
<path style="fill:#FFFFFF;" d="M271.992,302.225c-6.144,0-11.753-2.333-15.988-6.159c-4.235,3.827-9.844,6.159-15.987,6.159
	c-13.162,0-23.871-10.71-23.871-23.872c0-4.355,3.53-7.883,7.883-7.883s7.883,3.529,7.883,7.883c0,4.469,3.636,8.105,8.104,8.105
	c4.468,0,8.104-3.636,8.104-8.105c0-4.355,3.53-7.883,7.883-7.883c4.354,0,7.884,3.529,7.884,7.883c0,4.469,3.635,8.105,8.104,8.105
	c4.468,0,8.104-3.636,8.104-8.105c0-4.355,3.529-7.883,7.883-7.883s7.883,3.529,7.883,7.883
	C295.862,291.516,285.154,302.225,271.992,302.225z"/>
<path style="opacity:0.2;enable-background:new    ;" d="M246.073,219.7c-4.354,0-7.883,3.529-7.883,7.883v4.587
	c0,4.355,3.53,7.883,7.883,7.883c4.354,0,7.883-3.529,7.883-7.883v-4.587C253.956,223.23,250.426,219.7,246.073,219.7z
	 M265.928,219.7c-4.355,0-7.883,3.529-7.883,7.883v4.587c0,4.355,3.529,7.883,7.883,7.883c4.355,0,7.883-3.529,7.883-7.883v-4.587
	C273.811,223.23,270.283,219.7,265.928,219.7z"/>
<path d="M511.874,433.896c-3.213-24.551-17.281-85.25-78.374-118.584c-9.055-4.94-20.229-4.566-29.164,0.982
	c-10.202,6.332-22.934,10.754-36.173,12.86c26.689-21.729,41.318-49.954,41.318-80.022c0-12.879-2.805-25.147-8.188-36.45
	c13.954-19.934,21.557-43.26,22.038-67.773c0.516-26.348-7.266-51.649-22.508-73.164l-26.269-37.083
	c-5.234-7.39-13.767-11.803-22.824-11.803c-9.056,0-17.588,4.411-22.824,11.803l-26.269,37.083
	c-15.237,21.51-23.064,47.296-22.484,73.512c-7.88-0.739-15.947-1.122-24.153-1.122c-8.206,0-16.273,0.383-24.153,1.122
	c0.58-26.217-7.247-52.002-22.484-73.512l-26.269-37.083c-5.234-7.39-13.767-11.803-22.824-11.803
	c-9.056,0-17.589,4.411-22.824,11.803l-26.269,37.083C95.937,93.26,88.153,118.56,88.67,144.908
	c0.481,24.513,8.084,47.839,22.038,67.773c-5.384,11.304-8.189,23.571-8.189,36.45c0,30.069,14.629,58.292,41.316,80.02
	c-13.238-2.106-25.969-6.527-36.169-12.858c-8.933-5.545-20.109-5.922-29.165-0.982C17.409,348.646,3.34,409.345,0.127,433.896
	c-0.788,6.023,2.155,11.775,7.498,14.654c2.169,1.169,4.518,1.743,6.847,1.743c3.359,0,6.681-1.194,9.371-3.516
	c27.468-23.716,56.96-22.132,74.004-10.04c9.15,6.49,21.369,5.29,29.059-2.852c11.884-12.585,35.079-24.105,59.265-21.252
	c3.188,7.21,7.586,13.815,12.933,19.61v30.86c0,14.358,11.681,26.039,26.038,26.039c14.358,0,26.039-11.681,26.039-26.039v-6.438
	c1.597,0.096,3.201,0.162,4.821,0.162c1.621,0,3.225-0.065,4.821-0.162v6.438c0,14.358,11.681,26.039,26.039,26.039
	c14.357,0,26.038-11.681,26.038-26.039v-30.86c5.347-5.796,9.745-12.401,12.933-19.61c24.185-2.853,47.38,8.668,59.264,21.252
	c7.689,8.141,19.908,9.341,29.059,2.852c17.043-12.092,46.534-13.677,74.004,10.041c2.69,2.322,6.01,3.515,9.371,3.515
	c2.329,0,4.678-0.574,6.848-1.743C509.719,445.67,512.663,439.917,511.874,433.896z M315.503,80.855l26.269-37.083
	c2.318-3.272,5.947-5.148,9.958-5.148c4.01,0,7.64,1.876,9.958,5.148l26.269,37.083c13.28,18.746,20.06,40.788,19.609,63.743
	c-0.371,18.971-5.654,37.119-15.344,53.109c-3.732-4.997-8.046-9.728-12.917-14.155c14.324-24.408,14.391-56.898-0.473-81.515
	l-13.68-22.659c-2.97-4.921-7.988-7.859-13.423-7.859c0,0,0,0-0.001,0c-5.433,0-10.451,2.938-13.423,7.859l-13.68,22.658
	c-8.72,14.444-12.456,31.71-10.831,48.859c-5.766-1.431-11.705-2.64-17.79-3.623C294.961,123.616,301.772,100.24,315.503,80.855z
	 M366.784,173.685c-1.181-0.808-2.377-1.607-3.603-2.387c-9.72-6.175-20.748-11.367-32.766-15.508
	c-2.989-15.712-0.215-32.479,7.711-45.606L351.73,87.65l13.604,22.534C376.897,129.334,377.221,154.387,366.784,173.685z
	 M104.433,144.597c-0.451-22.955,6.33-44.997,19.609-63.743l26.269-37.083c2.319-3.272,5.948-5.148,9.958-5.148
	c4.01,0,7.639,1.876,9.958,5.148l26.269,37.083c13.733,19.387,20.543,42.762,19.496,66.416c-6.085,0.984-12.024,2.194-17.79,3.623
	c1.625-17.149-2.111-34.415-10.831-48.858l-13.679-22.66c-2.971-4.92-7.988-7.858-13.423-7.858c-5.434,0-10.452,2.938-13.424,7.859
	l-13.68,22.659c-14.864,24.619-14.796,57.108-0.472,81.515c-4.871,4.427-9.185,9.158-12.917,14.155
	C110.088,181.715,104.806,163.569,104.433,144.597z M181.587,155.79c-12.019,4.141-23.046,9.334-32.767,15.508
	c-1.227,0.779-2.422,1.579-3.603,2.387c-10.435-19.298-10.113-44.351,1.447-63.501l13.605-22.535l13.605,22.535
	C181.801,123.312,184.576,140.078,181.587,155.79z M118.285,249.129c0-32.857,21.202-53.224,38.989-64.523
	c25.08-15.933,60.142-24.708,98.726-24.708s73.645,8.776,98.726,24.708c17.787,11.299,38.99,31.665,38.99,64.523
	c0,55.876-61.779,101.335-137.714,101.335C180.064,350.464,118.285,305.004,118.285,249.129z M181.293,396.486
	c-27.134-0.808-52.401,12.333-65.853,26.575c-2.237,2.37-5.801,2.713-8.474,0.817c-14.075-9.984-31.129-13.597-49.322-10.448
	c-3.757,0.651-7.519,1.592-11.246,2.795c9.24-26.897,24.757-46.362,47.135-59.237c3.292-1.894,7.413-1.709,10.757,0.478
	c21.391,14.001,52.856,19.188,77.296,13.99c-0.863,4.37-1.307,8.831-1.307,13.337C180.28,388.775,180.636,392.678,181.293,396.486z
	 M112.925,344.273c-8.34-5.458-18.784-5.825-27.254-0.952c-29.611,17.037-48.693,43.734-58.266,81.54
	c-3.87,2.304-7.614,4.884-11.167,7.735c3.707-23.921,17.655-74.984,69.812-103.444c4.084-2.227,9.178-2.021,13.299,0.536
	c19.185,11.908,45.872,18.056,70.239,16.311c5.436,2.83,11.086,5.377,16.917,7.634C167.929,360.601,135.062,358.763,112.925,344.273
	z M235.412,463.105c0,5.664-4.608,10.272-10.272,10.272c-5.664,0-10.271-4.609-10.271-10.272v-17.879
	c6.273,3.878,13.181,6.891,20.544,8.873V463.105z M297.133,463.105c0,5.664-4.608,10.272-10.271,10.272
	c-5.664,0-10.272-4.609-10.272-10.272V454.1c7.364-1.982,14.272-4.997,20.545-8.874v17.879H297.133z M256,441.061
	c-33.058,0-59.954-25.242-59.954-56.268c0-9.024,2.297-17.828,6.67-25.769c16.834,4.73,34.815,7.206,53.283,7.206
	c18.469,0,36.448-2.476,53.283-7.206c4.374,7.941,6.67,16.745,6.67,25.769C315.954,415.819,289.059,441.061,256,441.061z
	 M454.355,413.43c-18.191-3.151-35.246,0.462-49.322,10.448c-2.675,1.894-6.238,1.55-8.473-0.817
	c-13.452-14.243-38.712-27.389-65.852-26.577c0.656-3.807,1.012-7.71,1.012-11.691c0-4.506-0.444-8.967-1.307-13.337
	c24.441,5.199,55.905,0.01,77.296-13.99c3.345-2.189,7.466-2.372,10.756-0.478c22.379,12.876,37.895,32.341,47.136,59.238
	C461.874,415.022,458.112,414.08,454.355,413.43z M484.595,424.861c-9.571-37.805-28.654-64.503-58.267-81.541
	c-8.469-4.872-18.911-4.507-27.253,0.952c-22.136,14.492-55.005,16.331-73.581,9.359c5.832-2.257,11.48-4.805,16.917-7.634
	c24.367,1.748,51.054-4.404,70.24-16.311c4.122-2.557,9.218-2.763,13.297-0.536c52.159,28.46,66.107,79.523,69.814,103.445
	C492.21,429.747,488.466,427.165,484.595,424.861z M221.68,257.143c11.388,1.391,22.856,2.085,34.325,2.085
	s22.937-0.695,34.327-2.085c5.967-0.728,11.036-4.422,13.558-9.879c2.523-5.456,2.052-11.71-1.257-16.726
	c-6.951-10.542-15.011-20.411-23.96-29.339c-12.499-12.47-32.836-12.471-45.336-0.001v0.001
	c-8.943,8.922-17.004,18.793-23.959,29.338c-3.31,5.018-3.78,11.272-1.257,16.727C210.642,252.721,215.711,256.415,221.68,257.143z
	 M222.538,239.218c6.368-9.653,13.746-18.69,21.933-26.859h-0.001c6.36-6.344,16.706-6.344,23.072,0.006
	c8.186,8.168,15.565,17.202,21.928,26.854c0.3,0.454,0.335,0.935,0.107,1.429c-0.229,0.495-0.62,0.779-1.16,0.846
	c-21.508,2.626-43.318,2.626-64.827,0c-0.541-0.067-0.932-0.351-1.16-0.846C222.201,240.153,222.238,239.673,222.538,239.218z"/>
<g>
</g>
<g>
</g>
<g>
</g>
<g>
</g>
<g>
</g>
<g>
</g>
<g>
</g>
<g>
</g>
<g>
</g>
<g>
</g>
<g>
</g>
<g>
</g>
<g>
</g>
<g>
</g>
<g>
</g>
</svg>
