<?xml version="1.0" encoding="iso-8859-1"?>
<!-- Generator: Adobe Illustrator 19.0.0, SVG Export Plug-In . SVG Version: 6.00 Build 0)  -->
<svg version="1.1" id="Layer_1" xmlns="http://www.w3.org/2000/svg" xmlns:xlink="http://www.w3.org/1999/xlink" x="0px" y="0px"
	 viewBox="0 0 512.002 512.002" style="enable-background:new 0 0 512.002 512.002;" xml:space="preserve">
<path style="fill:#ADD9E8;" d="M247.73,494.311h84.827c3.962,0,7.175-3.212,7.175-7.175V373.364h-99.176v113.771
	C240.555,491.099,243.767,494.311,247.73,494.311z"/>
<path style="fill:#F8ECC8;" d="M339.731,465.659L339.731,465.659v21.477c0,3.962-3.212,7.175-7.175,7.175h-15.451v-6.026
	C317.106,475.788,327.236,465.659,339.731,465.659z"/>
<path style="opacity:0.08;enable-background:new    ;" d="M247.73,494.311h84.827c3.962,0,7.175-3.212,7.175-7.175V373.364h-99.176
	v113.771C240.555,491.099,243.767,494.311,247.73,494.311z"/>
<path style="fill:#ADD9E8;" d="M34.533,257.598c-8.732,0-17.532-4.495-24.776-12.659c-4.5-5.07-9.757-13.416-9.757-20.243
	c0-4.395,3.563-7.959,7.959-7.959c4.364,0,7.908,3.513,7.958,7.864c0.428,3.635,8.973,17.079,18.615,17.079
	c4.396,0,7.959,3.563,7.959,7.959S38.93,257.598,34.533,257.598z"/>
<path style="fill:#B0E2E8;" d="M240.025,197.62H126.464c-64.177,0-116.204,52.027-116.204,116.204l0,0
	c0,24.889,7.828,47.949,21.153,66.857v106.454c0,3.962,3.212,7.175,7.175,7.175h84.827c3.962,0,7.175-3.212,7.175-7.175v-57.107
	h43.553v57.107c0,3.962,3.212,7.175,7.175,7.175h84.827c3.962,0,7.175-3.212,7.175-7.175V425.18
	c47.952-14.316,82.91-58.749,82.91-111.356l0,0C356.228,249.647,304.203,197.62,240.025,197.62z"/>
<path style="opacity:0.08;enable-background:new    ;" d="M240.024,197.62H126.464c-12.229,0-24.015,1.894-35.085,5.396
	c-0.007,0.599-0.022,1.195-0.022,1.794l0,0c0,81.852,66.354,148.206,148.206,148.206h109.884
	c4.387-12.246,6.783-25.439,6.783-39.194l0,0C356.228,249.647,304.203,197.62,240.024,197.62z"/>
<g>
	<path style="fill:#F8E9B4;" d="M130.588,465.659L130.588,465.659v21.477c0,3.962-3.212,7.175-7.175,7.175h-15.451v-6.026
		C107.963,475.788,118.093,465.659,130.588,465.659z"/>
	<path style="fill:#F8E9B4;" d="M273.318,465.659L273.318,465.659v21.477c0,3.962-3.212,7.175-7.175,7.175h-15.451v-6.026
		C250.692,475.788,260.823,465.659,273.318,465.659z"/>
</g>
<path style="fill:#ADD9E8;" d="M410.133,71.584c-11.664,21.408-33.73,31.893-49.286,23.418c-15.556-8.475-18.712-32.7-7.048-54.109
	c11.664-21.408,31.666-28.107,47.223-19.631C416.577,29.737,421.796,50.176,410.133,71.584z"/>
<path style="opacity:0.2;enable-background:new    ;" d="M378.555,70.447c-1.286,0-2.59-0.312-3.8-0.971
	c-3.861-2.102-5.284-6.937-3.181-10.797l6.179-11.342c2.101-3.86,6.934-5.285,10.797-3.181c3.861,2.102,5.285,6.937,3.181,10.797
	l-6.179,11.342C384.107,68.945,381.374,70.447,378.555,70.447z"/>
<path style="fill:#F8E9B4;" d="M327.313,372.652h-40.375c-3.342,0-6.051-2.709-6.051-6.051v-28.355h52.477v28.355
	C333.364,369.943,330.655,372.652,327.313,372.652z"/>
<rect x="280.886" y="338.244" style="opacity:0.08;enable-background:new    ;" width="52.476" height="8.983"/>
<path style="fill:#F8E9B4;" d="M424.262,372.652h-40.376c-3.342,0-6.051-2.709-6.051-6.051v-40.861h52.477v40.861
	C430.313,369.943,427.604,372.652,424.262,372.652z"/>
<rect x="377.836" y="325.744" style="opacity:0.08;enable-background:new    ;" width="52.614" height="21.489"/>
<path style="fill:#B0E2E8;" d="M444.064,155.718C428.579,90.417,369.897,41.834,299.86,41.834h-45.527
	c-17.292,0-33.887,2.971-49.316,8.415c-2.15-5.069-5.186-10.075-9.089-14.726c-15.671-18.676-36.603-21.281-50.174-9.893
	c-13.57,11.387-14.64,32.454,1.031,51.13c1.753,2.089,3.61,4.009,5.539,5.772c-28.453,27.006-46.198,65.184-46.198,107.51l0,0
	c0,81.852,66.354,148.206,148.206,148.206h155.188c52.202,0,94.52-42.318,94.52-94.52l0,0
	C504.041,203.716,479.181,169.513,444.064,155.718z"/>
<g style="opacity:0.2;">
	<circle cx="307.13" cy="220.06" r="17.617"/>
	<circle cx="430.45" cy="220.06" r="17.617"/>
</g>
<path style="opacity:0.2;enable-background:new    ;" d="M175.935,69.55c-2.272,0-4.527-0.967-6.101-2.843l-8.303-9.895
	c-2.826-3.367-2.387-8.388,0.981-11.212c3.368-2.826,8.388-2.387,11.212,0.981l8.303,9.895c2.826,3.367,2.387,8.388-0.981,11.212
	C179.556,68.939,177.74,69.55,175.935,69.55z"/>
<path d="M493.759,185.352c-10.86-15.645-25.649-27.834-42.952-35.446c-6.724-25.306-19.904-48.669-37.978-67.651
	c1.556-2.191,2.993-4.481,4.29-6.864c6.502-11.934,8.736-24.175,6.464-35.399c-2.276-11.236-8.936-20.371-18.756-25.72
	s-21.106-5.994-31.78-1.813c-10.664,4.177-19.737,12.692-26.238,24.625c-0.624,1.146-1.203,2.317-1.762,3.498
	c-14.577-4.409-29.815-6.709-45.187-6.709h-45.527c-15.428,0-30.616,2.241-45.25,6.67c-2.008-3.539-4.368-6.932-7.058-10.138
	c-17.799-21.213-43.617-25.787-61.387-10.875c-8.566,7.187-13.287,17.46-13.292,28.924c-0.006,11.452,4.609,23.009,13.342,33.417
	c0.155,0.186,0.313,0.371,0.471,0.556c-27.785,29.132-42.992,67.04-42.992,107.611c0,0.957,0.019,1.91,0.036,2.863
	c-29.187,6.763-54.009,23.533-71.084,46.286c-6.319-4.081-10.892-11.936-11.203-14.587c-0.05-4.352-3.594-7.864-7.958-7.864
	c-4.395,0-7.959,3.563-7.959,7.959c0,7.684,7.465,20.644,18.42,27.781C8.119,270.651,2.3,291.625,2.3,313.824
	c0,24.893,7.305,48.809,21.153,69.334v103.977c0,8.345,6.788,15.134,15.135,15.134h84.827c8.344,0,15.134-6.788,15.134-15.134
	v-49.148h27.635v49.148c0,8.345,6.788,15.134,15.135,15.134h151.239c8.344,0,15.134-6.788,15.134-15.134V375.729
	c5.269-9.17,9.396-19.074,12.208-29.522h9.98v20.396c0,7.724,6.284,14.01,14.009,14.01h40.376c7.724,0,14.01-6.284,14.01-14.01
	v-24.507c42.556-12.458,73.729-51.839,73.729-98.369C512.001,222.728,505.692,202.542,493.759,185.352z M360.787,44.7
	c4.619-8.479,11.034-14.665,18.064-17.418c6.314-2.472,12.661-2.136,18.362,0.969c5.701,3.106,9.424,8.258,10.77,14.901
	c1.498,7.4-0.221,16.144-4.842,24.625c-0.631,1.161-1.319,2.282-2.03,3.382c-1.225-1.044-2.46-2.077-3.718-3.084
	c-2.962-2.372-6.011-4.623-9.129-6.762l3.466-6.362c2.103-3.861,0.679-8.694-3.181-10.797c-3.863-2.104-8.694-0.678-10.797,3.181
	l-3.075,5.644c-4.733-2.579-9.593-4.909-14.559-6.984C360.338,45.563,360.555,45.128,360.787,44.7z M122.63,486.352h-6.564
	c0.575-4.341,3.048-8.085,6.564-10.369V486.352z M265.359,486.352h-6.565c0.575-4.341,3.048-8.085,6.565-10.369V486.352z
	 M265.359,425.18v33.577c-12.417,3.351-21.727,14.34-22.558,27.595h-60.701v-56.323c0-4.395-3.562-7.959-7.959-7.959h-43.553
	c-4.396,0-7.959,3.563-7.959,7.959v28.728c-12.417,3.351-21.727,14.34-22.558,27.595H39.371V380.681
	c0-1.642-0.508-3.243-1.453-4.584c-12.887-18.288-19.699-39.822-19.699-62.273c0-49.85,33.628-92.614,81.106-104.798
	c9.398,77.187,75.325,137.18,155.009,137.18h18.595v20.396c0,7.724,6.284,14.01,14.009,14.01h38.311
	c-13.575,17.322-32.352,30.417-54.207,36.943C267.668,418.561,265.359,421.661,265.359,425.18z M288.846,364.693v-18.488h36.558
	v18.488H288.846z M331.772,486.352h-6.565c0.575-4.341,3.048-8.085,6.565-10.369V486.352z M331.772,458.757
	c-12.417,3.351-21.727,14.34-22.558,27.595h-27.938v-55.391c19.633-6.902,36.879-18.509,50.496-33.432L331.772,458.757
	L331.772,458.757z M341.323,352.029v-5.824h2.005C342.713,348.172,342.044,350.113,341.323,352.029z M422.354,364.693h-36.559
	v-18.488h23.726c4.346,0,8.627-0.274,12.833-0.802L422.354,364.693L422.354,364.693z M409.521,330.288H254.333
	c-77.333,0-140.247-62.915-140.247-140.247c0-38.848,15.526-74.979,43.718-101.737c1.602-1.521,2.5-3.639,2.48-5.847
	c-0.021-2.208-0.958-4.309-2.589-5.799c-1.727-1.579-3.346-3.266-4.812-5.014c-6.207-7.398-9.623-15.629-9.619-23.178
	c0.004-6.778,2.634-12.566,7.608-16.739c4.001-3.357,8.694-4.982,13.635-4.982c8.491,0,17.701,4.808,25.326,13.896
	c3.306,3.94,5.95,8.22,7.858,12.718c1.642,3.869,6.007,5.798,9.974,4.398c14.973-5.284,30.676-7.961,46.668-7.961h45.527
	c32.21,0,62.495,10.618,87.583,30.708c24.361,19.508,41.718,46.873,48.876,77.054c0.602,2.537,2.407,4.618,4.835,5.572
	c33.368,13.107,54.929,44.745,54.929,80.6C496.083,291.457,457.252,330.288,409.521,330.288z M173.725,46.581
	c-2.825-3.367-7.845-3.806-11.212-0.981c-3.367,2.826-3.806,7.845-0.981,11.212l8.303,9.894c1.574,1.876,3.829,2.843,6.101,2.843
	c1.805,0,3.621-0.611,5.112-1.862c3.367-2.826,3.806-7.845,0.981-11.212L173.725,46.581z M279.855,126.232
	c-4.397,0-7.959,3.563-7.959,7.959v11.852c0,4.395,3.562,7.959,7.959,7.959c4.396,0,7.959-3.563,7.959-7.959v-11.852
	C287.814,129.796,284.25,126.232,279.855,126.232z M384.372,126.232c-4.397,0-7.959,3.563-7.959,7.959v11.852
	c0,4.395,3.562,7.959,7.959,7.959c4.396,0,7.959-3.563,7.959-7.959v-11.852C392.331,129.796,388.769,126.232,384.372,126.232z"/>
<g>
</g>
<g>
</g>
<g>
</g>
<g>
</g>
<g>
</g>
<g>
</g>
<g>
</g>
<g>
</g>
<g>
</g>
<g>
</g>
<g>
</g>
<g>
</g>
<g>
</g>
<g>
</g>
<g>
</g>
</svg>
