<?xml version="1.0" encoding="iso-8859-1"?>
<!-- Generator: Adobe Illustrator 19.0.0, SVG Export Plug-In . SVG Version: 6.00 Build 0)  -->
<svg version="1.1" id="Layer_1" xmlns="http://www.w3.org/2000/svg" xmlns:xlink="http://www.w3.org/1999/xlink" x="0px" y="0px"
	 viewBox="0 0 512 512" style="enable-background:new 0 0 512 512;" xml:space="preserve">
<path style="fill:#BDD186;" d="M376.712,398.4h-12.419l-2.154-21.285c-0.41-4.056-2.316-7.814-5.343-10.543l-51.495-46.413
	c-6.737-6.072-17.119-5.532-23.191,1.203c-6.07,6.736-5.532,17.118,1.203,23.19l46.79,42.172c0,0,3.01,29.751,3.01,29.752
	c0.822,1.669,0.771,3.873,1.659,5.646c1.093,2.18,2.663,4.126,4.585,5.631c6.116,4.789,14.666,3.488,21.964,3.488
	c5.13,0,10.26,0,15.39,0c9.068,0,16.42-7.352,16.42-16.42C393.132,405.752,385.78,398.4,376.712,398.4z"/>
<path style="fill:#7CD1A7;" d="M187.647,245.4c-8.173,0.173-15.069,5.32-17.871,12.487c-3.246-2.192-7.168-3.449-11.382-3.359
	c-8.255,0.176-15.198,5.427-17.945,12.706c-2.105-0.714-4.359-1.101-6.71-1.051c-8.992,0.191-16.426,6.406-18.574,14.704
	c-2.839-1.488-6.08-2.304-9.511-2.231c-8.628,0.183-15.821,5.914-18.289,13.708c-2-0.633-4.128-0.972-6.342-0.925
	c-10.84,0.23-19.442,9.205-19.212,20.045c0.003,0.154,0.026,0.302,0.033,0.456c-1.355-0.264-2.753-0.398-4.189-0.368
	c-10.84,0.23-19.442,9.205-19.212,20.045c0.231,10.84,9.205,19.442,20.045,19.212s19.442-9.205,19.212-20.045
	c-0.003-0.154-0.026-0.302-0.033-0.456c1.355,0.264,2.753,0.398,4.189,0.368c8.628-0.183,15.821-5.914,18.289-13.708
	c2,0.633,4.129,0.972,6.342,0.925c8.992-0.191,16.426-6.406,18.574-14.704c2.839,1.488,6.081,2.304,9.511,2.231
	c8.254-0.176,15.198-5.427,17.945-12.705c2.105,0.714,4.359,1.101,6.71,1.051c8.174-0.173,15.069-5.32,17.871-12.487
	c3.246,2.192,7.168,3.449,11.382,3.359c10.84-0.23,19.442-9.205,19.212-20.046C207.463,253.772,198.487,245.17,187.647,245.4z"/>
<path style="fill:#97B05F;" d="M335.351,251.609c-108.108-13.563-196.215,27.053-252.763,61.977
	C30.328,345.861,7.93,386.957,7.93,439.391l0,0c0,32.502,26.348,58.85,58.85,58.85s58.85-26.348,58.85-58.85
	c0-28.627-20.444-52.47-47.526-57.751c11.317-12.952,27.472-21.524,47.526-21.524h167.402c38.51,0,69.729-31.218,69.729-69.729
	v-35.339L335.351,251.609z"/>
<path style="opacity:0.1;enable-background:new    ;" d="M335.351,251.609c-43.095-5.406-83.007-2.198-119.014,5.821
	c10.347,45.729,59.631,80.379,118.874,80.379c3.093,0,6.158-0.095,9.192-0.281c11.397-12.413,18.36-28.962,18.36-47.141v-35.339
	L335.351,251.609z"/>
<path style="fill:#BDD186;" d="M351.186,325.756c104.103,0,156.015-92.522,122.667-154.263l0,0
	c-10.894-20.601-26.554-37.695-45.204-50.238c-7.777-5.23-14.179-12.257-18.372-20.638l-36.456-72.871
	c-4.289-8.572-13.051-13.986-22.637-13.986l0,0l0,0c-9.585,0-18.348,5.414-22.637,13.986l-36.455,72.87
	c-4.194,8.382-10.595,15.408-18.371,20.638c-18.649,12.543-34.309,29.637-45.204,50.238l0,0
	C195.17,233.234,247.082,325.756,351.186,325.756z"/>
<path style="fill:#EDBCB9;" d="M364.423,224.367c-7.311,0-13.236-5.927-13.236-13.236c0,7.311-5.927,13.236-13.236,13.236
	c-3.926,0-7.442-1.719-9.865-4.434v19.86c0,12.76,10.343,23.103,23.103,23.103c12.76,0,23.103-10.343,23.103-23.103v-19.86
	C371.865,222.647,368.348,224.367,364.423,224.367z"/>
<path style="fill:#D46D59;" d="M351.186,247.231c-7.47,0-14.167,2.359-18.724,6.088c4.197,5.8,11.017,9.577,18.724,9.577
	c7.706,0,14.526-3.777,18.723-9.577C365.352,249.59,358.656,247.231,351.186,247.231z"/>
<g style="opacity:0.1;">
	<circle cx="381.19" cy="106.966" r="7.842"/>
	<circle cx="355.813" cy="132.174" r="7.842"/>
	<circle cx="340.131" cy="99.12" r="7.842"/>
</g>
<g>
	<path style="fill:#97B05F;" d="M401.29,158.259L401.29,158.259c8.114,26.662,28.98,47.528,55.642,55.642l0,0
		c8.808,2.68,18.283-1.237,22.626-9.355l19.945-37.28c7.921-14.806,5.218-33.05-6.655-44.923l0,0
		c-11.872-11.873-30.118-14.576-44.923-6.655l-37.28,19.945C402.527,139.975,398.609,149.451,401.29,158.259z"/>
	<path style="fill:#97B05F;" d="M301.082,158.259L301.082,158.259c-8.114,26.662-28.98,47.528-55.642,55.642l0,0
		c-8.808,2.68-18.283-1.237-22.626-9.355l-19.945-37.28c-7.921-14.806-5.218-33.05,6.655-44.923l0,0
		c11.872-11.873,30.118-14.576,44.923-6.655l37.28,19.945C299.845,139.975,303.762,149.451,301.082,158.259z"/>
</g>
<path style="opacity:0.15;enable-background:new    ;" d="M74.709,461.328c-15.222,0-27.607-12.384-27.607-27.607
	c0-20.122,16.369-36.492,36.493-36.492c14.571,0,27.626,6.589,36.365,16.935c-7.882-16.578-23.287-28.886-41.805-32.513
	c-26.321,2.73-46.913,25.039-46.913,52.07c0,23.969,19.499,43.468,43.468,43.468c20.049,0,36.361-16.311,36.361-36.361
	c0-16.914-13.761-30.675-30.675-30.675c-14.406,0-26.126,11.72-26.126,26.125c0,4.38,3.55,7.93,7.93,7.93s7.93-3.551,7.93-7.93
	c0-5.659,4.606-10.264,10.265-10.264c8.168,0,14.814,6.646,14.814,14.814C95.209,452.132,86.013,461.328,74.709,461.328z"/>
<g>
	<path style="fill:#BDD186;" d="M295.623,373.145h-26.56l-24.77-5.818l12.65-28.266c3.704-8.277-0.003-17.99-8.28-21.695
		c-8.278-3.704-17.99,0.002-21.695,8.28l-20.77,46.413c-2.002,4.471-1.902,9.602,0.272,13.991c2.173,4.39,6.193,7.58,10.962,8.7
		l36.183,8.498l2.71,11.035c1.84,7.493,8.549,12.508,15.934,12.508c1.295,0,2.614-0.154,3.928-0.477
		c8.808-2.163,14.193-11.056,12.031-19.862l-0.115-0.467h7.521c9.068,0,16.42-7.352,16.42-16.42
		C312.043,380.497,304.691,373.145,295.623,373.145z"/>
	<path style="fill:#BDD186;" d="M188.344,398.4h-16.488l-9.431-21.732l29.717-33.4c6.028-6.775,5.423-17.154-1.352-23.182
		c-6.776-6.028-17.155-5.421-23.181,1.352l-36.687,41.233c-4.251,4.777-5.341,11.586-2.796,17.451l17.805,41.028
		c0.02,0.049,0.042,0.096,0.062,0.144l0.026,0.061c2.545,5.872,8.673,9.888,15.071,9.888c0.029,0,0.056-0.004,0.085-0.004h27.168
		c9.068,0,16.42-7.352,16.42-16.42C204.763,405.751,197.413,398.4,188.344,398.4z"/>
</g>
<path d="M234.317,146.898v-11.81c0-4.38-3.55-7.93-7.93-7.93s-7.93,3.551-7.93,7.93v11.81c0,4.38,3.55,7.93,7.93,7.93
	C230.766,154.828,234.317,151.278,234.317,146.898z M498.456,116.736c-14.448-14.448-36.258-17.676-54.272-8.04l-11.137,5.958
	c-6.786-4.57-12.207-10.65-15.678-17.585l-36.456-72.871c-5.668-11.33-17.06-18.369-29.729-18.369
	c-12.67,0-24.06,7.039-29.728,18.369l-36.456,72.871c-3.469,6.934-8.891,13.014-15.677,17.587l-11.138-5.958
	c-18.014-9.636-39.824-6.407-54.272,8.04c-14.447,14.447-17.679,36.257-8.04,54.272l15.435,28.85
	c-2.071,16.387,0.072,33.224,6.03,49.233c-1.984,0.425-3.964,0.87-5.944,1.327c-5.043-8.073-14.026-13.175-23.919-12.947
	c-8.296,0.177-15.862,4.016-20.874,10.245c-2.697-0.798-5.521-1.183-8.379-1.118c-8.961,0.191-17.03,4.626-21.985,11.73
	c-0.887-0.069-1.781-0.093-2.67-0.075c-9.393,0.2-17.876,5.215-22.723,12.885c-1.766-0.311-3.556-0.45-5.362-0.412
	c-9.383,0.199-17.833,5.134-22.692,12.811c-0.644-0.033-1.293-0.041-1.939-0.029c-12.489,0.265-22.886,8.84-26.015,20.317
	c-13.929,1.633-24.63,13.658-24.326,27.961c0.092,4.317,1.2,8.504,3.19,12.26c-5.683,6.634-10.646,13.582-14.898,20.894
	C6.151,386.703,0,411.056,0,439.392c0,36.823,29.958,66.781,66.781,66.781s66.781-29.958,66.781-66.781
	c0-26.919-16.178-50.761-40.029-61.197c6.507-4.719,15.046-8.696,25.893-9.82c-1.074,4.911-0.646,10.134,1.425,14.906l17.782,40.976
	l0.06,0.136c0.016,0.038,0.041,0.097,0.051,0.118c3.802,8.77,12.783,14.663,22.347,14.663c0.081,0,0.17-0.001,0.261-0.004h26.991
	c13.427,0,24.351-10.924,24.351-24.351c0-13.427-10.924-24.351-24.351-24.351h-11.285l-5.343-12.312l8.995-10.11h18.592
	l-0.346,0.774c-2.978,6.654-2.832,14.218,0.404,20.751c3.235,6.534,9.16,11.236,16.255,12.901l31.453,7.388l1.551,6.316
	c2.68,10.921,12.4,18.548,23.635,18.548c1.953,0,3.91-0.238,5.821-0.706c6.317-1.552,11.651-5.47,15.02-11.033
	c1.712-2.826,2.813-5.907,3.278-9.08c13.08-0.4,23.597-11.164,23.597-24.339c0-0.447-0.014-0.89-0.038-1.331l2.586,2.331
	c0.763,7.541,2.682,26.501,2.703,26.702c0.089,0.884,0.326,1.747,0.699,2.551c0.058,0.205,0.147,0.639,0.214,0.965
	c0.263,1.286,0.624,3.046,1.548,4.89c1.624,3.24,3.97,6.117,6.784,8.32c5.879,4.603,12.721,5.336,18.856,5.336
	c1.498,0,2.954-0.044,4.343-0.086c1.241-0.037,2.465-0.075,3.653-0.075h15.39c13.427,0,24.351-10.924,24.351-24.351
	c0-13.427-10.924-24.351-24.351-24.351h-5.249l-1.432-14.154c-0.61-6.027-3.425-11.579-7.924-15.636l-15.591-14.053
	c4.121-3.905,7.836-8.275,11.051-13.064c43.058-1.52,80.453-18.432,105.82-48.034c21.417-24.995,31.42-56.068,27.678-85.67
	l15.435-28.85C516.134,152.993,512.903,131.183,498.456,116.736z M209.862,163.524c-6.318-11.808-4.2-26.104,5.27-35.574
	c5.834-5.834,13.5-8.878,21.287-8.878c4.852,0,9.753,1.182,14.286,3.608l37.28,19.943c4.767,2.55,7.083,8.155,5.51,13.325
	c-7.358,24.178-26.186,43.006-50.365,50.365c-5.173,1.573-10.775-0.744-13.325-5.509L209.862,163.524z M187.815,253.329
	c0.084-0.002,0.166-0.003,0.248-0.003c2.096,0,4.088,0.569,5.819,1.568c-5.45,1.531-10.888,3.192-16.32,4.975
	C179.483,255.958,183.405,253.423,187.815,253.329z M147.869,270.033c1.699-4.5,5.896-7.475,10.693-7.576
	c2.273-0.06,4.48,0.569,6.412,1.777c-5.88,2.148-11.754,4.442-17.627,6.892C147.544,270.779,147.724,270.417,147.869,270.033z
	 M133.909,274.112c1.332-0.038,2.672,0.184,3.995,0.632c0.205,0.07,0.412,0.125,0.62,0.177c-5.148,2.282-10.299,4.688-15.453,7.207
	C124.614,277.475,128.962,274.216,133.909,274.112z M94.925,294.757c1.514-4.783,5.893-8.067,10.897-8.173
	c1.989-0.048,3.901,0.404,5.662,1.327c0.023,0.013,0.049,0.021,0.072,0.033c-6.371,3.329-12.752,6.836-19.148,10.533
	C93.579,297.512,94.461,296.226,94.925,294.757z M81.191,299.368c1.239-0.033,2.529,0.16,3.779,0.556
	c1.722,0.547,3.572,0.48,5.246-0.165c-3.925,2.292-7.855,4.647-11.794,7.079c-2.987,1.844-5.865,3.721-8.669,5.622
	c0.018-0.278,0.025-0.558,0.014-0.841c-0.006-0.154-0.017-0.306-0.03-0.468C69.691,304.774,74.795,299.503,81.191,299.368z
	 M57.821,319.501c0.629-0.02,1.282,0.042,1.936,0.141c-4.759,3.641-9.209,7.39-13.372,11.249
	C46.551,324.693,51.558,319.634,57.821,319.501z M186.217,337.997l-29.718,33.4c-2.052,2.307-2.579,5.596-1.349,8.428l9.431,21.732
	c1.257,2.898,4.115,4.773,7.275,4.773h16.488c4.682,0,8.49,3.809,8.49,8.49c0,4.681-3.809,8.49-8.49,8.49h-27.168
	c-0.074,0-0.148,0.001-0.225,0.003c-3.187-0.061-6.389-2.191-7.645-5.089c-0.026-0.065-0.07-0.166-0.099-0.229l-17.805-41.028
	c-1.311-3.021-0.743-6.563,1.445-9.023l36.686-41.233c1.675-1.882,4.005-2.842,6.346-2.842c2.008,0,4.024,0.706,5.639,2.143
	C189.015,329.123,189.329,334.499,186.217,337.997z M295.623,398.055h-7.521c-2.436,0-4.736,1.12-6.239,3.036
	c-1.504,1.916-2.044,4.417-1.463,6.783l0.115,0.472c0.541,2.203,0.192,4.483-0.983,6.423c-1.175,1.939-3.035,3.306-5.235,3.847
	c-0.672,0.165-1.359,0.248-2.04,0.248c-3.911,0-7.296-2.66-8.232-6.469l-2.711-11.035c-0.711-2.895-2.985-5.147-5.888-5.828
	l-36.184-8.499c-2.474-0.581-4.539-2.221-5.667-4.497c-1.127-2.278-1.179-4.914-0.141-7.234l20.77-46.414
	c1.41-3.15,4.515-5.02,7.761-5.02c1.158,0,2.334,0.238,3.457,0.74c2.069,0.926,3.654,2.603,4.463,4.721
	c0.81,2.118,0.744,4.425-0.182,6.496l-12.65,28.266c-0.966,2.159-0.918,4.638,0.131,6.758c1.05,2.12,2.991,3.661,5.294,4.202
	l24.77,5.819c0.594,0.14,1.203,0.21,1.813,0.21h26.56c4.681,0,8.489,3.809,8.489,8.49
	C304.111,394.246,300.304,398.055,295.623,398.055z M293.034,352.185h-33.277l4.424-9.886c5.485-12.256-0.024-26.689-12.28-32.173
	c-12.26-5.484-26.69,0.024-32.173,12.281l-13.325,29.778h-11.578l3.244-3.646c8.923-10.031,8.025-25.454-2.006-34.379
	c-10.033-8.925-25.455-8.025-34.379,2.006l-32.047,36.019h-4.004c-20.842,0-39.841,8.608-53.498,24.236
	c-1.607,1.84-2.256,4.297-1.82,6.657c-22.457,5.894-39.073,26.361-39.073,50.641c0,23.969,19.499,43.468,43.468,43.468
	c20.049,0,36.361-16.311,36.361-36.361c0-16.914-13.761-30.675-30.675-30.675c-14.406,0-26.126,11.72-26.126,26.125
	c0,4.38,3.55,7.93,7.93,7.93s7.93-3.551,7.93-7.93c0-5.659,4.606-10.264,10.265-10.264c8.168,0,14.814,6.646,14.814,14.814
	c0,11.304-9.196,20.5-20.5,20.5c-15.222,0-27.607-12.384-27.607-27.607c0-20.121,16.369-36.492,36.493-36.492
	c5.141,0,10.185,0.819,15.005,2.42c11.736,9.423,19.102,23.88,19.102,39.741c0,28.077-22.843,50.92-50.92,50.92
	s-50.922-22.841-50.922-50.919c0-51.355,22.528-89.187,70.895-119.058c46.185-28.524,91.172-47.017,137.323-56.444
	c4.094,7.561,9.075,14.828,14.91,21.638c23.938,27.934,58.587,44.572,98.599,47.636
	C326.052,345.129,309.957,352.185,293.034,352.185z M351.486,372.46c1.568,1.414,2.55,3.351,2.763,5.452l2.154,21.285
	c0.41,4.051,3.819,7.132,7.89,7.132h12.418c4.682,0,8.49,3.809,8.49,8.49c0,4.681-3.809,8.49-8.49,8.49h-15.389
	c-1.344,0-2.726,0.04-4.129,0.082c-5.218,0.156-10.149,0.305-12.946-1.884c-0.951-0.745-1.756-1.727-2.333-2.84
	c-0.067-0.218-0.165-0.703-0.24-1.065c-0.173-0.85-0.392-1.919-0.796-3.073c-0.272-2.784-0.989-9.879-2.883-28.605
	c-0.199-1.959-1.119-3.774-2.58-5.092l-18.437-16.617c5.878-1.919,11.507-4.524,16.755-7.756L351.486,372.46z M451.34,275.207
	c-23.549,27.483-59.118,42.618-100.153,42.618c-41.034,0-76.603-15.135-100.153-42.618c-14.27-16.652-22.691-36.292-24.337-55.951
	c4.005,2.203,8.533,3.406,13.169,3.406c2.621,0,5.275-0.381,7.883-1.174c29.245-8.9,52.019-31.675,60.92-60.921
	c3.771-12.391-1.782-25.817-13.201-31.928l-10.827-5.792c6.073-5.307,11.031-11.659,14.546-18.683l36.456-72.871
	c2.965-5.925,8.92-9.604,15.544-9.604c6.625,0,12.58,3.68,15.545,9.604l36.456,72.872c3.515,7.025,8.474,13.376,14.546,18.683
	l-10.827,5.792c-11.42,6.11-16.972,19.537-13.201,31.928c8.9,29.245,31.674,52.019,60.92,60.92c2.609,0.794,5.262,1.175,7.884,1.175
	c4.635,0,9.163-1.203,13.168-3.406C474.03,238.915,465.608,258.555,451.34,275.207z M492.51,163.524l-19.945,37.28
	c-2.548,4.767-8.152,7.086-13.325,5.509c-24.178-7.357-43.006-26.186-50.365-50.364c-1.573-5.171,0.743-10.775,5.51-13.325
	l37.28-19.945c11.809-6.318,26.105-4.199,35.574,5.27C496.71,137.421,498.828,151.716,492.51,163.524z M475.985,127.157
	c-4.38,0-7.93,3.551-7.93,7.93v11.81c0,4.38,3.551,7.93,7.93,7.93c4.381,0,7.93-3.551,7.93-7.93v-11.81
	C483.916,130.708,480.366,127.157,475.985,127.157z M377.659,203.199c-4.381,0-7.93,3.551-7.93,7.93c0,2.926-2.38,5.307-5.307,5.307
	c-2.926,0-5.306-2.38-5.306-5.307c0-4.38-3.55-7.93-7.93-7.93c-4.381,0-7.93,3.551-7.93,7.93c0,2.926-2.38,5.307-5.306,5.307
	c-2.927,0-5.307-2.38-5.307-5.307c0-4.38-3.55-7.93-7.93-7.93c-4.38,0-7.93,3.551-7.93,7.93c0,4.206,1.248,8.12,3.372,11.418v17.246
	c0,17.112,13.922,31.033,31.033,31.033c17.112,0,31.033-13.922,31.033-31.033v-17.247c2.123-3.298,3.371-7.21,3.371-11.416
	C385.59,206.75,382.04,203.199,377.659,203.199z M366.359,239.793c0,8.366-6.805,15.173-15.173,15.173
	c-8.366,0-15.173-6.806-15.173-15.173v-7.594c0.638,0.058,1.282,0.098,1.935,0.098c5.004,0,9.609-1.746,13.236-4.661
	c3.628,2.914,8.233,4.661,13.236,4.661c0.654,0,1.297-0.04,1.936-0.098v7.594H366.359z"/>
<g>
</g>
<g>
</g>
<g>
</g>
<g>
</g>
<g>
</g>
<g>
</g>
<g>
</g>
<g>
</g>
<g>
</g>
<g>
</g>
<g>
</g>
<g>
</g>
<g>
</g>
<g>
</g>
<g>
</g>
</svg>
