<?xml version="1.0" encoding="iso-8859-1"?>
<!-- Generator: Adobe Illustrator 19.0.0, SVG Export Plug-In . SVG Version: 6.00 Build 0)  -->
<svg version="1.1" id="Layer_1" xmlns="http://www.w3.org/2000/svg" xmlns:xlink="http://www.w3.org/1999/xlink" x="0px" y="0px"
	 viewBox="0 0 512.001 512.001" style="enable-background:new 0 0 512.001 512.001;" xml:space="preserve">
<path style="fill:#ADD9E8;" d="M110.199,280.164c-13.339-53.707-45.006-76.677-84.476-84.428
	c-12.506-2.456-22.131,11.005-15.795,22.064c7.214,12.588,13.538,28.531,15.89,45.196c1.281,9.076,6.65,16.684,14.095,20.999
	c-7.445,4.317-12.814,11.924-14.095,21c-2.351,16.666-8.676,32.607-15.89,45.196c-6.336,11.059,3.288,24.519,15.795,22.064
	c39.47-7.75,71.136-30.721,84.476-84.428V280.164z"/>
<path style="opacity:0.1;enable-background:new    ;" d="M110.199,280.164c-13.339-53.707-45.006-76.677-84.476-84.428
	c-12.506-2.456-22.131,11.005-15.795,22.064c7.214,12.588,13.538,28.531,15.89,45.196c1.281,9.076,6.65,16.684,14.095,20.999
	c-7.445,4.317-12.814,11.924-14.095,21c-2.351,16.666-8.676,32.607-15.89,45.196c-6.336,11.059,3.288,24.519,15.795,22.064
	c39.47-7.75,71.136-30.721,84.476-84.428V280.164z"/>
<path style="fill:#B0E2E8;" d="M265.867,106.653c35.544,17.616,70.498,51.261,72.718,93.462
	c-22.186,1.738-102.373,7.875-121.852,19.894c6.383-15.207,14.253-53.828,11.352-87.438
	C226.321,112.113,247.47,97.535,265.867,106.653z"/>
<path style="opacity:0.05;enable-background:new    ;" d="M242.995,106.464c-9.31,4.466-15.928,14.302-14.909,26.107
	c2.901,33.61-4.969,72.232-11.352,87.438c3.879-2.393,10.17-4.552,17.925-6.492c4.94-19.802,10.226-60.815,5.533-90.364
	C239.22,117.021,240.384,111.281,242.995,106.464z"/>
<path style="fill:#B0E2E8;" d="M501.142,290.351c23.045-63.494-91.943-100.228-202.588-100.228S81.863,227.033,81.863,290.351
	S187.91,404.246,298.554,404.246S478.243,353.444,501.142,290.351z"/>
<g>
	<g>
		<path id="SVGCleanerId_0" style="fill:#ADD9E8;" d="M466.567,288.937c-87.89,0.465-190.28,49.894-384.44,6.763
			c5.761,60.793,108.918,108.544,216.428,108.544c110.645,0,179.689-50.801,202.588-113.895c0.211-0.583,0.387-1.158,0.575-1.737
			C491.289,288.664,479.664,288.869,466.567,288.937z"/>
	</g>
	<g>
		<path id="SVGCleanerId_0_1_" style="fill:#ADD9E8;" d="M466.567,288.937c-87.89,0.465-190.28,49.894-384.44,6.763
			c5.761,60.793,108.918,108.544,216.428,108.544c110.645,0,179.689-50.801,202.588-113.895c0.211-0.583,0.387-1.158,0.575-1.737
			C491.289,288.664,479.664,288.869,466.567,288.937z"/>
	</g>
</g>
<g>
	<path id="SVGCleanerId_0_2_" style="fill:#E8E8E8;" d="M466.567,288.937c-87.89,0.465-190.28,49.894-384.44,6.763
		c5.761,60.793,108.918,108.544,216.428,108.544c110.645,0,179.689-50.801,202.588-113.895c0.211-0.583,0.387-1.158,0.575-1.737
		C491.289,288.664,479.664,288.869,466.567,288.937z"/>
</g>
<path style="opacity:0.15;enable-background:new    ;" d="M221.028,307.83c0,0-49.776,11.523-80.082,38.6
	c-4.49,4.012-8.795,8.241-12.854,12.591c21.169,14.139,48.289,25.675,78.522,33.558c16.59-16.924,31.089-39.54,40.297-69.297
	C251.111,309.708,235.217,307.054,221.028,307.83z"/>
<path style="fill:#ADD9E8;" d="M170.881,298.748h60.208c12.62,0,21.012,13.031,15.822,24.535
	c-20.881,46.279-83.751,84.857-117.687,84.857c-35.23,0-21.089-60.308,12.525-96.639
	C149.263,303.38,159.816,298.748,170.881,298.748z"/>
<path style="opacity:0.1;enable-background:new    ;" d="M170.881,298.748h60.208c12.62,0,21.012,13.031,15.822,24.535
	c-20.881,46.279-83.751,84.857-117.687,84.857c-35.23,0-21.089-60.308,12.525-96.639
	C149.263,303.38,159.816,298.748,170.881,298.748z"/>
<g style="opacity:0.1;">
	<path d="M345.141,280.924c-2.912,0-5.714-1.611-7.097-4.396c-7.888-15.873-6.29-40.095-0.188-54.344
		c1.722-4.02,6.378-5.881,10.396-4.162c4.02,1.722,5.882,6.377,4.162,10.396c-4.604,10.749-5.778,29.815-0.188,41.062
		c1.946,3.916,0.349,8.667-3.567,10.614C347.526,280.657,346.325,280.924,345.141,280.924z"/>
	<path d="M317.134,286.169c-2.912,0-5.714-1.612-7.097-4.396c-7.888-15.873-6.29-40.095-0.188-54.344
		c1.722-4.02,6.379-5.883,10.396-4.162c4.02,1.722,5.883,6.377,4.162,10.396c-4.604,10.749-5.778,29.815-0.188,41.062
		c1.946,3.917,0.349,8.669-3.566,10.614C319.52,285.903,318.318,286.169,317.134,286.169z"/>
	<path d="M289.128,291.414c-2.912,0-5.714-1.612-7.097-4.396c-7.888-15.873-6.29-40.095-0.188-54.344
		c1.722-4.02,6.378-5.881,10.396-4.162c4.02,1.722,5.882,6.377,4.162,10.396c-4.604,10.749-5.778,29.815-0.188,41.062
		c1.946,3.916,0.349,8.669-3.566,10.614C291.514,291.148,290.311,291.414,289.128,291.414z"/>
</g>
<path d="M414.528,235.932c-12.235,0-22.189,9.954-22.189,22.189c0,4.373,3.545,7.918,7.918,7.918c4.373,0,7.918-3.545,7.918-7.918
	c0-3.503,2.85-6.353,6.353-6.353c3.503,0,6.353,2.85,6.353,6.353c0,4.373,3.545,7.918,7.918,7.918s7.918-3.545,7.918-7.918
	C436.717,245.885,426.763,235.932,414.528,235.932z M502.298,244.801c-24.626-35.136-91.214-54.501-158.004-60.526
	c-3.938-17.173-12.824-33.502-26.504-48.614c-13.01-14.372-29.748-26.856-48.407-36.103c-11.196-5.548-24.037-4.664-34.347,2.365
	c-10.375,7.072-15.922,18.785-14.839,31.329c1.421,16.467,0.208,36.505-3.315,55.745c-26.31,4.576-50.501,11.386-71.262,20.208
	c-18.437,7.835-33.44,16.932-44.879,27.096c-16.187-25.964-40.327-41.823-73.491-48.334c-8.855-1.738-17.638,1.749-22.913,9.105
	c-5.284,7.368-5.773,16.819-1.276,24.664c7.65,13.351,12.947,28.397,14.918,42.366c1.071,7.582,4.37,14.464,9.391,19.893
	c-5.021,5.429-8.32,12.312-9.391,19.893c-1.971,13.969-7.27,29.016-14.918,42.365c-4.496,7.847-4.008,17.298,1.276,24.665
	c4.378,6.104,11.17,9.546,18.416,9.546c1.485,0,2.991-0.145,4.497-0.44c29.233-5.741,51.374-18.71,67.358-39.519
	c3.676,4.247,7.822,8.397,12.44,12.427c-6.729,18.169-8.339,35.579-3.177,47.389c4.436,10.147,13.439,15.734,25.353,15.734
	c16.51,0,38.117-7.783,59.067-20.531c34.456,10.88,72.484,16.637,110.263,16.637c53.325,0,101.15-11.908,138.303-34.435
	c34.386-20.848,59.188-50.129,71.727-84.676C514.73,276.122,512.556,259.436,502.298,244.801z M235.974,131.89
	c-0.584-6.765,2.4-13.076,7.982-16.882c5.518-3.763,12.395-4.233,18.394-1.259c26.183,12.976,55.7,37.51,65.247,69.3
	c-9.797-0.562-19.522-0.842-29.044-0.842c-22.426,0-44.343,1.458-65.171,4.257C236.425,167.536,237.378,148.153,235.974,131.89z
	 M73.945,290.351c0,12.565,3.683,24.941,10.838,36.756c-13.774,19.84-33.644,32.089-60.584,37.379
	c-4.058,0.798-6.379-1.938-6.993-2.796c-0.619-0.861-2.474-3.954-0.405-7.563c8.626-15.055,14.614-32.111,16.859-48.026
	c0.911-6.456,4.639-12.017,10.227-15.257c2.443-1.417,3.946-4.027,3.946-6.851c0-2.823-1.503-5.434-3.946-6.85
	c-5.588-3.239-9.315-8.799-10.226-15.256c-2.244-15.915-8.233-32.971-16.859-48.027c-2.068-3.608-0.213-6.701,0.405-7.562
	c0.613-0.858,2.936-3.596,6.993-2.796c30.003,5.891,51.381,20.529,65.192,44.672C79.19,260.965,73.945,275.118,73.945,290.351z
	 M129.225,400.221c-7.193,0-9.573-3.336-10.843-6.241c-6.385-14.607,4.737-50.683,29.179-77.102
	c6.005-6.49,14.506-10.212,23.321-10.212h60.208c3.267,0,6.158,1.574,7.931,4.318c1.779,2.754,2.024,6.05,0.675,9.042
	c-8.916,19.759-27.577,40.354-51.199,56.503C167.118,391.143,144.407,400.221,129.225,400.221z M493.699,287.649
	c-11.293,31.115-33.787,57.581-65.052,76.538c-34.678,21.027-79.664,32.14-130.094,32.14c-31.78,0-63.716-4.248-93.332-12.326
	c20.775-15.723,39.178-35.901,48.908-57.463c3.551-7.87,2.876-16.897-1.806-24.147c-4.676-7.24-12.614-11.562-21.233-11.562h-60.208
	c-13.216,0-25.952,5.574-34.946,15.294c-8.858,9.573-16.344,20.463-22.107,31.57c-12.269-11.63-24.049-27.865-24.049-47.343
	c0-18.344,10.762-44.785,62.032-66.571c38.496-16.358,91.981-25.74,146.741-25.74c89.279,0,167.729,22.965,190.776,55.848
	C496.699,264.403,498.129,275.446,493.699,287.649z"/>
<g>
</g>
<g>
</g>
<g>
</g>
<g>
</g>
<g>
</g>
<g>
</g>
<g>
</g>
<g>
</g>
<g>
</g>
<g>
</g>
<g>
</g>
<g>
</g>
<g>
</g>
<g>
</g>
<g>
</g>
</svg>
