<?xml version="1.0" encoding="iso-8859-1"?>
<!-- Generator: Adobe Illustrator 19.0.0, SVG Export Plug-In . SVG Version: 6.00 Build 0)  -->
<svg version="1.1" id="Layer_1" xmlns="http://www.w3.org/2000/svg" xmlns:xlink="http://www.w3.org/1999/xlink" x="0px" y="0px"
	 viewBox="0 0 512.001 512.001" style="enable-background:new 0 0 512.001 512.001;" xml:space="preserve">
<g>
	<path style="fill:#D4624E;" d="M38.352,286.275c-1.627,0-3.281-0.256-4.911-0.795c-8.199-2.71-12.647-11.554-9.936-19.752
		c14.547-43.994,62.172-67.951,106.171-53.408c8.198,2.71,12.647,11.555,9.936,19.753c-2.71,8.197-11.554,12.646-19.752,9.936
		c-27.627-9.138-57.532,5.91-66.667,33.535C51.02,282.114,44.911,286.275,38.352,286.275z"/>
	<path style="fill:#D4624E;" d="M119.96,232.102c-4.453,0.001-8.874-1.891-11.967-5.563c-18.743-22.256-52.097-25.114-74.354-6.371
		c-6.605,5.562-16.467,4.717-22.03-1.888s-4.716-16.468,1.888-22.03c35.443-29.851,88.563-25.296,118.413,10.148
		c5.561,6.605,4.716,16.467-1.888,22.03C127.09,230.896,123.515,232.102,119.96,232.102z"/>
</g>
<path style="opacity:0.08;enable-background:new    ;" d="M131.911,206.397c-12.541-14.891-29.193-24.307-46.912-28.032
	c-9.908,8.034-16.207,18.409-19.052,29.46c15.587-0.481,31.244,5.888,42.046,18.715c3.093,3.673,7.515,5.565,11.967,5.563
	c3.555,0,7.131-1.207,10.063-3.676C136.628,222.864,137.473,213.001,131.911,206.397z"/>
<path style="opacity:0.08;enable-background:new    ;" d="M129.676,212.321c-22.468-7.427-45.871-4.796-65.343,5.399
	c-0.828,11.154,1.648,22.451,7.211,32.279c13.367-10.047,31.271-13.625,48.315-7.988c8.199,2.709,17.043-1.74,19.752-9.936
	C142.322,223.876,137.874,215.032,129.676,212.321z"/>
<g>
	<path style="fill:#D4624E;" d="M473.65,286.275c1.628,0,3.281-0.256,4.911-0.795c8.199-2.71,12.647-11.554,9.936-19.752
		c-14.548-43.994-62.172-67.951-106.171-53.408c-8.198,2.71-12.647,11.555-9.936,19.753c2.71,8.197,11.554,12.646,19.752,9.936
		c27.627-9.138,57.533,5.91,66.667,33.535C460.981,282.114,467.09,286.275,473.65,286.275z"/>
	<path style="fill:#D4624E;" d="M392.041,232.102c4.453,0.001,8.875-1.891,11.967-5.563c18.742-22.256,52.098-25.114,74.354-6.371
		c6.605,5.562,16.467,4.717,22.03-1.888s4.716-16.468-1.889-22.03c-35.443-29.851-88.563-25.296-118.413,10.148
		c-5.561,6.605-4.716,16.467,1.888,22.03C384.911,230.896,388.486,232.102,392.041,232.102z"/>
</g>
<path style="fill:#BD4936;" d="M98.477,175.821L98.477,175.821c-33.499,26-27.354,78.29,11.259,95.815l0,0
	c92.947,42.186,199.583,42.186,292.53,0l0,0c38.613-17.525,44.757-69.816,11.259-95.815l0,0
	C320.83,103.878,191.171,103.878,98.477,175.821z"/>
<path style="fill:#F8E9B4;" d="M256.001,232.675c-52.885,0-96.552,24.066-103.177,55.222c67.241,20.496,139.113,20.496,206.354,0
	C352.554,256.741,308.886,232.675,256.001,232.675z"/>
<path style="opacity:0.05;enable-background:new    ;" d="M412.956,260.947L412.956,260.947c-92.947,42.186-199.583,42.186-292.53,0
	l0,0c-33.948-15.408-42.786-57.682-21.664-85.342c-0.094,0.073-0.19,0.143-0.284,0.216l0,0c-33.498,26-27.354,78.29,11.259,95.815
	l0,0c92.947,42.186,199.582,42.186,292.53,0l0,0c9.026-4.097,16.253-10.108,21.638-17.223
	C420.603,256.915,416.966,259.127,412.956,260.947z"/>
<path style="fill:#D4624E;" d="M126.712,351.174c-1.079,0-2.172-0.112-3.271-0.345c-47.125-10.029-51.175-42.572-51.295-52.306
	c-0.314-25.662,18.7-49.605,44.227-55.694c8.393-2.006,16.831,3.182,18.835,11.582c2.003,8.399-3.182,16.831-11.581,18.835
	c-11.281,2.69-20.349,13.86-20.214,24.896c0.176,14.355,16.701,20.01,26.537,22.103c8.445,1.798,13.835,10.101,12.037,18.546
	C140.424,346.138,133.934,351.174,126.712,351.174z"/>
<path style="opacity:0.08;enable-background:new    ;" d="M129.951,320.243c-6.633-1.412-16.302-4.448-21.954-10.675
	c-4.965,13.263-4.527,25.703-0.54,36.425c4.685,1.914,9.984,3.557,15.985,4.835c1.098,0.233,2.191,0.345,3.271,0.345
	c7.223,0,13.713-5.036,15.277-12.383C143.786,330.345,138.396,322.041,129.951,320.243z"/>
<path style="fill:#BD4936;" d="M229.792,350.238c-4.376,18.774-24.872,47.599-66.182,37.97
	c-29.454-6.865-53.299-30.667-44.465-68.572C124.043,298.631,204.007,305.664,229.792,350.238z"/>
<g>
	<path style="fill:#D4624E;" d="M227.45,363.484l-7.289-4.398c-10.749-6.486-24.123-6.822-35.184-0.884l0,0
		c-17.532,9.412-39.026,7.221-54.298-5.536l0,0c-10.384-8.674-15.083-22.446-11.925-35.631
		c3.834-16.007,16.702-27.422,39.313-27.423c46.456-0.002,68.19,27.165,84.339,60.177l0,0
		C247.038,359.257,236.474,368.93,227.45,363.484z"/>
	<path style="fill:#D4624E;" d="M385.283,351.174c-7.223,0-13.713-5.035-15.277-12.383c-1.798-8.445,3.592-16.749,12.037-18.546
		c9.836-2.093,26.361-7.748,26.537-22.103c0.135-11.037-8.934-22.206-20.215-24.896c-8.399-2.003-13.584-10.436-11.581-18.835
		c2.004-8.401,10.441-13.587,18.835-11.582c25.527,6.089,44.541,30.031,44.227,55.695c-0.12,9.734-4.17,42.277-51.294,52.305
		C387.456,351.062,386.362,351.174,385.283,351.174z"/>
</g>
<path style="opacity:0.08;enable-background:new    ;" d="M382.05,320.243c6.633-1.412,16.302-4.448,21.954-10.675
	c4.965,13.263,4.526,25.703,0.54,36.425c-4.685,1.914-9.984,3.557-15.985,4.835c-1.098,0.233-2.191,0.345-3.271,0.345
	c-7.223,0-13.713-5.036-15.277-12.383C368.216,330.345,373.605,322.041,382.05,320.243z"/>
<path style="fill:#BD4936;" d="M282.202,350.238c4.376,18.774,24.872,47.599,66.182,37.97c29.454-6.865,53.299-30.667,44.464-68.572
	C387.952,298.631,307.987,305.664,282.202,350.238z"/>
<path style="fill:#D4624E;" d="M284.545,363.484l7.289-4.398c10.749-6.486,24.123-6.822,35.184-0.884l0,0
	c17.532,9.412,39.026,7.221,54.298-5.536l0,0c10.384-8.674,15.083-22.446,11.925-35.631c-3.834-16.007-16.702-27.422-39.313-27.423
	c-46.456-0.002-68.19,27.165-84.339,60.177l0,0C264.957,359.257,275.52,368.93,284.545,363.484z"/>
<path d="M511.913,206.195c-0.537-6.272-3.486-11.959-8.3-16.013c-23.045-19.41-53.631-26.179-82.657-18.53
	c-0.834-0.717-1.691-1.416-2.568-2.096c-95.611-74.207-229.164-74.205-324.775,0.001c-0.877,0.68-1.732,1.379-2.567,2.096
	c-29.029-7.648-59.613-0.881-82.657,18.529c-4.815,4.054-7.763,9.742-8.301,16.014s1.399,12.377,5.455,17.193
	c4.055,4.816,9.742,7.763,16.014,8.301c0.686,0.059,1.371,0.088,2.053,0.088c5.541,0,10.853-1.932,15.139-5.543
	c0.899-0.756,1.829-1.459,2.774-2.137c-11.616,10.538-20.532,23.976-25.548,39.143c-4.079,12.337,2.64,25.693,14.975,29.771
	c2.399,0.794,4.89,1.197,7.402,1.197c10.183,0,19.172-6.499,22.371-16.172c3.179-9.613,9.559-17.83,17.944-23.352
	c0.404,0.643,0.824,1.275,1.25,1.905c-9.936,11.651-15.889,26.564-15.701,42.032c0.126,10.367,4.102,44.401,48.899,57.758
	c2.222,5.945,5.408,11.478,9.56,16.483c9.251,11.152,23.151,19.345,39.136,23.071c6.451,1.503,12.386,2.164,17.845,2.164
	c26.301-0.002,41.428-15.342,48.655-25.732c1.524,0.398,3.077,0.602,4.625,0.602c4.493,0,8.941-1.658,12.467-4.887
	c6.105-5.59,7.763-14.341,4.125-21.777c-6.216-12.707-13.622-25.518-23.591-36.351c10.008,0.836,20.034,1.261,30.061,1.261
	c10.027,0,20.054-0.423,30.064-1.261c-9.97,10.833-17.376,23.646-23.592,36.352c-3.638,7.435-1.98,16.187,4.125,21.777
	c3.527,3.23,7.974,4.887,12.467,4.887c1.548,0,3.102-0.204,4.625-0.602c7.226,10.391,22.351,25.733,48.656,25.732
	c5.458,0,11.399-0.661,17.846-2.164c15.985-3.727,29.884-11.919,39.136-23.071c4.152-5.004,7.338-10.538,9.56-16.483
	c44.797-13.357,48.772-47.392,48.899-57.758c0.189-15.468-5.764-30.382-15.701-42.033c0.427-0.628,0.847-1.261,1.25-1.904
	c8.385,5.521,14.766,13.739,17.945,23.352c3.199,9.673,12.189,16.172,22.371,16.172c2.512,0,5.002-0.403,7.4-1.196
	c12.338-4.079,19.056-17.435,14.976-29.772c-5.016-15.168-13.932-28.606-25.548-39.144c0.944,0.678,1.876,1.381,2.774,2.137
	c4.288,3.611,9.599,5.543,15.14,5.543c0.681,0,1.366-0.029,2.052-0.088c6.272-0.538,11.959-3.486,16.014-8.301
	C510.513,218.573,512.451,212.466,511.913,206.195z M45.663,273.054c-1.047,3.164-3.985,5.29-7.312,5.29
	c-0.815,0-1.63-0.132-2.421-0.394c-4.033-1.333-6.23-5.699-4.896-9.731c6.312-19.089,20.092-34.877,37.866-43.925
	c0.345,5.428,1.366,10.775,3.023,15.908C59.609,247.652,50.214,259.292,45.663,273.054z M71.985,200.028
	C56.25,198.87,40.74,203.816,28.53,214.1c-1.574,1.325-3.574,1.952-5.618,1.783c-2.05-0.176-3.91-1.14-5.235-2.714
	c-1.325-1.574-1.958-3.57-1.783-5.62c0.176-2.049,1.139-3.909,2.714-5.235c16.968-14.291,38.885-20.301,60.446-16.987
	C76.071,189.899,73.697,194.827,71.985,200.028z M84.861,215.283c1.322-13.185,7.884-24.974,18.479-33.197
	c89.884-69.762,215.438-69.761,305.323,0.001c10.595,8.222,17.157,20.012,18.478,33.198c1.07,10.688-1.411,21.402-6.876,30.378
	c-6.762-4.898-14.471-8.563-22.792-10.547c-6.123-1.464-12.447-0.453-17.812,2.845c-5.364,3.298-9.122,8.486-10.582,14.609
	c-1.915,8.03,0.551,16.094,5.843,21.684c-3.505,1.283-7.031,2.508-10.572,3.677c-5.731-14.146-18.085-26.827-35.643-36.307
	c-20.16-10.885-45.981-16.88-72.705-16.88c-26.725,0-52.545,5.995-72.705,16.88c-17.558,9.48-29.912,22.161-35.643,36.307
	c-3.54-1.169-7.066-2.393-10.572-3.677c5.292-5.59,7.758-13.654,5.843-21.684c-1.46-6.123-5.219-11.311-10.582-14.609
	c-5.365-3.298-11.69-4.31-17.808-2.846c-8.324,1.985-16.034,5.65-22.796,10.55C86.271,236.686,83.79,225.971,84.861,215.283z
	 M109.871,326.769c-0.459,3.909-0.596,7.736-0.419,11.462c-25.938-11.03-29.267-30.969-29.374-39.806
	c-0.27-22.048,16.126-42.632,38.141-47.883c1.997-0.478,4.063-0.147,5.814,0.932c1.754,1.079,2.983,2.775,3.461,4.778
	c0.986,4.131-1.575,8.294-5.705,9.28c-14.931,3.56-26.485,17.927-26.305,32.707c0.085,6.898,2.832,16.085,14.546,23.007
	C109.853,323.093,109.811,324.937,109.871,326.769z M114.736,305.122c-3.339-3.091-3.376-5.903-3.39-7.078
	c-0.061-5.036,3.074-10.403,7.53-13.837c3.758,1.539,7.546,3.023,11.364,4.438C123.559,292.61,118.286,298.184,114.736,305.122z
	 M179.42,382.192c-4.255,0-8.918-0.522-14.009-1.709c-11.708-2.728-20.405-7.53-26.665-13.487
	c15.775,7.111,34.154,6.689,49.981-1.806c7.93-4.256,17.51-4.333,25.488-0.324C208.331,372.761,197.517,382.194,179.42,382.192z
	 M235.282,353.274c0.717,1.466,0.075,2.498-0.589,3.107c-0.665,0.609-1.749,1.157-3.146,0.314c0-0.001,0-0.001-0.001-0.001
	l-7.289-4.398c-6.865-4.142-14.665-6.224-22.477-6.224c-7.074,0-14.158,1.709-20.556,5.143c-14.761,7.926-32.606,6.104-45.462-4.634
	c-8.188-6.84-11.751-17.453-9.297-27.697c3.343-13.96,14.271-21.339,31.6-21.34c0.003,0,0.003,0,0.006,0
	C184.012,297.543,211.321,304.298,235.282,353.274z M200.845,290.904c-10.442-5.165-22.781-8.483-37.587-9.109
	c4.712-9.892,14.224-19.004,27.574-26.213c17.885-9.657,41.029-14.975,65.168-14.975s47.283,5.318,65.168,14.975
	c13.35,7.208,22.861,16.321,27.574,26.213c-14.806,0.626-27.145,3.945-37.587,9.11C274.547,296.815,237.449,296.815,200.845,290.904
	z M346.59,380.483c-26.741,6.236-41.535-5.864-48.804-15.617c7.979-4.009,17.559-3.934,25.488,0.324
	c15.826,8.497,34.205,8.919,49.978,1.808C366.994,372.954,358.296,377.756,346.59,380.483z M376.238,346.58
	c-12.857,10.738-30.702,12.558-45.463,4.634c-13.462-7.227-29.951-6.811-43.032,1.081l-7.289,4.398c0,0,0,0,0,0.001
	c-1.397,0.842-2.482,0.295-3.146-0.314c-0.664-0.608-1.305-1.641-0.589-3.107c14.162-28.947,33.317-55.733,77.215-55.731
	c17.33,0.001,28.257,7.379,31.601,21.34C387.99,329.127,384.427,339.74,376.238,346.58z M397.267,305.122
	c-3.55-6.938-8.825-12.511-15.503-16.477c3.817-1.415,7.605-2.9,11.364-4.438c4.455,3.436,7.591,8.802,7.529,13.837
	C400.642,299.219,400.605,302.03,397.267,305.122z M402.549,338.232c0.179-3.726,0.04-7.549-0.418-11.456
	c0.06-1.835,0.018-3.68-0.159-5.532c11.713-6.922,14.461-16.109,14.546-23.007c0.18-14.781-11.374-29.148-26.305-32.707
	c-4.132-0.987-6.692-5.149-5.706-9.28c0.478-2.003,1.707-3.699,3.461-4.778c1.752-1.078,3.818-1.406,5.818-0.931
	c22.011,5.25,38.406,25.836,38.136,47.882C431.816,307.263,428.487,327.202,402.549,338.232z M480.966,268.218
	c1.333,4.032-0.863,8.398-4.897,9.732c-0.79,0.261-1.603,0.393-2.42,0.393c-3.327,0-6.265-2.126-7.312-5.29
	c-4.55-13.762-13.946-25.403-26.261-32.853c1.657-5.133,2.679-10.48,3.023-15.908C460.875,233.342,474.654,249.13,480.966,268.218z
	 M494.326,213.17c-1.325,1.574-3.185,2.538-5.235,2.714c-2.05,0.167-4.045-0.458-5.62-1.783
	c-12.21-10.283-27.721-15.23-43.455-14.072c-1.712-5.201-4.086-10.129-7.068-14.699c21.56-3.312,43.477,2.697,60.446,16.988
	c1.574,1.325,2.537,3.184,2.712,5.234C496.284,209.599,495.651,211.596,494.326,213.17z M179.559,198.696
	c4.38,0,7.931-3.55,7.931-7.931v-11.811c0-4.381-3.551-7.931-7.931-7.931s-7.931,3.55-7.931,7.931v11.811
	C171.628,195.146,175.179,198.696,179.559,198.696z M332.442,198.696c4.38,0,7.931-3.55,7.931-7.931v-11.811
	c0-4.381-3.551-7.931-7.931-7.931c-4.38,0-7.931,3.55-7.931,7.931v11.811C324.511,195.146,328.062,198.696,332.442,198.696z
	 M242.763,212.497c5.005,0,9.609-1.746,13.238-4.66c3.628,2.914,8.233,4.66,13.238,4.66c11.673,0,21.169-9.496,21.169-21.17
	c0-4.381-3.551-7.931-7.931-7.931c-4.38,0-7.931,3.55-7.931,7.931c0,2.927-2.38,5.308-5.307,5.308s-5.307-2.38-5.307-5.308
	c0-4.381-3.551-7.931-7.931-7.931c-4.38,0-7.931,3.55-7.931,7.931c0,2.927-2.38,5.308-5.307,5.308c-2.926,0-5.307-2.38-5.307-5.308
	c0-4.381-3.551-7.931-7.931-7.931s-7.931,3.55-7.931,7.931C221.593,203,231.091,212.497,242.763,212.497z"/>
<g>
</g>
<g>
</g>
<g>
</g>
<g>
</g>
<g>
</g>
<g>
</g>
<g>
</g>
<g>
</g>
<g>
</g>
<g>
</g>
<g>
</g>
<g>
</g>
<g>
</g>
<g>
</g>
<g>
</g>
</svg>
