<?xml version="1.0" encoding="iso-8859-1"?>
<!-- Generator: Adobe Illustrator 19.0.0, SVG Export Plug-In . SVG Version: 6.00 Build 0)  -->
<svg version="1.1" id="Layer_1" xmlns="http://www.w3.org/2000/svg" xmlns:xlink="http://www.w3.org/1999/xlink" x="0px" y="0px"
	 viewBox="0 0 511.999 511.999" style="enable-background:new 0 0 511.999 511.999;" xml:space="preserve">
<path style="fill:#97B05F;" d="M175.797,465.844L175.797,465.844c-27.42,0-48.603-24.087-45.099-51.282l10.771-83.609h91.695
	l-12.269,95.229C217.974,448.862,198.663,465.844,175.797,465.844z"/>
<path style="opacity:0.1;enable-background:new    ;" d="M141.469,330.953l-5.162,40.072c13.828,17.746,35.729,28.008,60.391,28.008
	c10.746,0,20.235-1.959,28.421-5.625l8.046-62.455L141.469,330.953L141.469,330.953z"/>
<path style="fill:#97B05F;" d="M274.081,329.401L274.081,329.401c43.311-3.173,84.13-21.462,115.328-51.672l7.841-7.593
	c5.276-5.109,1.438-14.032-5.901-13.714l-121.218,5.259c-18.145,0.788-32.451,15.727-32.451,33.889l0,0
	C237.682,315.28,254.424,330.841,274.081,329.401z"/>
<path style="fill:#BDD186;" d="M268.971,294.778c0,45.515-22.954,75.012-64.782,75.012s-75.736-29.497-75.736-75.012
	s33.908-82.413,75.736-82.413S268.971,249.264,268.971,294.778z"/>
<path style="opacity:0.05;enable-background:new    ;" d="M128.679,288.727c-0.134,2-0.225,4.014-0.225,6.051
	c0,18.177,5.42,33.79,14.582,45.999c13.899-4.349,24.471-16.732,25.785-32.113l1.118-13.094L128.679,288.727z"/>
<path style="fill:#D4624E;" d="M225.834,216.127c-18.385,3.904-32.502,26.83-32.502,54.536c0,30.446,17.045,51.962,38.072,51.962
	c18.003,0,33.078-15.781,37.043-39.43C265.594,251.441,250.878,225.495,225.834,216.127z"/>
<path style="opacity:0.1;enable-background:new    ;" d="M204.189,212.367c-29.086,0-54.328,17.851-67.016,44.027
	c18.921,13.053,42.883,20.82,69.532,20.82c21.796,0,41.532-5.197,58.1-14.229C256.44,233.256,235.658,212.367,204.189,212.367z"/>
<path style="fill:#BDD186;" d="M272.808,84.776h0.003c-16.472-9.91-46.872-31.025-57.036-38.132
	c-1.594-1.115-3.804-0.198-4.147,1.717l-2.435,13.593c-0.238,1.323-1.628,2.094-2.876,1.595l-27.147-10.861
	c-3.28-1.312-6.9,0.898-7.231,4.416l-1.722,18.314c-43.547,11.988-73.188,44.073-73.188,87.453
	c0,55.57,48.638,100.62,112.842,100.62s110.569-45.048,110.569-100.62C320.441,128.036,302.22,100.486,272.808,84.776z"/>
<path style="opacity:0.08;enable-background:new    ;" d="M248.32,175.912c0,18.58,16.301,32.945,34.732,30.61l28.753-3.642
	c3.873-8.492,6.525-17.587,7.787-27.102L248.32,175.912z"/>
<path style="fill:#4A5058;" d="M494.828,185.583l-225.999,9.955c-11.177,0.492-20.508-8.437-20.508-19.626l0,0
	c0-11.189,9.331-20.118,20.508-19.626l225.999,9.955c5.176,0.228,9.254,4.49,9.254,9.671l0,0
	C504.082,181.093,500.003,185.355,494.828,185.583z"/>
<path style="fill:#97B05F;" d="M133.538,329.401L133.538,329.401c-43.311-3.173-84.13-21.462-115.328-51.672l-7.843-7.593
	c-5.276-5.109-1.438-14.032,5.901-13.714l121.218,5.259c18.145,0.788,32.451,15.727,32.451,33.889l0,0
	C169.938,315.28,153.196,330.841,133.538,329.401z"/>
<g>
	<path style="fill:#4A5058;" d="M188.155,394.599c-8.745,0-15.835-7.09-15.835-15.835v-22.169c0-8.745,7.09-15.835,15.835-15.835
		s15.835,7.09,15.835,15.835v22.169C203.99,387.51,196.9,394.599,188.155,394.599z"/>
	<path style="fill:#4A5058;" d="M243.72,394.599c-8.745,0-15.835-7.09-15.835-15.835v-22.169c0-8.745,7.09-15.835,15.835-15.835
		s15.835,7.09,15.835,15.835v22.169C259.555,387.51,252.465,394.599,243.72,394.599z"/>
</g>
<path d="M291.801,148.721c4.374,0,7.917-3.544,7.917-7.917v-11.791c0-4.374-3.544-7.917-7.917-7.917s-7.917,3.544-7.917,7.917
	v11.791C283.883,145.176,287.427,148.721,291.801,148.721z M495.176,158.331l-167.526-7.38
	c-3.666-31.133-21.903-57.474-50.892-73.042c-16.425-9.897-47.342-31.389-56.444-37.754c-2.973-2.081-6.748-2.495-10.1-1.111
	c-3.354,1.385-5.739,4.345-6.378,7.916l-1.181,6.592l-20.543-8.217c-3.903-1.561-8.2-1.202-11.789,0.99
	c-3.588,2.191-5.873,5.848-6.266,10.035l-1.22,12.988c-45.629,14.53-73.723,49.941-73.723,93.521
	c0,34.417,16.967,64.613,43.953,84.36c-1.157,2.016-2.239,4.082-3.247,6.191l-113.205-4.911c-6.653-0.289-12.662,3.481-15.297,9.601
	c-2.635,6.123-1.244,13.074,3.545,17.712l7.841,7.591C44.76,314.46,86.8,333.495,131.247,337.152
	c0.387,0.686,0.771,1.378,1.176,2.049l-9.578,74.348c-1.96,15.22,2.727,30.556,12.86,42.079
	c10.133,11.524,24.746,18.132,40.092,18.132c26.767,0,49.531-20.02,52.951-46.568l3.557-27.608c3.39,1.866,7.281,2.931,11.416,2.931
	c13.098,0,23.752-10.656,23.752-23.753v-22.169c0-4.041-1.018-7.849-2.805-11.184c1.518-2.565,2.896-5.271,4.138-8.103
	c0.926,0.061,1.853,0.101,2.782,0.101c1.023,0,2.048-0.037,3.072-0.113c45.078-3.302,87.786-22.437,120.256-53.879l7.844-7.593
	c4.787-4.638,6.179-11.589,3.544-17.711c-2.634-6.121-8.623-9.866-15.297-9.601l-114.53,4.969c1.707-1.038,3.395-2.102,5.045-3.226
	c18.235-12.429,31.826-29.326,39.597-49.094l174.056-7.666c9.435-0.416,16.824-8.138,16.824-17.581
	C512,166.469,504.61,158.747,495.176,158.331z M134.117,321.506c-41.383-3.032-80.591-20.599-110.399-49.464l-7.881-7.575
	c0-0.048,0.042-0.147,0.089-0.133l121.218,5.258c13.95,0.605,24.877,12.017,24.877,25.979c0,7.308-2.947,14.072-8.301,19.047
	C148.366,319.593,141.403,322.035,134.117,321.506z M213.043,425.171c-2.406,18.674-18.418,32.755-37.246,32.755
	c-10.794,0-21.072-4.648-28.201-12.753c-7.128-8.105-10.426-18.893-9.046-29.6l7.667-59.515c5.363,4.927,11.456,9.109,18.186,12.475
	v10.232c0,13.097,10.655,23.752,23.752,23.752s23.752-10.656,23.752-23.752v-1.392c2.527-0.217,5-0.547,7.419-0.98L213.043,425.171z
	 M180.238,378.764v-22.169c0-4.366,3.551-7.917,7.917-7.917c4.366,0,7.917,3.551,7.917,7.917v22.169
	c0,4.366-3.551,7.917-7.917,7.917S180.238,383.13,180.238,378.764z M251.638,378.764c0,4.366-3.551,7.917-7.917,7.917
	s-7.917-3.551-7.917-7.917v-22.169c0-4.366,3.551-7.917,7.917-7.917s7.917,3.551,7.917,7.917V378.764z M252.591,334.567
	c-2.743-1.108-5.735-1.725-8.871-1.725c-13.098,0-23.752,10.656-23.752,23.752v3.504c-2.585,0.619-5.276,1.074-8.06,1.368v-4.871
	c0-13.097-10.655-23.753-23.752-23.753c-11.08,0-20.411,7.628-23.023,17.907c-6.371-4.141-11.838-9.32-16.254-15.389
	c5.76-1.863,11.116-4.956,15.622-9.144c8.488-7.889,13.355-19.059,13.355-30.646c0-13.197-6.072-24.972-15.628-32.643
	c14.55,5.47,30.634,8.481,47.644,8.481c16.468,0,32.243-2.815,46.695-8.247c2.932,9.59,4.486,20.354,4.486,31.618
	C261.053,310.305,258.142,323.884,252.591,334.567z M391.709,264.292c0.035,0.032,0.075,0.126,0.036,0.155l-7.844,7.593
	c-29.687,28.748-68.7,46.285-109.896,49.42c1.901-8.237,2.882-17.182,2.882-26.683c0-8.753-0.834-17.29-2.438-25.361
	L391.709,264.292z M209.872,255.573c-58.836,0-104.925-40.719-104.925-92.702c0-18.977,6.345-36.381,18.349-50.336
	c11.79-13.706,28.742-23.901,49.024-29.485c3.171-0.874,5.474-3.618,5.782-6.892l1.392-14.813l23.884,9.555
	c2.814,1.124,5.948,0.928,8.598-0.543c2.65-1.471,4.476-4.024,5.011-7.008l0.99-5.522c13.908,9.653,36.768,25.304,50.583,33.63
	c0.167,0.107,0.339,0.206,0.516,0.301c23.972,12.805,38.826,33.365,42.52,58.486l-42.42-1.869
	c-7.596-0.326-14.785,2.374-20.27,7.623c-5.485,5.25-8.505,12.322-8.505,19.913c0,7.592,3.021,14.665,8.507,19.914
	c5.183,4.96,11.893,7.648,19.016,7.648c0.416,0,0.834-0.01,1.252-0.026l34.326-1.512
	C287.393,234.871,251.903,255.573,209.872,255.573z M494.479,177.672l-225.998,9.955c-3.227,0.154-6.29-1.008-8.624-3.242
	c-2.334-2.233-3.62-5.242-3.62-8.473s1.286-6.239,3.619-8.472c2.206-2.111,5.062-3.256,8.093-3.256c0.176,0,0.355,0.004,0.532,0.013
	l225.998,9.956c0.946,0.041,1.686,0.814,1.686,1.76C496.165,176.858,495.425,177.631,494.479,177.672z M220.195,121.095
	c-4.373,0-7.917,3.544-7.917,7.917v11.791c0,4.374,3.545,7.917,7.917,7.917c4.373,0,7.917-3.544,7.917-7.917v-11.791
	C228.112,124.639,224.567,121.095,220.195,121.095z"/>
<g>
</g>
<g>
</g>
<g>
</g>
<g>
</g>
<g>
</g>
<g>
</g>
<g>
</g>
<g>
</g>
<g>
</g>
<g>
</g>
<g>
</g>
<g>
</g>
<g>
</g>
<g>
</g>
<g>
</g>
</svg>
