<?xml version="1.0" encoding="iso-8859-1"?>
<!-- Generator: Adobe Illustrator 19.0.0, SVG Export Plug-In . SVG Version: 6.00 Build 0)  -->
<svg version="1.1" id="Layer_1" xmlns="http://www.w3.org/2000/svg" xmlns:xlink="http://www.w3.org/1999/xlink" x="0px" y="0px"
	 viewBox="0 0 511.998 511.998" style="enable-background:new 0 0 511.998 511.998;" xml:space="preserve">
<path style="fill:#F8ECC8;" d="M55.267,407.209c-16.923,0-29.619-4.932-37.737-14.658c-6.464-7.745-9.606-18.058-9.606-31.528
	c0-9.02,7.313-16.333,16.333-16.333s16.332,7.313,16.332,16.333c0,7.115,1.266,9.694,2.019,10.598
	c1.528,1.831,6.259,2.924,12.658,2.924c9.02,0,16.333,7.313,16.333,16.332C71.601,399.898,64.288,407.209,55.267,407.209z"/>
<path style="opacity:0.05;enable-background:new    ;" d="M55.267,374.544c-6.399,0-11.13-1.093-12.658-2.924
	c-0.754-0.903-2.019-3.483-2.019-10.598c0-3.568-1.158-6.86-3.099-9.547c-6.304,15.011-10.52,31.116-12.287,47.95
	c7.701,5.163,17.759,7.783,30.064,7.783c9.02,0,16.333-7.313,16.333-16.333C71.601,381.857,64.288,374.544,55.267,374.544z"/>
<path style="fill:#6E614F;" d="M313.735,415.451v-23.177c0-11.661-9.453-21.113-21.113-21.113l0,0
	c-11.661,0-21.113,9.453-21.113,21.113v41.207c0,12.256,9.935,22.191,22.192,22.191h30.141c8.317,0,15.058-6.741,15.058-15.058l0,0
	c0-8.317-6.741-15.058-15.058-15.058l0,0C318.26,425.558,313.735,421.033,313.735,415.451z"/>
<path style="fill:#F8E9B4;" d="M228.249,441.969H60.57c-13.551,0-24.537-10.986-24.537-24.537l0,0
	c0-94.152,76.325-170.477,170.477-170.477h124.054v92.698C330.565,396.16,284.757,441.969,228.249,441.969z"/>
<path style="opacity:0.05;enable-background:new    ;" d="M206.511,246.955c-34.377,0-66.37,10.185-93.147,27.688
	c2.561,35.591,29.539,64.404,64.278,69.778c6.923,1.07,13.456,3.961,19.011,8.23c28.11,21.599,65.188,34.731,105.832,34.731
	c5.621,0,11.175-0.251,16.646-0.742c7.292-14.074,11.436-30.042,11.436-46.986v-92.698H206.511V246.955z"/>
<path style="fill:#7D7060;" d="M84.682,303.119c-1.625,0-3.23,0.083-4.822,0.209C56.2,329.571,40.58,363.201,36.883,400.343
	c11.04,14.296,28.337,23.514,47.798,23.514c33.341,0,60.369-27.028,60.369-60.369C145.05,330.146,118.022,303.119,84.682,303.119z"
	/>
<g>
	<path style="fill:#6E614F;" d="M118.905,418.283l3.091-28.971c1.612-15.113-10.233-28.288-25.432-28.288l0,0
		c-31.871,0-60.208,20.279-70.492,50.444l0,0c-7.392,21.683,8.726,44.207,31.634,44.207h92.207c3.596,0,6.511-2.915,6.511-6.511l0,0
		c0-13.037-10.568-23.605-23.605-23.605h-7.373C121.536,425.558,118.49,422.169,118.905,418.283z"/>
	<path style="fill:#6E614F;" d="M227.779,415.451v-23.177c0-11.661-9.452-21.113-21.113-21.113l0,0
		c-11.661,0-21.113,9.453-21.113,21.113v41.207c0,12.256,9.935,22.191,22.192,22.191h30.141c8.317,0,15.058-6.741,15.058-15.058l0,0
		c0-8.317-6.741-15.058-15.058-15.058l0,0C232.305,425.558,227.779,421.033,227.779,415.451z"/>
</g>
<ellipse style="fill:#F8E9B4;" cx="314.735" cy="238.245" rx="159" ry="136.885"/>
<path style="fill:#EDBCB9;" d="M348.206,315.197c0,18.484-14.985,33.469-33.469,33.469s-33.469-14.985-33.469-33.469v-44.671h66.939
	V315.197z"/>
<path style="opacity:0.15;enable-background:new    ;" d="M314.737,319.925c-4.376,0-7.925-3.548-7.925-7.925v-37.133
	c0-4.377,3.548-7.925,7.925-7.925s7.925,3.548,7.925,7.925v37.133C322.661,316.377,319.113,319.925,314.737,319.925z"/>
<path style="opacity:0.1;enable-background:new    ;" d="M473.147,226.469c-0.032-0.018-0.063-0.038-0.095-0.056
	c-0.076-1.06-0.17-2.115-0.267-3.169c-8.681-68.537-76.124-121.879-158.048-121.879c-81.92,0-149.36,53.336-158.047,121.868
	c-0.097,1.058-0.191,2.115-0.268,3.178c-0.033,0.018-0.063,0.038-0.095,0.057c-0.385,3.883-0.593,7.809-0.593,11.778
	c0,48.225,28.974,90.622,72.748,115.003c28.139-5.923,52.916-20.96,71.103-41.89c7.95-9.149,22.353-9.149,30.303,0
	c18.187,20.929,42.964,35.966,71.103,41.89c43.775-24.383,72.748-66.778,72.748-115.003
	C473.739,234.278,473.532,230.352,473.147,226.469z"/>
<path style="fill:#F8E9B4;" d="M473.052,203.462c-5.941-82.252-74.548-147.138-158.315-147.138s-152.373,64.886-158.315,147.138
	c-18.528,10.584-31.024,30.517-31.024,53.382l0,0c0,42.112,34.138,76.249,76.249,76.249l0,0c39.108,0,74.157-17.313,97.939-44.682
	c7.95-9.149,22.353-9.149,30.303,0c23.782,27.371,58.831,44.682,97.939,44.682l0,0c42.112,0,76.249-34.138,76.249-76.249l0,0
	C504.076,233.979,491.579,214.045,473.052,203.462z"/>
<path style="fill:#7D7060;" d="M291.471,58.018c-72.882,10.706-129.658,70.94-135.047,145.422
	c17.882,17.392,42.28,28.12,69.196,28.12c54.829,0,99.277-44.448,99.277-99.277C324.896,102.728,311.966,76.205,291.471,58.018z"/>
<path style="opacity:0.1;enable-background:new    ;" d="M231.68,79.764c-38.089,23.433-65.52,62.502-73.373,108.263
	c1.218,0.217,2.451,0.403,3.714,0.518l0,0c19.16,1.746,37.391-8.587,45.735-25.924l26.142-54.312
	C238.618,98.503,237.182,87.775,231.68,79.764z"/>
<g>
	<path style="fill:#6E614F;" d="M157.974,174.052L157.974,174.052c-28.066-5.989-41.525-38.153-26.089-62.346l10.219-16.014
		c16.327-25.588,46.826-38.351,76.512-32.017l0,0c18.79,4.009,27.801,25.544,17.466,41.74l-31.296,49.048
		C194.796,170.118,176.136,177.926,157.974,174.052z"/>
	<path style="fill:#6E614F;" d="M471.5,174.052L471.5,174.052c28.066-5.989,41.525-38.153,26.089-62.346L487.37,95.692
		c-16.327-25.588-46.826-38.351-76.512-32.017l0,0c-18.79,4.009-27.801,25.544-17.466,41.74l31.296,49.048
		C434.678,170.118,453.338,177.926,471.5,174.052z"/>
</g>
<path style="fill:#4A5058;" d="M346.557,242.594l-7.407,8.821c-12.74,15.173-36.088,15.173-48.827,0l-7.407-8.821
	c-3.816-4.545-0.585-11.476,5.35-11.476h52.942C347.141,231.117,350.372,238.049,346.557,242.594z"/>
<path d="M480.609,198.803c-0.596-6.122-1.542-12.226-2.813-18.255c13.628-4.341,24.789-14.445,30.371-27.784
	c6.204-14.829,4.747-31.77-3.898-45.322l-10.219-16.014c-18.008-28.221-52.106-42.49-84.845-35.503
	c-7.287,1.555-13.785,5.349-18.697,10.691c-23.347-11.926-49.391-18.217-75.771-18.217s-52.424,6.291-75.771,18.217
	c-4.912-5.342-11.409-9.136-18.697-10.691c-32.741-6.985-66.837,7.281-84.846,35.503l-10.219,16.014
	c-8.646,13.55-10.103,30.492-3.899,45.32c5.582,13.339,16.744,23.443,30.371,27.784c-1.271,6.029-2.217,12.133-2.813,18.255
	c-19.464,12.765-31.391,34.63-31.391,58.041c0,1.967,0.092,3.914,0.226,5.847c-21.725,12.509-40.883,29.718-55.631,50.032
	c-7.48,10.302-13.82,21.43-18.934,33.089c-4.45-5.512-11.257-9.047-18.876-9.047C10.882,336.766,0,347.648,0,361.022
	c0,15.403,3.745,27.378,11.446,36.608c2.448,2.933,5.273,5.518,8.43,7.744c-0.458,1.167-0.897,2.343-1.305,3.538
	c-4.359,12.785-2.35,26.418,5.51,37.402c7.861,10.986,20.117,17.285,33.625,17.285h92.207c7.713,0,14.014-6.085,14.399-13.704
	h18.201c5.379,8.242,14.677,13.704,25.232,13.704h30.141c11.137,0,20.446-7.963,22.539-18.494c1.643-0.5,3.269-1.034,4.878-1.606
	c4.138,11.696,15.302,20.1,28.397,20.1h30.14c12.673,0,22.983-10.309,22.983-22.983c0-12.673-10.31-22.982-22.983-22.982
	c-1.202,0-2.182-0.978-2.182-2.182v-17.199c3.129-4.995,5.871-10.271,8.194-15.79c38.84-2.988,74.753-17.471,102.65-41.583
	c44.246-2.437,79.496-39.194,79.496-84.037C512,233.433,500.073,211.568,480.609,198.803z M398.514,83.034
	c2.518-6.016,7.619-10.248,13.998-11.609c4.455-0.951,8.937-1.412,13.385-1.412c21.828,0,42.771,11.102,54.791,29.94l10.219,16.014
	c5.94,9.31,6.902,20.491,2.639,30.678c-4.262,10.187-12.901,17.351-23.701,19.655c-14.849,3.169-30.31-3.303-38.477-16.101
	l-31.297-49.048C396.564,95.654,395.996,89.05,398.514,83.034z M135.926,146.645c-4.262-10.187-3.301-21.368,2.639-30.677
	l10.219-16.014c14.469-22.677,41.864-34.145,68.177-28.529c6.379,1.361,11.48,5.592,13.998,11.609
	c2.518,6.016,1.949,12.62-1.559,18.119l-31.297,49.048c-8.167,12.799-23.629,19.268-38.477,16.101
	C148.829,163.996,140.189,156.832,135.926,146.645z M27.194,391.028c-1.305-1.084-2.504-2.266-3.579-3.553
	c-5.226-6.262-7.766-14.914-7.766-26.451c0-4.636,3.772-8.408,8.409-8.408s8.409,3.772,8.409,8.408
	c0,4.503,0.442,8.048,1.346,10.867c-1.201,4.54-2.213,9.127-3.045,13.744C29.642,387.376,28.383,389.174,27.194,391.028z
	 M57.706,447.749c-8.33,0-15.887-3.885-20.735-10.659s-6.086-15.182-3.399-23.066c9.192-26.962,34.506-45.076,62.992-45.076
	c5.073,0,9.735,2.077,13.125,5.85c3.392,3.772,4.963,8.628,4.425,13.673l-3.091,28.971v0.001c-0.435,4.085,0.89,8.179,3.636,11.234
	c2.746,3.055,6.676,4.806,10.783,4.806h7.374c8.17,0,14.9,6.281,15.617,14.266H57.706z M237.886,447.749h-30.141
	c-7.867,0-14.268-6.4-14.268-14.267v-41.207c0-7.272,5.917-13.189,13.189-13.189c7.272,0,13.188,5.917,13.188,13.189v23.177
	c0,9.943,8.088,18.031,18.031,18.031c3.934,0,7.133,3.199,7.133,7.133C245.019,444.549,241.82,447.749,237.886,447.749z
	 M257.872,429.289c-3.956-6.953-11.429-11.656-19.985-11.656c-1.203,0-2.182-0.978-2.182-2.182v-23.177
	c0-16.012-13.026-29.038-29.037-29.038c-16.012,0-29.038,13.026-29.038,29.038v41.207c0,0.188,0.011,0.374,0.015,0.562h-17.166
	c-5.362-9.772-15.749-16.411-27.66-16.411h-5.875l2.931-27.482c1.007-9.436-2.055-18.893-8.398-25.951
	c-6.344-7.056-15.425-11.103-24.913-11.103c-16.067,0-31.311,4.667-44.231,12.891c11.949-35.572,36.18-66.477,68.25-86.535
	c9.502,34.02,39.869,59.416,76.386,61.426c30.868,26.68,71.549,41.57,115.15,42.144C300.81,404.925,281.379,421.549,257.872,429.289
	z M323.841,433.482c3.934,0,7.133,3.199,7.133,7.133c0,3.934-3.201,7.133-7.133,7.133h-30.14c-6.621,0-12.187-4.54-13.789-10.665
	c9.629-5.097,18.406-11.585,26.079-19.215C307.179,426.669,314.721,433.482,323.841,433.482z M314.737,367.204
	c-34.443,0-66.919-9.7-93.417-27.61c18.645-2.693,36.462-9.18,52.389-18.975c2.666,20.27,20.041,35.971,41.027,35.971
	s38.362-15.701,41.027-35.971c15.927,9.795,33.744,16.281,52.389,18.975C381.655,357.503,349.178,367.204,314.737,367.204z
	 M289.192,315.197v-5.638c5.845-4.82,11.329-10.145,16.374-15.951c2.284-2.628,5.627-4.136,9.169-4.136
	c3.544,0,6.886,1.508,9.17,4.136c5.045,5.806,10.529,11.13,16.374,15.951v5.638c0,14.086-11.459,25.545-25.545,25.545
	C300.652,340.741,289.192,329.282,289.192,315.197z M427.827,325.168c-35.271,0-68.789-15.292-91.957-41.956
	c-5.295-6.094-12.997-9.589-21.133-9.589c-8.135,0-15.838,3.495-21.133,9.589c-23.168,26.664-56.685,41.956-91.957,41.956
	c-37.674,0-68.324-30.65-68.324-68.324c0-19.159,10.357-36.977,27.03-46.502c2.293-1.31,3.783-3.676,3.973-6.31
	c0.511-7.074,1.535-14.144,3.045-21.096c17.574-0.076,34.414-9.037,44.096-24.21l31.297-49.048
	c5.581-8.748,7.005-19.448,4.054-29.271c20.956-10.578,44.285-16.158,67.92-16.158s46.963,5.58,67.919,16.158
	c-2.951,9.823-1.527,20.525,4.054,29.271l31.297,49.048c9.682,15.174,26.52,24.134,44.095,24.21
	c1.509,6.953,2.534,14.022,3.045,21.097c0.19,2.634,1.68,5,3.973,6.31c16.672,9.524,27.03,27.343,27.03,46.501
	C496.151,294.518,465.501,325.168,427.827,325.168z M244.842,172.269c-4.376,0-7.925,3.548-7.925,7.925v11.801
	c0,4.377,3.548,7.925,7.925,7.925c4.377,0,7.925-3.548,7.925-7.925v-11.801C252.766,175.816,249.218,172.269,244.842,172.269z
	 M341.207,223.192h-52.942c-5.86,0-11.038,3.3-13.514,8.611c-2.476,5.312-1.672,11.399,2.096,15.885l7.406,8.821
	c7.581,9.03,18.692,14.208,30.483,14.208c11.791,0,22.901-5.178,30.482-14.208l7.406-8.821c3.769-4.487,4.572-10.575,2.096-15.886
	C352.246,226.492,347.068,223.192,341.207,223.192z M333.082,246.318c-4.562,5.434-11.249,8.551-18.345,8.551
	s-13.783-3.117-18.345-8.551l-6.109-7.277h48.91L333.082,246.318z M384.632,172.269c-4.377,0-7.925,3.548-7.925,7.925v11.801
	c0,4.377,3.548,7.925,7.925,7.925c4.376,0,7.925-3.548,7.925-7.925v-11.801C392.557,175.816,389.009,172.269,384.632,172.269z"/>
<g>
</g>
<g>
</g>
<g>
</g>
<g>
</g>
<g>
</g>
<g>
</g>
<g>
</g>
<g>
</g>
<g>
</g>
<g>
</g>
<g>
</g>
<g>
</g>
<g>
</g>
<g>
</g>
<g>
</g>
</svg>
