<?xml version="1.0" encoding="iso-8859-1"?>
<!-- Generator: Adobe Illustrator 19.0.0, SVG Export Plug-In . SVG Version: 6.00 Build 0)  -->
<svg version="1.1" id="Layer_1" xmlns="http://www.w3.org/2000/svg" xmlns:xlink="http://www.w3.org/1999/xlink" x="0px" y="0px"
	 viewBox="0 0 512.002 512.002" style="enable-background:new 0 0 512.002 512.002;" xml:space="preserve">
<path style="fill:#F4B759;" d="M8.235,200.593l5.407,33.007c7.45,45.488,38.866,83.418,82.17,99.21l42.052,15.335
	c12.81,4.671,25.852-6.332,23.405-19.745l-8.159-44.725c-4.692-25.721-23.054-46.828-47.877-55.037l0,0
	c-21.81-7.213-41.753-19.166-58.395-34.999l-9.089-8.647C25.517,173.355,5.506,183.934,8.235,200.593z"/>
<path style="fill:#E8E8E8;" d="M46.836,193.637l-9.089-8.647c-12.231-11.636-32.241-1.057-29.512,15.602l5.407,33.007
	c0.862,5.268,2.061,10.43,3.548,15.472c20.333-3.837,40.861-13.578,55.537-35.55C63.453,207.834,54.767,201.182,46.836,193.637z"/>
<path style="opacity:0.05;enable-background:new    ;" d="M161.268,328.399l-7.289-39.95c-24.15,5.659-43.56,23.589-51.302,46.864
	l35.186,12.831C150.673,352.816,163.715,341.813,161.268,328.399z"/>
<rect x="268.276" y="370.637" style="fill:#F4B759;" width="40.441" height="47.306"/>
<path style="fill:#4A5058;" d="M311.896,417.951h-43.622v19.489c0,5.882,4.769,10.651,10.651,10.651h46.83
	c4.495,0,8.14-3.645,8.14-8.14l0,0C333.897,427.8,324.047,417.951,311.896,417.951z"/>
<path style="opacity:0.15;enable-background:new    ;" d="M311.896,417.951h-3.181v-47.308h-40.441v66.797
	c0,5.882,4.769,10.651,10.651,10.651h46.83c4.495,0,8.14-3.645,8.14-8.14C333.897,427.8,324.047,417.951,311.896,417.951z"/>
<path style="fill:#F4B759;" d="M186.698,287.696c-39.357,0-71.262,31.905-71.262,71.261v58.993h40.441v-31.054h48.509v31.054h40.441
	v-31.054h19.928c39.799,0,72.062-32.264,72.062-72.062v-27.138H186.698z"/>
<path style="opacity:0.05;enable-background:new    ;" d="M192.064,287.696c25.184,41.543,74.72,73.809,116.488,84.349
	c17.179-13.171,28.266-33.891,28.266-57.211v-27.138H192.064z"/>
<path style="fill:#4A5058;" d="M316.145,137.276l-114.931,54.863l-1.826-15.86c-3.733-32.429-3.013-65.216,2.141-97.45l0,0
	c1.958-12.243,15.564-18.738,26.314-12.561l0,0c28.304,16.263,54.25,36.321,77.117,59.616L316.145,137.276z"/>
<path style="fill:#EDBCB9;" d="M286.908,146.641c-14.215-15.786-30.118-29.6-47.267-41.06l0,0
	c-6.514-4.352-14.25-0.659-14.961,7.142l0,0c-1.875,20.539-1.134,41.592,2.202,62.571l0.678,4.269l62.24-29.711L286.908,146.641z"/>
<path style="fill:#4A5058;" d="M373.077,137.276l114.931,54.863l1.826-15.86c3.732-32.429,3.013-65.216-2.141-97.45l0,0
	c-1.958-12.243-15.564-18.738-26.314-12.561l0,0c-28.304,16.263-54.25,36.321-77.117,59.616L373.077,137.276z"/>
<path style="fill:#EDBCB9;" d="M402.314,146.641c14.215-15.786,30.118-29.6,47.267-41.06l0,0c6.514-4.352,14.25-0.659,14.961,7.142
	l0,0c1.875,20.539,1.134,41.592-2.202,62.571l-0.679,4.269l-62.24-29.711L402.314,146.641z"/>
<path style="fill:#F4B759;" d="M344.611,128.178c89.432,0,171.618,43.503,157.925,108.77
	c-14.362,68.459-103.113,123.676-157.925,123.676s-143.563-55.217-157.925-123.676C172.993,171.679,255.179,128.178,344.611,128.178
	z"/>
<path style="fill:#E8E8E8;" d="M344.611,297.109c-48.445,0-119.7-17.187-158.384-62.609c0.142,0.813,0.287,1.627,0.46,2.446
	c14.362,68.459,103.113,123.676,157.925,123.676s143.563-55.217,157.925-123.676c0.172-0.82,0.318-1.634,0.46-2.446
	C464.311,279.922,393.056,297.109,344.611,297.109z"/>
<g>
	<path style="fill:#4A5058;" d="M371.113,283.634l-6.169,7.346c-10.611,12.637-30.056,12.637-40.666,0l-6.169-7.346
		c-3.179-3.785-0.488-9.558,4.455-9.558h44.092C371.6,274.076,374.29,279.849,371.113,283.634z"/>
	<path style="fill:#4A5058;" d="M159.057,417.951h-43.622v19.489c0,5.882,4.769,10.651,10.651,10.651h46.83
		c4.495,0,8.14-3.645,8.14-8.14l0,0C181.057,427.8,171.207,417.951,159.057,417.951z"/>
	<path style="fill:#4A5058;" d="M248.007,417.951h-43.622v19.489c0,5.882,4.769,10.651,10.651,10.651h46.83
		c4.495,0,8.14-3.645,8.14-8.14l0,0C270.007,427.8,260.157,417.951,248.007,417.951z"/>
</g>
<path d="M497.495,179.54l0.27-2.348c3.816-33.152,3.08-66.67-2.189-99.625c-1.334-8.34-6.681-15.494-14.305-19.132
	c-7.624-3.638-16.549-3.3-23.871,0.909c-28.937,16.626-55.461,37.132-78.836,60.945l-1.726,1.756
	c-10.566-1.22-21.354-1.854-32.229-1.854c-10.874,0-21.661,0.634-32.228,1.854l-1.724-1.756
	c-23.379-23.816-49.905-44.321-78.839-60.945c-7.324-4.208-16.248-4.55-23.872-0.909c-7.623,3.638-12.971,10.791-14.304,19.132
	c-5.267,32.952-6.005,66.47-2.19,99.625l0.27,2.348c-12.812,17.713-17.264,38.025-12.854,59.044
	c2.926,13.949,8.804,27.805,17.292,41.127h-9.467c-8.895,0-17.442,1.495-25.43,4.209l-0.307-1.68
	c-5.218-28.609-25.614-52.054-53.223-61.185c-20.557-6.799-39.714-18.281-55.399-33.204l-9.089-8.647
	c-8.1-7.705-19.72-9.306-29.601-4.083c-9.883,5.225-15.101,15.729-13.293,26.76l5.407,33.007
	c7.906,48.269,41.363,88.664,87.313,105.42l15.462,5.639c-0.703,4.236-1.087,8.578-1.087,13.01v78.482
	c0,10.275,8.361,18.635,18.635,18.635h46.83c8.89,0,16.123-7.233,16.123-16.123c0-14.899-10.923-27.288-25.18-29.595V394.88h32.545
	v42.56c0,10.275,8.361,18.635,18.635,18.635h46.83c2.991,0,5.784-0.833,8.188-2.259c2.679,1.452,5.714,2.259,8.871,2.259h46.83
	c8.891,0,16.123-7.233,16.123-16.124c0-14.898-10.923-27.287-25.18-29.594v-34.585c3.182-2.729,6.174-5.725,8.944-8.979
	c6.618,1.187,12.986,1.815,18.967,1.815c28.899,0,66.764-14.44,98.818-37.686c36.166-26.228,59.931-59.019,66.919-92.334
	C514.759,217.566,510.307,197.255,497.495,179.54z M465.355,73.19c2.816-1.617,6.109-1.743,9.038-0.344
	c2.929,1.398,4.902,4.038,5.415,7.243c4.423,27.665,5.503,55.744,3.234,83.637c-13.258-11.773-30.69-21.702-51.296-29.116
	c-11.138-4.008-22.988-7.203-35.29-9.564C417.191,104.998,440.326,87.572,465.355,73.19z M209.414,80.089
	c0.511-3.205,2.486-5.844,5.414-7.243c2.929-1.398,6.224-1.272,9.039,0.344c25.028,14.381,48.163,31.807,68.9,51.856
	c-12.302,2.361-24.153,5.557-35.291,9.564c-20.605,7.413-38.038,17.343-51.296,29.116
	C203.911,135.832,204.991,107.753,209.414,80.089z M112.761,330.493l-14.214-5.184c-40.537-14.783-70.052-50.418-77.026-92.999
	l-5.407-33.007c-1.038-6.337,3.564-9.305,4.999-10.064c1.438-0.758,6.483-2.889,11.131,1.535l9.089,8.647
	c17.383,16.538,38.611,29.262,61.393,36.796c22.063,7.296,38.358,26.029,42.529,48.891l1.042,5.713
	C131.113,299.859,119.201,313.822,112.761,330.493z M173.073,439.951c0,0.086-0.07,0.155-0.155,0.155h-46.83
	c-1.471,0-2.668-1.197-2.668-2.668v-11.506h35.638C166.786,425.933,173.073,432.222,173.073,439.951z M261.867,440.107h-46.83
	c-1.471,0-2.668-1.197-2.668-2.668v-11.506h35.638c7.729,0,14.016,6.288,14.016,14.017
	C262.023,440.037,261.953,440.107,261.867,440.107z M252.81,410.357V394.88h7.48v17.73
	C257.941,411.549,255.434,410.78,252.81,410.357z M264.755,378.913h-19.928c-4.41,0-7.984,3.573-7.984,7.984v23.071h-24.474v-23.071
	c0-4.41-3.574-7.984-7.984-7.984h-48.508c-4.41,0-7.984,3.573-7.984,7.984v23.071H123.42v-51.008
	c0-34.891,28.387-63.278,63.278-63.278h21.101c10.37,12.575,23.133,24.463,37.993,35.24c19.594,14.21,41.357,25.12,61.917,31.462
	C296.038,372.99,280.927,378.913,264.755,378.913z M300.733,386.418v23.549h-24.474v-15.9
	C284.866,392.842,293.11,390.252,300.733,386.418z M325.912,439.95c0,0.086-0.069,0.156-0.155,0.156h-46.83
	c-0.345,0-0.656-0.068-0.936-0.175c-0.002-3.511-0.615-6.88-1.731-10.014v-3.984h35.638
	C319.625,425.933,325.912,432.221,325.912,439.95z M494.722,235.307c-6.085,29-28.196,59.139-60.668,82.687
	c-29.467,21.371-63.74,34.646-89.443,34.646c-25.703,0-59.977-13.275-89.443-34.646c-32.471-23.548-54.583-53.687-60.668-82.687
	c-3.77-17.973,0.475-34.669,12.62-49.626c24.426-30.083,78.394-49.52,137.491-49.52s113.065,19.438,137.491,49.52
	C494.247,200.638,498.492,217.334,494.722,235.307z M371.058,296.114l6.169-7.346v-0.001c3.487-4.154,4.231-9.788,1.938-14.705
	c-2.291-4.916-7.084-7.97-12.509-7.97h-44.091c-5.425,0-10.218,3.054-12.509,7.97c-2.292,4.917-1.549,10.551,1.938,14.706
	l6.169,7.346c4.829,5.75,11.31,9.691,18.46,11.386v10.196c0,3.218-2.618,5.836-5.836,5.836c-3.217,0-5.834-2.618-5.834-5.836
	c0-4.41-3.574-7.984-7.984-7.984c-4.41,0-7.984,3.574-7.984,7.984c0,12.022,9.781,21.803,21.802,21.803
	c5.241,0,10.055-1.859,13.819-4.951c3.764,3.092,8.58,4.951,13.819,4.951c12.022,0,21.803-9.782,21.803-21.803
	c0-4.41-3.573-7.984-7.984-7.984c-4.41,0-7.984,3.574-7.984,7.984c0,3.218-2.618,5.836-5.836,5.836
	c-3.218,0-5.836-2.618-5.836-5.836v-10.195C359.745,305.808,366.229,301.867,371.058,296.114z M344.611,292.474
	c-5.499,0-10.681-2.416-14.217-6.629l-3.181-3.787h34.798l-3.181,3.787C355.293,290.058,350.111,292.474,344.611,292.474z
	 M413.437,229.478c-4.41,0-7.984,3.574-7.984,7.984v11.889c0,4.41,3.573,7.984,7.984,7.984c4.41,0,7.984-3.574,7.984-7.984v-11.889
	C421.421,233.051,417.847,229.478,413.437,229.478z M275.78,229.478c-4.41,0-7.984,3.574-7.984,7.984v11.889
	c0,4.41,3.574,7.984,7.984,7.984c4.41,0,7.984-3.574,7.984-7.984v-11.889C283.764,233.051,280.189,229.478,275.78,229.478z"/>
<g>
</g>
<g>
</g>
<g>
</g>
<g>
</g>
<g>
</g>
<g>
</g>
<g>
</g>
<g>
</g>
<g>
</g>
<g>
</g>
<g>
</g>
<g>
</g>
<g>
</g>
<g>
</g>
<g>
</g>
</svg>
