<?xml version="1.0" encoding="iso-8859-1"?>
<!-- Generator: Adobe Illustrator 19.0.0, SVG Export Plug-In . SVG Version: 6.00 Build 0)  -->
<svg version="1.1" id="Layer_1" xmlns="http://www.w3.org/2000/svg" xmlns:xlink="http://www.w3.org/1999/xlink" x="0px" y="0px"
	 viewBox="0 0 512 512" style="enable-background:new 0 0 512 512;" xml:space="preserve">
<path style="fill:#F4B759;" d="M40.793,360.509c0-9.074-7.355-16.428-16.428-16.428s-16.427,7.356-16.427,16.428
	c0,9.074,7.355,27.656,16.428,27.656S40.793,369.583,40.793,360.509z"/>
<path style="fill:#F7DA70;" d="M348.856,444.362v-99.538h-56.868v121.616c0,9.585,7.77,17.353,17.353,17.353h63.322
	c4.315,0,7.811-3.498,7.811-7.811l0,0c0-15.19-12.314-27.504-27.504-27.504l0,0C350.697,448.477,348.856,446.635,348.856,444.362z"
	/>
<path style="opacity:0.1;enable-background:new    ;" d="M348.856,444.362v-99.538h-56.868v121.616
	c0,9.585,7.77,17.353,17.353,17.353h63.322c4.315,0,7.811-3.498,7.811-7.811l0,0c0-15.19-12.314-27.504-27.504-27.504l0,0
	C350.697,448.477,348.856,446.635,348.856,444.362z"/>
<path style="fill:#F7DA70;" d="M139.294,281.687c-38.394,0-69.518,31.125-69.518,69.518v115.234c0,9.585,7.77,17.353,17.353,17.353
	h63.322c4.315,0,7.811-3.498,7.811-7.811l0,0c0-15.19-12.314-27.504-27.504-27.504c-2.273,0-4.116-1.842-4.116-4.116v-25.293h58.884
	v47.371c0,9.585,7.77,17.353,17.353,17.353h63.322c4.314,0,7.811-3.498,7.811-7.811l0,0c0-15.19-12.314-27.504-27.504-27.504
	c-2.273,0-4.116-1.842-4.116-4.116V419.07h40.841c36.24,0,65.62-29.378,65.62-65.62v-71.762h-209.56V281.687z"/>
<path style="opacity:0.05;enable-background:new    ;" d="M139.294,281.687c-1.187,0-2.368,0.031-3.541,0.09
	c5.739,7.666,12.678,15.068,21.002,22.071c0.496,34.798,46.519,74.318,98.282,65.626c7.174,18.23,43.614,28.729,78.357,26.265
	c9.64-11.422,15.46-26.173,15.46-42.289v-71.762H139.294V281.687z"/>
<path style="fill:#F7DA70;" d="M405.679,83.137c21.198-21.198,55.568-21.198,76.767,0c21.199,21.199,21.199,55.568,0,76.768
	c-10.069,10.069-24.594,7.273-37.07,1.563c-18.216-8.338-32.922-23.044-41.26-41.26C398.406,107.732,395.61,93.206,405.679,83.137z"
	/>
<path style="opacity:0.1;enable-background:new    ;" d="M402.801,108.5c14.99-14.989,39.293-14.989,54.283,0
	c14.99,14.989,14.99,39.292,0,54.283c-0.827,0.827-1.699,1.518-2.602,2.11c-3.092-0.893-6.156-2.076-9.104-3.426
	c-18.216-8.338-32.922-23.044-41.26-41.26c-1.349-2.948-2.534-6.012-3.426-9.104C401.283,110.199,401.974,109.327,402.801,108.5z"/>
<path style="fill:#F4AC3B;" d="M467.407,121.998l0.001-0.001c-1.41-32.221-30.375-51.849-43.618-56.484
	c-15.231-30.137-82.745-38.389-104.96-30.137c-20.973-13.368-118.853-13.956-138.059,50.637
	c-28.51,4.049-101.407,127.729-10.444,204.265c0.496,34.797,46.519,74.318,98.282,65.626c12.79,32.503,118.617,40.439,141.98-5.877
	v-0.001c47.463-30.317,78.936-83.46,78.936-143.956C489.524,175.502,481.481,146.815,467.407,121.998z"/>
<path style="fill:#F4B759;" d="M467.407,121.998l0.001-0.001c-1.41-32.221-30.375-51.849-43.618-56.484
	c-15.231-30.137-82.745-38.389-104.96-30.137c-20.973-13.368-118.853-13.956-138.059,50.637
	c-28.51,4.049-101.407,127.729-10.444,204.265c0.496,34.797,46.519,74.318,98.282,65.626c12.79,32.503,118.617,40.439,141.98-5.877
	v-0.001c47.463-30.317,78.936-83.46,78.936-143.956C489.524,175.502,481.481,146.815,467.407,121.998z"/>
<path style="opacity:0.1;enable-background:new    ;" d="M479.029,236.794h-14.842c-0.159-45.828-33.553-91.235-99.904-91.235
	c-66.51,0-99.908,45.624-99.908,91.564s44.73,83.183,99.908,83.183h72.837c3.104,0,6.153-0.234,9.136-0.67
	c20.132-22.573,34.347-50.529,40.235-81.44C484.172,237.303,481.663,236.794,479.029,236.794z"/>
<path style="opacity:0.1;enable-background:new    ;" d="M232.763,89.312c-12.617-12.617-29.428-18.471-45.945-17.58
	c-2.466,4.362-4.512,9.11-6.05,14.28c-13.225,1.878-35.994,29.507-47.535,66.224c2.909,8.186,7.632,15.87,14.184,22.421
	c11.194,11.194,27.342,8.086,41.212,1.738c20.251-9.27,36.6-25.618,45.87-45.87C240.849,116.654,243.957,100.506,232.763,89.312z"/>
<path style="fill:#F7DA70;" d="M234.605,83.137c-21.198-21.198-55.568-21.198-76.766,0c-21.198,21.199-21.198,55.568,0,76.768
	c10.069,10.069,24.594,7.273,37.07,1.563c18.216-8.338,32.922-23.044,41.26-41.26C241.878,107.732,244.674,93.206,234.605,83.137z"
	/>
<path style="opacity:0.1;enable-background:new    ;" d="M237.483,108.5c-14.99-14.989-39.293-14.989-54.283,0
	c-14.99,14.989-14.99,39.292,0,54.283c0.827,0.827,1.699,1.518,2.602,2.11c3.092-0.893,6.156-2.076,9.104-3.426
	c18.216-8.338,32.922-23.044,41.26-41.26c1.35-2.948,2.533-6.012,3.426-9.104C239.001,110.199,238.31,109.327,237.483,108.5z"/>
<path style="fill:#F7DA70;" d="M483.262,218.953H468.42c-0.159-45.828-33.553-91.234-99.904-91.234
	c-66.51,0-99.908,45.624-99.908,91.564s44.73,83.183,99.908,83.183h72.837c34.634,0,62.711-28.077,62.711-62.711l0,0
	C504.063,228.266,494.75,218.953,483.262,218.953z"/>
<path style="fill:#EDBCB9;" d="M492.522,265.255c0-12.387-4.019-22.429-33.976-22.429c-29.957,0-33.976,10.042-33.976,22.429
	c0,12.387,13.581,22.429,33.976,22.429S492.522,277.642,492.522,265.255z"/>
<path style="fill:#D46D59;" d="M446.521,265.909c-9.303,0-16.246,1.302-21.399,3.574c2.719,10.365,15.41,18.201,33.424,18.201
	c8.061,0,15.052-1.574,20.565-4.236C473.9,273.166,461.276,265.909,446.521,265.909z"/>
<path style="fill:#4A5058;" d="M487.027,229.225l-6.629,7.896c-11.403,13.581-32.301,13.581-43.704,0l-6.629-7.896
	c-3.416-4.068-0.524-10.273,4.788-10.273h47.387C487.551,218.954,490.443,225.157,487.027,229.225z"/>
<path d="M425.308,190.667c0-1.81,1.472-3.281,3.282-3.281c1.81,0,3.282,1.472,3.282,3.281c0,4.383,3.553,7.937,7.937,7.937
	s7.937-3.554,7.937-7.937c0-10.561-8.593-19.155-19.156-19.155s-19.156,8.593-19.156,19.155c0,4.383,3.554,7.937,7.937,7.937
	C421.754,198.604,425.308,195.051,425.308,190.667z M350.588,171.513c-10.561,0-19.156,8.593-19.156,19.155
	c0,4.383,3.553,7.937,7.937,7.937s7.937-3.554,7.937-7.937c0-1.81,1.472-3.281,3.282-3.281c1.809,0,3.281,1.472,3.281,3.281
	c0,4.383,3.553,7.937,7.937,7.937c4.383,0,7.937-3.554,7.937-7.937C369.743,180.106,361.151,171.513,350.588,171.513z
	 M497.234,214.654c0.145-2.923,0.226-5.798,0.226-8.584c0-15.128-1.925-30.151-5.67-44.685c20.361-24.381,19.065-61.065-3.73-83.86
	c-14.795-14.795-35.477-21.056-55.865-17.079c-0.978-0.471-1.942-0.912-2.88-1.306c-11.598-18.951-38.313-27.423-53.664-30.84
	c-20.709-4.609-42.501-5.128-56.012-1.496c-13.375-6.261-38.529-8.33-62.325-4.857c-32.163,4.689-57.757,18.283-72.561,38.417
	c-12.252,2.271-23.528,8.16-32.529,17.162c-13.689,13.689-19.649,32.222-17.889,50.132c-20.092,42.539-25.935,99.699,9.256,146.092
	h-4.297c-17.557,0-33.76,5.881-46.765,15.763H82.82c-29.372,0-55.199,19.511-63.56,47.174C8.267,339.04,0,348.826,0,360.509
	c0,10.645,8.289,35.593,24.365,35.593c16.075,0,24.364-24.949,24.364-35.593c0-9.504-5.473-17.749-13.43-21.764
	c6.424-17.769,22.485-30.625,41.317-32.967c-9.282,12.772-14.777,28.465-14.777,45.427v115.234c0,13.946,11.346,25.29,25.289,25.29
	h63.323c8.683,0,15.748-7.065,15.748-15.748c0-18.252-13.867-33.326-31.62-35.237v-13.739h43.01v39.434
	c0,13.946,11.346,25.29,25.29,25.29h63.322c8.684,0,15.749-7.065,15.749-15.748c0-18.252-13.867-33.326-31.62-35.237v-13.739h32.904
	c0.273,0,0.543-0.012,0.816-0.014v39.448c0,13.946,11.346,25.29,25.29,25.29h63.322c8.683,0,15.748-7.065,15.748-15.748
	c0-18.252-13.867-33.326-31.62-35.237v-51.618c24.544-3.342,48.467-13.301,59.831-33.553c19.912-13.059,37.33-30.316,50.621-50.108
	C493.424,295.114,512,269.57,512,239.754C512,228.978,506.034,219.572,497.234,214.654z M24.365,380.146
	c-3.142-1.59-8.492-12.906-8.492-19.637c0-4.682,3.81-8.491,8.492-8.491s8.49,3.81,8.49,8.491
	C32.856,367.241,27.506,378.557,24.365,380.146z M163.45,88.75c8.753-8.753,20.392-13.574,32.771-13.574
	c12.379,0,24.017,4.821,32.771,13.574c5.847,5.847,5.834,15.319-0.041,28.154c-7.562,16.522-20.827,29.785-37.347,37.347
	c-12.834,5.874-22.306,5.889-28.154,0.042C145.38,136.222,145.38,106.82,163.45,88.75z M283.236,411.131h-40.841
	c-4.384,0-7.937,3.554-7.937,7.937v25.294c0,6.646,5.407,12.053,12.053,12.053c10.747,0,19.5,8.71,19.567,19.442h-63.197
	c-5.192,0-9.416-4.225-9.416-9.416v-47.371c0-4.383-3.553-7.937-7.937-7.937h-58.884c-4.384,0-7.937,3.554-7.937,7.937v25.294
	c0,6.646,5.407,12.053,12.053,12.053c10.747,0,19.5,8.71,19.567,19.442H87.129c-5.192,0-9.415-4.225-9.415-9.416V351.207
	c0-33.955,27.625-61.58,61.58-61.58h18.447c1.561,1.503,3.171,2.99,4.838,4.458c1.496,16.872,11.511,34.096,27.918,47.779
	c20.835,17.375,47.426,25.476,73.748,22.651c11.337,16.735,39.952,24.259,63.479,25.68
	C316.922,403.344,300.805,411.131,283.236,411.131z M372.538,475.856h-63.196c-5.192,0-9.416-4.225-9.416-9.416v-41.327
	c16.243-3.733,30.657-12.848,40.993-25.974v45.225c0,6.646,5.407,12.053,12.053,12.053
	C363.717,456.414,372.47,465.124,372.538,475.856z M406.314,343.338c-1.201,0.767-2.173,1.842-2.814,3.114
	c-7.132,14.138-30.545,29.953-73.023,27.991c-27.174-1.254-50.087-10.274-54.483-21.447c-1.374-3.49-4.999-5.542-8.701-4.921
	c-23.571,3.958-47.858-2.75-66.629-18.406c-13.84-11.541-22.215-26.31-22.403-39.505c-0.033-2.303-1.064-4.478-2.827-5.96
	c-24.71-20.791-38.509-46.735-41.013-77.11c-1.467-17.798,1.126-36.954,7.355-55.481c2.754,4.987,6.225,9.679,10.448,13.903
	c4.693,4.692,11.896,9.048,22.465,9.048c6.502,0,14.276-1.649,23.523-5.881c19.982-9.148,36.024-25.19,45.173-45.173
	c11.113-24.277,4.412-38.407-3.166-45.986c-9.347-9.346-21.145-15.337-33.942-17.405c33.174-29.927,95.297-26.331,108.286-18.051
	c2.096,1.338,4.699,1.614,7.03,0.748c18.239-6.775,81.937,0.204,95.114,26.277c0.925,1.832,2.525,3.234,4.462,3.911
	c11.978,4.193,37.105,21.77,38.31,49.341c0.055,1.254,0.406,2.476,1.025,3.568c13.793,24.323,21.085,52.042,21.085,80.158
	c0,1.635-0.035,3.284-0.088,4.945h-5.469c-1.829-23.02-11.281-44.235-27.059-60.409c-19.674-20.166-47.495-30.826-80.456-30.826
	c-33.039,0-60.905,10.705-80.586,30.961c-17.577,18.089-27.258,42.431-27.258,68.541c0,50.243,48.379,91.12,107.844,91.12h72.838
	c0.805,0,1.602-0.034,2.401-0.061C433.028,323.157,420.328,334.387,406.314,343.338z M478.623,226.891l-4.304,5.126
	c-3.923,4.672-9.673,7.352-15.772,7.352c-6.102,0-11.85-2.68-15.775-7.352l-4.304-5.126H478.623z M441.353,294.529h-72.838
	c-50.712,0-91.97-33.755-91.97-75.246c0-57.457,47.675-83.627,91.97-83.627c58.836,0,87.873,37.686,91.561,75.36h-25.223
	c-5.577,0-10.505,3.14-12.86,8.194c-2.357,5.054-1.593,10.848,1.995,15.118l5.234,6.234c-11.011,6.258-12.588,16.6-12.588,24.691
	c0,14.313,11.665,25.433,29.09,29.083C444.28,294.452,442.826,294.529,441.353,294.529z M458.546,279.747
	c-12.8,0-26.039-5.421-26.039-14.492c0-6.668,0.571-11.015,11.098-13.215c4.639,2.083,9.715,3.202,14.942,3.202
	c5.226,0,10.301-1.12,14.941-3.202c10.526,2.199,11.098,6.546,11.098,13.215C484.585,274.325,471.346,279.747,458.546,279.747z
	 M475.221,119.705c-1.347-17.992-10.29-32.717-21.028-43.443c8.42,1.877,16.267,6.113,22.641,12.488
	c14.302,14.302,17.24,35.946,8.749,53.27C482.647,134.364,479.2,126.901,475.221,119.705z M495.589,247.332
	c-1.831-2.521-4.323-4.839-7.718-6.769l5.234-6.234c0.379-0.452,0.72-0.924,1.036-1.406c1.25,1.982,1.984,4.321,1.984,6.832
	C496.126,242.326,495.933,244.854,495.589,247.332z"/>
<g>
</g>
<g>
</g>
<g>
</g>
<g>
</g>
<g>
</g>
<g>
</g>
<g>
</g>
<g>
</g>
<g>
</g>
<g>
</g>
<g>
</g>
<g>
</g>
<g>
</g>
<g>
</g>
<g>
</g>
</svg>
