<?xml version="1.0" encoding="iso-8859-1"?>
<!-- Generator: Adobe Illustrator 19.0.0, SVG Export Plug-In . SVG Version: 6.00 Build 0)  -->
<svg version="1.1" id="Layer_1" xmlns="http://www.w3.org/2000/svg" xmlns:xlink="http://www.w3.org/1999/xlink" x="0px" y="0px"
	 viewBox="0 0 511.997 511.997" style="enable-background:new 0 0 511.997 511.997;" xml:space="preserve">
<path style="fill:#4A5058;" d="M171.701,388.173l-15.873,33.15c-15.796,32.989-55.344,46.927-88.334,31.132l0,0
	c-7.509-3.595-10.682-12.597-7.086-20.106l37.963-79.287c9.696-20.249,33.971-28.805,54.22-19.11l0,0
	C172.842,343.649,181.397,367.924,171.701,388.173z"/>
<path style="opacity:0.15;enable-background:new    ;" d="M152.593,333.954L152.593,333.954
	c-20.249-9.696-44.524-1.141-54.22,19.108l-5.48,11.445c14.412,19.125,37.165,29.68,62.781,29.68c4.659,0,9.216-0.37,13.654-1.056
	l2.374-4.958C181.397,367.924,172.842,343.649,152.593,333.954z"/>
<g>
	<path style="fill:#4A5058;" d="M236.21,322.866h18.972c36.576,0,66.226-29.651,66.226-66.226l0,0
		c0-8.325-6.749-15.074-15.074-15.074h-70.124c-22.451,0-40.651,18.2-40.651,40.651l0,0
		C195.559,304.665,213.758,322.866,236.21,322.866z"/>
	<path style="fill:#4A5058;" d="M248.498,299.28c0-51.354-15.785-92.983-78.892-92.983s-78.892,41.631-78.892,92.983
		c0,51.354,35.321,81.858,78.892,81.858C213.176,381.138,248.498,350.633,248.498,299.28z"/>
</g>
<path style="fill:#FFFFFF;" d="M169.606,206.296v65.508c0,29.628,24.018,53.645,53.645,53.645l0,0c8.318,0,16.193-1.894,23.22-5.274
	c1.31-6.72,2.025-13.709,2.025-20.898C248.498,247.927,232.714,206.296,169.606,206.296z"/>
<path style="opacity:0.1;enable-background:new    ;" d="M169.606,206.296c-38.238,0-59.098,15.287-69.604,38.758
	c11.361,8.229,25.319,13.094,40.42,13.094h103.404C235.501,227.428,214.564,206.296,169.606,206.296z"/>
<path style="fill:#F4B759;" d="M483.599,253.392L483.599,253.392c-13.167-7.744-28.166-11.828-43.441-11.828H244.863v-51.316
	h224.592l34.609,24.462v26.976C504.064,252.189,492.652,258.716,483.599,253.392z"/>
<path style="opacity:0.1;enable-background:new    ;" d="M483.599,253.392L483.599,253.392
	c-13.167-7.744-28.166-11.828-43.441-11.828H244.863v-51.316h224.592l34.609,24.462v26.976
	C504.064,252.189,492.652,258.716,483.599,253.392z"/>
<path style="fill:#4A5058;" d="M244.863,241.564h-104.44c-38.107,0-69-30.892-69-69l0,0c0-66.03,53.527-119.556,119.556-119.556
	h53.883V241.564z"/>
<path style="fill:#F4B759;" d="M496.24,234.447l-15.098-12.582c-17.576-14.646-39.73-22.667-62.609-22.667H244.863V53.008h101.08
	c87.328,0,158.122,70.793,158.122,158.122v19.653C504.064,234.827,499.347,237.036,496.24,234.447z"/>
<path style="fill:#FFFFFF;" d="M167.092,241.564h77.772V99.152h-59.219c-41.007,0-74.249,33.243-74.249,74.249v12.466
	C111.395,216.628,136.332,241.564,167.092,241.564z"/>
<path style="opacity:0.15;enable-background:new    ;" d="M95.846,256.5c-3.703,12.806-5.131,27.353-5.131,42.78
	c0,14.399,2.779,27.157,7.736,38.065c19.937-2.606,35.335-19.646,35.335-40.293l0,0C133.785,275.512,117.031,257.896,95.846,256.5z"
	/>
<path style="fill:#4A5058;" d="M93.135,322.866H74.163c-36.576,0-66.226-29.651-66.226-66.226l0,0
	c0-8.325,6.749-15.074,15.074-15.074h70.125c22.451,0,40.651,18.2,40.651,40.651l0,0
	C133.785,304.665,115.585,322.866,93.135,322.866z"/>
<g>
	<path style="fill:#F4B759;" d="M161.827,400.771c-7.305,0-13.226-5.922-13.226-13.226v-20.655c0-7.304,5.921-13.226,13.226-13.226
		c7.305,0,13.226,5.922,13.226,13.226v20.655C175.054,394.85,169.132,400.771,161.827,400.771z"/>
	<path style="fill:#F4B759;" d="M212.617,400.771c-7.305,0-13.226-5.922-13.226-13.226v-20.655c0-7.304,5.921-13.226,13.226-13.226
		s13.226,5.922,13.226,13.226v20.655C225.843,394.85,219.922,400.771,212.617,400.771z"/>
</g>
<path d="M158.367,167.852c4.383,0,7.936-3.552,7.936-7.936c0-2.988,2.43-5.42,5.42-5.42c2.988,0,5.419,2.432,5.419,5.42
	c0,4.384,3.553,7.936,7.936,7.936c4.383,0,7.936-3.552,7.936-7.936c0-11.741-9.551-21.291-21.29-21.291s-21.291,9.551-21.291,21.291
	C150.431,164.299,153.984,167.852,158.367,167.852z M345.942,45.072H190.979c-70.299,0-127.492,57.193-127.492,127.493
	c0,24.867,11.87,47.005,30.23,61.078c-0.195-0.002-0.387-0.015-0.582-0.015H23.01C10.322,233.627,0,243.95,0,256.638
	C0,297.531,33.269,330.8,74.162,330.8h13.31c1.628,5.129,3.668,9.982,6.079,14.544c-0.85,1.395-1.635,2.825-2.336,4.291
	l-37.963,79.288c-2.655,5.543-2.991,11.79-0.948,17.586s6.221,10.451,11.764,13.105c10.155,4.863,21.039,7.312,31.974,7.312
	c8.305-0.001,16.641-1.414,24.706-4.256c18.683-6.585,33.683-20.05,42.239-37.918l8.902-18.593
	c6.441-3.495,10.853-10.241,11.07-18.019c2.878-0.397,5.711-0.928,8.495-1.581v0.987c0,11.669,9.493,21.162,21.162,21.162
	s21.162-9.493,21.162-21.162v-20.657c0-1.463-0.15-2.893-0.434-4.273c8.4-8.986,14.578-19.708,18.42-31.815h3.417
	c40.893,0,74.162-33.268,74.162-74.162c0-2.492-0.403-4.891-1.14-7.139h111.953c13.85,0,27.48,3.712,39.418,10.734
	c3.406,2.004,7.154,3.006,10.904,3.006c3.665,0,7.335-0.959,10.687-2.877c6.783-3.88,10.832-10.863,10.832-18.676v-30.556
	C512,119.566,437.508,45.072,345.942,45.072z M79.359,172.565c0-61.548,50.073-111.621,111.621-111.621h45.948v172.683h-96.504
	C106.752,233.627,79.359,206.236,79.359,172.565z M93.135,314.929H74.163c-32.142,0-58.292-26.148-58.292-58.291
	c0-3.937,3.202-7.139,7.138-7.139h70.126c18.039,0,32.715,14.676,32.715,32.715C125.85,300.253,111.174,314.929,93.135,314.929z
	 M148.672,417.896c-6.724,14.044-18.515,24.628-33.199,29.804c-14.686,5.175-30.507,4.321-44.55-2.403
	c-1.719-0.823-3.016-2.268-3.649-4.065c-0.634-1.798-0.529-3.735,0.294-5.455l36.134-75.465
	c9.591,11.181,22.146,19.51,36.964,24.284v2.95c0,8.838,5.45,16.419,13.163,19.58L148.672,417.896z M167.118,387.545
	c0,2.917-2.373,5.291-5.291,5.291c-2.917,0-5.291-2.373-5.291-5.291v-20.655c0-2.917,2.373-5.291,5.291-5.291
	c2.917,0,5.291,2.373,5.291,5.291V387.545z M217.907,387.545c0,2.917-2.373,5.291-5.291,5.291c-2.917,0-5.291-2.373-5.291-5.291
	v-20.655c0-2.917,2.373-5.291,5.291-5.291c2.917,0,5.291,2.373,5.291,5.291V387.545z M224.091,349.133
	c-3.31-2.146-7.244-3.406-11.474-3.406c-11.669,0-21.162,9.493-21.162,21.162v3.282c-2.753,0.796-5.578,1.435-8.465,1.916v-5.199
	c0-11.669-9.493-21.162-21.162-21.162c-11.669,0-21.162,9.493-21.162,21.162v0.814c-17.216-7.015-30.123-20.366-36.808-38.109
	c21.646-4.897,37.864-24.273,37.864-47.379c0-13.088-5.211-24.976-13.656-33.72c4.025,0.653,8.151,1.005,12.358,1.005h92.058
	c5.427,12.726,8.081,29.07,8.081,49.78C240.563,319.143,234.889,336.208,224.091,349.133z M255.354,314.924
	c0.708-5.042,1.079-10.258,1.079-15.645c0-19.757-2.296-36.169-6.969-49.78h56.869c3.936,0,7.138,3.202,7.138,7.139
	C313.472,288.722,287.416,314.83,255.354,314.924z M493.286,246.586c-0.854,0.489-3.117,1.465-5.664-0.034
	c-14.376-8.454-30.788-12.924-47.464-12.924H252.799v-26.493h165.735c20.98,0,41.411,7.396,57.529,20.828l15.099,12.583
	c1.441,1.201,3.076,2.041,4.793,2.514C495.466,245.095,493.995,246.181,493.286,246.586z M496.128,224.024l-9.906-8.255
	c-18.964-15.803-43.003-24.506-67.689-24.506H252.799V60.944h93.144c82.812,0,150.186,67.373,150.186,150.185L496.128,224.024
	L496.128,224.024z"/>
<g>
</g>
<g>
</g>
<g>
</g>
<g>
</g>
<g>
</g>
<g>
</g>
<g>
</g>
<g>
</g>
<g>
</g>
<g>
</g>
<g>
</g>
<g>
</g>
<g>
</g>
<g>
</g>
<g>
</g>
</svg>
