<?xml version="1.0" encoding="iso-8859-1"?>
<!-- Generator: Adobe Illustrator 19.0.0, SVG Export Plug-In . SVG Version: 6.00 Build 0)  -->
<svg version="1.1" id="Layer_1" xmlns="http://www.w3.org/2000/svg" xmlns:xlink="http://www.w3.org/1999/xlink" x="0px" y="0px"
	 viewBox="0 0 512 512" style="enable-background:new 0 0 512 512;" xml:space="preserve">
<path style="fill:#7D7060;" d="M113.574,454.783l-75.563,15.805c-7.835,1.639-13.446,8.546-13.446,16.55l0,0
	c0,9.338,7.57,16.908,16.908,16.908h70.888c35.852,0,71.284-7.71,103.895-22.607l15.142-6.917v-93.895l-57.92,46.038
	C155.974,440.576,135.46,450.206,113.574,454.783z"/>
<path style="opacity:0.05;enable-background:new    ;" d="M173.477,426.663c-1.236,0.983-2.491,1.938-3.757,2.877
	c-1.025,3.888-1.585,7.995-1.585,12.295c0,18.469,10.033,34.687,25.158,43.929c1.441,0.88,2.523,2.197,3.103,3.722
	c6.718-2.398,13.348-5.073,19.86-8.048l15.142-6.917v-93.895L173.477,426.663z"/>
<g>
	<path style="fill:#6E614F;" d="M373.049,355.994c-19.127,0-38.778-7.039-50.556-19.654c-6.337-6.786-5.972-17.424,0.813-23.76
		c6.787-6.337,17.425-5.974,23.762,0.813c7.319,7.838,27.123,12.286,39.799,6.304c8.397-3.959,18.415-0.366,22.377,8.031
		c3.961,8.398,0.366,18.416-8.031,22.378C392.749,354.1,382.969,355.994,373.049,355.994z"/>
	<path style="fill:#6E614F;" d="M381.414,471.03h-12.682c-2.63,0-4.127-3.001-2.543-5.103c6.458-8.563,10.27-19.08,10.27-30.455
		c0-28.755-24.313-49.203-54.305-49.203s-54.305,20.447-54.305,49.203c0,18.469,10.033,34.687,25.158,43.929
		c2.191,1.34,3.578,3.674,3.578,6.243v8.957c0,5.217,4.229,9.446,9.446,9.446h97.24c3.04,0,5.569-2.434,5.581-5.474
		C408.908,483.371,396.602,471.03,381.414,471.03z"/>
</g>
<path style="opacity:0.15;enable-background:new    ;" d="M381.414,471.03h-12.682c-2.63,0-4.127-3.001-2.543-5.103
	c6.458-8.563,10.27-19.08,10.27-30.455c0-28.755-24.313-49.203-54.305-49.203s-54.305,20.447-54.305,49.203
	c0,18.469,10.033,34.687,25.158,43.929c2.191,1.34,3.578,3.674,3.578,6.243v8.957c0,5.217,4.229,9.446,9.446,9.446h97.24
	c3.04,0,5.569-2.434,5.581-5.474C408.908,483.371,396.602,471.03,381.414,471.03z"/>
<path style="fill:#7D7060;" d="M336.241,217.723h-99.107c0,89.353-39.339,100.983-39.339,176.645
	c0,39.317,35.529,71.189,79.356,71.189c56.813,0,90.879-6.309,90.879-62.564C368.03,343.623,336.241,341.64,336.241,217.723z"/>
<path style="opacity:0.1;enable-background:new    ;" d="M336.241,217.723h-99.107c0,19.207-1.821,34.815-4.674,48.248
	c19.444,19.151,46.127,30.974,75.575,30.974h34.267C338.723,277.448,336.241,252.347,336.241,217.723z"/>
<path style="fill:#F8ECC8;" d="M226.913,402.992h143.286c4.32,0,7.676,3.703,7.338,8.009
	c-4.392,56.087-55.559,63.522-100.387,63.522C247.46,472.698,226.913,452.028,226.913,402.992z"/>
<g>
	<path style="fill:#6E614F;" d="M295.49,471.03h-12.682c-2.63,0-4.127-3.001-2.543-5.103c6.458-8.563,10.27-19.08,10.27-30.455
		c0-28.755-24.313-49.203-54.305-49.203s-54.305,20.447-54.305,49.203c0,18.469,10.033,34.687,25.158,43.929
		c2.191,1.34,3.578,3.674,3.578,6.243v8.957c0,5.217,4.229,9.446,9.446,9.446h97.24c3.039,0,5.569-2.434,5.581-5.474
		C322.983,483.371,310.678,471.03,295.49,471.03z"/>
	<path style="fill:#6E614F;" d="M299.766,387.68c-1.701,0-3.431-0.261-5.139-0.808c-26.094-8.37-48.139-37.583-48.139-63.789
		c0-9.285,7.527-16.812,16.812-16.812c9.285,0,16.812,7.527,16.812,16.812c0,10.724,11.438,27.491,24.785,31.773
		c8.841,2.836,13.708,12.302,10.873,21.143C313.482,383.132,306.877,387.68,299.766,387.68z"/>
	<path style="fill:#6E614F;" d="M333.279,83.69l8.218,41.721c1.913,9.713,14.274,12.809,20.539,5.144l26.913-32.922
		c16.87-20.637,20.954-48.908,10.617-73.477l0,0c-6.832-16.238-27.338-21.373-41.017-10.273l0,0
		C337.849,30.679,328.128,57.538,333.279,83.69z"/>
</g>
<path style="fill:#7D7060;" d="M461.297,152.443h-40.674c-9.079-50.297-53.079-88.452-105.992-88.452
	c-12.106,0-23.745,1.998-34.605,5.681c-0.031-21.406-9.619-41.992-26.62-55.787l0,0c-13.68-11.1-34.184-5.965-41.017,10.273l0,0
	c-10.338,24.569-6.253,52.839,10.617,73.477l6.549,8.012c-14.183,18.241-22.634,41.161-22.634,66.058
	c0,59.487,48.224,107.712,107.712,107.712h71.972c55.688,0,100.833-45.145,100.833-100.833l0,0
	C487.435,164.145,475.732,152.443,461.297,152.443z"/>
<path style="fill:#EDC3D5;" d="M256.024,73.706l-0.974,19.876c-0.227,4.627-4.167,5.615-6.548,1.64L238.276,78.15
	c-6.41-10.7-8.929-24.57-6.545-36.046l0,0c1.575-7.584,8.113-9.222,13.077-3.275l0,0C252.318,47.829,256.634,61.248,256.024,73.706z
	"/>
<path style="fill:#4A5058;" d="M464.098,160.826l-5.409,6.443c-9.305,11.082-26.358,11.082-35.664,0l-5.41-6.443
	c-2.787-3.32-0.427-8.382,3.907-8.382h38.669C464.525,152.443,466.885,157.506,464.098,160.826z"/>
<path d="M495.39,178.58c0-18.799-15.294-34.092-34.092-34.092h-34.221c-4.569-19.017-13.742-36.012-26.178-49.909
	c13.731-21.894,16.119-49.458,6-73.51c-4.237-10.068-12.744-17.364-23.341-20.019c-10.598-2.653-21.539-0.228-30.02,6.654
	c-15.134,12.281-25.223,29.736-28.445,48.807c-3.45-0.31-6.937-0.476-10.46-0.476c-9.269,0-18.426,1.09-27.333,3.25
	c-2.64-20.164-12.843-38.566-28.88-51.58c-8.483-6.882-19.424-9.306-30.02-6.654c-10.597,2.655-19.104,9.951-23.341,20.019
	c-11.511,27.354-6.993,58.62,11.79,81.597l2.646,3.238c-13.452,19.368-20.528,41.981-20.528,65.797
	c0,29.027,10.75,55.587,28.475,75.918c-3.33,27.061-11.05,45.539-18.538,63.406c-9.37,22.361-19.061,45.483-19.061,83.341
	c0,0.742,0.019,1.513,0.049,2.303c-4.508,4.54-8.117,9.711-10.752,15.334l-10.609,8.433c-16.448,13.074-36.014,22.259-56.582,26.562
	l-75.563,15.804c-11.458,2.396-19.773,12.631-19.773,24.336C16.61,500.847,27.763,512,41.473,512h70.888
	c31.082,0,61.433-5.511,90.396-16.37c0.538,9.114,8.101,16.37,17.348,16.37h183.163c7.435,0,13.507-6.009,13.535-13.397
	c0.036-9.482-3.627-18.4-10.318-25.116c-6.689-6.715-15.594-10.413-25.073-10.413h-3.965c4.577-8.48,6.963-17.875,6.963-27.602
	c0-3.537-0.347-7.052-0.993-10.486c0.986-4.235,1.681-8.682,2.048-13.366c0.335-4.277-1.139-8.533-4.044-11.674
	c-1.564-1.691-3.489-2.975-5.595-3.811c-0.527-12.649-2.488-22.787-5.209-32.241c0.81,0.023,1.623,0.054,2.429,0.054
	c11.427,0,22.338-2.298,31.557-6.648c12.351-5.827,17.657-20.616,11.831-32.966c-5.826-12.348-20.614-17.655-32.966-11.831
	c-9.922,4.683-25.847,0.542-30.589-4.536c-0.064-0.068-0.138-0.135-0.203-0.203c-1.434-6.121-2.764-12.856-3.925-20.398h37.847
	C446.588,287.368,495.39,238.566,495.39,178.58z M454.07,160.397l-1.474,1.755c-2.92,3.478-7.199,5.472-11.74,5.472
	c-4.542,0-8.82-1.994-11.74-5.471l-1.474-1.756L454.07,160.397L454.07,160.397z M363.56,20.06c4.558-3.698,10.438-5,16.132-3.576
	c5.693,1.427,10.265,5.347,12.542,10.757c7.661,18.206,6.374,38.928-3.075,55.954c-13.804-11.613-30.321-19.995-48.356-24.163
	C343.405,43.804,351.471,29.869,363.56,20.06z M112.359,496.092H41.473c-4.937,0-8.954-4.017-8.954-8.953
	c0-4.216,2.994-7.902,7.121-8.765l75.563-15.804c21.159-4.426,41.363-13.487,58.779-26.296c0.238,17.541,8.27,33.782,21.937,44.941
	C169.123,491.092,141.072,496.092,112.359,496.092z M220.104,496.092c-0.822,0-1.491-0.669-1.491-1.49v-8.957
	c0-5.333-2.761-10.204-7.385-13.03c-13.369-8.17-21.35-22.055-21.35-37.142c0-23.516,19.927-41.249,46.352-41.249
	c26.424,0,46.351,17.733,46.351,41.249c0,9.274-2.996,18.149-8.665,25.666c-2.561,3.396-2.975,7.87-1.079,11.675
	c1.897,3.807,5.718,6.171,9.972,6.171h12.682c5.217,0,10.118,2.036,13.802,5.733c3.099,3.112,5.019,7.083,5.537,11.375H220.104z
	 M292.812,410.946h76.75c-2.719,31.954-22.64,49.16-62.559,54.042c-3.656-1.254-7.532-1.914-11.513-1.914h-3.964
	c4.575-8.478,6.963-17.875,6.963-27.602C298.488,426.747,296.521,418.432,292.812,410.946z M297.057,379.297
	c-22.701-7.282-42.614-33.551-42.614-56.214c0-4.883,3.973-8.857,8.857-8.857c4.884,0,8.857,3.973,8.857,8.857
	c0,13.7,13.241,33.87,30.311,39.347c4.65,1.491,7.221,6.489,5.728,11.14c-1.182,3.682-4.569,6.156-8.43,6.156
	C298.855,379.725,297.943,379.581,297.057,379.297z M381.414,478.984c5.218,0,10.119,2.036,13.802,5.733
	c3.1,3.112,5.02,7.083,5.537,11.375h-69.962c-0.428-6.513-2.617-12.682-6.337-17.959c13.678-3.087,24.895-7.876,33.977-14.501
	c-1.207,2.926-1.131,6.25,0.331,9.183c1.896,3.805,5.718,6.17,9.972,6.17L381.414,478.984L381.414,478.984z M390.259,326.892
	c4.417-2.084,9.706-0.186,11.79,4.231c2.084,4.416,0.186,9.705-4.231,11.789c-7.109,3.354-15.675,5.127-24.769,5.127
	c-2.585,0-5.207-0.164-7.837-0.457c-0.432-1.2-0.868-2.405-1.309-3.623c-1.776-4.904-3.624-10.01-5.445-15.6
	C368.665,331.268,380.715,331.398,390.259,326.892z M348.946,349.378c5.462,15.079,9.913,27.38,10.916,45.66h-54.733
	c8.475-1.866,15.475-8.066,18.216-16.608c4.171-13.004-3.014-26.978-16.018-31.148c-10.446-3.35-19.261-17.246-19.261-24.198
	c0-13.656-11.11-24.766-24.766-24.766c-13.656,0-24.766,11.11-24.766,24.766c0,29.857,24.074,61.87,53.668,71.364
	c0.735,0.235,1.481,0.424,2.229,0.591h-13.559c-0.325-0.3-0.636-0.61-0.969-0.905c-11.514-10.201-27.024-15.819-43.675-15.819
	c-10.836,0-21.182,2.394-30.267,6.868c1.379-29.268,9.285-48.139,17.611-68.007c6.812-16.256,13.813-32.975,17.917-55.937
	c19.945,16.323,45.417,26.13,73.14,26.13h18.038C336.838,315.936,343.244,333.634,348.946,349.378z M314.631,271.458
	c-55.006,0-99.757-44.75-99.757-99.757c0-22.385,7.248-43.54,20.96-61.175c2.278-2.929,2.227-7.045-0.121-9.917l-6.549-8.013
	c-15.045-18.404-18.663-43.448-9.444-65.357c2.276-5.41,6.847-9.331,12.542-10.757c1.512-0.379,3.038-0.564,4.548-0.564
	c4.177,0,8.237,1.424,11.584,4.141c15.019,12.187,23.649,30.274,23.678,49.621c0.004,2.562,1.242,4.966,3.325,6.457
	c2.082,1.491,4.758,1.887,7.184,1.065c10.294-3.489,21.077-5.258,32.053-5.258c46.601,0,86.65,32.055,97.12,76.92
	c-0.819,0.931-1.518,1.992-2.064,3.165c-2.168,4.652-1.464,9.981,1.835,13.909l5.41,6.444c5.951,7.087,14.67,11.15,23.924,11.15
	c9.254,0,17.973-4.064,23.924-11.151l5.409-6.442c0.593-0.706,1.099-1.458,1.522-2.243c4.69,3.292,7.769,8.731,7.769,14.883
	c0,51.212-41.665,92.877-92.878,92.877h-71.972V271.458z M427.579,218.769c5.02,0,9.639-1.751,13.277-4.674
	c3.639,2.923,8.258,4.674,13.277,4.674c11.707,0,21.231-9.524,21.231-21.231c0-4.394-3.562-7.955-7.955-7.955
	s-7.955,3.56-7.955,7.955c0,2.936-2.387,5.322-5.322,5.322s-5.322-2.387-5.322-5.322c0-4.394-3.562-7.955-7.955-7.955
	c-4.393,0-7.955,3.56-7.955,7.955c0,2.936-2.387,5.322-5.322,5.322s-5.323-2.387-5.323-5.322c0-4.394-3.562-7.955-7.955-7.955
	c-4.393,0-7.955,3.56-7.955,7.955C406.348,209.244,415.872,218.769,427.579,218.769z M395.131,144.743v-11.846
	c0-4.394-3.562-7.955-7.955-7.955c-4.393,0-7.955,3.56-7.955,7.955v11.846c0,4.394,3.562,7.955,7.955,7.955
	C391.569,152.697,395.131,149.137,395.131,144.743z M322.605,124.942c-4.393,0-7.955,3.56-7.955,7.955v11.846
	c0,4.394,3.561,7.955,7.955,7.955s7.955-3.56,7.955-7.955v-11.846C330.56,128.504,326.998,124.942,322.605,124.942z"/>
<g>
</g>
<g>
</g>
<g>
</g>
<g>
</g>
<g>
</g>
<g>
</g>
<g>
</g>
<g>
</g>
<g>
</g>
<g>
</g>
<g>
</g>
<g>
</g>
<g>
</g>
<g>
</g>
<g>
</g>
</svg>
