<?xml version="1.0" encoding="iso-8859-1"?>
<!-- Generator: Adobe Illustrator 19.0.0, SVG Export Plug-In . SVG Version: 6.00 Build 0)  -->
<svg version="1.1" id="Layer_1" xmlns="http://www.w3.org/2000/svg" xmlns:xlink="http://www.w3.org/1999/xlink" x="0px" y="0px"
	 viewBox="0 0 512 512" style="enable-background:new 0 0 512 512;" xml:space="preserve">
<path style="fill:#BD4936;" d="M83.401,325.405V215.859c0-20.82-16.878-37.698-37.698-37.698l0,0
	c-20.82,0-37.698,16.878-37.698,37.698v107.307c0,61.34,49.726,111.066,111.066,111.066h8.892c36.529,0,66.141-29.612,66.141-66.141
	l0,0h-68.016C102.512,368.091,83.401,348.98,83.401,325.405z"/>
<g>
	<circle style="fill:#E99B98;" cx="30.197" cy="220.548" r="7.916"/>
	<circle style="fill:#E99B98;" cx="30.197" cy="262.327" r="7.916"/>
	<circle style="fill:#E99B98;" cx="30.197" cy="304.105" r="7.916"/>
	<circle style="fill:#E99B98;" cx="33.932" cy="345.542" r="7.916"/>
	<circle style="fill:#E99B98;" cx="51.321" cy="379.966" r="7.916"/>
</g>
<path style="opacity:0.05;enable-background:new    ;" d="M126.087,368.091c-23.575,0-42.686-19.111-42.686-42.686v-89.37
	c-18.157,2.711-32.084,18.368-32.084,37.279v49.851c0,54.684,39.521,100.137,91.559,109.356
	c29.343-6.765,51.228-33.034,51.228-64.432l0,0h-68.017V368.091z"/>
<path style="fill:#BD4936;" d="M428.599,325.405V215.859c0-20.82,16.878-37.698,37.698-37.698l0,0
	c20.82,0,37.698,16.878,37.698,37.698v107.307c0,61.34-49.725,111.066-111.066,111.066h-8.891
	c-36.529,0-66.141-29.612-66.141-66.141l0,0h68.016C409.488,368.091,428.599,348.98,428.599,325.405z"/>
<g>
	<circle style="fill:#E99B98;" cx="481.797" cy="220.548" r="7.916"/>
	<circle style="fill:#E99B98;" cx="481.797" cy="262.327" r="7.916"/>
	<circle style="fill:#E99B98;" cx="481.797" cy="304.105" r="7.916"/>
	<circle style="fill:#E99B98;" cx="478.071" cy="345.542" r="7.916"/>
	<circle style="fill:#E99B98;" cx="460.683" cy="379.966" r="7.916"/>
</g>
<path style="opacity:0.05;enable-background:new    ;" d="M385.913,368.091c23.575,0,42.686-19.111,42.686-42.686v-89.37
	c18.157,2.711,32.084,18.368,32.084,37.279v49.851c0,54.684-39.521,100.137-91.559,109.356
	c-29.343-6.765-51.228-33.034-51.228-64.432l0,0h68.017V368.091z"/>
<path style="fill:#BD4936;" d="M390.849,212.618c0-74.475-60.374-134.849-134.849-134.849s-134.849,60.374-134.849,134.849v155.472
	H390.85V212.618H390.849z"/>
<circle style="fill:#EDBCB9;" cx="255.997" cy="209.223" r="20.105"/>
<path style="fill:#D46D59;" d="M256,213.377c-6.872,0-13.176,1.7-18.112,4.531c3.243,6.75,10.122,11.422,18.112,11.422
	c7.99,0,14.869-4.672,18.112-11.422C269.176,215.078,262.871,213.377,256,213.377z"/>
<path style="opacity:0.05;enable-background:new    ;" d="M121.151,212.618v155.472h20.689V204.239
	c0-52.629,30.153-98.21,74.122-120.426C161.037,100.868,121.151,152.084,121.151,212.618z"/>
<path style="fill:#D4624E;" d="M145.302,325.405v-52.091c0-20.82-16.878-37.698-37.698-37.698l0,0
	c-20.82,0-37.698,16.878-37.698,37.698v49.851c0,61.34,49.726,111.066,111.066,111.066h8.892c36.529,0,66.141-29.612,66.141-66.141
	l0,0h-68.016C164.413,368.091,145.302,348.98,145.302,325.405z"/>
<g>
	<circle style="fill:#E99B98;" cx="91.082" cy="274.954" r="7.916"/>
	<circle style="fill:#E99B98;" cx="91.082" cy="316.743" r="7.916"/>
	<circle style="fill:#E99B98;" cx="97.487" cy="355.319" r="7.916"/>
	<circle style="fill:#E99B98;" cx="117.543" cy="384.684" r="7.916"/>
</g>
<path style="fill:#D4624E;" d="M366.698,325.405v-52.091c0-20.82,16.878-37.698,37.698-37.698l0,0
	c20.82,0,37.698,16.878,37.698,37.698v49.851c0,61.34-49.726,111.066-111.066,111.066h-8.892c-36.529,0-66.141-29.612-66.141-66.141
	l0,0h68.016C347.587,368.091,366.698,348.98,366.698,325.405z"/>
<g>
	<circle style="fill:#E99B98;" cx="420.912" cy="274.954" r="7.916"/>
	<circle style="fill:#E99B98;" cx="420.912" cy="316.743" r="7.916"/>
	<circle style="fill:#E99B98;" cx="414.507" cy="355.319" r="7.916"/>
	<circle style="fill:#E99B98;" cx="394.45" cy="384.684" r="7.916"/>
</g>
<path d="M466.297,170.156c-25.2,0-45.702,20.502-45.702,45.702v14.728c-5.038-1.916-10.495-2.975-16.198-2.975
	c-1.876,0-3.723,0.127-5.541,0.348v-15.342c0-78.771-64.084-142.855-142.855-142.855s-142.856,64.085-142.856,142.855v15.342
	c-1.818-0.221-3.664-0.348-5.541-0.348c-5.702,0-11.16,1.059-16.198,2.975v-14.728c0-25.2-20.503-45.702-45.703-45.702
	S0,190.657,0,215.859v107.307c0,65.656,53.415,119.072,119.072,119.072h8.89c7.97,0,15.792-1.269,23.294-3.753
	c9.502,2.45,19.459,3.753,29.716,3.753h8.892c28.851,0,53.887-16.574,66.137-40.69c12.25,24.116,37.286,40.69,66.137,40.69h8.892
	c10.256,0,20.214-1.303,29.716-3.753c7.502,2.484,15.324,3.753,23.294,3.753h8.89c65.656,0,119.072-53.415,119.072-119.072V215.859
	C512,190.657,491.497,170.156,466.297,170.156z M119.072,426.226c-56.828,0-103.061-46.233-103.061-103.061V215.859
	c0-16.372,13.32-29.691,29.692-29.691s29.691,13.32,29.691,29.691v25.065c-8.329,8.283-13.495,19.744-13.495,32.391v49.851
	c0,43.963,23.953,82.435,59.49,103.061H119.072z M189.863,426.226h-8.892c-56.828,0-103.061-46.233-103.061-103.061v-49.851
	c0-16.372,13.32-29.691,29.692-29.691s29.692,13.32,29.692,29.691v52.091c0,27.951,22.74,50.691,50.69,50.691h59.462
	C243.537,404.377,219.203,426.226,189.863,426.226z M187.987,360.085c-19.123,0-34.679-15.558-34.679-34.68v-52.091
	c0-17.412-9.789-32.575-24.151-40.288v-20.409c0-69.941,56.903-126.843,126.843-126.843s126.843,56.903,126.843,126.843v20.408
	c-14.361,7.713-24.15,22.877-24.15,40.288v52.091c0,19.123-15.557,34.68-34.68,34.68H187.987V360.085z M331.028,426.226h-8.892
	c-29.34,0-53.674-21.849-57.586-50.13h59.462c27.951,0,50.691-22.74,50.691-50.691v-52.091c0-16.372,13.32-29.691,29.691-29.691
	c16.373,0,29.692,13.32,29.692,29.691v49.851C434.089,379.993,387.856,426.226,331.028,426.226z M495.989,323.166
	c0,56.828-46.233,103.061-103.061,103.061h-2.319c35.538-20.624,59.49-59.097,59.49-103.061v-49.851
	c0-12.647-5.165-24.107-13.495-32.391v-25.065c0-16.372,13.32-29.691,29.692-29.691c16.372,0,29.691,13.32,29.691,29.691v107.307
	H495.989z M256,181.117c-15.5,0-28.11,12.61-28.11,28.11s12.609,28.11,28.11,28.11s28.11-12.61,28.11-28.11
	C284.11,193.726,271.501,181.117,256,181.117z M256,221.326c-6.671,0-12.099-5.428-12.099-12.099s5.428-12.099,12.099-12.099
	s12.099,5.428,12.099,12.099S262.671,221.326,256,221.326z M178.559,176.675c-10.482,0-19.012,8.529-19.012,19.013
	c0,4.422,3.583,8.006,8.006,8.006s8.006-3.583,8.006-8.006c0-1.654,1.346-3.002,3-3.002c1.654,0,3,1.347,3,3.002
	c0,4.422,3.583,8.006,8.006,8.006c4.422,0,8.006-3.583,8.006-8.006C197.571,185.205,189.042,176.675,178.559,176.675z
	 M330.44,195.688c0-1.654,1.346-3.002,3-3.002c1.654,0,3,1.347,3,3.002c0,4.422,3.583,8.006,8.006,8.006
	c4.422,0,8.006-3.583,8.006-8.006c0-10.483-8.529-19.013-19.012-19.013c-10.482,0-19.012,8.529-19.012,19.013
	c0,4.422,3.583,8.006,8.006,8.006S330.44,200.11,330.44,195.688z"/>
<g>
</g>
<g>
</g>
<g>
</g>
<g>
</g>
<g>
</g>
<g>
</g>
<g>
</g>
<g>
</g>
<g>
</g>
<g>
</g>
<g>
</g>
<g>
</g>
<g>
</g>
<g>
</g>
<g>
</g>
</svg>
