<?xml version="1.0" encoding="iso-8859-1"?>
<!-- Generator: Adobe Illustrator 19.0.0, SVG Export Plug-In . SVG Version: 6.00 Build 0)  -->
<svg version="1.1" id="Layer_1" xmlns="http://www.w3.org/2000/svg" xmlns:xlink="http://www.w3.org/1999/xlink" x="0px" y="0px"
	 viewBox="0 0 512.001 512.001" style="enable-background:new 0 0 512.001 512.001;" xml:space="preserve">
<g>
	<path style="fill:#7D7060;" d="M347.438,463.549h-16.491v-4.995c0-12.671-10.272-22.943-22.943-22.943
		c-12.671,0-22.943,10.272-22.943,22.943v17.488c0,11.596,9.401,20.997,20.997,20.997h41.381c9.248,0,16.744-7.497,16.744-16.744
		C364.182,471.047,356.685,463.549,347.438,463.549z"/>
	<path style="fill:#7D7060;" d="M412.104,415.911c-17.46,0-37.96-7.719-48.408-19.374c-6.173-6.885-5.596-17.472,1.291-23.645
		c6.884-6.173,17.472-5.594,23.645,1.291c4.597,5.128,20.543,9.771,27.08,7.885c8.893-2.562,18.166,2.567,20.729,11.449
		c2.561,8.886-2.565,18.166-11.449,20.729C421.062,415.38,416.688,415.911,412.104,415.911z"/>
</g>
<path style="fill:#4A5058;" d="M173.346,461.22l-114.02-10.474c-33.341-3.063-56.729-34.268-50.314-67.128l0,0
	c6.416-32.86,39.824-52.977,71.868-43.274l109.587,33.182c22.055,6.678,35.475,28.966,31.06,51.583l0,0
	C217.112,447.724,196.293,463.327,173.346,461.22z"/>
<g style="opacity:0.2;">
	<g>
		<path d="M38.533,417.872c-2.039,0-4.078-0.778-5.635-2.333c-3.112-3.113-3.112-8.157,0-11.269l43.752-43.752
			c3.113-3.111,8.157-3.111,11.269,0c3.112,3.113,3.112,8.157,0,11.269l-43.752,43.752
			C42.611,417.095,40.571,417.872,38.533,417.872z"/>
		<path d="M76.902,429.7c-2.039,0-4.078-0.778-5.635-2.333c-3.112-3.113-3.112-8.157,0-11.269l37.317-37.317
			c3.113-3.111,8.157-3.111,11.269,0c3.112,3.113,3.112,8.157,0,11.269l-37.316,37.317C80.981,428.922,78.941,429.7,76.902,429.7z"
			/>
		<path d="M119.842,436.958c-2.039,0-4.078-0.778-5.635-2.333c-3.112-3.113-3.112-8.157,0-11.269l17.7-17.7
			c3.113-3.111,8.157-3.111,11.269,0c3.112,3.113,3.112,8.157,0,11.269l-17.7,17.7C123.92,436.18,121.88,436.958,119.842,436.958z"
			/>
	</g>
	<g>
		<path d="M137.864,429.7c-2.039,0-4.078-0.778-5.635-2.333l-41.325-41.324c-3.112-3.113-3.112-8.157,0-11.27
			c3.113-3.111,8.157-3.111,11.269,0l41.325,41.324c3.112,3.113,3.112,8.157,0,11.269C141.942,428.922,139.902,429.7,137.864,429.7z
			"/>
		<path d="M91.093,433.128c-2.039,0-4.078-0.778-5.635-2.333l-45.151-45.151c-3.112-3.113-3.112-8.157,0-11.27
			c3.113-3.111,8.157-3.111,11.269,0l45.151,45.151c3.112,3.113,3.112,8.157,0,11.27C95.171,432.349,93.131,433.128,91.093,433.128z
			"/>
	</g>
</g>
<path style="opacity:0.15;enable-background:new    ;" d="M190.467,373.526l-49.795-15.077c-2.892,9.101-4.44,18.707-4.44,28.636
	c0,28.396,7.146,54.146,24.792,73.003l12.321,1.131c22.947,2.108,43.765-13.495,48.18-36.112l0,0
	C225.942,402.491,212.522,380.203,190.467,373.526z"/>
<path style="fill:#6E614F;" d="M390.767,377.78c0-57.811-52.47-104.677-117.193-104.677c-64.724,0-117.193,46.866-117.193,104.677
	s29.586,104.677,117.193,104.677C338.298,482.458,390.767,435.592,390.767,377.78z"/>
<path style="opacity:0.05;enable-background:new    ;" d="M273.574,273.103c-44.533,0-83.263,22.186-103.094,54.858
	c26.915,19.797,60.151,31.501,96.124,31.501h60.758c20.721,0,40.531-3.887,58.752-10.962
	C371.933,304.941,326.919,273.103,273.574,273.103z"/>
<path style="fill:#6E614F;" d="M437.396,64.208c15.249-15.249,39.974-15.249,55.223,0c15.249,15.249,15.249,39.974,0,55.223
	c-15.249,15.249-30.401,5.677-45.65-9.572C431.718,94.61,422.146,79.459,437.396,64.208z"/>
<circle style="fill:#EDC3D5;" cx="466.873" cy="89.962" r="8.278"/>
<path style="fill:#7D7060;" d="M332.674,339.78h-60.757c-89.697,0-162.409-72.713-162.409-162.409l0,0
	c0-89.695,72.713-162.409,162.409-162.409h60.757c89.697,0,162.409,72.713,162.409,162.409l0,0
	C495.083,267.067,422.371,339.78,332.674,339.78z"/>
<path style="fill:#F8E9B4;" d="M382.979,251.694h-55.573v36.811c0,5.52,4.475,9.996,9.996,9.996h35.582
	c5.52,0,9.996-4.475,9.996-9.996v-36.811H382.979z"/>
<path style="fill:#4A5058;" d="M389.752,186.497l-8.043,9.578c-13.835,16.476-39.19,16.476-53.024,0l-8.043-9.578
	c-4.144-4.936-0.635-12.463,5.809-12.463h57.493C390.388,174.035,393.896,181.562,389.752,186.497z"/>
<path style="fill:#6E614F;" d="M178.041,64.208c-15.249-15.249-39.974-15.249-55.223,0s-15.249,39.974,0,55.223
	s30.401,5.677,45.65-9.572C183.717,94.61,193.29,79.459,178.041,64.208z"/>
<circle style="fill:#EDC3D5;" cx="148.564" cy="89.962" r="8.278"/>
<path style="opacity:0.08;enable-background:new    ;" d="M278.389,437.268c-2.445-0.021-4.922-0.582-7.259-1.737
	c-17.623-8.709-33.516-34.636-33.343-54.396c0.081-9.247,7.643-16.678,16.891-16.598c9.247,0.081,16.678,7.643,16.598,16.891
	c-0.061,6.887,8.589,21.066,14.691,24.081c8.291,4.096,11.69,14.139,7.593,22.429C290.617,433.891,284.611,437.322,278.389,437.268z
	"/>
<g>
	<path style="fill:#7D7060;" d="M289.368,430.231c-2.399,0.467-4.938,0.414-7.46-0.25c-19.009-5.008-39.767-27.232-43.55-46.627
		c-1.771-9.077,4.152-17.87,13.229-19.64c9.077-1.771,17.87,4.152,19.64,13.229c1.318,6.76,12.63,18.922,19.211,20.656
		c8.943,2.355,14.283,11.515,11.926,20.457C300.674,424.475,295.476,429.039,289.368,430.231z"/>
	<path style="fill:#7D7060;" d="M284.743,463.549h-16.491v-4.995c0-12.671-10.272-22.943-22.943-22.943
		s-22.943,10.272-22.943,22.943v17.488c0,11.596,9.4,20.997,20.997,20.997h41.381c9.248,0,16.744-7.497,16.744-16.744
		C301.487,471.047,293.99,463.549,284.743,463.549z"/>
</g>
<path d="M399.212,226.52c-4.401,0-7.968,3.566-7.968,7.968c0,7.743-6.299,14.041-14.041,14.041s-14.043-6.299-14.043-14.041v-18.849
	c9.561-1.812,18.275-6.846,24.651-14.44l8.042-9.578c3.93-4.681,4.768-11.032,2.186-16.572c-2.583-5.541-7.984-8.983-14.098-8.983
	h-57.492c-6.113,0-11.515,3.442-14.098,8.982c-2.584,5.54-1.745,11.89,2.186,16.573l8.042,9.577
	c6.374,7.592,15.084,12.625,24.642,14.44v18.85c0,7.743-6.299,14.041-14.041,14.041c-7.743,0-14.041-6.299-14.041-14.041
	c0-4.401-3.566-7.968-7.968-7.968c-4.4,0-7.968,3.566-7.968,7.968c0,11.577,6.601,21.634,16.232,26.626v27.391
	c0,9.905,8.058,17.963,17.963,17.963h35.582c9.905,0,17.963-8.058,17.963-17.963v-27.391c9.632-4.992,16.232-15.05,16.232-26.626
	C407.18,230.088,403.612,226.52,399.212,226.52z M334.786,190.952l-7.515-8.949h55.851l-7.515,8.951
	c-5.076,6.045-12.515,9.514-20.409,9.514C347.302,200.467,339.863,196.998,334.786,190.952z M375.011,288.506
	c0,1.118-0.909,2.027-2.027,2.027h-35.582c-1.118,0-2.027-0.91-2.027-2.027v-24.13c7.811-0.567,14.803-4.132,19.818-9.556
	c5.015,5.424,12.008,8.989,19.819,9.556V288.506z M498.253,125.066c18.331-18.332,18.331-48.161,0-66.493
	c-14.089-14.088-35.666-17.579-53.329-9.262c-30.002-26.329-69.291-42.317-112.25-42.317h-60.757
	c-39.944,0-78.491,13.999-109.068,39.502c-15.754-4.288-33.316-0.272-45.666,12.077c-16.352,16.353-18.103,41.85-5.279,60.179
	c-6.876,18.752-10.365,38.447-10.365,58.618c0,55.919,27.082,105.63,68.817,136.713c-9.049,11.891-15.474,25.263-18.941,39.291
	l-68.226-20.658c-17.426-5.277-36.364-2.918-51.964,6.476C15.627,348.585,4.68,364.221,1.19,382.092
	c-3.488,17.869,0.774,36.475,11.695,51.043c10.919,14.569,27.581,23.88,45.711,25.546l114.02,10.474
	c1.628,0.15,3.254,0.224,4.874,0.224c3.855,0,7.682-0.427,11.447-1.268c7.62,5.423,16.293,9.881,25.974,13.35
	c2.545,13.389,14.329,23.547,28.448,23.547h41.381c3.651,0,7.117-0.802,10.239-2.23c3.499,1.457,7.252,2.23,11.075,2.23h41.381
	c13.626,0,24.712-11.087,24.712-24.713c0-8.983-4.819-16.86-12.006-21.186c3.962-3.407,7.694-7.044,11.138-10.91
	c7.525-8.447,13.597-17.828,18.11-27.777c7.586,2.249,15.435,3.459,22.711,3.459c5.468,0,10.547-0.665,15.094-1.977
	c6.343-1.829,11.594-6.018,14.785-11.797c3.191-5.777,3.941-12.454,2.112-18.797c-3.776-13.091-17.498-20.676-30.593-16.896
	c-2.25,0.633-9.687-0.8-14.973-3.171c-0.729-11.596-3.401-22.852-7.981-33.621c65.543-23.744,112.504-86.614,112.504-160.25
	c0-17.35-2.615-34.099-7.456-49.883C496.496,126.728,497.386,125.933,498.253,125.066z M398.192,388.078
	c6.946,2.162,14.586,3.129,19.725,1.647c4.65-1.344,9.525,1.35,10.866,6.001c0.649,2.252,0.382,4.622-0.751,6.675
	c-1.133,2.053-2.998,3.541-5.251,4.19c-3.112,0.898-6.705,1.352-10.678,1.352c-5.48,0-11.408-0.893-17.22-2.534
	C396.481,399.732,397.591,393.937,398.192,388.078z M128.45,69.843c6.061-6.06,14.018-9.089,21.978-9.089
	c7.958,0,15.919,3.03,21.976,9.089c6.264,6.263,5.883,10.996,4.686,14.799c-2.194,6.97-9.187,14.514-14.258,19.584
	c-20.295,20.298-27.844,16.11-34.382,9.574C116.334,101.679,116.334,81.96,128.45,69.843z M60.055,442.811
	c-13.653-1.255-26.197-8.264-34.419-19.233s-11.431-24.978-8.804-38.433s10.869-25.228,22.614-32.299
	c11.744-7.071,26.008-8.846,39.124-4.876l70.225,21.263c-0.242,2.839-0.382,5.689-0.382,8.548c0,31.331,8.239,56.694,24.17,75.367
	L60.055,442.811z M284.743,489.071h-41.381c-7.185,0-13.029-5.845-13.029-13.029v-17.488c0-8.257,6.717-14.976,14.975-14.976
	c8.257,0,14.976,6.718,14.976,14.976v4.995c0,4.401,3.566,7.968,7.968,7.968h16.491c4.84,0,8.777,3.937,8.777,8.776
	C293.519,485.134,289.582,489.071,284.743,489.071z M347.438,489.071h-39.599c0.394-1.034,0.718-2.1,0.972-3.194
	c12.106-3.199,23.608-8.074,34.093-14.359h4.534c4.839,0,8.776,3.937,8.776,8.776S352.277,489.071,347.438,489.071z
	 M307.117,469.816c-3.95-8.401-12.492-14.235-22.375-14.235h-8.665c-1.5-15.655-14.728-27.939-30.77-27.939
	c-17.044,0-30.911,13.867-30.911,30.912v5.592c-33.221-14.277-50.049-43.274-50.049-86.366c0-19.83,6.641-38.629,19.235-54.767
	c25.773,15.689,56.016,24.734,88.332,24.734h60.757c14.687,0,28.948-1.869,42.554-5.38c5.022,11.253,7.573,23.135,7.573,35.412
	C382.799,420.134,352.039,457.049,307.117,469.816z M332.674,331.812h-60.757c-85.159,0-154.441-69.282-154.441-154.441
	c0-15.892,2.386-31.454,7.098-46.408c4.887,2.981,9.726,4.204,14.378,4.204c15.477,0,28.887-13.41,35.151-19.674
	c10.076-10.076,15.687-18.115,18.19-26.066c2.429-7.715,2.905-19.33-8.617-30.854c-1.58-1.579-3.249-3.012-4.985-4.32
	c26.743-20.269,59.433-31.324,93.226-31.324h60.757c85.159,0,154.442,69.283,154.442,154.442S417.833,331.812,332.674,331.812z
	 M457.607,61.659c10.31-2.493,21.578,0.384,29.376,8.183c11.192,11.192,12.039,28.863,2.557,41.046
	C481.774,92.633,470.905,76.006,457.607,61.659z M307.206,171.735c0-11.414-9.286-20.7-20.7-20.7c-11.414,0-20.7,9.286-20.7,20.7
	c0,4.401,3.566,7.968,7.968,7.968c4.401,0,7.968-3.566,7.968-7.968c0-2.628,2.137-4.765,4.765-4.765
	c2.628,0,4.765,2.137,4.765,4.765c0,4.401,3.566,7.968,7.968,7.968S307.206,176.135,307.206,171.735z M292.469,389.893
	c-3.659-0.987-12.689-10.728-13.421-14.476c-2.609-13.372-15.606-22.137-28.987-19.523c-6.478,1.264-12.077,4.976-15.765,10.451
	c-3.689,5.474-5.023,12.058-3.759,18.535c4.36,22.355,27.416,47.031,49.341,52.808c2.083,0.549,4.188,0.822,6.298,0.822
	c1.572,0,3.148-0.153,4.717-0.459c9.251-1.804,16.779-8.857,19.176-17.965c1.683-6.384,0.779-13.04-2.545-18.744
	C304.2,395.638,298.852,391.574,292.469,389.893z M294.66,416.026c-0.865,3.287-3.476,5.732-6.816,6.384
	c-1.297,0.253-2.61,0.206-3.905-0.134c-16.185-4.264-34.536-23.92-37.759-40.448c-0.449-2.3,0.024-4.637,1.334-6.581
	c1.31-1.945,3.299-3.263,5.599-3.712c0.565-0.109,1.128-0.163,1.683-0.163c4.114,0,7.796,2.912,8.612,7.097
	c1.907,9.775,15.46,24.321,25.002,26.836c2.267,0.597,4.166,2.041,5.346,4.066C294.936,411.394,295.258,413.757,294.66,416.026z
	 M423.889,151.034c-11.414,0-20.7,9.286-20.7,20.7c0,4.401,3.566,7.968,7.968,7.968c4.4,0,7.968-3.566,7.968-7.968
	c0-2.628,2.138-4.765,4.765-4.765c2.627,0,4.764,2.137,4.764,4.765c0,4.401,3.566,7.968,7.968,7.968
	c4.401,0,7.968-3.566,7.968-7.968C444.589,160.32,435.303,151.034,423.889,151.034z"/>
<g>
</g>
<g>
</g>
<g>
</g>
<g>
</g>
<g>
</g>
<g>
</g>
<g>
</g>
<g>
</g>
<g>
</g>
<g>
</g>
<g>
</g>
<g>
</g>
<g>
</g>
<g>
</g>
<g>
</g>
</svg>
