<?xml version="1.0" encoding="iso-8859-1"?>
<!-- Generator: Adobe Illustrator 19.0.0, SVG Export Plug-In . SVG Version: 6.00 Build 0)  -->
<svg version="1.1" id="Layer_1" xmlns="http://www.w3.org/2000/svg" xmlns:xlink="http://www.w3.org/1999/xlink" x="0px" y="0px"
	 viewBox="0 0 512 512" style="enable-background:new 0 0 512 512;" xml:space="preserve">
<path style="fill:#A4A8AB;" d="M366.338,372.532c0-60.939-49.401-110.341-110.341-110.341s-110.341,49.401-110.341,110.341
	s37.603,102.918,110.341,102.918S366.338,433.472,366.338,372.532z"/>
<ellipse style="fill:#F8E9B4;" cx="255.997" cy="347.798" rx="69.425" ry="72.076"/>
<path style="opacity:0.1;enable-background:new    ;" d="M344.573,306.727c-23.519,2.993-40.824,23.931-39.031,47.846l3.652,48.704
	c1.455,19.399,10.093,36.536,23.106,49.022c22.549-18.211,34.038-46.092,34.038-79.767
	C366.338,347.87,358.246,325.099,344.573,306.727z"/>
<path style="opacity:0.1;enable-background:new    ;" d="M167.424,306.727c23.519,2.993,40.824,23.931,39.031,47.846l-3.652,48.704
	c-1.455,19.399-10.093,36.536-23.106,49.022c-22.549-18.211-34.038-46.092-34.038-79.767
	C145.658,347.87,153.751,325.099,167.424,306.727z"/>
<g style="opacity:0.1;">
	<path d="M255.998,385.386c-4.358,0-7.889-3.531-7.889-7.889v-14.495c0-4.358,3.531-7.889,7.889-7.889
		c4.358,0,7.889,3.531,7.889,7.889v14.495C263.888,381.854,260.355,385.386,255.998,385.386z"/>
	<path d="M230.233,393.568c-4.358,0-7.889-3.531-7.889-7.889v-14.494c0-4.358,3.531-7.889,7.889-7.889s7.889,3.531,7.889,7.889
		v14.494C238.122,390.037,234.591,393.568,230.233,393.568z"/>
	<path d="M281.762,393.568c-4.358,0-7.889-3.531-7.889-7.889v-14.494c0-4.358,3.531-7.889,7.889-7.889
		c4.357,0,7.889,3.531,7.889,7.889v14.494C289.652,390.037,286.119,393.568,281.762,393.568z"/>
</g>
<path style="opacity:0.1;enable-background:new    ;" d="M255.998,262.192c-46.392,0-86.09,28.633-102.404,69.188
	c29.473,13.114,64.636,19.791,102.404,19.791s72.931-6.676,102.404-19.791C342.089,290.824,302.39,262.192,255.998,262.192z"/>
<g>
	<path style="fill:#4A5058;" d="M110.834,457.008L110.834,457.008c-7.539-1.391-12.523-8.629-11.132-16.168l20.095-108.953
		c4.494-24.362,27.886-40.469,52.248-35.976l0,0c24.362,4.494,40.468,27.886,35.976,52.248l-8.859,48.031
		C191.565,437.375,152.02,464.605,110.834,457.008z"/>
	<path style="fill:#4A5058;" d="M401.162,457.008L401.162,457.008c7.539-1.391,12.523-8.629,11.132-16.168l-20.095-108.953
		c-4.494-24.362-27.886-40.469-52.248-35.976l0,0c-24.362,4.494-40.468,27.886-35.976,52.248l8.859,48.031
		C320.431,437.375,359.976,464.605,401.162,457.008z"/>
</g>
<path style="opacity:0.15;enable-background:new    ;" d="M339.951,295.912L339.951,295.912
	c-24.092,4.443-40.096,27.369-36.104,51.437c31.311-5.202,59.44-15.689,82.147-31.306
	C376.484,301.023,358.504,292.491,339.951,295.912z"/>
<path style="opacity:0.15;enable-background:new    ;" d="M172.045,295.912L172.045,295.912c-18.552-3.422-36.533,5.11-46.042,20.13
	c22.706,15.617,50.835,26.105,82.147,31.306C212.141,323.281,196.136,300.356,172.045,295.912z"/>
<path style="fill:#A4A8AB;" d="M444.195,182.162c0-96.33-84.259-141.116-188.197-141.116c-103.939,0-188.197,44.785-188.197,141.116
	s84.259,146.847,188.197,146.847C359.936,329.009,444.195,278.492,444.195,182.162z"/>
<path style="opacity:0.1;enable-background:new    ;" d="M327.855,49.209h-10.543c-33.863,0-61.314,27.451-61.314,61.314
	c0-33.863-27.451-61.314-61.314-61.314h-10.543C121.8,64.608,76.331,102.078,68.885,163.837c3.986,0.744,8.089,1.151,12.289,1.151
	h85.135c16.306,0,32.313,4.383,46.345,12.689l26.96,15.959c10.103,5.981,22.662,5.981,32.765,0l26.959-15.958
	c14.032-8.307,30.04-12.689,46.348-12.689h85.135c4.2,0,8.305-0.407,12.289-1.151C435.666,102.079,390.197,64.608,327.855,49.209z"
	/>
<path style="fill:#F8E9B4;" d="M476.543,9.856L476.543,9.856c-28.746,17.016-61.537,25.994-94.942,25.994h-64.289
	c-33.863,0-61.314,27.451-61.314,61.314c0-33.863-27.451-61.314-61.314-61.314h-64.289c-33.405,0-66.196-8.978-94.942-25.994l0,0
	c-9.215-5.455-20.865,1.188-20.865,11.896v63.291c0,36.774,29.812,66.586,66.586,66.586h85.135c16.306,0,32.313,4.382,46.345,12.689
	l26.96,15.959c10.103,5.98,22.662,5.98,32.764,0l26.959-15.958c14.032-8.307,30.04-12.689,46.348-12.689h85.135
	c36.774,0,66.586-29.812,66.586-66.586V21.751C497.408,11.043,485.757,4.401,476.543,9.856z"/>
<path style="opacity:0.1;enable-background:new    ;" d="M31.666,81.954V13.387c0-1.728,0.286-3.356,0.795-4.86
	c-8.559-2.668-17.873,3.649-17.873,13.223v63.291c0,36.774,29.812,66.586,66.586,66.586h3.925
	C54.329,143.389,31.666,115.324,31.666,81.954z"/>
<path style="opacity:0.1;enable-background:new    ;" d="M241.027,189.01l-11.826,7.703c-6.852,4.463-8.823,15.359-4.151,22.942
	l19.621,31.846c5.144,8.348,15.39,8.348,20.533,0l19.621-31.846c4.672-7.583,2.701-18.479-4.151-22.942l-11.826-7.703
	C260.151,183.346,249.722,183.346,241.027,189.01z"/>
<g>
	<path style="fill:#F4B759;" d="M240.752,184.982l-12.962,6.903c-7.509,3.999-9.671,13.761-4.549,20.556l21.506,28.535
		c5.637,7.48,16.868,7.48,22.505,0l21.506-28.535c5.121-6.794,2.96-16.557-4.549-20.556l-12.962-6.903
		C261.713,179.907,250.282,179.907,240.752,184.982z"/>
	<path style="fill:#F4B759;" d="M220.362,504.111c-9.326,0-16.886-7.56-16.886-16.886v-28.698c0-9.326,7.56-16.886,16.886-16.886
		c9.326,0,16.886,7.56,16.886,16.886v28.698C237.248,496.551,229.688,504.111,220.362,504.111z"/>
	<path style="fill:#F4B759;" d="M291.634,504.111c-9.326,0-16.886-7.56-16.886-16.886v-28.698c0-9.326,7.56-16.886,16.886-16.886
		c9.326,0,16.886,7.56,16.886,16.886v28.698C308.521,496.551,300.96,504.111,291.634,504.111z"/>
</g>
<path d="M338.531,186.362c-10.417,0-18.893,8.476-18.893,18.893c0,4.358,3.531,7.889,7.889,7.889s7.889-3.531,7.889-7.889
	c0-1.718,1.397-3.115,3.115-3.115s3.115,1.397,3.115,3.115c0,4.358,3.531,7.889,7.889,7.889s7.889-3.531,7.889-7.889
	C357.424,194.838,348.948,186.362,338.531,186.362z M173.466,186.362c-10.417,0-18.893,8.476-18.893,18.893
	c0,4.358,3.531,7.889,7.889,7.889c4.358,0,7.889-3.531,7.889-7.889c0-1.718,1.397-3.115,3.115-3.115
	c1.718,0,3.115,1.397,3.115,3.115c0,4.358,3.531,7.889,7.889,7.889s7.889-3.531,7.889-7.889
	C192.359,194.838,183.883,186.362,173.466,186.362z M494.339,2.888c-6.86-3.913-15.018-3.846-21.814,0.178
	c-27.51,16.286-58.951,24.894-90.924,24.894h-64.289c-10.573,0-20.595,2.39-29.567,6.648c-10.282-0.95-20.939-1.452-31.747-1.452
	s-21.465,0.502-31.747,1.452c-8.972-4.258-18.994-6.648-29.567-6.648h-64.289c-31.972,0-63.412-8.609-90.924-24.894
	c-6.799-4.026-14.955-4.09-21.814-0.178C10.796,6.801,6.699,13.852,6.699,21.751v63.291c0,34.399,23.447,63.411,55.194,71.93
	c-1.315,8.115-1.981,16.556-1.981,25.19c0,48.179,20.188,88.269,58.382,115.937c2.514,1.821,5.1,3.573,7.741,5.27
	c-7.162,7.413-12.107,16.839-13.998,27.088L91.943,439.411c-2.175,11.805,5.657,23.18,17.461,25.356
	c5.112,0.942,10.199,1.397,15.222,1.397c16.005-0.001,31.304-4.625,44.348-12.794c7.631,7.269,16.543,13.291,26.614,17.974v15.882
	c0,13.661,11.113,24.775,24.775,24.775s24.776-11.113,24.776-24.775v-4.211c3.571,0.21,7.197,0.326,10.86,0.326
	s7.29-0.116,10.861-0.326v4.211c0,13.661,11.113,24.775,24.775,24.775c13.661,0,24.775-11.113,24.775-24.775v-15.882
	c10.07-4.682,18.98-10.704,26.612-17.972c13.042,8.169,28.343,12.792,44.349,12.792c5.02,0,10.113-0.456,15.222-1.397
	c5.72-1.055,10.685-4.274,13.983-9.062c3.298-4.79,4.534-10.577,3.479-16.295l-20.094-108.952
	c-1.891-10.251-6.836-19.677-13.998-27.088c2.641-1.698,5.228-3.449,7.742-5.27c38.194-27.668,58.382-67.758,58.382-115.937
	c0-8.634-0.666-17.074-1.981-25.19c31.747-8.518,55.194-37.532,55.194-71.93V21.751C505.297,13.852,501.2,6.801,494.339,2.888z
	 M255.998,48.936c3.873,0,7.714,0.088,11.533,0.216c-4.557,4.723-8.456,10.083-11.533,15.943
	c-3.078-5.859-6.977-11.22-11.534-15.943C248.285,49.023,252.125,48.936,255.998,48.936z M163.12,438.395
	c-14.947,10.291-33.005,14.147-50.856,10.854c-1.573-0.289-2.94-1.175-3.847-2.493c-0.908-1.319-1.249-2.912-0.957-4.485
	l20.095-108.952c1.594-8.642,6.063-16.203,12.728-21.709c17.734,9.206,37.769,15.973,59.648,20.177
	c1.119,4.887,1.245,9.976,0.33,14.941l-8.859,48.031C188.112,412.605,178.068,428.103,163.12,438.395z M229.359,487.226
	c0,4.961-4.036,8.997-8.998,8.997c-4.961,0-8.997-4.036-8.997-8.997v-28.698c0-4.962,4.036-8.998,8.997-8.998
	c4.962,0,8.998,4.036,8.998,8.998V487.226z M300.63,487.226c0,4.961-4.036,8.997-8.997,8.997s-8.997-4.036-8.997-8.997v-28.698
	c0-4.962,4.036-8.998,8.997-8.998s8.997,4.036,8.997,8.998V487.226z M315.956,453.828c-2.203-11.421-12.268-20.076-24.322-20.076
	c-13.661,0-24.775,11.114-24.775,24.776v8.674c-3.561,0.23-7.187,0.36-10.861,0.36s-7.3-0.13-10.86-0.36v-8.674
	c0-13.661-11.114-24.776-24.776-24.776c-12.055,0-22.12,8.655-24.322,20.076c-5.241-2.953-10.043-6.362-14.366-10.222
	c12.701-11.821,21.865-27.65,25.246-45.985l8.859-48.032c0.926-5.022,1.086-10.132,0.547-15.167
	c12.71,1.643,25.96,2.476,39.671,2.476c13.711,0,26.961-0.833,39.671-2.476c-0.539,5.036-0.379,10.148,0.547,15.168l8.859,48.031
	c3.382,18.336,12.545,34.164,25.244,45.987C325.998,447.467,321.196,450.875,315.956,453.828z M404.535,442.271
	c0.29,1.574-0.049,3.167-0.956,4.485c-0.908,1.318-2.274,2.204-3.848,2.493c-17.849,3.296-35.907-0.563-50.855-10.854
	c-14.947-10.292-24.992-25.789-28.283-43.635l-8.859-48.031c-0.916-4.965-0.79-10.053,0.329-14.941
	c21.878-4.204,41.914-10.971,59.648-20.177c6.665,5.507,11.134,13.067,12.729,21.709L404.535,442.271z M384.445,285.32
	c-31.869,23.085-77.486,35.799-128.447,35.799s-96.579-12.714-128.447-35.799c-33.927-24.576-51.86-60.248-51.86-103.158
	c0-7.817,0.603-15.435,1.791-22.739c1.223,0.06,2.454,0.094,3.692,0.094h85.136c14.882,0,29.519,4.007,42.327,11.59l19.599,11.602
	l-4.155,2.212c-5.618,2.993-9.63,8.272-11.006,14.488c-1.376,6.216,0.033,12.696,3.865,17.78l21.506,28.536
	c4.191,5.56,10.588,8.75,17.553,8.75c6.965,0,13.361-3.189,17.553-8.751l21.506-28.535c3.832-5.084,5.241-11.565,3.865-17.78
	c-1.376-6.215-5.388-11.495-11.007-14.488l-4.155-2.212l19.599-11.602c12.809-7.582,27.447-11.59,42.329-11.59h85.135
	c1.238,0,2.469-0.034,3.692-0.094c1.188,7.303,1.791,14.922,1.791,22.739C436.306,225.072,418.372,260.743,384.445,285.32z
	 M228.48,202.819c0.222-1,0.908-2.847,3.016-3.97l12.962-6.901c0.001,0,0.001,0,0.001,0c3.613-1.924,7.575-2.885,11.538-2.885
	c3.964,0,7.926,0.961,11.539,2.885l12.961,6.901c2.109,1.122,2.795,2.969,3.017,3.97c0.222,1.001,0.379,2.965-1.059,4.874
	l-21.506,28.534c-1.182,1.569-2.987,2.47-4.952,2.47s-3.77-0.899-4.952-2.469l-21.506-28.535
	C228.101,205.784,228.259,203.82,228.48,202.819z M489.519,85.042c0,32.365-26.331,58.697-58.697,58.697h-85.135
	c-17.709,0-35.126,4.768-50.367,13.789l-26.958,15.958c-0.692,0.41-1.408,0.786-2.143,1.126c-6.704-1.761-13.741-1.761-20.445,0
	c-0.734-0.341-1.451-0.716-2.142-1.124l-26.96-15.959c-15.24-9.021-32.656-13.789-50.365-13.789H81.174
	c-32.366,0-58.697-26.331-58.697-58.697V21.751c0-3.112,2.094-4.642,2.996-5.154c0.898-0.514,3.286-1.538,5.962,0.048
	c29.942,17.725,64.162,27.095,98.96,27.095h64.289c29.458,0,53.425,23.966,53.425,53.426c0,4.358,3.531,7.889,7.889,7.889
	s7.889-3.531,7.889-7.889c0-29.459,23.966-53.426,53.425-53.426H381.6c34.798,0,69.018-9.369,98.96-27.095
	c2.677-1.585,5.064-0.562,5.962-0.048c0.901,0.512,2.996,2.043,2.996,5.154v63.291H489.519z"/>
<g>
</g>
<g>
</g>
<g>
</g>
<g>
</g>
<g>
</g>
<g>
</g>
<g>
</g>
<g>
</g>
<g>
</g>
<g>
</g>
<g>
</g>
<g>
</g>
<g>
</g>
<g>
</g>
<g>
</g>
</svg>
