<?xml version="1.0" encoding="iso-8859-1"?>
<!-- Generator: Adobe Illustrator 19.0.0, SVG Export Plug-In . SVG Version: 6.00 Build 0)  -->
<svg version="1.1" id="Layer_1" xmlns="http://www.w3.org/2000/svg" xmlns:xlink="http://www.w3.org/1999/xlink" x="0px" y="0px"
	 viewBox="0 0 512 512" style="enable-background:new 0 0 512 512;" xml:space="preserve">
<path style="fill:#BD4936;" d="M202.432,454.366L183.197,473.6c-34.028,34.028-89.199,34.028-123.227,0l0,0
	c-6.582-6.582-6.582-17.253,0-23.835l68.931-68.93c20.305-20.305,53.226-20.305,73.531,0l0,0
	C222.737,401.14,222.737,434.061,202.432,454.366z"/>
<path style="opacity:0.1;enable-background:new    ;" d="M202.432,380.835L202.432,380.835c-20.305-20.305-53.226-20.305-73.531,0
	l-25.582,25.582c10.127,39.15,41.856,62.065,80.907,66.154l18.206-18.206C222.737,434.061,222.737,401.14,202.432,380.835z"/>
<path style="fill:#BD4936;" d="M308.806,402.303h27.202c48.123,0,87.135-39.011,87.135-87.135l0,0
	c0-9.308-7.546-16.854-16.854-16.854h-97.483c-28.716,0-51.995,23.279-51.995,51.995l0,0
	C256.812,379.024,280.091,402.303,308.806,402.303z"/>
<path style="fill:#F7DA70;" d="M369.276,315.168L369.276,315.168c0-9.308-7.546-16.854-16.854-16.854h53.868
	c9.308,0,16.854,7.546,16.854,16.854l0,0c0,48.123-39.012,87.135-87.135,87.135h-27.202c-3.977,0-7.845-0.461-11.566-1.308
	C338.166,393.844,369.276,358.141,369.276,315.168z"/>
<path style="fill:#BDD186;" d="M395.898,315.168L395.898,315.168c0-9.308-7.546-16.854-16.854-16.854h27.246
	c9.308,0,16.854,7.546,16.854,16.854l0,0c0,48.123-39.012,87.135-87.135,87.135h-27.202c-0.004,0-0.01,0-0.014,0
	C356.902,402.287,395.898,363.281,395.898,315.168z"/>
<path style="fill:#D4624E;" d="M312.732,364.279c0-61.177-43.507-110.771-97.177-110.771s-97.177,49.594-97.177,110.771
	s43.507,94.785,97.177,94.785C269.224,459.064,312.732,425.456,312.732,364.279z"/>
<path style="opacity:0.1;enable-background:new    ;" d="M215.555,253.507c-29.232,0-55.447,14.715-73.262,37.999
	c21.701,15.199,48.118,24.123,76.622,24.123h31.815c16.685,0,31.508-7.941,40.919-20.244
	C273.846,269.869,246.378,253.507,215.555,253.507z"/>
<path style="fill:#4A5058;" d="M484.821,167.547H252.176v24.846c0,44.438,36.024,80.462,80.463,80.462h93.198
	c32.576,0,58.984-26.408,58.984-58.984V167.547z"/>
<path style="opacity:0.15;enable-background:new    ;" d="M482.1,167.547H307.793v64.742
	c29.125,7.993,107.774,21.307,157.484,25.433c11.996-10.797,19.543-26.44,19.543-43.851v-40.479
	C483.942,171.428,483.03,169.482,482.1,167.547z"/>
<path style="fill:#F7DA70;" d="M307.793,16.107c103.742,17.224,184.671,101.928,196.163,207.496
	c0.869,7.988-5.477,14.937-13.512,14.937c-42.372,0-147.857-17.146-182.651-26.694V16.107z"/>
<path style="fill:#D4624E;" d="M268.757,12.883h-49.626c-78.602,0-142.321,63.719-142.321,142.321l0,0
	c0,78.602,63.719,142.321,142.321,142.321h33.859c30.268,0,54.803-24.537,54.803-54.803V16.107
	C295.093,13.998,282.056,12.883,268.757,12.883z"/>
<path style="fill:#FFFFFF;" d="M155.583,122.135L155.583,122.135c0-27.816,22.549-50.365,50.364-50.365l0,0
	c12.869,0,25.471,3.668,36.33,10.574l0,0c16.132,10.259,36.423,11.445,53.641,3.135l11.875-5.732V172.5H205.947
	C178.131,172.5,155.583,149.951,155.583,122.135z"/>
<path style="fill:#BD4936;" d="M122.304,402.303H95.102c-48.124,0-87.135-39.012-87.135-87.135l0,0
	c0-9.308,7.545-16.854,16.854-16.854h97.483c28.716,0,51.994,23.279,51.994,51.995l0,0
	C174.297,379.024,151.018,402.303,122.304,402.303z"/>
<path style="fill:#F7DA70;" d="M61.834,315.168L61.834,315.168c0-9.308,7.545-16.854,16.854-16.854H24.82
	c-9.308,0-16.854,7.546-16.854,16.854l0,0c0,48.123,39.011,87.135,87.135,87.135h27.202c3.977,0,7.845-0.461,11.566-1.308
	C92.943,393.844,61.834,358.141,61.834,315.168z"/>
<path style="fill:#BDD186;" d="M35.212,315.168L35.212,315.168c0-9.308,7.546-16.854,16.854-16.854H24.82
	c-9.308,0-16.854,7.546-16.854,16.854l0,0c0,48.123,39.011,87.135,87.135,87.135h27.202c0.005,0,0.01,0,0.015,0
	C74.208,402.287,35.212,363.281,35.212,315.168z"/>
<g>
	<path style="fill:#F7DA70;" d="M191.98,491.408c-8.509,0-15.408-6.898-15.408-15.407v-30.098c0-8.51,6.898-15.407,15.408-15.407
		c8.51,0,15.407,6.898,15.407,15.407v30.098C207.387,484.51,200.489,491.408,191.98,491.408z"/>
	<path style="fill:#F7DA70;" d="M253.486,491.408c-8.51,0-15.408-6.898-15.408-15.407v-30.098c0-8.51,6.898-15.407,15.408-15.407
		c8.509,0,15.408,6.898,15.408,15.407v30.098C268.892,484.51,261.994,491.408,253.486,491.408z"/>
</g>
<path d="M205.947,104.49c-11.786,0-21.374,9.588-21.374,21.373c0,4.401,3.567,7.967,7.967,7.967c4.4,0,7.967-3.566,7.967-7.967
	c0-3,2.44-5.44,5.441-5.44c3,0,5.44,2.44,5.44,5.44c0,4.401,3.567,7.967,7.967,7.967c4.4,0,7.967-3.566,7.967-7.967
	C227.32,114.078,217.733,104.49,205.947,104.49z M511.876,222.74C500.074,114.314,416.689,26.111,309.098,8.248
	c-13.314-2.211-26.889-3.332-40.343-3.332h-49.625c-82.869,0-150.288,67.42-150.288,150.289c0,53.565,28.174,100.666,70.476,127.286
	c-2.354,2.797-4.58,5.728-6.683,8.767c-3.359-0.586-6.808-0.909-10.332-0.909H24.82c-13.686,0-24.82,11.134-24.82,24.82
	c0,50.198,39.096,91.432,88.436,94.864l-34.1,34.1c-9.676,9.677-9.676,25.424,0,35.102c16.824,16.824,39.17,26.679,62.922,27.751
	c1.449,0.066,2.892,0.099,4.335,0.099c18.823-0.001,37.085-5.557,52.628-15.909c4.29,5.013,10.656,8.199,17.756,8.199
	c12.888,0,23.374-10.485,23.374-23.374v-8.974c0.067,0,0.135,0.003,0.201,0.003c4.912,0,9.779-0.275,14.557-0.809v9.779
	c0,12.888,10.485,23.374,23.374,23.374c12.889,0,23.375-10.485,23.375-23.374v-25.75c15.542-9.893,27.231-23.496,34.611-39.982
	h24.538c52.439,0,95.101-42.662,95.101-95.101c0-13.686-11.134-24.82-24.82-24.82h-97.483c-3.462,0-6.919,0.305-10.332,0.902
	c-0.726-1.048-1.465-2.087-2.223-3.11c3.611-3.441,6.811-7.304,9.524-11.513c8.669,2.771,17.672,4.197,26.864,4.197h93.198
	c24.359,0,46.76-13.347,58.499-34.418c2.153,0.067,4.197,0.102,6.108,0.102c6.126,0,11.984-2.616,16.077-7.178
	C510.579,234.806,512.53,228.759,511.876,222.74z M15.934,315.168c0-4.9,3.987-8.887,8.887-8.887h97.483
	c24.277,0,44.027,19.75,44.027,44.027c0,24.278-19.75,44.027-44.027,44.027H95.102C51.449,394.335,15.934,358.821,15.934,315.168z
	 M168.606,475.668c-14.551,10.773-32.366,16.234-50.628,15.4c-19.768-0.892-38.369-9.097-52.374-23.101
	c-3.465-3.466-3.465-9.103,0-12.568l45.129-45.129h8.95c9.648,21.397,26.745,38.022,48.921,47.555v17.844H168.606z M199.42,476.001
	c0,4.102-3.338,7.44-7.44,7.44c-4.102,0-7.44-3.338-7.44-7.44v-30.098c0-4.102,3.338-7.44,7.44-7.44c4.102,0,7.44,3.338,7.44,7.44
	V476.001z M260.927,476.001c0,4.102-3.339,7.44-7.441,7.44c-4.102,0-7.44-3.338-7.44-7.44v-30.098c0-4.102,3.338-7.44,7.44-7.44
	c4.102,0,7.441,3.338,7.441,7.44V476.001z M308.806,306.281h97.483c4.9,0,8.887,3.987,8.887,8.887
	c0,43.653-35.515,79.167-79.167,79.167h-18.984c2.422-9.363,3.674-19.416,3.674-30.057c0-20.573-4.638-40.416-13.334-57.948
	C307.845,306.314,308.325,306.281,308.806,306.281z M304.764,364.279c0,29.615-11.125,53.785-31.543,69.125
	c-4.15-6.529-11.443-10.873-19.735-10.873c-12.888,0-23.374,10.485-23.374,23.374v4.272c-4.808,0.619-9.741,0.935-14.758,0.922
	v-5.194c0-12.888-10.485-23.374-23.374-23.374c-11.031,0-20.296,7.684-22.738,17.98c-14.243-7.348-25.326-18.193-32.663-31.97
	c26.192-6.422,45.687-30.087,45.687-58.23c0-23.645-13.761-44.131-33.691-53.887c1.588-2.078,3.242-4.09,4.97-6.017
	c19.831,9.659,42.086,15.086,65.588,15.086h33.859c11.029,0,21.397-2.869,30.413-7.885
	C297.209,316.207,304.764,339.604,304.764,364.279z M299.827,242.722c0,25.826-21.01,46.837-46.837,46.837h-33.86
	c-74.083,0-134.354-60.271-134.354-134.354S145.047,20.85,219.131,20.85h49.626c10.346,0,20.769,0.709,31.071,2.111V242.722z
	 M425.837,264.889h-93.198c-6.806,0-13.484-0.952-19.947-2.805c1.984-6.103,3.07-12.606,3.07-19.362v-20.666
	c35.026,8.18,104.9,19.589,150.221,23.261C456.434,257.474,441.68,264.889,425.837,264.889z M494.66,228.69
	c-0.631,0.703-2.017,1.883-4.216,1.883c-39.67,0-135.498-15.247-174.683-24.896V25.705
	c96.059,20.082,169.584,100.544,180.275,198.76C496.263,226.554,495.271,228.008,494.66,228.69z"/>
<g>
</g>
<g>
</g>
<g>
</g>
<g>
</g>
<g>
</g>
<g>
</g>
<g>
</g>
<g>
</g>
<g>
</g>
<g>
</g>
<g>
</g>
<g>
</g>
<g>
</g>
<g>
</g>
<g>
</g>
</svg>
