<?xml version="1.0" encoding="iso-8859-1"?>
<!-- Generator: Adobe Illustrator 19.0.0, SVG Export Plug-In . SVG Version: 6.00 Build 0)  -->
<svg version="1.1" id="Layer_1" xmlns="http://www.w3.org/2000/svg" xmlns:xlink="http://www.w3.org/1999/xlink" x="0px" y="0px"
	 viewBox="0 0 512 512" style="enable-background:new 0 0 512 512;" xml:space="preserve">
<path style="fill:#4A5058;" d="M36.618,315.586c0-8.953-6.429-16.212-14.36-16.212s-14.36,7.258-14.36,16.212
	c0,8.953,6.429,24.534,14.36,24.534S36.618,324.539,36.618,315.586z"/>
<circle style="fill:#EDBCB9;" cx="141.562" cy="367.13" r="50.701"/>
<path style="opacity:0.1;enable-background:new    ;" d="M141.567,316.422c-28.004,0-50.705,22.701-50.705,50.705
	c0,10.892,3.445,20.973,9.29,29.237h82.829c5.845-8.264,9.29-18.345,9.29-29.237C192.272,339.123,169.571,316.422,141.567,316.422z"
	/>
<path style="fill:#E8E8E8;" d="M308.908,456.302h-52.773c-3.001,0-5.433-2.432-5.433-5.432V336.425h63.639v114.444
	C314.341,453.87,311.908,456.302,308.908,456.302z"/>
<path style="fill:#7D7060;" d="M308.908,456.302h-52.773c-3.001,0-5.433-2.432-5.433-5.432v-26.933h63.639v26.933
	C314.341,453.87,311.908,456.302,308.908,456.302z"/>
<path style="opacity:0.2;enable-background:new    ;" d="M308.908,456.302h-52.773c-3.001,0-5.433-2.432-5.433-5.432V336.425h63.639
	v114.444C314.341,453.87,311.908,456.302,308.908,456.302z"/>
<path style="fill:#E8E8E8;" d="M262.89,221.728H142.87c-48.157,0-87.195,39.039-87.195,87.195v141.946
	c0,3.001,2.432,5.433,5.433,5.433h52.773c3.001,0,5.433-2.432,5.433-5.433v-66.057c4.368,0.769,8.854,1.192,13.442,1.192h72v64.865
	c0,3.001,2.432,5.433,5.433,5.433h52.773c3,0,5.432-2.432,5.432-5.433v-66.288c40.7-7.365,71.577-42.951,71.577-85.772l0,0
	C339.971,256.238,305.461,221.728,262.89,221.728z"/>
<path style="opacity:0.05;enable-background:new    ;" d="M262.89,221.728H142.87c-3.623,0-7.187,0.247-10.694,0.676
	c9.709,61.93,76.923,109.88,158.403,109.88c15.481,0,30.444-1.737,44.599-4.966c3.092-8.937,4.793-18.522,4.793-28.509l0,0
	C339.971,256.238,305.461,221.728,262.89,221.728z"/>
<path style="fill:#4A5058;" d="M125.054,223.556c-35.975,7.47-63.805,37.109-68.616,73.987c6.173,2.449,12.896,3.81,19.941,3.81
	c29.89,0,54.121-24.231,54.121-54.121C130.499,238.74,128.539,230.708,125.054,223.556z"/>
<g>
	<path style="fill:#7D7060;" d="M188.985,67.64l-0.018,38.673c-0.002,3.553,2.717,6.515,6.256,6.818l0,0
		c20.188,1.73,39.313-9.311,47.909-27.661l0,0c1.507-3.217,0.301-7.053-2.777-8.827l-33.5-19.32
		C198.912,52.741,188.989,58.471,188.985,67.64z"/>
	<path style="fill:#7D7060;" d="M415.339,67.64l0.018,38.673c0.002,3.553-2.717,6.515-6.256,6.818l0,0
		c-20.189,1.73-39.314-9.311-47.909-27.661l0,0c-1.507-3.217-0.3-7.053,2.777-8.827l33.5-19.32
		C405.411,52.741,415.335,58.471,415.339,67.64z"/>
</g>
<g>
	<path style="fill:#A4A8AB;" d="M189.81,122.21l-35.689,8.865c-22.499,5.589-41.406,20.778-51.712,41.544l0,0
		c-6.678,13.456,2.595,29.353,17.595,30.164l0,0c21.2,1.146,40.826-11.175,49.007-30.767L189.81,122.21z"/>
	<path style="fill:#A4A8AB;" d="M414.513,122.21l35.689,8.865c22.499,5.589,41.406,20.778,51.712,41.544l0,0
		c6.678,13.456-2.595,29.353-17.594,30.164l0,0c-21.2,1.146-40.826-11.175-49.007-30.767L414.513,122.21z"/>
</g>
<ellipse style="fill:#E8E8E8;" cx="302.162" cy="190.23" rx="159.61" ry="125.357"/>
<path style="fill:#4A5058;" d="M292.144,65.13c-41.98,2.043-79.561,16.824-106.558,39.489
	c10.875,14.137,27.951,23.257,47.166,23.257c32.852,0,59.484-26.632,59.484-59.484C292.237,67.296,292.202,66.21,292.144,65.13z"/>
<path style="fill:#EDBCB9;" d="M302.162,166.845c-68.907,0-126.682,34.217-142.253,80.297
	c26.403,40.625,80.19,68.444,142.253,68.444s115.848-27.819,142.252-68.444C428.844,201.062,371.069,166.845,302.162,166.845z"/>
<ellipse style="opacity:0.2;enable-background:new    ;" cx="259.706" cy="239.857" rx="19.259" ry="32.927"/>
<ellipse style="opacity:0.2;enable-background:new    ;" cx="344.618" cy="239.857" rx="19.259" ry="32.927"/>
<g>
	<path style="fill:#7D7060;" d="M262.961,456.302h-52.773c-3.001,0-5.433-2.432-5.433-5.432v-26.933h63.639v26.933
		C268.393,453.87,265.961,456.302,262.961,456.302z"/>
	<path style="fill:#7D7060;" d="M113.879,456.302H61.107c-3,0-5.433-2.432-5.433-5.432v-26.933h63.639v26.933
		C119.313,453.87,116.88,456.302,113.879,456.302z"/>
</g>
<circle style="fill:#4A5058;" cx="189.715" cy="342.048" r="19.006"/>
<path d="M216.373,139.444c-11.143,0-20.208,9.065-20.208,20.208c0,4.361,3.536,7.897,7.897,7.897s7.897-3.536,7.897-7.897
	c0-2.433,1.98-4.413,4.413-4.413c2.433,0,4.413,1.98,4.413,4.413c0,4.361,3.536,7.897,7.897,7.897s7.897-3.536,7.897-7.897
	C236.58,148.509,227.515,139.444,216.373,139.444z M508.986,169.11c-11.356-22.883-32.089-39.539-56.882-45.698l-5.978-1.485
	c-6.404-8.516-14.053-16.509-22.876-23.835l-0.015-30.455c-0.003-7.159-3.706-13.571-9.907-17.151
	c-6.199-3.579-13.603-3.58-19.805-0.004l-28.18,16.252c-19.801-6.397-41.173-9.753-63.182-9.753s-43.38,3.356-63.182,9.753
	l-28.18-16.252c-6.202-3.577-13.605-3.575-19.805,0.004c-6.2,3.58-9.904,9.991-9.907,17.151l-0.014,30.455
	c-8.824,7.327-16.472,15.32-22.877,23.835l-5.978,1.485c-24.792,6.159-45.525,22.815-56.882,45.698
	c-4.321,8.707-3.976,18.918,0.92,27.313c4.897,8.396,13.616,13.721,23.321,14.247c1.03,0.056,2.06,0.083,3.09,0.083
	c4.59,0,9.177-0.568,13.64-1.642c0.289,1.636,0.611,3.266,0.974,4.887c-25.205,1.467-47.803,12.795-63.988,30.175
	c-31.244,6.401-52.726,24.545-57.774,48.435C6.532,295.708,0,304.835,0,315.586c0,11.008,7.856,32.432,22.258,32.432
	s22.258-21.424,22.258-32.432c0-9.728-5.35-18.123-13.027-21.929c3.871-14.429,15.604-23.061,26.781-28.128
	c-6.704,13.017-10.493,27.771-10.493,43.394v141.946c0,7.35,5.98,13.331,13.331,13.331h52.773c7.35,0,13.331-5.98,13.331-13.331
	v-26.93c0.722,0.182,1.447,0.352,2.175,0.506v2.669c0,4.361,3.536,7.897,7.897,7.897c4.361,0,7.897-3.536,7.897-7.897v-1.505
	c3.045-0.184,6.037-0.598,8.957-1.232v0.631c0,4.361,3.536,7.897,7.897,7.897s7.897-3.536,7.897-7.897v-6.554
	c10.03-5.533,18.35-13.989,23.757-24.554h3.169v56.968c0,7.35,5.98,13.331,13.331,13.331h98.721c7.35,0,13.33-5.98,13.33-13.331
	v-87.124c11.51-12.309,19.76-27.683,23.45-44.78c27.771-5.894,53.265-17.429,74.216-33.883
	c26.402-20.735,43.036-47.212,48.109-75.97c4.464,1.074,9.05,1.642,13.64,1.642c1.031,0,2.062-0.027,3.09-0.083
	c9.706-0.525,18.424-5.85,23.322-14.247C512.964,188.026,513.308,177.816,508.986,169.11z M22.258,331.999
	c-2.504-1.91-6.463-10.19-6.463-16.413c0-4.507,2.96-8.314,6.463-8.314s6.463,3.808,6.463,8.314
	C28.721,321.809,24.761,330.09,22.258,331.999z M401.414,64.164c1.814-1.047,3.414-0.349,4.017,0.001
	c0.604,0.349,2.009,1.386,2.01,3.479l0.009,18.877c-7.303-4.704-15.035-8.88-23.121-12.503L401.414,64.164z M196.882,67.644
	c0.001-2.093,1.406-3.131,2.01-3.479c0.603-0.35,2.206-1.047,4.017-0.001l17.085,9.853c-8.085,3.624-15.818,7.799-23.121,12.503
	L196.882,67.644z M134.65,190.232c0,0.995,0.019,1.987,0.045,2.978c-4.614,1.361-9.459,1.948-14.264,1.687
	c-4.448-0.24-8.287-2.585-10.531-6.433c-2.245-3.848-2.397-8.344-0.416-12.334c7.681-15.479,20.615-27.458,36.326-33.998
	C138.482,157.256,134.65,173.497,134.65,190.232z M111.415,448.405H63.571v-16.571h47.844V448.405z M141.567,409.935
	c-4.962,0-9.772-0.83-14.357-2.469v-13.752c1.859,0.124,3.709,0.187,5.545,0.187h42.234
	C167.016,403.901,154.861,409.935,141.567,409.935z M260.497,448.405h-47.844v-16.571h47.844V448.405z M306.443,448.405H276.29
	v-16.571h30.153V448.405z M306.443,416.039H276.29v-25.096c10.952-2.782,21.115-7.458,30.153-13.639V416.039z M266.987,376.81
	c-3.758,0.68-6.492,3.952-6.492,7.771v31.458h-47.844v-30.035c0-4.361-3.536-7.897-7.897-7.897h-72
	c-3.964,0-8.027-0.361-12.073-1.073c-2.3-0.405-4.657,0.227-6.446,1.729c-1.788,1.5-2.82,3.715-2.82,6.049v31.228H63.571V308.923
	c0-43.445,35.122-78.825,78.462-79.276c8.018,20.766,22.406,39.745,42.385,55.435c31.532,24.764,73.347,38.402,117.743,38.402
	c8.956,0,17.804-0.564,26.487-1.654C320.144,349.968,296.509,371.468,266.987,376.81z M302.162,307.689
	c-57.563,0-107.74-24.947-133.443-61.61c7.658-19.269,23.932-36.742,46.238-49.512c24.584-14.074,55.554-21.825,87.204-21.825
	s62.619,7.751,87.203,21.825c22.306,12.77,38.581,30.243,46.238,49.512C409.901,282.741,359.725,307.689,302.162,307.689z
	 M445.182,229.425c-23.22-42.181-79.284-70.478-143.02-70.478c-63.738,0-119.8,28.297-143.02,70.478
	c-5.624-12.264-8.697-25.456-8.697-39.194c0-64.766,68.06-117.457,151.717-117.457s151.717,52.692,151.717,117.457
	C453.879,203.97,450.806,217.161,445.182,229.425z M494.423,188.464c-2.244,3.848-6.083,6.193-10.531,6.433
	c-4.799,0.259-9.647-0.326-14.264-1.688c0.027-0.991,0.046-1.983,0.046-2.977c0-16.735-3.833-32.976-11.16-48.1
	c15.71,6.54,28.644,18.521,36.326,34C496.819,180.122,496.668,184.617,494.423,188.464z M387.951,139.444
	c-11.143,0-20.208,9.065-20.208,20.208c0,4.361,3.536,7.897,7.897,7.897s7.897-3.536,7.897-7.897c0-2.433,1.98-4.413,4.413-4.413
	c2.433,0,4.413,1.98,4.413,4.413c0,4.361,3.536,7.897,7.897,7.897s7.897-3.536,7.897-7.897
	C408.16,148.509,399.094,139.444,387.951,139.444z"/>
<g>
</g>
<g>
</g>
<g>
</g>
<g>
</g>
<g>
</g>
<g>
</g>
<g>
</g>
<g>
</g>
<g>
</g>
<g>
</g>
<g>
</g>
<g>
</g>
<g>
</g>
<g>
</g>
<g>
</g>
</svg>
