<?xml version="1.0" encoding="iso-8859-1"?>
<!-- Generator: Adobe Illustrator 19.0.0, SVG Export Plug-In . SVG Version: 6.00 Build 0)  -->
<svg version="1.1" id="Layer_1" xmlns="http://www.w3.org/2000/svg" xmlns:xlink="http://www.w3.org/1999/xlink" x="0px" y="0px"
	 viewBox="0 0 512 512" style="enable-background:new 0 0 512 512;" xml:space="preserve">
<circle style="fill:#E8E8E8;" cx="41.876" cy="245.663" r="29.344"/>
<path style="opacity:0.05;enable-background:new    ;" d="M49.703,268.539c-16.206,0-29.344-13.137-29.344-29.344
	c0-7.267,2.647-13.912,7.023-19.038c-8.866,5.049-14.85,14.578-14.85,25.512c0,16.206,13.137,29.345,29.344,29.345
	c8.939,0,16.94-4.002,22.321-10.307C59.921,267.141,54.977,268.539,49.703,268.539z"/>
<path style="fill:#A4A8AB;" d="M273.398,476.466h-34.617c-3.497,0-6.332-2.835-6.332-6.332v-72.705h47.281v72.705
	C279.731,473.632,276.895,476.466,273.398,476.466z"/>
<path style="fill:#4A5058;" d="M232.449,456.235h47.281v13.9c0,3.497-2.835,6.332-6.332,6.332h-34.617
	c-3.497,0-6.332-2.835-6.332-6.332L232.449,456.235L232.449,456.235z"/>
<path style="fill:#E8E8E8;" d="M334.502,313.54c0-11.821-5.922-22.251-14.958-28.506c0.358-1.995,0.555-4.047,0.555-6.145
	c0-18.796-14.969-34.086-33.634-34.625c-3.728-15.116-17.37-26.328-33.638-26.328c-3.2,0-6.295,0.442-9.237,1.254
	c-6.356-7.652-15.941-12.527-26.666-12.527c-7.618,0-14.657,2.464-20.377,6.631c-6.325-6.775-15.329-11.015-25.327-11.015
	c-9.999,0-19.003,4.24-25.327,11.015c-5.719-4.166-12.758-6.631-20.377-6.631c-10.725,0-20.311,4.875-26.666,12.527
	c-2.942-0.812-6.037-1.254-9.237-1.254c-16.267,0-29.91,11.212-33.638,26.328c-18.665,0.54-33.634,15.829-33.634,34.625
	c0,2.098,0.197,4.149,0.555,6.145c-9.035,6.254-14.957,16.686-14.957,28.506c0,8.03,2.739,15.416,7.324,21.292
	c-4.584,5.876-7.324,13.262-7.324,21.292c0,15.591,10.297,28.774,24.461,33.126c-0.022,0.506-0.038,1.014-0.038,1.525
	c0,19.137,15.514,34.651,34.651,34.651c0.918,0,1.824-0.047,2.723-0.116c5.261,12.437,17.575,21.163,31.927,21.163
	c7.763,0,14.929-2.553,20.707-6.866c6.338,6.965,15.476,11.337,25.634,11.337c8.931,0,17.072-3.381,23.216-8.93
	c6.145,5.55,14.285,8.93,23.216,8.93c10.159,0,19.296-4.372,25.634-11.337c5.777,4.312,12.944,6.866,20.707,6.866
	c14.353,0,26.667-8.726,31.927-21.163c0.9,0.07,1.806,0.116,2.724,0.116c19.137,0,34.651-15.514,34.651-34.651
	c0-0.511-0.017-1.019-0.038-1.525c14.164-4.352,24.462-17.535,24.462-33.126c0-8.03-2.739-15.416-7.324-21.292
	C331.762,328.956,334.502,321.57,334.502,313.54z"/>
<path style="opacity:0.05;enable-background:new    ;" d="M334.502,313.54c0-11.821-5.922-22.251-14.958-28.506
	c0.358-1.995,0.555-4.047,0.555-6.145c0-18.796-14.969-34.086-33.634-34.625c-3.728-15.116-17.37-26.328-33.638-26.328
	c-3.2,0-6.295,0.442-9.237,1.254c-6.356-7.652-15.941-12.527-26.666-12.527c-7.618,0-14.657,2.464-20.377,6.631
	c-6.325-6.775-15.329-11.015-25.327-11.015c-9.999,0-19.003,4.24-25.327,11.015c-5.719-4.166-12.758-6.631-20.377-6.631
	c-10.725,0-20.311,4.875-26.666,12.527c-2.942-0.812-6.037-1.254-9.237-1.254c-8.737,0-16.713,3.237-22.807,8.574
	c-0.558,11.761,5.992,23.211,17.381,28.333c7.202,3.238,15.013,3.344,21.917,0.91c0.491,17.048,10.761,31.636,25.398,38.368
	c1.801,21.706,19.478,38.902,41.396,39.924c7.312,13.848,21.848,23.29,38.596,23.29c4.031,0,7.928-0.558,11.634-1.581
	c7.53,6.186,17.167,9.901,27.673,9.901c10.88,0,20.821-3.992,28.463-10.578c7.642,6.586,17.583,10.578,28.463,10.578
	c10.092,0,19.376-3.435,26.768-9.188c0.001-0.115,0.007-0.229,0.007-0.344c0-8.03-2.739-15.416-7.324-21.292
	C331.762,328.956,334.502,321.57,334.502,313.54z"/>
<path style="fill:#A4A8AB;" d="M93.669,186.976c17.128-10.021,33.46-21.819,48.128-36.614l0.133-0.134
	c3.37-3.399,8.858-3.423,12.258-0.053c2.057,2.039,2.87,4.904,2.45,7.562c-3.628,22.051-10.977,44.236-20.521,65.461l-0.614,1.367
	c-6.687,14.871-24.162,21.506-39.033,14.819s-21.506-24.162-14.819-39.033C84.271,194.526,88.544,189.968,93.669,186.976z"/>
<path style="opacity:0.1;enable-background:new    ;" d="M154.188,150.174c-3.4-3.37-8.887-3.346-12.258,0.053l-0.133,0.134
	c-12.925,13.037-27.143,23.745-42.058,32.963c-0.866,3.426-1.333,7.013-1.333,10.708c0,12.934,5.633,24.548,14.574,32.537
	c-2.994,4.594-5.144,9.785-6.238,15.356c11.911,0.74,23.578-5.834,28.761-17.361l0.614-1.367
	c9.544-21.226,16.893-43.41,20.521-65.461C157.058,155.079,156.245,152.214,154.188,150.174z"/>
<path style="fill:#A4A8AB;" d="M489.427,186.976c-17.128-10.021-33.46-21.819-48.128-36.614l-0.133-0.134
	c-3.37-3.399-8.858-3.423-12.258-0.053c-2.057,2.039-2.87,4.904-2.451,7.562c3.628,22.051,10.977,44.236,20.521,65.461l0.614,1.367
	c6.687,14.871,24.162,21.506,39.033,14.819c14.871-6.687,21.505-24.162,14.819-39.033
	C498.826,194.526,494.552,189.968,489.427,186.976z"/>
<path style="fill:#E8E8E8;" d="M472.247,182.698c0-15.17-7.746-28.526-19.495-36.342c2.296-5.306,3.575-11.155,3.575-17.305
	c0-22.475-16.996-40.972-38.835-43.36c-4.431-19.398-21.779-33.875-42.52-33.875c-6.476,0-12.618,1.422-18.144,3.954
	c-7.742-12.161-21.334-20.236-36.818-20.236c-10.88,0-20.821,3.992-28.463,10.578c-7.641-6.586-17.582-10.578-28.463-10.578
	c-15.485,0-29.076,8.074-36.819,20.236c-5.527-2.532-11.667-3.954-18.144-3.954c-20.741,0-38.088,14.477-42.52,33.875
	c-21.84,2.387-38.835,20.886-38.835,43.36c0,6.149,1.279,11.998,3.575,17.305c-11.749,7.817-19.495,21.174-19.495,36.342
	c0,12.934,5.633,24.548,14.574,32.537c-4.459,6.842-7.059,15.006-7.059,23.782c0,17.594,10.42,32.746,25.422,39.646
	c1.799,21.706,19.478,38.902,41.396,39.924c7.312,13.848,21.848,23.29,38.596,23.29c4.031,0,7.929-0.558,11.634-1.581
	c7.53,6.186,17.167,9.901,27.673,9.901c10.88,0,20.821-3.992,28.463-10.578c7.641,6.586,17.583,10.578,28.463,10.578
	c10.506,0,20.143-3.715,27.673-9.901c3.705,1.023,7.603,1.581,11.634,1.581c16.748,0,31.285-9.442,38.596-23.29
	c21.918-1.024,39.596-18.218,41.396-39.924c15.001-6.901,25.422-22.051,25.422-39.646c0-8.775-2.601-16.94-7.059-23.782
	C466.615,207.246,472.247,195.632,472.247,182.698z"/>
<g>
	<path style="fill:#A4A8AB;" d="M360.993,171.35l-30.146,7.485c-12.912,3.205-26.086,4.823-39.299,4.823l0,0
		c-13.213,0-26.387-1.616-39.299-4.823l-30.146-7.485c-18.799-4.668-36.567,11.7-36.567,33.686l0,0
		c0,20.575,15.669,36.568,33.558,34.252l0,0c12.162-1.574,24.074,3.636,31.592,13.326c6.643,8.562,16.338,13.96,27.14,13.96h27.445
		c10.802,0,20.497-5.397,27.14-13.96c7.518-9.69,19.429-14.9,31.591-13.326l0,0c17.889,2.316,33.558-13.677,33.558-34.252l0,0
		C397.559,183.05,379.792,166.683,360.993,171.35z"/>
	<path style="fill:#A4A8AB;" d="M103.232,476.466H68.615c-3.497,0-6.332-2.835-6.332-6.332v-72.705h47.281v72.705
		C109.564,473.632,106.729,476.466,103.232,476.466z"/>
	<path style="fill:#A4A8AB;" d="M201.791,476.466h-34.617c-3.497,0-6.332-2.835-6.332-6.332v-72.705h47.281v72.705
		C208.123,473.632,205.289,476.466,201.791,476.466z"/>
</g>
<path style="opacity:0.1;enable-background:new    ;" d="M109.06,373.664c-8.064,0-15.319,3.459-20.366,8.972
	c-4.728-3.796-10.73-6.072-17.266-6.072c-15.248,0-27.608,12.36-27.608,27.608c0,6.091,1.976,11.717,5.317,16.282
	c3.939,2.376,8.389,3.991,13.147,4.641v5.129c2.863,1.005,5.938,1.557,9.145,1.557c8.064,0,15.319-3.459,20.366-8.972
	c4.728,3.796,10.73,6.072,17.266,6.072c15.248,0,27.608-12.36,27.608-27.609C136.669,386.025,124.308,373.664,109.06,373.664z"/>
<path style="fill:#E8E8E8;" d="M110.849,358.512c-8.83,0-16.774,3.787-22.302,9.825c-5.178-4.157-11.75-6.65-18.907-6.65
	c-16.697,0-30.233,13.535-30.233,30.233c0,16.697,13.535,30.233,30.233,30.233c8.83,0,16.774-3.787,22.302-9.825
	c5.178,4.157,11.75,6.65,18.907,6.65c16.697,0,30.233-13.535,30.233-30.233C141.082,372.048,127.546,358.512,110.849,358.512z"/>
<path style="opacity:0.1;enable-background:new    ;" d="M207.811,374.148c-8.045,0-15.282,3.451-20.317,8.95
	c-4.718-3.786-10.704-6.057-17.224-6.057c-15.211,0-27.542,12.331-27.542,27.542c0,15.211,12.331,27.542,27.542,27.542
	c8.045,0,15.282-3.451,20.317-8.951c4.717,3.787,10.704,6.058,17.224,6.058c15.211,0,27.542-12.331,27.542-27.542
	S223.021,374.148,207.811,374.148z"/>
<path style="fill:#E8E8E8;" d="M209.644,358.512c-8.83,0-16.776,3.787-22.302,9.825c-5.178-4.157-11.75-6.65-18.907-6.65
	c-16.697,0-30.233,13.535-30.233,30.233c0,16.697,13.535,30.233,30.233,30.233c8.83,0,16.774-3.787,22.302-9.825
	c5.178,4.157,11.75,6.65,18.907,6.65c16.697,0,30.233-13.535,30.233-30.233C239.877,372.048,226.342,358.512,209.644,358.512z"/>
<g>
	<path style="fill:#4A5058;" d="M62.283,456.235h47.281v13.9c0,3.497-2.835,6.332-6.332,6.332H68.615
		c-3.497,0-6.332-2.835-6.332-6.332V456.235z"/>
	<path style="fill:#4A5058;" d="M160.843,456.235h47.281v13.9c0,3.497-2.835,6.332-6.332,6.332h-34.617
		c-3.497,0-6.332-2.835-6.332-6.332L160.843,456.235L160.843,456.235z"/>
</g>
<path d="M508.686,197.095c-3.218-7.157-8.494-13.027-15.249-16.971c-5.062-2.962-9.957-6.049-14.618-9.196
	c-2.481-10.61-8.265-20.202-16.625-27.367c1.378-4.69,2.074-9.549,2.074-14.509c0-24.515-17.074-45.29-40.521-50.376
	c-7.06-20.738-26.406-34.798-48.772-34.798c-5.249,0-10.377,0.778-15.313,2.319c-9.742-11.752-24.14-18.601-39.649-18.601
	c-10.164,0-20.061,3.012-28.463,8.578c-8.402-5.566-18.299-8.578-28.463-8.578c-15.508,0-29.908,6.85-39.649,18.601
	c-4.936-1.541-10.063-2.319-15.313-2.319c-22.366,0-41.71,14.059-48.772,34.798c-23.447,5.086-40.523,25.862-40.523,50.376
	c0,4.96,0.697,9.819,2.074,14.509c-8.36,7.165-14.144,16.758-16.626,27.367c-4.659,3.145-9.552,6.233-14.612,9.193
	c-6.762,3.948-12.038,9.818-15.255,16.976c-2.457,5.465-3.541,11.307-3.261,17.124c-1.808,0.872-3.54,1.873-5.194,2.982
	c-6.659-5.666-15.094-8.815-24.079-8.815c-20.558,0-37.283,16.725-37.283,37.283c0,9.778,3.76,18.943,10.441,25.852
	c-0.411,2.392-0.631,4.853-0.631,7.369c0,0.881,0.029,1.767,0.085,2.656C5.339,289.587,0,301.223,0,313.54
	c0,7.589,1.955,14.848,5.699,21.291C1.955,341.276,0,348.535,0,356.124c0,16.852,9.681,31.728,24.61,38.628
	c1.612,17.107,13.514,31.611,29.734,36.677v38.707c0,7.869,6.402,14.271,14.271,14.271h34.617c7.869,0,14.271-6.402,14.271-14.271
	v-18.801c1.334-0.531,2.644-1.111,3.914-1.776c7.499,5.984,16.885,9.324,26.587,9.324c1.647,0,3.28-0.105,4.899-0.291v11.544
	c0,7.869,6.402,14.271,14.271,14.271h34.617c7.869,0,14.271-6.402,14.271-14.271v-17.172c1.724-1.019,3.384-2.153,4.951-3.401
	c1.141,0.6,2.312,1.128,3.497,1.62v18.954c0,7.869,6.402,14.271,14.271,14.271h34.617c7.869,0,14.271-6.402,14.271-14.271v-38.573
	c16.312-4.905,28.54-19.341,30.165-36.812c14.927-6.899,24.608-21.776,24.608-38.626c0-1.025-0.051-2.049-0.125-3.074
	c2.496-1.196,4.902-2.588,7.184-4.179c3.238,0.628,6.526,0.945,9.818,0.945c17.688,0,33.935-8.976,43.385-23.696
	c22.233-2.971,40.14-20.218,43.948-42.316c12.789-7.311,21.79-19.781,24.855-34.005c1.013,0.084,2.027,0.127,3.041,0.127
	c5.231,0,10.447-1.105,15.333-3.303c9.127-4.103,16.109-11.515,19.66-20.87C513.092,216.399,512.789,206.221,508.686,197.095z
	 M88.893,203.607c1.853-4.124,4.89-7.504,8.786-9.779c1.964-1.148,3.896-2.32,5.812-3.502c1.455,9.691,5.645,18.801,12.09,26.213
	c-2.647,5.452-4.291,11.325-4.889,17.371c-3.72,0.373-7.487-0.205-10.965-1.77c-5.259-2.364-9.281-6.635-11.327-12.024
	C86.354,214.729,86.528,208.864,88.893,203.607z M41.876,224.263c4.655,0,9.058,1.471,12.684,4.154
	c-1.812,2.622-3.339,5.455-4.532,8.453c-11.518,1.863-21.392,8.254-27.805,17.295c-1.142-2.641-1.753-5.519-1.753-8.496
	C20.471,233.865,30.074,224.263,41.876,224.263z M101.625,468.527H70.222V430.08c8.16-0.126,16.05-2.879,22.488-7.757
	c2.816,1.519,5.814,2.676,8.915,3.451V468.527z M152.904,442.548c-1.606,0.299-3.241,0.455-4.899,0.455
	c-7.505,0-14.708-3.186-19.762-8.74c-2.751-3.022-7.346-3.464-10.621-1.019c-0.039,0.029-0.079,0.055-0.119,0.084v-7
	c8.322-1.467,15.948-5.666,21.686-12.03c0.213,1.687,0.959,3.32,2.254,4.615c3.362,3.362,7.245,6.009,11.461,7.888L152.904,442.548
	L152.904,442.548z M200.184,468.527h-31.402v-38.443c8.244-0.075,16.224-2.837,22.724-7.762c2.744,1.48,5.662,2.618,8.679,3.393
	v42.812H200.184z M271.792,468.527h-31.403v-14.129c0.13,0.001,0.259,0.012,0.39,0.012c11.992,0,23.114-5.007,31.014-13.408V468.527
	z M307.709,381.66c-3.456,1.062-5.758,4.325-5.6,7.938c0.017,0.391,0.031,0.782,0.031,1.176c0,14.729-11.983,26.712-26.712,26.712
	c-0.619,0-1.307-0.031-2.104-0.092c-3.414-0.275-6.6,1.675-7.93,4.822c-4.192,9.912-13.854,16.316-24.615,16.316
	c-5.805,0-11.323-1.829-15.957-5.288c-2.616-1.953-6.071-2.06-8.757-0.487v-6.39c8.617-1.47,16.543-5.864,22.375-12.56
	c2.88-3.307,2.535-8.321-0.772-11.201c-3.305-2.879-8.32-2.534-11.2,0.772c-4.24,4.869-10.371,7.661-16.82,7.661
	c-5.123,0-9.944-1.695-13.938-4.901c-3.263-2.62-8-2.256-10.826,0.83c-4.216,4.606-10.211,7.247-16.446,7.247
	c-5.955,0-11.554-2.319-15.764-6.53c-2.961-2.96-7.674-3.087-10.794-0.393c-0.222-1.947-1.153-3.816-2.77-5.176
	c-3.357-2.822-8.364-2.389-11.185,0.966c-4.252,5.057-10.475,7.957-17.073,7.957c-5.123,0-9.943-1.695-13.937-4.901
	c-3.265-2.621-8-2.257-10.826,0.83c-4.216,4.606-10.211,7.247-16.447,7.247c-7.418,0-14.33-3.676-18.49-9.834
	c-1.959-2.9-5.498-4.087-8.695-3.202c-1.373-3.218-2.153-6.731-2.153-10.403c0-0.397,0.014-0.792,0.031-1.184
	c0.155-3.61-2.147-6.868-5.601-7.929c-11.279-3.464-18.855-13.726-18.855-25.536c0-6.002,1.952-11.677,5.644-16.408
	c2.24-2.871,2.24-6.897,0-9.768c-3.692-4.732-5.644-10.405-5.644-16.407c0-8.761,4.312-16.978,11.537-21.978
	c2.555-1.769,3.844-4.866,3.296-7.926c-0.286-1.594-0.43-3.19-0.43-4.746c0-14.546,11.388-26.269,25.924-26.69
	c3.565-0.104,6.624-2.571,7.478-6.035c1.676-6.794,5.973-12.582,11.773-16.217c3.873,7.371,10.045,13.208,17.759,16.676
	c4.887,2.197,10.1,3.303,15.333,3.303c1.014,0,2.028-0.043,3.041-0.127c3.065,14.224,12.066,26.694,24.855,34.005
	c3.809,22.098,21.715,39.343,43.949,42.316c9.448,14.72,25.696,23.696,43.385,23.696c3.292,0,6.58-0.318,9.817-0.945
	c8.61,6,18.936,9.265,29.491,9.265c10.164,0,20.061-3.012,28.463-8.577c8.4,5.566,18.299,8.577,28.463,8.577
	c2.177,0,4.344-0.147,6.489-0.42C325.852,368.846,318.475,378.353,307.709,381.66z M452.384,209.315
	c-2.924,2.613-3.503,6.969-1.361,10.255c3.776,5.794,5.772,12.519,5.772,19.447c0,13.89-8.164,26.621-20.8,32.433
	c-2.602,1.197-4.357,3.703-4.594,6.557c-1.475,17.782-16.029,31.818-33.855,32.651c-2.808,0.13-5.337,1.737-6.651,4.224
	c-6.207,11.755-18.306,19.058-31.576,19.058c-3.206,0-6.409-0.436-9.522-1.295c-2.491-0.688-5.157-0.122-7.151,1.518
	c-6.355,5.222-14.394,8.097-22.633,8.097c-8.538,0-16.805-3.073-23.279-8.652c-1.489-1.284-3.336-1.925-5.183-1.925
	c-1.847,0-3.694,0.643-5.184,1.925c-6.474,5.579-14.741,8.652-23.279,8.652c-8.241,0-16.278-2.875-22.634-8.097
	c-1.996-1.64-4.663-2.205-7.151-1.518c-3.112,0.858-6.316,1.295-9.521,1.295c-13.27,0-25.369-7.303-31.576-19.058
	c-1.313-2.485-3.841-4.092-6.651-4.224c-17.826-0.833-32.38-14.869-33.855-32.65c-0.236-2.854-1.992-5.36-4.594-6.557
	c-12.636-5.811-20.8-18.542-20.8-32.433c0-6.928,1.995-13.653,5.772-19.447c2.14-3.286,1.562-7.642-1.362-10.255
	c-7.579-6.771-11.925-16.473-11.925-26.617c0-11.972,5.964-23.086,15.954-29.733c3.197-2.128,4.413-6.238,2.889-9.763
	c-1.939-4.481-2.922-9.242-2.922-14.151c0-18.241,13.653-33.49,31.759-35.468c3.363-0.367,6.124-2.825,6.877-6.124
	c3.727-16.312,18.029-27.704,34.78-27.704c5.163,0,10.156,1.087,14.837,3.233c3.603,1.653,7.874,0.391,10.004-2.954
	c6.602-10.369,17.863-16.561,30.121-16.561c8.538,0,16.806,3.073,23.279,8.652c2.979,2.568,7.387,2.568,10.367,0
	c6.473-5.579,14.74-8.652,23.279-8.652c12.259,0,23.519,6.191,30.121,16.561c2.128,3.344,6.397,4.607,10.004,2.954
	c4.682-2.145,9.674-3.233,14.837-3.233c16.751,0,31.054,11.393,34.78,27.704c0.754,3.298,3.513,5.756,6.877,6.124
	c18.105,1.979,31.758,17.228,31.758,35.468c0,4.911-0.983,9.672-2.922,14.151c-1.524,3.525-0.308,7.635,2.889,9.763
	c9.99,6.646,15.953,17.762,15.953,29.733C464.308,192.843,459.962,202.544,452.384,209.315z M494.697,220.119
	c-2.047,5.39-6.069,9.66-11.327,12.024c-3.479,1.563-7.246,2.142-10.965,1.769c-0.598-6.046-2.242-11.919-4.889-17.371
	c6.446-7.413,10.635-16.524,12.09-26.213c1.918,1.182,3.853,2.355,5.819,3.505c3.889,2.271,6.925,5.651,8.779,9.775
	C496.568,208.864,496.743,214.729,494.697,220.119z M389.303,170.318c-8.744-6.84-19.761-9.273-30.223-6.673l-30.146,7.485
	c-24.527,6.089-50.245,6.089-74.772,0l-30.146-7.485c-10.462-2.599-21.479-0.166-30.223,6.673
	c-10.142,7.932-16.195,20.909-16.195,34.718c0,13.072,5.28,25.209,14.487,33.301c7.963,6.999,17.917,10.13,28.03,8.824
	c9.136-1.18,18.444,2.772,24.3,10.319c8.398,10.824,20.576,17.033,33.412,17.033h27.445c12.837,0,25.015-6.208,33.412-17.033
	c5.855-7.546,15.166-11.501,24.3-10.319c10.109,1.309,20.065-1.825,28.03-8.824c9.206-8.092,14.487-20.23,14.487-33.301
	C405.499,191.228,399.445,178.25,389.303,170.318z M380.531,226.411c-4.485,3.941-9.998,5.716-15.51,5.004
	c-14.696-1.903-29.592,4.357-38.883,16.333c-5.368,6.92-12.973,10.887-20.867,10.887h-27.445c-7.893,0-15.5-3.968-20.868-10.887
	c-8.189-10.556-20.733-16.669-33.654-16.669c-1.739,0-3.487,0.111-5.229,0.337c-5.515,0.711-11.025-1.063-15.51-5.004
	c-5.777-5.078-9.091-12.868-9.091-21.375c0-8.962,3.776-17.265,10.099-22.21c4.941-3.864,10.841-5.203,16.616-3.769l30.146,7.485
	c27.027,6.711,55.396,6.711,82.424,0l30.146-7.485c5.773-1.433,11.674-0.094,16.616,3.769c6.325,4.945,10.1,13.25,10.1,22.21
	C389.622,213.542,386.307,221.333,380.531,226.411z M318.05,214.858c-4.384,0-7.939,3.555-7.939,7.939
	c0,2.929-2.383,5.313-5.313,5.313c-2.929,0-5.312-2.383-5.312-5.313c0-0.847-0.135-1.662-0.381-2.427
	c0.873-0.625,1.693-1.357,2.42-2.224l3.027-3.605c1.559-1.858,0.239-4.69-2.186-4.69H280.73c-2.425,0-3.746,2.833-2.186,4.69
	l3.027,3.605c0.728,0.867,1.547,1.599,2.421,2.224c-0.246,0.765-0.381,1.58-0.381,2.427c0,2.929-2.384,5.313-5.313,5.313
	c-2.929,0-5.312-2.383-5.312-5.313c0-4.384-3.555-7.939-7.939-7.939c-4.384,0-7.939,3.555-7.939,7.939
	c0,11.684,9.506,21.191,21.19,21.191c5.01,0,9.62-1.748,13.252-4.666c3.631,2.917,8.241,4.666,13.251,4.666
	c11.684,0,21.191-9.506,21.191-21.191C325.989,218.412,322.435,214.858,318.05,214.858z M234.272,193.525
	c-4.384,0-7.939,3.555-7.939,7.939v11.823c0,4.384,3.555,7.939,7.939,7.939s7.939-3.555,7.939-7.939v-11.823
	C242.211,197.08,238.657,193.525,234.272,193.525z M348.824,193.525c-4.384,0-7.939,3.555-7.939,7.939v11.823
	c0,4.384,3.555,7.939,7.939,7.939c4.384,0,7.939-3.555,7.939-7.939v-11.823C356.763,197.08,353.208,193.525,348.824,193.525z"/>
<g>
</g>
<g>
</g>
<g>
</g>
<g>
</g>
<g>
</g>
<g>
</g>
<g>
</g>
<g>
</g>
<g>
</g>
<g>
</g>
<g>
</g>
<g>
</g>
<g>
</g>
<g>
</g>
<g>
</g>
</svg>
