<svg xmlns="http://www.w3.org/2000/svg" x="0px" y="0px"
	 width="36px" height="38px" viewBox="0 0 37 37" fill="none" stroke="#000">
	<path d="M29.694,20.074c0.087,0.16,0.08,0.356-0.02,0.512L19.393,36.449c-0.089,0.139-0.241,0.224-0.406,0.229
		c-0.004,0-0.009,0-0.014,0c-0.159,0-0.31-0.074-0.403-0.206L6.997,20.609c-0.111-0.152-0.127-0.354-0.042-0.521
		s0.258-0.273,0.446-0.273h21.855C29.439,19.814,29.608,19.914,29.694,20.074z M7.401,16.864h21.855c0.007,0,0.013,0,0.02,0
		c0.276,0,0.5-0.224,0.5-0.5c0-0.156-0.069-0.295-0.184-0.387L18.086,0.205C17.989,0.073,17.838,0.009,17.669,0
		c-0.165,0.005-0.315,0.09-0.406,0.228L6.982,16.092c-0.101,0.154-0.107,0.35-0.021,0.511C7.05,16.764,7.218,16.864,7.401,16.864z"
	/>
</svg>
