<svg height="512" viewBox="0 0 64 64" width="512" xmlns="http://www.w3.org/2000/svg"><g id="Calculator"><rect fill="#1e81ce" height="54" rx="4" width="44" x="10" y="3"/><path d="m50 57h-36a4 4 0 0 1 -4-4v4a4 4 0 0 0 4 4h36a4 4 0 0 0 4-4v-4a4 4 0 0 1 -4 4z" fill="#135284"/><path d="m14 7h36v9h-36z" fill="#c2fb3b"/><path d="m14 20h6v6h-6z" fill="#ffcd00"/><path d="m14 29h6v6h-6z" fill="#ffcd00"/><path d="m14 38h6v6h-6z" fill="#ffcd00"/><path d="m14 47h16v6h-16z" fill="#d80027"/><g fill="#ffcd00"><path d="m24 20h6v6h-6z"/><path d="m24 29h6v6h-6z"/><path d="m24 38h6v6h-6z"/><path d="m34 20h6v6h-6z"/><path d="m34 29h6v6h-6z"/><path d="m34 38h6v6h-6z"/></g><path d="m44 20h6v6h-6z" fill="#5eac24"/><path d="m44 29h6v6h-6z" fill="#5eac24"/><path d="m16.017 57h33.983a4 4 0 0 0 4-4v-34c0 18.539-16.216 34.025-37.983 38z" fill="#1a6fb0"/><path d="m44 38h6v15h-6z" fill="#d80027"/><path d="m34 47h6v6h-6z" fill="#ffcd00"/><path d="m50 17h-36a1 1 0 0 1 -1-1v-9a1 1 0 0 1 1-1h36a1 1 0 0 1 1 1v9a1 1 0 0 1 -1 1zm-35-2h34v-7h-34z"/><path d="m20 27h-6a1 1 0 0 1 -1-1v-6a1 1 0 0 1 1-1h6a1 1 0 0 1 1 1v6a1 1 0 0 1 -1 1zm-5-2h4v-4h-4z"/><path d="m20 36h-6a1 1 0 0 1 -1-1v-6a1 1 0 0 1 1-1h6a1 1 0 0 1 1 1v6a1 1 0 0 1 -1 1zm-5-2h4v-4h-4z"/><path d="m20 45h-6a1 1 0 0 1 -1-1v-6a1 1 0 0 1 1-1h6a1 1 0 0 1 1 1v6a1 1 0 0 1 -1 1zm-5-2h4v-4h-4z"/><path d="m55 7a5.006 5.006 0 0 0 -5-5h-36a5.006 5.006 0 0 0 -5 5v50a5.006 5.006 0 0 0 5 5h36a5.006 5.006 0 0 0 5-5zm-44 0a3 3 0 0 1 3-3h36a3 3 0 0 1 3 3v46a3 3 0 0 1 -3 3h-36a3 3 0 0 1 -3-3zm39 53h-36a3 3 0 0 1 -3-3v-.026a4.948 4.948 0 0 0 3 1.026h36a4.948 4.948 0 0 0 3-1.026v.026a3 3 0 0 1 -3 3z"/><path d="m14 54h16a1 1 0 0 0 1-1v-6a1 1 0 0 0 -1-1h-16a1 1 0 0 0 -1 1v6a1 1 0 0 0 1 1zm1-6h14v4h-14z"/><path d="m30 27h-6a1 1 0 0 1 -1-1v-6a1 1 0 0 1 1-1h6a1 1 0 0 1 1 1v6a1 1 0 0 1 -1 1zm-5-2h4v-4h-4z"/><path d="m30 36h-6a1 1 0 0 1 -1-1v-6a1 1 0 0 1 1-1h6a1 1 0 0 1 1 1v6a1 1 0 0 1 -1 1zm-5-2h4v-4h-4z"/><path d="m30 45h-6a1 1 0 0 1 -1-1v-6a1 1 0 0 1 1-1h6a1 1 0 0 1 1 1v6a1 1 0 0 1 -1 1zm-5-2h4v-4h-4z"/><path d="m40 27h-6a1 1 0 0 1 -1-1v-6a1 1 0 0 1 1-1h6a1 1 0 0 1 1 1v6a1 1 0 0 1 -1 1zm-5-2h4v-4h-4z"/><path d="m40 36h-6a1 1 0 0 1 -1-1v-6a1 1 0 0 1 1-1h6a1 1 0 0 1 1 1v6a1 1 0 0 1 -1 1zm-5-2h4v-4h-4z"/><path d="m40 45h-6a1 1 0 0 1 -1-1v-6a1 1 0 0 1 1-1h6a1 1 0 0 1 1 1v6a1 1 0 0 1 -1 1zm-5-2h4v-4h-4z"/><path d="m40 54h-6a1 1 0 0 1 -1-1v-6a1 1 0 0 1 1-1h6a1 1 0 0 1 1 1v6a1 1 0 0 1 -1 1zm-5-2h4v-4h-4z"/><path d="m50 27h-6a1 1 0 0 1 -1-1v-6a1 1 0 0 1 1-1h6a1 1 0 0 1 1 1v6a1 1 0 0 1 -1 1zm-5-2h4v-4h-4z"/><path d="m50 36h-6a1 1 0 0 1 -1-1v-6a1 1 0 0 1 1-1h6a1 1 0 0 1 1 1v6a1 1 0 0 1 -1 1zm-5-2h4v-4h-4z"/><path d="m50 54h-6a1 1 0 0 1 -1-1v-15a1 1 0 0 1 1-1h6a1 1 0 0 1 1 1v15a1 1 0 0 1 -1 1zm-5-2h4v-13h-4z"/></g></svg>