<svg id="Layer_1" enable-background="new 0 0 256 256" height="512" viewBox="0 0 256 256" width="512" xmlns="http://www.w3.org/2000/svg"><path d="m195.254 252h-134.508c-14.888 0-26.956-12.069-26.956-26.956v-194.088c0-14.887 12.069-26.956 26.956-26.956h134.507c14.888 0 26.956 12.069 26.956 26.956v194.087c.001 14.888-12.068 26.957-26.955 26.957z" fill="#526faa"/><path d="m195.254 4h-10c14.888 0 26.956 12.069 26.956 26.956v194.087c0 14.888-12.069 26.956-26.956 26.956h10c14.888 0 26.956-12.069 26.956-26.956v-194.087c0-14.887-12.069-26.956-26.956-26.956z" fill="#34518c"/><path d="m60.746 252h10c-14.888 0-26.956-12.069-26.956-26.956v-194.088c0-14.887 12.069-26.956 26.956-26.956h-10c-14.887 0-26.956 12.069-26.956 26.956v194.087c0 14.888 12.069 26.957 26.956 26.957z" fill="#708dc8"/><path d="m199.706 225.026v-53.742c0-2.978-2.414-5.391-5.391-5.391h-53.742c-2.978 0-5.391 2.414-5.391 5.391v53.742c0 2.977 2.414 5.391 5.391 5.391h53.742c2.977 0 5.391-2.414 5.391-5.391z" fill="#ff4397"/><path d="m195.254 254h-134.508c-15.967 0-28.957-12.99-28.957-28.957v-194.086c.001-15.967 12.99-28.957 28.957-28.957h134.508c15.966 0 28.956 12.99 28.956 28.957v194.087c0 15.966-12.99 28.956-28.956 28.956zm-134.508-248c-13.761 0-24.956 11.195-24.956 24.957v194.087c0 13.761 11.195 24.956 24.956 24.956h134.508c13.761 0 24.956-11.195 24.956-24.957v-194.086c0-13.762-11.195-24.957-24.956-24.957z" fill="#690589"/><path d="m199.706 146.888v-53.742c0-2.978-2.414-5.391-5.391-5.391h-53.742c-2.978 0-5.391 2.414-5.391 5.391v53.742c0 2.977 2.414 5.391 5.391 5.391h53.742c2.977 0 5.391-2.414 5.391-5.391z" fill="#fcc24c"/><path d="m56.294 25.583h143.412v48.558h-143.412z" fill="#f4efed"/><path d="m120.818 146.888v-53.742c0-2.978-2.414-5.391-5.391-5.391h-53.742c-2.978 0-5.391 2.414-5.391 5.391v53.742c0 2.977 2.414 5.391 5.391 5.391h53.742c2.978 0 5.391-2.414 5.391-5.391z" fill="#fcc24c"/><path d="m120.818 225.026v-53.742c0-2.978-2.414-5.391-5.391-5.391h-53.742c-2.978 0-5.391 2.414-5.391 5.391v53.742c0 2.977 2.414 5.391 5.391 5.391h53.742c2.978 0 5.391-2.414 5.391-5.391z" fill="#fcc24c"/><path d="m194.315 87.755h-8c2.977 0 5.391 2.414 5.391 5.391v53.742c0 2.978-2.414 5.391-5.391 5.391h8c2.977 0 5.391-2.414 5.391-5.391v-53.742c0-2.977-2.414-5.391-5.391-5.391z" fill="#dea42e"/><path d="m140.573 152.279h8c-2.977 0-5.391-2.414-5.391-5.391v-53.742c0-2.977 2.414-5.391 5.391-5.391h-8c-2.977 0-5.391 2.414-5.391 5.391v53.742c-.001 2.977 2.413 5.391 5.391 5.391z" fill="#fce06a"/><path d="m115.427 87.755h-8c2.978 0 5.391 2.414 5.391 5.391v53.742c0 2.978-2.414 5.391-5.391 5.391h8c2.978 0 5.391-2.414 5.391-5.391v-53.742c0-2.977-2.413-5.391-5.391-5.391z" fill="#dea42e"/><path d="m61.685 152.279h8c-2.978 0-5.391-2.414-5.391-5.391v-53.742c0-2.977 2.414-5.391 5.391-5.391h-8c-2.978 0-5.391 2.414-5.391 5.391v53.742c0 2.977 2.414 5.391 5.391 5.391z" fill="#fce06a"/><path d="m115.427 165.893h-8c2.978 0 5.391 2.414 5.391 5.391v53.742c0 2.978-2.414 5.391-5.391 5.391h8c2.978 0 5.391-2.414 5.391-5.391v-53.742c0-2.977-2.413-5.391-5.391-5.391z" fill="#dea42e"/><path d="m61.685 230.417h8c-2.978 0-5.391-2.414-5.391-5.391v-53.742c0-2.978 2.414-5.391 5.391-5.391h-8c-2.978 0-5.391 2.414-5.391 5.391v53.742c0 2.977 2.414 5.391 5.391 5.391z" fill="#fce06a"/><path d="m194.315 165.893h-8c2.977 0 5.391 2.414 5.391 5.391v53.742c0 2.978-2.414 5.391-5.391 5.391h8c2.977 0 5.391-2.414 5.391-5.391v-53.742c0-2.977-2.414-5.391-5.391-5.391z" fill="#e12579"/><path d="m140.573 230.417h8c-2.977 0-5.391-2.414-5.391-5.391v-53.742c0-2.978 2.414-5.391 5.391-5.391h-8c-2.977 0-5.391 2.414-5.391 5.391v53.742c-.001 2.977 2.413 5.391 5.391 5.391z" fill="#ff61b5"/><path d="m189.706 25.583h10v48.558h-10z" fill="#d6d1cf"/><path d="m56.294 25.583h10v48.558h-10z" fill="#fff"/><g fill="#690589"><path d="m41.79 66.597c-1.104 0-2-.896-2-2v-12c0-1.104.896-2 2-2s2 .896 2 2v12c0 1.105-.896 2-2 2z"/><path d="m199.706 76.141h-143.412c-1.104 0-2-.896-2-2v-48.558c0-1.104.896-2 2-2h143.412c1.104 0 2 .896 2 2v48.559c0 1.104-.895 1.999-2 1.999zm-141.412-4h139.412v-44.558h-139.412z"/><path d="m194.314 154.279h-53.742c-4.076 0-7.391-3.316-7.391-7.392v-53.741c0-4.076 3.315-7.391 7.391-7.391h53.742c4.076 0 7.392 3.315 7.392 7.391v53.742c0 4.075-3.316 7.391-7.392 7.391zm-53.741-64.524c-1.87 0-3.391 1.521-3.391 3.391v53.742c0 1.87 1.521 3.392 3.391 3.392h53.742c1.87 0 3.392-1.521 3.392-3.392v-53.742c0-1.87-1.521-3.391-3.392-3.391z"/><path d="m194.314 232.417h-53.742c-4.076 0-7.391-3.316-7.391-7.392v-53.742c0-4.076 3.315-7.391 7.391-7.391h53.742c4.076 0 7.392 3.315 7.392 7.391v53.742c0 4.077-3.316 7.392-7.392 7.392zm-53.741-64.524c-1.87 0-3.391 1.521-3.391 3.391v53.742c0 1.87 1.521 3.392 3.391 3.392h53.742c1.87 0 3.392-1.521 3.392-3.392v-53.742c0-1.87-1.521-3.391-3.392-3.391z"/><path d="m115.427 154.279h-53.741c-4.076 0-7.392-3.316-7.392-7.392v-53.741c0-4.076 3.316-7.391 7.392-7.391h53.742c4.076 0 7.391 3.315 7.391 7.391v53.742c-.001 4.075-3.316 7.391-7.392 7.391zm-53.741-64.524c-1.87 0-3.392 1.521-3.392 3.391v53.742c0 1.87 1.521 3.392 3.392 3.392h53.742c1.87 0 3.391-1.521 3.391-3.392v-53.742c0-1.87-1.521-3.391-3.391-3.391z"/><path d="m115.427 232.417h-53.741c-4.076 0-7.392-3.316-7.392-7.392v-53.742c0-4.076 3.316-7.391 7.392-7.391h53.742c4.076 0 7.391 3.315 7.391 7.391v53.742c-.001 4.077-3.316 7.392-7.392 7.392zm-53.741-64.524c-1.87 0-3.392 1.521-3.392 3.391v53.742c0 1.87 1.521 3.392 3.392 3.392h53.742c1.87 0 3.391-1.521 3.391-3.392v-53.742c0-1.87-1.521-3.391-3.391-3.391z"/><path d="m88.557 137.104c-1.104 0-2-.896-2-2v-30.174c0-1.104.896-2 2-2s2 .896 2 2v30.173c0 1.105-.896 2.001-2 2.001z"/><path d="m103.643 122.017h-30.173c-1.104 0-2-.896-2-2s.896-2 2-2h30.173c1.104 0 2 .896 2 2s-.895 2-2 2z"/><path d="m182.53 194.664h-30.173c-1.104 0-2-.896-2-2s.896-2 2-2h30.173c1.104 0 2 .896 2 2s-.895 2-2 2z"/><path d="m182.53 122.017h-30.173c-1.104 0-2-.896-2-2s.896-2 2-2h30.173c1.104 0 2 .896 2 2s-.895 2-2 2z"/><path d="m182.53 205.646h-30.173c-1.104 0-2-.896-2-2s.896-2 2-2h30.173c1.104 0 2 .896 2 2s-.895 2-2 2z"/><path d="m99.225 210.823c-.512 0-1.024-.195-1.414-.586l-21.335-21.335c-.781-.781-.781-2.047 0-2.828.78-.781 2.048-.781 2.828 0l21.335 21.335c.781.781.781 2.047 0 2.828-.39.39-.903.586-1.414.586z"/><path d="m77.889 210.823c-.512 0-1.024-.195-1.414-.586-.781-.781-.781-2.047 0-2.828l21.335-21.335c.78-.781 2.048-.781 2.828 0 .781.781.781 2.047 0 2.828l-21.335 21.335c-.39.39-.902.586-1.414.586z"/></g></svg>