<svg height="480pt" viewBox="-63 0 479 480" width="480pt" xmlns="http://www.w3.org/2000/svg"><path d="m328.5 0h-304c-13.253906 0-24 10.746094-24 24v432c0 13.253906 10.746094 24 24 24h304c13.253906 0 24-10.746094 24-24v-432c0-13.253906-10.746094-24-24-24zm-40 16h16v29.601562l-1.34375-2.015624c-1.570312-2.101563-4.035156-3.335938-6.65625-3.335938s-5.085938 1.234375-6.65625 3.335938l-1.34375 2.015624zm48 440c0 4.417969-3.582031 8-8 8h-304c-4.417969 0-8-3.582031-8-8v-432c0-4.417969 3.582031-8 8-8h248v56c0 3.527344 2.304688 6.636719 5.679688 7.65625 3.375 1.023438 7.019531-.28125 8.976562-3.214844l9.34375-14.042968 9.34375 14.015624c1.953125 2.929688 5.59375 4.238282 8.964844 3.222657s5.683594-4.117188 5.691406-7.636719v-56h8c4.417969 0 8 3.582031 8 8zm0 0"/><path d="m233.300781 288.800781c19.785157-34.28125 8.917969-65.273437-4.753906-95.121093 32.6875-3.085938 64.960937-9.167969 84.753906-43.449219l-13.863281-8c-16.921875 29.320312-46.402344 33.3125-78.082031 36-13.488281-28.796875-24.75-56.320313-7.824219-85.597657l-13.863281-8c-19.785157 34.277344-8.921875 65.269532 4.742187 95.109376-32.679687 3.089843-64.949218 9.1875-84.742187 43.457031-19.792969 34.273437-8.921875 65.273437 4.742187 95.121093-32.679687 3.085938-64.949218 9.167969-84.742187 43.449219l13.863281 8c16.921875-29.320312 46.402344-33.3125 78.082031-36 13.488281 28.796875 24.75 56.328125 7.824219 85.597657l13.863281 8c19.785157-34.277344 8.917969-65.269532-4.746093-95.109376 32.699218-3.089843 64.96875-9.1875 84.746093-43.457031zm-99.753906-57.601562c16.921875-29.320313 46.402344-33.304688 78.082031-36 13.488282 28.800781 24.75 56.320312 7.824219 85.640625-16.929687 29.320312-46.402344 33.304687-78.082031 36-13.488282-28.839844-24.75-56.320313-7.824219-85.640625zm0 0"/><path d="m211.714844 147.007812 8-13.855468 41.570312 23.996094-7.996094 13.855468zm0 0"/><path d="m220.789062 115.296875 8-13.855469 55.425782 32-8 13.855469zm0 0"/><path d="m91.710938 354.855469 8-13.855469 41.570312 23.996094-7.996094 13.855468zm0 0"/><path d="m68.789062 378.5625 8-13.855469 55.425782 32-8 13.855469zm0 0"/><path d="m167.714844 223.210938 7.996094-13.855469 41.570312 24-8 13.855469zm0 0"/><path d="m144.789062 246.925781 8-13.855469 55.425782 32-8 13.855469zm0 0"/><path d="m135.710938 278.636719 8-13.855469 41.570312 23.996094-8 13.859375zm0 0"/><path d="m190.15625 378.34375-11.3125 11.3125 24 24c1.5 1.5 3.535156 2.34375 5.65625 2.34375h48v-16h-44.6875zm0 0"/><path d="m312.5 384h-32c-4.417969 0-8 3.582031-8 8v32c0 4.417969 3.582031 8 8 8h32c4.417969 0 8-3.582031 8-8v-32c0-4.417969-3.582031-8-8-8zm-8 32h-16v-16h16zm0 0"/><path d="m80.5 136c0-13.253906-10.746094-24-24-24s-24 10.746094-24 24 10.746094 24 24 24 24-10.746094 24-24zm-32 0c0-4.417969 3.582031-8 8-8s8 3.582031 8 8-3.582031 8-8 8-8-3.582031-8-8zm0 0"/><path d="m96.5 128v16h28.6875l29.65625 29.65625 11.3125-11.3125-32-32c-1.5-1.5-3.535156-2.34375-5.65625-2.34375zm0 0"/><path d="m48.5 48h16v16h-16zm0 0"/><path d="m80.5 48h48v16h-48zm0 0"/><path d="m48.5 72h80v16h-80zm0 0"/></svg>