<svg  xmlns="http://www.w3.org/2000/svg" x="0px" y="0px" viewBox="0 0 512 512">
<g>
	<g>
		<path d="M319.622,281.945l-60.273-165.598c-2.124-5.835-7.669-9.718-13.878-9.718s-11.754,3.883-13.878,9.718L171.32,281.945
			c-1.648,4.528-0.984,9.575,1.78,13.523c2.764,3.947,7.279,6.298,12.098,6.298h120.546c4.819,0,9.334-2.351,12.098-6.298
			C320.606,291.52,321.27,286.473,319.622,281.945z M206.291,272.225l39.18-107.646l39.18,107.646H206.291z"/>
	</g>
</g>
<g>
	<g>
		<path d="M474.394,421.727h-39.263l-141-387.393c-2.124-5.835-7.669-9.718-13.878-9.718h-69.565
			c-6.209,0-11.754,3.883-13.878,9.718L55.811,421.727H16.548c-8.157,0-14.769,6.613-14.769,14.769v60.735
			c0,8.157,6.613,14.769,14.769,14.769h172.86c8.157,0,14.769-6.613,14.769-14.769v-60.735c0-8.157-6.613-14.769-14.769-14.769
			h-37.531l23.258-63.9h140.672l23.258,63.9h-37.531c-8.157,0-14.769,6.613-14.769,14.769v60.735
			c0,8.157,6.613,14.769,14.769,14.769h172.86c8.157,0,14.769-6.613,14.769-14.769v-60.735
			C489.163,428.339,482.55,421.727,474.394,421.727z M459.624,482.462H316.303v-31.197h43.854c4.819,0,9.334-2.35,12.098-6.298
			s3.428-8.995,1.78-13.523l-34.009-93.438c-2.124-5.835-7.669-9.718-13.878-9.718H164.793c-6.209,0-11.754,3.883-13.878,9.718
			l-34.009,93.438c-1.648,4.528-0.984,9.575,1.78,13.523s7.279,6.298,12.098,6.298h43.854v31.197H31.317v-31.197h34.835
			c6.209,0,11.754-3.883,13.878-9.718l141-387.393h48.882l141,387.394c2.124,5.835,7.669,9.718,13.878,9.718h34.835V482.462z"/>
	</g>
</g>
<g>
	<g>
		<path d="M508.662,129.051L448.22,8.164C445.718,3.161,440.604,0,435.009,0s-10.708,3.161-13.211,8.164l-60.444,120.886
			c-2.289,4.577-2.044,10.016,0.647,14.369c2.691,4.354,7.445,7.005,12.564,7.005h120.886c5.119,0,9.873-2.651,12.564-7.005
			C510.707,139.066,510.951,133.628,508.662,129.051z M398.463,120.886l36.546-73.092l36.546,73.092H398.463z"/>
	</g>
</g>
</svg>
