<svg xmlns="http://www.w3.org/2000/svg" x="0px" y="0px"
	 viewBox="0 0 512 512">
<g>
	<g>
		<path d="M310.615,309.071l-52.496-144.229c-2.124-5.835-7.669-9.718-13.878-9.718s-11.754,3.883-13.878,9.718l-52.496,144.229
			c-1.648,4.528-0.984,9.575,1.78,13.523c2.764,3.947,7.279,6.298,12.098,6.298h104.991c4.819,0,9.334-2.351,12.098-6.298
			C311.598,318.646,312.262,313.599,310.615,309.071z M212.838,299.354l31.402-86.278l31.403,86.278H212.838z"/>
	</g>
</g>
<g>
	<g>
		<path d="M443.625,429.563h-32.863L288.413,93.41c-2.124-5.835-7.67-9.718-13.879-9.718h-60.588
			c-6.209,0-11.754,3.883-13.878,9.718L77.718,429.563H44.855c-8.157,0-14.769,6.613-14.769,14.769v52.898
			c0,8.157,6.613,14.769,14.769,14.769h150.556c8.157,0,14.769-6.613,14.769-14.769v-52.898c0-8.156-6.613-14.769-14.769-14.769
			h-29.966l18.869-51.843h119.853l18.869,51.843H293.07c-8.157,0-14.769,6.613-14.769,14.769v52.898
			c0,8.157,6.613,14.769,14.769,14.769h150.556c8.157,0,14.769-6.613,14.769-14.769v-52.898
			C458.395,436.176,451.782,429.563,443.625,429.563z M428.857,482.462L428.857,482.462H307.839v-23.36h36.289
			c4.819,0,9.334-2.351,12.098-6.298c2.765-3.947,3.428-8.995,1.781-13.523l-29.62-81.381c-2.124-5.835-7.67-9.718-13.879-9.718
			H173.973c-6.209,0-11.754,3.883-13.878,9.718l-29.62,81.381c-1.648,4.528-0.984,9.575,1.78,13.523
			c2.764,3.947,7.279,6.298,12.098,6.298h36.29v23.36H59.625v-23.36h28.435c6.209,0,11.754-3.883,13.878-9.718l122.35-336.153
			h39.905l122.35,336.154c2.124,5.835,7.67,9.718,13.879,9.718h28.435V482.462z"/>
	</g>
</g>
<g>
	<g>
		<path d="M479.708,7.005C477.017,2.651,472.263,0,467.145,0H346.259c-5.118,0-9.872,2.651-12.564,7.005
			c-2.691,4.354-2.935,9.792-0.646,14.369l60.444,120.886c2.501,5.004,7.615,8.164,13.21,8.164s10.709-3.161,13.21-8.164
			l60.443-120.886C482.644,16.796,482.4,11.359,479.708,7.005z M406.702,102.63l-36.546-73.092h73.091L406.702,102.63z"/>
	</g>
</g>
</svg>
