<?xml version="1.0" encoding="iso-8859-1"?>
<!-- Generator: Adobe Illustrator 19.1.0, SVG Export Plug-In . SVG Version: 6.00 Build 0)  -->
<svg version="1.1" id="Capa_1" xmlns="http://www.w3.org/2000/svg" xmlns:xlink="http://www.w3.org/1999/xlink" x="0px" y="0px"
	 viewBox="0 0 425 425" style="enable-background:new 0 0 425 425;" xml:space="preserve">
<g>
	<path d="M417.5,10.93c4.14,0,7.5,3.36,7.5,7.5s-3.36,7.5-7.5,7.5H7.5c-4.15,0-7.5-3.36-7.5-7.5s3.35-7.5,7.5-7.5H417.5z"/>
	<path d="M417.5,57.72c4.14,0,7.5,3.36,7.5,7.5s-3.36,7.5-7.5,7.5H7.5c-4.15,0-7.5-3.36-7.5-7.5s3.35-7.5,7.5-7.5H417.5z"/>
	<path d="M417.5,104.51c4.14,0,7.5,3.36,7.5,7.5s-3.36,7.5-7.5,7.5H7.5c-4.15,0-7.5-3.36-7.5-7.5s3.35-7.5,7.5-7.5H417.5z"/>
	<path d="M417.5,151.31c4.14,0,7.5,3.36,7.5,7.5s-3.36,7.5-7.5,7.5h-94.59c1.37,2,2.68,4.07,3.91,6.21
		c4.63,8.1,7.91,16.72,9.85,25.58h80.83c4.14,0,7.5,3.36,7.5,7.5s-3.36,7.5-7.5,7.5h-78.88c0.42,9.23-0.58,18.57-3.08,27.75
		c-0.37,1.36-0.78,2.7-1.2,4.04h83.16c4.14,0,7.5,3.36,7.5,7.5s-3.36,7.5-7.5,7.5h-89.55c-4.45,8.3-10.15,15.83-16.96,22.33
		l56.79,99.25c5.97,10.42,2.34,23.76-8.09,29.72c-3.4,1.95-7.12,2.88-10.78,2.88c-7.57,0-14.93-3.94-18.95-10.97l-56.79-99.25
		c-7.92,2.25-16.1,3.4-24.32,3.4c-7.94,0-15.92-1.06-23.78-3.19c-23.19-6.32-42.54-21.28-54.48-42.15
		c-0.39-0.67-0.76-1.35-1.13-2.02H7.5c-4.15,0-7.5-3.36-7.5-7.5s3.35-7.5,7.5-7.5h155.56c-3.37-10.42-4.73-21.19-4.23-31.79H7.5
		c-4.15,0-7.5-3.36-7.5-7.5s3.35-7.5,7.5-7.5h153.31c2.46-11.32,7.09-22.14,13.69-31.79H7.5c-4.15,0-7.5-3.36-7.5-7.5
		s3.35-7.5,7.5-7.5h179.91c4.95-4.6,10.49-8.71,16.6-12.21c34.98-20.01,77.9-13.88,105.98,12.21H417.5z M355.42,394.07
		c0.48-1.75,0.24-3.58-0.66-5.15l-55.61-97.2c-1.87,1.26-3.78,2.48-5.75,3.61c-1.98,1.13-3.99,2.17-6.02,3.14l55.6,97.18
		c1.86,3.25,6.02,4.38,9.26,2.52C353.81,397.27,354.94,395.81,355.42,394.07z M321.07,236.91c5.26-19.33,2.67-39.55-7.27-56.94
		c-9.95-17.39-26.08-29.86-45.41-35.12c-6.54-1.78-13.2-2.66-19.81-2.66c-12.89,0-25.63,3.36-37.12,9.93
		c-35.9,20.54-48.39,66.45-27.85,102.34c9.95,17.39,26.07,29.86,45.4,35.12c19.33,5.26,39.55,2.68,56.94-7.27
		C303.33,272.36,315.81,256.24,321.07,236.91z"/>
	<path style="fill:#3DD0F2;" d="M354.76,388.92c0.9,1.57,1.14,3.4,0.66,5.15c-0.48,1.74-1.61,3.2-3.18,4.1
		c-3.24,1.86-7.4,0.73-9.26-2.52l-55.6-97.18c2.03-0.97,4.04-2.01,6.02-3.14c1.97-1.13,3.88-2.35,5.75-3.61L354.76,388.92z"/>
	<path style="fill:#F48C6C;" d="M313.8,179.97c9.94,17.39,12.53,37.61,7.27,56.94c-5.26,19.33-17.74,35.45-35.12,45.4
		c-17.39,9.95-37.61,12.53-56.94,7.27c-19.33-5.26-35.45-17.73-45.4-35.12c-20.54-35.89-8.05-81.8,27.85-102.34
		c11.49-6.57,24.23-9.93,37.12-9.93c6.61,0,13.27,0.88,19.81,2.66C287.72,150.11,303.85,162.58,313.8,179.97z M281.98,275.37
		c32.06-18.35,43.22-59.36,24.88-91.43c-8.89-15.53-23.3-26.67-40.57-31.37c-17.26-4.7-35.33-2.39-50.86,6.49
		c-15.53,8.89-26.68,23.3-31.38,40.57c-4.7,17.26-2.39,35.33,6.5,50.86c12.36,21.6,35,33.71,58.27,33.71
		C260.09,284.2,271.51,281.36,281.98,275.37z"/>
	<path d="M306.86,183.94c18.34,32.07,7.18,73.08-24.88,91.43c-10.47,5.99-21.89,8.83-33.16,8.83c-23.27,0-45.91-12.11-58.27-33.71
		c-8.89-15.53-11.2-33.6-6.5-50.86c4.7-17.27,15.85-31.68,31.38-40.57c15.53-8.88,33.6-11.19,50.86-6.49
		C283.56,157.27,297.97,168.41,306.86,183.94z M196.76,214.77h103.86c-0.36-7.98-2.55-15.98-6.78-23.38
		c-6.9-12.05-18.08-20.7-31.48-24.35c-4.54-1.23-9.16-1.84-13.74-1.84c-8.94,0-17.77,2.32-25.74,6.88
		c-12.06,6.9-20.71,18.08-24.35,31.48C197.52,207.27,196.94,211.02,196.76,214.77z M299.12,229.77H198.23
		c1.15,4.59,2.92,9.05,5.34,13.27c6.9,12.06,18.08,20.71,31.48,24.35c13.4,3.65,27.42,1.86,39.48-5.04
		C287.32,255.03,295.81,243.06,299.12,229.77z"/>
</g>
<g>
</g>
<g>
</g>
<g>
</g>
<g>
</g>
<g>
</g>
<g>
</g>
<g>
</g>
<g>
</g>
<g>
</g>
<g>
</g>
<g>
</g>
<g>
</g>
<g>
</g>
<g>
</g>
<g>
</g>
</svg>
