<?xml version="1.0" encoding="iso-8859-1"?>
<!-- Generator: Adobe Illustrator 19.0.0, SVG Export Plug-In . SVG Version: 6.00 Build 0)  -->
<svg version="1.1" id="Layer_1" xmlns="http://www.w3.org/2000/svg" xmlns:xlink="http://www.w3.org/1999/xlink" x="0px" y="0px"
	 viewBox="0 0 480.008 480.008" style="enable-background:new 0 0 480.008 480.008;" xml:space="preserve">
<g>
	<circle style="fill:#66CEDB;" cx="344.004" cy="456" r="16"/>
	<path style="fill:#66CEDB;" d="M80.004,248c0,8.84,7.16,16,16,16c4.416,0,8.416-1.792,11.312-4.688s4.688-6.896,4.688-11.312
		c0-8.84-7.16-16-16-16S80.004,239.16,80.004,248z"/>
	<path style="fill:#66CEDB;" d="M88.004,40c8.84,0,16-7.16,16-16s-7.16-16-16-16s-16,7.16-16,16c0,4.416,1.792,8.416,4.688,11.312
		S83.588,40,88.004,40z"/>
	<circle style="fill:#66CEDB;" cx="56.004" cy="152" r="16"/>
	<path style="fill:#66CEDB;" d="M88.004,112c8.84,0,16-7.16,16-16c0-4.416-1.792-8.416-4.688-11.312
		C96.42,81.792,92.42,80,88.004,80c-8.84,0-16,7.16-16,16S79.164,112,88.004,112z"/>
	<circle style="fill:#66CEDB;" cx="184.004" cy="152" r="16"/>
	<circle style="fill:#66CEDB;" cx="160.004" cy="96" r="16"/>
	<circle style="fill:#66CEDB;" cx="240.004" cy="200" r="16"/>
	<circle style="fill:#66CEDB;" cx="192.004" cy="24" r="16"/>
	<circle style="fill:#66CEDB;" cx="264.004" cy="24" r="16"/>
	<circle style="fill:#66CEDB;" cx="336.004" cy="24" r="16"/>
	<circle style="fill:#66CEDB;" cx="456.004" cy="136" r="16"/>
	<circle style="fill:#66CEDB;" cx="408.004" cy="96" r="16"/>
	<circle style="fill:#66CEDB;" cx="288.004" cy="248" r="16"/>
	<circle style="fill:#66CEDB;" cx="344.004" cy="296" r="16"/>
	<circle style="fill:#66CEDB;" cx="216.004" cy="296" r="16"/>
	<path style="fill:#66CEDB;" d="M380.692,220.688c-2.896,2.896-4.688,6.896-4.688,11.312c0,8.84,7.16,16,16,16s16-7.16,16-16
		s-7.16-16-16-16C387.588,216,383.588,217.792,380.692,220.688z"/>
	<path style="fill:#66CEDB;" d="M456.004,200c-4.416,0-8.416,1.792-11.312,4.688s-4.688,6.896-4.688,11.312c0,8.84,7.16,16,16,16
		s16-7.16,16-16S464.844,200,456.004,200z"/>
	<circle style="fill:#66CEDB;" cx="392.004" cy="344" r="16"/>
	<circle style="fill:#66CEDB;" cx="392.004" cy="408" r="16"/>
	<circle style="fill:#66CEDB;" cx="304.004" cy="184" r="16"/>
</g>
<g>
	<path style="fill:#010133;" d="M184.004,128c-10.416,0-19.216,6.712-22.528,16H78.532c-3.312-9.288-12.112-16-22.528-16
		c-13.232,0-24,10.768-24,24s10.768,24,24,24c10.416,0,19.216-6.712,22.528-16h82.952c3.312,9.288,12.112,16,22.528,16
		c13.232,0,24-10.768,24-24S197.236,128,184.004,128z M56.004,160c-4.408,0-8-3.584-8-8s3.592-8,8-8s8,3.584,8,8
		S60.412,160,56.004,160z M184.004,160c-4.408,0-8-3.584-8-8s3.592-8,8-8s8,3.584,8,8S188.412,160,184.004,160z"/>
	<path style="fill:#010133;" d="M216.004,200c0,13.232,10.768,24,24,24s24-10.768,24-24c0-10.416-6.712-19.216-16-22.528V128
		c0-2.128-0.84-4.16-2.344-5.656l-32-32C212.164,88.84,210.124,88,208.004,88h-25.472c-3.312-9.288-12.112-16-22.528-16
		c-13.232,0-24,10.768-24,24s10.768,24,24,24c10.416,0,19.216-6.712,22.528-16h22.16l27.312,27.312v46.16
		C222.716,180.784,216.004,189.584,216.004,200z M160.004,104c-4.408,0-8-3.584-8-8s3.592-8,8-8s8,3.584,8,8
		S164.412,104,160.004,104z M240.004,208c-4.408,0-8-3.584-8-8s3.592-8,8-8c4.408,0,8,3.584,8,8S244.412,208,240.004,208z"/>
	<path style="fill:#010133;" d="M264.004,0c-13.232,0-24,10.768-24,24s10.768,24,24,24c3.696,0,7.152-0.904,10.28-2.408l77.72,77.72
		V200c0,2.128,0.84,4.16,2.344,5.656l16.064,16.064c-1.504,3.128-2.408,6.584-2.408,10.28c0,13.232,10.768,24,24,24s24-10.768,24-24
		s-10.768-24-24-24c-3.696,0-7.152,0.904-10.28,2.408l-13.72-13.72V120c0-2.128-0.84-4.16-2.344-5.656L285.596,34.28
		c1.504-3.128,2.408-6.584,2.408-10.28C288.004,10.768,277.236,0,264.004,0z M400.004,232c0,4.416-3.592,8-8,8s-8-3.584-8-8
		s3.592-8,8-8S400.004,227.584,400.004,232z M264.004,32c-4.408,0-8-3.584-8-8s3.592-8,8-8s8,3.584,8,8S268.412,32,264.004,32z"/>
	<path style="fill:#010133;" d="M464.004,113.472V80c0-2.128-0.84-4.16-2.344-5.656l-56-56C404.164,16.84,402.124,16,400.004,16
		h-41.472C355.22,6.712,346.42,0,336.004,0c-13.232,0-24,10.768-24,24s10.768,24,24,24c10.416,0,19.216-6.712,22.528-16h38.16
		l51.312,51.312v30.16c-9.288,3.312-16,12.112-16,22.528c0,13.232,10.768,24,24,24s24-10.768,24-24
		C480.004,125.584,473.292,116.784,464.004,113.472z M336.004,32c-4.408,0-8-3.584-8-8s3.592-8,8-8s8,3.584,8,8
		S340.412,32,336.004,32z M456.004,144c-4.408,0-8-3.584-8-8s3.592-8,8-8s8,3.584,8,8S460.412,144,456.004,144z"/>
	<path style="fill:#010133;" d="M368.004,296c0-13.232-10.768-24-24-24c-10.416,0-19.216,6.712-22.528,16h-82.944
		c-3.312-9.288-12.112-16-22.528-16s-19.216,6.712-22.528,16h-46.16l-29.72-29.72c1.504-3.128,2.408-6.584,2.408-10.28
		c0-13.232-10.768-24-24-24s-24,10.768-24,24s10.768,24,24,24c3.696,0,7.152-0.904,10.28-2.408l32.064,32.064
		c1.496,1.504,3.536,2.344,5.656,2.344h49.472c3.312,9.288,12.112,16,22.528,16s19.216-6.712,22.528-16h82.952
		c2.416,6.776,7.752,12.112,14.528,14.528V433.48c-9.288,3.312-16,12.112-16,22.528c0,13.232,10.768,24,24,24s24-10.768,24-24
		c0-10.416-6.712-19.216-16-22.528V318.528C361.292,315.216,368.004,306.416,368.004,296z M88.004,248c0-4.416,3.592-8,8-8
		s8,3.584,8,8s-3.592,8-8,8S88.004,252.416,88.004,248z M344.004,288c4.408,0,8,3.584,8,8s-3.592,8-8,8s-8-3.584-8-8
		S339.596,288,344.004,288z M216.004,304c-4.408,0-8-3.584-8-8s3.592-8,8-8s8,3.584,8,8S220.412,304,216.004,304z M344.004,464
		c-4.408,0-8-3.584-8-8s3.592-8,8-8s8,3.584,8,8S348.412,464,344.004,464z"/>
	<path style="fill:#010133;" d="M280.004,184c0,13.232,10.768,24,24,24s24-10.768,24-24c0-10.416-6.712-19.216-16-22.528V136
		c0-2.128-0.84-4.16-2.344-5.656L213.596,34.28c1.504-3.128,2.408-6.584,2.408-10.28c0-13.232-10.768-24-24-24
		c-10.416,0-19.216,6.712-22.528,16h-33.472c-4.416,0-8,3.576-8,8v20.688l-29.72,29.72C95.156,72.904,91.7,72,88.004,72
		c-13.232,0-24,10.768-24,24s10.768,24,24,24s24-10.768,24-24c0-3.696-0.904-7.152-2.408-10.28l32.064-32.064
		c1.504-1.496,2.344-3.528,2.344-5.656V32h25.472c3.312,9.288,12.112,16,22.528,16c3.696,0,7.152-0.904,10.28-2.408l93.72,93.72
		v22.16C286.716,164.784,280.004,173.584,280.004,184z M88.004,104c-4.408,0-8-3.584-8-8s3.592-8,8-8s8,3.584,8,8
		S92.412,104,88.004,104z M192.004,32c-4.408,0-8-3.584-8-8s3.592-8,8-8s8,3.584,8,8S196.412,32,192.004,32z M304.004,192
		c-4.408,0-8-3.584-8-8s3.592-8,8-8s8,3.584,8,8S308.412,192,304.004,192z"/>
	<path style="fill:#010133;" d="M26.348,205.656c1.496,1.504,3.536,2.344,5.656,2.344h84.688l45.656,45.656
		c1.496,1.504,3.536,2.344,5.656,2.344h97.472c3.312,9.288,12.112,16,22.528,16c13.232,0,24-10.768,24-24s-10.768-24-24-24
		c-10.416,0-19.216,6.712-22.528,16h-94.16l-45.656-45.656c-1.496-1.504-3.536-2.344-5.656-2.344H35.316l-19.312-19.312v-65.376
		l61.72-61.72C80.852,47.096,84.308,48,88.004,48c13.232,0,24-10.768,24-24s-10.768-24-24-24s-24,10.768-24,24
		c0,3.696,0.904,7.152,2.408,10.28L2.348,98.344C0.844,99.84,0.004,101.872,0.004,104v72c0,2.128,0.84,4.16,2.344,5.656
		L26.348,205.656z M288.004,240c4.408,0,8,3.584,8,8s-3.592,8-8,8s-8-3.584-8-8S283.596,240,288.004,240z M88.004,16
		c4.408,0,8,3.584,8,8s-3.592,8-8,8s-8-3.584-8-8S83.596,16,88.004,16z"/>
	<path style="fill:#010133;" d="M461.66,253.656c1.504-1.496,2.344-3.528,2.344-5.656v-9.472c9.288-3.312,16-12.112,16-22.528
		c0-13.232-10.768-24-24-24c-3.696,0-7.152,0.904-10.28,2.408l-29.72-29.72v-46.16c9.288-3.312,16-12.112,16-22.528
		c0-13.232-10.768-24-24-24s-24,10.768-24,24c0,10.416,6.712,19.216,16,22.528V168c0,2.128,0.84,4.16,2.344,5.656l32.064,32.064
		c-1.504,3.128-2.408,6.584-2.408,10.28c0,10.416,6.712,19.216,16,22.528v6.16l-61.656,61.656c-1.504,1.496-2.344,3.528-2.344,5.656
		v9.472c-9.288,3.312-16,12.112-16,22.528s6.712,19.216,16,22.528v18.952c-9.288,3.312-16,12.112-16,22.528
		c0,13.232,10.768,24,24,24s24-10.768,24-24c0-10.416-6.712-19.216-16-22.528v-18.952c9.288-3.312,16-12.112,16-22.528
		s-6.712-19.216-16-22.528v-6.16L461.66,253.656z M408.004,88c4.408,0,8,3.584,8,8s-3.592,8-8,8s-8-3.584-8-8S403.596,88,408.004,88
		z M464.004,216c0,4.416-3.592,8-8,8s-8-3.584-8-8s3.592-8,8-8S464.004,211.584,464.004,216z M392.004,416c-4.408,0-8-3.584-8-8
		s3.592-8,8-8s8,3.584,8,8S396.412,416,392.004,416z M392.004,352c-4.408,0-8-3.584-8-8s3.592-8,8-8s8,3.584,8,8
		S396.412,352,392.004,352z"/>
</g>
<g>
</g>
<g>
</g>
<g>
</g>
<g>
</g>
<g>
</g>
<g>
</g>
<g>
</g>
<g>
</g>
<g>
</g>
<g>
</g>
<g>
</g>
<g>
</g>
<g>
</g>
<g>
</g>
<g>
</g>
</svg>
