<svg height="512pt" viewBox="0 0 512 512" width="512pt" xmlns="http://www.w3.org/2000/svg"><path d="m460 383.996094h-408c-11.046875 0-20-8.953125-20-20v-305.996094h448v305.996094c0 11.046875-8.953125 20-20 20zm0 0" fill="#d3d7df"/><g fill="#ffcb7c"><path d="m236 383.996094h40v118h-40zm0 0"/><path d="m415.847656 501.996094h-48.179687l-54.363281-118h48.179687zm0 0"/><path d="m96.152344 501.996094h48.179687l54.363281-118h-48.179687zm0 0"/><path d="m10 10h492v48h-492zm0 0"/></g><path d="m502 0h-206c-5.523438 0-10 4.476562-10 10s4.476562 10 10 10h196v28h-472v-28h196c5.523438 0 10-4.476562 10-10s-4.476562-10-10-10h-206c-5.523438 0-10 4.476562-10 10v48c0 5.523438 4.476562 10 10 10h12v295.996094c0 16.542968 13.457031 30 30 30h82.894531l-47.824219 103.816406c-1.425781 3.097656-1.179687 6.707031.660157 9.578125 1.839843 2.871094 5.011719 4.605469 8.421875 4.605469h48.179687c3.902344 0 7.449219-2.269532 9.082031-5.8125l51.683594-112.1875h20.902344v108c0 5.523437 4.476562 10 10 10h40c5.523438 0 10-4.476563 10-10v-108h20.902344l51.683594 112.1875c1.632812 3.542968 5.179687 5.8125 9.082031 5.8125h48.179687c3.410156 0 6.582032-1.734375 8.421875-4.605469 1.839844-2.871094 2.085938-6.480469.660157-9.578125l-47.824219-103.816406h82.894531c16.542969 0 30-13.457032 30-30v-295.996094h12c5.523438 0 10-4.476562 10-10v-48c0-5.523438-4.476562-10-10-10zm-364.070312 491.996094h-26.160157l45.148438-98h26.160156zm128.070312 0h-20v-98h20zm134.230469 0h-26.160157l-45.148437-98h26.160156zm69.769531-128c0 5.515625-4.484375 10-10 10h-408c-5.515625 0-10-4.484375-10-10v-295.996094h428zm0 0"/><path d="m256 20c2.628906 0 5.210938-1.070312 7.070312-2.929688 1.859376-1.859374 2.929688-4.4375 2.929688-7.070312 0-2.628906-1.070312-5.210938-2.929688-7.070312-1.859374-1.859376-4.441406-2.929688-7.070312-2.929688s-5.210938 1.070312-7.070312 2.929688c-1.859376 1.863281-2.929688 4.441406-2.929688 7.070312 0 2.632812 1.070312 5.210938 2.929688 7.070312 1.859374 1.859376 4.441406 2.929688 7.070312 2.929688zm0 0"/><path d="m105.617188 210.050781 1.78125-1.78125v37.855469h-6.722657c-5.519531 0-10 4.476562-10 10s4.480469 10 10 10h33.445313c5.523437 0 10-4.476562 10-10s-4.476563-10-10-10h-6.722656v-62c0-4.046875-2.4375-7.691406-6.171876-9.238281-3.738281-1.546875-8.039062-.691407-10.898437 2.167969l-18.855469 18.851562c-3.90625 3.90625-3.90625 10.238281 0 14.144531 3.90625 3.902344 10.238282 3.902344 14.144532 0zm0 0"/><path d="m244.21875 210.050781 1.78125-1.78125v37.855469h-6.722656c-5.523438 0-10 4.476562-10 10s4.476562 10 10 10h33.445312c5.519532 0 10-4.476562 10-10s-4.480468-10-10-10h-6.722656v-62c0-4.046875-2.4375-7.691406-6.171875-9.238281-3.738281-1.546875-8.039063-.691407-10.898437 2.167969l-18.855469 18.851562c-3.902344 3.90625-3.902344 10.238281 0 14.144531 3.90625 3.902344 10.238281 3.902344 14.144531 0zm0 0"/><path d="m168 231h4.332031v4.332031c0 5.523438 4.480469 10 10 10 5.523438 0 10-4.476562 10-10v-4.332031h4.335938c5.519531 0 10-4.480469 10-10 0-5.523438-4.480469-10-10-10h-4.335938v-4.335938c0-5.519531-4.476562-10-10-10-5.519531 0-10 4.480469-10 10v4.335938h-4.332031c-5.523438 0-10 4.476562-10 10 0 5.519531 4.476562 10 10 10zm0 0"/><path d="m318.167969 225.996094h28.664062c5.523438 0 10-4.476563 10-10 0-5.519532-4.476562-10-10-10h-28.664062c-5.523438 0-10 4.480468-10 10 0 5.523437 4.476562 10 10 10zm0 0"/><path d="m318.167969 265.996094h28.664062c5.523438 0 10-4.476563 10-10 0-5.519532-4.476562-10-10-10h-28.664062c-5.523438 0-10 4.480468-10 10 0 5.523437 4.476562 10 10 10zm0 0"/><path d="m387.183594 207.5625c5.523437 0 10-4.476562 10-10 0-2.324219.957031-4.457031 2.6875-6.011719 1.730468-1.550781 3.980468-2.261719 6.339844-2 3.621093.398438 6.652343 3.433594 7.054687 7.054688.4375 3.976562-1.824219 6.746093-4.089844 8.011719-8.589843 4.800781-13.925781 13.71875-13.925781 23.273437v.773437c0 5.523438 4.476562 10 10 10s10-4.476562 10-10v-.773437c0-2.355469 1.378906-4.527344 3.683594-5.816406 9.878906-5.523438 15.457031-16.382813 14.210937-27.664063-1.425781-12.90625-11.832031-23.3125-24.738281-24.738281-7.96875-.878906-15.941406 1.664063-21.875 6.980469-5.941406 5.320312-9.347656 12.941406-9.347656 20.910156 0 5.523438 4.476562 10 10 10zm0 0"/><path d="m405.25 246c-2.628906 0-5.210938 1.0625-7.070312 2.921875-1.859376 1.867187-2.929688 4.449219-2.929688 7.078125 0 2.632812 1.070312 5.210938 2.929688 7.070312 1.859374 1.859376 4.441406 2.929688 7.070312 2.929688s5.210938-1.070312 7.070312-2.929688c1.859376-1.871093 2.929688-4.4375 2.929688-7.070312 0-2.628906-1.070312-5.210938-2.929688-7.078125-1.859374-1.859375-4.441406-2.921875-7.070312-2.921875zm0 0"/></svg>