<svg height="480pt" viewBox="0 0 480 480" width="480pt" xmlns="http://www.w3.org/2000/svg"><path d="m320 181.359375c-14.160156-2.078125-30.078125-3.597656-47.121094-4.480469-10.558594-.558594-21.597656-.878906-32.878906-.878906s-22.320312.320312-32.878906.878906c-17.042969.882813-32.960938 2.402344-47.121094 4.480469-38.558594 5.761719-64 15.519531-64 26.640625 0 17.679688 64.480469 32 144 32s144-14.320312 144-32c0-11.121094-25.441406-20.878906-64-26.640625zm0 0" fill="#ffb655"/><path d="m472 24c0 8.835938-7.164062 16-16 16s-16-7.164062-16-16 7.164062-16 16-16 16 7.164062 16 16zm0 0" fill="#ff5023"/><path d="m472 120c0 8.835938-7.164062 16-16 16s-16-7.164062-16-16 7.164062-16 16-16 16 7.164062 16 16zm0 0" fill="#ff5023"/><path d="m384 232c17.671875 0 32 14.328125 32 32s-14.328125 32-32 32h-.238281c.160156-2.640625.238281-5.359375.238281-8zm0 0" fill="#ffb655"/><path d="m384 232v56c0 2.640625-.078125 5.359375-.238281 8-2.847657 51.628906-33.167969 97.761719-79.433594 120.855469-46.265625 23.089843-101.359375 19.585937-144.328125-9.175781-7.855469-5.207032-15.171875-11.183594-21.839844-17.839844-25.046875-25.054688-39.976562-58.464844-41.921875-93.839844-.160156-2.640625-.238281-5.359375-.238281-8v-80c0 17.679688 64.480469 32 144 32s144-14.320312 144-32zm0 0" fill="#ffc477"/><path d="m320 407.679688v64.320312h-160v-64.320312c48.402344 32.429687 111.597656 32.429687 160 0zm0 0" fill="#ffc477"/><path d="m328 80v-32l-16-16h-24l-8-24h-24l-16 16v176l16 16h24l8-24 32-8v-16l24-24v-40zm0 0" fill="#ed539d"/><path d="m224 8h-24l-8 24h-24l-16 16v32l-16 24v40l24 24v16l32 8 8 24h24l16-16v-176zm0 0" fill="#ea348b"/><path d="m96.238281 296h-.238281c-17.671875 0-32-14.328125-32-32s14.328125-32 32-32v56c0 2.640625.078125 5.359375.238281 8zm0 0" fill="#ffb655"/><path d="m40 24c0 8.835938-7.164062 16-16 16s-16-7.164062-16-16 7.164062-16 16-16 16 7.164062 16 16zm0 0" fill="#ff5023"/><path d="m40 120c0 8.835938-7.164062 16-16 16s-16-7.164062-16-16 7.164062-16 16-16 16 7.164062 16 16zm0 0" fill="#ff5023"/><path d="m240 352c13.253906 0 24-10.746094 24-24v-48h-16v48c0 4.417969-3.582031 8-8 8s-8-3.582031-8-8v-48h-16v48c0 13.253906 10.746094 24 24 24zm0 0"/><path d="m312 264c-13.253906 0-24 10.746094-24 24h16c0-4.417969 3.582031-8 8-8s8 3.582031 8 8h16c0-13.253906-10.746094-24-24-24zm0 0"/><path d="m168 264c-13.253906 0-24 10.746094-24 24h16c0-4.417969 3.582031-8 8-8s8 3.582031 8 8h16c0-13.253906-10.746094-24-24-24zm0 0"/><path d="m392 224.800781v-16.800781c0-12.929688-15.113281-22.71875-46.191406-29.929688l-3.617188 15.59375c25.976563 6.015626 33.304688 12.632813 33.824219 14.191407-2.398437 8.433593-51.199219 24.144531-136 24.144531s-133.535156-15.679688-136-23.832031v-.054688c.570313-1.875 7.929687-8.449219 33.808594-14.449219l-3.617188-15.59375c-31.09375 7.210938-46.207031 17-46.207031 29.929688v16.800781c-18.761719 3.824219-32.171875 20.417969-31.976562 39.5625.195312 19.144531 13.941406 35.460938 32.777343 38.902344 4.460938 43.5625 27.496094 83.082031 63.199219 108.4375v60.296875c0 4.417969 3.582031 8 8 8h160c4.417969 0 8-3.582031 8-8v-60.296875c35.703125-25.351563 58.734375-64.871094 63.199219-108.429687 18.84375-3.433594 32.601562-19.753907 32.796875-38.90625.195312-19.152344-13.226563-35.75-31.996094-39.566407zm-320 39.199219c.042969-10.132812 6.445312-19.148438 16-22.527344v45.054688c-9.554688-3.378906-15.957031-12.394532-16-22.527344zm240 200h-144v-42.183594c44.9375 24.246094 99.0625 24.246094 144 0zm-72-40c-75.074219-.082031-135.917969-60.925781-136-136v-60.335938c29.601562 15.617188 93.742188 20.335938 136 20.335938s106.398438-4.71875 136-20.335938v60.335938c-.082031 75.074219-60.925781 135.917969-136 136zm152-137.472656v-45.054688c9.585938 3.339844 16.007812 12.378906 16.007812 22.527344s-6.421874 19.1875-16.007812 22.527344zm0 0"/><path d="m240 376c-21.679688 0-40-10.992188-40-24h-16c0 22.398438 24.601562 40 56 40s56-17.601562 56-40h-16c0 13.007812-18.320312 24-40 24zm0 0"/><path d="m282.34375 117.65625 11.3125-11.3125-13.65625-13.65625v-20.6875h-16v24c0 2.121094.84375 4.15625 2.34375 5.65625zm0 0"/><path d="m285.65625 130.34375-11.3125 11.3125 5.65625 5.65625v12.6875h16v-16c0-2.121094-.84375-4.15625-2.34375-5.65625zm0 0"/><path d="m152 171.3125v12.6875c0 3.667969 2.496094 6.867188 6.054688 7.761719l27.746093 6.933593 6.605469 19.832032c1.089844 3.269531 4.148438 5.472656 7.59375 5.472656h24c2.121094 0 4.15625-.84375 5.65625-2.34375l10.34375-10.34375 10.34375 10.34375c1.5 1.5 3.535156 2.34375 5.65625 2.34375h24c3.445312 0 6.503906-2.203125 7.59375-5.472656l6.605469-19.832032 27.746093-6.933593c3.558594-.894531 6.054688-4.09375 6.054688-7.761719v-12.6875l21.65625-21.65625c1.5-1.5 2.34375-3.535156 2.34375-5.65625v-40c-.003906-1.578125-.46875-3.125-1.34375-4.441406l-14.65625-21.957032v-29.601562c0-2.121094-.84375-4.15625-2.34375-5.65625l-16-16c-1.5-1.5-3.535156-2.34375-5.65625-2.34375h-18.230469l-6.175781-18.527344c-1.089844-3.269531-4.148438-5.472656-7.59375-5.472656h-24c-2.121094 0-4.15625.84375-5.65625 2.34375l-10.34375 10.34375-10.34375-10.34375c-1.5-1.5-3.535156-2.34375-5.65625-2.34375h-24c-3.445312 0-6.503906 2.203125-7.59375 5.472656l-6.175781 18.527344h-18.230469c-2.121094 0-4.15625.84375-5.65625 2.34375l-16 16c-1.5 1.5-2.34375 3.535156-2.34375 5.65625v29.601562l-14.65625 21.984376c-.871094 1.308593-1.335938 2.84375-1.34375 4.414062v40c0 2.121094.84375 4.15625 2.34375 5.65625zm107.3125-155.3125h14.917969l4.617187 13.839844-12.503906 12.503906c-1.5 1.5-2.34375 3.535156-2.34375 5.65625v8h16v-4.6875l11.3125-11.3125h17.375l11.3125 11.3125v25.375l-13.65625 13.65625c-1.5 1.5-2.34375 3.535156-2.34375 5.65625v8h16v-4.6875l6.761719-6.753906 9.238281 13.839844v34.265624l-8 8v-12.664062h-16v41.753906l-21.542969 5.390625-10.457031-10.457031v-4.6875h-16v8c0 2.121094.84375 4.15625 2.34375 5.65625l12.503906 12.503906-4.617187 13.839844h-14.917969l-11.3125-11.3125v-169.375zm-115.3125 90.398438 9.238281-13.863282 6.761719 6.753906v4.710938h16v-8c0-2.121094-.84375-4.15625-2.34375-5.65625l-13.65625-13.65625v-25.375l11.3125-11.3125h17.375l11.3125 11.3125v4.6875h16v-8c0-2.121094-.84375-4.15625-2.34375-5.65625l-12.503906-12.503906 4.617187-13.839844h14.917969l11.3125 11.3125v169.375l-11.3125 11.3125h-14.917969l-4.617187-13.839844 12.503906-12.503906c1.5-1.5 2.34375-3.535156 2.34375-5.65625v-8h-16v4.6875l-10.457031 10.457031-21.542969-5.390625v-41.753906h-16v12.6875l-8-8zm0 0"/><path d="m213.65625 101.65625c1.5-1.5 2.34375-3.535156 2.34375-5.65625v-24h-16v20.6875l-13.65625 13.65625 11.3125 11.3125zm0 0"/><path d="m200 147.3125 5.65625-5.65625-11.3125-11.3125-8 8c-1.5 1.5-2.34375 3.535156-2.34375 5.65625v16h16zm0 0"/><path d="m456 48c13.253906 0 24-10.746094 24-24s-10.746094-24-24-24-24 10.746094-24 24 10.746094 24 24 24zm0-32c4.417969 0 8 3.582031 8 8s-3.582031 8-8 8-8-3.582031-8-8 3.582031-8 8-8zm0 0"/><path d="m456 96c-13.253906 0-24 10.746094-24 24s10.746094 24 24 24 24-10.746094 24-24-10.746094-24-24-24zm0 32c-4.417969 0-8-3.582031-8-8s3.582031-8 8-8 8 3.582031 8 8-3.582031 8-8 8zm0 0"/><path d="m403.3125 32h12.6875v-16h-16c-2.121094 0-4.15625.84375-5.65625 2.34375l-32 32 11.3125 11.3125zm0 0"/><path d="m368 112h48v16h-48zm0 0"/><path d="m24 0c-13.253906 0-24 10.746094-24 24s10.746094 24 24 24 24-10.746094 24-24-10.746094-24-24-24zm0 32c-4.417969 0-8-3.582031-8-8s3.582031-8 8-8 8 3.582031 8 8-3.582031 8-8 8zm0 0"/><path d="m24 96c-13.253906 0-24 10.746094-24 24s10.746094 24 24 24 24-10.746094 24-24-10.746094-24-24-24zm0 32c-4.417969 0-8-3.582031-8-8s3.582031-8 8-8 8 3.582031 8 8-3.582031 8-8 8zm0 0"/><path d="m106.34375 61.65625 11.3125-11.3125-32-32c-1.5-1.5-3.535156-2.34375-5.65625-2.34375h-16v16h12.6875zm0 0"/><path d="m64 112h48v16h-48zm0 0"/></svg>