<svg height="512pt" viewBox="0 0 512 512" width="512pt" xmlns="http://www.w3.org/2000/svg"><path d="m512 256c0 141.386719-114.613281 256-256 256s-256-114.613281-256-256 114.613281-256 256-256 256 114.613281 256 256zm0 0" fill="#ffe955"/><path d="m512 256c0 141.378906-114.621094 256-256 256s-256-114.621094-256-256c0-46.21875 12.25-89.570312 33.679688-127 44.121093 77.070312 127.160156 129 222.320312 129s178.210938-51.929688 222.320312-129c21.429688 37.429688 33.679688 80.78125 33.679688 127zm0 0" fill="#ffd112"/><path d="m481.261719 377.699219v.011719c-43.292969 79.96875-127.941407 134.289062-225.261719 134.289062s-181.96875-54.320312-225.261719-134.289062v-.011719zm0 0" fill="#ff9f00"/><path d="m440.378906 367.644531c-2.105468-24.804687-11.945312-47.40625-27.089844-65.386719-4.324218-5.136718-9.082031-9.898437-14.21875-14.214843-17.980468-15.15625-40.582031-24.988281-65.386718-27.09375-3.316406-.285157-6.667969-.429688-10.054688-.429688-3.386718 0-6.742187.148438-10.054687.429688-24.804688 2.105469-47.40625 11.9375-65.386719 27.085937-5.136719 4.324219-9.898438 9.085938-14.214844 14.222656-15.148437 17.980469-24.988281 40.582032-27.09375 65.386719-.28125 3.3125-.425781 6.671875-.425781 10.058594 0 3.382813.144531 6.734375.425781 10.046875 1.445313 17.035156 6.535156 33.03125 14.488282 47.203125-9.820313 15.441406-24.5625 27.4375-42.023438 33.777344 8.90625 3.238281 18.511719 5 28.535156 5 13.472656 0 26.195313-3.191407 37.464844-8.851563.9375.839844 1.882812 1.671875 2.847656 2.480469 17.980469 15.152344 40.578125 24.988281 65.386719 27.09375 3.3125.28125 6.664063.425781 10.050781.425781 3.390625 0 6.742188-.144531 10.054688-.425781 24.804687-2.105469 47.410156-11.945313 65.390625-27.09375 5.136719-4.324219 9.898437-9.085937 14.214843-14.222656 15.152344-17.980469 24.984376-40.585938 27.089844-65.386719.28125-3.3125.425782-6.664062.425782-10.046875 0-3.386719-.144532-6.746094-.425782-10.058594zm0 0" fill="#9e69e2"/><path d="m440.808594 377.703125c0 64.710937-52.464844 117.175781-117.175782 117.175781v-234.359375c64.710938 0 117.175782 52.464844 117.175782 117.183594zm0 0" fill="#8e4fd2"/><path d="m323.628906 307.753906c-.597656-.042968-1.203125-.0625-1.8125-.0625h-28.769531c-5.273437 0-10.046875 2.132813-13.5 5.59375-3.460937 3.457032-5.597656 8.234375-5.597656 13.507813 0 10.546875 8.550781 19.09375 19.097656 19.09375h6.367187v83.917969c0 6.683593 2.710938 12.738281 7.09375 17.121093 4.382813 4.382813 10.433594 7.09375 17.121094 7.09375 13.371094 0 24.214844-10.84375 24.214844-24.214843v-96.085938c0-13.765625-10.683594-25.035156-24.214844-25.964844zm0 0" fill="#fff"/><path d="m347.84375 333.71875v96.085938c0 13.371093-10.84375 24.210937-24.214844 24.210937v-146.261719c13.53125.929688 24.214844 12.199219 24.214844 25.964844zm0 0" fill="#d0f6ff"/><path d="m242.007812 237.863281c0-54.4375-44.128906-98.566406-98.5625-98.566406-54.433593 0-98.5625 44.128906-98.5625 98.566406 0 54.433594 44.128907 98.5625 98.5625 98.5625 54.433594 0 98.5625-44.128906 98.5625-98.5625zm0 0" fill="#6cdc2d"/><path d="m255.984375 330.996094c-15.566406-5.652344-28.140625-17.535156-34.734375-32.625 13.007812-16.703125 20.757812-37.699219 20.757812-60.507813 0-54.433593-44.125-98.5625-98.5625-98.5625v197.125c19.675782 0 38.003907-5.765625 53.390626-15.699219 10.453124 8.671876 23.882812 13.882813 38.527343 13.882813 7.242188 0 14.1875-1.273437 20.621094-3.613281zm0 0" fill="#00a042"/><path d="m180.832031 271.136719h-31.21875l20.1875-20c14.769531-14.585938 25.800781-29.164063 25.800781-44.300781 0-21.316407-20.566406-35.523438-47.667968-35.523438-1.5 0-3 .042969-4.484375.125-13.664063.738281-26.75 4.84375-39.511719 11.585938-5.8125 3.074218-9.160156 9.007812-9.160156 15.15625 0 2.621093.605468 5.285156 1.894531 7.777343 4.433594 8.613281 15.117187 11.746094 23.578125 7.027344 7.628906-4.257813 14.886719-6.714844 20.949219-6.714844.800781 0 1.550781.050781 2.25.140625 4.367187.570313 6.722656 2.914063 6.722656 6.777344 0 3.566406-2.835937 8.4375-6.722656 13.09375-1 1.207031-2.074219 2.390625-3.183594 3.542969l-40.261719 41.574219c-3.515625 3.636718-5.480468 8.488281-5.480468 13.535156v.144531c.070312 10.699219 8.761718 19.335937 19.464843 19.335937h66.84375c4.59375 0 8.753907-1.863281 11.765625-4.875 3.007813-3.007812 4.871094-7.167968 4.871094-11.761718 0-9.191406-7.449219-16.640625-16.636719-16.640625zm0 0" fill="#fff"/><path d="m197.46875 287.777344c0 4.589844-1.863281 8.753906-4.871094 11.761718-3.011718 3.011719-7.171875 4.871094-11.761718 4.871094h-37.386719v-78.128906c3.886719-4.660156 6.726562-9.53125 6.726562-13.09375 0-3.867188-2.359375-6.207031-6.726562-6.777344v-34.972656c1.488281-.082031 2.984375-.125 4.484375-.125 27.101562 0 47.667968 14.207031 47.667968 35.523438 0 15.136718-11.03125 29.714843-25.800781 44.300781l-20.1875 20h31.21875c9.1875 0 16.636719 7.449219 16.636719 16.640625zm0 0" fill="#d0f6ff"/><path d="m347.191406 91.742188c-41.269531 0-74.722656 33.457031-74.722656 74.722656 0 18.382812 6.636719 35.210937 17.644531 48.226562-5.914062 11.007813-15.738281 19.609375-27.621093 23.921875 5.453124 1.984375 11.332031 3.0625 17.46875 3.0625 11.441406 0 22.007812-3.757812 30.527343-10.105469 10.839844 6.125 23.363281 9.625 36.703125 9.625 41.273438 0 74.726563-33.457031 74.726563-74.730468 0-41.265625-33.453125-74.722656-74.726563-74.722656zm0 0" fill="#65b2ff"/><path d="m421.917969 166.464844c0 41.273437-33.453125 74.730468-74.726563 74.730468v-149.453124c41.273438 0 74.726563 33.457031 74.726563 74.722656zm0 0" fill="#0f9be8"/><path d="m362.957031 156.257812-4.480469-.976562 18.855469-16.773438c2.507813-2.234374 3.945313-5.433593 3.945313-8.796874v-1.121094c0-6.503906-5.269532-11.777344-11.769532-11.777344h-48.097656c-3.238281 0-6.179687 1.316406-8.308594 3.441406-2.121093 2.125-3.4375 5.0625-3.4375 8.308594 0 6.484375 5.257813 11.746094 11.746094 11.746094h21.546875l-14.996093 14.433594c-1.15625 1.105468-2.054688 2.429687-2.675782 3.871093-.609375 1.445313-.9375 3.015625-.9375 4.613281 0 6.5 5.273438 11.773438 11.777344 11.773438h6.550781c1.6875 0 3.191407.140625 4.511719.421875 4.710938 1 7.097656 3.773437 7.097656 8.253906 0 4.472657-2.386718 7.164063-7.097656 8.128907-1.320312.265624-2.824219.402343-4.511719.402343-5.199219 0-10.210937-1.507812-15.015625-4.496093-6.191406-3.855469-14.332031-1.773438-17.710937 4.691406l-.183594.351562c-3.339844 6.382813-.542969 14.210938 6.035156 17.132813 8.796875 3.902343 19.289063 6.242187 29.535157 6.242187.621093 0 1.238281-.011718 1.851562-.03125 23.699219-.652344 38.847656-13.882812 38.847656-32.5625 0-14.6875-9.652344-24.339844-23.078125-27.277344zm0 0" fill="#fff"/><path d="m386.035156 183.535156c0 18.679688-15.152344 31.910156-38.847656 32.5625v-24.292968c4.710938-.964844 7.097656-3.652344 7.097656-8.128907 0-4.476562-2.386718-7.253906-7.097656-8.253906v-58.609375h22.320312c6.5 0 11.773438 5.273438 11.773438 11.777344v1.121094c0 3.363281-1.4375 6.566406-3.945312 8.796874l-18.855469 16.773438 4.476562.976562c13.425781 2.9375 23.078125 12.589844 23.078125 27.277344zm0 0" fill="#d0f6ff"/><g fill="#fff"><path d="m125.335938 387.691406h1.523437c6.753906 0 12.226563-5.472656 12.226563-12.226562v-1.523438h8.71875v1.523438c0 6.753906 5.472656 12.226562 12.226562 12.226562h1.523438v8.71875h-1.523438c-6.753906 0-12.226562 5.472656-12.226562 12.226563v1.523437h-8.71875v-1.523437c0-6.753907-5.472657-12.226563-12.226563-12.226563h-1.523437zm0 0"/><path d="m431.335938 245.691406h1.523437c6.753906 0 12.226563-5.472656 12.226563-12.226562v-1.523438h8.71875v1.523438c0 6.753906 5.472656 12.226562 12.226562 12.226562h1.523438v8.71875h-1.523438c-6.753906 0-12.226562 5.472656-12.226562 12.226563v1.523437h-8.71875v-1.523437c0-6.753907-5.472657-12.226563-12.226563-12.226563h-1.523437zm0 0"/><path d="m211.335938 69.277344h1.523437c6.753906 0 12.226563-5.472656 12.226563-12.226563v-1.523437h8.714843v1.523437c0 6.753907 5.476563 12.226563 12.226563 12.226563h1.527344v8.714844h-1.527344c-6.75 0-12.226563 5.476562-12.226563 12.226562v1.527344h-8.714843v-1.527344c0-6.75-5.472657-12.226562-12.226563-12.226562h-1.523437zm0 0"/></g></svg>