<svg viewBox="-18 0 512 512.001" xmlns="http://www.w3.org/2000/svg"><path d="m444.804688 131.363281h-171.222657v-82.238281c0-22.988281 18.636719-41.625 41.625-41.625h87.972657c22.988281 0 41.625 18.636719 41.625 41.625zm0 0" fill="#ffabcd"/><path d="m384.804688 7.5h-69.597657c-22.988281 0-41.625 18.636719-41.625 41.625v82.238281h69.597657v-82.238281c0-22.988281 18.636718-41.625 41.625-41.625zm0 0" fill="#ff8fb4"/><path d="m244.992188 117.289062v88.765626c0 9.511718-3.777344 18.636718-10.503907 25.363281l-45.789062 45.785156c-43.796875 43.800781-43.796875 114.8125 0 158.613281 21.902343 21.902344 50.601562 32.847656 79.308593 32.847656 28.699219 0 57.40625-10.949218 79.304688-32.847656l89.140625-89.140625c21.035156-21.035156 32.851563-49.5625 32.851563-79.308593v-150.078126c0-17.710937-14.359376-32.070312-32.074219-32.070312h-160.164063c-17.714844 0-32.074218 14.359375-32.074218 32.070312zm0 0" fill="#9ff6ff"/><path d="m244.992188 117.289062v88.765626c0 9.511718-3.777344 18.636718-10.503907 25.363281l-45.789062 45.785156c-43.800781 43.800781-43.800781 114.8125 0 158.613281 21.902343 21.902344 50.601562 32.847656 79.308593 32.847656 22.632813 0 45.257813-6.800781 64.558594-20.421874 68.039063-100.144532 36.316406-181.335938 32.964844-254.753907-3.953125-86.695312 27.089844-108.269531 27.089844-108.269531h-115.554688c-17.714844 0-32.074218 14.359375-32.074218 32.070312zm0 0" fill="#7de7ff"/><path d="m469.304688 267.367188v-73.871094c-2.171876-.128906-114.675782 0-114.675782 107.902344 0 34.695312 16.347656 65.566406 41.753906 85.347656l40.074219-40.070313c21.03125-21.035156 32.847657-49.5625 32.847657-79.308593zm0 0" fill="#ffabcd"/><path d="m296.453125 167.195312h-171.21875v-82.238281c0-22.988281 18.632813-41.621093 41.621094-41.621093h87.972656c22.988281 0 41.625 18.632812 41.625 41.621093zm0 0" fill="#ffc2e1"/><path d="m229.597656 43.335938h-62.742187c-22.988281 0-41.621094 18.632812-41.621094 41.621093v82.238281h62.738281v-82.238281c0-22.988281 18.636719-41.621093 41.625-41.621093zm0 0" fill="#ffabcd"/><path d="m96.640625 153.125v88.761719c0 9.515625-3.777344 18.636719-10.503906 25.363281l-45.785157 45.789062c-43.800781 43.796876-43.800781 114.8125-.003906 158.613282 21.902344 21.902344 50.601563 32.847656 79.308594 32.847656 28.699219 0 57.410156-10.949219 79.304688-32.847656l89.144531-89.140625c21.03125-21.035157 32.847656-49.5625 32.847656-79.308594v-150.078125c0-17.714844-14.359375-32.074219-32.074219-32.074219h-160.164062c-17.710938 0-32.074219 14.359375-32.074219 32.074219zm0 0" fill="#ccf8ff"/><path d="m320.953125 303.203125v-73.871094c-2.171875-.128906-114.671875 0-114.671875 107.902344 0 34.691406 16.34375 65.566406 41.75 85.347656l40.074219-40.074219c21.03125-21.03125 32.847656-49.558593 32.847656-79.304687zm0 0" fill="#ffc2e1"/><path d="m128.714844 121.050781c-17.714844 0-32.074219 14.359375-32.074219 32.074219v88.761719c0 9.515625-3.777344 18.636719-10.507813 25.363281l-45.785156 45.789062c-39.082031 39.078126-43.289062 99.828126-12.628906 143.578126 33.261719-112.3125 147.03125-85.824219 145.140625-212.75-.90625-60.484376 8.1875-98.71875 19.347656-122.816407zm0 0" fill="#9ff6ff"/><path d="m370.332031 241.859375c-9.511719 14.839844-15.703125 34.222656-15.703125 59.539063 0 21.128906 6.0625 40.839843 16.542969 57.492187 8.425781-42.039063 3.695313-80.664063-.839844-117.03125zm0 0" fill="#ff8fb4"/><path d="m437.230469 77.71875h-133.8125c-2.113281-14.21875-10.339844-26.460938-21.910157-33.976562 2.585938-16.375 16.765626-28.742188 33.699219-28.742188h87.972657c18.816406 0 34.125 15.308594 34.125 34.125 0 0-1.863282 12.875 7.5 12.875 8.171874 0 7.5-12.875 7.5-12.875 0-27.089844-22.039063-49.125-49.125-49.125h-87.972657c-23.015625 0-42.488281 15.878906-47.730469 37.492188-4.035156-1.078126-8.273437-1.660157-12.644531-1.660157h-87.972656c-27.089844 0-49.125 22.039063-49.125 49.125v30.15625c-16.492187 4.773438-28.589844 20-28.589844 38.011719v88.761719c0 7.578125-2.953125 14.703125-8.308593 20.0625l-45.789063 45.785156c-22.597656 22.601563-35.046875 52.648437-35.046875 84.609375s12.445312 62.011719 35.046875 84.609375c22.601563 22.601563 52.648437 35.046875 84.609375 35.046875s62.011719-12.445312 84.609375-35.046875l12.363281-12.359375c15.964844 7.582031 33.597656 11.574219 51.378906 11.574219 31.960938 0 62.007813-12.445313 84.609376-35.046875l89.140624-89.140625c22.601563-22.601563 35.046876-52.648438 35.046876-84.609375v-150.082032c0-21.820312-17.753907-39.570312-39.574219-39.570312zm-270.375-26.886719h87.972656c18.816406 0 34.125 15.308594 34.125 34.125v28.597657c-.023437 0-.046875-.003907-.070313-.003907h-156.148437v-28.59375c0-18.816406 15.304687-34.125 34.121094-34.125zm26.804687 415.515625c-19.769531 19.765625-46.050781 30.652344-74.003906 30.652344-27.957031 0-54.238281-10.886719-74.003906-30.652344-19.765625-19.769531-30.652344-46.046875-30.652344-74.003906 0-27.953125 10.886719-54.234375 30.652344-74.003906l45.789062-45.785156c8.1875-8.191407 12.699219-19.082032 12.699219-30.667969v-88.761719c0-13.550781 11.027344-24.574219 24.574219-24.574219h160.167968c13.546876 0 24.574219 11.023438 24.574219 24.574219v69c-16.324219 1.144531-54.441406 6.71875-82.59375 33.234375-21.289062 20.050781-32.082031 47.597656-32.082031 81.871094 0 4.574219.269531 9.179687.800781 13.699219.453125 3.8125 3.253907 7.121093 8.328125 6.566406 4.121094-.449219 7.054688-4.214844 6.570313-8.328125-.464844-3.933594-.703125-7.949219-.703125-11.9375 0-29.375 8.847656-52.902344 26.296875-69.921875 24.308593-23.714844 58.621093-28.988282 73.378906-30.15625v66.050781c0 27.953125-10.886719 54.234375-30.652344 74.003906l-35.230469 35.226563c-10.648437-9.472656-19.246093-21.160156-25.058593-34.132813-1.691407-3.78125-6.125-5.472656-9.910157-3.78125-3.777343 1.695313-5.472656 6.128907-3.777343 9.910157 6.554687 14.640624 16.203125 27.84375 28.128906 38.621093zm148.347656-35.832031c-19.765624 19.765625-46.046874 30.652344-74 30.652344-13.75 0-27.394531-2.730469-40.019531-7.9375l65.417969-65.417969c22.601562-22.601562 35.046875-52.648438 35.046875-84.609375v-150.078125c0-16.484375-10.132813-30.644531-24.5-36.585938v-23.820312h133.277344c13.550781 0 24.574219 11.023438 24.574219 24.574219v69c-16.320313 1.144531-54.4375 6.714843-82.589844 33.234375-21.289063 20.050781-32.085938 47.597656-32.085938 81.871094 0 33.078124 13.816406 63.90625 38.167969 85.828124zm89.144532-89.144531-35.234375 35.234375c-21.550781-19.113281-33.789063-46.164063-33.789063-75.207031 0-29.378907 8.847656-52.902344 26.292969-69.921876 24.304687-23.710937 58.625-28.984374 73.382813-30.152343v66.042969c0 27.957031-10.886719 54.238281-30.652344 74.003906zm0 0"/></svg>