<svg height="429pt" viewBox="-23 0 429 429.35431" width="429pt" xmlns="http://www.w3.org/2000/svg"><path d="m191.96875 0c-102.378906.109375-186.660156 80.53125-191.570312 182.789062-4.910157 102.257813 71.273437 190.382813 173.171874 200.308594l-32.511718 32.503906c-2.082032 2.007813-2.914063 4.980469-2.183594 7.777344s2.917969 4.984375 5.714844 5.714844 5.769531-.101562 7.777344-2.183594l45.25-45.246094c.746093-.746093 1.335937-1.632812 1.734374-2.609374.808594-1.957032.808594-4.152344 0-6.109376-.398437-.976562-.988281-1.863281-1.734374-2.609374l-45.25-45.246094c-3.136719-3.035156-8.128907-2.992188-11.214844.09375-3.085938 3.085937-3.128906 8.078125-.09375 11.214844l30.398437 30.402343c-84.382812-9.9375-149.597656-78.769531-154.972656-163.5625s50.628906-161.308593 133.078125-181.820312 167.777344 20.84375 202.761719 98.273437c34.980469 77.429688 9.613281 168.792969-60.277344 217.109375-2.421875 1.59375-3.792969 4.378907-3.578125 7.273438s1.980469 5.449219 4.613281 6.667969c2.632813 1.21875 5.722657.917968 8.070313-.789063 69.121094-47.769531 99.15625-134.929687 74.128906-215.136719-25.023438-80.207031-99.292969-134.8281248-183.3125-134.816406zm0 0" fill="#1e81ce"/></svg>