<svg height="512pt" viewBox="-1 -77 512.00053 512" width="512pt" xmlns="http://www.w3.org/2000/svg"><g fill-rule="evenodd"><path d="m506.148438 116.746094c-5.085938-6.722656-12.441407-10.734375-19.679688-10.734375h-30.128906v-25.789063c0-14.484375-11.78125-26.269531-26.265625-26.269531h-234.007813v-27.6875c0-14.480469-11.785156-26.265625-26.265625-26.265625h-143.152343c-14.484376 0-26.269532 11.785156-26.269532 26.265625v53.683594c0 .046875 0 .09375.003906.136719 0 .046874-.003906.089843-.003906.136718v250.210938c-1.128906 5.707031.269532 11.5 4.03125 16.472656 3.851563 5.089844 9.890625 8.785156 16.332032 10.230469.328124.078125.65625.148437.988281.210937.101562.019532.207031.035156.308593.054688.421876.074218.847657.140625 1.273438.195312.082031.007813.164062.019532.246094.03125.429687.050782.859375.089844 1.292968.117188.089844.007812.183594.015625.273438.019531.503906.03125 1.011719.050781 1.523438.050781h403.425781c12.21875 0 21.652343-8.582031 25.890625-23.546875l55.246094-195.210937c2.015624-7.117188.121093-15.457032-5.0625-22.3125zm-485.769532-90.476563c0-3.398437 2.871094-6.269531 6.269532-6.269531h143.152343c3.394531 0 6.265625 2.871094 6.265625 6.269531v37.683594c0 5.523437 4.476563 10.003906 10 10.003906h244.007813c3.398437 0 6.265625 2.867188 6.265625 6.265625v25.789063h-351.058594c-12.636719 0-24.203125 9.683593-28.125 23.542969l-36.777344 129.941406v-179.199219l.003906-.066406c0-.097657 0-.191407 0-.289063zm471.585938 107.34375-55.246094 195.210938c-1.160156 4.101562-3.253906 8.992187-6.644531 8.992187h-403.425781c-3.042969 0-5.65625-2.304687-6.167969-5.226562l55.917969-197.589844c1.234374-4.355469 4.765624-8.988281 8.882812-8.988281h401.191406c.558594 0 2.226563.820312 3.722656 2.796875 1.703126 2.253906 1.929688 4.242187 1.769532 4.804687zm0 0"/><path d="m300.332031 264.269531c9.289063-12.300781 14.316407-27.210937 14.316407-42.894531 0-39.339844-32.007813-71.347656-71.347657-71.347656-22.066406 0-42.542969 9.972656-56.175781 27.355468-3.40625 4.347657-2.644531 10.632813 1.699219 14.039063 4.347656 3.410156 10.632812 2.648437 14.039062-1.695313 9.816407-12.519531 24.554688-19.695312 40.4375-19.695312 28.308594 0 51.34375 23.035156 51.34375 51.347656 0 13.714844-5.339843 26.609375-15.039062 36.308594-9.695313 9.695312-22.589844 15.039062-36.304688 15.039062-15.882812 0-30.621093-7.179687-40.433593-19.695312-3.410157-4.347656-9.695313-5.105469-14.042969-1.699219-4.34375 3.410157-5.105469 9.691407-1.699219 14.039063 13.632812 17.382812 34.105469 27.355468 56.175781 27.355468 15.679688 0 30.589844-5.027343 42.886719-14.316406l36.796875 36.796875c1.953125 1.953125 4.511719 2.929688 7.074219 2.929688 2.558594 0 5.117187-.976563 7.070312-2.929688 3.902344-3.902343 3.902344-10.234375 0-14.140625zm0 0"/><path d="m191.953125 221.375c0-5.507812-4.492187-10-10-10s-10 4.492188-10 10c0 5.511719 4.492187 10.003906 10 10.003906s10-4.492187 10-10.003906zm0 0"/></g></svg>