<svg height="512pt" viewBox="0 0 512 512" width="512pt" xmlns="http://www.w3.org/2000/svg"><path d="m366.933594 213.332031c-1.597656 0-25.589844 0-27.195313 0-10.609375 0-19.199219 8.40625-19.199219 18.773438 0 10.371093 10.195313 23.894531 20.804688 23.894531 1.609375 0 17.609375.042969 19.199219 0 6.390625-.164062 6.390625 0 14.921875 0-33.066406 8.371094-59.730469 35.0625-59.730469 69.972656 0 41.40625 34.457031 75.09375 76.800781 75.09375 14.691406 0 28.398438-4.128906 40.078125-11.160156 2.988281 6.570312 9.695313 11.160156 17.519531 11.160156 10.609376 0 19.199219-8.40625 19.199219-18.773437v-56.320313c0-79.265625-17.59375-112.640625-102.398437-112.640625zm25.601562 141.84375c-18.851562 0-34.136718-14.941406-34.136718-33.375 0-18.433593 15.285156-33.375 34.136718-33.375 18.847656 0 34.132813 14.941407 34.132813 33.375 0 18.433594-15.285157 33.375-34.132813 33.375zm0 0" fill="#dc691d"/><path d="m8.535156 8.535156h51.199219v51.199219h-51.199219zm0 0" fill="#dd352e"/><path d="m8.535156 452.265625h51.199219v51.199219h-51.199219zm0 0" fill="#dd352e"/><path d="m452.265625 8.535156h51.199219v51.199219h-51.199219zm0 0" fill="#dd352e"/><path d="m452.265625 452.265625h51.199219v51.199219h-51.199219zm0 0" fill="#dd352e"/><path d="m316.109375 333.183594-97.09375-240.886719c-3.78125-9.371094-12.773437-15.496094-22.75-15.496094h-51.199219v34.132813h20.941406l-96.769531 240.085937c-.03125.09375-.125.152344-.230469.152344h-.492187c-12.964844 0-24.628906 9.601563-25.753906 22.707031-1.265625 14.78125 10.179687 27.179688 24.480469 27.179688h18.558593.285157 23.140624c12.714844 0 24.089844-9.351563 25.453126-22.179688.734374-6.910156-1.328126-13.277344-5.167969-18.167968-4.703125-5.980469-5.300781-14.300782-2.449219-21.382813l21.050781-52.234375c2.621094-6.5 6.339844-14.027344 13.261719-14.027344h64.757812c6.921876 0 15.675782 7.527344 18.296876 14.027344l21.050781 52.234375c2.851562 7.082031 2.261719 15.410156-2.449219 21.382813-3.847656 4.882812-5.914062 11.257812-5.171875 18.167968 1.375 12.828125 12.742187 22.179688 25.457031 22.179688h23.472656c.027344 0 .050782.007812.078126.007812.015624 0 .042968-.007812.058593-.007812h18.363281c9.847657 0 18.230469-5.949219 22.152344-14.429688-17.304687-12.332031-29.183594-31.496094-31.332031-53.445312zm-95.328125-102.785156h-49.03125c-6.828125 0-11.46875-5.519532-8.890625-10.554688l19.4375-55.277344c1.628906-3.167968 0-10.964844 13.96875-10.964844s12.347656 7.796876 13.96875 10.972657l19.441406 55.277343c2.585938 5.027344-2.066406 10.546876-8.894531 10.546876zm0 0" fill="#ebba16"/><g fill="#4d007e"><path d="m392.535156 363.707031c-23.527344 0-42.667968-18.796875-42.667968-41.90625s19.140624-41.90625 42.667968-41.90625c23.523438 0 42.664063 18.796875 42.664063 41.90625s-19.140625 41.90625-42.664063 41.90625zm0-66.746093c-14.117187 0-25.601562 11.144531-25.601562 24.839843 0 13.695313 11.484375 24.839844 25.601562 24.839844 14.113282 0 25.597656-11.144531 25.597656-24.839844 0-13.695312-11.484374-24.839843-25.597656-24.839843zm0 0"/><path d="m450.132812 409.601562c-7.738281 0-14.992187-3.203124-20.148437-8.578124-11.671875 5.625-24.472656 8.578124-37.449219 8.578124-47.054687 0-85.335937-37.515624-85.335937-83.628906 0-24.488281 11.785156-46.617187 31.351562-61.628906-14.574219-1.917969-26.554687-18.507812-26.554687-32.238281 0-15.058594 12.441406-27.304688 27.734375-27.304688h27.203125c93.253906 0 110.933594 42.589844 110.933594 121.171875v56.320313c0 15.054687-12.441407 27.308593-27.734376 27.308593zm-17.519531-28.230468c.855469 0 1.699219.128906 2.527344.382812 2.320313.71875 4.230469 2.398438 5.238281 4.617188 1.707032 3.746094 5.53125 6.164062 9.753906 6.164062 5.878907 0 10.667969-4.601562 10.667969-10.242187v-56.320313c0-73.410156-13.046875-104.105468-93.867187-104.105468h-27.203125c-5.882813 0-10.667969 4.597656-10.667969 10.238281 0 6.460937 7.109375 15.359375 12.269531 15.359375h2.613281c4.957032.011718 15.15625.027344 16.390626 0 3.984374-.101563 5.582031-.074219 8.140624-.050782 1.605469.027344 3.628907.050782 6.988282.050782 4.300781 0 7.9375 3.210937 8.46875 7.476562.527344 4.265625-2.203125 8.269532-6.375 9.328125-26.523438 6.714844-53.292969 28.398438-53.292969 61.703125 0 36.703125 30.628906 66.5625 68.269531 66.5625 12.535156 0 24.871094-3.441406 35.675782-9.941406 1.347656-.804688 2.867187-1.222656 4.402343-1.222656zm0 0"/><path d="m401.066406 264.535156h-25.601562c-4.707032 0-8.53125-3.824218-8.53125-8.535156s3.824218-8.535156 8.53125-8.535156h25.601562c4.710938 0 8.535156 3.824218 8.535156 8.535156s-3.824218 8.535156-8.535156 8.535156zm0 0"/><path d="m59.734375 68.265625h-51.199219c-4.710937 0-8.535156-3.820313-8.535156-8.53125v-51.199219c0-4.710937 3.824219-8.535156 8.535156-8.535156h51.199219c4.710937 0 8.53125 3.824219 8.53125 8.535156v51.199219c0 4.710937-3.820313 8.53125-8.53125 8.53125zm-42.667969-17.066406h34.132813v-34.132813h-34.132813zm0 0"/><path d="m59.734375 512h-51.199219c-4.710937 0-8.535156-3.824219-8.535156-8.535156v-51.199219c0-4.710937 3.824219-8.53125 8.535156-8.53125h51.199219c4.710937 0 8.53125 3.820313 8.53125 8.53125v51.199219c0 4.710937-3.820313 8.535156-8.53125 8.535156zm-42.667969-17.066406h34.132813v-34.132813h-34.132813zm0 0"/><path d="m503.464844 68.265625h-51.199219c-4.710937 0-8.53125-3.820313-8.53125-8.53125v-51.199219c0-4.710937 3.820313-8.535156 8.53125-8.535156h51.199219c4.710937 0 8.535156 3.824219 8.535156 8.535156v51.199219c0 4.710937-3.824219 8.53125-8.535156 8.53125zm-42.664063-17.066406h34.132813v-34.132813h-34.132813zm0 0"/><path d="m503.464844 512h-51.199219c-4.710937 0-8.53125-3.824219-8.53125-8.535156v-51.199219c0-4.710937 3.820313-8.53125 8.53125-8.53125h51.199219c4.710937 0 8.535156 3.820313 8.535156 8.53125v51.199219c0 4.710937-3.824219 8.535156-8.535156 8.535156zm-42.664063-17.066406h34.132813v-34.132813h-34.132813zm0 0"/><path d="m503.464844 512h-8.53125c-4.710938 0-8.535156-3.824219-8.535156-8.535156 0-4.707032 3.824218-8.53125 8.535156-8.53125 0-4.710938 3.824218-8.535156 8.53125-8.535156 4.710937 0 8.535156 3.824218 8.535156 8.535156v8.53125c0 4.710937-3.824219 8.535156-8.535156 8.535156zm0 0"/><path d="m461.976562 512h-16.476562c-4.710938 0-8.535156-3.824219-8.535156-8.535156 0-4.707032 3.824218-8.53125 8.535156-8.53125h16.476562c4.710938 0 8.535157 3.824218 8.535157 8.53125 0 4.710937-3.824219 8.535156-8.535157 8.535156zm-49.433593 0h-16.476563c-4.710937 0-8.535156-3.824219-8.535156-8.535156 0-4.707032 3.824219-8.53125 8.535156-8.53125h16.476563c4.710937 0 8.535156 3.824218 8.535156 8.53125 0 4.710937-3.824219 8.535156-8.535156 8.535156zm-49.433594 0h-16.476563c-4.710937 0-8.535156-3.824219-8.535156-8.535156 0-4.707032 3.824219-8.53125 8.535156-8.53125h16.476563c4.710937 0 8.535156 3.824218 8.535156 8.53125 0 4.710937-3.824219 8.535156-8.535156 8.535156zm-49.433594 0h-16.476562c-4.710938 0-8.535157-3.824219-8.535157-8.535156 0-4.707032 3.824219-8.53125 8.535157-8.53125h16.476562c4.710938 0 8.535157 3.824218 8.535157 8.53125 0 4.710937-3.824219 8.535156-8.535157 8.535156zm-49.433593 0h-16.476563c-4.710937 0-8.535156-3.824219-8.535156-8.535156 0-4.707032 3.824219-8.53125 8.535156-8.53125h16.476563c4.710937 0 8.535156 3.824218 8.535156 8.53125 0 4.710937-3.824219 8.535156-8.535156 8.535156zm-49.441407 0h-16.476562c-4.710938 0-8.535157-3.824219-8.535157-8.535156 0-4.707032 3.824219-8.53125 8.535157-8.53125h16.476562c4.710938 0 8.535157 3.824218 8.535157 8.53125 0 4.710937-3.816407 8.535156-8.535157 8.535156zm-49.433593 0h-16.476563c-4.710937 0-8.535156-3.824219-8.535156-8.535156 0-4.707032 3.824219-8.53125 8.535156-8.53125h16.476563c4.710937 0 8.535156 3.824218 8.535156 8.53125 0 4.710937-3.816406 8.535156-8.535156 8.535156zm-49.433594 0h-16.476563c-4.710937 0-8.535156-3.824219-8.535156-8.535156 0-4.707032 3.824219-8.53125 8.535156-8.53125h16.476563c4.710937 0 8.535156 3.824218 8.535156 8.53125 0 4.710937-3.824219 8.535156-8.535156 8.535156zm-49.433594 0h-16.476562c-4.710938 0-8.535157-3.824219-8.535157-8.535156 0-4.707032 3.824219-8.53125 8.535157-8.53125h16.476562c4.710938 0 8.535156 3.824218 8.535156 8.53125 0 4.710937-3.824218 8.535156-8.535156 8.535156zm0 0"/><path d="m17.066406 512h-8.53125c-4.710937 0-8.535156-3.824219-8.535156-8.535156v-8.53125c0-4.710938 3.824219-8.535156 8.535156-8.535156 4.707032 0 8.53125 3.824218 8.53125 8.535156 4.710938 0 8.535156 3.824218 8.535156 8.53125 0 4.710937-3.824218 8.535156-8.535156 8.535156zm0 0"/><path d="m8.535156 470.511719c-4.710937 0-8.535156-3.824219-8.535156-8.535157v-16.476562c0-4.710938 3.824219-8.535156 8.535156-8.535156 4.707032 0 8.53125 3.824218 8.53125 8.535156v16.476562c0 4.710938-3.824218 8.535157-8.53125 8.535157zm0-49.433594c-4.710937 0-8.535156-3.824219-8.535156-8.535156v-16.476563c0-4.710937 3.824219-8.535156 8.535156-8.535156 4.707032 0 8.53125 3.824219 8.53125 8.535156v16.476563c0 4.710937-3.824218 8.535156-8.53125 8.535156zm0-49.441406c-4.710937 0-8.535156-3.824219-8.535156-8.535157v-16.476562c0-4.710938 3.824219-8.535156 8.535156-8.535156 4.707032 0 8.53125 3.824218 8.53125 8.535156v16.476562c0 4.71875-3.824218 8.535157-8.53125 8.535157zm0-49.433594c-4.710937 0-8.535156-3.824219-8.535156-8.535156v-16.476563c0-4.710937 3.824219-8.535156 8.535156-8.535156 4.707032 0 8.53125 3.824219 8.53125 8.535156v16.476563c0 4.71875-3.824218 8.535156-8.53125 8.535156zm0-49.433594c-4.710937 0-8.535156-3.824219-8.535156-8.535156v-16.476563c0-4.710937 3.824219-8.535156 8.535156-8.535156 4.707032 0 8.53125 3.824219 8.53125 8.535156v16.476563c0 4.71875-3.824218 8.535156-8.53125 8.535156zm0-49.433593c-4.710937 0-8.535156-3.824219-8.535156-8.535157v-16.476562c0-4.710938 3.824219-8.535157 8.535156-8.535157 4.707032 0 8.53125 3.824219 8.53125 8.535157v16.476562c0 4.71875-3.824218 8.535157-8.53125 8.535157zm0-49.433594c-4.710937 0-8.535156-3.824219-8.535156-8.535156v-16.476563c0-4.710937 3.824219-8.535156 8.535156-8.535156 4.707032 0 8.53125 3.824219 8.53125 8.535156v16.476563c0 4.710937-3.824218 8.535156-8.53125 8.535156zm0-49.433594c-4.710937 0-8.535156-3.824219-8.535156-8.535156v-16.476563c0-4.710937 3.824219-8.535156 8.535156-8.535156 4.707032 0 8.53125 3.824219 8.53125 8.535156v16.476563c0 4.710937-3.824218 8.535156-8.53125 8.535156zm0-49.433594c-4.710937 0-8.535156-3.824218-8.535156-8.535156v-16.476562c0-4.710938 3.824219-8.535157 8.535156-8.535157 4.707032 0 8.53125 3.824219 8.53125 8.535157v16.476562c0 4.710938-3.824218 8.535156-8.53125 8.535156zm0 0"/><path d="m8.535156 25.601562c-4.710937 0-8.535156-3.824218-8.535156-8.535156v-8.53125c0-4.710937 3.824219-8.535156 8.535156-8.535156h8.53125c4.710938 0 8.535156 3.824219 8.535156 8.535156 0 4.707032-3.824218 8.53125-8.535156 8.53125 0 4.710938-3.824218 8.535156-8.53125 8.535156zm0 0"/><path d="m461.976562 17.066406h-16.476562c-4.710938 0-8.535156-3.824218-8.535156-8.53125 0-4.710937 3.824218-8.535156 8.535156-8.535156h16.476562c4.710938 0 8.535157 3.824219 8.535157 8.535156 0 4.707032-3.824219 8.53125-8.535157 8.53125zm-49.433593 0h-16.476563c-4.710937 0-8.535156-3.824218-8.535156-8.53125 0-4.710937 3.824219-8.535156 8.535156-8.535156h16.476563c4.710937 0 8.535156 3.824219 8.535156 8.535156 0 4.707032-3.824219 8.53125-8.535156 8.53125zm-49.433594 0h-16.476563c-4.710937 0-8.535156-3.824218-8.535156-8.53125 0-4.710937 3.824219-8.535156 8.535156-8.535156h16.476563c4.710937 0 8.535156 3.824219 8.535156 8.535156 0 4.707032-3.824219 8.53125-8.535156 8.53125zm-49.433594 0h-16.476562c-4.710938 0-8.535157-3.824218-8.535157-8.53125 0-4.710937 3.824219-8.535156 8.535157-8.535156h16.476562c4.710938 0 8.535157 3.824219 8.535157 8.535156 0 4.707032-3.824219 8.53125-8.535157 8.53125zm-49.433593 0h-16.476563c-4.710937 0-8.535156-3.824218-8.535156-8.53125 0-4.710937 3.824219-8.535156 8.535156-8.535156h16.476563c4.710937 0 8.535156 3.824219 8.535156 8.535156 0 4.707032-3.824219 8.53125-8.535156 8.53125zm-49.441407 0h-16.476562c-4.710938 0-8.535157-3.824218-8.535157-8.53125 0-4.710937 3.824219-8.535156 8.535157-8.535156h16.476562c4.710938 0 8.535157 3.824219 8.535157 8.535156 0 4.707032-3.816407 8.53125-8.535157 8.53125zm-49.433593 0h-16.476563c-4.710937 0-8.535156-3.824218-8.535156-8.53125 0-4.710937 3.824219-8.535156 8.535156-8.535156h16.476563c4.710937 0 8.535156 3.824219 8.535156 8.535156 0 4.707032-3.816406 8.53125-8.535156 8.53125zm-49.433594 0h-16.476563c-4.710937 0-8.535156-3.824218-8.535156-8.53125 0-4.710937 3.824219-8.535156 8.535156-8.535156h16.476563c4.710937 0 8.535156 3.824219 8.535156 8.535156 0 4.707032-3.824219 8.53125-8.535156 8.53125zm-49.433594 0h-16.476562c-4.710938 0-8.535157-3.824218-8.535157-8.53125 0-4.710937 3.824219-8.535156 8.535157-8.535156h16.476562c4.710938 0 8.535156 3.824219 8.535156 8.535156 0 4.707032-3.824218 8.53125-8.535156 8.53125zm0 0"/><path d="m503.464844 25.601562c-4.707032 0-8.53125-3.824218-8.53125-8.535156-4.710938 0-8.535156-3.824218-8.535156-8.53125 0-4.710937 3.824218-8.535156 8.535156-8.535156h8.53125c4.710937 0 8.535156 3.824219 8.535156 8.535156v8.53125c0 4.710938-3.824219 8.535156-8.535156 8.535156zm0 0"/><path d="m503.464844 470.511719c-4.707032 0-8.53125-3.824219-8.53125-8.535157v-16.476562c0-4.710938 3.824218-8.535156 8.53125-8.535156 4.710937 0 8.535156 3.824218 8.535156 8.535156v16.476562c0 4.710938-3.824219 8.535157-8.535156 8.535157zm0-49.433594c-4.707032 0-8.53125-3.824219-8.53125-8.535156v-16.476563c0-4.710937 3.824218-8.535156 8.53125-8.535156 4.710937 0 8.535156 3.824219 8.535156 8.535156v16.476563c0 4.710937-3.824219 8.535156-8.535156 8.535156zm0-49.433594c-4.707032 0-8.53125-3.824219-8.53125-8.535156v-16.476563c0-4.710937 3.824218-8.535156 8.53125-8.535156 4.710937 0 8.535156 3.824219 8.535156 8.535156v16.476563c0 4.710937-3.824219 8.535156-8.535156 8.535156zm0-49.433593c-4.707032 0-8.53125-3.824219-8.53125-8.535157v-16.476562c0-4.710938 3.824218-8.535157 8.53125-8.535157 4.710937 0 8.535156 3.824219 8.535156 8.535157v16.476562c0 4.710938-3.824219 8.535157-8.535156 8.535157zm0-49.433594c-4.707032 0-8.53125-3.824219-8.53125-8.535156v-16.476563c0-4.710937 3.824218-8.535156 8.53125-8.535156 4.710937 0 8.535156 3.824219 8.535156 8.535156v16.476563c0 4.710937-3.824219 8.535156-8.535156 8.535156zm0-49.433594c-4.707032 0-8.53125-3.824219-8.53125-8.535156v-16.476563c0-4.710937 3.824218-8.535156 8.53125-8.535156 4.710937 0 8.535156 3.824219 8.535156 8.535156v16.476563c0 4.710937-3.824219 8.535156-8.535156 8.535156zm0-49.441406c-4.707032 0-8.53125-3.824219-8.53125-8.535156v-16.476563c0-4.710937 3.824218-8.535156 8.53125-8.535156 4.710937 0 8.535156 3.824219 8.535156 8.535156v16.476563c0 4.71875-3.824219 8.535156-8.535156 8.535156zm0-49.433594c-4.707032 0-8.53125-3.824219-8.53125-8.535156v-16.476563c0-4.710937 3.824218-8.535156 8.53125-8.535156 4.710937 0 8.535156 3.824219 8.535156 8.535156v16.476563c0 4.71875-3.824219 8.535156-8.535156 8.535156zm0-49.433594c-4.707032 0-8.53125-3.824218-8.53125-8.535156v-16.476562c0-4.710938 3.824218-8.535157 8.53125-8.535157 4.710937 0 8.535156 3.824219 8.535156 8.535157v16.476562c0 4.71875-3.824219 8.535156-8.535156 8.535156zm0 0"/><path d="m325.289062 409.601562h-41.972656c-17.539062 0-32.128906-12.820312-33.945312-29.808593-.941406-8.816407 1.527344-17.460938 6.953125-24.355469 2.585937-3.285156 3.070312-8.351562 1.238281-12.917969l-21.050781-52.234375c-1.625-4.027344-7.664063-8.683594-10.378907-8.683594h-64.757812c-.078125 0-1.886719.101563-5.351562 8.683594l-21.050782 52.242188c-1.835937 4.558594-1.347656 9.625 1.238282 12.921875 5.425781 6.882812 7.890624 15.527343 6.953124 24.34375-1.816406 16.988281-16.410156 29.808593-33.945312 29.808593h-41.976562c-9.171876 0-18.023438-3.910156-24.269532-10.710937-6.347656-6.910156-9.523437-16.289063-8.710937-25.738281 1.324219-15.382813 13.628906-27.773438 28.988281-30.113282l90.121094-223.574218h-8.304688c-4.710937 0-8.53125-3.820313-8.53125-8.53125v-34.132813c0-4.710937 3.820313-8.535156 8.53125-8.535156h51.199219c13.519531 0 25.558594 8.183594 30.660156 20.839844l97.09375 240.886719c.308594.75.496094 1.554687.578125 2.355468 1.84375 18.800782 11.972656 36.054688 27.792969 47.324219 3.339844 2.382813 4.515625 6.804687 2.792969 10.53125-5.4375 11.785156-17.167969 19.398437-29.894532 19.398437zm-163.914062-145.066406h64.757812c10.847657 0 22.519532 10.203125 26.214844 19.378906l21.050782 52.230469c4.148437 10.292969 2.75 21.726563-3.652344 29.859375-2.652344 3.371094-3.855469 7.628906-3.394532 11.980469.859376 8.148437 8.320313 14.550781 16.964844 14.550781h41.972656c4.003907 0 7.722657-1.519531 10.582032-4.175781-15.71875-13.703125-25.796875-32.605469-28.125-53.085937l-96.648438-239.785157c-2.484375-6.167969-8.3125-10.15625-14.832031-10.15625h-42.664063v17.066407h12.40625c2.832032 0 5.488282 1.410156 7.074219 3.757812 1.585938 2.34375 1.902344 5.332031.84375 7.96875l-96.777343 240.085938c-1.304688 3.226562-4.65625 5.503906-8.140626 5.503906-9.445312 0-17.023437 6.542968-17.738281 14.90625-.410156 4.761718 1.109375 9.285156 4.28125 12.742187 3.066407 3.328125 7.210938 5.171875 11.691407 5.171875h41.976562c8.644531 0 16.101562-6.402344 16.972656-14.558594.460938-4.351562-.742187-8.601562-3.398437-11.972656-6.398438-8.132812-7.796875-19.578125-3.652344-29.859375l21.054687-52.242187c2.132813-5.296875 7.808594-19.367188 21.179688-19.367188zm59.40625-25.601562h-49.03125c-6.65625 0-12.757812-3.21875-15.921875-8.398438-2.613281-4.273437-2.929687-9.445312-.871094-13.960937l19.285157-54.84375c.128906-.363281.28125-.722657.460937-1.066407l.027344-.433593c.996093-4.148438 3.625-15.164063 21.535156-15.164063 17.921875 0 20.550781 11.023438 21.539063 15.171875l.222656.886719 19.550781 55.449219c2.054687 4.515625 1.746094 9.679687-.871094 13.960937-3.167969 5.179688-9.269531 8.398438-15.925781 8.398438zm-49.578125-17.101563c.164063.015625.34375.035157.546875.035157h49.03125c.207031 0 .386719-.019532.546875-.035157l-19.003906-54.03125c-.578125-1.308593-.878907-2.5625-1.125-3.601562-.121094-.519531-.308594-1.289063-.445313-1.589844-.109375.121094-1.277344-.476563-4.488281-.476563-3.632813 0-4.691406.675782-4.699219.683594.09375 0-.105468.828125-.242187 1.375-.246094 1.039063-.542969 2.292969-1.125 3.609375zm0 0"/></g></svg>