<svg id="Layer" enable-background="new 0 0 64 64" height="512" viewBox="0 0 64 64" width="512" xmlns="http://www.w3.org/2000/svg"><g fill="#cce4ff"><path d="m17 48h-3c-3.309 0-6-2.691-6-6v-1c0-.553.448-1 1-1h8.86c.325 0 .63.158.817.424s.234.605.125.912c-.533 1.491-.802 3.06-.802 4.664v1c0 .553-.448 1-1 1z"/><path d="m33 48h-8c-.552 0-1-.447-1-1v-5c0-3.309 2.691-6 6-6h9c.553 0 1 .447 1 1v4c0 3.859-3.141 7-7 7z"/><path d="m55 24h-14c-.553 0-1-.448-1-1v-6c0-.552.447-1 1-1h9c3.309 0 6 2.691 6 6v1c0 .552-.447 1-1 1z"/></g><path d="m38 37v4c0 2.757-2.243 5-5 5h-8c-.552 0-1 .447-1 1s.448 1 1 1h8c3.859 0 7-3.141 7-7v-4c0-.553-.447-1-1-1s-1 .447-1 1z" fill="#007aff"/><path d="m56 23v-1c0-3.309-2.691-6-6-6h-2c0-4.411-3.589-8-8-8s-8 3.589-8 8v14c-6.7 0-12.442 4.145-14.822 10h-8.178c-.552 0-1 .447-1 1v1c0 1.537.586 2.938 1.54 4h-.54c-.552 0-1 .447-1 1v3c0 3.309 2.691 6 6 6 0 0 16.976.014 17 .014h24c.553 0 1-.447 1-1s-.447-1-1-1h-15.293c4.938-2.727 8.293-7.981 8.293-14.002l.083-7c.007-.552-.436-1.005-.988-1.012-.004 0-.008 0-.012 0-.547 0-.993.44-1 .988l-.083 7.012c0 7.72-6.28 14-14 14h-18c-2.206 0-4-1.794-4-4v-2h7c.552 0 1-.447 1-1v-1c0-7.72 6.28-14 14-14h1c.553 0 1-.448 1-1v-15c0-3.309 2.691-6 6-6s6 2.691 6 6v1c0 .552.447 1 1 1h3c2.206 0 4 1.794 4 4h-11c-.553 0-1 .448-1 1s.447 1 1 1h3.02l.063 3.021c.012.545.457.979 1 .979h.02c.553-.012.991-.469.98-1.021l-.062-2.979h6.979c.553 0 1-.448 1-1zm-42 23c-2.206 0-4-1.794-4-4h6.526c-.331 1.281-.526 2.617-.526 4z" fill="#007aff"/><circle cx="47" cy="30" fill="#007aff" r="1"/></svg>