<svg id="Layer" enable-background="new 0 0 64 64" height="512" viewBox="0 0 64 64" width="512" xmlns="http://www.w3.org/2000/svg"><g fill="#cce4ff"><path d="m51 26h-8c-.553 0-1-.447-1-1v-3c0-2.206-1.794-4-4-4-.553 0-1-.447-1-1s.447-1 1-1h8c3.309 0 6 2.691 6 6v3c0 .553-.447 1-1 1z"/><path d="m25.019 56c-.005 0-.013 0-.019 0h-9c-4.411 0-8-3.589-8-8v-10c0-4.411 3.589-8 8-8h1c.553 0 1 .447 1 1v16c0 3.859 3.141 7 7 7h.01.01c.553 0 1 .447 1 1s-.448 1-1.001 1z"/><path d="m41 56h-7c-4.411 0-8-3.589-8-8v-10c0-4.411 3.589-8 8-8s8 3.589 8 8v17c0 .553-.447 1-1 1z"/></g><path d="m55 54h-13v-16c0-2.39-1.06-4.533-2.727-6h2.727c3.309 0 6-2.691 6-6h3c.553 0 1-.447 1-1v-3c0-3.309-2.691-6-6-6h-8c0-4.411-3.589-8-8-8h-6c-4.411 0-8 3.589-8 8v14c-4.411 0-8 3.589-8 8v10c0 4.411 3.589 8 8 8h39c.553 0 1-.447 1-1s-.447-1-1-1zm-5-32v2h-6v-2c0-1.537-.586-2.938-1.54-4h3.54c2.206 0 4 1.794 4 4zm-32-6c0-3.309 2.691-6 6-6h6c3.309 0 6 2.691 6 6v1c0 .553.447 1 1 1h1c2.206 0 4 1.794 4 4v2h-7c-.553 0-1 .447-1 1s.447 1 1 1h11c0 2.206-1.794 4-4 4h-8c-4.411 0-8 3.589-8 8h-4c-2.206 0-4-1.794-4-4zm-2 38c-3.309 0-6-2.691-6-6v-10c0-3.309 2.691-6 6-6v15c0 2.826 1.311 5.349 3.355 7zm9 0c-3.859 0-7-3.141-7-7v-8.54c1.062.954 2.463 1.54 4 1.54h4v8c0 2.39 1.06 4.533 2.727 6zm13 0c-2.206 0-4-1.794-4-4v-11c0-.553-.447-1-1-1s-1 .447-1 1v11c0 1.525.577 2.916 1.519 3.976-3.084-.247-5.519-2.83-5.519-5.976v-10c0-3.309 2.691-6 6-6s6 2.691 6 6v16z" fill="#007aff"/></svg>