<svg id="Layer" enable-background="new 0 0 64 64" height="512" viewBox="0 0 64 64" width="512" xmlns="http://www.w3.org/2000/svg"><path d="m29 56h-10c-.552 0-1-.447-1-1s.448-1 1-1c2.757 0 5-2.243 5-5v-11.73c0-.351.183-.675.483-.856s.673-.191.982-.028c2.036 1.07 4.235 1.614 6.535 1.614 3.059 0 5.964-.968 8.399-2.799.303-.228.708-.264 1.048-.096.339.169.553.516.553.895v7c0 7.168-5.832 13-13 13z" fill="#cce4ff"/><path d="m32 30c-.552 0-1-.447-1-1 0-2.757-2.243-5-5-5h-9c-.552 0-1-.447-1-1v-14c0-.553.448-1 1-1h3c3.309 0 6 2.691 6 6h12c0-3.309 2.691-6 6-6h3c.552 0 1 .447 1 1v14c0 .553-.448 1-1 1h-9c-2.757 0-5 2.243-5 5 0 .553-.448 1-1 1z" fill="#cce4ff"/><g fill="#007aff"><path d="m47 8h-3c-3.309 0-6 2.691-6 6h-12c0-3.309-2.691-6-6-6h-3c-.552 0-1 .447-1 1v46c0 .553.448 1 1 1h30c.552 0 1-.447 1-1s-.448-1-1-1h-5.104c3.66-2.303 6.104-6.367 6.104-11v-2c0-.553-.448-1-1-1s-1 .447-1 1v2c0 5.735-4.414 10.453-10.022 10.951 3.614-2.312 6.022-6.352 6.022-10.951v-6.53c1.621-1.303 2.985-2.911 4-4.741v3.271c0 .553.448 1 1 1s1-.447 1-1v-26c0-.553-.448-1-1-1zm-29 2h2c2.206 0 4 1.794 4 4v1c0 .553.448 1 1 1h14c.552 0 1-.447 1-1v-1c0-2.206 1.794-4 4-4h2v12h-8c-2.543 0-4.774 1.363-6 3.397-1.226-2.034-3.457-3.397-6-3.397h-8zm0 44v-22.271c1.408 2.54 3.491 4.65 6 6.106v11.165c0 2.757-2.243 5-5 5zm22-11c0 6.065-4.935 11-11 11h-5.105c1.298-1.271 2.105-3.043 2.105-5v-10.178c1.855.754 3.878 1.178 6 1.178 2.916 0 5.643-.797 8-2.165zm-8-5c-7.72 0-14-6.28-14-14h8c2.757 0 5 2.243 5 5v2c0 .553.448 1 1 1s1-.447 1-1v-2c0-2.757 2.243-5 5-5h8c0 7.72-6.28 14-14 14z"/><path d="m28 20h8c.552 0 1-.447 1-1s-.448-1-1-1h-8c-.552 0-1 .447-1 1s.448 1 1 1z"/><circle cx="47" cy="38" r="1"/></g></svg>