<svg id="Layer" enable-background="new 0 0 64 64" height="512" viewBox="0 0 64 64" width="512" xmlns="http://www.w3.org/2000/svg"><g fill="#cce4ff"><path d="m31 56.014h-4c-.552 0-1-.447-1-1v-8.014c0-.553.448-1 1-1h4c.552 0 1 .447 1 1v8.014c0 .552-.448 1-1 1z"/><path d="m15.01 39.99h-1.01c-3.309 0-6-2.691-6-6v-2.99c0-.552.448-1 1-1h15c.415 0 .787.256.935.645.147.388.04.827-.27 1.103l-8.99 7.99c-.184.162-.42.252-.665.252z"/><path d="m55 24h-14c-.552 0-1-.448-1-1v-6c0-.552.448-1 1-1h9c3.309 0 6 2.691 6 6v1c0 .552-.448 1-1 1z"/></g><path d="m50 16h-2c0-4.411-3.589-8-8-8s-8 3.589-8 8v6.551l-8.38 7.449h-14.62c-.552 0-1 .448-1 1v2.993c0 1.544.591 2.949 1.553 4.014h-.553c-.552 0-1 .447-1 1v2.993c0 3.309 2.691 6 6 6v7.014c0 .394.231.751.59.912.131.06.271.088.41.088.24 0 .478-.087.665-.253l8.73-7.761h1.605v7.014c0 .553.448 1 1 1h10c.552 0 1-.447 1-1s-.448-1-1-1h-5v-6.014c9.122 0 16-6.448 16-15v-2c0-.552-.448-1-1-1s-1 .448-1 1v2c0 7.411-6.019 13-14 13h-5.355l7.019-6.239c.413-.366.45-.999.083-1.411-.367-.413-.998-.451-1.412-.083l-16.335 14.52v-5.787-7.551l8.672-7.708c.023-.021.048-.038.069-.061l8.924-7.932c.213-.19.335-.462.335-.748v-7c0-3.309 2.691-6 6-6s6 2.691 6 6h-5c-.552 0-1 .448-1 1s.448 1 1 1h9c2.206 0 4 1.794 4 4h-7c-.552 0-1 .448-1 1v2c0 .552.448 1 1 1s1-.448 1-1v-1h7c.552 0 1-.448 1-1v-1c0-3.309-2.691-6-6-6zm-20 38.014h-2v-6.014h2zm-20-22.014h11.37l-6.742 5.993h-.628c-2.206 0-4-1.794-4-4zm0 10v-1.993h4v5.993c-2.206 0-4-1.794-4-4z" fill="#007aff"/><circle cx="47" cy="28" fill="#007aff" r="1"/></svg>