<svg id="Layer" enable-background="new 0 0 64 64" height="512" viewBox="0 0 64 64" width="512" xmlns="http://www.w3.org/2000/svg"><g fill="#cce4ff"><path d="m31 56.014h-4c-.553 0-1-.448-1-1v-8.014c0-.552.447-1 1-1h4c.553 0 1 .448 1 1v8.014c0 .552-.447 1-1 1z"/><path d="m55 24h-8c-.553 0-1-.448-1-1v-6c0-.552.447-1 1-1h3c3.309 0 6 2.691 6 6v1c0 .552-.447 1-1 1z"/><path d="m35 40h-21c-3.309 0-6-2.691-6-6v-3c0-.552.447-1 1-1h26c2.757 0 5 2.243 5 5s-2.243 5-5 5z"/></g><path d="m21.29 46.29c-.181.19-.29.45-.29.71s.109.52.29.71c.189.18.45.29.71.29s.519-.11.71-.29c.18-.19.29-.45.29-.71s-.11-.52-.29-.71c-.37-.37-1.04-.37-1.42 0z" fill="#007aff"/><path d="m50 16h-2c0-4.411-3.589-8-8-8h-15c-.553 0-1 .448-1 1v1c0 3.309 2.691 6 6 6h2v6.586l-7.414 7.414h-15.586c-.553 0-1 .448-1 1v3c0 3.309 2.691 6 6 6h.586l-6.293 6.293c-.286.286-.372.716-.217 1.09.154.373.52.617.924.617h10c.553 0 1-.448 1-1s-.447-1-1-1h-7.586l6-6h17.586c.553 0 1-.448 1-1s-.447-1-1-1h-21c-2.206 0-4-1.794-4-4v-2h25c.553 0 1-.448 1-1s-.447-1-1-1h-7.586l6-6h8.586c1.537 0 2.937-.586 4-1.541v.541 9c0 7.72-6.28 14-14 14h-7c-.553 0-1 .448-1 1s.447 1 1 1h1v7.014c0 .552.447 1 1 1h10c.553 0 1-.448 1-1s-.447-1-1-1h-5v-6.014c8.822 0 16-7.178 16-16v-8h7c.553 0 1-.448 1-1v-1c0-3.309-2.691-6-6-6zm-20 38.014h-2v-6.014h2zm12-32.014h-8v-7c0-.552-.447-1-1-1h-3c-2.206 0-4-1.794-4-4h14c3.309 0 6 2.691 6 6v2c0 2.206-1.794 4-4 4zm6 0v-4h2c2.206 0 4 1.794 4 4z" fill="#007aff"/></svg>