<svg id="Layer" enable-background="new 0 0 64 64" height="512" viewBox="0 0 64 64" width="512" xmlns="http://www.w3.org/2000/svg"><g fill="#cce4ff"><path d="m31 56.014h-4c-.552 0-1-.447-1-1v-8.014c0-.553.448-1 1-1h4c.552 0 1 .447 1 1v8.014c0 .552-.448 1-1 1z"/><path d="m46.963 34h-2.963c-3.309 0-6-2.691-6-6s2.691-6 6-6h3c.266 0 .521.105.708.294.188.189.292.444.292.71l-.037 10c-.002.551-.449.996-1 .996z"/><path d="m55 24h-8c-.552 0-1-.447-1-1v-8c0-.553.448-1 1-1h3c3.309 0 6 2.691 6 6v3c0 .553-.448 1-1 1z"/><path d="m15 40h-1c-3.309 0-6-2.691-6-6v-3c0-.553.448-1 1-1h7.73c.35 0 .675.184.856.483.181.3.192.673.029.982-1.071 2.036-1.615 4.235-1.615 6.535v1c0 .553-.448 1-1 1z"/></g><path d="m50 14h-2.263c-.892-3.444-4.017-6-7.737-6h-9c-.552 0-1 .447-1 1v13c-5.907 0-11.063 3.226-13.835 8h-7.165c-.552 0-1 .447-1 1v3c0 1.537.586 2.938 1.541 4h-.541c-.552 0-1 .447-1 1v3c0 3.309 2.691 6 6 6h5c.552 0 1-.447 1-1s-.448-1-1-1h-5c-2.206 0-4-1.794-4-4v-2h5 18c3.86 0 7-3.141 7-7v-.54c1.063.954 2.462 1.54 4 1.54h1.84c-.975 6.773-6.801 12-13.84 12h-7c-.552 0-1 .447-1 1s.448 1 1 1h1v7.014c0 .553.448 1 1 1h4 2 4c.552 0 1-.447 1-1s-.448-1-1-1h-4-1v-6.014c8.455 0 15.38-6.597 15.945-14.91.003-.031.055-9.09.055-9.09h7c.552 0 1-.447 1-1v-3c0-3.309-2.691-6-6-6zm-20 40.014h-2v-6.014h2zm-20-20.014v-2h5.178c-.754 1.854-1.178 3.878-1.178 6-2.206 0-4-1.794-4-4zm28-1c0 2.757-2.243 5-5 5h-17c0-7.72 6.28-14 14-14h1c.552 0 1-.447 1-1v-13h8c3.309 0 6 2.691 6 6v6h-2c-3.309 0-6 2.691-6 6zm6-1c-2.206 0-4-1.794-4-4s1.794-4 4-4h2v8zm10-10h-6v-6h2c2.206 0 4 1.794 4 4z" fill="#007aff"/><circle cx="22" cy="47" fill="#007aff" r="1"/></svg>