<svg id="Layer" enable-background="new 0 0 64 64" height="512" viewBox="0 0 64 64" width="512" xmlns="http://www.w3.org/2000/svg"><path d="m31 56.014h-4c-.552 0-1-.447-1-1v-8.014c0-.553.448-1 1-1h4c.552 0 1 .447 1 1v8.014c0 .552-.448 1-1 1z" fill="#cce4ff"/><path d="m55 24h-8c-.552 0-1-.447-1-1v-6c0-.553.448-1 1-1h3c3.309 0 6 2.691 6 6v1c0 .553-.448 1-1 1z" fill="#cce4ff"/><path d="m50 16h-2c0-4.411-3.589-8-8-8h-7c-.552 0-1 .447-1 1v13.465l-23.555 15.703c-.278.186-.445.498-.445.832v16.014c0 .369.203.708.528.882.148.079.31.118.472.118.194 0 .387-.057.555-.168l11.768-7.846h4.677v7.014c0 .553.448 1 1 1h10c.552 0 1-.447 1-1s-.448-1-1-1h-5v-6.014c9.122 0 16-6.448 16-15v-9h7c.552 0 1-.447 1-1v-1c0-3.309-2.691-6-6-6zm-20 38.014h-2v-6.014h2zm16-21.014c0 7.411-6.019 13-14 13h-7.677l9.231-6.154c.459-.307.583-.927.277-1.387-.307-.46-.928-.583-1.387-.277l-22.444 14.964v-5.61l23.555-15.703c.459-.307.583-.927.277-1.387-.307-.46-.928-.584-1.387-.277l-22.445 14.963v-5.597l23.303-15.535h6.697c3.309 0 6 2.691 6 6zm1-11c-.552 0-1 .447-1 1v1.727c-1.467-1.667-3.61-2.727-6-2.727h-6v-12h6c3.309 0 6 2.691 6 6h-5c-.552 0-1 .447-1 1s.448 1 1 1h9c2.206 0 4 1.794 4 4z" fill="#007aff"/></svg>