<svg id="Layer" enable-background="new 0 0 64 64" height="512" viewBox="0 0 64 64" width="512" xmlns="http://www.w3.org/2000/svg"><g fill="#cce4ff"><path d="m31 56.014h-4c-.552 0-1-.447-1-1v-8.014c0-.553.448-1 1-1h4c.552 0 1 .447 1 1v8.014c0 .552-.448 1-1 1z"/><path d="m55 24h-8c-.553 0-1-.447-1-1v-6c0-.553.447-1 1-1h3c3.309 0 6 2.691 6 6v1c0 .553-.447 1-1 1z"/><path d="m17 40h-3c-3.309 0-6-2.691-6-6v-3c0-.553.448-1 1-1h9.73c.35 0 .675.184.856.483.181.3.192.673.029.982-1.072 2.036-1.615 4.235-1.615 6.535v1c0 .553-.448 1-1 1z"/></g><path d="m50 16h-2c0-4.411-3.589-8-8-8s-8 3.589-8 8v6c-5.907 0-11.064 3.226-13.835 8h-9.165c-.552 0-1 .447-1 1v3c0 1.537.586 2.938 1.54 4h-.54c-.552 0-1 .447-1 1v3c0 3.309 2.691 6 6 6h5c.552 0 1-.447 1-1s-.448-1-1-1h-5c-2.206 0-4-1.794-4-4v-2h7 16c3.859 0 7-3.141 7-7v-4c0-.553-.447-1-1-1s-1 .447-1 1v4c0 2.757-2.243 5-5 5h-15c0-7.72 6.28-14 14-14h1 9c1.537 0 2.937-.586 4-1.54v.54 9c0 7.72-6.28 14-14 14h-7c-.552 0-1 .447-1 1s.448 1 1 1h1v7.014c0 .553.448 1 1 1h10c.553 0 1-.447 1-1s-.447-1-1-1h-5v-6.014c8.822 0 16-7.178 16-16v-8h7c.553 0 1-.447 1-1v-1c0-3.309-2.691-6-6-6zm-40 18v-2h7.178c-.754 1.854-1.178 3.878-1.178 6h-2c-2.206 0-4-1.794-4-4zm20 20.014h-2v-6.014h2zm12-32.014h-8v-6c0-3.309 2.691-6 6-6s6 2.691 6 6v2c0 2.206-1.794 4-4 4zm6 0v-4h2c2.206 0 4 1.794 4 4z" fill="#007aff"/><circle cx="22" cy="47" fill="#007aff" r="1"/></svg>