<svg id="Layer" enable-background="new 0 0 64 64" height="512" viewBox="0 0 64 64" width="512" xmlns="http://www.w3.org/2000/svg"><g fill="#cce4ff"><path d="m31 56.014h-4c-.553 0-1-.448-1-1v-8.014c0-.552.447-1 1-1h4c.553 0 1 .448 1 1v8.014c0 .552-.447 1-1 1z"/><path d="m56 17v1c0 3.309-2.691 6-6 6h-9c-.553 0-1-.448-1-1v-6c0-.552.447-1 1-1h14c.553 0 1 .448 1 1z"/><path d="m32 40h-23c-.553 0-1-.448-1-1v-7c0-4.411 3.589-8 8-8h16c4.411 0 8 3.589 8 8s-3.589 8-8 8z"/></g><path d="m55 16h-7c0-4.411-3.589-8-8-8s-8 3.589-8 8v8h-16c-4.411 0-8 3.589-8 8v7c0 .552.447 1 1 1h5v7c0 .552.447 1 1 1h4c.553 0 1-.448 1-1s-.447-1-1-1h-3v-6h16c4.411 0 8-3.589 8-8 0-3.72-2.556-6.845-6-7.737v-8.263c0-3.309 2.691-6 6-6s6 2.691 6 6h-5c-.553 0-1 .448-1 1s.447 1 1 1h13c0 2.206-1.794 4-4 4h-3c-.553 0-1 .448-1 1v9c0 7.72-6.28 14-14 14h-7c-.553 0-1 .448-1 1s.447 1 1 1h1v7.014c0 .552.447 1 1 1h10c.553 0 1-.448 1-1s-.447-1-1-1h-5v-6.014c8.822 0 16-7.178 16-16v-3c3.309 0 6-2.691 6-6v-.541c1.225-1.099 2-2.688 2-4.459v-1c0-.552-.447-1-1-1zm-17 16c0 3.309-2.691 6-6 6h-22v-6c0-3.309 2.691-6 6-6h16c3.309 0 6 2.691 6 6zm-8 22.014h-2v-6.014h2zm18-27.014v-3h2c.677 0 1.324-.118 1.932-.325-.324 1.884-1.957 3.325-3.932 3.325z" fill="#007aff"/><path d="m21.29 46.29c-.181.19-.29.44-.29.71s.109.52.29.71c.189.18.45.29.71.29s.519-.11.71-.29c.18-.19.29-.45.29-.71s-.11-.52-.29-.71c-.37-.37-1.05-.37-1.42 0z" fill="#007aff"/><path d="m29 28.076c-.553 0-1 .448-1 1s.447 1 1 1h3c1.09 0 1.979.876 2 1.962-.021 1.086-.91 1.962-2 1.962h-19c-.553 0-1 .448-1 1s.447 1 1 1h19c2.154 0 3.917-1.712 3.997-3.848.002-.025.003-.05.003-.076 0-.013 0-.025 0-.038s0-.025 0-.038c0-.026-.001-.051-.003-.076-.08-2.135-1.843-3.848-3.997-3.848z" fill="#007aff"/></svg>