<svg id="Layer" enable-background="new 0 0 64 64" height="512" viewBox="0 0 64 64" width="512" xmlns="http://www.w3.org/2000/svg"><g fill="#cce4ff"><path d="m31 56.014h-4c-.553 0-1-.447-1-1v-8.014c0-.553.447-1 1-1h4c.553 0 1 .447 1 1v8.014c0 .552-.447 1-1 1z"/><path d="m55 26h-10c-.553 0-1-.448-1-1v-3c0-3.309 2.691-6 6-6s6 2.691 6 6v3c0 .552-.447 1-1 1z"/><path d="m12 56.014h-3c-.553 0-1-.447-1-1v-8.014c0-.553.447-1 1-1h8c.553 0 1 .447 1 1v3.014c0 3.308-2.691 6-6 6z"/></g><path d="m50 16h-4c0-4.411-3.589-8-8-8h-2c-4.411 0-8 3.589-8 8v6.52l-19.625 15.699c-.237.19-.375.477-.375.781v8 .014 8c0 .553.447 1 1 1h3c3.309 0 6-2.691 6-6v-2.014h1c.553 0 1-.447 1-1s-.447-1-1-1h-2-1.182l19.814-16.212c.233-.19.368-.475.368-.774v-19.014h2c3.309 0 6 2.691 6 6v1c0 .552.447 1 1 1h.54c-.954 1.063-1.54 2.462-1.54 4v2h-3c-.553 0-1 .448-1 1s.447 1 1 1h5v7c0 7.411-6.019 13-14 13h-7c-.553 0-1 .447-1 1s.447 1 1 1h1v7.014c0 .553.447 1 1 1h10c.553 0 1-.447 1-1s-.447-1-1-1h-5v-6.014c9.121 0 16-6.448 16-15v-7h7c.553 0 1-.448 1-1v-3c0-3.309-2.691-6-6-6zm-34 34.014c0 2.206-1.794 4-4 4h-2v-6h3c.027 0 .052-.012.079-.014h2.921zm18-21.474-21.341 17.46h-2.659v-6.52l19.625-15.7c.237-.189.375-.476.375-.78v-7c0-2.607 1.672-4.832 4-5.657zm-4 25.474h-2v-6.014h2zm24-30.014h-8v-2c0-2.206 1.794-4 4-4s4 1.794 4 4z" fill="#007aff"/><circle cx="22" cy="47" fill="#007aff" r="1"/></svg>