<svg id="Layer" enable-background="new 0 0 64 64" height="512" viewBox="0 0 64 64" width="512" xmlns="http://www.w3.org/2000/svg"><g fill="#cce4ff"><path d="m31 56.014h-4c-.552 0-1-.447-1-1v-8.014c0-.553.448-1 1-1h4c.552 0 1 .447 1 1v8.014c0 .552-.448 1-1 1z"/><path d="m55 24h-8c-.552 0-1-.448-1-1v-8c0-.552.448-1 1-1h3c3.309 0 6 2.691 6 6v3c0 .552-.448 1-1 1z"/><path d="m46.963 34h-2.963c-3.309 0-6-2.691-6-6v-5c0-.552.448-1 1-1h8c.266 0 .521.106.708.294.188.188.293.443.292.71l-.037 10c-.002.551-.449.996-1 .996z"/></g><path d="m50 14h-2.263c-.892-3.445-4.017-6-7.737-6h-9c-.552 0-1 .448-1 1v9.509l-21.611 16.7c-.245.189-.389.481-.389.791v19.014c0 .387.223.738.572.903.136.065.282.097.428.097.227 0 .451-.077.633-.226l9.518-7.788h6.849v7.014c0 .553.448 1 1 1h10c.552 0 1-.447 1-1s-.448-1-1-1h-5v-6.014c8.453 0 15.379-6.595 15.945-14.907.003-.03.055-.853.055-1.093v-8h7c.552 0 1-.448 1-1v-3c0-3.309-2.691-6-6-6zm-4.033 18h-1.967c-2.206 0-4-1.794-4-4v-4h5.996zm-15.967 22.014h-2v-6.014h2zm2-8.014h-10.404l10.038-8.212c.427-.351.49-.981.141-1.407-.35-.429-.979-.489-1.407-.142l-12.198 9.98c-.006.005-.012.01-.018.015l-8.152 6.669v-5.429l21.633-17.701c.427-.35.49-.979.141-1.407-.35-.427-.979-.49-1.407-.141l-20.367 16.665v-8.398l21.611-16.7c.245-.19.389-.482.389-.792v-9h8c3.309 0 6 2.691 6 6v6h-7c-.552 0-1 .448-1 1v5c0 3.309 2.691 6 6 6h1.84c-.975 6.773-6.801 12-13.84 12zm22-24h-6v-6h2c2.206 0 4 1.794 4 4z" fill="#007aff"/></svg>