<svg id="Layer" enable-background="new 0 0 64 64" height="512" viewBox="0 0 64 64" width="512" xmlns="http://www.w3.org/2000/svg"><path d="m32 17c0-.552.448-1 1-1h9c3.309 0 6 2.691 6 6v1c0 .552-.448 1-1 1h-14c-.552 0-1-.448-1-1z" fill="#cce4ff"/><path d="m36 56h-7c-.552 0-1-.448-1-1v-19c0-4.411 3.589-8 8-8s8 3.589 8 8v12c0 4.411-3.589 8-8 8z" fill="#cce4ff"/><g fill="#007aff"><path d="m50 48h-6v-12c0-2.953-1.613-5.532-4-6.917v-5.083h7c.552 0 1-.448 1-1v-1c0-3.309-2.691-6-6-6h-2c0-4.411-3.589-8-8-8h-4c-4.411 0-8 3.589-8 8v11c0 .552.448 1 1 1s1-.448 1-1v-11c0-3.309 2.691-6 6-6h4c3.309 0 6 2.691 6 6h-5c-.552 0-1 .448-1 1s.448 1 1 1h9c2.206 0 4 1.794 4 4h-7c-.552 0-1 .448-1 1v5.263c-.641-.165-1.309-.263-2-.263-4.411 0-8 3.589-8 8v18h-8.726c1.667-1.467 2.726-3.61 2.726-6v-15c0-.552-.448-1-1-1s-1 .448-1 1v15c0 3.309-2.691 6-6 6h-5c-.552 0-1 .448-1 1s.448 1 1 1h46c.552 0 1-.448 1-1v-1c0-3.309-2.691-6-6-6zm-13.518 5.976c.941-1.06 1.518-2.45 1.518-3.976v-13c0-.552-.448-1-1-1s-1 .448-1 1v13c0 2.206-1.794 4-4 4h-2v-18c0-3.309 2.691-6 6-6s6 2.691 6 6v12c0 3.146-2.435 5.729-5.518 5.976zm4.792.024c1.185-1.042 2.056-2.427 2.463-4h6.263c2.206 0 4 1.794 4 4z"/><path d="m21.71 30.71c.18-.19.29-.45.29-.71s-.11-.52-.29-.71c-.37-.37-1.05-.37-1.42 0-.18.19-.29.45-.29.71s.11.52.29.71c.19.18.45.29.71.29s.52-.11.71-.29z"/></g></svg>