<svg id="Layer" enable-background="new 0 0 64 64" height="512" viewBox="0 0 64 64" width="512" xmlns="http://www.w3.org/2000/svg"><path d="m36 24c-.553 0-1-.447-1-1 0-2.757-2.243-5-5-5h-4.58c-.313 0-.608-.146-.797-.396-.189-.249-.25-.573-.165-.874 1.446-5.14 6.192-8.73 11.542-8.73 5.283 0 9.978 3.501 11.487 8.538.073.138.113.295.113.462 0 .553-.447 1-1 1-.005.001-.013 0-.02 0h-4.58c-2.757 0-5 2.243-5 5 0 .553-.447 1-1 1z" fill="#cce4ff"/><path d="m25 56h-8c-.552 0-1-.447-1-1v-23c0-4.411 3.589-8 8-8s8 3.589 8 8v17c0 3.859-3.14 7-7 7z" fill="#cce4ff"/><g fill="#007aff"><path d="m36 8c-6.617 0-12 5.383-12 12v4c-4.411 0-8 3.589-8 8v23c0 .553.448 1 1 1h30c.553 0 1-.447 1-1s-.447-1-1-1h-5.104c3.659-2.303 6.104-6.367 6.104-11v-2c0-.553-.447-1-1-1s-1 .447-1 1v2c0 6.065-4.935 11-11 11h-5.111c1.301-1.272 2.111-3.042 2.111-5v-15h4c4.172 0 7.849-2.142 10-5.381v6.381c0 .553.447 1 1 1s1-.447 1-1v-15c0-6.617-5.383-12-12-12zm0 2c4.091 0 7.612 2.473 9.159 6h-3.159c-2.543 0-4.774 1.363-6 3.397-1.226-2.034-3.457-3.397-6-3.397h-3.159c1.546-3.527 5.067-6 9.159-6zm-6 39c0 2.757-2.243 5-5 5h-2.111c1.301-1.272 2.111-3.042 2.111-5v-18c0-.553-.448-1-1-1s-1 .447-1 1v18c0 2.757-2.243 5-5 5v-22c0-3.309 2.691-6 5.92-6.003l.953.076c2.924.419 5.127 2.965 5.127 5.927v1zm6-17h-4c0-3.662-2.525-6.847-6-7.739v-4.261c0-.685.07-1.354.202-2h3.798c2.757 0 5 2.243 5 5v4c0 .553.447 1 1 1s1-.447 1-1v-4c0-2.757 2.243-5 5-5h3.798c.132.646.202 1.315.202 2v2c0 5.514-4.486 10-10 10z"/><circle cx="47" cy="38" r="1"/></g></svg>