<svg id="Layer" enable-background="new 0 0 64 64" height="512" viewBox="0 0 64 64" width="512" xmlns="http://www.w3.org/2000/svg"><path d="m31 56.014h-4c-.553 0-1-.448-1-1v-8.014c0-.552.447-1 1-1h4c.553 0 1 .448 1 1v8.014c0 .552-.447 1-1 1z" fill="#cce4ff"/><path d="m35 40h-21c-3.309 0-6-2.691-6-6v-3c0-.552.447-1 1-1h26c2.757 0 5 2.243 5 5s-2.243 5-5 5z" fill="#cce4ff"/><g fill="#007aff"><path d="m55 16h-7v-1c0-3.86-3.141-7-7-7s-7 3.14-7 7v7.562l-8.058 7.438h-16.942c-.553 0-1 .448-1 1v3c0 3.309 2.691 6 6 6h1.108l-6.787 6.265c-.302.279-.402.715-.253 1.099.151.384.52.636.932.636h10c.553 0 1-.448 1-1s-.447-1-1-1h-7.442l6.501-6h16.941c.553 0 1-.448 1-1s-.447-1-1-1h-21c-2.206 0-4-1.794-4-4v-2h25c.553 0 1-.448 1-1s-.447-1-1-1h-6.108l6.5-6h6.608c1.537 0 2.937-.586 4-1.541v9.541c0 7.72-6.28 14-14 14h-7c-.553 0-1 .448-1 1s.447 1 1 1h1v7.014c0 .552.447 1 1 1h10c.553 0 1-.448 1-1s-.447-1-1-1h-5v-6.014c8.822 0 16-7.178 16-16v-14h7c.553 0 1-.448 1-1s-.447-1-1-1zm-25 38.014h-2v-6.014h2zm12-32.014h-6v-7c0-2.757 2.243-5 5-5s5 2.243 5 5v1h-3c-.553 0-1 .448-1 1s.447 1 1 1h3c0 2.206-1.794 4-4 4z"/><path d="m21.29 46.29c-.181.19-.29.45-.29.71s.109.52.29.71c.189.18.45.29.71.29s.519-.11.71-.29c.18-.19.29-.45.29-.71s-.11-.52-.29-.71c-.37-.37-1.04-.37-1.42 0z"/></g></svg>