<svg id="Layer" enable-background="new 0 0 64 64" height="512" viewBox="0 0 64 64" width="512" xmlns="http://www.w3.org/2000/svg"><path d="m14 56h-1c-.553 0-1-.447-1-1v-19c0-4.411 3.589-8 8-8 .417 0 .794.026 1.152.082.488.075.848.495.848.988v18.93c0 4.411-3.589 8-8 8z" fill="#cce4ff"/><path d="m36 56h-7c-.553 0-1-.447-1-1v-19c0-4.411 3.589-8 8-8s8 3.589 8 8v12c0 4.411-3.589 8-8 8z" fill="#cce4ff"/><g fill="#007aff"><path d="m50 48h-6v-12c0-2.953-1.613-5.531-4-6.918v-5.082h7c.553 0 1-.447 1-1v-1c0-3.309-2.691-6-6-6h-2c0-4.411-3.589-8-8-8h-19c-.553 0-1 .447-1 1s.447 1 1 1h1c3.309 0 6 2.691 6 6v3c0 .553.447 1 1 1s1-.447 1-1v-3c0-2.39-1.06-4.533-2.727-6h12.727c3.309 0 6 2.691 6 6h-5c-.553 0-1 .447-1 1s.447 1 1 1h9c2.206 0 4 1.794 4 4h-7c-.553 0-1 .447-1 1v5.264c-.641-.166-1.309-.264-2-.264-4.411 0-8 3.589-8 8v18h-8.727c1.667-1.467 2.727-3.61 2.727-6v-22.929c0-.553-.447-1-1-1s-1 .447-1 1v2.929c-4.411 0-8 3.589-8 8v18h-3c-.553 0-1 .447-1 1s.447 1 1 1h46c.553 0 1-.447 1-1v-1c0-3.309-2.691-6-6-6zm-36-12c0-3.309 2.691-6 6-6v18c0 3.309-2.691 6-6 6zm16 0c0-3.309 2.691-6 6-6s6 2.691 6 6v12c0 3.146-2.435 5.729-5.519 5.976.942-1.06 1.519-2.451 1.519-3.976v-13c0-.553-.447-1-1-1s-1 .447-1 1v13c0 2.206-1.794 4-4 4h-2zm11.273 18c1.185-1.043 2.057-2.427 2.463-4h6.264c2.206 0 4 1.794 4 4z"/><circle cx="21" cy="22" r="1"/></g></svg>