<svg id="Layer" enable-background="new 0 0 64 64" height="512" viewBox="0 0 64 64" width="512" xmlns="http://www.w3.org/2000/svg"><path d="m47 56h-8c-3.86 0-7-3.14-7-7v-17c0-4.411 3.589-8 8-8s8 3.589 8 8v23c0 .552-.448 1-1 1z" fill="#cce4ff"/><path d="m29.02 56c-.007-.001-.013 0-.02 0h-14c-3.86 0-7-3.14-7-7v-17c0-4.411 3.589-8 8-8 .412 0 .788.026 1.149.081.489.074.851.494.851.989v17.93c0 6.065 4.935 11 11 11h.01.01c.552 0 1 .448 1 1s-.448 1-1 1z" fill="#cce4ff"/><g fill="#007aff"><path d="m55 54h-7v-13c0-.552-.448-1-1-1s-1 .448-1 1v13c-2.757 0-5-2.243-5-5v-16c0-.552-.448-1-1-1s-1 .448-1 1v16c0 1.958.81 3.728 2.11 5h-2.11c-2.757 0-5-2.243-5-5v-17c0-3.309 2.691-6 6-6s6 2.691 6 6v3c0 .552.448 1 1 1s1-.448 1-1v-3c0-2.39-1.059-4.533-2.726-6h1.726c.552 0 1-.448 1-1v-3c0-3.309-2.691-6-6-6h-2.059c-.5-4.493-4.317-8-8.941-8h-6c-4.962 0-9 4.038-9 9v7c-4.411 0-8 3.589-8 8v17c0 3.86 3.14 7 7 7h40c.552 0 1-.448 1-1s-.448-1-1-1zm-37-37c0-3.86 3.14-7 7-7h6c3.519 0 6.432 2.613 6.92 6h-4.92c-.552 0-1 .448-1 1s.448 1 1 1h9c2.206 0 4 1.794 4 4v2h-6c-4.411 0-8 3.589-8 8h-7c-3.86 0-7-3.14-7-7zm-3 37c-2.757 0-5-2.243-5-5v-17c0-3.309 2.691-6 6-6v17c0 4.634 2.444 8.698 6.103 11zm14 0c-6.065 0-11-4.935-11-11v-12.356c1.651 2.044 4.174 3.356 7 3.356h7v15c0 1.958.81 3.728 2.11 5z"/><circle cx="47" cy="38" r="1"/></g></svg>