<svg id="Layer" enable-background="new 0 0 64 64" height="512" viewBox="0 0 64 64" width="512" xmlns="http://www.w3.org/2000/svg"><g fill="#cce4ff"><path d="m33 40h-16c-.404 0-.769-.244-.924-.617-.155-.374-.069-.804.217-1.09l10-10c.187-.188.442-.293.707-.293h12c.552 0 1 .448 1 1v4c0 3.86-3.14 7-7 7z"/><path d="m55 24h-8c-.552 0-1-.448-1-1v-8c0-.552.448-1 1-1h3c3.309 0 6 2.691 6 6v3c0 .552-.448 1-1 1z"/><path d="m31 56.014h-4c-.552 0-1-.448-1-1v-8.014c0-.552.448-1 1-1h4c.552 0 1 .448 1 1v8.014c0 .552-.448 1-1 1z"/></g><path d="m50 14h-2.263c-.892-3.445-4.017-6-7.737-6-4.411 0-8 3.589-8 8v6.586l-5.707 5.707-10 10-8 8c-.286.286-.372.716-.217 1.09.155.373.52.617.924.617h10c.552 0 1-.448 1-1s-.448-1-1-1h-7.586l6-6h15.586c3.86 0 7-3.14 7-7v-4c0-.552-.448-1-1-1h-9.586l4.293-4.293c.188-.187.293-.442.293-.707v-7c0-3.309 2.691-6 6-6s6 2.691 6 6v7 9c0 7.72-6.28 14-14 14h-7c-.552 0-1 .448-1 1s.448 1 1 1h1v7.014c0 .552.448 1 1 1h4 2 4c.552 0 1-.448 1-1s-.448-1-1-1h-4-1v-6.014c8.822 0 16-7.178 16-16v-8h7c.552 0 1-.448 1-1v-3c0-3.309-2.691-6-6-6zm-12 16v3c0 2.757-2.243 5-5 5h-13.586l8-8zm-8 24.014h-2v-6.014h2zm24-32.014h-6v-6h2c2.206 0 4 1.794 4 4z" fill="#007aff"/><path d="m21.29 46.29c-.18.19-.29.44-.29.71 0 .26.11.52.29.71.19.18.45.29.71.29s.52-.11.71-.29c.18-.19.29-.45.29-.71s-.11-.52-.29-.71c-.38-.37-1.05-.37-1.42 0z" fill="#007aff"/></svg>