<svg id="Layer" enable-background="new 0 0 64 64" height="512" viewBox="0 0 64 64" width="512" xmlns="http://www.w3.org/2000/svg"><g fill="#cce4ff"><path d="m31 56.014h-4c-.553 0-1-.447-1-1v-8.014c0-.553.447-1 1-1h4c.553 0 1 .447 1 1v8.014c0 .552-.447 1-1 1z"/><path d="m20 37c-.553 0-1-.447-1-1 0-2.206-1.794-4-4-4-.048 0-.095-.003-.141-.01h-5.859c-.553 0-1-.448-1-1v-7.98c0-.552.447-1 1-1h6c3.309 0 6 2.691 6 6v7.99c0 .553-.447 1-1 1z"/><path d="m55 24h-8c-.553 0-1-.448-1-1v-6c0-.552.447-1 1-1h3c3.309 0 6 2.691 6 6v1c0 .552-.447 1-1 1z"/></g><path d="m50 16h-2c0-4.411-3.589-8-8-8h-7c-.553 0-1 .448-1 1v6c0 .552.447 1 1 1s1-.448 1-1v-5h6c3.309 0 6 2.691 6 6v4c0 2.206-1.794 4-4 4h-8v-3c0-.552-.447-1-1-1s-1 .448-1 1v3.546l-11 9.624v-6.16c0-3.309-2.691-6-6-6h-6c-.553 0-1 .448-1 1v7.98c0 .002.001.003.001.005s-.001.003-.001.005v8c0 .553.447 1 1 1h5.339l-5.997 5.247c-.218.191-.342.465-.342.753v1.014c0 .553.447 1 1 1 .024 0 .044-.012.067-.014h16.933v7.014c0 .553.447 1 1 1h10c.553 0 1-.447 1-1s-.447-1-1-1h-5v-6.014c9.121 0 16-6.448 16-15v-9h7c.553 0 1-.448 1-1v-1c0-3.309-2.691-6-6-6zm-35 8.01c2.206 0 4 1.794 4 4v3.531c-1.063-.955-2.463-1.541-4-1.541h-5v-5.99zm-5 13.99v-6h5c2.182 0 3.953 1.756 3.992 3.928l-2.368 2.072zm20 16.014h-2v-6.014h2zm2-8.014h-21.481l9.142-8h13.339c.553 0 1-.447 1-1s-.447-1-1-1h-11.053l11.428-10h8.625c1.537 0 2.937-.586 4-1.541v8.541c0 7.411-6.019 13-14 13zm16-24v-4h2c2.206 0 4 1.794 4 4z" fill="#007aff"/><path d="m33.71 18.71c.18-.19.29-.45.29-.71s-.11-.52-.29-.71c-.37-.37-1.05-.37-1.42 0-.181.19-.29.45-.29.71s.109.52.29.71c.189.18.45.29.71.29s.519-.11.71-.29z" fill="#007aff"/></svg>