<svg id="Layer" enable-background="new 0 0 64 64" height="512" viewBox="0 0 64 64" width="512" xmlns="http://www.w3.org/2000/svg"><path d="m55 56h-33c-3.309 0-6-2.691-6-6v-14c0-3.309 2.691-6 6-6h20c3.309 0 6 2.691 6 6v14c0 2.206 1.794 4 4 4h3c.553 0 1 .448 1 1s-.447 1-1 1z" fill="#cce4ff"/><path d="m38 24h-3c-.553 0-1-.448-1-1v-14c0-.552.447-1 1-1h3c3.309 0 6 2.691 6 6v4c0 3.309-2.691 6-6 6z" fill="#cce4ff"/><g fill="#007aff"><path d="m55 54h-3c-2.206 0-4-1.794-4-4v-14c0-3.309-2.691-6-6-6h-20c-1.537 0-2.938.586-4 1.541v-7.541h5c1.654 0 3-1.346 3-3v-3h8v5c0 .552.447 1 1 1h3c3.309 0 6-2.691 6-6v-4c0-3.309-2.691-6-6-6h-24c-3.309 0-6 2.691-6 6v9 8c0 .552.447 1 1 1s1-.448 1-1v-7h6v12 14c0 1.538.586 2.937 1.54 4h-.54c-3.859 0-7-3.14-7-7v-10c0-.552-.447-1-1-1s-1 .448-1 1v10c0 4.962 4.037 9 9 9h5 33c.553 0 1-.448 1-1s-.447-1-1-1zm-13-40v4c0 2.206-1.794 4-4 4h-2v-5-7h2c2.206 0 4 1.794 4 4zm-8 2h-8v-6h8zm-24-2c0-2.206 1.794-4 4-4h10v7 4c0 .552-.448 1-1 1h-13zm12 40c-2.206 0-4-1.794-4-4v-14c0-2.206 1.794-4 4-4h20c2.206 0 4 1.794 4 4v14c0 1.535.58 2.938 1.531 4z"/><path d="m41 46h-13c-2.206 0-4-1.794-4-4v-1c0-.552-.447-1-1-1s-1 .448-1 1v1c0 3.309 2.691 6 6 6h13c.553 0 1-.448 1-1s-.447-1-1-1z"/><circle cx="9" cy="34" r="1"/></g></svg>